<?xml version="1.0" encoding="UTF-8" standalone="no"?>
<!DOCTYPE svg PUBLIC "-//W3C//DTD SVG 1.1//EN"
 "http://www.w3.org/Graphics/SVG/1.1/DTD/svg11.dtd">
<!-- Generated by graphviz version 2.40.1 (20161225.0304)
 -->
<!-- Title: drizzle.__drizzle_migrations Pages: 1 -->
<svg width="463pt" height="225pt"
 viewBox="0.00 0.00 463.00 225.00" xmlns="http://www.w3.org/2000/svg" xmlns:xlink="http://www.w3.org/1999/xlink">
<g id="graph0" class="graph" transform="scale(1 1) rotate(0) translate(4 221)">
<title>drizzle.__drizzle_migrations</title>
<polygon fill="#ffffff" stroke="transparent" points="-4,4 -4,-221 459,-221 459,4 -4,4"/>
<!-- drizzle.__drizzle_migrations -->
<g id="node1" class="node">
<title>drizzle.__drizzle_migrations</title>
<polygon fill="#efefef" stroke="transparent" points="46.5,-135.5 46.5,-170.5 409.5,-170.5 409.5,-135.5 46.5,-135.5"/>
<polygon fill="none" stroke="#000000" points="46.5,-135.5 46.5,-170.5 409.5,-170.5 409.5,-135.5 46.5,-135.5"/>
<text text-anchor="start" x="53.2127" y="-148.3" font-family="Arial Bold" font-size="18.00" fill="#000000">drizzle.__drizzle_migrations</text>
<text text-anchor="start" x="275.2193" y="-148.3" font-family="Arial" font-size="14.00" fill="#000000">    </text>
<text text-anchor="start" x="309.4241" y="-148.3" font-family="Arial" font-size="14.00" fill="#666666">[BASE TABLE]</text>
<polygon fill="none" stroke="#000000" points="46.5,-105.5 46.5,-135.5 409.5,-135.5 409.5,-105.5 46.5,-105.5"/>
<text text-anchor="start" x="53.5" y="-116.9" font-family="Arial" font-size="14.00" fill="#000000">id </text>
<text text-anchor="start" x="68.2798" y="-116.9" font-family="Arial" font-size="14.00" fill="#666666">[integer]</text>
<polygon fill="none" stroke="#000000" points="46.5,-75.5 46.5,-105.5 409.5,-105.5 409.5,-75.5 46.5,-75.5"/>
<text text-anchor="start" x="53.5" y="-86.9" font-family="Arial" font-size="14.00" fill="#000000">hash </text>
<text text-anchor="start" x="87.7384" y="-86.9" font-family="Arial" font-size="14.00" fill="#666666">[text]</text>
<polygon fill="none" stroke="#000000" points="46.5,-45.5 46.5,-75.5 409.5,-75.5 409.5,-45.5 46.5,-45.5"/>
<text text-anchor="start" x="53.5" y="-56.9" font-family="Arial" font-size="14.00" fill="#000000">created_at </text>
<text text-anchor="start" x="123.528" y="-56.9" font-family="Arial" font-size="14.00" fill="#666666">[bigint]</text>
<polygon fill="none" stroke="#000000" stroke-width="3" points="44.5,-44.5 44.5,-172.5 410.5,-172.5 410.5,-44.5 44.5,-44.5"/>
</g>
</g>
</svg>
