<?xml version="1.0" encoding="UTF-8" standalone="no"?>
<!DOCTYPE svg PUBLIC "-//W3C//DTD SVG 1.1//EN"
 "http://www.w3.org/Graphics/SVG/1.1/DTD/svg11.dtd">
<!-- Generated by graphviz version 2.40.1 (20161225.0304)
 -->
<!-- Title: public.storepaymentinfo Pages: 1 -->
<svg width="773pt" height="1192pt"
 viewBox="0.00 0.00 772.50 1192.00" xmlns="http://www.w3.org/2000/svg" xmlns:xlink="http://www.w3.org/1999/xlink">
<g id="graph0" class="graph" transform="scale(1 1) rotate(0) translate(4 1188)">
<title>public.storepaymentinfo</title>
<polygon fill="#ffffff" stroke="transparent" points="-4,4 -4,-1188 768.5,-1188 768.5,4 -4,4"/>
<!-- public.storepaymentinfo -->
<g id="node1" class="node">
<title>public.storepaymentinfo</title>
<polygon fill="#efefef" stroke="transparent" points="388,-1102.5 388,-1137.5 719,-1137.5 719,-1102.5 388,-1102.5"/>
<polygon fill="none" stroke="#000000" points="388,-1102.5 388,-1137.5 719,-1137.5 719,-1102.5 388,-1102.5"/>
<text text-anchor="start" x="394.694" y="-1115.3" font-family="Arial Bold" font-size="18.00" fill="#000000">public.storepaymentinfo</text>
<text text-anchor="start" x="584.738" y="-1115.3" font-family="Arial" font-size="14.00" fill="#000000">    </text>
<text text-anchor="start" x="618.9428" y="-1115.3" font-family="Arial" font-size="14.00" fill="#666666">[BASE TABLE]</text>
<polygon fill="none" stroke="#000000" points="388,-1072.5 388,-1102.5 719,-1102.5 719,-1072.5 388,-1072.5"/>
<text text-anchor="start" x="395" y="-1083.9" font-family="Arial" font-size="14.00" fill="#000000">storeID </text>
<text text-anchor="start" x="444.0042" y="-1083.9" font-family="Arial" font-size="14.00" fill="#666666">[integer]</text>
<polygon fill="none" stroke="#000000" points="388,-1042.5 388,-1072.5 719,-1072.5 719,-1042.5 388,-1042.5"/>
<text text-anchor="start" x="395" y="-1053.9" font-family="Arial" font-size="14.00" fill="#000000">bankgiro </text>
<text text-anchor="start" x="452.5708" y="-1053.9" font-family="Arial" font-size="14.00" fill="#666666">[varchar(16)]</text>
<polygon fill="none" stroke="#000000" points="388,-1012.5 388,-1042.5 719,-1042.5 719,-1012.5 388,-1012.5"/>
<text text-anchor="start" x="395" y="-1023.9" font-family="Arial" font-size="14.00" fill="#000000">plusgiro </text>
<text text-anchor="start" x="447.8948" y="-1023.9" font-family="Arial" font-size="14.00" fill="#666666">[varchar(16)]</text>
<polygon fill="none" stroke="#000000" points="388,-982.5 388,-1012.5 719,-1012.5 719,-982.5 388,-982.5"/>
<text text-anchor="start" x="395" y="-993.9" font-family="Arial" font-size="14.00" fill="#000000">paymentdays </text>
<text text-anchor="start" x="482.1374" y="-993.9" font-family="Arial" font-size="14.00" fill="#666666">[smallint]</text>
<polygon fill="none" stroke="#000000" points="388,-952.5 388,-982.5 719,-982.5 719,-952.5 388,-952.5"/>
<text text-anchor="start" x="395" y="-963.9" font-family="Arial" font-size="14.00" fill="#000000">createdAt </text>
<text text-anchor="start" x="458.7994" y="-963.9" font-family="Arial" font-size="14.00" fill="#666666">[timestamp without time zone]</text>
<polygon fill="none" stroke="#000000" points="388,-922.5 388,-952.5 719,-952.5 719,-922.5 388,-922.5"/>
<text text-anchor="start" x="395" y="-933.9" font-family="Arial" font-size="14.00" fill="#000000">updatedAt </text>
<text text-anchor="start" x="462.704" y="-933.9" font-family="Arial" font-size="14.00" fill="#666666">[timestamp without time zone]</text>
<polygon fill="none" stroke="#000000" stroke-width="3" points="386,-921.5 386,-1139.5 720,-1139.5 720,-921.5 386,-921.5"/>
</g>
<!-- public.stores -->
<g id="node2" class="node">
<title>public.stores</title>
<polygon fill="#efefef" stroke="transparent" points="405,-762.5 405,-797.5 702,-797.5 702,-762.5 405,-762.5"/>
<polygon fill="none" stroke="#000000" points="405,-762.5 405,-797.5 702,-797.5 702,-762.5 405,-762.5"/>
<text text-anchor="start" x="439.208" y="-775.3" font-family="Arial Bold" font-size="18.00" fill="#000000">public.stores</text>
<text text-anchor="start" x="540.224" y="-775.3" font-family="Arial" font-size="14.00" fill="#000000">    </text>
<text text-anchor="start" x="574.4288" y="-775.3" font-family="Arial" font-size="14.00" fill="#666666">[BASE TABLE]</text>
<polygon fill="none" stroke="#000000" points="405,-732.5 405,-762.5 702,-762.5 702,-732.5 405,-732.5"/>
<text text-anchor="start" x="412" y="-743.9" font-family="Arial" font-size="14.00" fill="#000000">storeID    </text>
<text text-anchor="start" x="491.3184" y="-743.9" font-family="Arial" font-size="14.00" fill="#666666">[integer]</text>
<polygon fill="none" stroke="#000000" points="405,-702.5 405,-732.5 702,-732.5 702,-702.5 405,-702.5"/>
<text text-anchor="start" x="412" y="-713.9" font-family="Arial" font-size="14.00" fill="#000000">storeOrgNumber    </text>
<text text-anchor="start" x="550.4306" y="-713.9" font-family="Arial" font-size="14.00" fill="#666666">[varchar(11)]</text>
<polygon fill="none" stroke="#000000" points="405,-672.5 405,-702.5 702,-702.5 702,-672.5 405,-672.5"/>
<text text-anchor="start" x="412" y="-683.9" font-family="Arial" font-size="14.00" fill="#000000">storeName    </text>
<text text-anchor="start" x="514.6536" y="-683.9" font-family="Arial" font-size="14.00" fill="#666666">[varchar(128)]</text>
<polygon fill="none" stroke="#000000" points="405,-642.5 405,-672.5 702,-672.5 702,-642.5 405,-642.5"/>
<text text-anchor="start" x="412" y="-653.9" font-family="Arial" font-size="14.00" fill="#000000">storeWebSite    </text>
<text text-anchor="start" x="530.2174" y="-653.9" font-family="Arial" font-size="14.00" fill="#666666">[varchar]</text>
<polygon fill="none" stroke="#000000" points="405,-612.5 405,-642.5 702,-642.5 702,-612.5 405,-612.5"/>
<text text-anchor="start" x="412" y="-623.9" font-family="Arial" font-size="14.00" fill="#000000">storeVatNumber    </text>
<text text-anchor="start" x="548.1066" y="-623.9" font-family="Arial" font-size="14.00" fill="#666666">[varchar(32)]</text>
<polygon fill="none" stroke="#000000" points="405,-582.5 405,-612.5 702,-612.5 702,-582.5 405,-582.5"/>
<text text-anchor="start" x="412" y="-593.9" font-family="Arial" font-size="14.00" fill="#000000">storeFSkatt    </text>
<text text-anchor="start" x="517.7742" y="-593.9" font-family="Arial" font-size="14.00" fill="#666666">[boolean]</text>
<polygon fill="none" stroke="#000000" points="405,-552.5 405,-582.5 702,-582.5 702,-552.5 405,-552.5"/>
<text text-anchor="start" x="412" y="-563.9" font-family="Arial" font-size="14.00" fill="#000000">storeStatus    </text>
<text text-anchor="start" x="517.0042" y="-563.9" font-family="Arial" font-size="14.00" fill="#666666">[boolean]</text>
<polygon fill="none" stroke="#000000" points="405,-522.5 405,-552.5 702,-552.5 702,-522.5 405,-522.5"/>
<text text-anchor="start" x="412" y="-533.9" font-family="Arial" font-size="14.00" fill="#000000">storeEmail    </text>
<text text-anchor="start" x="512.3142" y="-533.9" font-family="Arial" font-size="14.00" fill="#666666">[varchar]</text>
<polygon fill="none" stroke="#000000" points="405,-492.5 405,-522.5 702,-522.5 702,-492.5 405,-492.5"/>
<text text-anchor="start" x="412" y="-503.9" font-family="Arial" font-size="14.00" fill="#000000">storePhone    </text>
<text text-anchor="start" x="517.7882" y="-503.9" font-family="Arial" font-size="14.00" fill="#666666">[varchar]</text>
<polygon fill="none" stroke="#000000" points="405,-462.5 405,-492.5 702,-492.5 702,-462.5 405,-462.5"/>
<text text-anchor="start" x="412" y="-473.9" font-family="Arial" font-size="14.00" fill="#000000">storeAddress    </text>
<text text-anchor="start" x="528.6662" y="-473.9" font-family="Arial" font-size="14.00" fill="#666666">[varchar]</text>
<polygon fill="none" stroke="#000000" points="405,-432.5 405,-462.5 702,-462.5 702,-432.5 405,-432.5"/>
<text text-anchor="start" x="412" y="-443.9" font-family="Arial" font-size="14.00" fill="#000000">storeZipCode    </text>
<text text-anchor="start" x="530.2174" y="-443.9" font-family="Arial" font-size="14.00" fill="#666666">[varchar(16)]</text>
<polygon fill="none" stroke="#000000" points="405,-402.5 405,-432.5 702,-432.5 702,-402.5 405,-402.5"/>
<text text-anchor="start" x="412" y="-413.9" font-family="Arial" font-size="14.00" fill="#000000">storeCity    </text>
<text text-anchor="start" x="501.425" y="-413.9" font-family="Arial" font-size="14.00" fill="#666666">[varchar]</text>
<polygon fill="none" stroke="#000000" points="405,-372.5 405,-402.5 702,-402.5 702,-372.5 405,-372.5"/>
<text text-anchor="start" x="412" y="-383.9" font-family="Arial" font-size="14.00" fill="#000000">storeCountry    </text>
<text text-anchor="start" x="526.3268" y="-383.9" font-family="Arial" font-size="14.00" fill="#666666">[varchar]</text>
<polygon fill="none" stroke="#000000" points="405,-342.5 405,-372.5 702,-372.5 702,-342.5 405,-342.5"/>
<text text-anchor="start" x="412" y="-353.9" font-family="Arial" font-size="14.00" fill="#000000">storeDescription    </text>
<text text-anchor="start" x="547.3226" y="-353.9" font-family="Arial" font-size="14.00" fill="#666666">[varchar]</text>
<polygon fill="none" stroke="#000000" points="405,-312.5 405,-342.5 702,-342.5 702,-312.5 405,-312.5"/>
<text text-anchor="start" x="412" y="-323.9" font-family="Arial" font-size="14.00" fill="#000000">storeContactPerson    </text>
<text text-anchor="start" x="569.9018" y="-323.9" font-family="Arial" font-size="14.00" fill="#666666">[varchar(64)]</text>
<polygon fill="none" stroke="#000000" points="405,-282.5 405,-312.5 702,-312.5 702,-282.5 405,-282.5"/>
<text text-anchor="start" x="412" y="-293.9" font-family="Arial" font-size="14.00" fill="#000000">storeMaxUsers    </text>
<text text-anchor="start" x="540.3142" y="-293.9" font-family="Arial" font-size="14.00" fill="#666666">[integer]</text>
<polygon fill="none" stroke="#000000" points="405,-252.5 405,-282.5 702,-282.5 702,-252.5 405,-252.5"/>
<text text-anchor="start" x="412" y="-263.9" font-family="Arial" font-size="14.00" fill="#000000">currency    </text>
<text text-anchor="start" x="499.8738" y="-263.9" font-family="Arial" font-size="14.00" fill="#666666">[varchar]</text>
<polygon fill="none" stroke="#000000" points="405,-222.5 405,-252.5 702,-252.5 702,-222.5 405,-222.5"/>
<text text-anchor="start" x="412" y="-233.9" font-family="Arial" font-size="14.00" fill="#000000">storeAllowCarAPI    </text>
<text text-anchor="start" x="555.8738" y="-233.9" font-family="Arial" font-size="14.00" fill="#666666">[boolean]</text>
<polygon fill="none" stroke="#000000" points="405,-192.5 405,-222.5 702,-222.5 702,-192.5 405,-192.5"/>
<text text-anchor="start" x="412" y="-203.9" font-family="Arial" font-size="14.00" fill="#000000">storeAllowSendSMS    </text>
<text text-anchor="start" x="573.7784" y="-203.9" font-family="Arial" font-size="14.00" fill="#666666">[boolean]</text>
<polygon fill="none" stroke="#000000" points="405,-162.5 405,-192.5 702,-192.5 702,-162.5 405,-162.5"/>
<text text-anchor="start" x="412" y="-173.9" font-family="Arial" font-size="14.00" fill="#000000">storeSendSMS    </text>
<text text-anchor="start" x="540.3394" y="-173.9" font-family="Arial" font-size="14.00" fill="#666666">[boolean]</text>
<polygon fill="none" stroke="#000000" points="405,-132.5 405,-162.5 702,-162.5 702,-132.5 405,-132.5"/>
<text text-anchor="start" x="412" y="-143.9" font-family="Arial" font-size="14.00" fill="#000000">storeUsesCheckin    </text>
<text text-anchor="start" x="559.7714" y="-143.9" font-family="Arial" font-size="14.00" fill="#666666">[boolean]</text>
<polygon fill="none" stroke="#000000" points="405,-102.5 405,-132.5 702,-132.5 702,-102.5 405,-102.5"/>
<text text-anchor="start" x="412" y="-113.9" font-family="Arial" font-size="14.00" fill="#000000">storeUsesPIN    </text>
<text text-anchor="start" x="532.5442" y="-113.9" font-family="Arial" font-size="14.00" fill="#666666">[boolean]</text>
<polygon fill="none" stroke="#000000" points="405,-72.5 405,-102.5 702,-102.5 702,-72.5 405,-72.5"/>
<text text-anchor="start" x="412" y="-83.9" font-family="Arial" font-size="14.00" fill="#000000">createdAt    </text>
<text text-anchor="start" x="506.1136" y="-83.9" font-family="Arial" font-size="14.00" fill="#666666">[timestamp without time zone]</text>
<polygon fill="none" stroke="#000000" points="405,-42.5 405,-72.5 702,-72.5 702,-42.5 405,-42.5"/>
<text text-anchor="start" x="411.9208" y="-53.9" font-family="Arial" font-size="14.00" fill="#000000">updatedAt    </text>
<text text-anchor="start" x="509.939" y="-53.9" font-family="Arial" font-size="14.00" fill="#666666">[timestamp without time zone]</text>
</g>
<!-- public.storepaymentinfo&#45;&gt;public.stores -->
<g id="edge1" class="edge">
<title>public.storepaymentinfo:storeID&#45;&gt;public.stores:storeID</title>
<path fill="none" stroke="#000000" d="M377.969,-1085.3288C314.0727,-1056.3721 332.8961,-747.5 405,-747.5"/>
<polygon fill="#000000" stroke="#000000" points="378.2263,-1085.3845 387.048,-1091.8982 383.1132,-1086.4422 388,-1087.5 388,-1087.5 388,-1087.5 383.1132,-1086.4422 388.952,-1083.1018 378.2263,-1085.3845 378.2263,-1085.3845"/>
<text text-anchor="start" x="6.623" y="-1097.5" font-family="Arial" font-size="10.00" fill="#000000">FOREIGN KEY (&quot;storeID&quot;) REFERENCES stores(&quot;storeID&quot;) ON DELETE CASCADE</text>
</g>
</g>
</svg>
