<?xml version="1.0" encoding="UTF-8" standalone="no"?>
<!DOCTYPE svg PUBLIC "-//W3C//DTD SVG 1.1//EN"
 "http://www.w3.org/Graphics/SVG/1.1/DTD/svg11.dtd">
<!-- Generated by graphviz version 2.40.1 (20161225.0304)
 -->
<!-- Title: public.roleToPermissions Pages: 1 -->
<svg width="967pt" height="562pt"
 viewBox="0.00 0.00 967.00 562.00" xmlns="http://www.w3.org/2000/svg" xmlns:xlink="http://www.w3.org/1999/xlink">
<g id="graph0" class="graph" transform="scale(1 1) rotate(0) translate(4 558)">
<title>public.roleToPermissions</title>
<polygon fill="#ffffff" stroke="transparent" points="-4,4 -4,-558 963,-558 963,4 -4,4"/>
<!-- public.roleToPermissions -->
<g id="node1" class="node">
<title>public.roleToPermissions</title>
<polygon fill="#efefef" stroke="transparent" points="261,-472.5 261,-507.5 603,-507.5 603,-472.5 261,-472.5"/>
<polygon fill="none" stroke="#000000" points="261,-472.5 261,-507.5 603,-507.5 603,-472.5 261,-472.5"/>
<text text-anchor="start" x="267.713" y="-485.3" font-family="Arial Bold" font-size="18.00" fill="#000000">public.roleToPermissions</text>
<text text-anchor="start" x="468.719" y="-485.3" font-family="Arial" font-size="14.00" fill="#000000">    </text>
<text text-anchor="start" x="502.9238" y="-485.3" font-family="Arial" font-size="14.00" fill="#666666">[BASE TABLE]</text>
<polygon fill="none" stroke="#000000" points="261,-442.5 261,-472.5 603,-472.5 603,-442.5 261,-442.5"/>
<text text-anchor="start" x="268" y="-453.9" font-family="Arial" font-size="14.00" fill="#000000">roleID </text>
<text text-anchor="start" x="309.2202" y="-453.9" font-family="Arial" font-size="14.00" fill="#666666">[integer]</text>
<polygon fill="none" stroke="#000000" points="261,-412.5 261,-442.5 603,-442.5 603,-412.5 261,-412.5"/>
<text text-anchor="start" x="268" y="-423.9" font-family="Arial" font-size="14.00" fill="#000000">permissionID </text>
<text text-anchor="start" x="353.5526" y="-423.9" font-family="Arial" font-size="14.00" fill="#666666">[integer]</text>
<polygon fill="none" stroke="#000000" points="261,-382.5 261,-412.5 603,-412.5 603,-382.5 261,-382.5"/>
<text text-anchor="start" x="268" y="-393.9" font-family="Arial" font-size="14.00" fill="#000000">createdAt </text>
<text text-anchor="start" x="331.7994" y="-393.9" font-family="Arial" font-size="14.00" fill="#666666">[timestamp without time zone]</text>
<polygon fill="none" stroke="#000000" points="261,-352.5 261,-382.5 603,-382.5 603,-352.5 261,-352.5"/>
<text text-anchor="start" x="268" y="-363.9" font-family="Arial" font-size="14.00" fill="#000000">updatedAt </text>
<text text-anchor="start" x="335.704" y="-363.9" font-family="Arial" font-size="14.00" fill="#666666">[timestamp without time zone]</text>
<polygon fill="none" stroke="#000000" stroke-width="3" points="259.5,-351.5 259.5,-509.5 604.5,-509.5 604.5,-351.5 259.5,-351.5"/>
</g>
<!-- public.roles -->
<g id="node2" class="node">
<title>public.roles</title>
<polygon fill="#efefef" stroke="transparent" points="83,-192.5 83,-227.5 380,-227.5 380,-192.5 83,-192.5"/>
<polygon fill="none" stroke="#000000" points="83,-192.5 83,-227.5 380,-227.5 380,-192.5 83,-192.5"/>
<text text-anchor="start" x="122.212" y="-205.3" font-family="Arial Bold" font-size="18.00" fill="#000000">public.roles</text>
<text text-anchor="start" x="213.22" y="-205.3" font-family="Arial" font-size="14.00" fill="#000000">    </text>
<text text-anchor="start" x="247.4248" y="-205.3" font-family="Arial" font-size="14.00" fill="#666666">[BASE TABLE]</text>
<polygon fill="none" stroke="#000000" points="83,-162.5 83,-192.5 380,-192.5 380,-162.5 83,-162.5"/>
<text text-anchor="start" x="90" y="-173.9" font-family="Arial" font-size="14.00" fill="#000000">roleID    </text>
<text text-anchor="start" x="161.5344" y="-173.9" font-family="Arial" font-size="14.00" fill="#666666">[integer]</text>
<polygon fill="none" stroke="#000000" points="83,-132.5 83,-162.5 380,-162.5 380,-132.5 83,-132.5"/>
<text text-anchor="start" x="90" y="-143.9" font-family="Arial" font-size="14.00" fill="#000000">roleName    </text>
<text text-anchor="start" x="184.8696" y="-143.9" font-family="Arial" font-size="14.00" fill="#666666">[varchar(256)]</text>
<polygon fill="none" stroke="#000000" points="83,-102.5 83,-132.5 380,-132.5 380,-102.5 83,-102.5"/>
<text text-anchor="start" x="90" y="-113.9" font-family="Arial" font-size="14.00" fill="#000000">description    </text>
<text text-anchor="start" x="191.8822" y="-113.9" font-family="Arial" font-size="14.00" fill="#666666">[text]</text>
<polygon fill="none" stroke="#000000" points="83,-72.5 83,-102.5 380,-102.5 380,-72.5 83,-72.5"/>
<text text-anchor="start" x="90" y="-83.9" font-family="Arial" font-size="14.00" fill="#000000">createdAt    </text>
<text text-anchor="start" x="184.1136" y="-83.9" font-family="Arial" font-size="14.00" fill="#666666">[timestamp without time zone]</text>
<polygon fill="none" stroke="#000000" points="83,-42.5 83,-72.5 380,-72.5 380,-42.5 83,-42.5"/>
<text text-anchor="start" x="89.9208" y="-53.9" font-family="Arial" font-size="14.00" fill="#000000">updatedAt    </text>
<text text-anchor="start" x="187.939" y="-53.9" font-family="Arial" font-size="14.00" fill="#666666">[timestamp without time zone]</text>
</g>
<!-- public.roleToPermissions&#45;&gt;public.roles -->
<g id="edge1" class="edge">
<title>public.roleToPermissions:roleID&#45;&gt;public.roles:roleID</title>
<path fill="none" stroke="#000000" d="M250.8554,-456.6545C197.1052,-447.0425 223.3142,-357.7733 261,-307 293.9328,-262.6303 347.0672,-315.3697 380,-271 404.7672,-237.6316 421.5556,-177.5 380,-177.5"/>
<polygon fill="#000000" stroke="#000000" points="251.0346,-456.6693 260.6262,-461.9845 256.0173,-457.0847 261,-457.5 261,-457.5 261,-457.5 256.0173,-457.0847 261.3738,-453.0155 251.0346,-456.6693 251.0346,-456.6693"/>
<text text-anchor="start" x="7.244" y="-467.5" font-family="Arial" font-size="10.00" fill="#000000">FOREIGN KEY (&quot;roleID&quot;) REFERENCES roles(&quot;roleID&quot;)</text>
</g>
<!-- public.permissions -->
<g id="node3" class="node">
<title>public.permissions</title>
<polygon fill="#efefef" stroke="transparent" points="484,-192.5 484,-227.5 781,-227.5 781,-192.5 484,-192.5"/>
<polygon fill="none" stroke="#000000" points="484,-192.5 484,-227.5 781,-227.5 781,-192.5 484,-192.5"/>
<text text-anchor="start" x="494.7126" y="-205.3" font-family="Arial Bold" font-size="18.00" fill="#000000">public.permissions</text>
<text text-anchor="start" x="642.7194" y="-205.3" font-family="Arial" font-size="14.00" fill="#000000">    </text>
<text text-anchor="start" x="676.9242" y="-205.3" font-family="Arial" font-size="14.00" fill="#666666">[BASE TABLE]</text>
<polygon fill="none" stroke="#000000" points="484,-162.5 484,-192.5 781,-192.5 781,-162.5 484,-162.5"/>
<text text-anchor="start" x="491" y="-173.9" font-family="Arial" font-size="14.00" fill="#000000">permissionID    </text>
<text text-anchor="start" x="606.8668" y="-173.9" font-family="Arial" font-size="14.00" fill="#666666">[integer]</text>
<polygon fill="none" stroke="#000000" points="484,-132.5 484,-162.5 781,-162.5 781,-132.5 484,-132.5"/>
<text text-anchor="start" x="491" y="-143.9" font-family="Arial" font-size="14.00" fill="#000000">permissionTitle    </text>
<text text-anchor="start" x="619.3086" y="-143.9" font-family="Arial" font-size="14.00" fill="#666666">[varchar(256)]</text>
<polygon fill="none" stroke="#000000" points="484,-102.5 484,-132.5 781,-132.5 781,-102.5 484,-102.5"/>
<text text-anchor="start" x="491" y="-113.9" font-family="Arial" font-size="14.00" fill="#000000">description    </text>
<text text-anchor="start" x="592.8822" y="-113.9" font-family="Arial" font-size="14.00" fill="#666666">[text]</text>
<polygon fill="none" stroke="#000000" points="484,-72.5 484,-102.5 781,-102.5 781,-72.5 484,-72.5"/>
<text text-anchor="start" x="491" y="-83.9" font-family="Arial" font-size="14.00" fill="#000000">createdAt    </text>
<text text-anchor="start" x="585.1136" y="-83.9" font-family="Arial" font-size="14.00" fill="#666666">[timestamp without time zone]</text>
<polygon fill="none" stroke="#000000" points="484,-42.5 484,-72.5 781,-72.5 781,-42.5 484,-42.5"/>
<text text-anchor="start" x="490.9208" y="-53.9" font-family="Arial" font-size="14.00" fill="#000000">updatedAt    </text>
<text text-anchor="start" x="588.939" y="-53.9" font-family="Arial" font-size="14.00" fill="#666666">[timestamp without time zone]</text>
</g>
<!-- public.roleToPermissions&#45;&gt;public.permissions -->
<g id="edge2" class="edge">
<title>public.roleToPermissions:permissionID&#45;&gt;public.permissions:permissionID</title>
<path fill="none" stroke="#000000" d="M612.9497,-426.4494C653.5494,-417.066 632.7373,-347.0644 603,-307 570.0672,-262.6303 516.9328,-315.3697 484,-271 459.2328,-237.6316 442.4444,-177.5 484,-177.5"/>
<polygon fill="#000000" stroke="#000000" points="612.9447,-426.4498 602.5274,-423.0249 607.9724,-426.9749 603,-427.5 603,-427.5 603,-427.5 607.9724,-426.9749 603.4726,-431.9751 612.9447,-426.4498 612.9447,-426.4498"/>
<text text-anchor="start" x="609.745" y="-437.5" font-family="Arial" font-size="10.00" fill="#000000">FOREIGN KEY (&quot;permissionID&quot;) REFERENCES permissions(&quot;permissionID&quot;)</text>
</g>
</g>
</svg>
