<?xml version="1.0" encoding="UTF-8" standalone="no"?>
<!DOCTYPE svg PUBLIC "-//W3C//DTD SVG 1.1//EN"
 "http://www.w3.org/Graphics/SVG/1.1/DTD/svg11.dtd">
<!-- Generated by graphviz version 2.40.1 (20161225.0304)
 -->
<!-- Title: public.permissions Pages: 1 -->
<svg width="749pt" height="562pt"
 viewBox="0.00 0.00 749.00 562.00" xmlns="http://www.w3.org/2000/svg" xmlns:xlink="http://www.w3.org/1999/xlink">
<g id="graph0" class="graph" transform="scale(1 1) rotate(0) translate(4 558)">
<title>public.permissions</title>
<polygon fill="#ffffff" stroke="transparent" points="-4,4 -4,-558 745,-558 745,4 -4,4"/>
<!-- public.permissions -->
<g id="node1" class="node">
<title>public.permissions</title>
<polygon fill="#efefef" stroke="transparent" points="382,-195.5 382,-230.5 671,-230.5 671,-195.5 382,-195.5"/>
<polygon fill="none" stroke="#000000" points="382,-195.5 382,-230.5 671,-230.5 671,-195.5 382,-195.5"/>
<text text-anchor="start" x="388.7126" y="-208.3" font-family="Arial Bold" font-size="18.00" fill="#000000">public.permissions</text>
<text text-anchor="start" x="536.7194" y="-208.3" font-family="Arial" font-size="14.00" fill="#000000">    </text>
<text text-anchor="start" x="570.9242" y="-208.3" font-family="Arial" font-size="14.00" fill="#666666">[BASE TABLE]</text>
<polygon fill="none" stroke="#000000" points="382,-165.5 382,-195.5 671,-195.5 671,-165.5 382,-165.5"/>
<text text-anchor="start" x="389" y="-176.9" font-family="Arial" font-size="14.00" fill="#000000">permissionID </text>
<text text-anchor="start" x="474.5526" y="-176.9" font-family="Arial" font-size="14.00" fill="#666666">[integer]</text>
<polygon fill="none" stroke="#000000" points="382,-135.5 382,-165.5 671,-165.5 671,-135.5 382,-135.5"/>
<text text-anchor="start" x="389" y="-146.9" font-family="Arial" font-size="14.00" fill="#000000">permissionTitle </text>
<text text-anchor="start" x="486.9944" y="-146.9" font-family="Arial" font-size="14.00" fill="#666666">[varchar(256)]</text>
<polygon fill="none" stroke="#000000" points="382,-105.5 382,-135.5 671,-135.5 671,-105.5 382,-105.5"/>
<text text-anchor="start" x="389" y="-116.9" font-family="Arial" font-size="14.00" fill="#000000">description </text>
<text text-anchor="start" x="460.568" y="-116.9" font-family="Arial" font-size="14.00" fill="#666666">[text]</text>
<polygon fill="none" stroke="#000000" points="382,-75.5 382,-105.5 671,-105.5 671,-75.5 382,-75.5"/>
<text text-anchor="start" x="389" y="-86.9" font-family="Arial" font-size="14.00" fill="#000000">createdAt </text>
<text text-anchor="start" x="452.7994" y="-86.9" font-family="Arial" font-size="14.00" fill="#666666">[timestamp without time zone]</text>
<polygon fill="none" stroke="#000000" points="382,-45.5 382,-75.5 671,-75.5 671,-45.5 382,-45.5"/>
<text text-anchor="start" x="389" y="-56.9" font-family="Arial" font-size="14.00" fill="#000000">updatedAt </text>
<text text-anchor="start" x="456.704" y="-56.9" font-family="Arial" font-size="14.00" fill="#666666">[timestamp without time zone]</text>
<polygon fill="none" stroke="#000000" stroke-width="3" points="380,-44.5 380,-232.5 672,-232.5 672,-44.5 380,-44.5"/>
</g>
<!-- public.roleToPermissions -->
<g id="node2" class="node">
<title>public.roleToPermissions</title>
<polygon fill="#efefef" stroke="transparent" points="356,-475.5 356,-510.5 698,-510.5 698,-475.5 356,-475.5"/>
<polygon fill="none" stroke="#000000" points="356,-475.5 356,-510.5 698,-510.5 698,-475.5 356,-475.5"/>
<text text-anchor="start" x="362.713" y="-488.3" font-family="Arial Bold" font-size="18.00" fill="#000000">public.roleToPermissions</text>
<text text-anchor="start" x="563.719" y="-488.3" font-family="Arial" font-size="14.00" fill="#000000">    </text>
<text text-anchor="start" x="597.9238" y="-488.3" font-family="Arial" font-size="14.00" fill="#666666">[BASE TABLE]</text>
<polygon fill="none" stroke="#000000" points="356,-445.5 356,-475.5 698,-475.5 698,-445.5 356,-445.5"/>
<text text-anchor="start" x="363" y="-456.9" font-family="Arial" font-size="14.00" fill="#000000">roleID    </text>
<text text-anchor="start" x="434.5344" y="-456.9" font-family="Arial" font-size="14.00" fill="#666666">[integer]</text>
<polygon fill="none" stroke="#000000" points="356,-415.5 356,-445.5 698,-445.5 698,-415.5 356,-415.5"/>
<text text-anchor="start" x="363" y="-426.9" font-family="Arial" font-size="14.00" fill="#000000">permissionID    </text>
<text text-anchor="start" x="478.8668" y="-426.9" font-family="Arial" font-size="14.00" fill="#666666">[integer]</text>
<polygon fill="none" stroke="#000000" points="356,-385.5 356,-415.5 698,-415.5 698,-385.5 356,-385.5"/>
<text text-anchor="start" x="363" y="-396.9" font-family="Arial" font-size="14.00" fill="#000000">createdAt    </text>
<text text-anchor="start" x="457.1136" y="-396.9" font-family="Arial" font-size="14.00" fill="#666666">[timestamp without time zone]</text>
<polygon fill="none" stroke="#000000" points="356,-355.5 356,-385.5 698,-385.5 698,-355.5 356,-355.5"/>
<text text-anchor="start" x="363" y="-366.9" font-family="Arial" font-size="14.00" fill="#000000">updatedAt    </text>
<text text-anchor="start" x="461.0182" y="-366.9" font-family="Arial" font-size="14.00" fill="#666666">[timestamp without time zone]</text>
</g>
<!-- public.roleToPermissions&#45;&gt;public.permissions -->
<g id="edge1" class="edge">
<title>public.roleToPermissions:permissionID&#45;&gt;public.permissions:permissionID</title>
<path fill="none" stroke="#000000" d="M345.9996,-429.3763C306.318,-419.6519 323.6775,-349.2269 356,-313 449.8121,-207.8559 577.1879,-382.1441 671,-277 699.5534,-244.9975 713.8889,-180.5 671,-180.5"/>
<polygon fill="#000000" stroke="#000000" points="346.0625,-429.3833 355.4975,-434.9719 351.0313,-429.9416 356,-430.5 356,-430.5 356,-430.5 351.0313,-429.9416 356.5025,-426.0281 346.0625,-429.3833 346.0625,-429.3833"/>
<text text-anchor="start" x="6.745" y="-440.5" font-family="Arial" font-size="10.00" fill="#000000">FOREIGN KEY (&quot;permissionID&quot;) REFERENCES permissions(&quot;permissionID&quot;)</text>
</g>
</g>
</svg>
