<?xml version="1.0" encoding="UTF-8" standalone="no"?>
<!DOCTYPE svg PUBLIC "-//W3C//DTD SVG 1.1//EN"
 "http://www.w3.org/Graphics/SVG/1.1/DTD/svg11.dtd">
<!-- Generated by graphviz version 2.40.1 (20161225.0304)
 -->
<!-- Title: public.companycustomers Pages: 1 -->
<svg width="1252pt" height="1282pt"
 viewBox="0.00 0.00 1252.00 1282.00" xmlns="http://www.w3.org/2000/svg" xmlns:xlink="http://www.w3.org/1999/xlink">
<g id="graph0" class="graph" transform="scale(1 1) rotate(0) translate(4 1278)">
<title>public.companycustomers</title>
<polygon fill="#ffffff" stroke="transparent" points="-4,4 -4,-1278 1248,-1278 1248,4 -4,4"/>
<!-- public.companycustomers -->
<g id="node1" class="node">
<title>public.companycustomers</title>
<polygon fill="#efefef" stroke="transparent" points="447,-345.5 447,-380.5 796,-380.5 796,-345.5 447,-345.5"/>
<polygon fill="none" stroke="#000000" points="447,-345.5 447,-380.5 796,-380.5 796,-345.5 447,-345.5"/>
<text text-anchor="start" x="453.7003" y="-358.3" font-family="Arial Bold" font-size="18.00" fill="#000000">public.companycustomers</text>
<text text-anchor="start" x="661.7317" y="-358.3" font-family="Arial" font-size="14.00" fill="#000000">    </text>
<text text-anchor="start" x="695.9365" y="-358.3" font-family="Arial" font-size="14.00" fill="#666666">[BASE TABLE]</text>
<polygon fill="none" stroke="#000000" points="447,-315.5 447,-345.5 796,-345.5 796,-315.5 447,-315.5"/>
<text text-anchor="start" x="454" y="-326.9" font-family="Arial" font-size="14.00" fill="#000000">customerOrgNumber </text>
<text text-anchor="start" x="588.5596" y="-326.9" font-family="Arial" font-size="14.00" fill="#666666">[varchar(11)]</text>
<polygon fill="none" stroke="#000000" points="447,-285.5 447,-315.5 796,-315.5 796,-285.5 447,-285.5"/>
<text text-anchor="start" x="454" y="-296.9" font-family="Arial" font-size="14.00" fill="#000000">customerCompanyName </text>
<text text-anchor="start" x="612.6802" y="-296.9" font-family="Arial" font-size="14.00" fill="#666666">[varchar(255)]</text>
<polygon fill="none" stroke="#000000" points="447,-255.5 447,-285.5 796,-285.5 796,-255.5 447,-255.5"/>
<text text-anchor="start" x="454" y="-266.9" font-family="Arial" font-size="14.00" fill="#000000">companyAddress </text>
<text text-anchor="start" x="566.0266" y="-266.9" font-family="Arial" font-size="14.00" fill="#666666">[varchar(256)]</text>
<polygon fill="none" stroke="#000000" points="447,-225.5 447,-255.5 796,-255.5 796,-225.5 447,-225.5"/>
<text text-anchor="start" x="454" y="-236.9" font-family="Arial" font-size="14.00" fill="#000000">companyZipCode </text>
<text text-anchor="start" x="567.5778" y="-236.9" font-family="Arial" font-size="14.00" fill="#666666">[varchar(16)]</text>
<polygon fill="none" stroke="#000000" points="447,-195.5 447,-225.5 796,-225.5 796,-195.5 447,-195.5"/>
<text text-anchor="start" x="454" y="-206.9" font-family="Arial" font-size="14.00" fill="#000000">companyEmail </text>
<text text-anchor="start" x="549.6746" y="-206.9" font-family="Arial" font-size="14.00" fill="#666666">[varchar(256)]</text>
<polygon fill="none" stroke="#000000" points="447,-165.5 447,-195.5 796,-195.5 796,-165.5 447,-165.5"/>
<text text-anchor="start" x="454" y="-176.9" font-family="Arial" font-size="14.00" fill="#000000">companyPhone </text>
<text text-anchor="start" x="555.1486" y="-176.9" font-family="Arial" font-size="14.00" fill="#666666">[varchar(16)]</text>
<polygon fill="none" stroke="#000000" points="447,-135.5 447,-165.5 796,-165.5 796,-135.5 447,-135.5"/>
<text text-anchor="start" x="454" y="-146.9" font-family="Arial" font-size="14.00" fill="#000000">companyAddressCity </text>
<text text-anchor="start" x="590.1304" y="-146.9" font-family="Arial" font-size="14.00" fill="#666666">[varchar(256)]</text>
<polygon fill="none" stroke="#000000" points="447,-105.5 447,-135.5 796,-135.5 796,-105.5 447,-105.5"/>
<text text-anchor="start" x="454" y="-116.9" font-family="Arial" font-size="14.00" fill="#000000">companyCountry </text>
<text text-anchor="start" x="563.6872" y="-116.9" font-family="Arial" font-size="14.00" fill="#666666">[varchar(256)]</text>
<polygon fill="none" stroke="#000000" points="447,-75.5 447,-105.5 796,-105.5 796,-75.5 447,-75.5"/>
<text text-anchor="start" x="454" y="-86.9" font-family="Arial" font-size="14.00" fill="#000000">createdAt </text>
<text text-anchor="start" x="517.7994" y="-86.9" font-family="Arial" font-size="14.00" fill="#666666">[timestamp without time zone]</text>
<polygon fill="none" stroke="#000000" points="447,-45.5 447,-75.5 796,-75.5 796,-45.5 447,-45.5"/>
<text text-anchor="start" x="454" y="-56.9" font-family="Arial" font-size="14.00" fill="#000000">updatedAt </text>
<text text-anchor="start" x="521.704" y="-56.9" font-family="Arial" font-size="14.00" fill="#666666">[timestamp without time zone]</text>
<polygon fill="none" stroke="#000000" stroke-width="3" points="445,-44.5 445,-382.5 797,-382.5 797,-44.5 445,-44.5"/>
</g>
<!-- public.drivers -->
<g id="node2" class="node">
<title>public.drivers</title>
<polygon fill="#efefef" stroke="transparent" points="273,-1195.5 273,-1230.5 570,-1230.5 570,-1195.5 273,-1195.5"/>
<polygon fill="none" stroke="#000000" points="273,-1195.5 273,-1230.5 570,-1230.5 570,-1195.5 273,-1195.5"/>
<text text-anchor="start" x="304.7159" y="-1208.3" font-family="Arial Bold" font-size="18.00" fill="#000000">public.drivers</text>
<text text-anchor="start" x="410.7161" y="-1208.3" font-family="Arial" font-size="14.00" fill="#000000">    </text>
<text text-anchor="start" x="444.9209" y="-1208.3" font-family="Arial" font-size="14.00" fill="#666666">[BASE TABLE]</text>
<polygon fill="none" stroke="#000000" points="273,-1165.5 273,-1195.5 570,-1195.5 570,-1165.5 273,-1165.5"/>
<text text-anchor="start" x="280" y="-1176.9" font-family="Arial" font-size="14.00" fill="#000000">driverID    </text>
<text text-anchor="start" x="363.195" y="-1176.9" font-family="Arial" font-size="14.00" fill="#666666">[integer]</text>
<polygon fill="none" stroke="#000000" points="273,-1135.5 273,-1165.5 570,-1165.5 570,-1135.5 273,-1135.5"/>
<text text-anchor="start" x="280" y="-1146.9" font-family="Arial" font-size="14.00" fill="#000000">customerOrgNumber    </text>
<text text-anchor="start" x="444.8738" y="-1146.9" font-family="Arial" font-size="14.00" fill="#666666">[varchar(11)]</text>
<polygon fill="none" stroke="#000000" points="273,-1105.5 273,-1135.5 570,-1135.5 570,-1105.5 273,-1105.5"/>
<text text-anchor="start" x="280" y="-1116.9" font-family="Arial" font-size="14.00" fill="#000000">driverExternalNumber    </text>
<text text-anchor="start" x="450.3156" y="-1116.9" font-family="Arial" font-size="14.00" fill="#666666">[varchar(256)]</text>
<polygon fill="none" stroke="#000000" points="273,-1075.5 273,-1105.5 570,-1105.5 570,-1075.5 273,-1075.5"/>
<text text-anchor="start" x="280" y="-1086.9" font-family="Arial" font-size="14.00" fill="#000000">companyReference    </text>
<text text-anchor="start" x="435.5666" y="-1086.9" font-family="Arial" font-size="14.00" fill="#666666">[varchar(255)]</text>
<polygon fill="none" stroke="#000000" points="273,-1045.5 273,-1075.5 570,-1075.5 570,-1045.5 273,-1045.5"/>
<text text-anchor="start" x="280" y="-1056.9" font-family="Arial" font-size="14.00" fill="#000000">driverGDPRAccept    </text>
<text text-anchor="start" x="432.4306" y="-1056.9" font-family="Arial" font-size="14.00" fill="#666666">[boolean]</text>
<polygon fill="none" stroke="#000000" points="273,-1015.5 273,-1045.5 570,-1045.5 570,-1015.5 273,-1015.5"/>
<text text-anchor="start" x="280" y="-1026.9" font-family="Arial" font-size="14.00" fill="#000000">driverISWarrantyDriver    </text>
<text text-anchor="start" x="456.5162" y="-1026.9" font-family="Arial" font-size="14.00" fill="#666666">[boolean]</text>
<polygon fill="none" stroke="#000000" points="273,-985.5 273,-1015.5 570,-1015.5 570,-985.5 273,-985.5"/>
<text text-anchor="start" x="280" y="-996.9" font-family="Arial" font-size="14.00" fill="#000000">driverAcceptsMarketing    </text>
<text text-anchor="start" x="460.439" y="-996.9" font-family="Arial" font-size="14.00" fill="#666666">[boolean]</text>
<polygon fill="none" stroke="#000000" points="273,-955.5 273,-985.5 570,-985.5 570,-955.5 273,-955.5"/>
<text text-anchor="start" x="280" y="-966.9" font-family="Arial" font-size="14.00" fill="#000000">driverFirstName    </text>
<text text-anchor="start" x="413.7406" y="-966.9" font-family="Arial" font-size="14.00" fill="#666666">[varchar(128)]</text>
<polygon fill="none" stroke="#000000" points="273,-925.5 273,-955.5 570,-955.5 570,-925.5 273,-925.5"/>
<text text-anchor="start" x="280" y="-936.9" font-family="Arial" font-size="14.00" fill="#000000">driverLastName    </text>
<text text-anchor="start" x="412.986" y="-936.9" font-family="Arial" font-size="14.00" fill="#666666">[varchar(128)]</text>
<polygon fill="none" stroke="#000000" points="273,-895.5 273,-925.5 570,-925.5 570,-895.5 273,-895.5"/>
<text text-anchor="start" x="280" y="-906.9" font-family="Arial" font-size="14.00" fill="#000000">driverEmail    </text>
<text text-anchor="start" x="384.1908" y="-906.9" font-family="Arial" font-size="14.00" fill="#666666">[varchar(256)]</text>
<polygon fill="none" stroke="#000000" points="273,-865.5 273,-895.5 570,-895.5 570,-865.5 273,-865.5"/>
<text text-anchor="start" x="280" y="-876.9" font-family="Arial" font-size="14.00" fill="#000000">driverPhoneNumber    </text>
<text text-anchor="start" x="439.4404" y="-876.9" font-family="Arial" font-size="14.00" fill="#666666">[varchar(32)]</text>
<polygon fill="none" stroke="#000000" points="273,-835.5 273,-865.5 570,-865.5 570,-835.5 273,-835.5"/>
<text text-anchor="start" x="280" y="-846.9" font-family="Arial" font-size="14.00" fill="#000000">driverAddress    </text>
<text text-anchor="start" x="400.5428" y="-846.9" font-family="Arial" font-size="14.00" fill="#666666">[varchar(256)]</text>
<polygon fill="none" stroke="#000000" points="273,-805.5 273,-835.5 570,-835.5 570,-805.5 273,-805.5"/>
<text text-anchor="start" x="280" y="-816.9" font-family="Arial" font-size="14.00" fill="#000000">driverZipCode    </text>
<text text-anchor="start" x="402.094" y="-816.9" font-family="Arial" font-size="14.00" fill="#666666">[varchar(16)]</text>
<polygon fill="none" stroke="#000000" points="273,-775.5 273,-805.5 570,-805.5 570,-775.5 273,-775.5"/>
<text text-anchor="start" x="280" y="-786.9" font-family="Arial" font-size="14.00" fill="#000000">driverAddressCity    </text>
<text text-anchor="start" x="424.6466" y="-786.9" font-family="Arial" font-size="14.00" fill="#666666">[varchar(256)]</text>
<polygon fill="none" stroke="#000000" points="273,-745.5 273,-775.5 570,-775.5 570,-745.5 273,-745.5"/>
<text text-anchor="start" x="280" y="-756.9" font-family="Arial" font-size="14.00" fill="#000000">driverCountry    </text>
<text text-anchor="start" x="398.2034" y="-756.9" font-family="Arial" font-size="14.00" fill="#666666">[varchar(256)]</text>
<polygon fill="none" stroke="#000000" points="273,-715.5 273,-745.5 570,-745.5 570,-715.5 273,-715.5"/>
<text text-anchor="start" x="280" y="-726.9" font-family="Arial" font-size="14.00" fill="#000000">driverHasCard    </text>
<text text-anchor="start" x="404.4194" y="-726.9" font-family="Arial" font-size="14.00" fill="#666666">[boolean]</text>
<polygon fill="none" stroke="#000000" points="273,-685.5 273,-715.5 570,-715.5 570,-685.5 273,-685.5"/>
<text text-anchor="start" x="280" y="-696.9" font-family="Arial" font-size="14.00" fill="#000000">driverCardValidTo    </text>
<text text-anchor="start" x="426.9804" y="-696.9" font-family="Arial" font-size="14.00" fill="#666666">[date]</text>
<polygon fill="none" stroke="#000000" points="273,-655.5 273,-685.5 570,-685.5 570,-655.5 273,-655.5"/>
<text text-anchor="start" x="280" y="-666.9" font-family="Arial" font-size="14.00" fill="#000000">driverCardNumber    </text>
<text text-anchor="start" x="429.3058" y="-666.9" font-family="Arial" font-size="14.00" fill="#666666">[varchar(256)]</text>
<polygon fill="none" stroke="#000000" points="273,-625.5 273,-655.5 570,-655.5 570,-625.5 273,-625.5"/>
<text text-anchor="start" x="280" y="-636.9" font-family="Arial" font-size="14.00" fill="#000000">driverKeyNumber    </text>
<text text-anchor="start" x="423.0926" y="-636.9" font-family="Arial" font-size="14.00" fill="#666666">[varchar(256)]</text>
<polygon fill="none" stroke="#000000" points="273,-595.5 273,-625.5 570,-625.5 570,-595.5 273,-595.5"/>
<text text-anchor="start" x="280" y="-606.9" font-family="Arial" font-size="14.00" fill="#000000">driverNotesShared    </text>
<text text-anchor="start" x="430.8878" y="-606.9" font-family="Arial" font-size="14.00" fill="#666666">[varchar]</text>
<polygon fill="none" stroke="#000000" points="273,-565.5 273,-595.5 570,-595.5 570,-565.5 273,-565.5"/>
<text text-anchor="start" x="280" y="-576.9" font-family="Arial" font-size="14.00" fill="#000000">driverNotes    </text>
<text text-anchor="start" x="385.7602" y="-576.9" font-family="Arial" font-size="14.00" fill="#666666">[varchar]</text>
<polygon fill="none" stroke="#000000" points="273,-535.5 273,-565.5 570,-565.5 570,-535.5 273,-535.5"/>
<text text-anchor="start" x="280" y="-546.9" font-family="Arial" font-size="14.00" fill="#000000">createdAt    </text>
<text text-anchor="start" x="374.1136" y="-546.9" font-family="Arial" font-size="14.00" fill="#666666">[timestamp without time zone]</text>
<polygon fill="none" stroke="#000000" points="273,-505.5 273,-535.5 570,-535.5 570,-505.5 273,-505.5"/>
<text text-anchor="start" x="279.9208" y="-516.9" font-family="Arial" font-size="14.00" fill="#000000">updatedAt    </text>
<text text-anchor="start" x="377.939" y="-516.9" font-family="Arial" font-size="14.00" fill="#666666">[timestamp without time zone]</text>
</g>
<!-- public.drivers&#45;&gt;public.companycustomers -->
<g id="edge1" class="edge">
<title>public.drivers:customerOrgNumber&#45;&gt;public.companycustomers:customerOrgNumber</title>
<path fill="none" stroke="#000000" d="M579.6553,-1146.816C643.6104,-1095.3654 613.7471,-521.3864 570,-463 535.8453,-417.416 481.1547,-472.584 447,-427 421.2827,-392.6768 404.1111,-330.5 447,-330.5"/>
<polygon fill="#000000" stroke="#000000" points="579.343,-1146.9351 568.3958,-1146.2956 574.6715,-1148.7176 570,-1150.5 570,-1150.5 570,-1150.5 574.6715,-1148.7176 571.6042,-1154.7044 579.343,-1146.9351 579.343,-1146.9351"/>
<text text-anchor="start" x="6.7855" y="-1160.5" font-family="Arial" font-size="10.00" fill="#000000">FOREIGN KEY (&quot;customerOrgNumber&quot;) REFERENCES companycustomers(&quot;customerOrgNumber&quot;) ON DELETE CASCADE</text>
</g>
<!-- public.bills -->
<g id="node3" class="node">
<title>public.bills</title>
<polygon fill="#efefef" stroke="transparent" points="674,-1195.5 674,-1230.5 971,-1230.5 971,-1195.5 674,-1195.5"/>
<polygon fill="none" stroke="#000000" points="674,-1195.5 674,-1230.5 971,-1230.5 971,-1195.5 674,-1195.5"/>
<text text-anchor="start" x="717.217" y="-1208.3" font-family="Arial Bold" font-size="18.00" fill="#000000">public.bills</text>
<text text-anchor="start" x="800.215" y="-1208.3" font-family="Arial" font-size="14.00" fill="#000000">    </text>
<text text-anchor="start" x="834.4198" y="-1208.3" font-family="Arial" font-size="14.00" fill="#666666">[BASE TABLE]</text>
<polygon fill="none" stroke="#000000" points="674,-1165.5 674,-1195.5 971,-1195.5 971,-1165.5 674,-1165.5"/>
<text text-anchor="start" x="681" y="-1176.9" font-family="Arial" font-size="14.00" fill="#000000">orderID    </text>
<text text-anchor="start" x="761.871" y="-1176.9" font-family="Arial" font-size="14.00" fill="#666666">[integer]</text>
<polygon fill="none" stroke="#000000" points="674,-1135.5 674,-1165.5 971,-1165.5 971,-1135.5 674,-1135.5"/>
<text text-anchor="start" x="681" y="-1146.9" font-family="Arial" font-size="14.00" fill="#000000">employeeID    </text>
<text text-anchor="start" x="789.8822" y="-1146.9" font-family="Arial" font-size="14.00" fill="#666666">[integer]</text>
<polygon fill="none" stroke="#000000" points="674,-1105.5 674,-1135.5 971,-1135.5 971,-1105.5 674,-1105.5"/>
<text text-anchor="start" x="681" y="-1116.9" font-family="Arial" font-size="14.00" fill="#000000">billingDate    </text>
<text text-anchor="start" x="780.5414" y="-1116.9" font-family="Arial" font-size="14.00" fill="#666666">[date]</text>
<polygon fill="none" stroke="#000000" points="674,-1075.5 674,-1105.5 971,-1105.5 971,-1075.5 674,-1075.5"/>
<text text-anchor="start" x="681" y="-1086.9" font-family="Arial" font-size="14.00" fill="#000000">paymentDate    </text>
<text text-anchor="start" x="798.4488" y="-1086.9" font-family="Arial" font-size="14.00" fill="#666666">[date]</text>
<polygon fill="none" stroke="#000000" points="674,-1045.5 674,-1075.5 971,-1075.5 971,-1045.5 674,-1045.5"/>
<text text-anchor="start" x="681" y="-1056.9" font-family="Arial" font-size="14.00" fill="#000000">paymentDays    </text>
<text text-anchor="start" x="800.7756" y="-1056.9" font-family="Arial" font-size="14.00" fill="#666666">[integer]</text>
<polygon fill="none" stroke="#000000" points="674,-1015.5 674,-1045.5 971,-1045.5 971,-1015.5 674,-1015.5"/>
<text text-anchor="start" x="681" y="-1026.9" font-family="Arial" font-size="14.00" fill="#000000">driverID    </text>
<text text-anchor="start" x="764.195" y="-1026.9" font-family="Arial" font-size="14.00" fill="#666666">[integer]</text>
<polygon fill="none" stroke="#000000" points="674,-985.5 674,-1015.5 971,-1015.5 971,-985.5 674,-985.5"/>
<text text-anchor="start" x="681" y="-996.9" font-family="Arial" font-size="14.00" fill="#000000">customerOrgNumber    </text>
<text text-anchor="start" x="845.8738" y="-996.9" font-family="Arial" font-size="14.00" fill="#666666">[varchar(11)]</text>
<polygon fill="none" stroke="#000000" points="674,-955.5 674,-985.5 971,-985.5 971,-955.5 674,-955.5"/>
<text text-anchor="start" x="681" y="-966.9" font-family="Arial" font-size="14.00" fill="#000000">driverExternalNumber    </text>
<text text-anchor="start" x="851.3156" y="-966.9" font-family="Arial" font-size="14.00" fill="#666666">[varchar(256)]</text>
<polygon fill="none" stroke="#000000" points="674,-925.5 674,-955.5 971,-955.5 971,-925.5 674,-925.5"/>
<text text-anchor="start" x="681" y="-936.9" font-family="Arial" font-size="14.00" fill="#000000">companyReference    </text>
<text text-anchor="start" x="836.5666" y="-936.9" font-family="Arial" font-size="14.00" fill="#666666">[varchar(255)]</text>
<polygon fill="none" stroke="#000000" points="674,-895.5 674,-925.5 971,-925.5 971,-895.5 674,-895.5"/>
<text text-anchor="start" x="681" y="-906.9" font-family="Arial" font-size="14.00" fill="#000000">driverFirstName    </text>
<text text-anchor="start" x="814.7406" y="-906.9" font-family="Arial" font-size="14.00" fill="#666666">[varchar(128)]</text>
<polygon fill="none" stroke="#000000" points="674,-865.5 674,-895.5 971,-895.5 971,-865.5 674,-865.5"/>
<text text-anchor="start" x="681" y="-876.9" font-family="Arial" font-size="14.00" fill="#000000">driverLastName    </text>
<text text-anchor="start" x="813.986" y="-876.9" font-family="Arial" font-size="14.00" fill="#666666">[varchar(128)]</text>
<polygon fill="none" stroke="#000000" points="674,-835.5 674,-865.5 971,-865.5 971,-835.5 674,-835.5"/>
<text text-anchor="start" x="681" y="-846.9" font-family="Arial" font-size="14.00" fill="#000000">driverEmail    </text>
<text text-anchor="start" x="785.1908" y="-846.9" font-family="Arial" font-size="14.00" fill="#666666">[varchar(256)]</text>
<polygon fill="none" stroke="#000000" points="674,-805.5 674,-835.5 971,-835.5 971,-805.5 674,-805.5"/>
<text text-anchor="start" x="681" y="-816.9" font-family="Arial" font-size="14.00" fill="#000000">driverPhoneNumber    </text>
<text text-anchor="start" x="840.4404" y="-816.9" font-family="Arial" font-size="14.00" fill="#666666">[varchar(32)]</text>
<polygon fill="none" stroke="#000000" points="674,-775.5 674,-805.5 971,-805.5 971,-775.5 674,-775.5"/>
<text text-anchor="start" x="681" y="-786.9" font-family="Arial" font-size="14.00" fill="#000000">driverAddress    </text>
<text text-anchor="start" x="801.5428" y="-786.9" font-family="Arial" font-size="14.00" fill="#666666">[varchar(256)]</text>
<polygon fill="none" stroke="#000000" points="674,-745.5 674,-775.5 971,-775.5 971,-745.5 674,-745.5"/>
<text text-anchor="start" x="681" y="-756.9" font-family="Arial" font-size="14.00" fill="#000000">driverZipCode    </text>
<text text-anchor="start" x="803.094" y="-756.9" font-family="Arial" font-size="14.00" fill="#666666">[varchar(16)]</text>
<polygon fill="none" stroke="#000000" points="674,-715.5 674,-745.5 971,-745.5 971,-715.5 674,-715.5"/>
<text text-anchor="start" x="681" y="-726.9" font-family="Arial" font-size="14.00" fill="#000000">driverAddressCity    </text>
<text text-anchor="start" x="825.6466" y="-726.9" font-family="Arial" font-size="14.00" fill="#666666">[varchar(256)]</text>
<polygon fill="none" stroke="#000000" points="674,-685.5 674,-715.5 971,-715.5 971,-685.5 674,-685.5"/>
<text text-anchor="start" x="681" y="-696.9" font-family="Arial" font-size="14.00" fill="#000000">driverCountry    </text>
<text text-anchor="start" x="799.2034" y="-696.9" font-family="Arial" font-size="14.00" fill="#666666">[varchar(256)]</text>
<polygon fill="none" stroke="#000000" points="674,-655.5 674,-685.5 971,-685.5 971,-655.5 674,-655.5"/>
<text text-anchor="start" x="681" y="-666.9" font-family="Arial" font-size="14.00" fill="#000000">driverHasCard    </text>
<text text-anchor="start" x="805.4194" y="-666.9" font-family="Arial" font-size="14.00" fill="#666666">[boolean]</text>
<polygon fill="none" stroke="#000000" points="674,-625.5 674,-655.5 971,-655.5 971,-625.5 674,-625.5"/>
<text text-anchor="start" x="681" y="-636.9" font-family="Arial" font-size="14.00" fill="#000000">driverCardValidTo    </text>
<text text-anchor="start" x="827.9804" y="-636.9" font-family="Arial" font-size="14.00" fill="#666666">[date]</text>
<polygon fill="none" stroke="#000000" points="674,-595.5 674,-625.5 971,-625.5 971,-595.5 674,-595.5"/>
<text text-anchor="start" x="681" y="-606.9" font-family="Arial" font-size="14.00" fill="#000000">driverCardNumber    </text>
<text text-anchor="start" x="830.3058" y="-606.9" font-family="Arial" font-size="14.00" fill="#666666">[varchar(256)]</text>
<polygon fill="none" stroke="#000000" points="674,-565.5 674,-595.5 971,-595.5 971,-565.5 674,-565.5"/>
<text text-anchor="start" x="681" y="-576.9" font-family="Arial" font-size="14.00" fill="#000000">driverKeyNumber    </text>
<text text-anchor="start" x="824.0926" y="-576.9" font-family="Arial" font-size="14.00" fill="#666666">[varchar(256)]</text>
<polygon fill="none" stroke="#000000" points="674,-535.5 674,-565.5 971,-565.5 971,-535.5 674,-535.5"/>
<text text-anchor="start" x="681" y="-546.9" font-family="Arial" font-size="14.00" fill="#000000">createdAt    </text>
<text text-anchor="start" x="775.1136" y="-546.9" font-family="Arial" font-size="14.00" fill="#666666">[timestamp without time zone]</text>
<polygon fill="none" stroke="#000000" points="674,-505.5 674,-535.5 971,-535.5 971,-505.5 674,-505.5"/>
<text text-anchor="start" x="680.9208" y="-516.9" font-family="Arial" font-size="14.00" fill="#000000">updatedAt    </text>
<text text-anchor="start" x="778.939" y="-516.9" font-family="Arial" font-size="14.00" fill="#666666">[timestamp without time zone]</text>
</g>
<!-- public.bills&#45;&gt;public.companycustomers -->
<g id="edge2" class="edge">
<title>public.bills:customerOrgNumber&#45;&gt;public.companycustomers:customerOrgNumber</title>
<path fill="none" stroke="#000000" d="M664.9409,-996.259C616.9341,-948.2642 640.1974,-508.2181 674,-463 707.849,-417.7198 762.151,-472.2802 796,-427 821.6794,-392.6485 838.8889,-330.5 796,-330.5"/>
<polygon fill="#000000" stroke="#000000" points="664.9433,-996.2601 672.092,-1004.5755 669.4717,-998.38 674,-1000.5 674,-1000.5 674,-1000.5 669.4717,-998.38 675.908,-996.4245 664.9433,-996.2601 664.9433,-996.2601"/>
<text text-anchor="start" x="680.7855" y="-1010.5" font-family="Arial" font-size="10.00" fill="#000000">FOREIGN KEY (&quot;customerOrgNumber&quot;) REFERENCES companycustomers(&quot;customerOrgNumber&quot;) ON DELETE CASCADE</text>
</g>
</g>
</svg>
