<?xml version="1.0" encoding="UTF-8" standalone="no"?>
<!DOCTYPE svg PUBLIC "-//W3C//DTD SVG 1.1//EN"
 "http://www.w3.org/Graphics/SVG/1.1/DTD/svg11.dtd">
<!-- Generated by graphviz version 2.40.1 (20161225.0304)
 -->
<!-- Title: public.serviceQualifications Pages: 1 -->
<svg width="1067pt" height="982pt"
 viewBox="0.00 0.00 1067.00 982.00" xmlns="http://www.w3.org/2000/svg" xmlns:xlink="http://www.w3.org/1999/xlink">
<g id="graph0" class="graph" transform="scale(1 1) rotate(0) translate(4 978)">
<title>public.serviceQualifications</title>
<polygon fill="#ffffff" stroke="transparent" points="-4,4 -4,-978 1063,-978 1063,4 -4,4"/>
<!-- public.serviceQualifications -->
<g id="node1" class="node">
<title>public.serviceQualifications</title>
<polygon fill="#efefef" stroke="transparent" points="306,-892.5 306,-927.5 664,-927.5 664,-892.5 306,-892.5"/>
<polygon fill="none" stroke="#000000" points="306,-892.5 306,-927.5 664,-927.5 664,-892.5 306,-892.5"/>
<text text-anchor="start" x="312.7048" y="-905.3" font-family="Arial Bold" font-size="18.00" fill="#000000">public.serviceQualifications</text>
<text text-anchor="start" x="529.7272" y="-905.3" font-family="Arial" font-size="14.00" fill="#000000">    </text>
<text text-anchor="start" x="563.932" y="-905.3" font-family="Arial" font-size="14.00" fill="#666666">[BASE TABLE]</text>
<polygon fill="none" stroke="#000000" points="306,-862.5 306,-892.5 664,-892.5 664,-862.5 306,-862.5"/>
<text text-anchor="start" x="313" y="-873.9" font-family="Arial" font-size="14.00" fill="#000000">serviceID </text>
<text text-anchor="start" x="375.2202" y="-873.9" font-family="Arial" font-size="14.00" fill="#666666">[integer]</text>
<polygon fill="none" stroke="#000000" points="306,-832.5 306,-862.5 664,-862.5 664,-832.5 306,-832.5"/>
<text text-anchor="start" x="313" y="-843.9" font-family="Arial" font-size="14.00" fill="#000000">globalQualID </text>
<text text-anchor="start" x="397.7938" y="-843.9" font-family="Arial" font-size="14.00" fill="#666666">[integer]</text>
<polygon fill="none" stroke="#000000" stroke-width="3" points="304.5,-831.5 304.5,-929.5 665.5,-929.5 665.5,-831.5 304.5,-831.5"/>
</g>
<!-- public.services -->
<g id="node2" class="node">
<title>public.services</title>
<polygon fill="#efefef" stroke="transparent" points="123,-672.5 123,-707.5 420,-707.5 420,-672.5 123,-672.5"/>
<polygon fill="none" stroke="#000000" points="123,-672.5 123,-707.5 420,-707.5 420,-672.5 123,-672.5"/>
<text text-anchor="start" x="148.712" y="-685.3" font-family="Arial Bold" font-size="18.00" fill="#000000">public.services</text>
<text text-anchor="start" x="266.72" y="-685.3" font-family="Arial" font-size="14.00" fill="#000000">    </text>
<text text-anchor="start" x="300.9248" y="-685.3" font-family="Arial" font-size="14.00" fill="#666666">[BASE TABLE]</text>
<polygon fill="none" stroke="#000000" points="123,-642.5 123,-672.5 420,-672.5 420,-642.5 123,-642.5"/>
<text text-anchor="start" x="130" y="-653.9" font-family="Arial" font-size="14.00" fill="#000000">serviceID    </text>
<text text-anchor="start" x="222.5344" y="-653.9" font-family="Arial" font-size="14.00" fill="#666666">[integer]</text>
<polygon fill="none" stroke="#000000" points="123,-612.5 123,-642.5 420,-642.5 420,-612.5 123,-612.5"/>
<text text-anchor="start" x="130" y="-623.9" font-family="Arial" font-size="14.00" fill="#000000">name    </text>
<text text-anchor="start" x="199.2132" y="-623.9" font-family="Arial" font-size="14.00" fill="#666666">[varchar(256)]</text>
<polygon fill="none" stroke="#000000" points="123,-582.5 123,-612.5 420,-612.5 420,-582.5 123,-582.5"/>
<text text-anchor="start" x="130" y="-593.9" font-family="Arial" font-size="14.00" fill="#000000">serviceCategoryID    </text>
<text text-anchor="start" x="279.3226" y="-593.9" font-family="Arial" font-size="14.00" fill="#666666">[integer]</text>
<polygon fill="none" stroke="#000000" points="123,-552.5 123,-582.5 420,-582.5 420,-552.5 123,-552.5"/>
<text text-anchor="start" x="130" y="-563.9" font-family="Arial" font-size="14.00" fill="#000000">currency    </text>
<text text-anchor="start" x="217.8738" y="-563.9" font-family="Arial" font-size="14.00" fill="#666666">[varchar(5)]</text>
<polygon fill="none" stroke="#000000" points="123,-522.5 123,-552.5 420,-552.5 420,-522.5 123,-522.5"/>
<text text-anchor="start" x="130" y="-533.9" font-family="Arial" font-size="14.00" fill="#000000">cost    </text>
<text text-anchor="start" x="189.878" y="-533.9" font-family="Arial" font-size="14.00" fill="#666666">[real]</text>
<polygon fill="none" stroke="#000000" points="123,-492.5 123,-522.5 420,-522.5 420,-492.5 123,-492.5"/>
<text text-anchor="start" x="130" y="-503.9" font-family="Arial" font-size="14.00" fill="#000000">includeInAutomaticSms    </text>
<text text-anchor="start" x="310.4516" y="-503.9" font-family="Arial" font-size="14.00" fill="#666666">[boolean]</text>
<polygon fill="none" stroke="#000000" points="123,-462.5 123,-492.5 420,-492.5 420,-462.5 123,-462.5"/>
<text text-anchor="start" x="130" y="-473.9" font-family="Arial" font-size="14.00" fill="#000000">hidden    </text>
<text text-anchor="start" x="206.2244" y="-473.9" font-family="Arial" font-size="14.00" fill="#666666">[boolean]</text>
<polygon fill="none" stroke="#000000" points="123,-432.5 123,-462.5 420,-462.5 420,-432.5 123,-432.5"/>
<text text-anchor="start" x="130" y="-443.9" font-family="Arial" font-size="14.00" fill="#000000">callInterval    </text>
<text text-anchor="start" x="231.0968" y="-443.9" font-family="Arial" font-size="14.00" fill="#666666">[integer]</text>
<polygon fill="none" stroke="#000000" points="123,-402.5 123,-432.5 420,-432.5 420,-402.5 123,-402.5"/>
<text text-anchor="start" x="130" y="-413.9" font-family="Arial" font-size="14.00" fill="#000000">colorForService    </text>
<text text-anchor="start" x="262.202" y="-413.9" font-family="Arial" font-size="14.00" fill="#666666">[varchar]</text>
<polygon fill="none" stroke="#000000" points="123,-372.5 123,-402.5 420,-402.5 420,-372.5 123,-372.5"/>
<text text-anchor="start" x="130" y="-383.9" font-family="Arial" font-size="14.00" fill="#000000">warrantyCard    </text>
<text text-anchor="start" x="248.2034" y="-383.9" font-family="Arial" font-size="14.00" fill="#666666">[boolean]</text>
<polygon fill="none" stroke="#000000" points="123,-342.5 123,-372.5 420,-372.5 420,-342.5 123,-342.5"/>
<text text-anchor="start" x="130" y="-353.9" font-family="Arial" font-size="14.00" fill="#000000">itemNumber    </text>
<text text-anchor="start" x="240.4208" y="-353.9" font-family="Arial" font-size="14.00" fill="#666666">[varchar(256)]</text>
<polygon fill="none" stroke="#000000" points="123,-312.5 123,-342.5 420,-342.5 420,-312.5 123,-312.5"/>
<text text-anchor="start" x="130" y="-323.9" font-family="Arial" font-size="14.00" fill="#000000">award    </text>
<text text-anchor="start" x="202.3198" y="-323.9" font-family="Arial" font-size="14.00" fill="#666666">[real]</text>
<polygon fill="none" stroke="#000000" points="123,-282.5 123,-312.5 420,-312.5 420,-282.5 123,-282.5"/>
<text text-anchor="start" x="130" y="-293.9" font-family="Arial" font-size="14.00" fill="#000000">suppliersArticleNumber    </text>
<text text-anchor="start" x="308.8682" y="-293.9" font-family="Arial" font-size="14.00" fill="#666666">[varchar(256)]</text>
<polygon fill="none" stroke="#000000" points="123,-252.5 123,-282.5 420,-282.5 420,-252.5 123,-252.5"/>
<text text-anchor="start" x="130" y="-263.9" font-family="Arial" font-size="14.00" fill="#000000">externalArticleNumber    </text>
<text text-anchor="start" x="302.6522" y="-263.9" font-family="Arial" font-size="14.00" fill="#666666">[varchar(256)]</text>
<polygon fill="none" stroke="#000000" points="123,-222.5 123,-252.5 420,-252.5 420,-222.5 123,-222.5"/>
<text text-anchor="start" x="130" y="-233.9" font-family="Arial" font-size="14.00" fill="#000000">day1    </text>
<text text-anchor="start" x="194.5526" y="-233.9" font-family="Arial" font-size="14.00" fill="#666666">[interval]</text>
<polygon fill="none" stroke="#000000" points="123,-192.5 123,-222.5 420,-222.5 420,-192.5 123,-192.5"/>
<text text-anchor="start" x="130" y="-203.9" font-family="Arial" font-size="14.00" fill="#000000">day2    </text>
<text text-anchor="start" x="194.5526" y="-203.9" font-family="Arial" font-size="14.00" fill="#666666">[interval]</text>
<polygon fill="none" stroke="#000000" points="123,-162.5 123,-192.5 420,-192.5 420,-162.5 123,-162.5"/>
<text text-anchor="start" x="130" y="-173.9" font-family="Arial" font-size="14.00" fill="#000000">day3    </text>
<text text-anchor="start" x="194.5526" y="-173.9" font-family="Arial" font-size="14.00" fill="#666666">[interval]</text>
<polygon fill="none" stroke="#000000" points="123,-132.5 123,-162.5 420,-162.5 420,-132.5 123,-132.5"/>
<text text-anchor="start" x="130" y="-143.9" font-family="Arial" font-size="14.00" fill="#000000">day4    </text>
<text text-anchor="start" x="194.5526" y="-143.9" font-family="Arial" font-size="14.00" fill="#666666">[interval]</text>
<polygon fill="none" stroke="#000000" points="123,-102.5 123,-132.5 420,-132.5 420,-102.5 123,-102.5"/>
<text text-anchor="start" x="130" y="-113.9" font-family="Arial" font-size="14.00" fill="#000000">day5    </text>
<text text-anchor="start" x="194.5526" y="-113.9" font-family="Arial" font-size="14.00" fill="#666666">[interval]</text>
<polygon fill="none" stroke="#000000" points="123,-72.5 123,-102.5 420,-102.5 420,-72.5 123,-72.5"/>
<text text-anchor="start" x="130" y="-83.9" font-family="Arial" font-size="14.00" fill="#000000">createdAt    </text>
<text text-anchor="start" x="224.1136" y="-83.9" font-family="Arial" font-size="14.00" fill="#666666">[timestamp without time zone]</text>
<polygon fill="none" stroke="#000000" points="123,-42.5 123,-72.5 420,-72.5 420,-42.5 123,-42.5"/>
<text text-anchor="start" x="129.9208" y="-53.9" font-family="Arial" font-size="14.00" fill="#000000">updatedAt    </text>
<text text-anchor="start" x="227.939" y="-53.9" font-family="Arial" font-size="14.00" fill="#666666">[timestamp without time zone]</text>
</g>
<!-- public.serviceQualifications&#45;&gt;public.services -->
<g id="edge1" class="edge">
<title>public.serviceQualifications:serviceID&#45;&gt;public.services:serviceID</title>
<path fill="none" stroke="#000000" d="M295.7915,-875.9169C269.0597,-866.4049 284.5454,-816.2741 306,-787 337.4085,-744.1442 388.5915,-793.8558 420,-751 444.5647,-717.4823 461.5556,-657.5 420,-657.5"/>
<polygon fill="#000000" stroke="#000000" points="296.1181,-875.9675 305.3104,-881.9468 301.0591,-876.7337 306,-877.5 306,-877.5 306,-877.5 301.0591,-876.7337 306.6896,-873.0532 296.1181,-875.9675 296.1181,-875.9675"/>
<text text-anchor="start" x="6.744" y="-887.5" font-family="Arial" font-size="10.00" fill="#000000">FOREIGN KEY (&quot;serviceID&quot;) REFERENCES services(&quot;serviceID&quot;)</text>
</g>
<!-- public.qualificationsGlobal -->
<g id="node3" class="node">
<title>public.qualificationsGlobal</title>
<polygon fill="#efefef" stroke="transparent" points="524,-417.5 524,-452.5 873,-452.5 873,-417.5 524,-417.5"/>
<polygon fill="none" stroke="#000000" points="524,-417.5 524,-452.5 873,-452.5 873,-417.5 524,-417.5"/>
<text text-anchor="start" x="530.6976" y="-430.3" font-family="Arial Bold" font-size="18.00" fill="#000000">public.qualificationsGlobal</text>
<text text-anchor="start" x="738.7344" y="-430.3" font-family="Arial" font-size="14.00" fill="#000000">    </text>
<text text-anchor="start" x="772.9392" y="-430.3" font-family="Arial" font-size="14.00" fill="#666666">[BASE TABLE]</text>
<polygon fill="none" stroke="#000000" points="524,-387.5 524,-417.5 873,-417.5 873,-387.5 524,-387.5"/>
<text text-anchor="start" x="531" y="-398.9" font-family="Arial" font-size="14.00" fill="#000000">globalQualID    </text>
<text text-anchor="start" x="646.108" y="-398.9" font-family="Arial" font-size="14.00" fill="#666666">[integer]</text>
<polygon fill="none" stroke="#000000" points="524,-357.5 524,-387.5 873,-387.5 873,-357.5 524,-357.5"/>
<text text-anchor="start" x="531" y="-368.9" font-family="Arial" font-size="14.00" fill="#000000">globalQualName    </text>
<text text-anchor="start" x="669.4432" y="-368.9" font-family="Arial" font-size="14.00" fill="#666666">[varchar(64)]</text>
<polygon fill="none" stroke="#000000" points="524,-327.5 524,-357.5 873,-357.5 873,-327.5 524,-327.5"/>
<text text-anchor="start" x="531" y="-338.9" font-family="Arial" font-size="14.00" fill="#000000">createdAt    </text>
<text text-anchor="start" x="625.1136" y="-338.9" font-family="Arial" font-size="14.00" fill="#666666">[timestamp without time zone]</text>
<polygon fill="none" stroke="#000000" points="524,-297.5 524,-327.5 873,-327.5 873,-297.5 524,-297.5"/>
<text text-anchor="start" x="531" y="-308.9" font-family="Arial" font-size="14.00" fill="#000000">updatedAt    </text>
<text text-anchor="start" x="629.0182" y="-308.9" font-family="Arial" font-size="14.00" fill="#666666">[timestamp without time zone]</text>
</g>
<!-- public.serviceQualifications&#45;&gt;public.qualificationsGlobal -->
<g id="edge2" class="edge">
<title>public.serviceQualifications:globalQualID&#45;&gt;public.qualificationsGlobal:globalQualID</title>
<path fill="none" stroke="#000000" d="M674.2356,-847.0923C852.07,-831.993 320.3099,-402.5 524,-402.5"/>
<polygon fill="#000000" stroke="#000000" points="673.9921,-847.1019 663.8209,-843.0036 668.996,-847.301 664,-847.5 664,-847.5 664,-847.5 668.996,-847.301 664.1791,-851.9964 673.9921,-847.1019 673.9921,-847.1019"/>
<text text-anchor="start" x="671.063" y="-857.5" font-family="Arial" font-size="10.00" fill="#000000">FOREIGN KEY (&quot;globalQualID&quot;) REFERENCES &quot;qualificationsGlobal&quot;(&quot;globalQualID&quot;)</text>
</g>
</g>
</svg>
