<?xml version="1.0" encoding="UTF-8" standalone="no"?>
<!DOCTYPE svg PUBLIC "-//W3C//DTD SVG 1.1//EN"
 "http://www.w3.org/Graphics/SVG/1.1/DTD/svg11.dtd">
<!-- Generated by graphviz version 2.40.1 (20161225.0304)
 -->
<!-- Title: public.storespecialhours Pages: 1 -->
<svg width="776pt" height="1132pt"
 viewBox="0.00 0.00 776.00 1132.00" xmlns="http://www.w3.org/2000/svg" xmlns:xlink="http://www.w3.org/1999/xlink">
<g id="graph0" class="graph" transform="scale(1 1) rotate(0) translate(4 1128)">
<title>public.storespecialhours</title>
<polygon fill="#ffffff" stroke="transparent" points="-4,4 -4,-1128 772,-1128 772,4 -4,4"/>
<!-- public.storespecialhours -->
<g id="node1" class="node">
<title>public.storespecialhours</title>
<polygon fill="#efefef" stroke="transparent" points="388,-1042.5 388,-1077.5 722,-1077.5 722,-1042.5 388,-1042.5"/>
<polygon fill="none" stroke="#000000" points="388,-1042.5 388,-1077.5 722,-1077.5 722,-1042.5 388,-1042.5"/>
<text text-anchor="start" x="394.6991" y="-1055.3" font-family="Arial Bold" font-size="18.00" fill="#000000">public.storespecialhours</text>
<text text-anchor="start" x="587.7329" y="-1055.3" font-family="Arial" font-size="14.00" fill="#000000">    </text>
<text text-anchor="start" x="621.9377" y="-1055.3" font-family="Arial" font-size="14.00" fill="#666666">[BASE TABLE]</text>
<polygon fill="none" stroke="#000000" points="388,-1012.5 388,-1042.5 722,-1042.5 722,-1012.5 388,-1012.5"/>
<text text-anchor="start" x="395" y="-1023.9" font-family="Arial" font-size="14.00" fill="#000000">storeID </text>
<text text-anchor="start" x="444.0042" y="-1023.9" font-family="Arial" font-size="14.00" fill="#666666">[integer]</text>
<polygon fill="none" stroke="#000000" points="388,-982.5 388,-1012.5 722,-1012.5 722,-982.5 388,-982.5"/>
<text text-anchor="start" x="395" y="-993.9" font-family="Arial" font-size="14.00" fill="#000000">day </text>
<text text-anchor="start" x="421.4558" y="-993.9" font-family="Arial" font-size="14.00" fill="#666666">[date]</text>
<polygon fill="none" stroke="#000000" points="388,-952.5 388,-982.5 722,-982.5 722,-952.5 388,-952.5"/>
<text text-anchor="start" x="395" y="-963.9" font-family="Arial" font-size="14.00" fill="#000000">dayOpen </text>
<text text-anchor="start" x="455.6942" y="-963.9" font-family="Arial" font-size="14.00" fill="#666666">[time without time zone]</text>
<polygon fill="none" stroke="#000000" points="388,-922.5 388,-952.5 722,-952.5 722,-922.5 388,-922.5"/>
<text text-anchor="start" x="395" y="-933.9" font-family="Arial" font-size="14.00" fill="#000000">dayClose </text>
<text text-anchor="start" x="457.2342" y="-933.9" font-family="Arial" font-size="14.00" fill="#666666">[time without time zone]</text>
<polygon fill="none" stroke="#000000" stroke-width="3" points="386.5,-921.5 386.5,-1079.5 723.5,-1079.5 723.5,-921.5 386.5,-921.5"/>
</g>
<!-- public.stores -->
<g id="node2" class="node">
<title>public.stores</title>
<polygon fill="#efefef" stroke="transparent" points="406,-762.5 406,-797.5 703,-797.5 703,-762.5 406,-762.5"/>
<polygon fill="none" stroke="#000000" points="406,-762.5 406,-797.5 703,-797.5 703,-762.5 406,-762.5"/>
<text text-anchor="start" x="440.208" y="-775.3" font-family="Arial Bold" font-size="18.00" fill="#000000">public.stores</text>
<text text-anchor="start" x="541.224" y="-775.3" font-family="Arial" font-size="14.00" fill="#000000">    </text>
<text text-anchor="start" x="575.4288" y="-775.3" font-family="Arial" font-size="14.00" fill="#666666">[BASE TABLE]</text>
<polygon fill="none" stroke="#000000" points="406,-732.5 406,-762.5 703,-762.5 703,-732.5 406,-732.5"/>
<text text-anchor="start" x="413" y="-743.9" font-family="Arial" font-size="14.00" fill="#000000">storeID    </text>
<text text-anchor="start" x="492.3184" y="-743.9" font-family="Arial" font-size="14.00" fill="#666666">[integer]</text>
<polygon fill="none" stroke="#000000" points="406,-702.5 406,-732.5 703,-732.5 703,-702.5 406,-702.5"/>
<text text-anchor="start" x="413" y="-713.9" font-family="Arial" font-size="14.00" fill="#000000">storeOrgNumber    </text>
<text text-anchor="start" x="551.4306" y="-713.9" font-family="Arial" font-size="14.00" fill="#666666">[varchar(11)]</text>
<polygon fill="none" stroke="#000000" points="406,-672.5 406,-702.5 703,-702.5 703,-672.5 406,-672.5"/>
<text text-anchor="start" x="413" y="-683.9" font-family="Arial" font-size="14.00" fill="#000000">storeName    </text>
<text text-anchor="start" x="515.6536" y="-683.9" font-family="Arial" font-size="14.00" fill="#666666">[varchar(128)]</text>
<polygon fill="none" stroke="#000000" points="406,-642.5 406,-672.5 703,-672.5 703,-642.5 406,-642.5"/>
<text text-anchor="start" x="413" y="-653.9" font-family="Arial" font-size="14.00" fill="#000000">storeWebSite    </text>
<text text-anchor="start" x="531.2174" y="-653.9" font-family="Arial" font-size="14.00" fill="#666666">[varchar]</text>
<polygon fill="none" stroke="#000000" points="406,-612.5 406,-642.5 703,-642.5 703,-612.5 406,-612.5"/>
<text text-anchor="start" x="413" y="-623.9" font-family="Arial" font-size="14.00" fill="#000000">storeVatNumber    </text>
<text text-anchor="start" x="549.1066" y="-623.9" font-family="Arial" font-size="14.00" fill="#666666">[varchar(32)]</text>
<polygon fill="none" stroke="#000000" points="406,-582.5 406,-612.5 703,-612.5 703,-582.5 406,-582.5"/>
<text text-anchor="start" x="413" y="-593.9" font-family="Arial" font-size="14.00" fill="#000000">storeFSkatt    </text>
<text text-anchor="start" x="518.7742" y="-593.9" font-family="Arial" font-size="14.00" fill="#666666">[boolean]</text>
<polygon fill="none" stroke="#000000" points="406,-552.5 406,-582.5 703,-582.5 703,-552.5 406,-552.5"/>
<text text-anchor="start" x="413" y="-563.9" font-family="Arial" font-size="14.00" fill="#000000">storeStatus    </text>
<text text-anchor="start" x="518.0042" y="-563.9" font-family="Arial" font-size="14.00" fill="#666666">[boolean]</text>
<polygon fill="none" stroke="#000000" points="406,-522.5 406,-552.5 703,-552.5 703,-522.5 406,-522.5"/>
<text text-anchor="start" x="413" y="-533.9" font-family="Arial" font-size="14.00" fill="#000000">storeEmail    </text>
<text text-anchor="start" x="513.3142" y="-533.9" font-family="Arial" font-size="14.00" fill="#666666">[varchar]</text>
<polygon fill="none" stroke="#000000" points="406,-492.5 406,-522.5 703,-522.5 703,-492.5 406,-492.5"/>
<text text-anchor="start" x="413" y="-503.9" font-family="Arial" font-size="14.00" fill="#000000">storePhone    </text>
<text text-anchor="start" x="518.7882" y="-503.9" font-family="Arial" font-size="14.00" fill="#666666">[varchar]</text>
<polygon fill="none" stroke="#000000" points="406,-462.5 406,-492.5 703,-492.5 703,-462.5 406,-462.5"/>
<text text-anchor="start" x="413" y="-473.9" font-family="Arial" font-size="14.00" fill="#000000">storeAddress    </text>
<text text-anchor="start" x="529.6662" y="-473.9" font-family="Arial" font-size="14.00" fill="#666666">[varchar]</text>
<polygon fill="none" stroke="#000000" points="406,-432.5 406,-462.5 703,-462.5 703,-432.5 406,-432.5"/>
<text text-anchor="start" x="413" y="-443.9" font-family="Arial" font-size="14.00" fill="#000000">storeZipCode    </text>
<text text-anchor="start" x="531.2174" y="-443.9" font-family="Arial" font-size="14.00" fill="#666666">[varchar(16)]</text>
<polygon fill="none" stroke="#000000" points="406,-402.5 406,-432.5 703,-432.5 703,-402.5 406,-402.5"/>
<text text-anchor="start" x="413" y="-413.9" font-family="Arial" font-size="14.00" fill="#000000">storeCity    </text>
<text text-anchor="start" x="502.425" y="-413.9" font-family="Arial" font-size="14.00" fill="#666666">[varchar]</text>
<polygon fill="none" stroke="#000000" points="406,-372.5 406,-402.5 703,-402.5 703,-372.5 406,-372.5"/>
<text text-anchor="start" x="413" y="-383.9" font-family="Arial" font-size="14.00" fill="#000000">storeCountry    </text>
<text text-anchor="start" x="527.3268" y="-383.9" font-family="Arial" font-size="14.00" fill="#666666">[varchar]</text>
<polygon fill="none" stroke="#000000" points="406,-342.5 406,-372.5 703,-372.5 703,-342.5 406,-342.5"/>
<text text-anchor="start" x="413" y="-353.9" font-family="Arial" font-size="14.00" fill="#000000">storeDescription    </text>
<text text-anchor="start" x="548.3226" y="-353.9" font-family="Arial" font-size="14.00" fill="#666666">[varchar]</text>
<polygon fill="none" stroke="#000000" points="406,-312.5 406,-342.5 703,-342.5 703,-312.5 406,-312.5"/>
<text text-anchor="start" x="413" y="-323.9" font-family="Arial" font-size="14.00" fill="#000000">storeContactPerson    </text>
<text text-anchor="start" x="570.9018" y="-323.9" font-family="Arial" font-size="14.00" fill="#666666">[varchar(64)]</text>
<polygon fill="none" stroke="#000000" points="406,-282.5 406,-312.5 703,-312.5 703,-282.5 406,-282.5"/>
<text text-anchor="start" x="413" y="-293.9" font-family="Arial" font-size="14.00" fill="#000000">storeMaxUsers    </text>
<text text-anchor="start" x="541.3142" y="-293.9" font-family="Arial" font-size="14.00" fill="#666666">[integer]</text>
<polygon fill="none" stroke="#000000" points="406,-252.5 406,-282.5 703,-282.5 703,-252.5 406,-252.5"/>
<text text-anchor="start" x="413" y="-263.9" font-family="Arial" font-size="14.00" fill="#000000">currency    </text>
<text text-anchor="start" x="500.8738" y="-263.9" font-family="Arial" font-size="14.00" fill="#666666">[varchar]</text>
<polygon fill="none" stroke="#000000" points="406,-222.5 406,-252.5 703,-252.5 703,-222.5 406,-222.5"/>
<text text-anchor="start" x="413" y="-233.9" font-family="Arial" font-size="14.00" fill="#000000">storeAllowCarAPI    </text>
<text text-anchor="start" x="556.8738" y="-233.9" font-family="Arial" font-size="14.00" fill="#666666">[boolean]</text>
<polygon fill="none" stroke="#000000" points="406,-192.5 406,-222.5 703,-222.5 703,-192.5 406,-192.5"/>
<text text-anchor="start" x="413" y="-203.9" font-family="Arial" font-size="14.00" fill="#000000">storeAllowSendSMS    </text>
<text text-anchor="start" x="574.7784" y="-203.9" font-family="Arial" font-size="14.00" fill="#666666">[boolean]</text>
<polygon fill="none" stroke="#000000" points="406,-162.5 406,-192.5 703,-192.5 703,-162.5 406,-162.5"/>
<text text-anchor="start" x="413" y="-173.9" font-family="Arial" font-size="14.00" fill="#000000">storeSendSMS    </text>
<text text-anchor="start" x="541.3394" y="-173.9" font-family="Arial" font-size="14.00" fill="#666666">[boolean]</text>
<polygon fill="none" stroke="#000000" points="406,-132.5 406,-162.5 703,-162.5 703,-132.5 406,-132.5"/>
<text text-anchor="start" x="413" y="-143.9" font-family="Arial" font-size="14.00" fill="#000000">storeUsesCheckin    </text>
<text text-anchor="start" x="560.7714" y="-143.9" font-family="Arial" font-size="14.00" fill="#666666">[boolean]</text>
<polygon fill="none" stroke="#000000" points="406,-102.5 406,-132.5 703,-132.5 703,-102.5 406,-102.5"/>
<text text-anchor="start" x="413" y="-113.9" font-family="Arial" font-size="14.00" fill="#000000">storeUsesPIN    </text>
<text text-anchor="start" x="533.5442" y="-113.9" font-family="Arial" font-size="14.00" fill="#666666">[boolean]</text>
<polygon fill="none" stroke="#000000" points="406,-72.5 406,-102.5 703,-102.5 703,-72.5 406,-72.5"/>
<text text-anchor="start" x="413" y="-83.9" font-family="Arial" font-size="14.00" fill="#000000">createdAt    </text>
<text text-anchor="start" x="507.1136" y="-83.9" font-family="Arial" font-size="14.00" fill="#666666">[timestamp without time zone]</text>
<polygon fill="none" stroke="#000000" points="406,-42.5 406,-72.5 703,-72.5 703,-42.5 406,-42.5"/>
<text text-anchor="start" x="412.9208" y="-53.9" font-family="Arial" font-size="14.00" fill="#000000">updatedAt    </text>
<text text-anchor="start" x="510.939" y="-53.9" font-family="Arial" font-size="14.00" fill="#666666">[timestamp without time zone]</text>
</g>
<!-- public.storespecialhours&#45;&gt;public.stores -->
<g id="edge1" class="edge">
<title>public.storespecialhours:storeID&#45;&gt;public.stores:storeID</title>
<path fill="none" stroke="#000000" d="M377.8158,-1026.6222C323.6228,-1016.6496 345.9039,-924.1812 388,-877 481.8121,-771.8559 609.1879,-946.1441 703,-841 730.6657,-809.9924 744.5556,-747.5 703,-747.5"/>
<polygon fill="#000000" stroke="#000000" points="378.0369,-1026.6412 387.6135,-1031.9834 383.0185,-1027.0706 388,-1027.5 388,-1027.5 388,-1027.5 383.0185,-1027.0706 388.3865,-1023.0166 378.0369,-1026.6412 378.0369,-1026.6412"/>
<text text-anchor="start" x="6.623" y="-1037.5" font-family="Arial" font-size="10.00" fill="#000000">FOREIGN KEY (&quot;storeID&quot;) REFERENCES stores(&quot;storeID&quot;) ON DELETE CASCADE</text>
</g>
</g>
</svg>
