<?xml version="1.0" encoding="UTF-8" standalone="no"?>
<!DOCTYPE svg PUBLIC "-//W3C//DTD SVG 1.1//EN"
 "http://www.w3.org/Graphics/SVG/1.1/DTD/svg11.dtd">
<!-- Generated by graphviz version 2.40.1 (20161225.0304)
 -->
<!-- Title: public.localServiceGlobalQualifications Pages: 1 -->
<svg width="1233pt" height="1012pt"
 viewBox="0.00 0.00 1233.00 1012.00" xmlns="http://www.w3.org/2000/svg" xmlns:xlink="http://www.w3.org/1999/xlink">
<g id="graph0" class="graph" transform="scale(1 1) rotate(0) translate(4 1008)">
<title>public.localServiceGlobalQualifications</title>
<polygon fill="#ffffff" stroke="transparent" points="-4,4 -4,-1008 1229,-1008 1229,4 -4,4"/>
<!-- public.localServiceGlobalQualifications -->
<g id="node1" class="node">
<title>public.localServiceGlobalQualifications</title>
<polygon fill="#efefef" stroke="transparent" points="380,-922.5 380,-957.5 830,-957.5 830,-922.5 380,-922.5"/>
<polygon fill="none" stroke="#000000" points="380,-922.5 380,-957.5 830,-957.5 830,-922.5 380,-922.5"/>
<text text-anchor="start" x="386.6977" y="-935.3" font-family="Arial Bold" font-size="18.00" fill="#000000">public.localServiceGlobalQualifications</text>
<text text-anchor="start" x="695.7343" y="-935.3" font-family="Arial" font-size="14.00" fill="#000000">    </text>
<text text-anchor="start" x="729.9391" y="-935.3" font-family="Arial" font-size="14.00" fill="#666666">[BASE TABLE]</text>
<polygon fill="none" stroke="#000000" points="380,-892.5 380,-922.5 830,-922.5 830,-892.5 380,-892.5"/>
<text text-anchor="start" x="387" y="-903.9" font-family="Arial" font-size="14.00" fill="#000000">localServiceID </text>
<text text-anchor="start" x="480.3352" y="-903.9" font-family="Arial" font-size="14.00" fill="#666666">[integer]</text>
<polygon fill="none" stroke="#000000" points="380,-862.5 380,-892.5 830,-892.5 830,-862.5 380,-862.5"/>
<text text-anchor="start" x="387" y="-873.9" font-family="Arial" font-size="14.00" fill="#000000">globalQualID </text>
<text text-anchor="start" x="471.7938" y="-873.9" font-family="Arial" font-size="14.00" fill="#666666">[integer]</text>
<polygon fill="none" stroke="#000000" stroke-width="3" points="378.5,-861.5 378.5,-959.5 831.5,-959.5 831.5,-861.5 378.5,-861.5"/>
</g>
<!-- public.localServices -->
<g id="node2" class="node">
<title>public.localServices</title>
<polygon fill="#efefef" stroke="transparent" points="241,-702.5 241,-737.5 540,-737.5 540,-702.5 241,-702.5"/>
<polygon fill="none" stroke="#000000" points="241,-702.5 241,-737.5 540,-737.5 540,-702.5 241,-702.5"/>
<text text-anchor="start" x="247.7095" y="-715.3" font-family="Arial Bold" font-size="18.00" fill="#000000">public.localServices</text>
<text text-anchor="start" x="405.7225" y="-715.3" font-family="Arial" font-size="14.00" fill="#000000">    </text>
<text text-anchor="start" x="439.9273" y="-715.3" font-family="Arial" font-size="14.00" fill="#666666">[BASE TABLE]</text>
<polygon fill="none" stroke="#000000" points="241,-672.5 241,-702.5 540,-702.5 540,-672.5 241,-672.5"/>
<text text-anchor="start" x="248" y="-683.9" font-family="Arial" font-size="14.00" fill="#000000">localServiceID    </text>
<text text-anchor="start" x="371.6494" y="-683.9" font-family="Arial" font-size="14.00" fill="#666666">[integer]</text>
<polygon fill="none" stroke="#000000" points="241,-642.5 241,-672.5 540,-672.5 540,-642.5 241,-642.5"/>
<text text-anchor="start" x="248" y="-653.9" font-family="Arial" font-size="14.00" fill="#000000">serviceCategoryID    </text>
<text text-anchor="start" x="397.3226" y="-653.9" font-family="Arial" font-size="14.00" fill="#666666">[integer]</text>
<polygon fill="none" stroke="#000000" points="241,-612.5 241,-642.5 540,-642.5 540,-612.5 241,-612.5"/>
<text text-anchor="start" x="248" y="-623.9" font-family="Arial" font-size="14.00" fill="#000000">name    </text>
<text text-anchor="start" x="317.2132" y="-623.9" font-family="Arial" font-size="14.00" fill="#666666">[varchar(256)]</text>
<polygon fill="none" stroke="#000000" points="241,-582.5 241,-612.5 540,-612.5 540,-582.5 241,-582.5"/>
<text text-anchor="start" x="248" y="-593.9" font-family="Arial" font-size="14.00" fill="#000000">storeID    </text>
<text text-anchor="start" x="327.3184" y="-593.9" font-family="Arial" font-size="14.00" fill="#666666">[integer]</text>
<polygon fill="none" stroke="#000000" points="241,-552.5 241,-582.5 540,-582.5 540,-552.5 241,-552.5"/>
<text text-anchor="start" x="248" y="-563.9" font-family="Arial" font-size="14.00" fill="#000000">currency    </text>
<text text-anchor="start" x="335.8738" y="-563.9" font-family="Arial" font-size="14.00" fill="#666666">[varchar(5)]</text>
<polygon fill="none" stroke="#000000" points="241,-522.5 241,-552.5 540,-552.5 540,-522.5 241,-522.5"/>
<text text-anchor="start" x="248" y="-533.9" font-family="Arial" font-size="14.00" fill="#000000">cost    </text>
<text text-anchor="start" x="307.878" y="-533.9" font-family="Arial" font-size="14.00" fill="#666666">[real]</text>
<polygon fill="none" stroke="#000000" points="241,-492.5 241,-522.5 540,-522.5 540,-492.5 241,-492.5"/>
<text text-anchor="start" x="248" y="-503.9" font-family="Arial" font-size="14.00" fill="#000000">includeInAutomaticSms    </text>
<text text-anchor="start" x="428.4516" y="-503.9" font-family="Arial" font-size="14.00" fill="#666666">[boolean]</text>
<polygon fill="none" stroke="#000000" points="241,-462.5 241,-492.5 540,-492.5 540,-462.5 241,-462.5"/>
<text text-anchor="start" x="248" y="-473.9" font-family="Arial" font-size="14.00" fill="#000000">hidden    </text>
<text text-anchor="start" x="324.2244" y="-473.9" font-family="Arial" font-size="14.00" fill="#666666">[boolean]</text>
<polygon fill="none" stroke="#000000" points="241,-432.5 241,-462.5 540,-462.5 540,-432.5 241,-432.5"/>
<text text-anchor="start" x="248" y="-443.9" font-family="Arial" font-size="14.00" fill="#000000">callInterval    </text>
<text text-anchor="start" x="349.0968" y="-443.9" font-family="Arial" font-size="14.00" fill="#666666">[integer]</text>
<polygon fill="none" stroke="#000000" points="241,-402.5 241,-432.5 540,-432.5 540,-402.5 241,-402.5"/>
<text text-anchor="start" x="248" y="-413.9" font-family="Arial" font-size="14.00" fill="#000000">colorForService    </text>
<text text-anchor="start" x="380.202" y="-413.9" font-family="Arial" font-size="14.00" fill="#666666">[varchar]</text>
<polygon fill="none" stroke="#000000" points="241,-372.5 241,-402.5 540,-402.5 540,-372.5 241,-372.5"/>
<text text-anchor="start" x="248" y="-383.9" font-family="Arial" font-size="14.00" fill="#000000">warrantyCard    </text>
<text text-anchor="start" x="366.2034" y="-383.9" font-family="Arial" font-size="14.00" fill="#666666">[boolean]</text>
<polygon fill="none" stroke="#000000" points="241,-342.5 241,-372.5 540,-372.5 540,-342.5 241,-342.5"/>
<text text-anchor="start" x="248" y="-353.9" font-family="Arial" font-size="14.00" fill="#000000">itemNumber    </text>
<text text-anchor="start" x="358.4208" y="-353.9" font-family="Arial" font-size="14.00" fill="#666666">[varchar(256)]</text>
<polygon fill="none" stroke="#000000" points="241,-312.5 241,-342.5 540,-342.5 540,-312.5 241,-312.5"/>
<text text-anchor="start" x="248" y="-323.9" font-family="Arial" font-size="14.00" fill="#000000">award    </text>
<text text-anchor="start" x="320.3198" y="-323.9" font-family="Arial" font-size="14.00" fill="#666666">[real]</text>
<polygon fill="none" stroke="#000000" points="241,-282.5 241,-312.5 540,-312.5 540,-282.5 241,-282.5"/>
<text text-anchor="start" x="248" y="-293.9" font-family="Arial" font-size="14.00" fill="#000000">suppliersArticleNumber    </text>
<text text-anchor="start" x="426.8682" y="-293.9" font-family="Arial" font-size="14.00" fill="#666666">[varchar(256)]</text>
<polygon fill="none" stroke="#000000" points="241,-252.5 241,-282.5 540,-282.5 540,-252.5 241,-252.5"/>
<text text-anchor="start" x="248" y="-263.9" font-family="Arial" font-size="14.00" fill="#000000">externalArticleNumber    </text>
<text text-anchor="start" x="420.6522" y="-263.9" font-family="Arial" font-size="14.00" fill="#666666">[varchar(256)]</text>
<polygon fill="none" stroke="#000000" points="241,-222.5 241,-252.5 540,-252.5 540,-222.5 241,-222.5"/>
<text text-anchor="start" x="248" y="-233.9" font-family="Arial" font-size="14.00" fill="#000000">day1    </text>
<text text-anchor="start" x="312.5526" y="-233.9" font-family="Arial" font-size="14.00" fill="#666666">[interval]</text>
<polygon fill="none" stroke="#000000" points="241,-192.5 241,-222.5 540,-222.5 540,-192.5 241,-192.5"/>
<text text-anchor="start" x="248" y="-203.9" font-family="Arial" font-size="14.00" fill="#000000">day2    </text>
<text text-anchor="start" x="312.5526" y="-203.9" font-family="Arial" font-size="14.00" fill="#666666">[interval]</text>
<polygon fill="none" stroke="#000000" points="241,-162.5 241,-192.5 540,-192.5 540,-162.5 241,-162.5"/>
<text text-anchor="start" x="248" y="-173.9" font-family="Arial" font-size="14.00" fill="#000000">day3    </text>
<text text-anchor="start" x="312.5526" y="-173.9" font-family="Arial" font-size="14.00" fill="#666666">[interval]</text>
<polygon fill="none" stroke="#000000" points="241,-132.5 241,-162.5 540,-162.5 540,-132.5 241,-132.5"/>
<text text-anchor="start" x="248" y="-143.9" font-family="Arial" font-size="14.00" fill="#000000">day4    </text>
<text text-anchor="start" x="312.5526" y="-143.9" font-family="Arial" font-size="14.00" fill="#666666">[interval]</text>
<polygon fill="none" stroke="#000000" points="241,-102.5 241,-132.5 540,-132.5 540,-102.5 241,-102.5"/>
<text text-anchor="start" x="248" y="-113.9" font-family="Arial" font-size="14.00" fill="#000000">day5    </text>
<text text-anchor="start" x="312.5526" y="-113.9" font-family="Arial" font-size="14.00" fill="#666666">[interval]</text>
<polygon fill="none" stroke="#000000" points="241,-72.5 241,-102.5 540,-102.5 540,-72.5 241,-72.5"/>
<text text-anchor="start" x="248" y="-83.9" font-family="Arial" font-size="14.00" fill="#000000">createdAt    </text>
<text text-anchor="start" x="342.1136" y="-83.9" font-family="Arial" font-size="14.00" fill="#666666">[timestamp without time zone]</text>
<polygon fill="none" stroke="#000000" points="241,-42.5 241,-72.5 540,-72.5 540,-42.5 241,-42.5"/>
<text text-anchor="start" x="248" y="-53.9" font-family="Arial" font-size="14.00" fill="#000000">updatedAt    </text>
<text text-anchor="start" x="346.0182" y="-53.9" font-family="Arial" font-size="14.00" fill="#666666">[timestamp without time zone]</text>
</g>
<!-- public.localServiceGlobalQualifications&#45;&gt;public.localServices -->
<g id="edge1" class="edge">
<title>public.localServiceGlobalQualifications:localServiceID&#45;&gt;public.localServices:localServiceID</title>
<path fill="none" stroke="#000000" d="M370.1088,-906.0134C342.6964,-896.6636 357.229,-845.4638 380,-817 425.5333,-760.0833 494.4667,-837.9167 540,-781 565.9595,-748.5506 581.5556,-687.5 540,-687.5"/>
<polygon fill="#000000" stroke="#000000" points="370.1111,-906.0137 379.3312,-911.95 375.0555,-906.7568 380,-907.5 380,-907.5 380,-907.5 375.0555,-906.7568 380.6688,-903.05 370.1111,-906.0137 370.1111,-906.0137"/>
<text text-anchor="start" x="6.8575" y="-917.5" font-family="Arial" font-size="10.00" fill="#000000">FOREIGN KEY (&quot;localServiceID&quot;) REFERENCES &quot;localServices&quot;(&quot;localServiceID&quot;)</text>
</g>
<!-- public.qualificationsGlobal -->
<g id="node3" class="node">
<title>public.qualificationsGlobal</title>
<polygon fill="#efefef" stroke="transparent" points="644,-432.5 644,-467.5 993,-467.5 993,-432.5 644,-432.5"/>
<polygon fill="none" stroke="#000000" points="644,-432.5 644,-467.5 993,-467.5 993,-432.5 644,-432.5"/>
<text text-anchor="start" x="650.6976" y="-445.3" font-family="Arial Bold" font-size="18.00" fill="#000000">public.qualificationsGlobal</text>
<text text-anchor="start" x="858.7344" y="-445.3" font-family="Arial" font-size="14.00" fill="#000000">    </text>
<text text-anchor="start" x="892.9392" y="-445.3" font-family="Arial" font-size="14.00" fill="#666666">[BASE TABLE]</text>
<polygon fill="none" stroke="#000000" points="644,-402.5 644,-432.5 993,-432.5 993,-402.5 644,-402.5"/>
<text text-anchor="start" x="651" y="-413.9" font-family="Arial" font-size="14.00" fill="#000000">globalQualID    </text>
<text text-anchor="start" x="766.108" y="-413.9" font-family="Arial" font-size="14.00" fill="#666666">[integer]</text>
<polygon fill="none" stroke="#000000" points="644,-372.5 644,-402.5 993,-402.5 993,-372.5 644,-372.5"/>
<text text-anchor="start" x="651" y="-383.9" font-family="Arial" font-size="14.00" fill="#000000">globalQualName    </text>
<text text-anchor="start" x="789.4432" y="-383.9" font-family="Arial" font-size="14.00" fill="#666666">[varchar(64)]</text>
<polygon fill="none" stroke="#000000" points="644,-342.5 644,-372.5 993,-372.5 993,-342.5 644,-342.5"/>
<text text-anchor="start" x="651" y="-353.9" font-family="Arial" font-size="14.00" fill="#000000">createdAt    </text>
<text text-anchor="start" x="745.1136" y="-353.9" font-family="Arial" font-size="14.00" fill="#666666">[timestamp without time zone]</text>
<polygon fill="none" stroke="#000000" points="644,-312.5 644,-342.5 993,-342.5 993,-312.5 644,-312.5"/>
<text text-anchor="start" x="651" y="-323.9" font-family="Arial" font-size="14.00" fill="#000000">updatedAt    </text>
<text text-anchor="start" x="749.0182" y="-323.9" font-family="Arial" font-size="14.00" fill="#666666">[timestamp without time zone]</text>
</g>
<!-- public.localServiceGlobalQualifications&#45;&gt;public.qualificationsGlobal -->
<g id="edge2" class="edge">
<title>public.localServiceGlobalQualifications:globalQualID&#45;&gt;public.qualificationsGlobal:globalQualID</title>
<path fill="none" stroke="#000000" d="M840.0071,-877.1455C1030.5375,-862.7952 427.0283,-417.5 644,-417.5"/>
<polygon fill="#000000" stroke="#000000" points="839.9937,-877.1459 829.8407,-873.0028 834.9969,-877.323 830,-877.5 830,-877.5 830,-877.5 834.9969,-877.323 830.1593,-881.9972 839.9937,-877.1459 839.9937,-877.1459"/>
<text text-anchor="start" x="837.063" y="-887.5" font-family="Arial" font-size="10.00" fill="#000000">FOREIGN KEY (&quot;globalQualID&quot;) REFERENCES &quot;qualificationsGlobal&quot;(&quot;globalQualID&quot;)</text>
</g>
</g>
</svg>
