<?xml version="1.0" encoding="UTF-8" standalone="no"?>
<!DOCTYPE svg PUBLIC "-//W3C//DTD SVG 1.1//EN"
 "http://www.w3.org/Graphics/SVG/1.1/DTD/svg11.dtd">
<!-- Generated by graphviz version 2.40.1 (20161225.0304)
 -->
<!-- Title: public.storeopeninghours Pages: 1 -->
<svg width="784pt" height="1522pt"
 viewBox="0.00 0.00 784.00 1522.00" xmlns="http://www.w3.org/2000/svg" xmlns:xlink="http://www.w3.org/1999/xlink">
<g id="graph0" class="graph" transform="scale(1 1) rotate(0) translate(4 1518)">
<title>public.storeopeninghours</title>
<polygon fill="#ffffff" stroke="transparent" points="-4,4 -4,-1518 780,-1518 780,4 -4,4"/>
<!-- public.storeopeninghours -->
<g id="node1" class="node">
<title>public.storeopeninghours</title>
<polygon fill="#efefef" stroke="transparent" points="388,-1432.5 388,-1467.5 730,-1467.5 730,-1432.5 388,-1432.5"/>
<polygon fill="none" stroke="#000000" points="388,-1432.5 388,-1467.5 730,-1467.5 730,-1432.5 388,-1432.5"/>
<text text-anchor="start" x="394.6869" y="-1445.3" font-family="Arial Bold" font-size="18.00" fill="#000000">public.storeopeninghours</text>
<text text-anchor="start" x="595.7451" y="-1445.3" font-family="Arial" font-size="14.00" fill="#000000">    </text>
<text text-anchor="start" x="629.9499" y="-1445.3" font-family="Arial" font-size="14.00" fill="#666666">[BASE TABLE]</text>
<polygon fill="none" stroke="#000000" points="388,-1402.5 388,-1432.5 730,-1432.5 730,-1402.5 388,-1402.5"/>
<text text-anchor="start" x="395" y="-1413.9" font-family="Arial" font-size="14.00" fill="#000000">storeID </text>
<text text-anchor="start" x="444.0042" y="-1413.9" font-family="Arial" font-size="14.00" fill="#666666">[integer]</text>
<polygon fill="none" stroke="#000000" points="388,-1372.5 388,-1402.5 730,-1402.5 730,-1372.5 388,-1372.5"/>
<text text-anchor="start" x="395" y="-1383.9" font-family="Arial" font-size="14.00" fill="#000000">mondayOpen </text>
<text text-anchor="start" x="482.92" y="-1383.9" font-family="Arial" font-size="14.00" fill="#666666">[time without time zone]</text>
<polygon fill="none" stroke="#000000" points="388,-1342.5 388,-1372.5 730,-1372.5 730,-1342.5 388,-1342.5"/>
<text text-anchor="start" x="395" y="-1353.9" font-family="Arial" font-size="14.00" fill="#000000">mondayClose </text>
<text text-anchor="start" x="484.46" y="-1353.9" font-family="Arial" font-size="14.00" fill="#666666">[time without time zone]</text>
<polygon fill="none" stroke="#000000" points="388,-1312.5 388,-1342.5 730,-1342.5 730,-1312.5 388,-1312.5"/>
<text text-anchor="start" x="395" y="-1323.9" font-family="Arial" font-size="14.00" fill="#000000">tuesdayOpen </text>
<text text-anchor="start" x="482.15" y="-1323.9" font-family="Arial" font-size="14.00" fill="#666666">[time without time zone]</text>
<polygon fill="none" stroke="#000000" points="388,-1282.5 388,-1312.5 730,-1312.5 730,-1282.5 388,-1282.5"/>
<text text-anchor="start" x="395" y="-1293.9" font-family="Arial" font-size="14.00" fill="#000000">tuesdayClose </text>
<text text-anchor="start" x="483.69" y="-1293.9" font-family="Arial" font-size="14.00" fill="#666666">[time without time zone]</text>
<polygon fill="none" stroke="#000000" points="388,-1252.5 388,-1282.5 730,-1282.5 730,-1252.5 388,-1252.5"/>
<text text-anchor="start" x="395" y="-1263.9" font-family="Arial" font-size="14.00" fill="#000000">wednesdayOpen </text>
<text text-anchor="start" x="503.9312" y="-1263.9" font-family="Arial" font-size="14.00" fill="#666666">[time without time zone]</text>
<polygon fill="none" stroke="#000000" points="388,-1222.5 388,-1252.5 730,-1252.5 730,-1222.5 388,-1222.5"/>
<text text-anchor="start" x="395" y="-1233.9" font-family="Arial" font-size="14.00" fill="#000000">wednesdayClose </text>
<text text-anchor="start" x="505.4712" y="-1233.9" font-family="Arial" font-size="14.00" fill="#666666">[time without time zone]</text>
<polygon fill="none" stroke="#000000" points="388,-1192.5 388,-1222.5 730,-1222.5 730,-1192.5 388,-1192.5"/>
<text text-anchor="start" x="395" y="-1203.9" font-family="Arial" font-size="14.00" fill="#000000">thursdayOpen </text>
<text text-anchor="start" x="486.8106" y="-1203.9" font-family="Arial" font-size="14.00" fill="#666666">[time without time zone]</text>
<polygon fill="none" stroke="#000000" points="388,-1162.5 388,-1192.5 730,-1192.5 730,-1162.5 388,-1162.5"/>
<text text-anchor="start" x="395" y="-1173.9" font-family="Arial" font-size="14.00" fill="#000000">thursdayClose </text>
<text text-anchor="start" x="488.3506" y="-1173.9" font-family="Arial" font-size="14.00" fill="#666666">[time without time zone]</text>
<polygon fill="none" stroke="#000000" points="388,-1132.5 388,-1162.5 730,-1162.5 730,-1132.5 388,-1132.5"/>
<text text-anchor="start" x="395" y="-1143.9" font-family="Arial" font-size="14.00" fill="#000000">fridayOpen </text>
<text text-anchor="start" x="467.352" y="-1143.9" font-family="Arial" font-size="14.00" fill="#666666">[time without time zone]</text>
<polygon fill="none" stroke="#000000" points="388,-1102.5 388,-1132.5 730,-1132.5 730,-1102.5 388,-1102.5"/>
<text text-anchor="start" x="395" y="-1113.9" font-family="Arial" font-size="14.00" fill="#000000">fridayClose </text>
<text text-anchor="start" x="468.892" y="-1113.9" font-family="Arial" font-size="14.00" fill="#666666">[time without time zone]</text>
<polygon fill="none" stroke="#000000" points="388,-1072.5 388,-1102.5 730,-1102.5 730,-1072.5 388,-1072.5"/>
<text text-anchor="start" x="395" y="-1083.9" font-family="Arial" font-size="14.00" fill="#000000">saturdayOpen </text>
<text text-anchor="start" x="486.8106" y="-1083.9" font-family="Arial" font-size="14.00" fill="#666666">[time without time zone]</text>
<polygon fill="none" stroke="#000000" points="388,-1042.5 388,-1072.5 730,-1072.5 730,-1042.5 388,-1042.5"/>
<text text-anchor="start" x="395" y="-1053.9" font-family="Arial" font-size="14.00" fill="#000000">saturdayClose </text>
<text text-anchor="start" x="488.3506" y="-1053.9" font-family="Arial" font-size="14.00" fill="#666666">[time without time zone]</text>
<polygon fill="none" stroke="#000000" points="388,-1012.5 388,-1042.5 730,-1042.5 730,-1012.5 388,-1012.5"/>
<text text-anchor="start" x="395" y="-1023.9" font-family="Arial" font-size="14.00" fill="#000000">sundayOpen </text>
<text text-anchor="start" x="478.2594" y="-1023.9" font-family="Arial" font-size="14.00" fill="#666666">[time without time zone]</text>
<polygon fill="none" stroke="#000000" points="388,-982.5 388,-1012.5 730,-1012.5 730,-982.5 388,-982.5"/>
<text text-anchor="start" x="395" y="-993.9" font-family="Arial" font-size="14.00" fill="#000000">sundayClose </text>
<text text-anchor="start" x="479.7994" y="-993.9" font-family="Arial" font-size="14.00" fill="#666666">[time without time zone]</text>
<polygon fill="none" stroke="#000000" points="388,-952.5 388,-982.5 730,-982.5 730,-952.5 388,-952.5"/>
<text text-anchor="start" x="395" y="-963.9" font-family="Arial" font-size="14.00" fill="#000000">createdAt </text>
<text text-anchor="start" x="458.7994" y="-963.9" font-family="Arial" font-size="14.00" fill="#666666">[timestamp without time zone]</text>
<polygon fill="none" stroke="#000000" points="388,-922.5 388,-952.5 730,-952.5 730,-922.5 388,-922.5"/>
<text text-anchor="start" x="395" y="-933.9" font-family="Arial" font-size="14.00" fill="#000000">updatedAt </text>
<text text-anchor="start" x="462.704" y="-933.9" font-family="Arial" font-size="14.00" fill="#666666">[timestamp without time zone]</text>
<polygon fill="none" stroke="#000000" stroke-width="3" points="386.5,-921.5 386.5,-1469.5 731.5,-1469.5 731.5,-921.5 386.5,-921.5"/>
</g>
<!-- public.stores -->
<g id="node2" class="node">
<title>public.stores</title>
<polygon fill="#efefef" stroke="transparent" points="410,-762.5 410,-797.5 707,-797.5 707,-762.5 410,-762.5"/>
<polygon fill="none" stroke="#000000" points="410,-762.5 410,-797.5 707,-797.5 707,-762.5 410,-762.5"/>
<text text-anchor="start" x="444.208" y="-775.3" font-family="Arial Bold" font-size="18.00" fill="#000000">public.stores</text>
<text text-anchor="start" x="545.224" y="-775.3" font-family="Arial" font-size="14.00" fill="#000000">    </text>
<text text-anchor="start" x="579.4288" y="-775.3" font-family="Arial" font-size="14.00" fill="#666666">[BASE TABLE]</text>
<polygon fill="none" stroke="#000000" points="410,-732.5 410,-762.5 707,-762.5 707,-732.5 410,-732.5"/>
<text text-anchor="start" x="417" y="-743.9" font-family="Arial" font-size="14.00" fill="#000000">storeID    </text>
<text text-anchor="start" x="496.3184" y="-743.9" font-family="Arial" font-size="14.00" fill="#666666">[integer]</text>
<polygon fill="none" stroke="#000000" points="410,-702.5 410,-732.5 707,-732.5 707,-702.5 410,-702.5"/>
<text text-anchor="start" x="417" y="-713.9" font-family="Arial" font-size="14.00" fill="#000000">storeOrgNumber    </text>
<text text-anchor="start" x="555.4306" y="-713.9" font-family="Arial" font-size="14.00" fill="#666666">[varchar(11)]</text>
<polygon fill="none" stroke="#000000" points="410,-672.5 410,-702.5 707,-702.5 707,-672.5 410,-672.5"/>
<text text-anchor="start" x="417" y="-683.9" font-family="Arial" font-size="14.00" fill="#000000">storeName    </text>
<text text-anchor="start" x="519.6536" y="-683.9" font-family="Arial" font-size="14.00" fill="#666666">[varchar(128)]</text>
<polygon fill="none" stroke="#000000" points="410,-642.5 410,-672.5 707,-672.5 707,-642.5 410,-642.5"/>
<text text-anchor="start" x="417" y="-653.9" font-family="Arial" font-size="14.00" fill="#000000">storeWebSite    </text>
<text text-anchor="start" x="535.2174" y="-653.9" font-family="Arial" font-size="14.00" fill="#666666">[varchar]</text>
<polygon fill="none" stroke="#000000" points="410,-612.5 410,-642.5 707,-642.5 707,-612.5 410,-612.5"/>
<text text-anchor="start" x="417" y="-623.9" font-family="Arial" font-size="14.00" fill="#000000">storeVatNumber    </text>
<text text-anchor="start" x="553.1066" y="-623.9" font-family="Arial" font-size="14.00" fill="#666666">[varchar(32)]</text>
<polygon fill="none" stroke="#000000" points="410,-582.5 410,-612.5 707,-612.5 707,-582.5 410,-582.5"/>
<text text-anchor="start" x="417" y="-593.9" font-family="Arial" font-size="14.00" fill="#000000">storeFSkatt    </text>
<text text-anchor="start" x="522.7742" y="-593.9" font-family="Arial" font-size="14.00" fill="#666666">[boolean]</text>
<polygon fill="none" stroke="#000000" points="410,-552.5 410,-582.5 707,-582.5 707,-552.5 410,-552.5"/>
<text text-anchor="start" x="417" y="-563.9" font-family="Arial" font-size="14.00" fill="#000000">storeStatus    </text>
<text text-anchor="start" x="522.0042" y="-563.9" font-family="Arial" font-size="14.00" fill="#666666">[boolean]</text>
<polygon fill="none" stroke="#000000" points="410,-522.5 410,-552.5 707,-552.5 707,-522.5 410,-522.5"/>
<text text-anchor="start" x="417" y="-533.9" font-family="Arial" font-size="14.00" fill="#000000">storeEmail    </text>
<text text-anchor="start" x="517.3142" y="-533.9" font-family="Arial" font-size="14.00" fill="#666666">[varchar]</text>
<polygon fill="none" stroke="#000000" points="410,-492.5 410,-522.5 707,-522.5 707,-492.5 410,-492.5"/>
<text text-anchor="start" x="417" y="-503.9" font-family="Arial" font-size="14.00" fill="#000000">storePhone    </text>
<text text-anchor="start" x="522.7882" y="-503.9" font-family="Arial" font-size="14.00" fill="#666666">[varchar]</text>
<polygon fill="none" stroke="#000000" points="410,-462.5 410,-492.5 707,-492.5 707,-462.5 410,-462.5"/>
<text text-anchor="start" x="417" y="-473.9" font-family="Arial" font-size="14.00" fill="#000000">storeAddress    </text>
<text text-anchor="start" x="533.6662" y="-473.9" font-family="Arial" font-size="14.00" fill="#666666">[varchar]</text>
<polygon fill="none" stroke="#000000" points="410,-432.5 410,-462.5 707,-462.5 707,-432.5 410,-432.5"/>
<text text-anchor="start" x="417" y="-443.9" font-family="Arial" font-size="14.00" fill="#000000">storeZipCode    </text>
<text text-anchor="start" x="535.2174" y="-443.9" font-family="Arial" font-size="14.00" fill="#666666">[varchar(16)]</text>
<polygon fill="none" stroke="#000000" points="410,-402.5 410,-432.5 707,-432.5 707,-402.5 410,-402.5"/>
<text text-anchor="start" x="417" y="-413.9" font-family="Arial" font-size="14.00" fill="#000000">storeCity    </text>
<text text-anchor="start" x="506.425" y="-413.9" font-family="Arial" font-size="14.00" fill="#666666">[varchar]</text>
<polygon fill="none" stroke="#000000" points="410,-372.5 410,-402.5 707,-402.5 707,-372.5 410,-372.5"/>
<text text-anchor="start" x="417" y="-383.9" font-family="Arial" font-size="14.00" fill="#000000">storeCountry    </text>
<text text-anchor="start" x="531.3268" y="-383.9" font-family="Arial" font-size="14.00" fill="#666666">[varchar]</text>
<polygon fill="none" stroke="#000000" points="410,-342.5 410,-372.5 707,-372.5 707,-342.5 410,-342.5"/>
<text text-anchor="start" x="417" y="-353.9" font-family="Arial" font-size="14.00" fill="#000000">storeDescription    </text>
<text text-anchor="start" x="552.3226" y="-353.9" font-family="Arial" font-size="14.00" fill="#666666">[varchar]</text>
<polygon fill="none" stroke="#000000" points="410,-312.5 410,-342.5 707,-342.5 707,-312.5 410,-312.5"/>
<text text-anchor="start" x="417" y="-323.9" font-family="Arial" font-size="14.00" fill="#000000">storeContactPerson    </text>
<text text-anchor="start" x="574.9018" y="-323.9" font-family="Arial" font-size="14.00" fill="#666666">[varchar(64)]</text>
<polygon fill="none" stroke="#000000" points="410,-282.5 410,-312.5 707,-312.5 707,-282.5 410,-282.5"/>
<text text-anchor="start" x="417" y="-293.9" font-family="Arial" font-size="14.00" fill="#000000">storeMaxUsers    </text>
<text text-anchor="start" x="545.3142" y="-293.9" font-family="Arial" font-size="14.00" fill="#666666">[integer]</text>
<polygon fill="none" stroke="#000000" points="410,-252.5 410,-282.5 707,-282.5 707,-252.5 410,-252.5"/>
<text text-anchor="start" x="417" y="-263.9" font-family="Arial" font-size="14.00" fill="#000000">currency    </text>
<text text-anchor="start" x="504.8738" y="-263.9" font-family="Arial" font-size="14.00" fill="#666666">[varchar]</text>
<polygon fill="none" stroke="#000000" points="410,-222.5 410,-252.5 707,-252.5 707,-222.5 410,-222.5"/>
<text text-anchor="start" x="417" y="-233.9" font-family="Arial" font-size="14.00" fill="#000000">storeAllowCarAPI    </text>
<text text-anchor="start" x="560.8738" y="-233.9" font-family="Arial" font-size="14.00" fill="#666666">[boolean]</text>
<polygon fill="none" stroke="#000000" points="410,-192.5 410,-222.5 707,-222.5 707,-192.5 410,-192.5"/>
<text text-anchor="start" x="417" y="-203.9" font-family="Arial" font-size="14.00" fill="#000000">storeAllowSendSMS    </text>
<text text-anchor="start" x="578.7784" y="-203.9" font-family="Arial" font-size="14.00" fill="#666666">[boolean]</text>
<polygon fill="none" stroke="#000000" points="410,-162.5 410,-192.5 707,-192.5 707,-162.5 410,-162.5"/>
<text text-anchor="start" x="417" y="-173.9" font-family="Arial" font-size="14.00" fill="#000000">storeSendSMS    </text>
<text text-anchor="start" x="545.3394" y="-173.9" font-family="Arial" font-size="14.00" fill="#666666">[boolean]</text>
<polygon fill="none" stroke="#000000" points="410,-132.5 410,-162.5 707,-162.5 707,-132.5 410,-132.5"/>
<text text-anchor="start" x="417" y="-143.9" font-family="Arial" font-size="14.00" fill="#000000">storeUsesCheckin    </text>
<text text-anchor="start" x="564.7714" y="-143.9" font-family="Arial" font-size="14.00" fill="#666666">[boolean]</text>
<polygon fill="none" stroke="#000000" points="410,-102.5 410,-132.5 707,-132.5 707,-102.5 410,-102.5"/>
<text text-anchor="start" x="417" y="-113.9" font-family="Arial" font-size="14.00" fill="#000000">storeUsesPIN    </text>
<text text-anchor="start" x="537.5442" y="-113.9" font-family="Arial" font-size="14.00" fill="#666666">[boolean]</text>
<polygon fill="none" stroke="#000000" points="410,-72.5 410,-102.5 707,-102.5 707,-72.5 410,-72.5"/>
<text text-anchor="start" x="417" y="-83.9" font-family="Arial" font-size="14.00" fill="#000000">createdAt    </text>
<text text-anchor="start" x="511.1136" y="-83.9" font-family="Arial" font-size="14.00" fill="#666666">[timestamp without time zone]</text>
<polygon fill="none" stroke="#000000" points="410,-42.5 410,-72.5 707,-72.5 707,-42.5 410,-42.5"/>
<text text-anchor="start" x="416.9208" y="-53.9" font-family="Arial" font-size="14.00" fill="#000000">updatedAt    </text>
<text text-anchor="start" x="514.939" y="-53.9" font-family="Arial" font-size="14.00" fill="#666666">[timestamp without time zone]</text>
</g>
<!-- public.storeopeninghours&#45;&gt;public.stores -->
<g id="edge1" class="edge">
<title>public.storeopeninghours:storeID&#45;&gt;public.stores:storeID</title>
<path fill="none" stroke="#000000" d="M377.8528,-1416.3593C270.2718,-1391.3883 310.3169,-963.943 388,-877 483.0634,-770.605 611.9366,-947.395 707,-841 734.6877,-810.012 748.5556,-747.5 707,-747.5"/>
<polygon fill="#000000" stroke="#000000" points="378.0626,-1416.3828 387.4973,-1421.9718 383.0313,-1416.9414 388,-1417.5 388,-1417.5 388,-1417.5 383.0313,-1416.9414 388.5027,-1413.0282 378.0626,-1416.3828 378.0626,-1416.3828"/>
<text text-anchor="start" x="6.623" y="-1427.5" font-family="Arial" font-size="10.00" fill="#000000">FOREIGN KEY (&quot;storeID&quot;) REFERENCES stores(&quot;storeID&quot;) ON DELETE CASCADE</text>
</g>
</g>
</svg>
