<?xml version="1.0" encoding="UTF-8" standalone="no"?>
<!DOCTYPE svg PUBLIC "-//W3C//DTD SVG 1.1//EN"
 "http://www.w3.org/Graphics/SVG/1.1/DTD/svg11.dtd">
<!-- Generated by graphviz version 2.40.1 (20161225.0304)
 -->
<!-- Title: public.employeeWorkingHours Pages: 1 -->
<svg width="1233pt" height="1762pt"
 viewBox="0.00 0.00 1233.00 1762.00" xmlns="http://www.w3.org/2000/svg" xmlns:xlink="http://www.w3.org/1999/xlink">
<g id="graph0" class="graph" transform="scale(1 1) rotate(0) translate(4 1758)">
<title>public.employeeWorkingHours</title>
<polygon fill="#ffffff" stroke="transparent" points="-4,4 -4,-1758 1229,-1758 1229,4 -4,4"/>
<!-- public.employeeWorkingHours -->
<g id="node1" class="node">
<title>public.employeeWorkingHours</title>
<polygon fill="#efefef" stroke="transparent" points="388,-1672.5 388,-1707.5 773,-1707.5 773,-1672.5 388,-1672.5"/>
<polygon fill="none" stroke="#000000" points="388,-1672.5 388,-1707.5 773,-1707.5 773,-1672.5 388,-1672.5"/>
<text text-anchor="start" x="394.7057" y="-1685.3" font-family="Arial Bold" font-size="18.00" fill="#000000">public.employeeWorkingHours</text>
<text text-anchor="start" x="638.7263" y="-1685.3" font-family="Arial" font-size="14.00" fill="#000000">    </text>
<text text-anchor="start" x="672.9311" y="-1685.3" font-family="Arial" font-size="14.00" fill="#666666">[BASE TABLE]</text>
<polygon fill="none" stroke="#000000" points="388,-1642.5 388,-1672.5 773,-1672.5 773,-1642.5 388,-1642.5"/>
<text text-anchor="start" x="395" y="-1653.9" font-family="Arial" font-size="14.00" fill="#000000">storeID </text>
<text text-anchor="start" x="444.0042" y="-1653.9" font-family="Arial" font-size="14.00" fill="#666666">[integer]</text>
<polygon fill="none" stroke="#000000" points="388,-1612.5 388,-1642.5 773,-1642.5 773,-1612.5 388,-1612.5"/>
<text text-anchor="start" x="395" y="-1623.9" font-family="Arial" font-size="14.00" fill="#000000">employeeID </text>
<text text-anchor="start" x="473.568" y="-1623.9" font-family="Arial" font-size="14.00" fill="#666666">[integer]</text>
<polygon fill="none" stroke="#000000" points="388,-1582.5 388,-1612.5 773,-1612.5 773,-1582.5 388,-1582.5"/>
<text text-anchor="start" x="395" y="-1593.9" font-family="Arial" font-size="14.00" fill="#000000">mondayStart </text>
<text text-anchor="start" x="478.2426" y="-1593.9" font-family="Arial" font-size="14.00" fill="#666666">[time without time zone]</text>
<polygon fill="none" stroke="#000000" points="388,-1552.5 388,-1582.5 773,-1582.5 773,-1552.5 388,-1552.5"/>
<text text-anchor="start" x="395" y="-1563.9" font-family="Arial" font-size="14.00" fill="#000000">mondayStop </text>
<text text-anchor="start" x="477.474" y="-1563.9" font-family="Arial" font-size="14.00" fill="#666666">[time without time zone]</text>
<polygon fill="none" stroke="#000000" points="388,-1522.5 388,-1552.5 773,-1552.5 773,-1522.5 388,-1522.5"/>
<text text-anchor="start" x="395" y="-1533.9" font-family="Arial" font-size="14.00" fill="#000000">mondayBreak </text>
<text text-anchor="start" x="485.244" y="-1533.9" font-family="Arial" font-size="14.00" fill="#666666">[interval]</text>
<polygon fill="none" stroke="#000000" points="388,-1492.5 388,-1522.5 773,-1522.5 773,-1492.5 388,-1492.5"/>
<text text-anchor="start" x="395" y="-1503.9" font-family="Arial" font-size="14.00" fill="#000000">tuesdayStart </text>
<text text-anchor="start" x="477.4726" y="-1503.9" font-family="Arial" font-size="14.00" fill="#666666">[time without time zone]</text>
<polygon fill="none" stroke="#000000" points="388,-1462.5 388,-1492.5 773,-1492.5 773,-1462.5 388,-1462.5"/>
<text text-anchor="start" x="395" y="-1473.9" font-family="Arial" font-size="14.00" fill="#000000">tuesdayStop </text>
<text text-anchor="start" x="476.704" y="-1473.9" font-family="Arial" font-size="14.00" fill="#666666">[time without time zone]</text>
<polygon fill="none" stroke="#000000" points="388,-1432.5 388,-1462.5 773,-1462.5 773,-1432.5 388,-1432.5"/>
<text text-anchor="start" x="395" y="-1443.9" font-family="Arial" font-size="14.00" fill="#000000">tuesdayBreak </text>
<text text-anchor="start" x="484.474" y="-1443.9" font-family="Arial" font-size="14.00" fill="#666666">[interval]</text>
<polygon fill="none" stroke="#000000" points="388,-1402.5 388,-1432.5 773,-1432.5 773,-1402.5 388,-1402.5"/>
<text text-anchor="start" x="395" y="-1413.9" font-family="Arial" font-size="14.00" fill="#000000">wednesdayStart </text>
<text text-anchor="start" x="499.2538" y="-1413.9" font-family="Arial" font-size="14.00" fill="#666666">[time without time zone]</text>
<polygon fill="none" stroke="#000000" points="388,-1372.5 388,-1402.5 773,-1402.5 773,-1372.5 388,-1372.5"/>
<text text-anchor="start" x="395" y="-1383.9" font-family="Arial" font-size="14.00" fill="#000000">wednesdayStop </text>
<text text-anchor="start" x="498.4852" y="-1383.9" font-family="Arial" font-size="14.00" fill="#666666">[time without time zone]</text>
<polygon fill="none" stroke="#000000" points="388,-1342.5 388,-1372.5 773,-1372.5 773,-1342.5 388,-1342.5"/>
<text text-anchor="start" x="395" y="-1353.9" font-family="Arial" font-size="14.00" fill="#000000">wednesdayBreak </text>
<text text-anchor="start" x="506.2552" y="-1353.9" font-family="Arial" font-size="14.00" fill="#666666">[interval]</text>
<polygon fill="none" stroke="#000000" points="388,-1312.5 388,-1342.5 773,-1342.5 773,-1312.5 388,-1312.5"/>
<text text-anchor="start" x="395" y="-1323.9" font-family="Arial" font-size="14.00" fill="#000000">thursdayStart </text>
<text text-anchor="start" x="482.1332" y="-1323.9" font-family="Arial" font-size="14.00" fill="#666666">[time without time zone]</text>
<polygon fill="none" stroke="#000000" points="388,-1282.5 388,-1312.5 773,-1312.5 773,-1282.5 388,-1282.5"/>
<text text-anchor="start" x="395" y="-1293.9" font-family="Arial" font-size="14.00" fill="#000000">thursdayStop </text>
<text text-anchor="start" x="481.3646" y="-1293.9" font-family="Arial" font-size="14.00" fill="#666666">[time without time zone]</text>
<polygon fill="none" stroke="#000000" points="388,-1252.5 388,-1282.5 773,-1282.5 773,-1252.5 388,-1252.5"/>
<text text-anchor="start" x="395" y="-1263.9" font-family="Arial" font-size="14.00" fill="#000000">thursdayBreak </text>
<text text-anchor="start" x="489.1346" y="-1263.9" font-family="Arial" font-size="14.00" fill="#666666">[interval]</text>
<polygon fill="none" stroke="#000000" points="388,-1222.5 388,-1252.5 773,-1252.5 773,-1222.5 388,-1222.5"/>
<text text-anchor="start" x="395" y="-1233.9" font-family="Arial" font-size="14.00" fill="#000000">fridayStart </text>
<text text-anchor="start" x="462.6746" y="-1233.9" font-family="Arial" font-size="14.00" fill="#666666">[time without time zone]</text>
<polygon fill="none" stroke="#000000" points="388,-1192.5 388,-1222.5 773,-1222.5 773,-1192.5 388,-1192.5"/>
<text text-anchor="start" x="395" y="-1203.9" font-family="Arial" font-size="14.00" fill="#000000">fridayStop </text>
<text text-anchor="start" x="461.906" y="-1203.9" font-family="Arial" font-size="14.00" fill="#666666">[time without time zone]</text>
<polygon fill="none" stroke="#000000" points="388,-1162.5 388,-1192.5 773,-1192.5 773,-1162.5 388,-1162.5"/>
<text text-anchor="start" x="395" y="-1173.9" font-family="Arial" font-size="14.00" fill="#000000">fridayBreak </text>
<text text-anchor="start" x="469.676" y="-1173.9" font-family="Arial" font-size="14.00" fill="#666666">[interval]</text>
<polygon fill="none" stroke="#000000" points="388,-1132.5 388,-1162.5 773,-1162.5 773,-1132.5 388,-1132.5"/>
<text text-anchor="start" x="395" y="-1143.9" font-family="Arial" font-size="14.00" fill="#000000">saturdayStart </text>
<text text-anchor="start" x="482.1332" y="-1143.9" font-family="Arial" font-size="14.00" fill="#666666">[time without time zone]</text>
<polygon fill="none" stroke="#000000" points="388,-1102.5 388,-1132.5 773,-1132.5 773,-1102.5 388,-1102.5"/>
<text text-anchor="start" x="395" y="-1113.9" font-family="Arial" font-size="14.00" fill="#000000">saturdayStop </text>
<text text-anchor="start" x="481.3646" y="-1113.9" font-family="Arial" font-size="14.00" fill="#666666">[time without time zone]</text>
<polygon fill="none" stroke="#000000" points="388,-1072.5 388,-1102.5 773,-1102.5 773,-1072.5 388,-1072.5"/>
<text text-anchor="start" x="395" y="-1083.9" font-family="Arial" font-size="14.00" fill="#000000">saturdayBreak </text>
<text text-anchor="start" x="489.1346" y="-1083.9" font-family="Arial" font-size="14.00" fill="#666666">[interval]</text>
<polygon fill="none" stroke="#000000" points="388,-1042.5 388,-1072.5 773,-1072.5 773,-1042.5 388,-1042.5"/>
<text text-anchor="start" x="395" y="-1053.9" font-family="Arial" font-size="14.00" fill="#000000">sundayStart </text>
<text text-anchor="start" x="473.582" y="-1053.9" font-family="Arial" font-size="14.00" fill="#666666">[time without time zone]</text>
<polygon fill="none" stroke="#000000" points="388,-1012.5 388,-1042.5 773,-1042.5 773,-1012.5 388,-1012.5"/>
<text text-anchor="start" x="395" y="-1023.9" font-family="Arial" font-size="14.00" fill="#000000">sundayStop </text>
<text text-anchor="start" x="472.8134" y="-1023.9" font-family="Arial" font-size="14.00" fill="#666666">[time without time zone]</text>
<polygon fill="none" stroke="#000000" points="388,-982.5 388,-1012.5 773,-1012.5 773,-982.5 388,-982.5"/>
<text text-anchor="start" x="395" y="-993.9" font-family="Arial" font-size="14.00" fill="#000000">sundayBreak </text>
<text text-anchor="start" x="480.5834" y="-993.9" font-family="Arial" font-size="14.00" fill="#666666">[interval]</text>
<polygon fill="none" stroke="#000000" points="388,-952.5 388,-982.5 773,-982.5 773,-952.5 388,-952.5"/>
<text text-anchor="start" x="395" y="-963.9" font-family="Arial" font-size="14.00" fill="#000000">createdAt </text>
<text text-anchor="start" x="458.7994" y="-963.9" font-family="Arial" font-size="14.00" fill="#666666">[timestamp without time zone]</text>
<polygon fill="none" stroke="#000000" points="388,-922.5 388,-952.5 773,-952.5 773,-922.5 388,-922.5"/>
<text text-anchor="start" x="395" y="-933.9" font-family="Arial" font-size="14.00" fill="#000000">updatedAt </text>
<text text-anchor="start" x="462.704" y="-933.9" font-family="Arial" font-size="14.00" fill="#666666">[timestamp without time zone]</text>
<polygon fill="none" stroke="#000000" stroke-width="3" points="386,-921.5 386,-1709.5 774,-1709.5 774,-921.5 386,-921.5"/>
</g>
<!-- public.stores -->
<g id="node2" class="node">
<title>public.stores</title>
<polygon fill="#efefef" stroke="transparent" points="232,-762.5 232,-797.5 529,-797.5 529,-762.5 232,-762.5"/>
<polygon fill="none" stroke="#000000" points="232,-762.5 232,-797.5 529,-797.5 529,-762.5 232,-762.5"/>
<text text-anchor="start" x="266.208" y="-775.3" font-family="Arial Bold" font-size="18.00" fill="#000000">public.stores</text>
<text text-anchor="start" x="367.224" y="-775.3" font-family="Arial" font-size="14.00" fill="#000000">    </text>
<text text-anchor="start" x="401.4288" y="-775.3" font-family="Arial" font-size="14.00" fill="#666666">[BASE TABLE]</text>
<polygon fill="none" stroke="#000000" points="232,-732.5 232,-762.5 529,-762.5 529,-732.5 232,-732.5"/>
<text text-anchor="start" x="239" y="-743.9" font-family="Arial" font-size="14.00" fill="#000000">storeID    </text>
<text text-anchor="start" x="318.3184" y="-743.9" font-family="Arial" font-size="14.00" fill="#666666">[integer]</text>
<polygon fill="none" stroke="#000000" points="232,-702.5 232,-732.5 529,-732.5 529,-702.5 232,-702.5"/>
<text text-anchor="start" x="239" y="-713.9" font-family="Arial" font-size="14.00" fill="#000000">storeOrgNumber    </text>
<text text-anchor="start" x="377.4306" y="-713.9" font-family="Arial" font-size="14.00" fill="#666666">[varchar(11)]</text>
<polygon fill="none" stroke="#000000" points="232,-672.5 232,-702.5 529,-702.5 529,-672.5 232,-672.5"/>
<text text-anchor="start" x="239" y="-683.9" font-family="Arial" font-size="14.00" fill="#000000">storeName    </text>
<text text-anchor="start" x="341.6536" y="-683.9" font-family="Arial" font-size="14.00" fill="#666666">[varchar(128)]</text>
<polygon fill="none" stroke="#000000" points="232,-642.5 232,-672.5 529,-672.5 529,-642.5 232,-642.5"/>
<text text-anchor="start" x="239" y="-653.9" font-family="Arial" font-size="14.00" fill="#000000">storeWebSite    </text>
<text text-anchor="start" x="357.2174" y="-653.9" font-family="Arial" font-size="14.00" fill="#666666">[varchar]</text>
<polygon fill="none" stroke="#000000" points="232,-612.5 232,-642.5 529,-642.5 529,-612.5 232,-612.5"/>
<text text-anchor="start" x="239" y="-623.9" font-family="Arial" font-size="14.00" fill="#000000">storeVatNumber    </text>
<text text-anchor="start" x="375.1066" y="-623.9" font-family="Arial" font-size="14.00" fill="#666666">[varchar(32)]</text>
<polygon fill="none" stroke="#000000" points="232,-582.5 232,-612.5 529,-612.5 529,-582.5 232,-582.5"/>
<text text-anchor="start" x="239" y="-593.9" font-family="Arial" font-size="14.00" fill="#000000">storeFSkatt    </text>
<text text-anchor="start" x="344.7742" y="-593.9" font-family="Arial" font-size="14.00" fill="#666666">[boolean]</text>
<polygon fill="none" stroke="#000000" points="232,-552.5 232,-582.5 529,-582.5 529,-552.5 232,-552.5"/>
<text text-anchor="start" x="239" y="-563.9" font-family="Arial" font-size="14.00" fill="#000000">storeStatus    </text>
<text text-anchor="start" x="344.0042" y="-563.9" font-family="Arial" font-size="14.00" fill="#666666">[boolean]</text>
<polygon fill="none" stroke="#000000" points="232,-522.5 232,-552.5 529,-552.5 529,-522.5 232,-522.5"/>
<text text-anchor="start" x="239" y="-533.9" font-family="Arial" font-size="14.00" fill="#000000">storeEmail    </text>
<text text-anchor="start" x="339.3142" y="-533.9" font-family="Arial" font-size="14.00" fill="#666666">[varchar]</text>
<polygon fill="none" stroke="#000000" points="232,-492.5 232,-522.5 529,-522.5 529,-492.5 232,-492.5"/>
<text text-anchor="start" x="239" y="-503.9" font-family="Arial" font-size="14.00" fill="#000000">storePhone    </text>
<text text-anchor="start" x="344.7882" y="-503.9" font-family="Arial" font-size="14.00" fill="#666666">[varchar]</text>
<polygon fill="none" stroke="#000000" points="232,-462.5 232,-492.5 529,-492.5 529,-462.5 232,-462.5"/>
<text text-anchor="start" x="239" y="-473.9" font-family="Arial" font-size="14.00" fill="#000000">storeAddress    </text>
<text text-anchor="start" x="355.6662" y="-473.9" font-family="Arial" font-size="14.00" fill="#666666">[varchar]</text>
<polygon fill="none" stroke="#000000" points="232,-432.5 232,-462.5 529,-462.5 529,-432.5 232,-432.5"/>
<text text-anchor="start" x="239" y="-443.9" font-family="Arial" font-size="14.00" fill="#000000">storeZipCode    </text>
<text text-anchor="start" x="357.2174" y="-443.9" font-family="Arial" font-size="14.00" fill="#666666">[varchar(16)]</text>
<polygon fill="none" stroke="#000000" points="232,-402.5 232,-432.5 529,-432.5 529,-402.5 232,-402.5"/>
<text text-anchor="start" x="239" y="-413.9" font-family="Arial" font-size="14.00" fill="#000000">storeCity    </text>
<text text-anchor="start" x="328.425" y="-413.9" font-family="Arial" font-size="14.00" fill="#666666">[varchar]</text>
<polygon fill="none" stroke="#000000" points="232,-372.5 232,-402.5 529,-402.5 529,-372.5 232,-372.5"/>
<text text-anchor="start" x="239" y="-383.9" font-family="Arial" font-size="14.00" fill="#000000">storeCountry    </text>
<text text-anchor="start" x="353.3268" y="-383.9" font-family="Arial" font-size="14.00" fill="#666666">[varchar]</text>
<polygon fill="none" stroke="#000000" points="232,-342.5 232,-372.5 529,-372.5 529,-342.5 232,-342.5"/>
<text text-anchor="start" x="239" y="-353.9" font-family="Arial" font-size="14.00" fill="#000000">storeDescription    </text>
<text text-anchor="start" x="374.3226" y="-353.9" font-family="Arial" font-size="14.00" fill="#666666">[varchar]</text>
<polygon fill="none" stroke="#000000" points="232,-312.5 232,-342.5 529,-342.5 529,-312.5 232,-312.5"/>
<text text-anchor="start" x="239" y="-323.9" font-family="Arial" font-size="14.00" fill="#000000">storeContactPerson    </text>
<text text-anchor="start" x="396.9018" y="-323.9" font-family="Arial" font-size="14.00" fill="#666666">[varchar(64)]</text>
<polygon fill="none" stroke="#000000" points="232,-282.5 232,-312.5 529,-312.5 529,-282.5 232,-282.5"/>
<text text-anchor="start" x="239" y="-293.9" font-family="Arial" font-size="14.00" fill="#000000">storeMaxUsers    </text>
<text text-anchor="start" x="367.3142" y="-293.9" font-family="Arial" font-size="14.00" fill="#666666">[integer]</text>
<polygon fill="none" stroke="#000000" points="232,-252.5 232,-282.5 529,-282.5 529,-252.5 232,-252.5"/>
<text text-anchor="start" x="239" y="-263.9" font-family="Arial" font-size="14.00" fill="#000000">currency    </text>
<text text-anchor="start" x="326.8738" y="-263.9" font-family="Arial" font-size="14.00" fill="#666666">[varchar]</text>
<polygon fill="none" stroke="#000000" points="232,-222.5 232,-252.5 529,-252.5 529,-222.5 232,-222.5"/>
<text text-anchor="start" x="239" y="-233.9" font-family="Arial" font-size="14.00" fill="#000000">storeAllowCarAPI    </text>
<text text-anchor="start" x="382.8738" y="-233.9" font-family="Arial" font-size="14.00" fill="#666666">[boolean]</text>
<polygon fill="none" stroke="#000000" points="232,-192.5 232,-222.5 529,-222.5 529,-192.5 232,-192.5"/>
<text text-anchor="start" x="239" y="-203.9" font-family="Arial" font-size="14.00" fill="#000000">storeAllowSendSMS    </text>
<text text-anchor="start" x="400.7784" y="-203.9" font-family="Arial" font-size="14.00" fill="#666666">[boolean]</text>
<polygon fill="none" stroke="#000000" points="232,-162.5 232,-192.5 529,-192.5 529,-162.5 232,-162.5"/>
<text text-anchor="start" x="239" y="-173.9" font-family="Arial" font-size="14.00" fill="#000000">storeSendSMS    </text>
<text text-anchor="start" x="367.3394" y="-173.9" font-family="Arial" font-size="14.00" fill="#666666">[boolean]</text>
<polygon fill="none" stroke="#000000" points="232,-132.5 232,-162.5 529,-162.5 529,-132.5 232,-132.5"/>
<text text-anchor="start" x="239" y="-143.9" font-family="Arial" font-size="14.00" fill="#000000">storeUsesCheckin    </text>
<text text-anchor="start" x="386.7714" y="-143.9" font-family="Arial" font-size="14.00" fill="#666666">[boolean]</text>
<polygon fill="none" stroke="#000000" points="232,-102.5 232,-132.5 529,-132.5 529,-102.5 232,-102.5"/>
<text text-anchor="start" x="239" y="-113.9" font-family="Arial" font-size="14.00" fill="#000000">storeUsesPIN    </text>
<text text-anchor="start" x="359.5442" y="-113.9" font-family="Arial" font-size="14.00" fill="#666666">[boolean]</text>
<polygon fill="none" stroke="#000000" points="232,-72.5 232,-102.5 529,-102.5 529,-72.5 232,-72.5"/>
<text text-anchor="start" x="239" y="-83.9" font-family="Arial" font-size="14.00" fill="#000000">createdAt    </text>
<text text-anchor="start" x="333.1136" y="-83.9" font-family="Arial" font-size="14.00" fill="#666666">[timestamp without time zone]</text>
<polygon fill="none" stroke="#000000" points="232,-42.5 232,-72.5 529,-72.5 529,-42.5 232,-42.5"/>
<text text-anchor="start" x="238.9208" y="-53.9" font-family="Arial" font-size="14.00" fill="#000000">updatedAt    </text>
<text text-anchor="start" x="336.939" y="-53.9" font-family="Arial" font-size="14.00" fill="#666666">[timestamp without time zone]</text>
</g>
<!-- public.employeeWorkingHours&#45;&gt;public.stores -->
<g id="edge1" class="edge">
<title>public.employeeWorkingHours:storeID&#45;&gt;public.stores:storeID</title>
<path fill="none" stroke="#000000" d="M377.9745,-1657.3558C43.7376,-1647.6287 177.2826,-1148.2772 388,-877 427.6754,-825.9219 489.3246,-892.0781 529,-841 554.4918,-808.1819 570.5556,-747.5 529,-747.5"/>
<polygon fill="#000000" stroke="#000000" points="378.001,-1657.356 387.9352,-1661.9995 383.0005,-1657.428 388,-1657.5 388,-1657.5 388,-1657.5 383.0005,-1657.428 388.0648,-1653.0005 378.001,-1657.356 378.001,-1657.356"/>
<text text-anchor="start" x="6.623" y="-1667.5" font-family="Arial" font-size="10.00" fill="#000000">FOREIGN KEY (&quot;storeID&quot;) REFERENCES stores(&quot;storeID&quot;) ON DELETE CASCADE</text>
</g>
<!-- public.employees -->
<g id="node3" class="node">
<title>public.employees</title>
<polygon fill="#efefef" stroke="transparent" points="633,-597.5 633,-632.5 930,-632.5 930,-597.5 633,-597.5"/>
<polygon fill="none" stroke="#000000" points="633,-597.5 633,-632.5 930,-632.5 930,-597.5 633,-597.5"/>
<text text-anchor="start" x="648.2027" y="-610.3" font-family="Arial Bold" font-size="18.00" fill="#000000">public.employees</text>
<text text-anchor="start" x="787.2293" y="-610.3" font-family="Arial" font-size="14.00" fill="#000000">    </text>
<text text-anchor="start" x="821.4341" y="-610.3" font-family="Arial" font-size="14.00" fill="#666666">[BASE TABLE]</text>
<polygon fill="none" stroke="#000000" points="633,-567.5 633,-597.5 930,-597.5 930,-567.5 633,-567.5"/>
<text text-anchor="start" x="640" y="-578.9" font-family="Arial" font-size="14.00" fill="#000000">userID    </text>
<text text-anchor="start" x="715.4278" y="-578.9" font-family="Arial" font-size="14.00" fill="#666666">[integer]</text>
<polygon fill="none" stroke="#000000" points="633,-537.5 633,-567.5 930,-567.5 930,-537.5 633,-537.5"/>
<text text-anchor="start" x="640" y="-548.9" font-family="Arial" font-size="14.00" fill="#000000">employeeID    </text>
<text text-anchor="start" x="748.8822" y="-548.9" font-family="Arial" font-size="14.00" fill="#666666">[integer]</text>
<polygon fill="none" stroke="#000000" points="633,-507.5 633,-537.5 930,-537.5 930,-507.5 633,-507.5"/>
<text text-anchor="start" x="640" y="-518.9" font-family="Arial" font-size="14.00" fill="#000000">shortUserName    </text>
<text text-anchor="start" x="772.2034" y="-518.9" font-family="Arial" font-size="14.00" fill="#666666">[varchar(16)]</text>
<polygon fill="none" stroke="#000000" points="633,-477.5 633,-507.5 930,-507.5 930,-477.5 633,-477.5"/>
<text text-anchor="start" x="640" y="-488.9" font-family="Arial" font-size="14.00" fill="#000000">employmentNumber    </text>
<text text-anchor="start" x="800.2118" y="-488.9" font-family="Arial" font-size="14.00" fill="#666666">[varchar(128)]</text>
<polygon fill="none" stroke="#000000" points="633,-447.5 633,-477.5 930,-477.5 930,-447.5 633,-447.5"/>
<text text-anchor="start" x="640" y="-458.9" font-family="Arial" font-size="14.00" fill="#000000">employeePersonalNumber    </text>
<text text-anchor="start" x="839.8948" y="-458.9" font-family="Arial" font-size="14.00" fill="#666666">[varchar(16)]</text>
<polygon fill="none" stroke="#000000" points="633,-417.5 633,-447.5 930,-447.5 930,-417.5 633,-417.5"/>
<text text-anchor="start" x="640" y="-428.9" font-family="Arial" font-size="14.00" fill="#000000">signature    </text>
<text text-anchor="start" x="731.7756" y="-428.9" font-family="Arial" font-size="14.00" fill="#666666">[varchar(4)]</text>
<polygon fill="none" stroke="#000000" points="633,-387.5 633,-417.5 930,-417.5 930,-387.5 633,-387.5"/>
<text text-anchor="start" x="640" y="-398.9" font-family="Arial" font-size="14.00" fill="#000000">employeeHourlyRate    </text>
<text text-anchor="start" x="804.8864" y="-398.9" font-family="Arial" font-size="14.00" fill="#666666">[real]</text>
<polygon fill="none" stroke="#000000" points="633,-357.5 633,-387.5 930,-387.5 930,-357.5 633,-357.5"/>
<text text-anchor="start" x="640" y="-368.9" font-family="Arial" font-size="14.00" fill="#000000">employeeHourlyRateCurrency    </text>
<text text-anchor="start" x="861.662" y="-368.9" font-family="Arial" font-size="14.00" fill="#666666">[varchar]</text>
<polygon fill="none" stroke="#000000" points="633,-327.5 633,-357.5 930,-357.5 930,-327.5 633,-327.5"/>
<text text-anchor="start" x="640" y="-338.9" font-family="Arial" font-size="14.00" fill="#000000">employeePin    </text>
<text text-anchor="start" x="755.1108" y="-338.9" font-family="Arial" font-size="14.00" fill="#666666">[varchar(4)]</text>
<polygon fill="none" stroke="#000000" points="633,-297.5 633,-327.5 930,-327.5 930,-297.5 633,-297.5"/>
<text text-anchor="start" x="640" y="-308.9" font-family="Arial" font-size="14.00" fill="#000000">employeeComment    </text>
<text text-anchor="start" x="795.5512" y="-308.9" font-family="Arial" font-size="14.00" fill="#666666">[varchar]</text>
<polygon fill="none" stroke="#000000" points="633,-267.5 633,-297.5 930,-297.5 930,-267.5 633,-267.5"/>
<text text-anchor="start" x="640" y="-278.9" font-family="Arial" font-size="14.00" fill="#000000">employeeActive    </text>
<text text-anchor="start" x="773.0014" y="-278.9" font-family="Arial" font-size="14.00" fill="#666666">[boolean]</text>
<polygon fill="none" stroke="#000000" points="633,-237.5 633,-267.5 930,-267.5 930,-237.5 633,-237.5"/>
<text text-anchor="start" x="640" y="-248.9" font-family="Arial" font-size="14.00" fill="#000000">createdAt    </text>
<text text-anchor="start" x="734.1136" y="-248.9" font-family="Arial" font-size="14.00" fill="#666666">[timestamp without time zone]</text>
<polygon fill="none" stroke="#000000" points="633,-207.5 633,-237.5 930,-237.5 930,-207.5 633,-207.5"/>
<text text-anchor="start" x="639.9208" y="-218.9" font-family="Arial" font-size="14.00" fill="#000000">updatedAt    </text>
<text text-anchor="start" x="737.939" y="-218.9" font-family="Arial" font-size="14.00" fill="#666666">[timestamp without time zone]</text>
</g>
<!-- public.employeeWorkingHours&#45;&gt;public.employees -->
<g id="edge2" class="edge">
<title>public.employeeWorkingHours:employeeID&#45;&gt;public.employees:employeeID</title>
<path fill="none" stroke="#000000" d="M783.0826,-1627.3642C1101.778,-1618.6473 871.883,-1191.9785 773,-877 740.3918,-773.1311 665.6082,-779.8689 633,-676 616.5595,-623.6311 578.1111,-552.5 633,-552.5"/>
<polygon fill="#000000" stroke="#000000" points="782.9991,-1627.3653 772.9394,-1623.0004 777.9995,-1627.4326 773,-1627.5 773,-1627.5 773,-1627.5 777.9995,-1627.4326 773.0606,-1631.9996 782.9991,-1627.3653 782.9991,-1627.3653"/>
<text text-anchor="start" x="779.9475" y="-1637.5" font-family="Arial" font-size="10.00" fill="#000000">FOREIGN KEY (&quot;employeeID&quot;) REFERENCES employees(&quot;employeeID&quot;) ON DELETE CASCADE</text>
</g>
</g>
</svg>
