<?xml version="1.0" encoding="UTF-8" standalone="no"?>
<!DOCTYPE svg PUBLIC "-//W3C//DTD SVG 1.1//EN"
 "http://www.w3.org/Graphics/SVG/1.1/DTD/svg11.dtd">
<!-- Generated by graphviz version 2.40.1 (20161225.0304)
 -->
<!-- Title: public.rentCars Pages: 1 -->
<svg width="1282pt" height="1739pt"
 viewBox="0.00 0.00 1282.00 1739.00" xmlns="http://www.w3.org/2000/svg" xmlns:xlink="http://www.w3.org/1999/xlink">
<g id="graph0" class="graph" transform="scale(1 1) rotate(0) translate(4 1735)">
<title>public.rentCars</title>
<polygon fill="#ffffff" stroke="transparent" points="-4,4 -4,-1735 1278,-1735 1278,4 -4,4"/>
<!-- public.rentCars -->
<g id="node1" class="node">
<title>public.rentCars</title>
<polygon fill="#efefef" stroke="transparent" points="388,-1192.5 388,-1227.5 654,-1227.5 654,-1192.5 388,-1192.5"/>
<polygon fill="none" stroke="#000000" points="388,-1192.5 388,-1227.5 654,-1227.5 654,-1192.5 388,-1192.5"/>
<text text-anchor="start" x="396.7117" y="-1205.3" font-family="Arial Bold" font-size="18.00" fill="#000000">public.rentCars</text>
<text text-anchor="start" x="517.7203" y="-1205.3" font-family="Arial" font-size="14.00" fill="#000000">    </text>
<text text-anchor="start" x="551.9251" y="-1205.3" font-family="Arial" font-size="14.00" fill="#666666">[BASE TABLE]</text>
<polygon fill="none" stroke="#000000" points="388,-1162.5 388,-1192.5 654,-1192.5 654,-1162.5 388,-1162.5"/>
<text text-anchor="start" x="395" y="-1173.9" font-family="Arial" font-size="14.00" fill="#000000">storeID </text>
<text text-anchor="start" x="444.0042" y="-1173.9" font-family="Arial" font-size="14.00" fill="#666666">[integer]</text>
<polygon fill="none" stroke="#000000" points="388,-1132.5 388,-1162.5 654,-1162.5 654,-1132.5 388,-1132.5"/>
<text text-anchor="start" x="395" y="-1143.9" font-family="Arial" font-size="14.00" fill="#000000">rentCarRegistrationNumber </text>
<text text-anchor="start" x="570.007" y="-1143.9" font-family="Arial" font-size="14.00" fill="#666666">[varchar]</text>
<polygon fill="none" stroke="#000000" points="388,-1102.5 388,-1132.5 654,-1132.5 654,-1102.5 388,-1102.5"/>
<text text-anchor="start" x="395" y="-1113.9" font-family="Arial" font-size="14.00" fill="#000000">rentCarModel </text>
<text text-anchor="start" x="483.6718" y="-1113.9" font-family="Arial" font-size="14.00" fill="#666666">[varchar]</text>
<polygon fill="none" stroke="#000000" points="388,-1072.5 388,-1102.5 654,-1102.5 654,-1072.5 388,-1072.5"/>
<text text-anchor="start" x="395" y="-1083.9" font-family="Arial" font-size="14.00" fill="#000000">rentCarColor </text>
<text text-anchor="start" x="478.9958" y="-1083.9" font-family="Arial" font-size="14.00" fill="#666666">[varchar]</text>
<polygon fill="none" stroke="#000000" points="388,-1042.5 388,-1072.5 654,-1072.5 654,-1042.5 388,-1042.5"/>
<text text-anchor="start" x="395" y="-1053.9" font-family="Arial" font-size="14.00" fill="#000000">rentCarYear </text>
<text text-anchor="start" x="475.1192" y="-1053.9" font-family="Arial" font-size="14.00" fill="#666666">[integer]</text>
<polygon fill="none" stroke="#000000" points="388,-1012.5 388,-1042.5 654,-1042.5 654,-1012.5 388,-1012.5"/>
<text text-anchor="start" x="395" y="-1023.9" font-family="Arial" font-size="14.00" fill="#000000">rentCarNotes </text>
<text text-anchor="start" x="482.1192" y="-1023.9" font-family="Arial" font-size="14.00" fill="#666666">[varchar]</text>
<polygon fill="none" stroke="#000000" points="388,-982.5 388,-1012.5 654,-1012.5 654,-982.5 388,-982.5"/>
<text text-anchor="start" x="395" y="-993.9" font-family="Arial" font-size="14.00" fill="#000000">rentCarNumber </text>
<text text-anchor="start" x="495.3324" y="-993.9" font-family="Arial" font-size="14.00" fill="#666666">[integer]</text>
<polygon fill="none" stroke="#000000" points="388,-952.5 388,-982.5 654,-982.5 654,-952.5 388,-952.5"/>
<text text-anchor="start" x="395" y="-963.9" font-family="Arial" font-size="14.00" fill="#000000">createdAt </text>
<text text-anchor="start" x="458.7994" y="-963.9" font-family="Arial" font-size="14.00" fill="#666666">[timestamp without time zone]</text>
<polygon fill="none" stroke="#000000" points="388,-922.5 388,-952.5 654,-952.5 654,-922.5 388,-922.5"/>
<text text-anchor="start" x="394.5779" y="-933.9" font-family="Arial" font-size="14.00" fill="#000000">updatedAt </text>
<text text-anchor="start" x="462.2819" y="-933.9" font-family="Arial" font-size="14.00" fill="#666666">[timestamp without time zone]</text>
<polygon fill="none" stroke="#000000" stroke-width="3" points="386.5,-921.5 386.5,-1229.5 655.5,-1229.5 655.5,-921.5 386.5,-921.5"/>
</g>
<!-- public.stores -->
<g id="node2" class="node">
<title>public.stores</title>
<polygon fill="#efefef" stroke="transparent" points="372,-762.5 372,-797.5 669,-797.5 669,-762.5 372,-762.5"/>
<polygon fill="none" stroke="#000000" points="372,-762.5 372,-797.5 669,-797.5 669,-762.5 372,-762.5"/>
<text text-anchor="start" x="406.208" y="-775.3" font-family="Arial Bold" font-size="18.00" fill="#000000">public.stores</text>
<text text-anchor="start" x="507.224" y="-775.3" font-family="Arial" font-size="14.00" fill="#000000">    </text>
<text text-anchor="start" x="541.4288" y="-775.3" font-family="Arial" font-size="14.00" fill="#666666">[BASE TABLE]</text>
<polygon fill="none" stroke="#000000" points="372,-732.5 372,-762.5 669,-762.5 669,-732.5 372,-732.5"/>
<text text-anchor="start" x="379" y="-743.9" font-family="Arial" font-size="14.00" fill="#000000">storeID    </text>
<text text-anchor="start" x="458.3184" y="-743.9" font-family="Arial" font-size="14.00" fill="#666666">[integer]</text>
<polygon fill="none" stroke="#000000" points="372,-702.5 372,-732.5 669,-732.5 669,-702.5 372,-702.5"/>
<text text-anchor="start" x="379" y="-713.9" font-family="Arial" font-size="14.00" fill="#000000">storeOrgNumber    </text>
<text text-anchor="start" x="517.4306" y="-713.9" font-family="Arial" font-size="14.00" fill="#666666">[varchar(11)]</text>
<polygon fill="none" stroke="#000000" points="372,-672.5 372,-702.5 669,-702.5 669,-672.5 372,-672.5"/>
<text text-anchor="start" x="379" y="-683.9" font-family="Arial" font-size="14.00" fill="#000000">storeName    </text>
<text text-anchor="start" x="481.6536" y="-683.9" font-family="Arial" font-size="14.00" fill="#666666">[varchar(128)]</text>
<polygon fill="none" stroke="#000000" points="372,-642.5 372,-672.5 669,-672.5 669,-642.5 372,-642.5"/>
<text text-anchor="start" x="379" y="-653.9" font-family="Arial" font-size="14.00" fill="#000000">storeWebSite    </text>
<text text-anchor="start" x="497.2174" y="-653.9" font-family="Arial" font-size="14.00" fill="#666666">[varchar]</text>
<polygon fill="none" stroke="#000000" points="372,-612.5 372,-642.5 669,-642.5 669,-612.5 372,-612.5"/>
<text text-anchor="start" x="379" y="-623.9" font-family="Arial" font-size="14.00" fill="#000000">storeVatNumber    </text>
<text text-anchor="start" x="515.1066" y="-623.9" font-family="Arial" font-size="14.00" fill="#666666">[varchar(32)]</text>
<polygon fill="none" stroke="#000000" points="372,-582.5 372,-612.5 669,-612.5 669,-582.5 372,-582.5"/>
<text text-anchor="start" x="379" y="-593.9" font-family="Arial" font-size="14.00" fill="#000000">storeFSkatt    </text>
<text text-anchor="start" x="484.7742" y="-593.9" font-family="Arial" font-size="14.00" fill="#666666">[boolean]</text>
<polygon fill="none" stroke="#000000" points="372,-552.5 372,-582.5 669,-582.5 669,-552.5 372,-552.5"/>
<text text-anchor="start" x="379" y="-563.9" font-family="Arial" font-size="14.00" fill="#000000">storeStatus    </text>
<text text-anchor="start" x="484.0042" y="-563.9" font-family="Arial" font-size="14.00" fill="#666666">[boolean]</text>
<polygon fill="none" stroke="#000000" points="372,-522.5 372,-552.5 669,-552.5 669,-522.5 372,-522.5"/>
<text text-anchor="start" x="379" y="-533.9" font-family="Arial" font-size="14.00" fill="#000000">storeEmail    </text>
<text text-anchor="start" x="479.3142" y="-533.9" font-family="Arial" font-size="14.00" fill="#666666">[varchar]</text>
<polygon fill="none" stroke="#000000" points="372,-492.5 372,-522.5 669,-522.5 669,-492.5 372,-492.5"/>
<text text-anchor="start" x="379" y="-503.9" font-family="Arial" font-size="14.00" fill="#000000">storePhone    </text>
<text text-anchor="start" x="484.7882" y="-503.9" font-family="Arial" font-size="14.00" fill="#666666">[varchar]</text>
<polygon fill="none" stroke="#000000" points="372,-462.5 372,-492.5 669,-492.5 669,-462.5 372,-462.5"/>
<text text-anchor="start" x="379" y="-473.9" font-family="Arial" font-size="14.00" fill="#000000">storeAddress    </text>
<text text-anchor="start" x="495.6662" y="-473.9" font-family="Arial" font-size="14.00" fill="#666666">[varchar]</text>
<polygon fill="none" stroke="#000000" points="372,-432.5 372,-462.5 669,-462.5 669,-432.5 372,-432.5"/>
<text text-anchor="start" x="379" y="-443.9" font-family="Arial" font-size="14.00" fill="#000000">storeZipCode    </text>
<text text-anchor="start" x="497.2174" y="-443.9" font-family="Arial" font-size="14.00" fill="#666666">[varchar(16)]</text>
<polygon fill="none" stroke="#000000" points="372,-402.5 372,-432.5 669,-432.5 669,-402.5 372,-402.5"/>
<text text-anchor="start" x="379" y="-413.9" font-family="Arial" font-size="14.00" fill="#000000">storeCity    </text>
<text text-anchor="start" x="468.425" y="-413.9" font-family="Arial" font-size="14.00" fill="#666666">[varchar]</text>
<polygon fill="none" stroke="#000000" points="372,-372.5 372,-402.5 669,-402.5 669,-372.5 372,-372.5"/>
<text text-anchor="start" x="379" y="-383.9" font-family="Arial" font-size="14.00" fill="#000000">storeCountry    </text>
<text text-anchor="start" x="493.3268" y="-383.9" font-family="Arial" font-size="14.00" fill="#666666">[varchar]</text>
<polygon fill="none" stroke="#000000" points="372,-342.5 372,-372.5 669,-372.5 669,-342.5 372,-342.5"/>
<text text-anchor="start" x="379" y="-353.9" font-family="Arial" font-size="14.00" fill="#000000">storeDescription    </text>
<text text-anchor="start" x="514.3226" y="-353.9" font-family="Arial" font-size="14.00" fill="#666666">[varchar]</text>
<polygon fill="none" stroke="#000000" points="372,-312.5 372,-342.5 669,-342.5 669,-312.5 372,-312.5"/>
<text text-anchor="start" x="379" y="-323.9" font-family="Arial" font-size="14.00" fill="#000000">storeContactPerson    </text>
<text text-anchor="start" x="536.9018" y="-323.9" font-family="Arial" font-size="14.00" fill="#666666">[varchar(64)]</text>
<polygon fill="none" stroke="#000000" points="372,-282.5 372,-312.5 669,-312.5 669,-282.5 372,-282.5"/>
<text text-anchor="start" x="379" y="-293.9" font-family="Arial" font-size="14.00" fill="#000000">storeMaxUsers    </text>
<text text-anchor="start" x="507.3142" y="-293.9" font-family="Arial" font-size="14.00" fill="#666666">[integer]</text>
<polygon fill="none" stroke="#000000" points="372,-252.5 372,-282.5 669,-282.5 669,-252.5 372,-252.5"/>
<text text-anchor="start" x="379" y="-263.9" font-family="Arial" font-size="14.00" fill="#000000">currency    </text>
<text text-anchor="start" x="466.8738" y="-263.9" font-family="Arial" font-size="14.00" fill="#666666">[varchar]</text>
<polygon fill="none" stroke="#000000" points="372,-222.5 372,-252.5 669,-252.5 669,-222.5 372,-222.5"/>
<text text-anchor="start" x="379" y="-233.9" font-family="Arial" font-size="14.00" fill="#000000">storeAllowCarAPI    </text>
<text text-anchor="start" x="522.8738" y="-233.9" font-family="Arial" font-size="14.00" fill="#666666">[boolean]</text>
<polygon fill="none" stroke="#000000" points="372,-192.5 372,-222.5 669,-222.5 669,-192.5 372,-192.5"/>
<text text-anchor="start" x="379" y="-203.9" font-family="Arial" font-size="14.00" fill="#000000">storeAllowSendSMS    </text>
<text text-anchor="start" x="540.7784" y="-203.9" font-family="Arial" font-size="14.00" fill="#666666">[boolean]</text>
<polygon fill="none" stroke="#000000" points="372,-162.5 372,-192.5 669,-192.5 669,-162.5 372,-162.5"/>
<text text-anchor="start" x="379" y="-173.9" font-family="Arial" font-size="14.00" fill="#000000">storeSendSMS    </text>
<text text-anchor="start" x="507.3394" y="-173.9" font-family="Arial" font-size="14.00" fill="#666666">[boolean]</text>
<polygon fill="none" stroke="#000000" points="372,-132.5 372,-162.5 669,-162.5 669,-132.5 372,-132.5"/>
<text text-anchor="start" x="379" y="-143.9" font-family="Arial" font-size="14.00" fill="#000000">storeUsesCheckin    </text>
<text text-anchor="start" x="526.7714" y="-143.9" font-family="Arial" font-size="14.00" fill="#666666">[boolean]</text>
<polygon fill="none" stroke="#000000" points="372,-102.5 372,-132.5 669,-132.5 669,-102.5 372,-102.5"/>
<text text-anchor="start" x="379" y="-113.9" font-family="Arial" font-size="14.00" fill="#000000">storeUsesPIN    </text>
<text text-anchor="start" x="499.5442" y="-113.9" font-family="Arial" font-size="14.00" fill="#666666">[boolean]</text>
<polygon fill="none" stroke="#000000" points="372,-72.5 372,-102.5 669,-102.5 669,-72.5 372,-72.5"/>
<text text-anchor="start" x="379" y="-83.9" font-family="Arial" font-size="14.00" fill="#000000">createdAt    </text>
<text text-anchor="start" x="473.1136" y="-83.9" font-family="Arial" font-size="14.00" fill="#666666">[timestamp without time zone]</text>
<polygon fill="none" stroke="#000000" points="372,-42.5 372,-72.5 669,-72.5 669,-42.5 372,-42.5"/>
<text text-anchor="start" x="378.9208" y="-53.9" font-family="Arial" font-size="14.00" fill="#000000">updatedAt    </text>
<text text-anchor="start" x="476.939" y="-53.9" font-family="Arial" font-size="14.00" fill="#666666">[timestamp without time zone]</text>
</g>
<!-- public.rentCars&#45;&gt;public.stores -->
<g id="edge1" class="edge">
<title>public.rentCars:storeID&#45;&gt;public.stores:storeID</title>
<path fill="none" stroke="#000000" d="M377.8061,-1177.0879C256.8643,-1167.0099 302.0926,-974.6155 388,-877 471.1826,-782.4807 585.8174,-935.5193 669,-841 696.4538,-809.8046 710.5556,-747.5 669,-747.5"/>
<polygon fill="#000000" stroke="#000000" points="378.0082,-1177.0959 387.8182,-1181.9963 383.0041,-1177.298 388,-1177.5 388,-1177.5 388,-1177.5 383.0041,-1177.298 388.1818,-1173.0037 378.0082,-1177.0959 378.0082,-1177.0959"/>
<text text-anchor="start" x="6.623" y="-1187.5" font-family="Arial" font-size="10.00" fill="#000000">FOREIGN KEY (&quot;storeID&quot;) REFERENCES stores(&quot;storeID&quot;) ON DELETE CASCADE</text>
</g>
<!-- public.rentCarBookings -->
<g id="node3" class="node">
<title>public.rentCarBookings</title>
<polygon fill="#efefef" stroke="transparent" points="354,-1652.5 354,-1687.5 688,-1687.5 688,-1652.5 354,-1652.5"/>
<polygon fill="none" stroke="#000000" points="354,-1652.5 354,-1687.5 688,-1687.5 688,-1652.5 354,-1652.5"/>
<text text-anchor="start" x="364.2001" y="-1665.3" font-family="Arial Bold" font-size="18.00" fill="#000000">public.rentCarBookings</text>
<text text-anchor="start" x="550.2319" y="-1665.3" font-family="Arial" font-size="14.00" fill="#000000">    </text>
<text text-anchor="start" x="584.4367" y="-1665.3" font-family="Arial" font-size="14.00" fill="#666666">[BASE TABLE]</text>
<polygon fill="none" stroke="#000000" points="354,-1622.5 354,-1652.5 688,-1652.5 688,-1622.5 354,-1622.5"/>
<text text-anchor="start" x="361" y="-1633.9" font-family="Arial" font-size="14.00" fill="#000000">rentCarBookingID    </text>
<text text-anchor="start" x="506.4418" y="-1633.9" font-family="Arial" font-size="14.00" fill="#666666">[integer]</text>
<polygon fill="none" stroke="#000000" points="354,-1592.5 354,-1622.5 688,-1622.5 688,-1592.5 354,-1592.5"/>
<text text-anchor="start" x="361" y="-1603.9" font-family="Arial" font-size="14.00" fill="#000000">orderID    </text>
<text text-anchor="start" x="441.871" y="-1603.9" font-family="Arial" font-size="14.00" fill="#666666">[integer]</text>
<polygon fill="none" stroke="#000000" points="354,-1562.5 354,-1592.5 688,-1592.5 688,-1562.5 354,-1562.5"/>
<text text-anchor="start" x="361" y="-1573.9" font-family="Arial" font-size="14.00" fill="#000000">rentCarRegistrationNumber    </text>
<text text-anchor="start" x="566.3212" y="-1573.9" font-family="Arial" font-size="14.00" fill="#666666">[varchar]</text>
<polygon fill="none" stroke="#000000" points="354,-1532.5 354,-1562.5 688,-1562.5 688,-1532.5 354,-1532.5"/>
<text text-anchor="start" x="361" y="-1543.9" font-family="Arial" font-size="14.00" fill="#000000">bookingStart    </text>
<text text-anchor="start" x="473.7854" y="-1543.9" font-family="Arial" font-size="14.00" fill="#666666">[date]</text>
<polygon fill="none" stroke="#000000" points="354,-1502.5 354,-1532.5 688,-1532.5 688,-1502.5 354,-1502.5"/>
<text text-anchor="start" x="361" y="-1513.9" font-family="Arial" font-size="14.00" fill="#000000">bookingEnd    </text>
<text text-anchor="start" x="469.1262" y="-1513.9" font-family="Arial" font-size="14.00" fill="#666666">[date]</text>
<polygon fill="none" stroke="#000000" points="354,-1472.5 354,-1502.5 688,-1502.5 688,-1472.5 354,-1472.5"/>
<text text-anchor="start" x="361" y="-1483.9" font-family="Arial" font-size="14.00" fill="#000000">employeeID    </text>
<text text-anchor="start" x="469.8822" y="-1483.9" font-family="Arial" font-size="14.00" fill="#666666">[integer]</text>
<polygon fill="none" stroke="#000000" points="354,-1442.5 354,-1472.5 688,-1472.5 688,-1442.5 354,-1442.5"/>
<text text-anchor="start" x="361" y="-1453.9" font-family="Arial" font-size="14.00" fill="#000000">bookingStatus    </text>
<text text-anchor="start" x="483.9074" y="-1453.9" font-family="Arial" font-size="14.00" fill="#666666">[&quot;orderStatus&quot;]</text>
<polygon fill="none" stroke="#000000" points="354,-1412.5 354,-1442.5 688,-1442.5 688,-1412.5 354,-1412.5"/>
<text text-anchor="start" x="360.7742" y="-1423.9" font-family="Arial" font-size="14.00" fill="#000000">submissionTime    </text>
<text text-anchor="start" x="496.0856" y="-1423.9" font-family="Arial" font-size="14.00" fill="#666666">[timestamp without time zone]</text>
<polygon fill="none" stroke="#000000" points="354,-1382.5 354,-1412.5 688,-1412.5 688,-1382.5 354,-1382.5"/>
<text text-anchor="start" x="361" y="-1393.9" font-family="Arial" font-size="14.00" fill="#000000">createdAt    </text>
<text text-anchor="start" x="455.1136" y="-1393.9" font-family="Arial" font-size="14.00" fill="#666666">[timestamp without time zone]</text>
<polygon fill="none" stroke="#000000" points="354,-1352.5 354,-1382.5 688,-1382.5 688,-1352.5 354,-1352.5"/>
<text text-anchor="start" x="361" y="-1363.9" font-family="Arial" font-size="14.00" fill="#000000">updatedAt    </text>
<text text-anchor="start" x="459.0182" y="-1363.9" font-family="Arial" font-size="14.00" fill="#666666">[timestamp without time zone]</text>
</g>
<!-- public.rentCarBookings&#45;&gt;public.rentCars -->
<g id="edge2" class="edge">
<title>public.rentCarBookings:rentCarRegistrationNumber&#45;&gt;public.rentCars:rentCarRegistrationNumber</title>
<path fill="none" stroke="#000000" d="M697.885,-1575.8564C781.316,-1546.9872 746.3903,-1147.5 654,-1147.5"/>
<polygon fill="#000000" stroke="#000000" points="697.8646,-1575.8597 687.2619,-1573.0609 692.9323,-1576.6798 688,-1577.5 688,-1577.5 688,-1577.5 692.9323,-1576.6798 688.7381,-1581.9391 697.8646,-1575.8597 697.8646,-1575.8597"/>
<text text-anchor="start" x="694.5185" y="-1587.5" font-family="Arial" font-size="10.00" fill="#000000">FOREIGN KEY (&quot;rentCarRegistrationNumber&quot;) REFERENCES &quot;rentCars&quot;(&quot;rentCarRegistrationNumber&quot;) ON DELETE CASCADE</text>
</g>
</g>
</svg>
