<?xml version="1.0" encoding="UTF-8" standalone="no"?>
<!DOCTYPE svg PUBLIC "-//W3C//DTD SVG 1.1//EN"
 "http://www.w3.org/Graphics/SVG/1.1/DTD/svg11.dtd">
<!-- Generated by graphviz version 2.40.1 (20161225.0304)
 -->
<!-- Title: public.userBelongsToStore Pages: 1 -->
<svg width="1133pt" height="1072pt"
 viewBox="0.00 0.00 1133.00 1072.00" xmlns="http://www.w3.org/2000/svg" xmlns:xlink="http://www.w3.org/1999/xlink">
<g id="graph0" class="graph" transform="scale(1 1) rotate(0) translate(4 1068)">
<title>public.userBelongsToStore</title>
<polygon fill="#ffffff" stroke="transparent" points="-4,4 -4,-1068 1129,-1068 1129,4 -4,4"/>
<!-- public.userBelongsToStore -->
<g id="node1" class="node">
<title>public.userBelongsToStore</title>
<polygon fill="#efefef" stroke="transparent" points="380,-982.5 380,-1017.5 737,-1017.5 737,-982.5 380,-982.5"/>
<polygon fill="none" stroke="#000000" points="380,-982.5 380,-1017.5 737,-1017.5 737,-982.5 380,-982.5"/>
<text text-anchor="start" x="386.6908" y="-995.3" font-family="Arial Bold" font-size="18.00" fill="#000000">public.userBelongsToStore</text>
<text text-anchor="start" x="602.7412" y="-995.3" font-family="Arial" font-size="14.00" fill="#000000">    </text>
<text text-anchor="start" x="636.946" y="-995.3" font-family="Arial" font-size="14.00" fill="#666666">[BASE TABLE]</text>
<polygon fill="none" stroke="#000000" points="380,-952.5 380,-982.5 737,-982.5 737,-952.5 380,-952.5"/>
<text text-anchor="start" x="387" y="-963.9" font-family="Arial" font-size="14.00" fill="#000000">userID </text>
<text text-anchor="start" x="432.1136" y="-963.9" font-family="Arial" font-size="14.00" fill="#666666">[integer]</text>
<polygon fill="none" stroke="#000000" points="380,-922.5 380,-952.5 737,-952.5 737,-922.5 380,-922.5"/>
<text text-anchor="start" x="387" y="-933.9" font-family="Arial" font-size="14.00" fill="#000000">storeID </text>
<text text-anchor="start" x="436.0042" y="-933.9" font-family="Arial" font-size="14.00" fill="#666666">[integer]</text>
<polygon fill="none" stroke="#000000" stroke-width="3" points="378,-921.5 378,-1019.5 738,-1019.5 738,-921.5 378,-921.5"/>
</g>
<!-- public.users -->
<g id="node2" class="node">
<title>public.users</title>
<polygon fill="#efefef" stroke="transparent" points="210,-537.5 210,-572.5 507,-572.5 507,-537.5 210,-537.5"/>
<polygon fill="none" stroke="#000000" points="210,-537.5 210,-572.5 507,-572.5 507,-537.5 210,-537.5"/>
<text text-anchor="start" x="246.7091" y="-550.3" font-family="Arial Bold" font-size="18.00" fill="#000000">public.users</text>
<text text-anchor="start" x="342.7229" y="-550.3" font-family="Arial" font-size="14.00" fill="#000000">    </text>
<text text-anchor="start" x="376.9277" y="-550.3" font-family="Arial" font-size="14.00" fill="#666666">[BASE TABLE]</text>
<polygon fill="none" stroke="#000000" points="210,-507.5 210,-537.5 507,-537.5 507,-507.5 210,-507.5"/>
<text text-anchor="start" x="217" y="-518.9" font-family="Arial" font-size="14.00" fill="#000000">userID    </text>
<text text-anchor="start" x="292.4278" y="-518.9" font-family="Arial" font-size="14.00" fill="#666666">[integer]</text>
<polygon fill="none" stroke="#000000" points="210,-477.5 210,-507.5 507,-507.5 507,-477.5 210,-477.5"/>
<text text-anchor="start" x="217" y="-488.9" font-family="Arial" font-size="14.00" fill="#000000">firstName    </text>
<text text-anchor="start" x="311.0856" y="-488.9" font-family="Arial" font-size="14.00" fill="#666666">[varchar(128)]</text>
<polygon fill="none" stroke="#000000" points="210,-447.5 210,-477.5 507,-477.5 507,-447.5 210,-447.5"/>
<text text-anchor="start" x="217" y="-458.9" font-family="Arial" font-size="14.00" fill="#000000">lastName    </text>
<text text-anchor="start" x="310.317" y="-458.9" font-family="Arial" font-size="14.00" fill="#666666">[varchar(128)]</text>
<polygon fill="none" stroke="#000000" points="210,-417.5 210,-447.5 507,-447.5 507,-417.5 210,-417.5"/>
<text text-anchor="start" x="217" y="-428.9" font-family="Arial" font-size="14.00" fill="#000000">email    </text>
<text text-anchor="start" x="284.6438" y="-428.9" font-family="Arial" font-size="14.00" fill="#666666">[varchar]</text>
<polygon fill="none" stroke="#000000" points="210,-387.5 210,-417.5 507,-417.5 507,-387.5 210,-387.5"/>
<text text-anchor="start" x="217" y="-398.9" font-family="Arial" font-size="14.00" fill="#000000">password    </text>
<text text-anchor="start" x="311.1024" y="-398.9" font-family="Arial" font-size="14.00" fill="#666666">[text]</text>
<polygon fill="none" stroke="#000000" points="210,-357.5 210,-387.5 507,-387.5 507,-357.5 210,-357.5"/>
<text text-anchor="start" x="217" y="-368.9" font-family="Arial" font-size="14.00" fill="#000000">isSuperAdmin    </text>
<text text-anchor="start" x="338.3254" y="-368.9" font-family="Arial" font-size="14.00" fill="#666666">[boolean]</text>
<polygon fill="none" stroke="#000000" points="210,-327.5 210,-357.5 507,-357.5 507,-327.5 210,-327.5"/>
<text text-anchor="start" x="217" y="-338.9" font-family="Arial" font-size="14.00" fill="#000000">roleID    </text>
<text text-anchor="start" x="288.5344" y="-338.9" font-family="Arial" font-size="14.00" fill="#666666">[integer]</text>
<polygon fill="none" stroke="#000000" points="210,-297.5 210,-327.5 507,-327.5 507,-297.5 210,-297.5"/>
<text text-anchor="start" x="217" y="-308.9" font-family="Arial" font-size="14.00" fill="#000000">createdAt    </text>
<text text-anchor="start" x="311.1136" y="-308.9" font-family="Arial" font-size="14.00" fill="#666666">[timestamp without time zone]</text>
<polygon fill="none" stroke="#000000" points="210,-267.5 210,-297.5 507,-297.5 507,-267.5 210,-267.5"/>
<text text-anchor="start" x="216.9208" y="-278.9" font-family="Arial" font-size="14.00" fill="#000000">updatedAt    </text>
<text text-anchor="start" x="314.939" y="-278.9" font-family="Arial" font-size="14.00" fill="#666666">[timestamp without time zone]</text>
</g>
<!-- public.userBelongsToStore&#45;&gt;public.users -->
<g id="edge1" class="edge">
<title>public.userBelongsToStore:userID&#45;&gt;public.users:userID</title>
<path fill="none" stroke="#000000" d="M369.8355,-967.0923C193.0219,-951.993 709.0592,-522.5 507,-522.5"/>
<polygon fill="#000000" stroke="#000000" points="370.008,-967.0992 379.8196,-971.9964 375.004,-967.2996 380,-967.5 380,-967.5 380,-967.5 375.004,-967.2996 380.1804,-963.0036 370.008,-967.0992 370.008,-967.0992"/>
<text text-anchor="start" x="6.7915" y="-977.5" font-family="Arial" font-size="10.00" fill="#000000">FOREIGN KEY (&quot;userID&quot;) REFERENCES users(&quot;userID&quot;) ON DELETE CASCADE</text>
</g>
<!-- public.stores -->
<g id="node3" class="node">
<title>public.stores</title>
<polygon fill="#efefef" stroke="transparent" points="611,-762.5 611,-797.5 908,-797.5 908,-762.5 611,-762.5"/>
<polygon fill="none" stroke="#000000" points="611,-762.5 611,-797.5 908,-797.5 908,-762.5 611,-762.5"/>
<text text-anchor="start" x="645.208" y="-775.3" font-family="Arial Bold" font-size="18.00" fill="#000000">public.stores</text>
<text text-anchor="start" x="746.224" y="-775.3" font-family="Arial" font-size="14.00" fill="#000000">    </text>
<text text-anchor="start" x="780.4288" y="-775.3" font-family="Arial" font-size="14.00" fill="#666666">[BASE TABLE]</text>
<polygon fill="none" stroke="#000000" points="611,-732.5 611,-762.5 908,-762.5 908,-732.5 611,-732.5"/>
<text text-anchor="start" x="618" y="-743.9" font-family="Arial" font-size="14.00" fill="#000000">storeID    </text>
<text text-anchor="start" x="697.3184" y="-743.9" font-family="Arial" font-size="14.00" fill="#666666">[integer]</text>
<polygon fill="none" stroke="#000000" points="611,-702.5 611,-732.5 908,-732.5 908,-702.5 611,-702.5"/>
<text text-anchor="start" x="618" y="-713.9" font-family="Arial" font-size="14.00" fill="#000000">storeOrgNumber    </text>
<text text-anchor="start" x="756.4306" y="-713.9" font-family="Arial" font-size="14.00" fill="#666666">[varchar(11)]</text>
<polygon fill="none" stroke="#000000" points="611,-672.5 611,-702.5 908,-702.5 908,-672.5 611,-672.5"/>
<text text-anchor="start" x="618" y="-683.9" font-family="Arial" font-size="14.00" fill="#000000">storeName    </text>
<text text-anchor="start" x="720.6536" y="-683.9" font-family="Arial" font-size="14.00" fill="#666666">[varchar(128)]</text>
<polygon fill="none" stroke="#000000" points="611,-642.5 611,-672.5 908,-672.5 908,-642.5 611,-642.5"/>
<text text-anchor="start" x="618" y="-653.9" font-family="Arial" font-size="14.00" fill="#000000">storeWebSite    </text>
<text text-anchor="start" x="736.2174" y="-653.9" font-family="Arial" font-size="14.00" fill="#666666">[varchar]</text>
<polygon fill="none" stroke="#000000" points="611,-612.5 611,-642.5 908,-642.5 908,-612.5 611,-612.5"/>
<text text-anchor="start" x="618" y="-623.9" font-family="Arial" font-size="14.00" fill="#000000">storeVatNumber    </text>
<text text-anchor="start" x="754.1066" y="-623.9" font-family="Arial" font-size="14.00" fill="#666666">[varchar(32)]</text>
<polygon fill="none" stroke="#000000" points="611,-582.5 611,-612.5 908,-612.5 908,-582.5 611,-582.5"/>
<text text-anchor="start" x="618" y="-593.9" font-family="Arial" font-size="14.00" fill="#000000">storeFSkatt    </text>
<text text-anchor="start" x="723.7742" y="-593.9" font-family="Arial" font-size="14.00" fill="#666666">[boolean]</text>
<polygon fill="none" stroke="#000000" points="611,-552.5 611,-582.5 908,-582.5 908,-552.5 611,-552.5"/>
<text text-anchor="start" x="618" y="-563.9" font-family="Arial" font-size="14.00" fill="#000000">storeStatus    </text>
<text text-anchor="start" x="723.0042" y="-563.9" font-family="Arial" font-size="14.00" fill="#666666">[boolean]</text>
<polygon fill="none" stroke="#000000" points="611,-522.5 611,-552.5 908,-552.5 908,-522.5 611,-522.5"/>
<text text-anchor="start" x="618" y="-533.9" font-family="Arial" font-size="14.00" fill="#000000">storeEmail    </text>
<text text-anchor="start" x="718.3142" y="-533.9" font-family="Arial" font-size="14.00" fill="#666666">[varchar]</text>
<polygon fill="none" stroke="#000000" points="611,-492.5 611,-522.5 908,-522.5 908,-492.5 611,-492.5"/>
<text text-anchor="start" x="618" y="-503.9" font-family="Arial" font-size="14.00" fill="#000000">storePhone    </text>
<text text-anchor="start" x="723.7882" y="-503.9" font-family="Arial" font-size="14.00" fill="#666666">[varchar]</text>
<polygon fill="none" stroke="#000000" points="611,-462.5 611,-492.5 908,-492.5 908,-462.5 611,-462.5"/>
<text text-anchor="start" x="618" y="-473.9" font-family="Arial" font-size="14.00" fill="#000000">storeAddress    </text>
<text text-anchor="start" x="734.6662" y="-473.9" font-family="Arial" font-size="14.00" fill="#666666">[varchar]</text>
<polygon fill="none" stroke="#000000" points="611,-432.5 611,-462.5 908,-462.5 908,-432.5 611,-432.5"/>
<text text-anchor="start" x="618" y="-443.9" font-family="Arial" font-size="14.00" fill="#000000">storeZipCode    </text>
<text text-anchor="start" x="736.2174" y="-443.9" font-family="Arial" font-size="14.00" fill="#666666">[varchar(16)]</text>
<polygon fill="none" stroke="#000000" points="611,-402.5 611,-432.5 908,-432.5 908,-402.5 611,-402.5"/>
<text text-anchor="start" x="618" y="-413.9" font-family="Arial" font-size="14.00" fill="#000000">storeCity    </text>
<text text-anchor="start" x="707.425" y="-413.9" font-family="Arial" font-size="14.00" fill="#666666">[varchar]</text>
<polygon fill="none" stroke="#000000" points="611,-372.5 611,-402.5 908,-402.5 908,-372.5 611,-372.5"/>
<text text-anchor="start" x="618" y="-383.9" font-family="Arial" font-size="14.00" fill="#000000">storeCountry    </text>
<text text-anchor="start" x="732.3268" y="-383.9" font-family="Arial" font-size="14.00" fill="#666666">[varchar]</text>
<polygon fill="none" stroke="#000000" points="611,-342.5 611,-372.5 908,-372.5 908,-342.5 611,-342.5"/>
<text text-anchor="start" x="618" y="-353.9" font-family="Arial" font-size="14.00" fill="#000000">storeDescription    </text>
<text text-anchor="start" x="753.3226" y="-353.9" font-family="Arial" font-size="14.00" fill="#666666">[varchar]</text>
<polygon fill="none" stroke="#000000" points="611,-312.5 611,-342.5 908,-342.5 908,-312.5 611,-312.5"/>
<text text-anchor="start" x="618" y="-323.9" font-family="Arial" font-size="14.00" fill="#000000">storeContactPerson    </text>
<text text-anchor="start" x="775.9018" y="-323.9" font-family="Arial" font-size="14.00" fill="#666666">[varchar(64)]</text>
<polygon fill="none" stroke="#000000" points="611,-282.5 611,-312.5 908,-312.5 908,-282.5 611,-282.5"/>
<text text-anchor="start" x="618" y="-293.9" font-family="Arial" font-size="14.00" fill="#000000">storeMaxUsers    </text>
<text text-anchor="start" x="746.3142" y="-293.9" font-family="Arial" font-size="14.00" fill="#666666">[integer]</text>
<polygon fill="none" stroke="#000000" points="611,-252.5 611,-282.5 908,-282.5 908,-252.5 611,-252.5"/>
<text text-anchor="start" x="618" y="-263.9" font-family="Arial" font-size="14.00" fill="#000000">currency    </text>
<text text-anchor="start" x="705.8738" y="-263.9" font-family="Arial" font-size="14.00" fill="#666666">[varchar]</text>
<polygon fill="none" stroke="#000000" points="611,-222.5 611,-252.5 908,-252.5 908,-222.5 611,-222.5"/>
<text text-anchor="start" x="618" y="-233.9" font-family="Arial" font-size="14.00" fill="#000000">storeAllowCarAPI    </text>
<text text-anchor="start" x="761.8738" y="-233.9" font-family="Arial" font-size="14.00" fill="#666666">[boolean]</text>
<polygon fill="none" stroke="#000000" points="611,-192.5 611,-222.5 908,-222.5 908,-192.5 611,-192.5"/>
<text text-anchor="start" x="618" y="-203.9" font-family="Arial" font-size="14.00" fill="#000000">storeAllowSendSMS    </text>
<text text-anchor="start" x="779.7784" y="-203.9" font-family="Arial" font-size="14.00" fill="#666666">[boolean]</text>
<polygon fill="none" stroke="#000000" points="611,-162.5 611,-192.5 908,-192.5 908,-162.5 611,-162.5"/>
<text text-anchor="start" x="618" y="-173.9" font-family="Arial" font-size="14.00" fill="#000000">storeSendSMS    </text>
<text text-anchor="start" x="746.3394" y="-173.9" font-family="Arial" font-size="14.00" fill="#666666">[boolean]</text>
<polygon fill="none" stroke="#000000" points="611,-132.5 611,-162.5 908,-162.5 908,-132.5 611,-132.5"/>
<text text-anchor="start" x="618" y="-143.9" font-family="Arial" font-size="14.00" fill="#000000">storeUsesCheckin    </text>
<text text-anchor="start" x="765.7714" y="-143.9" font-family="Arial" font-size="14.00" fill="#666666">[boolean]</text>
<polygon fill="none" stroke="#000000" points="611,-102.5 611,-132.5 908,-132.5 908,-102.5 611,-102.5"/>
<text text-anchor="start" x="618" y="-113.9" font-family="Arial" font-size="14.00" fill="#000000">storeUsesPIN    </text>
<text text-anchor="start" x="738.5442" y="-113.9" font-family="Arial" font-size="14.00" fill="#666666">[boolean]</text>
<polygon fill="none" stroke="#000000" points="611,-72.5 611,-102.5 908,-102.5 908,-72.5 611,-72.5"/>
<text text-anchor="start" x="618" y="-83.9" font-family="Arial" font-size="14.00" fill="#000000">createdAt    </text>
<text text-anchor="start" x="712.1136" y="-83.9" font-family="Arial" font-size="14.00" fill="#666666">[timestamp without time zone]</text>
<polygon fill="none" stroke="#000000" points="611,-42.5 611,-72.5 908,-72.5 908,-42.5 611,-42.5"/>
<text text-anchor="start" x="617.9208" y="-53.9" font-family="Arial" font-size="14.00" fill="#000000">updatedAt    </text>
<text text-anchor="start" x="715.939" y="-53.9" font-family="Arial" font-size="14.00" fill="#666666">[timestamp without time zone]</text>
</g>
<!-- public.userBelongsToStore&#45;&gt;public.stores -->
<g id="edge2" class="edge">
<title>public.userBelongsToStore:storeID&#45;&gt;public.stores:storeID</title>
<path fill="none" stroke="#000000" d="M746.9737,-934.857C760.4121,-925.731 750.6623,-895.1125 737,-877 701.9276,-830.5035 646.0724,-887.4965 611,-841 585.9754,-807.8242 569.4444,-747.5 611,-747.5"/>
<polygon fill="#000000" stroke="#000000" points="746.6664,-934.9384 735.8473,-933.1501 741.8332,-936.2192 737,-937.5 737,-937.5 737,-937.5 741.8332,-936.2192 738.1527,-941.8499 746.6664,-934.9384 746.6664,-934.9384"/>
<text text-anchor="start" x="743.623" y="-947.5" font-family="Arial" font-size="10.00" fill="#000000">FOREIGN KEY (&quot;storeID&quot;) REFERENCES stores(&quot;storeID&quot;) ON DELETE CASCADE</text>
</g>
</g>
</svg>
