<?xml version="1.0" encoding="UTF-8" standalone="no"?>
<!DOCTYPE svg PUBLIC "-//W3C//DTD SVG 1.1//EN"
 "http://www.w3.org/Graphics/SVG/1.1/DTD/svg11.dtd">
<!-- Generated by graphviz version 2.40.1 (20161225.0304)
 -->
<!-- Title: public.orderProducts Pages: 1 -->
<svg width="1128pt" height="922pt"
 viewBox="0.00 0.00 1128.00 922.00" xmlns="http://www.w3.org/2000/svg" xmlns:xlink="http://www.w3.org/1999/xlink">
<g id="graph0" class="graph" transform="scale(1 1) rotate(0) translate(4 918)">
<title>public.orderProducts</title>
<polygon fill="#ffffff" stroke="transparent" points="-4,4 -4,-918 1124,-918 1124,4 -4,4"/>
<!-- public.orderProducts -->
<g id="node1" class="node">
<title>public.orderProducts</title>
<polygon fill="#efefef" stroke="transparent" points="392,-832.5 392,-867.5 698,-867.5 698,-832.5 392,-832.5"/>
<polygon fill="none" stroke="#000000" points="392,-832.5 392,-867.5 698,-867.5 698,-832.5 392,-832.5"/>
<text text-anchor="start" x="398.7013" y="-845.3" font-family="Arial Bold" font-size="18.00" fill="#000000">public.orderProducts</text>
<text text-anchor="start" x="563.7307" y="-845.3" font-family="Arial" font-size="14.00" fill="#000000">    </text>
<text text-anchor="start" x="597.9355" y="-845.3" font-family="Arial" font-size="14.00" fill="#666666">[BASE TABLE]</text>
<polygon fill="none" stroke="#000000" points="392,-802.5 392,-832.5 698,-832.5 698,-802.5 392,-802.5"/>
<text text-anchor="start" x="399" y="-813.9" font-family="Arial" font-size="14.00" fill="#000000">orderID </text>
<text text-anchor="start" x="449.5568" y="-813.9" font-family="Arial" font-size="14.00" fill="#666666">[integer]</text>
<polygon fill="none" stroke="#000000" points="392,-772.5 392,-802.5 698,-802.5 698,-772.5 392,-772.5"/>
<text text-anchor="start" x="399" y="-783.9" font-family="Arial" font-size="14.00" fill="#000000">productID </text>
<text text-anchor="start" x="463.5694" y="-783.9" font-family="Arial" font-size="14.00" fill="#666666">[integer]</text>
<polygon fill="none" stroke="#000000" points="392,-742.5 392,-772.5 698,-772.5 698,-742.5 392,-742.5"/>
<text text-anchor="start" x="399" y="-753.9" font-family="Arial" font-size="14.00" fill="#000000">productDescription </text>
<text text-anchor="start" x="519.5736" y="-753.9" font-family="Arial" font-size="14.00" fill="#666666">[varchar(256)]</text>
<polygon fill="none" stroke="#000000" points="392,-712.5 392,-742.5 698,-742.5 698,-712.5 392,-712.5"/>
<text text-anchor="start" x="399" y="-723.9" font-family="Arial" font-size="14.00" fill="#000000">amount </text>
<text text-anchor="start" x="449.5722" y="-723.9" font-family="Arial" font-size="14.00" fill="#666666">[integer]</text>
<polygon fill="none" stroke="#000000" points="392,-682.5 392,-712.5 698,-712.5 698,-682.5 392,-682.5"/>
<text text-anchor="start" x="399" y="-693.9" font-family="Arial" font-size="14.00" fill="#000000">cost </text>
<text text-anchor="start" x="428.5638" y="-693.9" font-family="Arial" font-size="14.00" fill="#666666">[real]</text>
<polygon fill="none" stroke="#000000" points="392,-652.5 392,-682.5 698,-682.5 698,-652.5 392,-652.5"/>
<text text-anchor="start" x="399" y="-663.9" font-family="Arial" font-size="14.00" fill="#000000">currency </text>
<text text-anchor="start" x="456.5596" y="-663.9" font-family="Arial" font-size="14.00" fill="#666666">[varchar]</text>
<polygon fill="none" stroke="#000000" points="392,-622.5 392,-652.5 698,-652.5 698,-622.5 392,-622.5"/>
<text text-anchor="start" x="399" y="-633.9" font-family="Arial" font-size="14.00" fill="#000000">orderProductNotes </text>
<text text-anchor="start" x="520.3576" y="-633.9" font-family="Arial" font-size="14.00" fill="#666666">[varchar]</text>
<polygon fill="none" stroke="#000000" stroke-width="3" points="390.5,-621.5 390.5,-869.5 699.5,-869.5 699.5,-621.5 390.5,-621.5"/>
</g>
<!-- public.orders -->
<g id="node2" class="node">
<title>public.orders</title>
<polygon fill="#efefef" stroke="transparent" points="168,-462.5 168,-497.5 502,-497.5 502,-462.5 168,-462.5"/>
<polygon fill="none" stroke="#000000" points="168,-462.5 168,-497.5 502,-497.5 502,-462.5 168,-462.5"/>
<text text-anchor="start" x="219.7099" y="-475.3" font-family="Arial Bold" font-size="18.00" fill="#000000">public.orders</text>
<text text-anchor="start" x="322.7221" y="-475.3" font-family="Arial" font-size="14.00" fill="#000000">    </text>
<text text-anchor="start" x="356.9269" y="-475.3" font-family="Arial" font-size="14.00" fill="#666666">[BASE TABLE]</text>
<polygon fill="none" stroke="#000000" points="168,-432.5 168,-462.5 502,-462.5 502,-432.5 168,-432.5"/>
<text text-anchor="start" x="175" y="-443.9" font-family="Arial" font-size="14.00" fill="#000000">orderID    </text>
<text text-anchor="start" x="255.871" y="-443.9" font-family="Arial" font-size="14.00" fill="#666666">[integer]</text>
<polygon fill="none" stroke="#000000" points="168,-402.5 168,-432.5 502,-432.5 502,-402.5 168,-402.5"/>
<text text-anchor="start" x="175" y="-413.9" font-family="Arial" font-size="14.00" fill="#000000">driverCarID    </text>
<text text-anchor="start" x="280.7448" y="-413.9" font-family="Arial" font-size="14.00" fill="#666666">[integer]</text>
<polygon fill="none" stroke="#000000" points="168,-372.5 168,-402.5 502,-402.5 502,-372.5 168,-372.5"/>
<text text-anchor="start" x="175" y="-383.9" font-family="Arial" font-size="14.00" fill="#000000">driverID    </text>
<text text-anchor="start" x="258.195" y="-383.9" font-family="Arial" font-size="14.00" fill="#666666">[integer]</text>
<polygon fill="none" stroke="#000000" points="168,-342.5 168,-372.5 502,-372.5 502,-342.5 168,-342.5"/>
<text text-anchor="start" x="175" y="-353.9" font-family="Arial" font-size="14.00" fill="#000000">storeID    </text>
<text text-anchor="start" x="254.3184" y="-353.9" font-family="Arial" font-size="14.00" fill="#666666">[integer]</text>
<polygon fill="none" stroke="#000000" points="168,-312.5 168,-342.5 502,-342.5 502,-312.5 168,-312.5"/>
<text text-anchor="start" x="175" y="-323.9" font-family="Arial" font-size="14.00" fill="#000000">orderNotes    </text>
<text text-anchor="start" x="278.4362" y="-323.9" font-family="Arial" font-size="14.00" fill="#666666">[varchar]</text>
<polygon fill="none" stroke="#000000" points="168,-282.5 168,-312.5 502,-312.5 502,-282.5 168,-282.5"/>
<text text-anchor="start" x="175" y="-293.9" font-family="Arial" font-size="14.00" fill="#000000">employeeID    </text>
<text text-anchor="start" x="283.8822" y="-293.9" font-family="Arial" font-size="14.00" fill="#666666">[integer]</text>
<polygon fill="none" stroke="#000000" points="168,-252.5 168,-282.5 502,-282.5 502,-252.5 168,-252.5"/>
<text text-anchor="start" x="174.7742" y="-263.9" font-family="Arial" font-size="14.00" fill="#000000">submissionTime    </text>
<text text-anchor="start" x="310.0856" y="-263.9" font-family="Arial" font-size="14.00" fill="#666666">[timestamp without time zone]</text>
<polygon fill="none" stroke="#000000" points="168,-222.5 168,-252.5 502,-252.5 502,-222.5 168,-222.5"/>
<text text-anchor="start" x="175" y="-233.9" font-family="Arial" font-size="14.00" fill="#000000">pickupTime    </text>
<text text-anchor="start" x="280.7616" y="-233.9" font-family="Arial" font-size="14.00" fill="#666666">[timestamp without time zone]</text>
<polygon fill="none" stroke="#000000" points="168,-192.5 168,-222.5 502,-222.5 502,-192.5 168,-192.5"/>
<text text-anchor="start" x="175" y="-203.9" font-family="Arial" font-size="14.00" fill="#000000">vatFree    </text>
<text text-anchor="start" x="256.6564" y="-203.9" font-family="Arial" font-size="14.00" fill="#666666">[boolean]</text>
<polygon fill="none" stroke="#000000" points="168,-162.5 168,-192.5 502,-192.5 502,-162.5 168,-162.5"/>
<text text-anchor="start" x="175" y="-173.9" font-family="Arial" font-size="14.00" fill="#000000">orderStatus    </text>
<text text-anchor="start" x="281.5568" y="-173.9" font-family="Arial" font-size="14.00" fill="#666666">[&quot;orderStatus&quot;]</text>
<polygon fill="none" stroke="#000000" points="168,-132.5 168,-162.5 502,-162.5 502,-132.5 168,-132.5"/>
<text text-anchor="start" x="175" y="-143.9" font-family="Arial" font-size="14.00" fill="#000000">currency    </text>
<text text-anchor="start" x="262.8738" y="-143.9" font-family="Arial" font-size="14.00" fill="#666666">[varchar]</text>
<polygon fill="none" stroke="#000000" points="168,-102.5 168,-132.5 502,-132.5 502,-102.5 168,-102.5"/>
<text text-anchor="start" x="175" y="-113.9" font-family="Arial" font-size="14.00" fill="#000000">discount    </text>
<text text-anchor="start" x="261.3324" y="-113.9" font-family="Arial" font-size="14.00" fill="#666666">[real]</text>
<polygon fill="none" stroke="#000000" points="168,-72.5 168,-102.5 502,-102.5 502,-72.5 168,-72.5"/>
<text text-anchor="start" x="175" y="-83.9" font-family="Arial" font-size="14.00" fill="#000000">createdAt    </text>
<text text-anchor="start" x="269.1136" y="-83.9" font-family="Arial" font-size="14.00" fill="#666666">[timestamp without time zone]</text>
<polygon fill="none" stroke="#000000" points="168,-42.5 168,-72.5 502,-72.5 502,-42.5 168,-42.5"/>
<text text-anchor="start" x="175" y="-53.9" font-family="Arial" font-size="14.00" fill="#000000">updatedAt    </text>
<text text-anchor="start" x="273.0182" y="-53.9" font-family="Arial" font-size="14.00" fill="#666666">[timestamp without time zone]</text>
</g>
<!-- public.orderProducts&#45;&gt;public.orders -->
<g id="edge1" class="edge">
<title>public.orderProducts:orderID&#45;&gt;public.orders:orderID</title>
<path fill="none" stroke="#000000" d="M381.8476,-816.9989C288.0636,-807.3505 331.3473,-660.6682 392,-577 422.1917,-535.3516 471.8083,-582.6484 502,-541 526.39,-507.3549 543.5556,-447.5 502,-447.5"/>
<polygon fill="#000000" stroke="#000000" points="382.0122,-817.0069 391.7781,-821.9945 387.0061,-817.2535 392,-817.5 392,-817.5 392,-817.5 387.0061,-817.2535 392.2219,-813.0055 382.0122,-817.0069 382.0122,-817.0069"/>
<text text-anchor="start" x="6.9595" y="-827.5" font-family="Arial" font-size="10.00" fill="#000000">FOREIGN KEY (&quot;orderID&quot;) REFERENCES orders(&quot;orderID&quot;) ON DELETE CASCADE</text>
</g>
<!-- public.products -->
<g id="node3" class="node">
<title>public.products</title>
<polygon fill="#efefef" stroke="transparent" points="607,-462.5 607,-497.5 904,-497.5 904,-462.5 607,-462.5"/>
<polygon fill="none" stroke="#000000" points="607,-462.5 607,-497.5 904,-497.5 904,-462.5 607,-462.5"/>
<text text-anchor="start" x="631.2018" y="-475.3" font-family="Arial Bold" font-size="18.00" fill="#000000">public.products</text>
<text text-anchor="start" x="752.2302" y="-475.3" font-family="Arial" font-size="14.00" fill="#000000">    </text>
<text text-anchor="start" x="786.435" y="-475.3" font-family="Arial" font-size="14.00" fill="#666666">[BASE TABLE]</text>
<polygon fill="none" stroke="#000000" points="607,-432.5 607,-462.5 904,-462.5 904,-432.5 607,-432.5"/>
<text text-anchor="start" x="614" y="-443.9" font-family="Arial" font-size="14.00" fill="#000000">productID    </text>
<text text-anchor="start" x="708.8836" y="-443.9" font-family="Arial" font-size="14.00" fill="#666666">[integer]</text>
<polygon fill="none" stroke="#000000" points="607,-402.5 607,-432.5 904,-432.5 904,-402.5 607,-402.5"/>
<text text-anchor="start" x="614" y="-413.9" font-family="Arial" font-size="14.00" fill="#000000">productItemNumber    </text>
<text text-anchor="start" x="771.8864" y="-413.9" font-family="Arial" font-size="14.00" fill="#666666">[varchar]</text>
<polygon fill="none" stroke="#000000" points="607,-372.5 607,-402.5 904,-402.5 904,-372.5 607,-372.5"/>
<text text-anchor="start" x="614" y="-383.9" font-family="Arial" font-size="14.00" fill="#000000">currency    </text>
<text text-anchor="start" x="701.8738" y="-383.9" font-family="Arial" font-size="14.00" fill="#666666">[varchar(5)]</text>
<polygon fill="none" stroke="#000000" points="607,-342.5 607,-372.5 904,-372.5 904,-342.5 607,-342.5"/>
<text text-anchor="start" x="614" y="-353.9" font-family="Arial" font-size="14.00" fill="#000000">cost    </text>
<text text-anchor="start" x="673.878" y="-353.9" font-family="Arial" font-size="14.00" fill="#666666">[real]</text>
<polygon fill="none" stroke="#000000" points="607,-312.5 607,-342.5 904,-342.5 904,-312.5 607,-312.5"/>
<text text-anchor="start" x="614" y="-323.9" font-family="Arial" font-size="14.00" fill="#000000">productCategoryID    </text>
<text text-anchor="start" x="765.6718" y="-323.9" font-family="Arial" font-size="14.00" fill="#666666">[integer]</text>
<polygon fill="none" stroke="#000000" points="607,-282.5 607,-312.5 904,-312.5 904,-282.5 607,-282.5"/>
<text text-anchor="start" x="614" y="-293.9" font-family="Arial" font-size="14.00" fill="#000000">productDescription    </text>
<text text-anchor="start" x="764.8878" y="-293.9" font-family="Arial" font-size="14.00" fill="#666666">[varchar(512)]</text>
<polygon fill="none" stroke="#000000" points="607,-252.5 607,-282.5 904,-282.5 904,-252.5 607,-252.5"/>
<text text-anchor="start" x="614" y="-263.9" font-family="Arial" font-size="14.00" fill="#000000">productSupplierArticleNumber    </text>
<text text-anchor="start" x="834.8864" y="-263.9" font-family="Arial" font-size="14.00" fill="#666666">[varchar]</text>
<polygon fill="none" stroke="#000000" points="607,-222.5 607,-252.5 904,-252.5 904,-222.5 607,-222.5"/>
<text text-anchor="start" x="614" y="-233.9" font-family="Arial" font-size="14.00" fill="#000000">productExternalArticleNumber    </text>
<text text-anchor="start" x="834.8878" y="-233.9" font-family="Arial" font-size="14.00" fill="#666666">[varchar]</text>
<polygon fill="none" stroke="#000000" points="607,-192.5 607,-222.5 904,-222.5 904,-192.5 607,-192.5"/>
<text text-anchor="start" x="614" y="-203.9" font-family="Arial" font-size="14.00" fill="#000000">productUpdateRelatedData    </text>
<text text-anchor="start" x="817.8106" y="-203.9" font-family="Arial" font-size="14.00" fill="#666666">[boolean]</text>
<polygon fill="none" stroke="#000000" points="607,-162.5 607,-192.5 904,-192.5 904,-162.5 607,-162.5"/>
<text text-anchor="start" x="614" y="-173.9" font-family="Arial" font-size="14.00" fill="#000000">award    </text>
<text text-anchor="start" x="686.3198" y="-173.9" font-family="Arial" font-size="14.00" fill="#666666">[real]</text>
<polygon fill="none" stroke="#000000" points="607,-132.5 607,-162.5 904,-162.5 904,-132.5 607,-132.5"/>
<text text-anchor="start" x="614" y="-143.9" font-family="Arial" font-size="14.00" fill="#000000">productInventoryBalance    </text>
<text text-anchor="start" x="803.0322" y="-143.9" font-family="Arial" font-size="14.00" fill="#666666">[integer]</text>
<polygon fill="none" stroke="#000000" points="607,-102.5 607,-132.5 904,-132.5 904,-102.5 607,-102.5"/>
<text text-anchor="start" x="614" y="-113.9" font-family="Arial" font-size="14.00" fill="#000000">createdAt    </text>
<text text-anchor="start" x="708.1136" y="-113.9" font-family="Arial" font-size="14.00" fill="#666666">[timestamp without time zone]</text>
<polygon fill="none" stroke="#000000" points="607,-72.5 607,-102.5 904,-102.5 904,-72.5 607,-72.5"/>
<text text-anchor="start" x="613.9208" y="-83.9" font-family="Arial" font-size="14.00" fill="#000000">updatedAt    </text>
<text text-anchor="start" x="711.939" y="-83.9" font-family="Arial" font-size="14.00" fill="#666666">[timestamp without time zone]</text>
<polygon fill="none" stroke="#000000" points="607,-42.5 607,-72.5 904,-72.5 904,-42.5 607,-42.5"/>
<text text-anchor="start" x="614" y="-53.9" font-family="Arial" font-size="14.00" fill="#000000">storeID    </text>
<text text-anchor="start" x="693.3184" y="-53.9" font-family="Arial" font-size="14.00" fill="#666666">[integer]</text>
</g>
<!-- public.orderProducts&#45;&gt;public.products -->
<g id="edge2" class="edge">
<title>public.orderProducts:productID&#45;&gt;public.products:productID</title>
<path fill="none" stroke="#000000" d="M708.3551,-786.9018C788.3379,-777.1843 748.5423,-651.3483 698,-577 673.5476,-541.0301 631.4524,-576.9699 607,-541 583.6375,-506.6335 565.4444,-447.5 607,-447.5"/>
<polygon fill="#000000" stroke="#000000" points="707.9834,-786.9232 697.7405,-783.0075 702.9917,-787.2116 698,-787.5 698,-787.5 698,-787.5 702.9917,-787.2116 698.2595,-791.9925 707.9834,-786.9232 707.9834,-786.9232"/>
<text text-anchor="start" x="704.946" y="-797.5" font-family="Arial" font-size="10.00" fill="#000000">FOREIGN KEY (&quot;productID&quot;) REFERENCES products(&quot;productID&quot;) ON DELETE CASCADE</text>
</g>
</g>
</svg>
