<?xml version="1.0" encoding="UTF-8" standalone="no"?>
<!DOCTYPE svg PUBLIC "-//W3C//DTD SVG 1.1//EN"
 "http://www.w3.org/Graphics/SVG/1.1/DTD/svg11.dtd">
<!-- Generated by graphviz version 2.40.1 (20161225.0304)
 -->
<!-- Title: public.productCategories Pages: 1 -->
<svg width="998pt" height="862pt"
 viewBox="0.00 0.00 998.00 862.00" xmlns="http://www.w3.org/2000/svg" xmlns:xlink="http://www.w3.org/1999/xlink">
<g id="graph0" class="graph" transform="scale(1 1) rotate(0) translate(4 858)">
<title>public.productCategories</title>
<polygon fill="#ffffff" stroke="transparent" points="-4,4 -4,-858 994,-858 994,4 -4,4"/>
<!-- public.productCategories -->
<g id="node1" class="node">
<title>public.productCategories</title>
<polygon fill="#efefef" stroke="transparent" points="324,-195.5 324,-230.5 664,-230.5 664,-195.5 324,-195.5"/>
<polygon fill="none" stroke="#000000" points="324,-195.5 324,-230.5 664,-230.5 664,-195.5 324,-195.5"/>
<text text-anchor="start" x="330.6949" y="-208.3" font-family="Arial Bold" font-size="18.00" fill="#000000">public.productCategories</text>
<text text-anchor="start" x="529.7371" y="-208.3" font-family="Arial" font-size="14.00" fill="#000000">    </text>
<text text-anchor="start" x="563.9419" y="-208.3" font-family="Arial" font-size="14.00" fill="#666666">[BASE TABLE]</text>
<polygon fill="none" stroke="#000000" points="324,-165.5 324,-195.5 664,-195.5 664,-165.5 324,-165.5"/>
<text text-anchor="start" x="331" y="-176.9" font-family="Arial" font-size="14.00" fill="#000000">productCategoryID </text>
<text text-anchor="start" x="452.3576" y="-176.9" font-family="Arial" font-size="14.00" fill="#666666">[integer]</text>
<polygon fill="none" stroke="#000000" points="324,-135.5 324,-165.5 664,-165.5 664,-135.5 324,-135.5"/>
<text text-anchor="start" x="331" y="-146.9" font-family="Arial" font-size="14.00" fill="#000000">name </text>
<text text-anchor="start" x="369.899" y="-146.9" font-family="Arial" font-size="14.00" fill="#666666">[varchar(256)]</text>
<polygon fill="none" stroke="#000000" points="324,-105.5 324,-135.5 664,-135.5 664,-105.5 324,-105.5"/>
<text text-anchor="start" x="331" y="-116.9" font-family="Arial" font-size="14.00" fill="#000000">description </text>
<text text-anchor="start" x="402.568" y="-116.9" font-family="Arial" font-size="14.00" fill="#666666">[text]</text>
<polygon fill="none" stroke="#000000" points="324,-75.5 324,-105.5 664,-105.5 664,-75.5 324,-75.5"/>
<text text-anchor="start" x="331" y="-86.9" font-family="Arial" font-size="14.00" fill="#000000">createdAt </text>
<text text-anchor="start" x="394.7994" y="-86.9" font-family="Arial" font-size="14.00" fill="#666666">[timestamp without time zone]</text>
<polygon fill="none" stroke="#000000" points="324,-45.5 324,-75.5 664,-75.5 664,-45.5 324,-45.5"/>
<text text-anchor="start" x="331" y="-56.9" font-family="Arial" font-size="14.00" fill="#000000">updatedAt </text>
<text text-anchor="start" x="398.704" y="-56.9" font-family="Arial" font-size="14.00" fill="#666666">[timestamp without time zone]</text>
<polygon fill="none" stroke="#000000" stroke-width="3" points="322.5,-44.5 322.5,-232.5 665.5,-232.5 665.5,-44.5 322.5,-44.5"/>
</g>
<!-- public.localProducts -->
<g id="node2" class="node">
<title>public.localProducts</title>
<polygon fill="#efefef" stroke="transparent" points="142,-775.5 142,-810.5 443,-810.5 443,-775.5 142,-775.5"/>
<polygon fill="none" stroke="#000000" points="142,-775.5 142,-810.5 443,-810.5 443,-775.5 142,-775.5"/>
<text text-anchor="start" x="148.7024" y="-788.3" font-family="Arial Bold" font-size="18.00" fill="#000000">public.localProducts</text>
<text text-anchor="start" x="308.7296" y="-788.3" font-family="Arial" font-size="14.00" fill="#000000">    </text>
<text text-anchor="start" x="342.9344" y="-788.3" font-family="Arial" font-size="14.00" fill="#666666">[BASE TABLE]</text>
<polygon fill="none" stroke="#000000" points="142,-745.5 142,-775.5 443,-775.5 443,-745.5 142,-745.5"/>
<text text-anchor="start" x="149" y="-756.9" font-family="Arial" font-size="14.00" fill="#000000">storeID    </text>
<text text-anchor="start" x="228.3184" y="-756.9" font-family="Arial" font-size="14.00" fill="#666666">[integer]</text>
<polygon fill="none" stroke="#000000" points="142,-715.5 142,-745.5 443,-745.5 443,-715.5 142,-715.5"/>
<text text-anchor="start" x="149" y="-726.9" font-family="Arial" font-size="14.00" fill="#000000">localProductID    </text>
<text text-anchor="start" x="274.216" y="-726.9" font-family="Arial" font-size="14.00" fill="#666666">[integer]</text>
<polygon fill="none" stroke="#000000" points="142,-685.5 142,-715.5 443,-715.5 443,-685.5 142,-685.5"/>
<text text-anchor="start" x="149" y="-696.9" font-family="Arial" font-size="14.00" fill="#000000">productItemNumber    </text>
<text text-anchor="start" x="306.8864" y="-696.9" font-family="Arial" font-size="14.00" fill="#666666">[varchar]</text>
<polygon fill="none" stroke="#000000" points="142,-655.5 142,-685.5 443,-685.5 443,-655.5 142,-655.5"/>
<text text-anchor="start" x="149" y="-666.9" font-family="Arial" font-size="14.00" fill="#000000">currency    </text>
<text text-anchor="start" x="236.8738" y="-666.9" font-family="Arial" font-size="14.00" fill="#666666">[varchar(5)]</text>
<polygon fill="none" stroke="#000000" points="142,-625.5 142,-655.5 443,-655.5 443,-625.5 142,-625.5"/>
<text text-anchor="start" x="149" y="-636.9" font-family="Arial" font-size="14.00" fill="#000000">cost    </text>
<text text-anchor="start" x="208.878" y="-636.9" font-family="Arial" font-size="14.00" fill="#666666">[real]</text>
<polygon fill="none" stroke="#000000" points="142,-595.5 142,-625.5 443,-625.5 443,-595.5 142,-595.5"/>
<text text-anchor="start" x="149" y="-606.9" font-family="Arial" font-size="14.00" fill="#000000">productCategoryID    </text>
<text text-anchor="start" x="300.6718" y="-606.9" font-family="Arial" font-size="14.00" fill="#666666">[integer]</text>
<polygon fill="none" stroke="#000000" points="142,-565.5 142,-595.5 443,-595.5 443,-565.5 142,-565.5"/>
<text text-anchor="start" x="149" y="-576.9" font-family="Arial" font-size="14.00" fill="#000000">productDescription    </text>
<text text-anchor="start" x="299.8878" y="-576.9" font-family="Arial" font-size="14.00" fill="#666666">[varchar(512)]</text>
<polygon fill="none" stroke="#000000" points="142,-535.5 142,-565.5 443,-565.5 443,-535.5 142,-535.5"/>
<text text-anchor="start" x="149" y="-546.9" font-family="Arial" font-size="14.00" fill="#000000">productSupplierArticleNumber    </text>
<text text-anchor="start" x="369.8864" y="-546.9" font-family="Arial" font-size="14.00" fill="#666666">[varchar]</text>
<polygon fill="none" stroke="#000000" points="142,-505.5 142,-535.5 443,-535.5 443,-505.5 142,-505.5"/>
<text text-anchor="start" x="149" y="-516.9" font-family="Arial" font-size="14.00" fill="#000000">productExternalArticleNumber    </text>
<text text-anchor="start" x="369.8878" y="-516.9" font-family="Arial" font-size="14.00" fill="#666666">[varchar]</text>
<polygon fill="none" stroke="#000000" points="142,-475.5 142,-505.5 443,-505.5 443,-475.5 142,-475.5"/>
<text text-anchor="start" x="149" y="-486.9" font-family="Arial" font-size="14.00" fill="#000000">productUpdateRelatedData    </text>
<text text-anchor="start" x="352.8106" y="-486.9" font-family="Arial" font-size="14.00" fill="#666666">[boolean]</text>
<polygon fill="none" stroke="#000000" points="142,-445.5 142,-475.5 443,-475.5 443,-445.5 142,-445.5"/>
<text text-anchor="start" x="149" y="-456.9" font-family="Arial" font-size="14.00" fill="#000000">award    </text>
<text text-anchor="start" x="221.3198" y="-456.9" font-family="Arial" font-size="14.00" fill="#666666">[real]</text>
<polygon fill="none" stroke="#000000" points="142,-415.5 142,-445.5 443,-445.5 443,-415.5 142,-415.5"/>
<text text-anchor="start" x="149" y="-426.9" font-family="Arial" font-size="14.00" fill="#000000">productInventoryBalance    </text>
<text text-anchor="start" x="338.0322" y="-426.9" font-family="Arial" font-size="14.00" fill="#666666">[integer]</text>
<polygon fill="none" stroke="#000000" points="142,-385.5 142,-415.5 443,-415.5 443,-385.5 142,-385.5"/>
<text text-anchor="start" x="149" y="-396.9" font-family="Arial" font-size="14.00" fill="#000000">createdAt    </text>
<text text-anchor="start" x="243.1136" y="-396.9" font-family="Arial" font-size="14.00" fill="#666666">[timestamp without time zone]</text>
<polygon fill="none" stroke="#000000" points="142,-355.5 142,-385.5 443,-385.5 443,-355.5 142,-355.5"/>
<text text-anchor="start" x="149" y="-366.9" font-family="Arial" font-size="14.00" fill="#000000">updatedAt    </text>
<text text-anchor="start" x="247.0182" y="-366.9" font-family="Arial" font-size="14.00" fill="#666666">[timestamp without time zone]</text>
</g>
<!-- public.localProducts&#45;&gt;public.productCategories -->
<g id="edge1" class="edge">
<title>public.localProducts:productCategoryID&#45;&gt;public.productCategories:productCategoryID</title>
<path fill="none" stroke="#000000" d="M453.0267,-608.3783C506.1519,-584.3394 480.2476,-363.1829 443,-313 410.0672,-268.6303 356.9328,-321.3697 324,-277 298.4381,-242.561 281.1111,-180.5 324,-180.5"/>
<polygon fill="#000000" stroke="#000000" points="452.7834,-608.4297 442.0684,-606.0975 447.8917,-609.4649 443,-610.5 443,-610.5 443,-610.5 447.8917,-609.4649 443.9316,-614.9025 452.7834,-608.4297 452.7834,-608.4297"/>
<text text-anchor="start" x="7.4445" y="-620.5" font-family="Arial" font-size="10.00" fill="#000000">FOREIGN KEY (&quot;productCategoryID&quot;) REFERENCES &quot;productCategories&quot;(&quot;productCategoryID&quot;)</text>
</g>
<!-- public.products -->
<g id="node3" class="node">
<title>public.products</title>
<polygon fill="#efefef" stroke="transparent" points="547,-760.5 547,-795.5 844,-795.5 844,-760.5 547,-760.5"/>
<polygon fill="none" stroke="#000000" points="547,-760.5 547,-795.5 844,-795.5 844,-760.5 547,-760.5"/>
<text text-anchor="start" x="571.2018" y="-773.3" font-family="Arial Bold" font-size="18.00" fill="#000000">public.products</text>
<text text-anchor="start" x="692.2302" y="-773.3" font-family="Arial" font-size="14.00" fill="#000000">    </text>
<text text-anchor="start" x="726.435" y="-773.3" font-family="Arial" font-size="14.00" fill="#666666">[BASE TABLE]</text>
<polygon fill="none" stroke="#000000" points="547,-730.5 547,-760.5 844,-760.5 844,-730.5 547,-730.5"/>
<text text-anchor="start" x="554" y="-741.9" font-family="Arial" font-size="14.00" fill="#000000">productID    </text>
<text text-anchor="start" x="648.8836" y="-741.9" font-family="Arial" font-size="14.00" fill="#666666">[integer]</text>
<polygon fill="none" stroke="#000000" points="547,-700.5 547,-730.5 844,-730.5 844,-700.5 547,-700.5"/>
<text text-anchor="start" x="554" y="-711.9" font-family="Arial" font-size="14.00" fill="#000000">productItemNumber    </text>
<text text-anchor="start" x="711.8864" y="-711.9" font-family="Arial" font-size="14.00" fill="#666666">[varchar]</text>
<polygon fill="none" stroke="#000000" points="547,-670.5 547,-700.5 844,-700.5 844,-670.5 547,-670.5"/>
<text text-anchor="start" x="554" y="-681.9" font-family="Arial" font-size="14.00" fill="#000000">currency    </text>
<text text-anchor="start" x="641.8738" y="-681.9" font-family="Arial" font-size="14.00" fill="#666666">[varchar(5)]</text>
<polygon fill="none" stroke="#000000" points="547,-640.5 547,-670.5 844,-670.5 844,-640.5 547,-640.5"/>
<text text-anchor="start" x="554" y="-651.9" font-family="Arial" font-size="14.00" fill="#000000">cost    </text>
<text text-anchor="start" x="613.878" y="-651.9" font-family="Arial" font-size="14.00" fill="#666666">[real]</text>
<polygon fill="none" stroke="#000000" points="547,-610.5 547,-640.5 844,-640.5 844,-610.5 547,-610.5"/>
<text text-anchor="start" x="554" y="-621.9" font-family="Arial" font-size="14.00" fill="#000000">productCategoryID    </text>
<text text-anchor="start" x="705.6718" y="-621.9" font-family="Arial" font-size="14.00" fill="#666666">[integer]</text>
<polygon fill="none" stroke="#000000" points="547,-580.5 547,-610.5 844,-610.5 844,-580.5 547,-580.5"/>
<text text-anchor="start" x="554" y="-591.9" font-family="Arial" font-size="14.00" fill="#000000">productDescription    </text>
<text text-anchor="start" x="704.8878" y="-591.9" font-family="Arial" font-size="14.00" fill="#666666">[varchar(512)]</text>
<polygon fill="none" stroke="#000000" points="547,-550.5 547,-580.5 844,-580.5 844,-550.5 547,-550.5"/>
<text text-anchor="start" x="554" y="-561.9" font-family="Arial" font-size="14.00" fill="#000000">productSupplierArticleNumber    </text>
<text text-anchor="start" x="774.8864" y="-561.9" font-family="Arial" font-size="14.00" fill="#666666">[varchar]</text>
<polygon fill="none" stroke="#000000" points="547,-520.5 547,-550.5 844,-550.5 844,-520.5 547,-520.5"/>
<text text-anchor="start" x="554" y="-531.9" font-family="Arial" font-size="14.00" fill="#000000">productExternalArticleNumber    </text>
<text text-anchor="start" x="774.8878" y="-531.9" font-family="Arial" font-size="14.00" fill="#666666">[varchar]</text>
<polygon fill="none" stroke="#000000" points="547,-490.5 547,-520.5 844,-520.5 844,-490.5 547,-490.5"/>
<text text-anchor="start" x="554" y="-501.9" font-family="Arial" font-size="14.00" fill="#000000">productUpdateRelatedData    </text>
<text text-anchor="start" x="757.8106" y="-501.9" font-family="Arial" font-size="14.00" fill="#666666">[boolean]</text>
<polygon fill="none" stroke="#000000" points="547,-460.5 547,-490.5 844,-490.5 844,-460.5 547,-460.5"/>
<text text-anchor="start" x="554" y="-471.9" font-family="Arial" font-size="14.00" fill="#000000">award    </text>
<text text-anchor="start" x="626.3198" y="-471.9" font-family="Arial" font-size="14.00" fill="#666666">[real]</text>
<polygon fill="none" stroke="#000000" points="547,-430.5 547,-460.5 844,-460.5 844,-430.5 547,-430.5"/>
<text text-anchor="start" x="554" y="-441.9" font-family="Arial" font-size="14.00" fill="#000000">productInventoryBalance    </text>
<text text-anchor="start" x="743.0322" y="-441.9" font-family="Arial" font-size="14.00" fill="#666666">[integer]</text>
<polygon fill="none" stroke="#000000" points="547,-400.5 547,-430.5 844,-430.5 844,-400.5 547,-400.5"/>
<text text-anchor="start" x="554" y="-411.9" font-family="Arial" font-size="14.00" fill="#000000">createdAt    </text>
<text text-anchor="start" x="648.1136" y="-411.9" font-family="Arial" font-size="14.00" fill="#666666">[timestamp without time zone]</text>
<polygon fill="none" stroke="#000000" points="547,-370.5 547,-400.5 844,-400.5 844,-370.5 547,-370.5"/>
<text text-anchor="start" x="553.9208" y="-381.9" font-family="Arial" font-size="14.00" fill="#000000">updatedAt    </text>
<text text-anchor="start" x="651.939" y="-381.9" font-family="Arial" font-size="14.00" fill="#666666">[timestamp without time zone]</text>
</g>
<!-- public.products&#45;&gt;public.productCategories -->
<g id="edge2" class="edge">
<title>public.products:productCategoryID&#45;&gt;public.productCategories:productCategoryID</title>
<path fill="none" stroke="#000000" d="M537.0003,-623.3972C484.1768,-599.5688 512.7579,-380.2799 547,-328 578.0805,-280.5471 632.9195,-324.4529 664,-277 687.4993,-241.1219 706.8889,-180.5 664,-180.5"/>
<polygon fill="#000000" stroke="#000000" points="537.214,-623.442 546.0739,-629.9037 542.107,-624.471 547,-625.5 547,-625.5 547,-625.5 542.107,-624.471 547.9261,-621.0963 537.214,-623.442 537.214,-623.442"/>
<text text-anchor="start" x="554.4445" y="-635.5" font-family="Arial" font-size="10.00" fill="#000000">FOREIGN KEY (&quot;productCategoryID&quot;) REFERENCES &quot;productCategories&quot;(&quot;productCategoryID&quot;)</text>
</g>
</g>
</svg>
