<?xml version="1.0" encoding="UTF-8" standalone="no"?>
<!DOCTYPE svg PUBLIC "-//W3C//DTD SVG 1.1//EN"
 "http://www.w3.org/Graphics/SVG/1.1/DTD/svg11.dtd">
<!-- Generated by graphviz version 2.40.1 (20161225.0304)
 -->
<!-- Title: public.serviceLocalQualifications Pages: 1 -->
<svg width="1093pt" height="982pt"
 viewBox="0.00 0.00 1093.00 982.00" xmlns="http://www.w3.org/2000/svg" xmlns:xlink="http://www.w3.org/1999/xlink">
<g id="graph0" class="graph" transform="scale(1 1) rotate(0) translate(4 978)">
<title>public.serviceLocalQualifications</title>
<polygon fill="#ffffff" stroke="transparent" points="-4,4 -4,-978 1089,-978 1089,4 -4,4"/>
<!-- public.serviceLocalQualifications -->
<g id="node1" class="node">
<title>public.serviceLocalQualifications</title>
<polygon fill="#efefef" stroke="transparent" points="306,-892.5 306,-927.5 707,-927.5 707,-892.5 306,-892.5"/>
<polygon fill="none" stroke="#000000" points="306,-892.5 306,-927.5 707,-927.5 707,-892.5 306,-892.5"/>
<text text-anchor="start" x="312.6984" y="-905.3" font-family="Arial Bold" font-size="18.00" fill="#000000">public.serviceLocalQualifications</text>
<text text-anchor="start" x="572.7336" y="-905.3" font-family="Arial" font-size="14.00" fill="#000000">    </text>
<text text-anchor="start" x="606.9384" y="-905.3" font-family="Arial" font-size="14.00" fill="#666666">[BASE TABLE]</text>
<polygon fill="none" stroke="#000000" points="306,-862.5 306,-892.5 707,-892.5 707,-862.5 306,-862.5"/>
<text text-anchor="start" x="313" y="-873.9" font-family="Arial" font-size="14.00" fill="#000000">serviceID </text>
<text text-anchor="start" x="375.2202" y="-873.9" font-family="Arial" font-size="14.00" fill="#666666">[integer]</text>
<polygon fill="none" stroke="#000000" points="306,-832.5 306,-862.5 707,-862.5 707,-832.5 306,-832.5"/>
<text text-anchor="start" x="313" y="-843.9" font-family="Arial" font-size="14.00" fill="#000000">localQualID </text>
<text text-anchor="start" x="389.2286" y="-843.9" font-family="Arial" font-size="14.00" fill="#666666">[integer]</text>
<polygon fill="none" stroke="#000000" stroke-width="3" points="304,-831.5 304,-929.5 708,-929.5 708,-831.5 304,-831.5"/>
</g>
<!-- public.services -->
<g id="node2" class="node">
<title>public.services</title>
<polygon fill="#efefef" stroke="transparent" points="147,-672.5 147,-707.5 444,-707.5 444,-672.5 147,-672.5"/>
<polygon fill="none" stroke="#000000" points="147,-672.5 147,-707.5 444,-707.5 444,-672.5 147,-672.5"/>
<text text-anchor="start" x="172.712" y="-685.3" font-family="Arial Bold" font-size="18.00" fill="#000000">public.services</text>
<text text-anchor="start" x="290.72" y="-685.3" font-family="Arial" font-size="14.00" fill="#000000">    </text>
<text text-anchor="start" x="324.9248" y="-685.3" font-family="Arial" font-size="14.00" fill="#666666">[BASE TABLE]</text>
<polygon fill="none" stroke="#000000" points="147,-642.5 147,-672.5 444,-672.5 444,-642.5 147,-642.5"/>
<text text-anchor="start" x="154" y="-653.9" font-family="Arial" font-size="14.00" fill="#000000">serviceID    </text>
<text text-anchor="start" x="246.5344" y="-653.9" font-family="Arial" font-size="14.00" fill="#666666">[integer]</text>
<polygon fill="none" stroke="#000000" points="147,-612.5 147,-642.5 444,-642.5 444,-612.5 147,-612.5"/>
<text text-anchor="start" x="154" y="-623.9" font-family="Arial" font-size="14.00" fill="#000000">name    </text>
<text text-anchor="start" x="223.2132" y="-623.9" font-family="Arial" font-size="14.00" fill="#666666">[varchar(256)]</text>
<polygon fill="none" stroke="#000000" points="147,-582.5 147,-612.5 444,-612.5 444,-582.5 147,-582.5"/>
<text text-anchor="start" x="154" y="-593.9" font-family="Arial" font-size="14.00" fill="#000000">serviceCategoryID    </text>
<text text-anchor="start" x="303.3226" y="-593.9" font-family="Arial" font-size="14.00" fill="#666666">[integer]</text>
<polygon fill="none" stroke="#000000" points="147,-552.5 147,-582.5 444,-582.5 444,-552.5 147,-552.5"/>
<text text-anchor="start" x="154" y="-563.9" font-family="Arial" font-size="14.00" fill="#000000">currency    </text>
<text text-anchor="start" x="241.8738" y="-563.9" font-family="Arial" font-size="14.00" fill="#666666">[varchar(5)]</text>
<polygon fill="none" stroke="#000000" points="147,-522.5 147,-552.5 444,-552.5 444,-522.5 147,-522.5"/>
<text text-anchor="start" x="154" y="-533.9" font-family="Arial" font-size="14.00" fill="#000000">cost    </text>
<text text-anchor="start" x="213.878" y="-533.9" font-family="Arial" font-size="14.00" fill="#666666">[real]</text>
<polygon fill="none" stroke="#000000" points="147,-492.5 147,-522.5 444,-522.5 444,-492.5 147,-492.5"/>
<text text-anchor="start" x="154" y="-503.9" font-family="Arial" font-size="14.00" fill="#000000">includeInAutomaticSms    </text>
<text text-anchor="start" x="334.4516" y="-503.9" font-family="Arial" font-size="14.00" fill="#666666">[boolean]</text>
<polygon fill="none" stroke="#000000" points="147,-462.5 147,-492.5 444,-492.5 444,-462.5 147,-462.5"/>
<text text-anchor="start" x="154" y="-473.9" font-family="Arial" font-size="14.00" fill="#000000">hidden    </text>
<text text-anchor="start" x="230.2244" y="-473.9" font-family="Arial" font-size="14.00" fill="#666666">[boolean]</text>
<polygon fill="none" stroke="#000000" points="147,-432.5 147,-462.5 444,-462.5 444,-432.5 147,-432.5"/>
<text text-anchor="start" x="154" y="-443.9" font-family="Arial" font-size="14.00" fill="#000000">callInterval    </text>
<text text-anchor="start" x="255.0968" y="-443.9" font-family="Arial" font-size="14.00" fill="#666666">[integer]</text>
<polygon fill="none" stroke="#000000" points="147,-402.5 147,-432.5 444,-432.5 444,-402.5 147,-402.5"/>
<text text-anchor="start" x="154" y="-413.9" font-family="Arial" font-size="14.00" fill="#000000">colorForService    </text>
<text text-anchor="start" x="286.202" y="-413.9" font-family="Arial" font-size="14.00" fill="#666666">[varchar]</text>
<polygon fill="none" stroke="#000000" points="147,-372.5 147,-402.5 444,-402.5 444,-372.5 147,-372.5"/>
<text text-anchor="start" x="154" y="-383.9" font-family="Arial" font-size="14.00" fill="#000000">warrantyCard    </text>
<text text-anchor="start" x="272.2034" y="-383.9" font-family="Arial" font-size="14.00" fill="#666666">[boolean]</text>
<polygon fill="none" stroke="#000000" points="147,-342.5 147,-372.5 444,-372.5 444,-342.5 147,-342.5"/>
<text text-anchor="start" x="154" y="-353.9" font-family="Arial" font-size="14.00" fill="#000000">itemNumber    </text>
<text text-anchor="start" x="264.4208" y="-353.9" font-family="Arial" font-size="14.00" fill="#666666">[varchar(256)]</text>
<polygon fill="none" stroke="#000000" points="147,-312.5 147,-342.5 444,-342.5 444,-312.5 147,-312.5"/>
<text text-anchor="start" x="154" y="-323.9" font-family="Arial" font-size="14.00" fill="#000000">award    </text>
<text text-anchor="start" x="226.3198" y="-323.9" font-family="Arial" font-size="14.00" fill="#666666">[real]</text>
<polygon fill="none" stroke="#000000" points="147,-282.5 147,-312.5 444,-312.5 444,-282.5 147,-282.5"/>
<text text-anchor="start" x="154" y="-293.9" font-family="Arial" font-size="14.00" fill="#000000">suppliersArticleNumber    </text>
<text text-anchor="start" x="332.8682" y="-293.9" font-family="Arial" font-size="14.00" fill="#666666">[varchar(256)]</text>
<polygon fill="none" stroke="#000000" points="147,-252.5 147,-282.5 444,-282.5 444,-252.5 147,-252.5"/>
<text text-anchor="start" x="154" y="-263.9" font-family="Arial" font-size="14.00" fill="#000000">externalArticleNumber    </text>
<text text-anchor="start" x="326.6522" y="-263.9" font-family="Arial" font-size="14.00" fill="#666666">[varchar(256)]</text>
<polygon fill="none" stroke="#000000" points="147,-222.5 147,-252.5 444,-252.5 444,-222.5 147,-222.5"/>
<text text-anchor="start" x="154" y="-233.9" font-family="Arial" font-size="14.00" fill="#000000">day1    </text>
<text text-anchor="start" x="218.5526" y="-233.9" font-family="Arial" font-size="14.00" fill="#666666">[time without time zone]</text>
<polygon fill="none" stroke="#000000" points="147,-192.5 147,-222.5 444,-222.5 444,-192.5 147,-192.5"/>
<text text-anchor="start" x="154" y="-203.9" font-family="Arial" font-size="14.00" fill="#000000">day2    </text>
<text text-anchor="start" x="218.5526" y="-203.9" font-family="Arial" font-size="14.00" fill="#666666">[time without time zone]</text>
<polygon fill="none" stroke="#000000" points="147,-162.5 147,-192.5 444,-192.5 444,-162.5 147,-162.5"/>
<text text-anchor="start" x="154" y="-173.9" font-family="Arial" font-size="14.00" fill="#000000">day3    </text>
<text text-anchor="start" x="218.5526" y="-173.9" font-family="Arial" font-size="14.00" fill="#666666">[time without time zone]</text>
<polygon fill="none" stroke="#000000" points="147,-132.5 147,-162.5 444,-162.5 444,-132.5 147,-132.5"/>
<text text-anchor="start" x="154" y="-143.9" font-family="Arial" font-size="14.00" fill="#000000">day4    </text>
<text text-anchor="start" x="218.5526" y="-143.9" font-family="Arial" font-size="14.00" fill="#666666">[time without time zone]</text>
<polygon fill="none" stroke="#000000" points="147,-102.5 147,-132.5 444,-132.5 444,-102.5 147,-102.5"/>
<text text-anchor="start" x="154" y="-113.9" font-family="Arial" font-size="14.00" fill="#000000">day5    </text>
<text text-anchor="start" x="218.5526" y="-113.9" font-family="Arial" font-size="14.00" fill="#666666">[time without time zone]</text>
<polygon fill="none" stroke="#000000" points="147,-72.5 147,-102.5 444,-102.5 444,-72.5 147,-72.5"/>
<text text-anchor="start" x="154" y="-83.9" font-family="Arial" font-size="14.00" fill="#000000">createdAt    </text>
<text text-anchor="start" x="248.1136" y="-83.9" font-family="Arial" font-size="14.00" fill="#666666">[timestamp without time zone]</text>
<polygon fill="none" stroke="#000000" points="147,-42.5 147,-72.5 444,-72.5 444,-42.5 147,-42.5"/>
<text text-anchor="start" x="153.9208" y="-53.9" font-family="Arial" font-size="14.00" fill="#000000">updatedAt    </text>
<text text-anchor="start" x="251.939" y="-53.9" font-family="Arial" font-size="14.00" fill="#666666">[timestamp without time zone]</text>
</g>
<!-- public.serviceLocalQualifications&#45;&gt;public.services -->
<g id="edge1" class="edge">
<title>public.serviceLocalQualifications:serviceID&#45;&gt;public.services:serviceID</title>
<path fill="none" stroke="#000000" d="M295.7704,-875.9011C268.9162,-866.2968 283.8103,-815.7209 306,-787 344.7531,-736.8405 405.2469,-801.1595 444,-751 469.4064,-718.1156 485.5556,-657.5 444,-657.5"/>
<polygon fill="#000000" stroke="#000000" points="296.12,-875.9556 305.305,-881.946 301.06,-876.7278 306,-877.5 306,-877.5 306,-877.5 301.06,-876.7278 306.695,-873.054 296.12,-875.9556 296.12,-875.9556"/>
<text text-anchor="start" x="6.744" y="-887.5" font-family="Arial" font-size="10.00" fill="#000000">FOREIGN KEY (&quot;serviceID&quot;) REFERENCES services(&quot;serviceID&quot;)</text>
</g>
<!-- public.qualificationsLocal -->
<g id="node3" class="node">
<title>public.qualificationsLocal</title>
<polygon fill="#efefef" stroke="transparent" points="548,-432.5 548,-467.5 888,-467.5 888,-432.5 548,-432.5"/>
<polygon fill="none" stroke="#000000" points="548,-432.5 548,-467.5 888,-467.5 888,-432.5 548,-432.5"/>
<text text-anchor="start" x="554.6958" y="-445.3" font-family="Arial Bold" font-size="18.00" fill="#000000">public.qualificationsLocal</text>
<text text-anchor="start" x="753.7362" y="-445.3" font-family="Arial" font-size="14.00" fill="#000000">    </text>
<text text-anchor="start" x="787.941" y="-445.3" font-family="Arial" font-size="14.00" fill="#666666">[BASE TABLE]</text>
<polygon fill="none" stroke="#000000" points="548,-402.5 548,-432.5 888,-432.5 888,-402.5 548,-402.5"/>
<text text-anchor="start" x="555" y="-413.9" font-family="Arial" font-size="14.00" fill="#000000">storeID    </text>
<text text-anchor="start" x="634.3184" y="-413.9" font-family="Arial" font-size="14.00" fill="#666666">[integer]</text>
<polygon fill="none" stroke="#000000" points="548,-372.5 548,-402.5 888,-402.5 888,-372.5 548,-372.5"/>
<text text-anchor="start" x="555" y="-383.9" font-family="Arial" font-size="14.00" fill="#000000">localQualID    </text>
<text text-anchor="start" x="661.5428" y="-383.9" font-family="Arial" font-size="14.00" fill="#666666">[integer]</text>
<polygon fill="none" stroke="#000000" points="548,-342.5 548,-372.5 888,-372.5 888,-342.5 548,-342.5"/>
<text text-anchor="start" x="555" y="-353.9" font-family="Arial" font-size="14.00" fill="#000000">localQualName    </text>
<text text-anchor="start" x="684.878" y="-353.9" font-family="Arial" font-size="14.00" fill="#666666">[varchar(64)]</text>
<polygon fill="none" stroke="#000000" points="548,-312.5 548,-342.5 888,-342.5 888,-312.5 548,-312.5"/>
<text text-anchor="start" x="555" y="-323.9" font-family="Arial" font-size="14.00" fill="#000000">createdAt    </text>
<text text-anchor="start" x="649.1136" y="-323.9" font-family="Arial" font-size="14.00" fill="#666666">[timestamp without time zone]</text>
<polygon fill="none" stroke="#000000" points="548,-282.5 548,-312.5 888,-312.5 888,-282.5 548,-282.5"/>
<text text-anchor="start" x="555" y="-293.9" font-family="Arial" font-size="14.00" fill="#000000">updatedAt    </text>
<text text-anchor="start" x="653.0182" y="-293.9" font-family="Arial" font-size="14.00" fill="#666666">[timestamp without time zone]</text>
</g>
<!-- public.serviceLocalQualifications&#45;&gt;public.qualificationsLocal -->
<g id="edge2" class="edge">
<title>public.serviceLocalQualifications:localQualID&#45;&gt;public.qualificationsLocal:localQualID</title>
<path fill="none" stroke="#000000" d="M717.1128,-847.1239C903.8918,-832.3533 335.2781,-387.5 548,-387.5"/>
<polygon fill="#000000" stroke="#000000" points="716.9931,-847.1282 706.8327,-843.0031 711.9965,-847.3141 707,-847.5 707,-847.5 707,-847.5 711.9965,-847.3141 707.1673,-851.9969 716.9931,-847.1282 716.9931,-847.1282"/>
<text text-anchor="start" x="713.68" y="-857.5" font-family="Arial" font-size="10.00" fill="#000000">FOREIGN KEY (&quot;localQualID&quot;) REFERENCES &quot;qualificationsLocal&quot;(&quot;localQualID&quot;)</text>
</g>
</g>
</svg>
