<?xml version="1.0" encoding="UTF-8" standalone="no"?>
<!DOCTYPE svg PUBLIC "-//W3C//DTD SVG 1.1//EN"
 "http://www.w3.org/Graphics/SVG/1.1/DTD/svg11.dtd">
<!-- Generated by graphviz version 2.40.1 (20161225.0304)
 -->
<!-- Title: public.bills Pages: 1 -->
<svg width="1646pt" height="2039pt"
 viewBox="0.00 0.00 1646.00 2039.00" xmlns="http://www.w3.org/2000/svg" xmlns:xlink="http://www.w3.org/1999/xlink">
<g id="graph0" class="graph" transform="scale(1 1) rotate(0) translate(4 2035)">
<title>public.bills</title>
<polygon fill="#ffffff" stroke="transparent" points="-4,4 -4,-2035 1642,-2035 1642,4 -4,4"/>
<!-- public.bills -->
<g id="node1" class="node">
<title>public.bills</title>
<polygon fill="#efefef" stroke="transparent" points="673.5,-1732.5 673.5,-1767.5 939.5,-1767.5 939.5,-1732.5 673.5,-1732.5"/>
<polygon fill="none" stroke="#000000" points="673.5,-1732.5 673.5,-1767.5 939.5,-1767.5 939.5,-1732.5 673.5,-1732.5"/>
<text text-anchor="start" x="701.217" y="-1745.3" font-family="Arial Bold" font-size="18.00" fill="#000000">public.bills</text>
<text text-anchor="start" x="784.215" y="-1745.3" font-family="Arial" font-size="14.00" fill="#000000">    </text>
<text text-anchor="start" x="818.4198" y="-1745.3" font-family="Arial" font-size="14.00" fill="#666666">[BASE TABLE]</text>
<polygon fill="none" stroke="#000000" points="673.5,-1702.5 673.5,-1732.5 939.5,-1732.5 939.5,-1702.5 673.5,-1702.5"/>
<text text-anchor="start" x="680.5" y="-1713.9" font-family="Arial" font-size="14.00" fill="#000000">orderID </text>
<text text-anchor="start" x="731.0568" y="-1713.9" font-family="Arial" font-size="14.00" fill="#666666">[integer]</text>
<polygon fill="none" stroke="#000000" points="673.5,-1672.5 673.5,-1702.5 939.5,-1702.5 939.5,-1672.5 673.5,-1672.5"/>
<text text-anchor="start" x="680.5" y="-1683.9" font-family="Arial" font-size="14.00" fill="#000000">billStatus </text>
<text text-anchor="start" x="741.176" y="-1683.9" font-family="Arial" font-size="14.00" fill="#666666">[&quot;billStatus&quot;]</text>
<polygon fill="none" stroke="#000000" points="673.5,-1642.5 673.5,-1672.5 939.5,-1672.5 939.5,-1642.5 673.5,-1642.5"/>
<text text-anchor="start" x="680.5" y="-1653.9" font-family="Arial" font-size="14.00" fill="#000000">employeeID </text>
<text text-anchor="start" x="759.068" y="-1653.9" font-family="Arial" font-size="14.00" fill="#666666">[integer]</text>
<polygon fill="none" stroke="#000000" points="673.5,-1612.5 673.5,-1642.5 939.5,-1642.5 939.5,-1612.5 673.5,-1612.5"/>
<text text-anchor="start" x="680.5" y="-1623.9" font-family="Arial" font-size="14.00" fill="#000000">billingDate </text>
<text text-anchor="start" x="749.7272" y="-1623.9" font-family="Arial" font-size="14.00" fill="#666666">[date]</text>
<polygon fill="none" stroke="#000000" points="673.5,-1582.5 673.5,-1612.5 939.5,-1612.5 939.5,-1582.5 673.5,-1582.5"/>
<text text-anchor="start" x="680.5" y="-1593.9" font-family="Arial" font-size="14.00" fill="#000000">paymentDate </text>
<text text-anchor="start" x="767.6346" y="-1593.9" font-family="Arial" font-size="14.00" fill="#666666">[date]</text>
<polygon fill="none" stroke="#000000" points="673.5,-1552.5 673.5,-1582.5 939.5,-1582.5 939.5,-1552.5 673.5,-1552.5"/>
<text text-anchor="start" x="680.5" y="-1563.9" font-family="Arial" font-size="14.00" fill="#000000">paymentDays </text>
<text text-anchor="start" x="769.9614" y="-1563.9" font-family="Arial" font-size="14.00" fill="#666666">[integer]</text>
<polygon fill="none" stroke="#000000" points="673.5,-1522.5 673.5,-1552.5 939.5,-1552.5 939.5,-1522.5 673.5,-1522.5"/>
<text text-anchor="start" x="680.5" y="-1533.9" font-family="Arial" font-size="14.00" fill="#000000">driverID </text>
<text text-anchor="start" x="733.3808" y="-1533.9" font-family="Arial" font-size="14.00" fill="#666666">[integer]</text>
<polygon fill="none" stroke="#000000" points="673.5,-1492.5 673.5,-1522.5 939.5,-1522.5 939.5,-1492.5 673.5,-1492.5"/>
<text text-anchor="start" x="680.5" y="-1503.9" font-family="Arial" font-size="14.00" fill="#000000">customerOrgNumber </text>
<text text-anchor="start" x="815.0596" y="-1503.9" font-family="Arial" font-size="14.00" fill="#666666">[varchar(11)]</text>
<polygon fill="none" stroke="#000000" points="673.5,-1462.5 673.5,-1492.5 939.5,-1492.5 939.5,-1462.5 673.5,-1462.5"/>
<text text-anchor="start" x="680.5" y="-1473.9" font-family="Arial" font-size="14.00" fill="#000000">driverExternalNumber </text>
<text text-anchor="start" x="820.5014" y="-1473.9" font-family="Arial" font-size="14.00" fill="#666666">[varchar(256)]</text>
<polygon fill="none" stroke="#000000" points="673.5,-1432.5 673.5,-1462.5 939.5,-1462.5 939.5,-1432.5 673.5,-1432.5"/>
<text text-anchor="start" x="680.5" y="-1443.9" font-family="Arial" font-size="14.00" fill="#000000">companyReference </text>
<text text-anchor="start" x="805.7524" y="-1443.9" font-family="Arial" font-size="14.00" fill="#666666">[varchar(255)]</text>
<polygon fill="none" stroke="#000000" points="673.5,-1402.5 673.5,-1432.5 939.5,-1432.5 939.5,-1402.5 673.5,-1402.5"/>
<text text-anchor="start" x="680.5" y="-1413.9" font-family="Arial" font-size="14.00" fill="#000000">driverFirstName </text>
<text text-anchor="start" x="783.9264" y="-1413.9" font-family="Arial" font-size="14.00" fill="#666666">[varchar(128)]</text>
<polygon fill="none" stroke="#000000" points="673.5,-1372.5 673.5,-1402.5 939.5,-1402.5 939.5,-1372.5 673.5,-1372.5"/>
<text text-anchor="start" x="680.5" y="-1383.9" font-family="Arial" font-size="14.00" fill="#000000">driverLastName </text>
<text text-anchor="start" x="783.1718" y="-1383.9" font-family="Arial" font-size="14.00" fill="#666666">[varchar(128)]</text>
<polygon fill="none" stroke="#000000" points="673.5,-1342.5 673.5,-1372.5 939.5,-1372.5 939.5,-1342.5 673.5,-1342.5"/>
<text text-anchor="start" x="680.5" y="-1353.9" font-family="Arial" font-size="14.00" fill="#000000">driverEmail </text>
<text text-anchor="start" x="754.3766" y="-1353.9" font-family="Arial" font-size="14.00" fill="#666666">[varchar(256)]</text>
<polygon fill="none" stroke="#000000" points="673.5,-1312.5 673.5,-1342.5 939.5,-1342.5 939.5,-1312.5 673.5,-1312.5"/>
<text text-anchor="start" x="680.5" y="-1323.9" font-family="Arial" font-size="14.00" fill="#000000">driverPhoneNumber </text>
<text text-anchor="start" x="809.6262" y="-1323.9" font-family="Arial" font-size="14.00" fill="#666666">[varchar(32)]</text>
<polygon fill="none" stroke="#000000" points="673.5,-1282.5 673.5,-1312.5 939.5,-1312.5 939.5,-1282.5 673.5,-1282.5"/>
<text text-anchor="start" x="680.5" y="-1293.9" font-family="Arial" font-size="14.00" fill="#000000">driverAddress </text>
<text text-anchor="start" x="770.7286" y="-1293.9" font-family="Arial" font-size="14.00" fill="#666666">[varchar(256)]</text>
<polygon fill="none" stroke="#000000" points="673.5,-1252.5 673.5,-1282.5 939.5,-1282.5 939.5,-1252.5 673.5,-1252.5"/>
<text text-anchor="start" x="680.5" y="-1263.9" font-family="Arial" font-size="14.00" fill="#000000">driverZipCode </text>
<text text-anchor="start" x="772.2798" y="-1263.9" font-family="Arial" font-size="14.00" fill="#666666">[varchar(16)]</text>
<polygon fill="none" stroke="#000000" points="673.5,-1222.5 673.5,-1252.5 939.5,-1252.5 939.5,-1222.5 673.5,-1222.5"/>
<text text-anchor="start" x="680.5" y="-1233.9" font-family="Arial" font-size="14.00" fill="#000000">driverAddressCity </text>
<text text-anchor="start" x="794.8324" y="-1233.9" font-family="Arial" font-size="14.00" fill="#666666">[varchar(256)]</text>
<polygon fill="none" stroke="#000000" points="673.5,-1192.5 673.5,-1222.5 939.5,-1222.5 939.5,-1192.5 673.5,-1192.5"/>
<text text-anchor="start" x="680.5" y="-1203.9" font-family="Arial" font-size="14.00" fill="#000000">driverCountry </text>
<text text-anchor="start" x="768.3892" y="-1203.9" font-family="Arial" font-size="14.00" fill="#666666">[varchar(256)]</text>
<polygon fill="none" stroke="#000000" points="673.5,-1162.5 673.5,-1192.5 939.5,-1192.5 939.5,-1162.5 673.5,-1162.5"/>
<text text-anchor="start" x="680.5" y="-1173.9" font-family="Arial" font-size="14.00" fill="#000000">driverHasCard </text>
<text text-anchor="start" x="774.6052" y="-1173.9" font-family="Arial" font-size="14.00" fill="#666666">[boolean]</text>
<polygon fill="none" stroke="#000000" points="673.5,-1132.5 673.5,-1162.5 939.5,-1162.5 939.5,-1132.5 673.5,-1132.5"/>
<text text-anchor="start" x="680.5" y="-1143.9" font-family="Arial" font-size="14.00" fill="#000000">driverCardValidTo </text>
<text text-anchor="start" x="797.1662" y="-1143.9" font-family="Arial" font-size="14.00" fill="#666666">[date]</text>
<polygon fill="none" stroke="#000000" points="673.5,-1102.5 673.5,-1132.5 939.5,-1132.5 939.5,-1102.5 673.5,-1102.5"/>
<text text-anchor="start" x="680.5" y="-1113.9" font-family="Arial" font-size="14.00" fill="#000000">driverCardNumber </text>
<text text-anchor="start" x="799.4916" y="-1113.9" font-family="Arial" font-size="14.00" fill="#666666">[varchar(256)]</text>
<polygon fill="none" stroke="#000000" points="673.5,-1072.5 673.5,-1102.5 939.5,-1102.5 939.5,-1072.5 673.5,-1072.5"/>
<text text-anchor="start" x="680.5" y="-1083.9" font-family="Arial" font-size="14.00" fill="#000000">driverKeyNumber </text>
<text text-anchor="start" x="793.2784" y="-1083.9" font-family="Arial" font-size="14.00" fill="#666666">[varchar(256)]</text>
<polygon fill="none" stroke="#000000" points="673.5,-1042.5 673.5,-1072.5 939.5,-1072.5 939.5,-1042.5 673.5,-1042.5"/>
<text text-anchor="start" x="680.5" y="-1053.9" font-family="Arial" font-size="14.00" fill="#000000">createdAt </text>
<text text-anchor="start" x="744.2994" y="-1053.9" font-family="Arial" font-size="14.00" fill="#666666">[timestamp without time zone]</text>
<polygon fill="none" stroke="#000000" points="673.5,-1012.5 673.5,-1042.5 939.5,-1042.5 939.5,-1012.5 673.5,-1012.5"/>
<text text-anchor="start" x="680.0779" y="-1023.9" font-family="Arial" font-size="14.00" fill="#000000">updatedAt </text>
<text text-anchor="start" x="747.7819" y="-1023.9" font-family="Arial" font-size="14.00" fill="#666666">[timestamp without time zone]</text>
<polygon fill="none" stroke="#000000" points="673.5,-982.5 673.5,-1012.5 939.5,-1012.5 939.5,-982.5 673.5,-982.5"/>
<text text-anchor="start" x="680.5" y="-993.9" font-family="Arial" font-size="14.00" fill="#000000">storeID </text>
<text text-anchor="start" x="729.5042" y="-993.9" font-family="Arial" font-size="14.00" fill="#666666">[integer]</text>
<polygon fill="none" stroke="#000000" points="673.5,-952.5 673.5,-982.5 939.5,-982.5 939.5,-952.5 673.5,-952.5"/>
<text text-anchor="start" x="680.5" y="-963.9" font-family="Arial" font-size="14.00" fill="#000000">billedAmount </text>
<text text-anchor="start" x="765.2938" y="-963.9" font-family="Arial" font-size="14.00" fill="#666666">[real]</text>
<polygon fill="none" stroke="#000000" points="673.5,-922.5 673.5,-952.5 939.5,-952.5 939.5,-922.5 673.5,-922.5"/>
<text text-anchor="start" x="680.5" y="-933.9" font-family="Arial" font-size="14.00" fill="#000000">currency </text>
<text text-anchor="start" x="738.0596" y="-933.9" font-family="Arial" font-size="14.00" fill="#666666">[varchar]</text>
<polygon fill="none" stroke="#000000" stroke-width="3" points="672,-921.5 672,-1769.5 941,-1769.5 941,-921.5 672,-921.5"/>
</g>
<!-- public.employees -->
<g id="node3" class="node">
<title>public.employees</title>
<polygon fill="#efefef" stroke="transparent" points="43.5,-597.5 43.5,-632.5 340.5,-632.5 340.5,-597.5 43.5,-597.5"/>
<polygon fill="none" stroke="#000000" points="43.5,-597.5 43.5,-632.5 340.5,-632.5 340.5,-597.5 43.5,-597.5"/>
<text text-anchor="start" x="58.7027" y="-610.3" font-family="Arial Bold" font-size="18.00" fill="#000000">public.employees</text>
<text text-anchor="start" x="197.7293" y="-610.3" font-family="Arial" font-size="14.00" fill="#000000">    </text>
<text text-anchor="start" x="231.9341" y="-610.3" font-family="Arial" font-size="14.00" fill="#666666">[BASE TABLE]</text>
<polygon fill="none" stroke="#000000" points="43.5,-567.5 43.5,-597.5 340.5,-597.5 340.5,-567.5 43.5,-567.5"/>
<text text-anchor="start" x="50.5" y="-578.9" font-family="Arial" font-size="14.00" fill="#000000">userID    </text>
<text text-anchor="start" x="125.9278" y="-578.9" font-family="Arial" font-size="14.00" fill="#666666">[integer]</text>
<polygon fill="none" stroke="#000000" points="43.5,-537.5 43.5,-567.5 340.5,-567.5 340.5,-537.5 43.5,-537.5"/>
<text text-anchor="start" x="50.5" y="-548.9" font-family="Arial" font-size="14.00" fill="#000000">employeeID    </text>
<text text-anchor="start" x="159.3822" y="-548.9" font-family="Arial" font-size="14.00" fill="#666666">[integer]</text>
<polygon fill="none" stroke="#000000" points="43.5,-507.5 43.5,-537.5 340.5,-537.5 340.5,-507.5 43.5,-507.5"/>
<text text-anchor="start" x="50.5" y="-518.9" font-family="Arial" font-size="14.00" fill="#000000">shortUserName    </text>
<text text-anchor="start" x="182.7034" y="-518.9" font-family="Arial" font-size="14.00" fill="#666666">[varchar(16)]</text>
<polygon fill="none" stroke="#000000" points="43.5,-477.5 43.5,-507.5 340.5,-507.5 340.5,-477.5 43.5,-477.5"/>
<text text-anchor="start" x="50.5" y="-488.9" font-family="Arial" font-size="14.00" fill="#000000">employmentNumber    </text>
<text text-anchor="start" x="210.7118" y="-488.9" font-family="Arial" font-size="14.00" fill="#666666">[varchar(128)]</text>
<polygon fill="none" stroke="#000000" points="43.5,-447.5 43.5,-477.5 340.5,-477.5 340.5,-447.5 43.5,-447.5"/>
<text text-anchor="start" x="50.5" y="-458.9" font-family="Arial" font-size="14.00" fill="#000000">employeePersonalNumber    </text>
<text text-anchor="start" x="250.3948" y="-458.9" font-family="Arial" font-size="14.00" fill="#666666">[varchar(16)]</text>
<polygon fill="none" stroke="#000000" points="43.5,-417.5 43.5,-447.5 340.5,-447.5 340.5,-417.5 43.5,-417.5"/>
<text text-anchor="start" x="50.5" y="-428.9" font-family="Arial" font-size="14.00" fill="#000000">signature    </text>
<text text-anchor="start" x="142.2756" y="-428.9" font-family="Arial" font-size="14.00" fill="#666666">[varchar(4)]</text>
<polygon fill="none" stroke="#000000" points="43.5,-387.5 43.5,-417.5 340.5,-417.5 340.5,-387.5 43.5,-387.5"/>
<text text-anchor="start" x="50.5" y="-398.9" font-family="Arial" font-size="14.00" fill="#000000">employeeHourlyRate    </text>
<text text-anchor="start" x="215.3864" y="-398.9" font-family="Arial" font-size="14.00" fill="#666666">[real]</text>
<polygon fill="none" stroke="#000000" points="43.5,-357.5 43.5,-387.5 340.5,-387.5 340.5,-357.5 43.5,-357.5"/>
<text text-anchor="start" x="50.5" y="-368.9" font-family="Arial" font-size="14.00" fill="#000000">employeeHourlyRateCurrency    </text>
<text text-anchor="start" x="272.162" y="-368.9" font-family="Arial" font-size="14.00" fill="#666666">[varchar]</text>
<polygon fill="none" stroke="#000000" points="43.5,-327.5 43.5,-357.5 340.5,-357.5 340.5,-327.5 43.5,-327.5"/>
<text text-anchor="start" x="50.5" y="-338.9" font-family="Arial" font-size="14.00" fill="#000000">employeePin    </text>
<text text-anchor="start" x="165.6108" y="-338.9" font-family="Arial" font-size="14.00" fill="#666666">[varchar(4)]</text>
<polygon fill="none" stroke="#000000" points="43.5,-297.5 43.5,-327.5 340.5,-327.5 340.5,-297.5 43.5,-297.5"/>
<text text-anchor="start" x="50.5" y="-308.9" font-family="Arial" font-size="14.00" fill="#000000">employeeComment    </text>
<text text-anchor="start" x="206.0512" y="-308.9" font-family="Arial" font-size="14.00" fill="#666666">[varchar]</text>
<polygon fill="none" stroke="#000000" points="43.5,-267.5 43.5,-297.5 340.5,-297.5 340.5,-267.5 43.5,-267.5"/>
<text text-anchor="start" x="50.5" y="-278.9" font-family="Arial" font-size="14.00" fill="#000000">employeeActive    </text>
<text text-anchor="start" x="183.5014" y="-278.9" font-family="Arial" font-size="14.00" fill="#666666">[boolean]</text>
<polygon fill="none" stroke="#000000" points="43.5,-237.5 43.5,-267.5 340.5,-267.5 340.5,-237.5 43.5,-237.5"/>
<text text-anchor="start" x="50.5" y="-248.9" font-family="Arial" font-size="14.00" fill="#000000">createdAt    </text>
<text text-anchor="start" x="144.6136" y="-248.9" font-family="Arial" font-size="14.00" fill="#666666">[timestamp without time zone]</text>
<polygon fill="none" stroke="#000000" points="43.5,-207.5 43.5,-237.5 340.5,-237.5 340.5,-207.5 43.5,-207.5"/>
<text text-anchor="start" x="50.4208" y="-218.9" font-family="Arial" font-size="14.00" fill="#000000">updatedAt    </text>
<text text-anchor="start" x="148.439" y="-218.9" font-family="Arial" font-size="14.00" fill="#666666">[timestamp without time zone]</text>
</g>
<!-- public.bills&#45;&gt;public.employees -->
<g id="edge2" class="edge">
<title>public.bills:employeeID&#45;&gt;public.employees:employeeID</title>
<path fill="none" stroke="#000000" d="M663.2377,-1657.3915C293.1357,-1649.4687 487.0112,-1209.271 391.5,-841 375.1557,-777.9798 405.6051,-552.5 340.5,-552.5"/>
<polygon fill="#000000" stroke="#000000" points="663.5006,-1657.3942 673.4524,-1661.9997 668.5003,-1657.4471 673.5,-1657.5 673.5,-1657.5 673.5,-1657.5 668.5003,-1657.4471 673.5476,-1653.0003 663.5006,-1657.3942 663.5006,-1657.3942"/>
<text text-anchor="start" x="339.7285" y="-1667.5" font-family="Arial" font-size="10.00" fill="#000000">FOREIGN KEY (&quot;employeeID&quot;) REFERENCES employees(&quot;employeeID&quot;)</text>
</g>
<!-- public.drivers -->
<g id="node4" class="node">
<title>public.drivers</title>
<polygon fill="#efefef" stroke="transparent" points="444.5,-747.5 444.5,-782.5 741.5,-782.5 741.5,-747.5 444.5,-747.5"/>
<polygon fill="none" stroke="#000000" points="444.5,-747.5 444.5,-782.5 741.5,-782.5 741.5,-747.5 444.5,-747.5"/>
<text text-anchor="start" x="476.2159" y="-760.3" font-family="Arial Bold" font-size="18.00" fill="#000000">public.drivers</text>
<text text-anchor="start" x="582.2161" y="-760.3" font-family="Arial" font-size="14.00" fill="#000000">    </text>
<text text-anchor="start" x="616.4209" y="-760.3" font-family="Arial" font-size="14.00" fill="#666666">[BASE TABLE]</text>
<polygon fill="none" stroke="#000000" points="444.5,-717.5 444.5,-747.5 741.5,-747.5 741.5,-717.5 444.5,-717.5"/>
<text text-anchor="start" x="451.5" y="-728.9" font-family="Arial" font-size="14.00" fill="#000000">driverID    </text>
<text text-anchor="start" x="534.695" y="-728.9" font-family="Arial" font-size="14.00" fill="#666666">[integer]</text>
<polygon fill="none" stroke="#000000" points="444.5,-687.5 444.5,-717.5 741.5,-717.5 741.5,-687.5 444.5,-687.5"/>
<text text-anchor="start" x="451.5" y="-698.9" font-family="Arial" font-size="14.00" fill="#000000">customerOrgNumber    </text>
<text text-anchor="start" x="616.3738" y="-698.9" font-family="Arial" font-size="14.00" fill="#666666">[varchar(11)]</text>
<polygon fill="none" stroke="#000000" points="444.5,-657.5 444.5,-687.5 741.5,-687.5 741.5,-657.5 444.5,-657.5"/>
<text text-anchor="start" x="451.5" y="-668.9" font-family="Arial" font-size="14.00" fill="#000000">driverExternalNumber    </text>
<text text-anchor="start" x="621.8156" y="-668.9" font-family="Arial" font-size="14.00" fill="#666666">[varchar(256)]</text>
<polygon fill="none" stroke="#000000" points="444.5,-627.5 444.5,-657.5 741.5,-657.5 741.5,-627.5 444.5,-627.5"/>
<text text-anchor="start" x="451.5" y="-638.9" font-family="Arial" font-size="14.00" fill="#000000">companyReference    </text>
<text text-anchor="start" x="607.0666" y="-638.9" font-family="Arial" font-size="14.00" fill="#666666">[varchar(255)]</text>
<polygon fill="none" stroke="#000000" points="444.5,-597.5 444.5,-627.5 741.5,-627.5 741.5,-597.5 444.5,-597.5"/>
<text text-anchor="start" x="451.5" y="-608.9" font-family="Arial" font-size="14.00" fill="#000000">driverGDPRAccept    </text>
<text text-anchor="start" x="603.9306" y="-608.9" font-family="Arial" font-size="14.00" fill="#666666">[boolean]</text>
<polygon fill="none" stroke="#000000" points="444.5,-567.5 444.5,-597.5 741.5,-597.5 741.5,-567.5 444.5,-567.5"/>
<text text-anchor="start" x="451.5" y="-578.9" font-family="Arial" font-size="14.00" fill="#000000">driverISWarrantyDriver    </text>
<text text-anchor="start" x="628.0162" y="-578.9" font-family="Arial" font-size="14.00" fill="#666666">[boolean]</text>
<polygon fill="none" stroke="#000000" points="444.5,-537.5 444.5,-567.5 741.5,-567.5 741.5,-537.5 444.5,-537.5"/>
<text text-anchor="start" x="451.5" y="-548.9" font-family="Arial" font-size="14.00" fill="#000000">driverAcceptsMarketing    </text>
<text text-anchor="start" x="631.939" y="-548.9" font-family="Arial" font-size="14.00" fill="#666666">[boolean]</text>
<polygon fill="none" stroke="#000000" points="444.5,-507.5 444.5,-537.5 741.5,-537.5 741.5,-507.5 444.5,-507.5"/>
<text text-anchor="start" x="451.5" y="-518.9" font-family="Arial" font-size="14.00" fill="#000000">driverFirstName    </text>
<text text-anchor="start" x="585.2406" y="-518.9" font-family="Arial" font-size="14.00" fill="#666666">[varchar(128)]</text>
<polygon fill="none" stroke="#000000" points="444.5,-477.5 444.5,-507.5 741.5,-507.5 741.5,-477.5 444.5,-477.5"/>
<text text-anchor="start" x="451.5" y="-488.9" font-family="Arial" font-size="14.00" fill="#000000">driverLastName    </text>
<text text-anchor="start" x="584.486" y="-488.9" font-family="Arial" font-size="14.00" fill="#666666">[varchar(128)]</text>
<polygon fill="none" stroke="#000000" points="444.5,-447.5 444.5,-477.5 741.5,-477.5 741.5,-447.5 444.5,-447.5"/>
<text text-anchor="start" x="451.5" y="-458.9" font-family="Arial" font-size="14.00" fill="#000000">driverEmail    </text>
<text text-anchor="start" x="555.6908" y="-458.9" font-family="Arial" font-size="14.00" fill="#666666">[varchar(256)]</text>
<polygon fill="none" stroke="#000000" points="444.5,-417.5 444.5,-447.5 741.5,-447.5 741.5,-417.5 444.5,-417.5"/>
<text text-anchor="start" x="451.5" y="-428.9" font-family="Arial" font-size="14.00" fill="#000000">driverPhoneNumber    </text>
<text text-anchor="start" x="610.9404" y="-428.9" font-family="Arial" font-size="14.00" fill="#666666">[varchar(32)]</text>
<polygon fill="none" stroke="#000000" points="444.5,-387.5 444.5,-417.5 741.5,-417.5 741.5,-387.5 444.5,-387.5"/>
<text text-anchor="start" x="451.5" y="-398.9" font-family="Arial" font-size="14.00" fill="#000000">driverAddress    </text>
<text text-anchor="start" x="572.0428" y="-398.9" font-family="Arial" font-size="14.00" fill="#666666">[varchar(256)]</text>
<polygon fill="none" stroke="#000000" points="444.5,-357.5 444.5,-387.5 741.5,-387.5 741.5,-357.5 444.5,-357.5"/>
<text text-anchor="start" x="451.5" y="-368.9" font-family="Arial" font-size="14.00" fill="#000000">driverZipCode    </text>
<text text-anchor="start" x="573.594" y="-368.9" font-family="Arial" font-size="14.00" fill="#666666">[varchar(16)]</text>
<polygon fill="none" stroke="#000000" points="444.5,-327.5 444.5,-357.5 741.5,-357.5 741.5,-327.5 444.5,-327.5"/>
<text text-anchor="start" x="451.5" y="-338.9" font-family="Arial" font-size="14.00" fill="#000000">driverAddressCity    </text>
<text text-anchor="start" x="596.1466" y="-338.9" font-family="Arial" font-size="14.00" fill="#666666">[varchar(256)]</text>
<polygon fill="none" stroke="#000000" points="444.5,-297.5 444.5,-327.5 741.5,-327.5 741.5,-297.5 444.5,-297.5"/>
<text text-anchor="start" x="451.5" y="-308.9" font-family="Arial" font-size="14.00" fill="#000000">driverCountry    </text>
<text text-anchor="start" x="569.7034" y="-308.9" font-family="Arial" font-size="14.00" fill="#666666">[varchar(256)]</text>
<polygon fill="none" stroke="#000000" points="444.5,-267.5 444.5,-297.5 741.5,-297.5 741.5,-267.5 444.5,-267.5"/>
<text text-anchor="start" x="451.5" y="-278.9" font-family="Arial" font-size="14.00" fill="#000000">driverHasCard    </text>
<text text-anchor="start" x="575.9194" y="-278.9" font-family="Arial" font-size="14.00" fill="#666666">[boolean]</text>
<polygon fill="none" stroke="#000000" points="444.5,-237.5 444.5,-267.5 741.5,-267.5 741.5,-237.5 444.5,-237.5"/>
<text text-anchor="start" x="451.5" y="-248.9" font-family="Arial" font-size="14.00" fill="#000000">driverCardValidTo    </text>
<text text-anchor="start" x="598.4804" y="-248.9" font-family="Arial" font-size="14.00" fill="#666666">[date]</text>
<polygon fill="none" stroke="#000000" points="444.5,-207.5 444.5,-237.5 741.5,-237.5 741.5,-207.5 444.5,-207.5"/>
<text text-anchor="start" x="451.5" y="-218.9" font-family="Arial" font-size="14.00" fill="#000000">driverCardNumber    </text>
<text text-anchor="start" x="600.8058" y="-218.9" font-family="Arial" font-size="14.00" fill="#666666">[varchar(256)]</text>
<polygon fill="none" stroke="#000000" points="444.5,-177.5 444.5,-207.5 741.5,-207.5 741.5,-177.5 444.5,-177.5"/>
<text text-anchor="start" x="451.5" y="-188.9" font-family="Arial" font-size="14.00" fill="#000000">driverKeyNumber    </text>
<text text-anchor="start" x="594.5926" y="-188.9" font-family="Arial" font-size="14.00" fill="#666666">[varchar(256)]</text>
<polygon fill="none" stroke="#000000" points="444.5,-147.5 444.5,-177.5 741.5,-177.5 741.5,-147.5 444.5,-147.5"/>
<text text-anchor="start" x="451.5" y="-158.9" font-family="Arial" font-size="14.00" fill="#000000">driverNotesShared    </text>
<text text-anchor="start" x="602.3878" y="-158.9" font-family="Arial" font-size="14.00" fill="#666666">[varchar]</text>
<polygon fill="none" stroke="#000000" points="444.5,-117.5 444.5,-147.5 741.5,-147.5 741.5,-117.5 444.5,-117.5"/>
<text text-anchor="start" x="451.5" y="-128.9" font-family="Arial" font-size="14.00" fill="#000000">driverNotes    </text>
<text text-anchor="start" x="557.2602" y="-128.9" font-family="Arial" font-size="14.00" fill="#666666">[varchar]</text>
<polygon fill="none" stroke="#000000" points="444.5,-87.5 444.5,-117.5 741.5,-117.5 741.5,-87.5 444.5,-87.5"/>
<text text-anchor="start" x="451.5" y="-98.9" font-family="Arial" font-size="14.00" fill="#000000">createdAt    </text>
<text text-anchor="start" x="545.6136" y="-98.9" font-family="Arial" font-size="14.00" fill="#666666">[timestamp without time zone]</text>
<polygon fill="none" stroke="#000000" points="444.5,-57.5 444.5,-87.5 741.5,-87.5 741.5,-57.5 444.5,-57.5"/>
<text text-anchor="start" x="451.4208" y="-68.9" font-family="Arial" font-size="14.00" fill="#000000">updatedAt    </text>
<text text-anchor="start" x="549.439" y="-68.9" font-family="Arial" font-size="14.00" fill="#666666">[timestamp without time zone]</text>
</g>
<!-- public.bills&#45;&gt;public.drivers -->
<g id="edge3" class="edge">
<title>public.bills:driverID&#45;&gt;public.drivers:driverID</title>
<path fill="none" stroke="#000000" d="M663.3667,-1537.3369C383.7435,-1528.192 543.7564,-1136.4871 673.5,-877 690.3947,-843.2105 724.6053,-859.7895 741.5,-826 760.0842,-788.8316 783.0556,-732.5 741.5,-732.5"/>
<polygon fill="#000000" stroke="#000000" points="663.5013,-1537.339 673.4275,-1541.9994 668.5006,-1537.4195 673.5,-1537.5 673.5,-1537.5 673.5,-1537.5 668.5006,-1537.4195 673.5725,-1533.0006 663.5013,-1537.339 663.5013,-1537.339"/>
<text text-anchor="start" x="394.2505" y="-1547.5" font-family="Arial" font-size="10.00" fill="#000000">FOREIGN KEY (&quot;driverID&quot;) REFERENCES drivers(&quot;driverID&quot;)</text>
</g>
<!-- public.companycustomers -->
<g id="node5" class="node">
<title>public.companycustomers</title>
<polygon fill="#efefef" stroke="transparent" points="845.5,-552.5 845.5,-587.5 1194.5,-587.5 1194.5,-552.5 845.5,-552.5"/>
<polygon fill="none" stroke="#000000" points="845.5,-552.5 845.5,-587.5 1194.5,-587.5 1194.5,-552.5 845.5,-552.5"/>
<text text-anchor="start" x="852.2003" y="-565.3" font-family="Arial Bold" font-size="18.00" fill="#000000">public.companycustomers</text>
<text text-anchor="start" x="1060.2317" y="-565.3" font-family="Arial" font-size="14.00" fill="#000000">    </text>
<text text-anchor="start" x="1094.4365" y="-565.3" font-family="Arial" font-size="14.00" fill="#666666">[BASE TABLE]</text>
<polygon fill="none" stroke="#000000" points="845.5,-522.5 845.5,-552.5 1194.5,-552.5 1194.5,-522.5 845.5,-522.5"/>
<text text-anchor="start" x="852.5" y="-533.9" font-family="Arial" font-size="14.00" fill="#000000">customerOrgNumber    </text>
<text text-anchor="start" x="1017.3738" y="-533.9" font-family="Arial" font-size="14.00" fill="#666666">[varchar(11)]</text>
<polygon fill="none" stroke="#000000" points="845.5,-492.5 845.5,-522.5 1194.5,-522.5 1194.5,-492.5 845.5,-492.5"/>
<text text-anchor="start" x="852.5" y="-503.9" font-family="Arial" font-size="14.00" fill="#000000">customerCompanyName    </text>
<text text-anchor="start" x="1041.4944" y="-503.9" font-family="Arial" font-size="14.00" fill="#666666">[varchar(255)]</text>
<polygon fill="none" stroke="#000000" points="845.5,-462.5 845.5,-492.5 1194.5,-492.5 1194.5,-462.5 845.5,-462.5"/>
<text text-anchor="start" x="852.5" y="-473.9" font-family="Arial" font-size="14.00" fill="#000000">companyAddress    </text>
<text text-anchor="start" x="994.8408" y="-473.9" font-family="Arial" font-size="14.00" fill="#666666">[varchar(256)]</text>
<polygon fill="none" stroke="#000000" points="845.5,-432.5 845.5,-462.5 1194.5,-462.5 1194.5,-432.5 845.5,-432.5"/>
<text text-anchor="start" x="852.5" y="-443.9" font-family="Arial" font-size="14.00" fill="#000000">companyZipCode    </text>
<text text-anchor="start" x="996.392" y="-443.9" font-family="Arial" font-size="14.00" fill="#666666">[varchar(16)]</text>
<polygon fill="none" stroke="#000000" points="845.5,-402.5 845.5,-432.5 1194.5,-432.5 1194.5,-402.5 845.5,-402.5"/>
<text text-anchor="start" x="852.5" y="-413.9" font-family="Arial" font-size="14.00" fill="#000000">companyEmail    </text>
<text text-anchor="start" x="978.4888" y="-413.9" font-family="Arial" font-size="14.00" fill="#666666">[varchar(256)]</text>
<polygon fill="none" stroke="#000000" points="845.5,-372.5 845.5,-402.5 1194.5,-402.5 1194.5,-372.5 845.5,-372.5"/>
<text text-anchor="start" x="852.5" y="-383.9" font-family="Arial" font-size="14.00" fill="#000000">companyPhone    </text>
<text text-anchor="start" x="983.9628" y="-383.9" font-family="Arial" font-size="14.00" fill="#666666">[varchar(16)]</text>
<polygon fill="none" stroke="#000000" points="845.5,-342.5 845.5,-372.5 1194.5,-372.5 1194.5,-342.5 845.5,-342.5"/>
<text text-anchor="start" x="852.5" y="-353.9" font-family="Arial" font-size="14.00" fill="#000000">companyAddressCity    </text>
<text text-anchor="start" x="1018.9446" y="-353.9" font-family="Arial" font-size="14.00" fill="#666666">[varchar(256)]</text>
<polygon fill="none" stroke="#000000" points="845.5,-312.5 845.5,-342.5 1194.5,-342.5 1194.5,-312.5 845.5,-312.5"/>
<text text-anchor="start" x="852.5" y="-323.9" font-family="Arial" font-size="14.00" fill="#000000">companyCountry    </text>
<text text-anchor="start" x="992.5014" y="-323.9" font-family="Arial" font-size="14.00" fill="#666666">[varchar(256)]</text>
<polygon fill="none" stroke="#000000" points="845.5,-282.5 845.5,-312.5 1194.5,-312.5 1194.5,-282.5 845.5,-282.5"/>
<text text-anchor="start" x="852.5" y="-293.9" font-family="Arial" font-size="14.00" fill="#000000">createdAt    </text>
<text text-anchor="start" x="946.6136" y="-293.9" font-family="Arial" font-size="14.00" fill="#666666">[timestamp without time zone]</text>
<polygon fill="none" stroke="#000000" points="845.5,-252.5 845.5,-282.5 1194.5,-282.5 1194.5,-252.5 845.5,-252.5"/>
<text text-anchor="start" x="852.5" y="-263.9" font-family="Arial" font-size="14.00" fill="#000000">updatedAt    </text>
<text text-anchor="start" x="950.5182" y="-263.9" font-family="Arial" font-size="14.00" fill="#666666">[timestamp without time zone]</text>
</g>
<!-- public.bills&#45;&gt;public.companycustomers -->
<g id="edge4" class="edge">
<title>public.bills:customerOrgNumber&#45;&gt;public.companycustomers:customerOrgNumber</title>
<path fill="none" stroke="#000000" d="M949.5355,-1507.3421C1214.1491,-1498.8465 989.7354,-1149.2049 939.5,-877 925.2928,-800.0171 767.2171,-537.5 845.5,-537.5"/>
<polygon fill="#000000" stroke="#000000" points="949.4988,-1507.3426 939.4292,-1503.0006 944.4994,-1507.4213 939.5,-1507.5 939.5,-1507.5 939.5,-1507.5 944.4994,-1507.4213 939.5708,-1511.9994 949.4988,-1507.3426 949.4988,-1507.3426"/>
<text text-anchor="start" x="946.5665" y="-1517.5" font-family="Arial" font-size="10.00" fill="#000000">FOREIGN KEY (&quot;customerOrgNumber&quot;) REFERENCES companycustomers(&quot;customerOrgNumber&quot;)</text>
</g>
<!-- public.stores -->
<g id="node6" class="node">
<title>public.stores</title>
<polygon fill="#efefef" stroke="transparent" points="1298.5,-762.5 1298.5,-797.5 1595.5,-797.5 1595.5,-762.5 1298.5,-762.5"/>
<polygon fill="none" stroke="#000000" points="1298.5,-762.5 1298.5,-797.5 1595.5,-797.5 1595.5,-762.5 1298.5,-762.5"/>
<text text-anchor="start" x="1332.708" y="-775.3" font-family="Arial Bold" font-size="18.00" fill="#000000">public.stores</text>
<text text-anchor="start" x="1433.724" y="-775.3" font-family="Arial" font-size="14.00" fill="#000000">    </text>
<text text-anchor="start" x="1467.9288" y="-775.3" font-family="Arial" font-size="14.00" fill="#666666">[BASE TABLE]</text>
<polygon fill="none" stroke="#000000" points="1298.5,-732.5 1298.5,-762.5 1595.5,-762.5 1595.5,-732.5 1298.5,-732.5"/>
<text text-anchor="start" x="1305.5" y="-743.9" font-family="Arial" font-size="14.00" fill="#000000">storeID    </text>
<text text-anchor="start" x="1384.8184" y="-743.9" font-family="Arial" font-size="14.00" fill="#666666">[integer]</text>
<polygon fill="none" stroke="#000000" points="1298.5,-702.5 1298.5,-732.5 1595.5,-732.5 1595.5,-702.5 1298.5,-702.5"/>
<text text-anchor="start" x="1305.5" y="-713.9" font-family="Arial" font-size="14.00" fill="#000000">storeOrgNumber    </text>
<text text-anchor="start" x="1443.9306" y="-713.9" font-family="Arial" font-size="14.00" fill="#666666">[varchar(11)]</text>
<polygon fill="none" stroke="#000000" points="1298.5,-672.5 1298.5,-702.5 1595.5,-702.5 1595.5,-672.5 1298.5,-672.5"/>
<text text-anchor="start" x="1305.5" y="-683.9" font-family="Arial" font-size="14.00" fill="#000000">storeName    </text>
<text text-anchor="start" x="1408.1536" y="-683.9" font-family="Arial" font-size="14.00" fill="#666666">[varchar(128)]</text>
<polygon fill="none" stroke="#000000" points="1298.5,-642.5 1298.5,-672.5 1595.5,-672.5 1595.5,-642.5 1298.5,-642.5"/>
<text text-anchor="start" x="1305.5" y="-653.9" font-family="Arial" font-size="14.00" fill="#000000">storeWebSite    </text>
<text text-anchor="start" x="1423.7174" y="-653.9" font-family="Arial" font-size="14.00" fill="#666666">[varchar]</text>
<polygon fill="none" stroke="#000000" points="1298.5,-612.5 1298.5,-642.5 1595.5,-642.5 1595.5,-612.5 1298.5,-612.5"/>
<text text-anchor="start" x="1305.5" y="-623.9" font-family="Arial" font-size="14.00" fill="#000000">storeVatNumber    </text>
<text text-anchor="start" x="1441.6066" y="-623.9" font-family="Arial" font-size="14.00" fill="#666666">[varchar(32)]</text>
<polygon fill="none" stroke="#000000" points="1298.5,-582.5 1298.5,-612.5 1595.5,-612.5 1595.5,-582.5 1298.5,-582.5"/>
<text text-anchor="start" x="1305.5" y="-593.9" font-family="Arial" font-size="14.00" fill="#000000">storeFSkatt    </text>
<text text-anchor="start" x="1411.2742" y="-593.9" font-family="Arial" font-size="14.00" fill="#666666">[boolean]</text>
<polygon fill="none" stroke="#000000" points="1298.5,-552.5 1298.5,-582.5 1595.5,-582.5 1595.5,-552.5 1298.5,-552.5"/>
<text text-anchor="start" x="1305.5" y="-563.9" font-family="Arial" font-size="14.00" fill="#000000">storeStatus    </text>
<text text-anchor="start" x="1410.5042" y="-563.9" font-family="Arial" font-size="14.00" fill="#666666">[boolean]</text>
<polygon fill="none" stroke="#000000" points="1298.5,-522.5 1298.5,-552.5 1595.5,-552.5 1595.5,-522.5 1298.5,-522.5"/>
<text text-anchor="start" x="1305.5" y="-533.9" font-family="Arial" font-size="14.00" fill="#000000">storeEmail    </text>
<text text-anchor="start" x="1405.8142" y="-533.9" font-family="Arial" font-size="14.00" fill="#666666">[varchar]</text>
<polygon fill="none" stroke="#000000" points="1298.5,-492.5 1298.5,-522.5 1595.5,-522.5 1595.5,-492.5 1298.5,-492.5"/>
<text text-anchor="start" x="1305.5" y="-503.9" font-family="Arial" font-size="14.00" fill="#000000">storePhone    </text>
<text text-anchor="start" x="1411.2882" y="-503.9" font-family="Arial" font-size="14.00" fill="#666666">[varchar]</text>
<polygon fill="none" stroke="#000000" points="1298.5,-462.5 1298.5,-492.5 1595.5,-492.5 1595.5,-462.5 1298.5,-462.5"/>
<text text-anchor="start" x="1305.5" y="-473.9" font-family="Arial" font-size="14.00" fill="#000000">storeAddress    </text>
<text text-anchor="start" x="1422.1662" y="-473.9" font-family="Arial" font-size="14.00" fill="#666666">[varchar]</text>
<polygon fill="none" stroke="#000000" points="1298.5,-432.5 1298.5,-462.5 1595.5,-462.5 1595.5,-432.5 1298.5,-432.5"/>
<text text-anchor="start" x="1305.5" y="-443.9" font-family="Arial" font-size="14.00" fill="#000000">storeZipCode    </text>
<text text-anchor="start" x="1423.7174" y="-443.9" font-family="Arial" font-size="14.00" fill="#666666">[varchar(16)]</text>
<polygon fill="none" stroke="#000000" points="1298.5,-402.5 1298.5,-432.5 1595.5,-432.5 1595.5,-402.5 1298.5,-402.5"/>
<text text-anchor="start" x="1305.5" y="-413.9" font-family="Arial" font-size="14.00" fill="#000000">storeCity    </text>
<text text-anchor="start" x="1394.925" y="-413.9" font-family="Arial" font-size="14.00" fill="#666666">[varchar]</text>
<polygon fill="none" stroke="#000000" points="1298.5,-372.5 1298.5,-402.5 1595.5,-402.5 1595.5,-372.5 1298.5,-372.5"/>
<text text-anchor="start" x="1305.5" y="-383.9" font-family="Arial" font-size="14.00" fill="#000000">storeCountry    </text>
<text text-anchor="start" x="1419.8268" y="-383.9" font-family="Arial" font-size="14.00" fill="#666666">[varchar]</text>
<polygon fill="none" stroke="#000000" points="1298.5,-342.5 1298.5,-372.5 1595.5,-372.5 1595.5,-342.5 1298.5,-342.5"/>
<text text-anchor="start" x="1305.5" y="-353.9" font-family="Arial" font-size="14.00" fill="#000000">storeDescription    </text>
<text text-anchor="start" x="1440.8226" y="-353.9" font-family="Arial" font-size="14.00" fill="#666666">[varchar]</text>
<polygon fill="none" stroke="#000000" points="1298.5,-312.5 1298.5,-342.5 1595.5,-342.5 1595.5,-312.5 1298.5,-312.5"/>
<text text-anchor="start" x="1305.5" y="-323.9" font-family="Arial" font-size="14.00" fill="#000000">storeContactPerson    </text>
<text text-anchor="start" x="1463.4018" y="-323.9" font-family="Arial" font-size="14.00" fill="#666666">[varchar(64)]</text>
<polygon fill="none" stroke="#000000" points="1298.5,-282.5 1298.5,-312.5 1595.5,-312.5 1595.5,-282.5 1298.5,-282.5"/>
<text text-anchor="start" x="1305.5" y="-293.9" font-family="Arial" font-size="14.00" fill="#000000">storeMaxUsers    </text>
<text text-anchor="start" x="1433.8142" y="-293.9" font-family="Arial" font-size="14.00" fill="#666666">[integer]</text>
<polygon fill="none" stroke="#000000" points="1298.5,-252.5 1298.5,-282.5 1595.5,-282.5 1595.5,-252.5 1298.5,-252.5"/>
<text text-anchor="start" x="1305.5" y="-263.9" font-family="Arial" font-size="14.00" fill="#000000">currency    </text>
<text text-anchor="start" x="1393.3738" y="-263.9" font-family="Arial" font-size="14.00" fill="#666666">[varchar]</text>
<polygon fill="none" stroke="#000000" points="1298.5,-222.5 1298.5,-252.5 1595.5,-252.5 1595.5,-222.5 1298.5,-222.5"/>
<text text-anchor="start" x="1305.5" y="-233.9" font-family="Arial" font-size="14.00" fill="#000000">storeAllowCarAPI    </text>
<text text-anchor="start" x="1449.3738" y="-233.9" font-family="Arial" font-size="14.00" fill="#666666">[boolean]</text>
<polygon fill="none" stroke="#000000" points="1298.5,-192.5 1298.5,-222.5 1595.5,-222.5 1595.5,-192.5 1298.5,-192.5"/>
<text text-anchor="start" x="1305.5" y="-203.9" font-family="Arial" font-size="14.00" fill="#000000">storeAllowSendSMS    </text>
<text text-anchor="start" x="1467.2784" y="-203.9" font-family="Arial" font-size="14.00" fill="#666666">[boolean]</text>
<polygon fill="none" stroke="#000000" points="1298.5,-162.5 1298.5,-192.5 1595.5,-192.5 1595.5,-162.5 1298.5,-162.5"/>
<text text-anchor="start" x="1305.5" y="-173.9" font-family="Arial" font-size="14.00" fill="#000000">storeSendSMS    </text>
<text text-anchor="start" x="1433.8394" y="-173.9" font-family="Arial" font-size="14.00" fill="#666666">[boolean]</text>
<polygon fill="none" stroke="#000000" points="1298.5,-132.5 1298.5,-162.5 1595.5,-162.5 1595.5,-132.5 1298.5,-132.5"/>
<text text-anchor="start" x="1305.5" y="-143.9" font-family="Arial" font-size="14.00" fill="#000000">storeUsesCheckin    </text>
<text text-anchor="start" x="1453.2714" y="-143.9" font-family="Arial" font-size="14.00" fill="#666666">[boolean]</text>
<polygon fill="none" stroke="#000000" points="1298.5,-102.5 1298.5,-132.5 1595.5,-132.5 1595.5,-102.5 1298.5,-102.5"/>
<text text-anchor="start" x="1305.5" y="-113.9" font-family="Arial" font-size="14.00" fill="#000000">storeUsesPIN    </text>
<text text-anchor="start" x="1426.0442" y="-113.9" font-family="Arial" font-size="14.00" fill="#666666">[boolean]</text>
<polygon fill="none" stroke="#000000" points="1298.5,-72.5 1298.5,-102.5 1595.5,-102.5 1595.5,-72.5 1298.5,-72.5"/>
<text text-anchor="start" x="1305.5" y="-83.9" font-family="Arial" font-size="14.00" fill="#000000">createdAt    </text>
<text text-anchor="start" x="1399.6136" y="-83.9" font-family="Arial" font-size="14.00" fill="#666666">[timestamp without time zone]</text>
<polygon fill="none" stroke="#000000" points="1298.5,-42.5 1298.5,-72.5 1595.5,-72.5 1595.5,-42.5 1298.5,-42.5"/>
<text text-anchor="start" x="1305.4208" y="-53.9" font-family="Arial" font-size="14.00" fill="#000000">updatedAt    </text>
<text text-anchor="start" x="1403.439" y="-53.9" font-family="Arial" font-size="14.00" fill="#666666">[timestamp without time zone]</text>
</g>
<!-- public.bills&#45;&gt;public.stores -->
<g id="edge5" class="edge">
<title>public.bills:storeID&#45;&gt;public.stores:storeID</title>
<path fill="none" stroke="#000000" d="M949.6559,-997.424C1094.6435,-995.2175 1138.7443,-944.9324 1246.5,-841 1280.7245,-807.9898 1250.9502,-747.5 1298.5,-747.5"/>
<polygon fill="#000000" stroke="#000000" points="949.4997,-997.4251 939.4663,-993.0001 944.4999,-997.4625 939.5,-997.5 939.5,-997.5 939.5,-997.5 944.4999,-997.4625 939.5337,-1001.9999 949.4997,-997.4251 949.4997,-997.4251"/>
<text text-anchor="start" x="946.123" y="-1007.5" font-family="Arial" font-size="10.00" fill="#000000">FOREIGN KEY (&quot;storeID&quot;) REFERENCES stores(&quot;storeID&quot;) ON DELETE CASCADE</text>
</g>
<!-- public.billOrders -->
<g id="node2" class="node">
<title>public.billOrders</title>
<polygon fill="#efefef" stroke="transparent" points="671.5,-1952.5 671.5,-1987.5 941.5,-1987.5 941.5,-1952.5 671.5,-1952.5"/>
<polygon fill="none" stroke="#000000" points="671.5,-1952.5 671.5,-1987.5 941.5,-1987.5 941.5,-1952.5 671.5,-1952.5"/>
<text text-anchor="start" x="678.2175" y="-1965.3" font-family="Arial Bold" font-size="18.00" fill="#000000">public.billOrders</text>
<text text-anchor="start" x="807.2145" y="-1965.3" font-family="Arial" font-size="14.00" fill="#000000">    </text>
<text text-anchor="start" x="841.4193" y="-1965.3" font-family="Arial" font-size="14.00" fill="#666666">[BASE TABLE]</text>
<polygon fill="none" stroke="#000000" points="671.5,-1922.5 671.5,-1952.5 941.5,-1952.5 941.5,-1922.5 671.5,-1922.5"/>
<text text-anchor="start" x="678.5" y="-1933.9" font-family="Arial" font-size="14.00" fill="#000000">billID    </text>
<text text-anchor="start" x="743.8044" y="-1933.9" font-family="Arial" font-size="14.00" fill="#666666">[integer]</text>
<polygon fill="none" stroke="#000000" points="671.5,-1892.5 671.5,-1922.5 941.5,-1922.5 941.5,-1892.5 671.5,-1892.5"/>
<text text-anchor="start" x="678.5" y="-1903.9" font-family="Arial" font-size="14.00" fill="#000000">orderID    </text>
<text text-anchor="start" x="759.371" y="-1903.9" font-family="Arial" font-size="14.00" fill="#666666">[integer]</text>
</g>
<!-- public.billOrders&#45;&gt;public.bills -->
<g id="edge1" class="edge">
<title>public.billOrders:billID&#45;&gt;public.bills:orderID</title>
<path fill="none" stroke="#000000" d="M951.7088,-1936.6591C1039.0122,-1921.8888 1033.7487,-1717.5 939.5,-1717.5"/>
<polygon fill="#000000" stroke="#000000" points="951.4662,-1936.679 941.1305,-1933.0152 946.4831,-1937.0895 941.5,-1937.5 941.5,-1937.5 941.5,-1937.5 946.4831,-1937.0895 941.8695,-1941.9848 951.4662,-1936.679 951.4662,-1936.679"/>
<text text-anchor="start" x="948.5785" y="-1947.5" font-family="Arial" font-size="10.00" fill="#000000">FOREIGN KEY (&quot;billID&quot;) REFERENCES bills(&quot;orderID&quot;) ON DELETE CASCADE</text>
</g>
</g>
</svg>
