<?xml version="1.0" encoding="UTF-8" standalone="no"?>
<!DOCTYPE svg PUBLIC "-//W3C//DTD SVG 1.1//EN"
 "http://www.w3.org/Graphics/SVG/1.1/DTD/svg11.dtd">
<!-- Generated by graphviz version 2.40.1 (20161225.0304)
 -->
<!-- Title: public.localServices Pages: 1 -->
<svg width="2002pt" height="2549pt"
 viewBox="0.00 0.00 2001.50 2549.00" xmlns="http://www.w3.org/2000/svg" xmlns:xlink="http://www.w3.org/1999/xlink">
<g id="graph0" class="graph" transform="scale(1 1) rotate(0) translate(4 2545)">
<title>public.localServices</title>
<polygon fill="#ffffff" stroke="transparent" points="-4,4 -4,-2545 1997.5,-2545 1997.5,4 -4,4"/>
<!-- public.localServices -->
<g id="node1" class="node">
<title>public.localServices</title>
<polygon fill="#efefef" stroke="transparent" points="920,-1582.5 920,-1617.5 1219,-1617.5 1219,-1582.5 920,-1582.5"/>
<polygon fill="none" stroke="#000000" points="920,-1582.5 920,-1617.5 1219,-1617.5 1219,-1582.5 920,-1582.5"/>
<text text-anchor="start" x="926.7095" y="-1595.3" font-family="Arial Bold" font-size="18.00" fill="#000000">public.localServices</text>
<text text-anchor="start" x="1084.7225" y="-1595.3" font-family="Arial" font-size="14.00" fill="#000000">    </text>
<text text-anchor="start" x="1118.9273" y="-1595.3" font-family="Arial" font-size="14.00" fill="#666666">[BASE TABLE]</text>
<polygon fill="none" stroke="#000000" points="920,-1552.5 920,-1582.5 1219,-1582.5 1219,-1552.5 920,-1552.5"/>
<text text-anchor="start" x="927" y="-1563.9" font-family="Arial" font-size="14.00" fill="#000000">localServiceID </text>
<text text-anchor="start" x="1020.3352" y="-1563.9" font-family="Arial" font-size="14.00" fill="#666666">[integer]</text>
<polygon fill="none" stroke="#000000" points="920,-1522.5 920,-1552.5 1219,-1552.5 1219,-1522.5 920,-1522.5"/>
<text text-anchor="start" x="927" y="-1533.9" font-family="Arial" font-size="14.00" fill="#000000">serviceCategoryID </text>
<text text-anchor="start" x="1046.0084" y="-1533.9" font-family="Arial" font-size="14.00" fill="#666666">[integer]</text>
<polygon fill="none" stroke="#000000" points="920,-1492.5 920,-1522.5 1219,-1522.5 1219,-1492.5 920,-1492.5"/>
<text text-anchor="start" x="927" y="-1503.9" font-family="Arial" font-size="14.00" fill="#000000">name </text>
<text text-anchor="start" x="965.899" y="-1503.9" font-family="Arial" font-size="14.00" fill="#666666">[varchar(256)]</text>
<polygon fill="none" stroke="#000000" points="920,-1462.5 920,-1492.5 1219,-1492.5 1219,-1462.5 920,-1462.5"/>
<text text-anchor="start" x="927" y="-1473.9" font-family="Arial" font-size="14.00" fill="#000000">storeID </text>
<text text-anchor="start" x="976.0042" y="-1473.9" font-family="Arial" font-size="14.00" fill="#666666">[integer]</text>
<polygon fill="none" stroke="#000000" points="920,-1432.5 920,-1462.5 1219,-1462.5 1219,-1432.5 920,-1432.5"/>
<text text-anchor="start" x="927" y="-1443.9" font-family="Arial" font-size="14.00" fill="#000000">currency </text>
<text text-anchor="start" x="984.5596" y="-1443.9" font-family="Arial" font-size="14.00" fill="#666666">[varchar(5)]</text>
<polygon fill="none" stroke="#000000" points="920,-1402.5 920,-1432.5 1219,-1432.5 1219,-1402.5 920,-1402.5"/>
<text text-anchor="start" x="927" y="-1413.9" font-family="Arial" font-size="14.00" fill="#000000">cost </text>
<text text-anchor="start" x="956.5638" y="-1413.9" font-family="Arial" font-size="14.00" fill="#666666">[real]</text>
<polygon fill="none" stroke="#000000" points="920,-1372.5 920,-1402.5 1219,-1402.5 1219,-1372.5 920,-1372.5"/>
<text text-anchor="start" x="927" y="-1383.9" font-family="Arial" font-size="14.00" fill="#000000">includeInAutomaticSms </text>
<text text-anchor="start" x="1077.1374" y="-1383.9" font-family="Arial" font-size="14.00" fill="#666666">[boolean]</text>
<polygon fill="none" stroke="#000000" points="920,-1342.5 920,-1372.5 1219,-1372.5 1219,-1342.5 920,-1342.5"/>
<text text-anchor="start" x="927" y="-1353.9" font-family="Arial" font-size="14.00" fill="#000000">hidden </text>
<text text-anchor="start" x="972.9102" y="-1353.9" font-family="Arial" font-size="14.00" fill="#666666">[boolean]</text>
<polygon fill="none" stroke="#000000" points="920,-1312.5 920,-1342.5 1219,-1342.5 1219,-1312.5 920,-1312.5"/>
<text text-anchor="start" x="927" y="-1323.9" font-family="Arial" font-size="14.00" fill="#000000">callInterval </text>
<text text-anchor="start" x="997.7826" y="-1323.9" font-family="Arial" font-size="14.00" fill="#666666">[integer]</text>
<polygon fill="none" stroke="#000000" points="920,-1282.5 920,-1312.5 1219,-1312.5 1219,-1282.5 920,-1282.5"/>
<text text-anchor="start" x="927" y="-1293.9" font-family="Arial" font-size="14.00" fill="#000000">colorForService </text>
<text text-anchor="start" x="1028.8878" y="-1293.9" font-family="Arial" font-size="14.00" fill="#666666">[varchar]</text>
<polygon fill="none" stroke="#000000" points="920,-1252.5 920,-1282.5 1219,-1282.5 1219,-1252.5 920,-1252.5"/>
<text text-anchor="start" x="927" y="-1263.9" font-family="Arial" font-size="14.00" fill="#000000">warrantyCard </text>
<text text-anchor="start" x="1014.8892" y="-1263.9" font-family="Arial" font-size="14.00" fill="#666666">[boolean]</text>
<polygon fill="none" stroke="#000000" points="920,-1222.5 920,-1252.5 1219,-1252.5 1219,-1222.5 920,-1222.5"/>
<text text-anchor="start" x="927" y="-1233.9" font-family="Arial" font-size="14.00" fill="#000000">itemNumber </text>
<text text-anchor="start" x="1007.1066" y="-1233.9" font-family="Arial" font-size="14.00" fill="#666666">[varchar(256)]</text>
<polygon fill="none" stroke="#000000" points="920,-1192.5 920,-1222.5 1219,-1222.5 1219,-1192.5 920,-1192.5"/>
<text text-anchor="start" x="927" y="-1203.9" font-family="Arial" font-size="14.00" fill="#000000">award </text>
<text text-anchor="start" x="969.0056" y="-1203.9" font-family="Arial" font-size="14.00" fill="#666666">[real]</text>
<polygon fill="none" stroke="#000000" points="920,-1162.5 920,-1192.5 1219,-1192.5 1219,-1162.5 920,-1162.5"/>
<text text-anchor="start" x="927" y="-1173.9" font-family="Arial" font-size="14.00" fill="#000000">suppliersArticleNumber </text>
<text text-anchor="start" x="1075.554" y="-1173.9" font-family="Arial" font-size="14.00" fill="#666666">[varchar(256)]</text>
<polygon fill="none" stroke="#000000" points="920,-1132.5 920,-1162.5 1219,-1162.5 1219,-1132.5 920,-1132.5"/>
<text text-anchor="start" x="927" y="-1143.9" font-family="Arial" font-size="14.00" fill="#000000">externalArticleNumber </text>
<text text-anchor="start" x="1069.338" y="-1143.9" font-family="Arial" font-size="14.00" fill="#666666">[varchar(256)]</text>
<polygon fill="none" stroke="#000000" points="920,-1102.5 920,-1132.5 1219,-1132.5 1219,-1102.5 920,-1102.5"/>
<text text-anchor="start" x="927" y="-1113.9" font-family="Arial" font-size="14.00" fill="#000000">day1 </text>
<text text-anchor="start" x="961.2384" y="-1113.9" font-family="Arial" font-size="14.00" fill="#666666">[interval]</text>
<polygon fill="none" stroke="#000000" points="920,-1072.5 920,-1102.5 1219,-1102.5 1219,-1072.5 920,-1072.5"/>
<text text-anchor="start" x="927" y="-1083.9" font-family="Arial" font-size="14.00" fill="#000000">day2 </text>
<text text-anchor="start" x="961.2384" y="-1083.9" font-family="Arial" font-size="14.00" fill="#666666">[interval]</text>
<polygon fill="none" stroke="#000000" points="920,-1042.5 920,-1072.5 1219,-1072.5 1219,-1042.5 920,-1042.5"/>
<text text-anchor="start" x="927" y="-1053.9" font-family="Arial" font-size="14.00" fill="#000000">day3 </text>
<text text-anchor="start" x="961.2384" y="-1053.9" font-family="Arial" font-size="14.00" fill="#666666">[interval]</text>
<polygon fill="none" stroke="#000000" points="920,-1012.5 920,-1042.5 1219,-1042.5 1219,-1012.5 920,-1012.5"/>
<text text-anchor="start" x="927" y="-1023.9" font-family="Arial" font-size="14.00" fill="#000000">day4 </text>
<text text-anchor="start" x="961.2384" y="-1023.9" font-family="Arial" font-size="14.00" fill="#666666">[interval]</text>
<polygon fill="none" stroke="#000000" points="920,-982.5 920,-1012.5 1219,-1012.5 1219,-982.5 920,-982.5"/>
<text text-anchor="start" x="927" y="-993.9" font-family="Arial" font-size="14.00" fill="#000000">day5 </text>
<text text-anchor="start" x="961.2384" y="-993.9" font-family="Arial" font-size="14.00" fill="#666666">[interval]</text>
<polygon fill="none" stroke="#000000" points="920,-952.5 920,-982.5 1219,-982.5 1219,-952.5 920,-952.5"/>
<text text-anchor="start" x="927" y="-963.9" font-family="Arial" font-size="14.00" fill="#000000">createdAt </text>
<text text-anchor="start" x="990.7994" y="-963.9" font-family="Arial" font-size="14.00" fill="#666666">[timestamp without time zone]</text>
<polygon fill="none" stroke="#000000" points="920,-922.5 920,-952.5 1219,-952.5 1219,-922.5 920,-922.5"/>
<text text-anchor="start" x="927" y="-933.9" font-family="Arial" font-size="14.00" fill="#000000">updatedAt </text>
<text text-anchor="start" x="994.704" y="-933.9" font-family="Arial" font-size="14.00" fill="#666666">[timestamp without time zone]</text>
<polygon fill="none" stroke="#000000" stroke-width="3" points="918,-921.5 918,-1619.5 1220,-1619.5 1220,-921.5 918,-921.5"/>
</g>
<!-- public.serviceCategories -->
<g id="node6" class="node">
<title>public.serviceCategories</title>
<polygon fill="#efefef" stroke="transparent" points="691,-477.5 691,-512.5 1028,-512.5 1028,-477.5 691,-477.5"/>
<polygon fill="none" stroke="#000000" points="691,-477.5 691,-512.5 1028,-512.5 1028,-477.5 691,-477.5"/>
<text text-anchor="start" x="697.7051" y="-490.3" font-family="Arial Bold" font-size="18.00" fill="#000000">public.serviceCategories</text>
<text text-anchor="start" x="893.7269" y="-490.3" font-family="Arial" font-size="14.00" fill="#000000">    </text>
<text text-anchor="start" x="927.9317" y="-490.3" font-family="Arial" font-size="14.00" fill="#666666">[BASE TABLE]</text>
<polygon fill="none" stroke="#000000" points="691,-447.5 691,-477.5 1028,-477.5 1028,-447.5 691,-447.5"/>
<text text-anchor="start" x="698" y="-458.9" font-family="Arial" font-size="14.00" fill="#000000">serviceCategoryID    </text>
<text text-anchor="start" x="847.3226" y="-458.9" font-family="Arial" font-size="14.00" fill="#666666">[integer]</text>
<polygon fill="none" stroke="#000000" points="691,-417.5 691,-447.5 1028,-447.5 1028,-417.5 691,-417.5"/>
<text text-anchor="start" x="698" y="-428.9" font-family="Arial" font-size="14.00" fill="#000000">serviceCategoryName    </text>
<text text-anchor="start" x="870.6578" y="-428.9" font-family="Arial" font-size="14.00" fill="#666666">[varchar(256)]</text>
<polygon fill="none" stroke="#000000" points="691,-387.5 691,-417.5 1028,-417.5 1028,-387.5 691,-387.5"/>
<text text-anchor="start" x="698" y="-398.9" font-family="Arial" font-size="14.00" fill="#000000">serviceCategoryDescription    </text>
<text text-anchor="start" x="903.3268" y="-398.9" font-family="Arial" font-size="14.00" fill="#666666">[varchar]</text>
<polygon fill="none" stroke="#000000" points="691,-357.5 691,-387.5 1028,-387.5 1028,-357.5 691,-357.5"/>
<text text-anchor="start" x="698" y="-368.9" font-family="Arial" font-size="14.00" fill="#000000">createdAt    </text>
<text text-anchor="start" x="792.1136" y="-368.9" font-family="Arial" font-size="14.00" fill="#666666">[timestamp without time zone]</text>
<polygon fill="none" stroke="#000000" points="691,-327.5 691,-357.5 1028,-357.5 1028,-327.5 691,-327.5"/>
<text text-anchor="start" x="698" y="-338.9" font-family="Arial" font-size="14.00" fill="#000000">updatedAt    </text>
<text text-anchor="start" x="796.0182" y="-338.9" font-family="Arial" font-size="14.00" fill="#666666">[timestamp without time zone]</text>
</g>
<!-- public.localServices&#45;&gt;public.serviceCategories -->
<g id="edge5" class="edge">
<title>public.localServices:serviceCategoryID&#45;&gt;public.serviceCategories:serviceCategoryID</title>
<path fill="none" stroke="#000000" d="M909.9008,-1537.348C632.1858,-1528.8205 873.1276,-1163.304 920,-877 935.3788,-783.0641 1123.1864,-462.5 1028,-462.5"/>
<polygon fill="#000000" stroke="#000000" points="910.0011,-1537.3494 919.9322,-1541.9995 915.0006,-1537.4247 920,-1537.5 920,-1537.5 920,-1537.5 915.0006,-1537.4247 920.0678,-1533.0005 910.0011,-1537.3494 910.0011,-1537.3494"/>
<text text-anchor="start" x="378.6805" y="-1547.5" font-family="Arial" font-size="10.00" fill="#000000">FOREIGN KEY (&quot;serviceCategoryID&quot;) REFERENCES &quot;serviceCategories&quot;(&quot;serviceCategoryID&quot;) ON DELETE CASCADE</text>
</g>
<!-- public.stores -->
<g id="node7" class="node">
<title>public.stores</title>
<polygon fill="#efefef" stroke="transparent" points="1132,-762.5 1132,-797.5 1429,-797.5 1429,-762.5 1132,-762.5"/>
<polygon fill="none" stroke="#000000" points="1132,-762.5 1132,-797.5 1429,-797.5 1429,-762.5 1132,-762.5"/>
<text text-anchor="start" x="1166.208" y="-775.3" font-family="Arial Bold" font-size="18.00" fill="#000000">public.stores</text>
<text text-anchor="start" x="1267.224" y="-775.3" font-family="Arial" font-size="14.00" fill="#000000">    </text>
<text text-anchor="start" x="1301.4288" y="-775.3" font-family="Arial" font-size="14.00" fill="#666666">[BASE TABLE]</text>
<polygon fill="none" stroke="#000000" points="1132,-732.5 1132,-762.5 1429,-762.5 1429,-732.5 1132,-732.5"/>
<text text-anchor="start" x="1139" y="-743.9" font-family="Arial" font-size="14.00" fill="#000000">storeID    </text>
<text text-anchor="start" x="1218.3184" y="-743.9" font-family="Arial" font-size="14.00" fill="#666666">[integer]</text>
<polygon fill="none" stroke="#000000" points="1132,-702.5 1132,-732.5 1429,-732.5 1429,-702.5 1132,-702.5"/>
<text text-anchor="start" x="1139" y="-713.9" font-family="Arial" font-size="14.00" fill="#000000">storeOrgNumber    </text>
<text text-anchor="start" x="1277.4306" y="-713.9" font-family="Arial" font-size="14.00" fill="#666666">[varchar(11)]</text>
<polygon fill="none" stroke="#000000" points="1132,-672.5 1132,-702.5 1429,-702.5 1429,-672.5 1132,-672.5"/>
<text text-anchor="start" x="1139" y="-683.9" font-family="Arial" font-size="14.00" fill="#000000">storeName    </text>
<text text-anchor="start" x="1241.6536" y="-683.9" font-family="Arial" font-size="14.00" fill="#666666">[varchar(128)]</text>
<polygon fill="none" stroke="#000000" points="1132,-642.5 1132,-672.5 1429,-672.5 1429,-642.5 1132,-642.5"/>
<text text-anchor="start" x="1139" y="-653.9" font-family="Arial" font-size="14.00" fill="#000000">storeWebSite    </text>
<text text-anchor="start" x="1257.2174" y="-653.9" font-family="Arial" font-size="14.00" fill="#666666">[varchar]</text>
<polygon fill="none" stroke="#000000" points="1132,-612.5 1132,-642.5 1429,-642.5 1429,-612.5 1132,-612.5"/>
<text text-anchor="start" x="1139" y="-623.9" font-family="Arial" font-size="14.00" fill="#000000">storeVatNumber    </text>
<text text-anchor="start" x="1275.1066" y="-623.9" font-family="Arial" font-size="14.00" fill="#666666">[varchar(32)]</text>
<polygon fill="none" stroke="#000000" points="1132,-582.5 1132,-612.5 1429,-612.5 1429,-582.5 1132,-582.5"/>
<text text-anchor="start" x="1139" y="-593.9" font-family="Arial" font-size="14.00" fill="#000000">storeFSkatt    </text>
<text text-anchor="start" x="1244.7742" y="-593.9" font-family="Arial" font-size="14.00" fill="#666666">[boolean]</text>
<polygon fill="none" stroke="#000000" points="1132,-552.5 1132,-582.5 1429,-582.5 1429,-552.5 1132,-552.5"/>
<text text-anchor="start" x="1139" y="-563.9" font-family="Arial" font-size="14.00" fill="#000000">storeStatus    </text>
<text text-anchor="start" x="1244.0042" y="-563.9" font-family="Arial" font-size="14.00" fill="#666666">[boolean]</text>
<polygon fill="none" stroke="#000000" points="1132,-522.5 1132,-552.5 1429,-552.5 1429,-522.5 1132,-522.5"/>
<text text-anchor="start" x="1139" y="-533.9" font-family="Arial" font-size="14.00" fill="#000000">storeEmail    </text>
<text text-anchor="start" x="1239.3142" y="-533.9" font-family="Arial" font-size="14.00" fill="#666666">[varchar]</text>
<polygon fill="none" stroke="#000000" points="1132,-492.5 1132,-522.5 1429,-522.5 1429,-492.5 1132,-492.5"/>
<text text-anchor="start" x="1139" y="-503.9" font-family="Arial" font-size="14.00" fill="#000000">storePhone    </text>
<text text-anchor="start" x="1244.7882" y="-503.9" font-family="Arial" font-size="14.00" fill="#666666">[varchar]</text>
<polygon fill="none" stroke="#000000" points="1132,-462.5 1132,-492.5 1429,-492.5 1429,-462.5 1132,-462.5"/>
<text text-anchor="start" x="1139" y="-473.9" font-family="Arial" font-size="14.00" fill="#000000">storeAddress    </text>
<text text-anchor="start" x="1255.6662" y="-473.9" font-family="Arial" font-size="14.00" fill="#666666">[varchar]</text>
<polygon fill="none" stroke="#000000" points="1132,-432.5 1132,-462.5 1429,-462.5 1429,-432.5 1132,-432.5"/>
<text text-anchor="start" x="1139" y="-443.9" font-family="Arial" font-size="14.00" fill="#000000">storeZipCode    </text>
<text text-anchor="start" x="1257.2174" y="-443.9" font-family="Arial" font-size="14.00" fill="#666666">[varchar(16)]</text>
<polygon fill="none" stroke="#000000" points="1132,-402.5 1132,-432.5 1429,-432.5 1429,-402.5 1132,-402.5"/>
<text text-anchor="start" x="1139" y="-413.9" font-family="Arial" font-size="14.00" fill="#000000">storeCity    </text>
<text text-anchor="start" x="1228.425" y="-413.9" font-family="Arial" font-size="14.00" fill="#666666">[varchar]</text>
<polygon fill="none" stroke="#000000" points="1132,-372.5 1132,-402.5 1429,-402.5 1429,-372.5 1132,-372.5"/>
<text text-anchor="start" x="1139" y="-383.9" font-family="Arial" font-size="14.00" fill="#000000">storeCountry    </text>
<text text-anchor="start" x="1253.3268" y="-383.9" font-family="Arial" font-size="14.00" fill="#666666">[varchar]</text>
<polygon fill="none" stroke="#000000" points="1132,-342.5 1132,-372.5 1429,-372.5 1429,-342.5 1132,-342.5"/>
<text text-anchor="start" x="1139" y="-353.9" font-family="Arial" font-size="14.00" fill="#000000">storeDescription    </text>
<text text-anchor="start" x="1274.3226" y="-353.9" font-family="Arial" font-size="14.00" fill="#666666">[varchar]</text>
<polygon fill="none" stroke="#000000" points="1132,-312.5 1132,-342.5 1429,-342.5 1429,-312.5 1132,-312.5"/>
<text text-anchor="start" x="1139" y="-323.9" font-family="Arial" font-size="14.00" fill="#000000">storeContactPerson    </text>
<text text-anchor="start" x="1296.9018" y="-323.9" font-family="Arial" font-size="14.00" fill="#666666">[varchar(64)]</text>
<polygon fill="none" stroke="#000000" points="1132,-282.5 1132,-312.5 1429,-312.5 1429,-282.5 1132,-282.5"/>
<text text-anchor="start" x="1139" y="-293.9" font-family="Arial" font-size="14.00" fill="#000000">storeMaxUsers    </text>
<text text-anchor="start" x="1267.3142" y="-293.9" font-family="Arial" font-size="14.00" fill="#666666">[integer]</text>
<polygon fill="none" stroke="#000000" points="1132,-252.5 1132,-282.5 1429,-282.5 1429,-252.5 1132,-252.5"/>
<text text-anchor="start" x="1139" y="-263.9" font-family="Arial" font-size="14.00" fill="#000000">currency    </text>
<text text-anchor="start" x="1226.8738" y="-263.9" font-family="Arial" font-size="14.00" fill="#666666">[varchar]</text>
<polygon fill="none" stroke="#000000" points="1132,-222.5 1132,-252.5 1429,-252.5 1429,-222.5 1132,-222.5"/>
<text text-anchor="start" x="1139" y="-233.9" font-family="Arial" font-size="14.00" fill="#000000">storeAllowCarAPI    </text>
<text text-anchor="start" x="1282.8738" y="-233.9" font-family="Arial" font-size="14.00" fill="#666666">[boolean]</text>
<polygon fill="none" stroke="#000000" points="1132,-192.5 1132,-222.5 1429,-222.5 1429,-192.5 1132,-192.5"/>
<text text-anchor="start" x="1139" y="-203.9" font-family="Arial" font-size="14.00" fill="#000000">storeAllowSendSMS    </text>
<text text-anchor="start" x="1300.7784" y="-203.9" font-family="Arial" font-size="14.00" fill="#666666">[boolean]</text>
<polygon fill="none" stroke="#000000" points="1132,-162.5 1132,-192.5 1429,-192.5 1429,-162.5 1132,-162.5"/>
<text text-anchor="start" x="1139" y="-173.9" font-family="Arial" font-size="14.00" fill="#000000">storeSendSMS    </text>
<text text-anchor="start" x="1267.3394" y="-173.9" font-family="Arial" font-size="14.00" fill="#666666">[boolean]</text>
<polygon fill="none" stroke="#000000" points="1132,-132.5 1132,-162.5 1429,-162.5 1429,-132.5 1132,-132.5"/>
<text text-anchor="start" x="1139" y="-143.9" font-family="Arial" font-size="14.00" fill="#000000">storeUsesCheckin    </text>
<text text-anchor="start" x="1286.7714" y="-143.9" font-family="Arial" font-size="14.00" fill="#666666">[boolean]</text>
<polygon fill="none" stroke="#000000" points="1132,-102.5 1132,-132.5 1429,-132.5 1429,-102.5 1132,-102.5"/>
<text text-anchor="start" x="1139" y="-113.9" font-family="Arial" font-size="14.00" fill="#000000">storeUsesPIN    </text>
<text text-anchor="start" x="1259.5442" y="-113.9" font-family="Arial" font-size="14.00" fill="#666666">[boolean]</text>
<polygon fill="none" stroke="#000000" points="1132,-72.5 1132,-102.5 1429,-102.5 1429,-72.5 1132,-72.5"/>
<text text-anchor="start" x="1139" y="-83.9" font-family="Arial" font-size="14.00" fill="#000000">createdAt    </text>
<text text-anchor="start" x="1233.1136" y="-83.9" font-family="Arial" font-size="14.00" fill="#666666">[timestamp without time zone]</text>
<polygon fill="none" stroke="#000000" points="1132,-42.5 1132,-72.5 1429,-72.5 1429,-42.5 1132,-42.5"/>
<text text-anchor="start" x="1138.9208" y="-53.9" font-family="Arial" font-size="14.00" fill="#000000">updatedAt    </text>
<text text-anchor="start" x="1236.939" y="-53.9" font-family="Arial" font-size="14.00" fill="#666666">[timestamp without time zone]</text>
</g>
<!-- public.localServices&#45;&gt;public.stores -->
<g id="edge6" class="edge">
<title>public.localServices:storeID&#45;&gt;public.stores:storeID</title>
<path fill="none" stroke="#000000" d="M1229.3555,-1477.3038C1482.7573,-1467.5442 1365.36,-1095.9582 1219,-877 1195.7452,-842.2103 1155.2548,-875.7897 1132,-841 1108.9068,-806.452 1090.4444,-747.5 1132,-747.5"/>
<polygon fill="#000000" stroke="#000000" points="1228.9982,-1477.3105 1218.9147,-1473.0008 1223.9991,-1477.4052 1219,-1477.5 1219,-1477.5 1219,-1477.5 1223.9991,-1477.4052 1219.0853,-1481.9992 1228.9982,-1477.3105 1228.9982,-1477.3105"/>
<text text-anchor="start" x="1225.623" y="-1487.5" font-family="Arial" font-size="10.00" fill="#000000">FOREIGN KEY (&quot;storeID&quot;) REFERENCES stores(&quot;storeID&quot;) ON DELETE CASCADE</text>
</g>
<!-- public.localServiceGlobalQualifications -->
<g id="node2" class="node">
<title>public.localServiceGlobalQualifications</title>
<polygon fill="#efefef" stroke="transparent" points="43,-2132.5 43,-2167.5 493,-2167.5 493,-2132.5 43,-2132.5"/>
<polygon fill="none" stroke="#000000" points="43,-2132.5 43,-2167.5 493,-2167.5 493,-2132.5 43,-2132.5"/>
<text text-anchor="start" x="49.6977" y="-2145.3" font-family="Arial Bold" font-size="18.00" fill="#000000">public.localServiceGlobalQualifications</text>
<text text-anchor="start" x="358.7343" y="-2145.3" font-family="Arial" font-size="14.00" fill="#000000">    </text>
<text text-anchor="start" x="392.9391" y="-2145.3" font-family="Arial" font-size="14.00" fill="#666666">[BASE TABLE]</text>
<polygon fill="none" stroke="#000000" points="43,-2102.5 43,-2132.5 493,-2132.5 493,-2102.5 43,-2102.5"/>
<text text-anchor="start" x="50" y="-2113.9" font-family="Arial" font-size="14.00" fill="#000000">localServiceID    </text>
<text text-anchor="start" x="173.6494" y="-2113.9" font-family="Arial" font-size="14.00" fill="#666666">[integer]</text>
<polygon fill="none" stroke="#000000" points="43,-2072.5 43,-2102.5 493,-2102.5 493,-2072.5 43,-2072.5"/>
<text text-anchor="start" x="50" y="-2083.9" font-family="Arial" font-size="14.00" fill="#000000">globalQualID    </text>
<text text-anchor="start" x="165.108" y="-2083.9" font-family="Arial" font-size="14.00" fill="#666666">[integer]</text>
</g>
<!-- public.localServiceGlobalQualifications&#45;&gt;public.localServices -->
<g id="edge1" class="edge">
<title>public.localServiceGlobalQualifications:localServiceID&#45;&gt;public.localServices:localServiceID</title>
<path fill="none" stroke="#000000" d="M503.0912,-2115.959C578.9162,-2090.9885 488.6801,-1769.9982 545,-1700 600.4045,-1631.1395 831.6178,-1567.5 920,-1567.5"/>
<polygon fill="#000000" stroke="#000000" points="502.8854,-2115.9904 492.3207,-2113.0516 497.9427,-2116.7452 493,-2117.5 493,-2117.5 493,-2117.5 497.9427,-2116.7452 493.6793,-2121.9484 502.8854,-2115.9904 502.8854,-2115.9904"/>
<text text-anchor="start" x="309.8575" y="-2101.5" font-family="Arial" font-size="10.00" fill="#000000">FOREIGN KEY (&quot;localServiceID&quot;) REFERENCES &quot;localServices&quot;(&quot;localServiceID&quot;)</text>
</g>
<!-- public.localServiceLocalQualifications -->
<g id="node3" class="node">
<title>public.localServiceLocalQualifications</title>
<polygon fill="#efefef" stroke="transparent" points="598,-2132.5 598,-2167.5 1039,-2167.5 1039,-2132.5 598,-2132.5"/>
<polygon fill="none" stroke="#000000" points="598,-2132.5 598,-2167.5 1039,-2167.5 1039,-2132.5 598,-2132.5"/>
<text text-anchor="start" x="604.6959" y="-2145.3" font-family="Arial Bold" font-size="18.00" fill="#000000">public.localServiceLocalQualifications</text>
<text text-anchor="start" x="904.7361" y="-2145.3" font-family="Arial" font-size="14.00" fill="#000000">    </text>
<text text-anchor="start" x="938.9409" y="-2145.3" font-family="Arial" font-size="14.00" fill="#666666">[BASE TABLE]</text>
<polygon fill="none" stroke="#000000" points="598,-2102.5 598,-2132.5 1039,-2132.5 1039,-2102.5 598,-2102.5"/>
<text text-anchor="start" x="605" y="-2113.9" font-family="Arial" font-size="14.00" fill="#000000">localServiceID    </text>
<text text-anchor="start" x="728.6494" y="-2113.9" font-family="Arial" font-size="14.00" fill="#666666">[integer]</text>
<polygon fill="none" stroke="#000000" points="598,-2072.5 598,-2102.5 1039,-2102.5 1039,-2072.5 598,-2072.5"/>
<text text-anchor="start" x="605" y="-2083.9" font-family="Arial" font-size="14.00" fill="#000000">localQualID    </text>
<text text-anchor="start" x="711.5428" y="-2083.9" font-family="Arial" font-size="14.00" fill="#666666">[integer]</text>
</g>
<!-- public.localServiceLocalQualifications&#45;&gt;public.localServices -->
<g id="edge2" class="edge">
<title>public.localServiceLocalQualifications:localServiceID&#45;&gt;public.localServices:localServiceID</title>
<path fill="none" stroke="#000000" d="M1049.0259,-2116.0183C1142.1553,-2084.7033 798.7354,-1567.5 920,-1567.5"/>
<polygon fill="#000000" stroke="#000000" points="1048.8926,-2116.0379 1038.3421,-2113.0483 1043.9463,-2116.769 1039,-2117.5 1039,-2117.5 1039,-2117.5 1043.9463,-2116.769 1039.6579,-2121.9517 1048.8926,-2116.0379 1048.8926,-2116.0379"/>
<text text-anchor="start" x="1045.8575" y="-2127.5" font-family="Arial" font-size="10.00" fill="#000000">FOREIGN KEY (&quot;localServiceID&quot;) REFERENCES &quot;localServices&quot;(&quot;localServiceID&quot;)</text>
</g>
<!-- public.localServiceVariants -->
<g id="node4" class="node">
<title>public.localServiceVariants</title>
<polygon fill="#efefef" stroke="transparent" points="1143,-2297.5 1143,-2332.5 1499,-2332.5 1499,-2297.5 1143,-2297.5"/>
<polygon fill="none" stroke="#000000" points="1143,-2297.5 1143,-2332.5 1499,-2332.5 1499,-2297.5 1143,-2297.5"/>
<text text-anchor="start" x="1149.7038" y="-2310.3" font-family="Arial Bold" font-size="18.00" fill="#000000">public.localServiceVariants</text>
<text text-anchor="start" x="1364.7282" y="-2310.3" font-family="Arial" font-size="14.00" fill="#000000">    </text>
<text text-anchor="start" x="1398.933" y="-2310.3" font-family="Arial" font-size="14.00" fill="#666666">[BASE TABLE]</text>
<polygon fill="none" stroke="#000000" points="1143,-2267.5 1143,-2297.5 1499,-2297.5 1499,-2267.5 1143,-2267.5"/>
<text text-anchor="start" x="1150" y="-2278.9" font-family="Arial" font-size="14.00" fill="#000000">serviceVariantID    </text>
<text text-anchor="start" x="1286.8766" y="-2278.9" font-family="Arial" font-size="14.00" fill="#666666">[integer]</text>
<polygon fill="none" stroke="#000000" points="1143,-2237.5 1143,-2267.5 1499,-2267.5 1499,-2237.5 1143,-2237.5"/>
<text text-anchor="start" x="1150" y="-2248.9" font-family="Arial" font-size="14.00" fill="#000000">name    </text>
<text text-anchor="start" x="1219.2132" y="-2248.9" font-family="Arial" font-size="14.00" fill="#666666">[varchar(256)]</text>
<polygon fill="none" stroke="#000000" points="1143,-2207.5 1143,-2237.5 1499,-2237.5 1499,-2207.5 1143,-2207.5"/>
<text text-anchor="start" x="1150" y="-2218.9" font-family="Arial" font-size="14.00" fill="#000000">currency    </text>
<text text-anchor="start" x="1237.8738" y="-2218.9" font-family="Arial" font-size="14.00" fill="#666666">[varchar(5)]</text>
<polygon fill="none" stroke="#000000" points="1143,-2177.5 1143,-2207.5 1499,-2207.5 1499,-2177.5 1143,-2177.5"/>
<text text-anchor="start" x="1150" y="-2188.9" font-family="Arial" font-size="14.00" fill="#000000">cost    </text>
<text text-anchor="start" x="1209.878" y="-2188.9" font-family="Arial" font-size="14.00" fill="#666666">[real]</text>
<polygon fill="none" stroke="#000000" points="1143,-2147.5 1143,-2177.5 1499,-2177.5 1499,-2147.5 1143,-2147.5"/>
<text text-anchor="start" x="1150" y="-2158.9" font-family="Arial" font-size="14.00" fill="#000000">award    </text>
<text text-anchor="start" x="1222.3198" y="-2158.9" font-family="Arial" font-size="14.00" fill="#666666">[real]</text>
<polygon fill="none" stroke="#000000" points="1143,-2117.5 1143,-2147.5 1499,-2147.5 1499,-2117.5 1143,-2117.5"/>
<text text-anchor="start" x="1150" y="-2128.9" font-family="Arial" font-size="14.00" fill="#000000">day1    </text>
<text text-anchor="start" x="1214.5526" y="-2128.9" font-family="Arial" font-size="14.00" fill="#666666">[interval]</text>
<polygon fill="none" stroke="#000000" points="1143,-2087.5 1143,-2117.5 1499,-2117.5 1499,-2087.5 1143,-2087.5"/>
<text text-anchor="start" x="1150" y="-2098.9" font-family="Arial" font-size="14.00" fill="#000000">day2    </text>
<text text-anchor="start" x="1214.5526" y="-2098.9" font-family="Arial" font-size="14.00" fill="#666666">[interval]</text>
<polygon fill="none" stroke="#000000" points="1143,-2057.5 1143,-2087.5 1499,-2087.5 1499,-2057.5 1143,-2057.5"/>
<text text-anchor="start" x="1150" y="-2068.9" font-family="Arial" font-size="14.00" fill="#000000">day3    </text>
<text text-anchor="start" x="1214.5526" y="-2068.9" font-family="Arial" font-size="14.00" fill="#666666">[interval]</text>
<polygon fill="none" stroke="#000000" points="1143,-2027.5 1143,-2057.5 1499,-2057.5 1499,-2027.5 1143,-2027.5"/>
<text text-anchor="start" x="1150" y="-2038.9" font-family="Arial" font-size="14.00" fill="#000000">day4    </text>
<text text-anchor="start" x="1214.5526" y="-2038.9" font-family="Arial" font-size="14.00" fill="#666666">[interval]</text>
<polygon fill="none" stroke="#000000" points="1143,-1997.5 1143,-2027.5 1499,-2027.5 1499,-1997.5 1143,-1997.5"/>
<text text-anchor="start" x="1150" y="-2008.9" font-family="Arial" font-size="14.00" fill="#000000">day5    </text>
<text text-anchor="start" x="1214.5526" y="-2008.9" font-family="Arial" font-size="14.00" fill="#666666">[interval]</text>
<polygon fill="none" stroke="#000000" points="1143,-1967.5 1143,-1997.5 1499,-1997.5 1499,-1967.5 1143,-1967.5"/>
<text text-anchor="start" x="1150" y="-1978.9" font-family="Arial" font-size="14.00" fill="#000000">localServiceID    </text>
<text text-anchor="start" x="1273.6494" y="-1978.9" font-family="Arial" font-size="14.00" fill="#666666">[integer]</text>
<polygon fill="none" stroke="#000000" points="1143,-1937.5 1143,-1967.5 1499,-1967.5 1499,-1937.5 1143,-1937.5"/>
<text text-anchor="start" x="1150" y="-1948.9" font-family="Arial" font-size="14.00" fill="#000000">createdAt    </text>
<text text-anchor="start" x="1244.1136" y="-1948.9" font-family="Arial" font-size="14.00" fill="#666666">[timestamp without time zone]</text>
<polygon fill="none" stroke="#000000" points="1143,-1907.5 1143,-1937.5 1499,-1937.5 1499,-1907.5 1143,-1907.5"/>
<text text-anchor="start" x="1150" y="-1918.9" font-family="Arial" font-size="14.00" fill="#000000">updatedAt    </text>
<text text-anchor="start" x="1248.0182" y="-1918.9" font-family="Arial" font-size="14.00" fill="#666666">[timestamp without time zone]</text>
</g>
<!-- public.localServiceVariants&#45;&gt;public.localServices -->
<g id="edge3" class="edge">
<title>public.localServiceVariants:localServiceID&#45;&gt;public.localServices:localServiceID</title>
<path fill="none" stroke="#000000" d="M1132.7342,-1982.0313C972.8627,-1966.4474 1402.8495,-1567.5 1219,-1567.5"/>
<polygon fill="#000000" stroke="#000000" points="1133.0104,-1982.0438 1142.7947,-1986.9953 1138.0052,-1982.2719 1143,-1982.5 1143,-1982.5 1143,-1982.5 1138.0052,-1982.2719 1143.2053,-1978.0047 1133.0104,-1982.0438 1133.0104,-1982.0438"/>
<text text-anchor="start" x="659.5765" y="-1992.5" font-family="Arial" font-size="10.00" fill="#000000">FOREIGN KEY (&quot;localServiceID&quot;) REFERENCES &quot;localServices&quot;(&quot;localServiceID&quot;) ON DELETE CASCADE</text>
</g>
<!-- public.orderLocalServices -->
<g id="node5" class="node">
<title>public.orderLocalServices</title>
<polygon fill="#efefef" stroke="transparent" points="1604,-2462.5 1604,-2497.5 1951,-2497.5 1951,-2462.5 1604,-2462.5"/>
<polygon fill="none" stroke="#000000" points="1604,-2462.5 1604,-2497.5 1951,-2497.5 1951,-2462.5 1604,-2462.5"/>
<text text-anchor="start" x="1610.702" y="-2475.3" font-family="Arial Bold" font-size="18.00" fill="#000000">public.orderLocalServices</text>
<text text-anchor="start" x="1816.73" y="-2475.3" font-family="Arial" font-size="14.00" fill="#000000">    </text>
<text text-anchor="start" x="1850.9348" y="-2475.3" font-family="Arial" font-size="14.00" fill="#666666">[BASE TABLE]</text>
<polygon fill="none" stroke="#000000" points="1604,-2432.5 1604,-2462.5 1951,-2462.5 1951,-2432.5 1604,-2432.5"/>
<text text-anchor="start" x="1611" y="-2443.9" font-family="Arial" font-size="14.00" fill="#000000">orderID    </text>
<text text-anchor="start" x="1691.871" y="-2443.9" font-family="Arial" font-size="14.00" fill="#666666">[integer]</text>
<polygon fill="none" stroke="#000000" points="1604,-2402.5 1604,-2432.5 1951,-2432.5 1951,-2402.5 1604,-2402.5"/>
<text text-anchor="start" x="1611" y="-2413.9" font-family="Arial" font-size="14.00" fill="#000000">localServiceID    </text>
<text text-anchor="start" x="1734.6494" y="-2413.9" font-family="Arial" font-size="14.00" fill="#666666">[integer]</text>
<polygon fill="none" stroke="#000000" points="1604,-2372.5 1604,-2402.5 1951,-2402.5 1951,-2372.5 1604,-2372.5"/>
<text text-anchor="start" x="1611" y="-2383.9" font-family="Arial" font-size="14.00" fill="#000000">serviceVariantID    </text>
<text text-anchor="start" x="1747.8766" y="-2383.9" font-family="Arial" font-size="14.00" fill="#666666">[integer]</text>
<polygon fill="none" stroke="#000000" points="1604,-2342.5 1604,-2372.5 1951,-2372.5 1951,-2342.5 1604,-2342.5"/>
<text text-anchor="start" x="1611" y="-2353.9" font-family="Arial" font-size="14.00" fill="#000000">day1    </text>
<text text-anchor="start" x="1675.5526" y="-2353.9" font-family="Arial" font-size="14.00" fill="#666666">[timestamp without time zone]</text>
<polygon fill="none" stroke="#000000" points="1604,-2312.5 1604,-2342.5 1951,-2342.5 1951,-2312.5 1604,-2312.5"/>
<text text-anchor="start" x="1611" y="-2323.9" font-family="Arial" font-size="14.00" fill="#000000">day1Work    </text>
<text text-anchor="start" x="1708.2104" y="-2323.9" font-family="Arial" font-size="14.00" fill="#666666">[interval]</text>
<polygon fill="none" stroke="#000000" points="1604,-2282.5 1604,-2312.5 1951,-2312.5 1951,-2282.5 1604,-2282.5"/>
<text text-anchor="start" x="1611" y="-2293.9" font-family="Arial" font-size="14.00" fill="#000000">day1Employee    </text>
<text text-anchor="start" x="1737.7868" y="-2293.9" font-family="Arial" font-size="14.00" fill="#666666">[integer]</text>
<polygon fill="none" stroke="#000000" points="1604,-2252.5 1604,-2282.5 1951,-2282.5 1951,-2252.5 1604,-2252.5"/>
<text text-anchor="start" x="1611" y="-2263.9" font-family="Arial" font-size="14.00" fill="#000000">day2    </text>
<text text-anchor="start" x="1675.5526" y="-2263.9" font-family="Arial" font-size="14.00" fill="#666666">[timestamp without time zone]</text>
<polygon fill="none" stroke="#000000" points="1604,-2222.5 1604,-2252.5 1951,-2252.5 1951,-2222.5 1604,-2222.5"/>
<text text-anchor="start" x="1611" y="-2233.9" font-family="Arial" font-size="14.00" fill="#000000">day3    </text>
<text text-anchor="start" x="1675.5526" y="-2233.9" font-family="Arial" font-size="14.00" fill="#666666">[timestamp without time zone]</text>
<polygon fill="none" stroke="#000000" points="1604,-2192.5 1604,-2222.5 1951,-2222.5 1951,-2192.5 1604,-2192.5"/>
<text text-anchor="start" x="1611" y="-2203.9" font-family="Arial" font-size="14.00" fill="#000000">day4    </text>
<text text-anchor="start" x="1675.5526" y="-2203.9" font-family="Arial" font-size="14.00" fill="#666666">[timestamp without time zone]</text>
<polygon fill="none" stroke="#000000" points="1604,-2162.5 1604,-2192.5 1951,-2192.5 1951,-2162.5 1604,-2162.5"/>
<text text-anchor="start" x="1611" y="-2173.9" font-family="Arial" font-size="14.00" fill="#000000">day5    </text>
<text text-anchor="start" x="1675.5526" y="-2173.9" font-family="Arial" font-size="14.00" fill="#666666">[timestamp without time zone]</text>
<polygon fill="none" stroke="#000000" points="1604,-2132.5 1604,-2162.5 1951,-2162.5 1951,-2132.5 1604,-2132.5"/>
<text text-anchor="start" x="1611" y="-2143.9" font-family="Arial" font-size="14.00" fill="#000000">cost    </text>
<text text-anchor="start" x="1670.878" y="-2143.9" font-family="Arial" font-size="14.00" fill="#666666">[real]</text>
<polygon fill="none" stroke="#000000" points="1604,-2102.5 1604,-2132.5 1951,-2132.5 1951,-2102.5 1604,-2102.5"/>
<text text-anchor="start" x="1611" y="-2113.9" font-family="Arial" font-size="14.00" fill="#000000">vatFree    </text>
<text text-anchor="start" x="1692.6564" y="-2113.9" font-family="Arial" font-size="14.00" fill="#666666">[boolean]</text>
<polygon fill="none" stroke="#000000" points="1604,-2072.5 1604,-2102.5 1951,-2102.5 1951,-2072.5 1604,-2072.5"/>
<text text-anchor="start" x="1611" y="-2083.9" font-family="Arial" font-size="14.00" fill="#000000">orderNotes    </text>
<text text-anchor="start" x="1714.4362" y="-2083.9" font-family="Arial" font-size="14.00" fill="#666666">[varchar]</text>
<polygon fill="none" stroke="#000000" points="1604,-2042.5 1604,-2072.5 1951,-2072.5 1951,-2042.5 1604,-2042.5"/>
<text text-anchor="start" x="1611" y="-2053.9" font-family="Arial" font-size="14.00" fill="#000000">amount    </text>
<text text-anchor="start" x="1691.8864" y="-2053.9" font-family="Arial" font-size="14.00" fill="#666666">[integer]</text>
<polygon fill="none" stroke="#000000" points="1604,-2012.5 1604,-2042.5 1951,-2042.5 1951,-2012.5 1604,-2012.5"/>
<text text-anchor="start" x="1611" y="-2023.9" font-family="Arial" font-size="14.00" fill="#000000">day2Employee    </text>
<text text-anchor="start" x="1737.7868" y="-2023.9" font-family="Arial" font-size="14.00" fill="#666666">[integer]</text>
<polygon fill="none" stroke="#000000" points="1604,-1982.5 1604,-2012.5 1951,-2012.5 1951,-1982.5 1604,-1982.5"/>
<text text-anchor="start" x="1611" y="-1993.9" font-family="Arial" font-size="14.00" fill="#000000">day3Employee    </text>
<text text-anchor="start" x="1737.7868" y="-1993.9" font-family="Arial" font-size="14.00" fill="#666666">[integer]</text>
<polygon fill="none" stroke="#000000" points="1604,-1952.5 1604,-1982.5 1951,-1982.5 1951,-1952.5 1604,-1952.5"/>
<text text-anchor="start" x="1611" y="-1963.9" font-family="Arial" font-size="14.00" fill="#000000">day4Employee    </text>
<text text-anchor="start" x="1737.7868" y="-1963.9" font-family="Arial" font-size="14.00" fill="#666666">[integer]</text>
<polygon fill="none" stroke="#000000" points="1604,-1922.5 1604,-1952.5 1951,-1952.5 1951,-1922.5 1604,-1922.5"/>
<text text-anchor="start" x="1611" y="-1933.9" font-family="Arial" font-size="14.00" fill="#000000">day5Employee    </text>
<text text-anchor="start" x="1737.7868" y="-1933.9" font-family="Arial" font-size="14.00" fill="#666666">[integer]</text>
<polygon fill="none" stroke="#000000" points="1604,-1892.5 1604,-1922.5 1951,-1922.5 1951,-1892.5 1604,-1892.5"/>
<text text-anchor="start" x="1611" y="-1903.9" font-family="Arial" font-size="14.00" fill="#000000">name    </text>
<text text-anchor="start" x="1680.2132" y="-1903.9" font-family="Arial" font-size="14.00" fill="#666666">[varchar(256)]</text>
<polygon fill="none" stroke="#000000" points="1604,-1862.5 1604,-1892.5 1951,-1892.5 1951,-1862.5 1604,-1862.5"/>
<text text-anchor="start" x="1611" y="-1873.9" font-family="Arial" font-size="14.00" fill="#000000">currency    </text>
<text text-anchor="start" x="1698.8738" y="-1873.9" font-family="Arial" font-size="14.00" fill="#666666">[varchar]</text>
<polygon fill="none" stroke="#000000" points="1604,-1832.5 1604,-1862.5 1951,-1862.5 1951,-1832.5 1604,-1832.5"/>
<text text-anchor="start" x="1611" y="-1843.9" font-family="Arial" font-size="14.00" fill="#000000">day2Work    </text>
<text text-anchor="start" x="1708.2104" y="-1843.9" font-family="Arial" font-size="14.00" fill="#666666">[interval]</text>
<polygon fill="none" stroke="#000000" points="1604,-1802.5 1604,-1832.5 1951,-1832.5 1951,-1802.5 1604,-1802.5"/>
<text text-anchor="start" x="1611" y="-1813.9" font-family="Arial" font-size="14.00" fill="#000000">day3Work    </text>
<text text-anchor="start" x="1708.2104" y="-1813.9" font-family="Arial" font-size="14.00" fill="#666666">[interval]</text>
<polygon fill="none" stroke="#000000" points="1604,-1772.5 1604,-1802.5 1951,-1802.5 1951,-1772.5 1604,-1772.5"/>
<text text-anchor="start" x="1611" y="-1783.9" font-family="Arial" font-size="14.00" fill="#000000">day4Work    </text>
<text text-anchor="start" x="1708.2104" y="-1783.9" font-family="Arial" font-size="14.00" fill="#666666">[interval]</text>
<polygon fill="none" stroke="#000000" points="1604,-1742.5 1604,-1772.5 1951,-1772.5 1951,-1742.5 1604,-1742.5"/>
<text text-anchor="start" x="1611" y="-1753.9" font-family="Arial" font-size="14.00" fill="#000000">day5Work    </text>
<text text-anchor="start" x="1708.2104" y="-1753.9" font-family="Arial" font-size="14.00" fill="#666666">[interval]</text>
</g>
<!-- public.orderLocalServices&#45;&gt;public.localServices -->
<g id="edge4" class="edge">
<title>public.orderLocalServices:localServiceID&#45;&gt;public.localServices:localServiceID</title>
<path fill="none" stroke="#000000" d="M1594.5272,-2413.9815C1530.2121,-2362.4677 1596.2206,-1761.7093 1551,-1700 1457.093,-1571.8516 1377.8727,-1567.5 1219,-1567.5"/>
<polygon fill="#000000" stroke="#000000" points="1594.6258,-2414.018 1602.4331,-2421.7184 1599.3129,-2415.759 1604,-2417.5 1604,-2417.5 1604,-2417.5 1599.3129,-2415.759 1605.5669,-2413.2816 1594.6258,-2414.018 1594.6258,-2414.018"/>
<text text-anchor="start" x="1120.5765" y="-2427.5" font-family="Arial" font-size="10.00" fill="#000000">FOREIGN KEY (&quot;localServiceID&quot;) REFERENCES &quot;localServices&quot;(&quot;localServiceID&quot;) ON DELETE CASCADE</text>
</g>
</g>
</svg>
