<?xml version="1.0" encoding="UTF-8" standalone="no"?>
<!DOCTYPE svg PUBLIC "-//W3C//DTD SVG 1.1//EN"
 "http://www.w3.org/Graphics/SVG/1.1/DTD/svg11.dtd">
<!-- Generated by graphviz version 2.40.1 (20161225.0304)
 -->
<!-- Title: public.companycustomers Pages: 1 -->
<svg width="1141pt" height="1312pt"
 viewBox="0.00 0.00 1141.00 1312.00" xmlns="http://www.w3.org/2000/svg" xmlns:xlink="http://www.w3.org/1999/xlink">
<g id="graph0" class="graph" transform="scale(1 1) rotate(0) translate(4 1308)">
<title>public.companycustomers</title>
<polygon fill="#ffffff" stroke="transparent" points="-4,4 -4,-1308 1137,-1308 1137,4 -4,4"/>
<!-- public.companycustomers -->
<g id="node1" class="node">
<title>public.companycustomers</title>
<polygon fill="#efefef" stroke="transparent" points="336,-345.5 336,-380.5 685,-380.5 685,-345.5 336,-345.5"/>
<polygon fill="none" stroke="#000000" points="336,-345.5 336,-380.5 685,-380.5 685,-345.5 336,-345.5"/>
<text text-anchor="start" x="342.7003" y="-358.3" font-family="Arial Bold" font-size="18.00" fill="#000000">public.companycustomers</text>
<text text-anchor="start" x="550.7317" y="-358.3" font-family="Arial" font-size="14.00" fill="#000000">    </text>
<text text-anchor="start" x="584.9365" y="-358.3" font-family="Arial" font-size="14.00" fill="#666666">[BASE TABLE]</text>
<polygon fill="none" stroke="#000000" points="336,-315.5 336,-345.5 685,-345.5 685,-315.5 336,-315.5"/>
<text text-anchor="start" x="343" y="-326.9" font-family="Arial" font-size="14.00" fill="#000000">customerOrgNumber </text>
<text text-anchor="start" x="477.5596" y="-326.9" font-family="Arial" font-size="14.00" fill="#666666">[varchar(11)]</text>
<polygon fill="none" stroke="#000000" points="336,-285.5 336,-315.5 685,-315.5 685,-285.5 336,-285.5"/>
<text text-anchor="start" x="343" y="-296.9" font-family="Arial" font-size="14.00" fill="#000000">customerCompanyName </text>
<text text-anchor="start" x="501.6802" y="-296.9" font-family="Arial" font-size="14.00" fill="#666666">[varchar(255)]</text>
<polygon fill="none" stroke="#000000" points="336,-255.5 336,-285.5 685,-285.5 685,-255.5 336,-255.5"/>
<text text-anchor="start" x="343" y="-266.9" font-family="Arial" font-size="14.00" fill="#000000">companyAddress </text>
<text text-anchor="start" x="455.0266" y="-266.9" font-family="Arial" font-size="14.00" fill="#666666">[varchar(256)]</text>
<polygon fill="none" stroke="#000000" points="336,-225.5 336,-255.5 685,-255.5 685,-225.5 336,-225.5"/>
<text text-anchor="start" x="343" y="-236.9" font-family="Arial" font-size="14.00" fill="#000000">companyZipCode </text>
<text text-anchor="start" x="456.5778" y="-236.9" font-family="Arial" font-size="14.00" fill="#666666">[varchar(16)]</text>
<polygon fill="none" stroke="#000000" points="336,-195.5 336,-225.5 685,-225.5 685,-195.5 336,-195.5"/>
<text text-anchor="start" x="343" y="-206.9" font-family="Arial" font-size="14.00" fill="#000000">companyEmail </text>
<text text-anchor="start" x="438.6746" y="-206.9" font-family="Arial" font-size="14.00" fill="#666666">[varchar(256)]</text>
<polygon fill="none" stroke="#000000" points="336,-165.5 336,-195.5 685,-195.5 685,-165.5 336,-165.5"/>
<text text-anchor="start" x="343" y="-176.9" font-family="Arial" font-size="14.00" fill="#000000">companyPhone </text>
<text text-anchor="start" x="444.1486" y="-176.9" font-family="Arial" font-size="14.00" fill="#666666">[varchar(16)]</text>
<polygon fill="none" stroke="#000000" points="336,-135.5 336,-165.5 685,-165.5 685,-135.5 336,-135.5"/>
<text text-anchor="start" x="343" y="-146.9" font-family="Arial" font-size="14.00" fill="#000000">companyAddressCity </text>
<text text-anchor="start" x="479.1304" y="-146.9" font-family="Arial" font-size="14.00" fill="#666666">[varchar(256)]</text>
<polygon fill="none" stroke="#000000" points="336,-105.5 336,-135.5 685,-135.5 685,-105.5 336,-105.5"/>
<text text-anchor="start" x="343" y="-116.9" font-family="Arial" font-size="14.00" fill="#000000">companyCountry </text>
<text text-anchor="start" x="452.6872" y="-116.9" font-family="Arial" font-size="14.00" fill="#666666">[varchar(256)]</text>
<polygon fill="none" stroke="#000000" points="336,-75.5 336,-105.5 685,-105.5 685,-75.5 336,-75.5"/>
<text text-anchor="start" x="343" y="-86.9" font-family="Arial" font-size="14.00" fill="#000000">createdAt </text>
<text text-anchor="start" x="406.7994" y="-86.9" font-family="Arial" font-size="14.00" fill="#666666">[timestamp without time zone]</text>
<polygon fill="none" stroke="#000000" points="336,-45.5 336,-75.5 685,-75.5 685,-45.5 336,-45.5"/>
<text text-anchor="start" x="343" y="-56.9" font-family="Arial" font-size="14.00" fill="#000000">updatedAt </text>
<text text-anchor="start" x="410.704" y="-56.9" font-family="Arial" font-size="14.00" fill="#666666">[timestamp without time zone]</text>
<polygon fill="none" stroke="#000000" stroke-width="3" points="334,-44.5 334,-382.5 686,-382.5 686,-44.5 334,-44.5"/>
</g>
<!-- public.bills -->
<g id="node2" class="node">
<title>public.bills</title>
<polygon fill="#efefef" stroke="transparent" points="162,-1225.5 162,-1260.5 459,-1260.5 459,-1225.5 162,-1225.5"/>
<polygon fill="none" stroke="#000000" points="162,-1225.5 162,-1260.5 459,-1260.5 459,-1225.5 162,-1225.5"/>
<text text-anchor="start" x="205.217" y="-1238.3" font-family="Arial Bold" font-size="18.00" fill="#000000">public.bills</text>
<text text-anchor="start" x="288.215" y="-1238.3" font-family="Arial" font-size="14.00" fill="#000000">    </text>
<text text-anchor="start" x="322.4198" y="-1238.3" font-family="Arial" font-size="14.00" fill="#666666">[BASE TABLE]</text>
<polygon fill="none" stroke="#000000" points="162,-1195.5 162,-1225.5 459,-1225.5 459,-1195.5 162,-1195.5"/>
<text text-anchor="start" x="169" y="-1206.9" font-family="Arial" font-size="14.00" fill="#000000">orderID    </text>
<text text-anchor="start" x="249.871" y="-1206.9" font-family="Arial" font-size="14.00" fill="#666666">[integer]</text>
<polygon fill="none" stroke="#000000" points="162,-1165.5 162,-1195.5 459,-1195.5 459,-1165.5 162,-1165.5"/>
<text text-anchor="start" x="169" y="-1176.9" font-family="Arial" font-size="14.00" fill="#000000">billStatus    </text>
<text text-anchor="start" x="259.9902" y="-1176.9" font-family="Arial" font-size="14.00" fill="#666666">[&quot;billStatus&quot;]</text>
<polygon fill="none" stroke="#000000" points="162,-1135.5 162,-1165.5 459,-1165.5 459,-1135.5 162,-1135.5"/>
<text text-anchor="start" x="169" y="-1146.9" font-family="Arial" font-size="14.00" fill="#000000">employeeID    </text>
<text text-anchor="start" x="277.8822" y="-1146.9" font-family="Arial" font-size="14.00" fill="#666666">[integer]</text>
<polygon fill="none" stroke="#000000" points="162,-1105.5 162,-1135.5 459,-1135.5 459,-1105.5 162,-1105.5"/>
<text text-anchor="start" x="169" y="-1116.9" font-family="Arial" font-size="14.00" fill="#000000">billingDate    </text>
<text text-anchor="start" x="268.5414" y="-1116.9" font-family="Arial" font-size="14.00" fill="#666666">[date]</text>
<polygon fill="none" stroke="#000000" points="162,-1075.5 162,-1105.5 459,-1105.5 459,-1075.5 162,-1075.5"/>
<text text-anchor="start" x="169" y="-1086.9" font-family="Arial" font-size="14.00" fill="#000000">paymentDate    </text>
<text text-anchor="start" x="286.4488" y="-1086.9" font-family="Arial" font-size="14.00" fill="#666666">[date]</text>
<polygon fill="none" stroke="#000000" points="162,-1045.5 162,-1075.5 459,-1075.5 459,-1045.5 162,-1045.5"/>
<text text-anchor="start" x="169" y="-1056.9" font-family="Arial" font-size="14.00" fill="#000000">paymentDays    </text>
<text text-anchor="start" x="288.7756" y="-1056.9" font-family="Arial" font-size="14.00" fill="#666666">[integer]</text>
<polygon fill="none" stroke="#000000" points="162,-1015.5 162,-1045.5 459,-1045.5 459,-1015.5 162,-1015.5"/>
<text text-anchor="start" x="169" y="-1026.9" font-family="Arial" font-size="14.00" fill="#000000">driverID    </text>
<text text-anchor="start" x="252.195" y="-1026.9" font-family="Arial" font-size="14.00" fill="#666666">[integer]</text>
<polygon fill="none" stroke="#000000" points="162,-985.5 162,-1015.5 459,-1015.5 459,-985.5 162,-985.5"/>
<text text-anchor="start" x="169" y="-996.9" font-family="Arial" font-size="14.00" fill="#000000">customerOrgNumber    </text>
<text text-anchor="start" x="333.8738" y="-996.9" font-family="Arial" font-size="14.00" fill="#666666">[varchar(11)]</text>
<polygon fill="none" stroke="#000000" points="162,-955.5 162,-985.5 459,-985.5 459,-955.5 162,-955.5"/>
<text text-anchor="start" x="169" y="-966.9" font-family="Arial" font-size="14.00" fill="#000000">driverExternalNumber    </text>
<text text-anchor="start" x="339.3156" y="-966.9" font-family="Arial" font-size="14.00" fill="#666666">[varchar(256)]</text>
<polygon fill="none" stroke="#000000" points="162,-925.5 162,-955.5 459,-955.5 459,-925.5 162,-925.5"/>
<text text-anchor="start" x="169" y="-936.9" font-family="Arial" font-size="14.00" fill="#000000">companyReference    </text>
<text text-anchor="start" x="324.5666" y="-936.9" font-family="Arial" font-size="14.00" fill="#666666">[varchar(255)]</text>
<polygon fill="none" stroke="#000000" points="162,-895.5 162,-925.5 459,-925.5 459,-895.5 162,-895.5"/>
<text text-anchor="start" x="169" y="-906.9" font-family="Arial" font-size="14.00" fill="#000000">driverFirstName    </text>
<text text-anchor="start" x="302.7406" y="-906.9" font-family="Arial" font-size="14.00" fill="#666666">[varchar(128)]</text>
<polygon fill="none" stroke="#000000" points="162,-865.5 162,-895.5 459,-895.5 459,-865.5 162,-865.5"/>
<text text-anchor="start" x="169" y="-876.9" font-family="Arial" font-size="14.00" fill="#000000">driverLastName    </text>
<text text-anchor="start" x="301.986" y="-876.9" font-family="Arial" font-size="14.00" fill="#666666">[varchar(128)]</text>
<polygon fill="none" stroke="#000000" points="162,-835.5 162,-865.5 459,-865.5 459,-835.5 162,-835.5"/>
<text text-anchor="start" x="169" y="-846.9" font-family="Arial" font-size="14.00" fill="#000000">driverEmail    </text>
<text text-anchor="start" x="273.1908" y="-846.9" font-family="Arial" font-size="14.00" fill="#666666">[varchar(256)]</text>
<polygon fill="none" stroke="#000000" points="162,-805.5 162,-835.5 459,-835.5 459,-805.5 162,-805.5"/>
<text text-anchor="start" x="169" y="-816.9" font-family="Arial" font-size="14.00" fill="#000000">driverPhoneNumber    </text>
<text text-anchor="start" x="328.4404" y="-816.9" font-family="Arial" font-size="14.00" fill="#666666">[varchar(32)]</text>
<polygon fill="none" stroke="#000000" points="162,-775.5 162,-805.5 459,-805.5 459,-775.5 162,-775.5"/>
<text text-anchor="start" x="169" y="-786.9" font-family="Arial" font-size="14.00" fill="#000000">driverAddress    </text>
<text text-anchor="start" x="289.5428" y="-786.9" font-family="Arial" font-size="14.00" fill="#666666">[varchar(256)]</text>
<polygon fill="none" stroke="#000000" points="162,-745.5 162,-775.5 459,-775.5 459,-745.5 162,-745.5"/>
<text text-anchor="start" x="169" y="-756.9" font-family="Arial" font-size="14.00" fill="#000000">driverZipCode    </text>
<text text-anchor="start" x="291.094" y="-756.9" font-family="Arial" font-size="14.00" fill="#666666">[varchar(16)]</text>
<polygon fill="none" stroke="#000000" points="162,-715.5 162,-745.5 459,-745.5 459,-715.5 162,-715.5"/>
<text text-anchor="start" x="169" y="-726.9" font-family="Arial" font-size="14.00" fill="#000000">driverAddressCity    </text>
<text text-anchor="start" x="313.6466" y="-726.9" font-family="Arial" font-size="14.00" fill="#666666">[varchar(256)]</text>
<polygon fill="none" stroke="#000000" points="162,-685.5 162,-715.5 459,-715.5 459,-685.5 162,-685.5"/>
<text text-anchor="start" x="169" y="-696.9" font-family="Arial" font-size="14.00" fill="#000000">driverCountry    </text>
<text text-anchor="start" x="287.2034" y="-696.9" font-family="Arial" font-size="14.00" fill="#666666">[varchar(256)]</text>
<polygon fill="none" stroke="#000000" points="162,-655.5 162,-685.5 459,-685.5 459,-655.5 162,-655.5"/>
<text text-anchor="start" x="169" y="-666.9" font-family="Arial" font-size="14.00" fill="#000000">driverHasCard    </text>
<text text-anchor="start" x="293.4194" y="-666.9" font-family="Arial" font-size="14.00" fill="#666666">[boolean]</text>
<polygon fill="none" stroke="#000000" points="162,-625.5 162,-655.5 459,-655.5 459,-625.5 162,-625.5"/>
<text text-anchor="start" x="169" y="-636.9" font-family="Arial" font-size="14.00" fill="#000000">driverCardValidTo    </text>
<text text-anchor="start" x="315.9804" y="-636.9" font-family="Arial" font-size="14.00" fill="#666666">[date]</text>
<polygon fill="none" stroke="#000000" points="162,-595.5 162,-625.5 459,-625.5 459,-595.5 162,-595.5"/>
<text text-anchor="start" x="169" y="-606.9" font-family="Arial" font-size="14.00" fill="#000000">driverCardNumber    </text>
<text text-anchor="start" x="318.3058" y="-606.9" font-family="Arial" font-size="14.00" fill="#666666">[varchar(256)]</text>
<polygon fill="none" stroke="#000000" points="162,-565.5 162,-595.5 459,-595.5 459,-565.5 162,-565.5"/>
<text text-anchor="start" x="169" y="-576.9" font-family="Arial" font-size="14.00" fill="#000000">driverKeyNumber    </text>
<text text-anchor="start" x="312.0926" y="-576.9" font-family="Arial" font-size="14.00" fill="#666666">[varchar(256)]</text>
<polygon fill="none" stroke="#000000" points="162,-535.5 162,-565.5 459,-565.5 459,-535.5 162,-535.5"/>
<text text-anchor="start" x="169" y="-546.9" font-family="Arial" font-size="14.00" fill="#000000">createdAt    </text>
<text text-anchor="start" x="263.1136" y="-546.9" font-family="Arial" font-size="14.00" fill="#666666">[timestamp without time zone]</text>
<polygon fill="none" stroke="#000000" points="162,-505.5 162,-535.5 459,-535.5 459,-505.5 162,-505.5"/>
<text text-anchor="start" x="168.9208" y="-516.9" font-family="Arial" font-size="14.00" fill="#000000">updatedAt    </text>
<text text-anchor="start" x="266.939" y="-516.9" font-family="Arial" font-size="14.00" fill="#666666">[timestamp without time zone]</text>
</g>
<!-- public.bills&#45;&gt;public.companycustomers -->
<g id="edge1" class="edge">
<title>public.bills:customerOrgNumber&#45;&gt;public.companycustomers:customerOrgNumber</title>
<path fill="none" stroke="#000000" d="M468.0595,-996.2587C516.0713,-948.2601 492.8525,-508.1808 459,-463 424.8453,-417.416 370.1547,-472.584 336,-427 310.2827,-392.6768 293.1111,-330.5 336,-330.5"/>
<polygon fill="#000000" stroke="#000000" points="468.0566,-996.26 457.092,-996.4245 463.5283,-998.38 459,-1000.5 459,-1000.5 459,-1000.5 463.5283,-998.38 460.908,-1004.5755 468.0566,-996.26 468.0566,-996.26"/>
<text text-anchor="start" x="7.0665" y="-1010.5" font-family="Arial" font-size="10.00" fill="#000000">FOREIGN KEY (&quot;customerOrgNumber&quot;) REFERENCES companycustomers(&quot;customerOrgNumber&quot;)</text>
</g>
<!-- public.drivers -->
<g id="node3" class="node">
<title>public.drivers</title>
<polygon fill="#efefef" stroke="transparent" points="563,-1210.5 563,-1245.5 860,-1245.5 860,-1210.5 563,-1210.5"/>
<polygon fill="none" stroke="#000000" points="563,-1210.5 563,-1245.5 860,-1245.5 860,-1210.5 563,-1210.5"/>
<text text-anchor="start" x="594.7159" y="-1223.3" font-family="Arial Bold" font-size="18.00" fill="#000000">public.drivers</text>
<text text-anchor="start" x="700.7161" y="-1223.3" font-family="Arial" font-size="14.00" fill="#000000">    </text>
<text text-anchor="start" x="734.9209" y="-1223.3" font-family="Arial" font-size="14.00" fill="#666666">[BASE TABLE]</text>
<polygon fill="none" stroke="#000000" points="563,-1180.5 563,-1210.5 860,-1210.5 860,-1180.5 563,-1180.5"/>
<text text-anchor="start" x="570" y="-1191.9" font-family="Arial" font-size="14.00" fill="#000000">driverID    </text>
<text text-anchor="start" x="653.195" y="-1191.9" font-family="Arial" font-size="14.00" fill="#666666">[integer]</text>
<polygon fill="none" stroke="#000000" points="563,-1150.5 563,-1180.5 860,-1180.5 860,-1150.5 563,-1150.5"/>
<text text-anchor="start" x="570" y="-1161.9" font-family="Arial" font-size="14.00" fill="#000000">customerOrgNumber    </text>
<text text-anchor="start" x="734.8738" y="-1161.9" font-family="Arial" font-size="14.00" fill="#666666">[varchar(11)]</text>
<polygon fill="none" stroke="#000000" points="563,-1120.5 563,-1150.5 860,-1150.5 860,-1120.5 563,-1120.5"/>
<text text-anchor="start" x="570" y="-1131.9" font-family="Arial" font-size="14.00" fill="#000000">driverExternalNumber    </text>
<text text-anchor="start" x="740.3156" y="-1131.9" font-family="Arial" font-size="14.00" fill="#666666">[varchar(256)]</text>
<polygon fill="none" stroke="#000000" points="563,-1090.5 563,-1120.5 860,-1120.5 860,-1090.5 563,-1090.5"/>
<text text-anchor="start" x="570" y="-1101.9" font-family="Arial" font-size="14.00" fill="#000000">companyReference    </text>
<text text-anchor="start" x="725.5666" y="-1101.9" font-family="Arial" font-size="14.00" fill="#666666">[varchar(255)]</text>
<polygon fill="none" stroke="#000000" points="563,-1060.5 563,-1090.5 860,-1090.5 860,-1060.5 563,-1060.5"/>
<text text-anchor="start" x="570" y="-1071.9" font-family="Arial" font-size="14.00" fill="#000000">driverGDPRAccept    </text>
<text text-anchor="start" x="722.4306" y="-1071.9" font-family="Arial" font-size="14.00" fill="#666666">[boolean]</text>
<polygon fill="none" stroke="#000000" points="563,-1030.5 563,-1060.5 860,-1060.5 860,-1030.5 563,-1030.5"/>
<text text-anchor="start" x="570" y="-1041.9" font-family="Arial" font-size="14.00" fill="#000000">driverISWarrantyDriver    </text>
<text text-anchor="start" x="746.5162" y="-1041.9" font-family="Arial" font-size="14.00" fill="#666666">[boolean]</text>
<polygon fill="none" stroke="#000000" points="563,-1000.5 563,-1030.5 860,-1030.5 860,-1000.5 563,-1000.5"/>
<text text-anchor="start" x="570" y="-1011.9" font-family="Arial" font-size="14.00" fill="#000000">driverAcceptsMarketing    </text>
<text text-anchor="start" x="750.439" y="-1011.9" font-family="Arial" font-size="14.00" fill="#666666">[boolean]</text>
<polygon fill="none" stroke="#000000" points="563,-970.5 563,-1000.5 860,-1000.5 860,-970.5 563,-970.5"/>
<text text-anchor="start" x="570" y="-981.9" font-family="Arial" font-size="14.00" fill="#000000">driverFirstName    </text>
<text text-anchor="start" x="703.7406" y="-981.9" font-family="Arial" font-size="14.00" fill="#666666">[varchar(128)]</text>
<polygon fill="none" stroke="#000000" points="563,-940.5 563,-970.5 860,-970.5 860,-940.5 563,-940.5"/>
<text text-anchor="start" x="570" y="-951.9" font-family="Arial" font-size="14.00" fill="#000000">driverLastName    </text>
<text text-anchor="start" x="702.986" y="-951.9" font-family="Arial" font-size="14.00" fill="#666666">[varchar(128)]</text>
<polygon fill="none" stroke="#000000" points="563,-910.5 563,-940.5 860,-940.5 860,-910.5 563,-910.5"/>
<text text-anchor="start" x="570" y="-921.9" font-family="Arial" font-size="14.00" fill="#000000">driverEmail    </text>
<text text-anchor="start" x="674.1908" y="-921.9" font-family="Arial" font-size="14.00" fill="#666666">[varchar(256)]</text>
<polygon fill="none" stroke="#000000" points="563,-880.5 563,-910.5 860,-910.5 860,-880.5 563,-880.5"/>
<text text-anchor="start" x="570" y="-891.9" font-family="Arial" font-size="14.00" fill="#000000">driverPhoneNumber    </text>
<text text-anchor="start" x="729.4404" y="-891.9" font-family="Arial" font-size="14.00" fill="#666666">[varchar(32)]</text>
<polygon fill="none" stroke="#000000" points="563,-850.5 563,-880.5 860,-880.5 860,-850.5 563,-850.5"/>
<text text-anchor="start" x="570" y="-861.9" font-family="Arial" font-size="14.00" fill="#000000">driverAddress    </text>
<text text-anchor="start" x="690.5428" y="-861.9" font-family="Arial" font-size="14.00" fill="#666666">[varchar(256)]</text>
<polygon fill="none" stroke="#000000" points="563,-820.5 563,-850.5 860,-850.5 860,-820.5 563,-820.5"/>
<text text-anchor="start" x="570" y="-831.9" font-family="Arial" font-size="14.00" fill="#000000">driverZipCode    </text>
<text text-anchor="start" x="692.094" y="-831.9" font-family="Arial" font-size="14.00" fill="#666666">[varchar(16)]</text>
<polygon fill="none" stroke="#000000" points="563,-790.5 563,-820.5 860,-820.5 860,-790.5 563,-790.5"/>
<text text-anchor="start" x="570" y="-801.9" font-family="Arial" font-size="14.00" fill="#000000">driverAddressCity    </text>
<text text-anchor="start" x="714.6466" y="-801.9" font-family="Arial" font-size="14.00" fill="#666666">[varchar(256)]</text>
<polygon fill="none" stroke="#000000" points="563,-760.5 563,-790.5 860,-790.5 860,-760.5 563,-760.5"/>
<text text-anchor="start" x="570" y="-771.9" font-family="Arial" font-size="14.00" fill="#000000">driverCountry    </text>
<text text-anchor="start" x="688.2034" y="-771.9" font-family="Arial" font-size="14.00" fill="#666666">[varchar(256)]</text>
<polygon fill="none" stroke="#000000" points="563,-730.5 563,-760.5 860,-760.5 860,-730.5 563,-730.5"/>
<text text-anchor="start" x="570" y="-741.9" font-family="Arial" font-size="14.00" fill="#000000">driverHasCard    </text>
<text text-anchor="start" x="694.4194" y="-741.9" font-family="Arial" font-size="14.00" fill="#666666">[boolean]</text>
<polygon fill="none" stroke="#000000" points="563,-700.5 563,-730.5 860,-730.5 860,-700.5 563,-700.5"/>
<text text-anchor="start" x="570" y="-711.9" font-family="Arial" font-size="14.00" fill="#000000">driverCardValidTo    </text>
<text text-anchor="start" x="716.9804" y="-711.9" font-family="Arial" font-size="14.00" fill="#666666">[date]</text>
<polygon fill="none" stroke="#000000" points="563,-670.5 563,-700.5 860,-700.5 860,-670.5 563,-670.5"/>
<text text-anchor="start" x="570" y="-681.9" font-family="Arial" font-size="14.00" fill="#000000">driverCardNumber    </text>
<text text-anchor="start" x="719.3058" y="-681.9" font-family="Arial" font-size="14.00" fill="#666666">[varchar(256)]</text>
<polygon fill="none" stroke="#000000" points="563,-640.5 563,-670.5 860,-670.5 860,-640.5 563,-640.5"/>
<text text-anchor="start" x="570" y="-651.9" font-family="Arial" font-size="14.00" fill="#000000">driverKeyNumber    </text>
<text text-anchor="start" x="713.0926" y="-651.9" font-family="Arial" font-size="14.00" fill="#666666">[varchar(256)]</text>
<polygon fill="none" stroke="#000000" points="563,-610.5 563,-640.5 860,-640.5 860,-610.5 563,-610.5"/>
<text text-anchor="start" x="570" y="-621.9" font-family="Arial" font-size="14.00" fill="#000000">driverNotesShared    </text>
<text text-anchor="start" x="720.8878" y="-621.9" font-family="Arial" font-size="14.00" fill="#666666">[varchar]</text>
<polygon fill="none" stroke="#000000" points="563,-580.5 563,-610.5 860,-610.5 860,-580.5 563,-580.5"/>
<text text-anchor="start" x="570" y="-591.9" font-family="Arial" font-size="14.00" fill="#000000">driverNotes    </text>
<text text-anchor="start" x="675.7602" y="-591.9" font-family="Arial" font-size="14.00" fill="#666666">[varchar]</text>
<polygon fill="none" stroke="#000000" points="563,-550.5 563,-580.5 860,-580.5 860,-550.5 563,-550.5"/>
<text text-anchor="start" x="570" y="-561.9" font-family="Arial" font-size="14.00" fill="#000000">createdAt    </text>
<text text-anchor="start" x="664.1136" y="-561.9" font-family="Arial" font-size="14.00" fill="#666666">[timestamp without time zone]</text>
<polygon fill="none" stroke="#000000" points="563,-520.5 563,-550.5 860,-550.5 860,-520.5 563,-520.5"/>
<text text-anchor="start" x="569.9208" y="-531.9" font-family="Arial" font-size="14.00" fill="#000000">updatedAt    </text>
<text text-anchor="start" x="667.939" y="-531.9" font-family="Arial" font-size="14.00" fill="#666666">[timestamp without time zone]</text>
</g>
<!-- public.drivers&#45;&gt;public.companycustomers -->
<g id="edge2" class="edge">
<title>public.drivers:customerOrgNumber&#45;&gt;public.companycustomers:customerOrgNumber</title>
<path fill="none" stroke="#000000" d="M553.3647,-1161.8302C489.6873,-1110.5758 522.5659,-538.7277 563,-478 595.5709,-429.0821 652.4291,-475.9179 685,-427 708.7697,-391.3005 727.8889,-330.5 685,-330.5"/>
<polygon fill="#000000" stroke="#000000" points="553.6549,-1161.9406 561.3983,-1169.7053 558.3274,-1163.7203 563,-1165.5 563,-1165.5 563,-1165.5 558.3274,-1163.7203 564.6017,-1161.2947 553.6549,-1161.9406 553.6549,-1161.9406"/>
<text text-anchor="start" x="569.7855" y="-1175.5" font-family="Arial" font-size="10.00" fill="#000000">FOREIGN KEY (&quot;customerOrgNumber&quot;) REFERENCES companycustomers(&quot;customerOrgNumber&quot;) ON DELETE CASCADE</text>
</g>
</g>
</svg>
