<?xml version="1.0" encoding="UTF-8" standalone="no"?>
<!DOCTYPE svg PUBLIC "-//W3C//DTD SVG 1.1//EN"
 "http://www.w3.org/Graphics/SVG/1.1/DTD/svg11.dtd">
<!-- Generated by graphviz version 2.40.1 (20161225.0304)
 -->
<!-- Title: public.billOrders Pages: 1 -->
<svg width="1039pt" height="1162pt"
 viewBox="0.00 0.00 1039.00 1162.00" xmlns="http://www.w3.org/2000/svg" xmlns:xlink="http://www.w3.org/1999/xlink">
<g id="graph0" class="graph" transform="scale(1 1) rotate(0) translate(4 1158)">
<title>public.billOrders</title>
<polygon fill="#ffffff" stroke="transparent" points="-4,4 -4,-1158 1035,-1158 1035,4 -4,4"/>
<!-- public.billOrders -->
<g id="node1" class="node">
<title>public.billOrders</title>
<polygon fill="#efefef" stroke="transparent" points="369,-1072.5 369,-1107.5 639,-1107.5 639,-1072.5 369,-1072.5"/>
<polygon fill="none" stroke="#000000" points="369,-1072.5 369,-1107.5 639,-1107.5 639,-1072.5 369,-1072.5"/>
<text text-anchor="start" x="375.7175" y="-1085.3" font-family="Arial Bold" font-size="18.00" fill="#000000">public.billOrders</text>
<text text-anchor="start" x="504.7145" y="-1085.3" font-family="Arial" font-size="14.00" fill="#000000">    </text>
<text text-anchor="start" x="538.9193" y="-1085.3" font-family="Arial" font-size="14.00" fill="#666666">[BASE TABLE]</text>
<polygon fill="none" stroke="#000000" points="369,-1042.5 369,-1072.5 639,-1072.5 639,-1042.5 369,-1042.5"/>
<text text-anchor="start" x="376" y="-1053.9" font-family="Arial" font-size="14.00" fill="#000000">billID </text>
<text text-anchor="start" x="410.9902" y="-1053.9" font-family="Arial" font-size="14.00" fill="#666666">[integer]</text>
<polygon fill="none" stroke="#000000" points="369,-1012.5 369,-1042.5 639,-1042.5 639,-1012.5 369,-1012.5"/>
<text text-anchor="start" x="376" y="-1023.9" font-family="Arial" font-size="14.00" fill="#000000">orderID </text>
<text text-anchor="start" x="426.5568" y="-1023.9" font-family="Arial" font-size="14.00" fill="#666666">[integer]</text>
<polygon fill="none" stroke="#000000" stroke-width="3" points="367.5,-1011.5 367.5,-1109.5 640.5,-1109.5 640.5,-1011.5 367.5,-1011.5"/>
</g>
<!-- public.bills -->
<g id="node2" class="node">
<title>public.bills</title>
<polygon fill="#efefef" stroke="transparent" points="146,-852.5 146,-887.5 443,-887.5 443,-852.5 146,-852.5"/>
<polygon fill="none" stroke="#000000" points="146,-852.5 146,-887.5 443,-887.5 443,-852.5 146,-852.5"/>
<text text-anchor="start" x="189.217" y="-865.3" font-family="Arial Bold" font-size="18.00" fill="#000000">public.bills</text>
<text text-anchor="start" x="272.215" y="-865.3" font-family="Arial" font-size="14.00" fill="#000000">    </text>
<text text-anchor="start" x="306.4198" y="-865.3" font-family="Arial" font-size="14.00" fill="#666666">[BASE TABLE]</text>
<polygon fill="none" stroke="#000000" points="146,-822.5 146,-852.5 443,-852.5 443,-822.5 146,-822.5"/>
<text text-anchor="start" x="153" y="-833.9" font-family="Arial" font-size="14.00" fill="#000000">orderID    </text>
<text text-anchor="start" x="233.871" y="-833.9" font-family="Arial" font-size="14.00" fill="#666666">[integer]</text>
<polygon fill="none" stroke="#000000" points="146,-792.5 146,-822.5 443,-822.5 443,-792.5 146,-792.5"/>
<text text-anchor="start" x="153" y="-803.9" font-family="Arial" font-size="14.00" fill="#000000">storeID    </text>
<text text-anchor="start" x="232.3184" y="-803.9" font-family="Arial" font-size="14.00" fill="#666666">[integer]</text>
<polygon fill="none" stroke="#000000" points="146,-762.5 146,-792.5 443,-792.5 443,-762.5 146,-762.5"/>
<text text-anchor="start" x="153" y="-773.9" font-family="Arial" font-size="14.00" fill="#000000">billStatus    </text>
<text text-anchor="start" x="243.9902" y="-773.9" font-family="Arial" font-size="14.00" fill="#666666">[&quot;billStatus&quot;]</text>
<polygon fill="none" stroke="#000000" points="146,-732.5 146,-762.5 443,-762.5 443,-732.5 146,-732.5"/>
<text text-anchor="start" x="153" y="-743.9" font-family="Arial" font-size="14.00" fill="#000000">billedAmount    </text>
<text text-anchor="start" x="268.108" y="-743.9" font-family="Arial" font-size="14.00" fill="#666666">[real]</text>
<polygon fill="none" stroke="#000000" points="146,-702.5 146,-732.5 443,-732.5 443,-702.5 146,-702.5"/>
<text text-anchor="start" x="153" y="-713.9" font-family="Arial" font-size="14.00" fill="#000000">currency    </text>
<text text-anchor="start" x="240.8738" y="-713.9" font-family="Arial" font-size="14.00" fill="#666666">[varchar]</text>
<polygon fill="none" stroke="#000000" points="146,-672.5 146,-702.5 443,-702.5 443,-672.5 146,-672.5"/>
<text text-anchor="start" x="153" y="-683.9" font-family="Arial" font-size="14.00" fill="#000000">employeeID    </text>
<text text-anchor="start" x="261.8822" y="-683.9" font-family="Arial" font-size="14.00" fill="#666666">[integer]</text>
<polygon fill="none" stroke="#000000" points="146,-642.5 146,-672.5 443,-672.5 443,-642.5 146,-642.5"/>
<text text-anchor="start" x="153" y="-653.9" font-family="Arial" font-size="14.00" fill="#000000">billingDate    </text>
<text text-anchor="start" x="252.5414" y="-653.9" font-family="Arial" font-size="14.00" fill="#666666">[date]</text>
<polygon fill="none" stroke="#000000" points="146,-612.5 146,-642.5 443,-642.5 443,-612.5 146,-612.5"/>
<text text-anchor="start" x="153" y="-623.9" font-family="Arial" font-size="14.00" fill="#000000">paymentDate    </text>
<text text-anchor="start" x="270.4488" y="-623.9" font-family="Arial" font-size="14.00" fill="#666666">[date]</text>
<polygon fill="none" stroke="#000000" points="146,-582.5 146,-612.5 443,-612.5 443,-582.5 146,-582.5"/>
<text text-anchor="start" x="153" y="-593.9" font-family="Arial" font-size="14.00" fill="#000000">paymentDays    </text>
<text text-anchor="start" x="272.7756" y="-593.9" font-family="Arial" font-size="14.00" fill="#666666">[integer]</text>
<polygon fill="none" stroke="#000000" points="146,-552.5 146,-582.5 443,-582.5 443,-552.5 146,-552.5"/>
<text text-anchor="start" x="153" y="-563.9" font-family="Arial" font-size="14.00" fill="#000000">driverID    </text>
<text text-anchor="start" x="236.195" y="-563.9" font-family="Arial" font-size="14.00" fill="#666666">[integer]</text>
<polygon fill="none" stroke="#000000" points="146,-522.5 146,-552.5 443,-552.5 443,-522.5 146,-522.5"/>
<text text-anchor="start" x="153" y="-533.9" font-family="Arial" font-size="14.00" fill="#000000">customerOrgNumber    </text>
<text text-anchor="start" x="317.8738" y="-533.9" font-family="Arial" font-size="14.00" fill="#666666">[varchar(11)]</text>
<polygon fill="none" stroke="#000000" points="146,-492.5 146,-522.5 443,-522.5 443,-492.5 146,-492.5"/>
<text text-anchor="start" x="153" y="-503.9" font-family="Arial" font-size="14.00" fill="#000000">driverExternalNumber    </text>
<text text-anchor="start" x="323.3156" y="-503.9" font-family="Arial" font-size="14.00" fill="#666666">[varchar(256)]</text>
<polygon fill="none" stroke="#000000" points="146,-462.5 146,-492.5 443,-492.5 443,-462.5 146,-462.5"/>
<text text-anchor="start" x="153" y="-473.9" font-family="Arial" font-size="14.00" fill="#000000">companyReference    </text>
<text text-anchor="start" x="308.5666" y="-473.9" font-family="Arial" font-size="14.00" fill="#666666">[varchar(255)]</text>
<polygon fill="none" stroke="#000000" points="146,-432.5 146,-462.5 443,-462.5 443,-432.5 146,-432.5"/>
<text text-anchor="start" x="153" y="-443.9" font-family="Arial" font-size="14.00" fill="#000000">driverFirstName    </text>
<text text-anchor="start" x="286.7406" y="-443.9" font-family="Arial" font-size="14.00" fill="#666666">[varchar(128)]</text>
<polygon fill="none" stroke="#000000" points="146,-402.5 146,-432.5 443,-432.5 443,-402.5 146,-402.5"/>
<text text-anchor="start" x="153" y="-413.9" font-family="Arial" font-size="14.00" fill="#000000">driverLastName    </text>
<text text-anchor="start" x="285.986" y="-413.9" font-family="Arial" font-size="14.00" fill="#666666">[varchar(128)]</text>
<polygon fill="none" stroke="#000000" points="146,-372.5 146,-402.5 443,-402.5 443,-372.5 146,-372.5"/>
<text text-anchor="start" x="153" y="-383.9" font-family="Arial" font-size="14.00" fill="#000000">driverEmail    </text>
<text text-anchor="start" x="257.1908" y="-383.9" font-family="Arial" font-size="14.00" fill="#666666">[varchar(256)]</text>
<polygon fill="none" stroke="#000000" points="146,-342.5 146,-372.5 443,-372.5 443,-342.5 146,-342.5"/>
<text text-anchor="start" x="153" y="-353.9" font-family="Arial" font-size="14.00" fill="#000000">driverPhoneNumber    </text>
<text text-anchor="start" x="312.4404" y="-353.9" font-family="Arial" font-size="14.00" fill="#666666">[varchar(32)]</text>
<polygon fill="none" stroke="#000000" points="146,-312.5 146,-342.5 443,-342.5 443,-312.5 146,-312.5"/>
<text text-anchor="start" x="153" y="-323.9" font-family="Arial" font-size="14.00" fill="#000000">driverAddress    </text>
<text text-anchor="start" x="273.5428" y="-323.9" font-family="Arial" font-size="14.00" fill="#666666">[varchar(256)]</text>
<polygon fill="none" stroke="#000000" points="146,-282.5 146,-312.5 443,-312.5 443,-282.5 146,-282.5"/>
<text text-anchor="start" x="153" y="-293.9" font-family="Arial" font-size="14.00" fill="#000000">driverZipCode    </text>
<text text-anchor="start" x="275.094" y="-293.9" font-family="Arial" font-size="14.00" fill="#666666">[varchar(16)]</text>
<polygon fill="none" stroke="#000000" points="146,-252.5 146,-282.5 443,-282.5 443,-252.5 146,-252.5"/>
<text text-anchor="start" x="153" y="-263.9" font-family="Arial" font-size="14.00" fill="#000000">driverAddressCity    </text>
<text text-anchor="start" x="297.6466" y="-263.9" font-family="Arial" font-size="14.00" fill="#666666">[varchar(256)]</text>
<polygon fill="none" stroke="#000000" points="146,-222.5 146,-252.5 443,-252.5 443,-222.5 146,-222.5"/>
<text text-anchor="start" x="153" y="-233.9" font-family="Arial" font-size="14.00" fill="#000000">driverCountry    </text>
<text text-anchor="start" x="271.2034" y="-233.9" font-family="Arial" font-size="14.00" fill="#666666">[varchar(256)]</text>
<polygon fill="none" stroke="#000000" points="146,-192.5 146,-222.5 443,-222.5 443,-192.5 146,-192.5"/>
<text text-anchor="start" x="153" y="-203.9" font-family="Arial" font-size="14.00" fill="#000000">driverHasCard    </text>
<text text-anchor="start" x="277.4194" y="-203.9" font-family="Arial" font-size="14.00" fill="#666666">[boolean]</text>
<polygon fill="none" stroke="#000000" points="146,-162.5 146,-192.5 443,-192.5 443,-162.5 146,-162.5"/>
<text text-anchor="start" x="153" y="-173.9" font-family="Arial" font-size="14.00" fill="#000000">driverCardValidTo    </text>
<text text-anchor="start" x="299.9804" y="-173.9" font-family="Arial" font-size="14.00" fill="#666666">[date]</text>
<polygon fill="none" stroke="#000000" points="146,-132.5 146,-162.5 443,-162.5 443,-132.5 146,-132.5"/>
<text text-anchor="start" x="153" y="-143.9" font-family="Arial" font-size="14.00" fill="#000000">driverCardNumber    </text>
<text text-anchor="start" x="302.3058" y="-143.9" font-family="Arial" font-size="14.00" fill="#666666">[varchar(256)]</text>
<polygon fill="none" stroke="#000000" points="146,-102.5 146,-132.5 443,-132.5 443,-102.5 146,-102.5"/>
<text text-anchor="start" x="153" y="-113.9" font-family="Arial" font-size="14.00" fill="#000000">driverKeyNumber    </text>
<text text-anchor="start" x="296.0926" y="-113.9" font-family="Arial" font-size="14.00" fill="#666666">[varchar(256)]</text>
<polygon fill="none" stroke="#000000" points="146,-72.5 146,-102.5 443,-102.5 443,-72.5 146,-72.5"/>
<text text-anchor="start" x="153" y="-83.9" font-family="Arial" font-size="14.00" fill="#000000">createdAt    </text>
<text text-anchor="start" x="247.1136" y="-83.9" font-family="Arial" font-size="14.00" fill="#666666">[timestamp without time zone]</text>
<polygon fill="none" stroke="#000000" points="146,-42.5 146,-72.5 443,-72.5 443,-42.5 146,-42.5"/>
<text text-anchor="start" x="152.9208" y="-53.9" font-family="Arial" font-size="14.00" fill="#000000">updatedAt    </text>
<text text-anchor="start" x="250.939" y="-53.9" font-family="Arial" font-size="14.00" fill="#666666">[timestamp without time zone]</text>
</g>
<!-- public.billOrders&#45;&gt;public.bills -->
<g id="edge1" class="edge">
<title>public.billOrders:billID&#45;&gt;public.bills:orderID</title>
<path fill="none" stroke="#000000" d="M358.8546,-1055.9597C332.4906,-1046.697 349.7515,-997.7696 369,-967 388.397,-935.993 423.603,-962.007 443,-931 465.0388,-895.77 484.5556,-837.5 443,-837.5"/>
<polygon fill="#000000" stroke="#000000" points="359.1133,-1055.9989 368.3245,-1061.949 364.0566,-1056.7494 369,-1057.5 369,-1057.5 369,-1057.5 364.0566,-1056.7494 369.6755,-1053.051 359.1133,-1055.9989 359.1133,-1055.9989"/>
<text text-anchor="start" x="7.0785" y="-1067.5" font-family="Arial" font-size="10.00" fill="#000000">FOREIGN KEY (&quot;billID&quot;) REFERENCES bills(&quot;orderID&quot;) ON DELETE CASCADE</text>
</g>
<!-- public.orders -->
<g id="node3" class="node">
<title>public.orders</title>
<polygon fill="#efefef" stroke="transparent" points="547,-657.5 547,-692.5 881,-692.5 881,-657.5 547,-657.5"/>
<polygon fill="none" stroke="#000000" points="547,-657.5 547,-692.5 881,-692.5 881,-657.5 547,-657.5"/>
<text text-anchor="start" x="598.7099" y="-670.3" font-family="Arial Bold" font-size="18.00" fill="#000000">public.orders</text>
<text text-anchor="start" x="701.7221" y="-670.3" font-family="Arial" font-size="14.00" fill="#000000">    </text>
<text text-anchor="start" x="735.9269" y="-670.3" font-family="Arial" font-size="14.00" fill="#666666">[BASE TABLE]</text>
<polygon fill="none" stroke="#000000" points="547,-627.5 547,-657.5 881,-657.5 881,-627.5 547,-627.5"/>
<text text-anchor="start" x="554" y="-638.9" font-family="Arial" font-size="14.00" fill="#000000">orderID    </text>
<text text-anchor="start" x="634.871" y="-638.9" font-family="Arial" font-size="14.00" fill="#666666">[integer]</text>
<polygon fill="none" stroke="#000000" points="547,-597.5 547,-627.5 881,-627.5 881,-597.5 547,-597.5"/>
<text text-anchor="start" x="554" y="-608.9" font-family="Arial" font-size="14.00" fill="#000000">driverCarID    </text>
<text text-anchor="start" x="659.7448" y="-608.9" font-family="Arial" font-size="14.00" fill="#666666">[integer]</text>
<polygon fill="none" stroke="#000000" points="547,-567.5 547,-597.5 881,-597.5 881,-567.5 547,-567.5"/>
<text text-anchor="start" x="554" y="-578.9" font-family="Arial" font-size="14.00" fill="#000000">driverID    </text>
<text text-anchor="start" x="637.195" y="-578.9" font-family="Arial" font-size="14.00" fill="#666666">[integer]</text>
<polygon fill="none" stroke="#000000" points="547,-537.5 547,-567.5 881,-567.5 881,-537.5 547,-537.5"/>
<text text-anchor="start" x="554" y="-548.9" font-family="Arial" font-size="14.00" fill="#000000">storeID    </text>
<text text-anchor="start" x="633.3184" y="-548.9" font-family="Arial" font-size="14.00" fill="#666666">[integer]</text>
<polygon fill="none" stroke="#000000" points="547,-507.5 547,-537.5 881,-537.5 881,-507.5 547,-507.5"/>
<text text-anchor="start" x="554" y="-518.9" font-family="Arial" font-size="14.00" fill="#000000">orderNotes    </text>
<text text-anchor="start" x="657.4362" y="-518.9" font-family="Arial" font-size="14.00" fill="#666666">[varchar]</text>
<polygon fill="none" stroke="#000000" points="547,-477.5 547,-507.5 881,-507.5 881,-477.5 547,-477.5"/>
<text text-anchor="start" x="554" y="-488.9" font-family="Arial" font-size="14.00" fill="#000000">employeeID    </text>
<text text-anchor="start" x="662.8822" y="-488.9" font-family="Arial" font-size="14.00" fill="#666666">[integer]</text>
<polygon fill="none" stroke="#000000" points="547,-447.5 547,-477.5 881,-477.5 881,-447.5 547,-447.5"/>
<text text-anchor="start" x="553.7742" y="-458.9" font-family="Arial" font-size="14.00" fill="#000000">submissionTime    </text>
<text text-anchor="start" x="689.0856" y="-458.9" font-family="Arial" font-size="14.00" fill="#666666">[timestamp without time zone]</text>
<polygon fill="none" stroke="#000000" points="547,-417.5 547,-447.5 881,-447.5 881,-417.5 547,-417.5"/>
<text text-anchor="start" x="554" y="-428.9" font-family="Arial" font-size="14.00" fill="#000000">pickupTime    </text>
<text text-anchor="start" x="659.7616" y="-428.9" font-family="Arial" font-size="14.00" fill="#666666">[timestamp without time zone]</text>
<polygon fill="none" stroke="#000000" points="547,-387.5 547,-417.5 881,-417.5 881,-387.5 547,-387.5"/>
<text text-anchor="start" x="554" y="-398.9" font-family="Arial" font-size="14.00" fill="#000000">vatFree    </text>
<text text-anchor="start" x="635.6564" y="-398.9" font-family="Arial" font-size="14.00" fill="#666666">[boolean]</text>
<polygon fill="none" stroke="#000000" points="547,-357.5 547,-387.5 881,-387.5 881,-357.5 547,-357.5"/>
<text text-anchor="start" x="554" y="-368.9" font-family="Arial" font-size="14.00" fill="#000000">orderStatus    </text>
<text text-anchor="start" x="660.5568" y="-368.9" font-family="Arial" font-size="14.00" fill="#666666">[&quot;orderStatus&quot;]</text>
<polygon fill="none" stroke="#000000" points="547,-327.5 547,-357.5 881,-357.5 881,-327.5 547,-327.5"/>
<text text-anchor="start" x="554" y="-338.9" font-family="Arial" font-size="14.00" fill="#000000">currency    </text>
<text text-anchor="start" x="641.8738" y="-338.9" font-family="Arial" font-size="14.00" fill="#666666">[varchar]</text>
<polygon fill="none" stroke="#000000" points="547,-297.5 547,-327.5 881,-327.5 881,-297.5 547,-297.5"/>
<text text-anchor="start" x="554" y="-308.9" font-family="Arial" font-size="14.00" fill="#000000">discount    </text>
<text text-anchor="start" x="640.3324" y="-308.9" font-family="Arial" font-size="14.00" fill="#666666">[real]</text>
<polygon fill="none" stroke="#000000" points="547,-267.5 547,-297.5 881,-297.5 881,-267.5 547,-267.5"/>
<text text-anchor="start" x="554" y="-278.9" font-family="Arial" font-size="14.00" fill="#000000">createdAt    </text>
<text text-anchor="start" x="648.1136" y="-278.9" font-family="Arial" font-size="14.00" fill="#666666">[timestamp without time zone]</text>
<polygon fill="none" stroke="#000000" points="547,-237.5 547,-267.5 881,-267.5 881,-237.5 547,-237.5"/>
<text text-anchor="start" x="554" y="-248.9" font-family="Arial" font-size="14.00" fill="#000000">updatedAt    </text>
<text text-anchor="start" x="652.0182" y="-248.9" font-family="Arial" font-size="14.00" fill="#666666">[timestamp without time zone]</text>
</g>
<!-- public.billOrders&#45;&gt;public.orders -->
<g id="edge2" class="edge">
<title>public.billOrders:orderID&#45;&gt;public.orders:orderID</title>
<path fill="none" stroke="#000000" d="M649.0524,-1027.0209C796.9843,-1011.8709 374.6792,-642.5 547,-642.5"/>
<polygon fill="#000000" stroke="#000000" points="648.9887,-1027.0238 638.7857,-1023.0051 643.9943,-1027.2619 639,-1027.5 639,-1027.5 639,-1027.5 643.9943,-1027.2619 639.2143,-1031.9949 648.9887,-1027.0238 648.9887,-1027.0238"/>
<text text-anchor="start" x="645.9595" y="-1037.5" font-family="Arial" font-size="10.00" fill="#000000">FOREIGN KEY (&quot;orderID&quot;) REFERENCES orders(&quot;orderID&quot;) ON DELETE CASCADE</text>
</g>
</g>
</svg>
