<?xml version="1.0" encoding="UTF-8" standalone="no"?>
<!DOCTYPE svg PUBLIC "-//W3C//DTD SVG 1.1//EN"
 "http://www.w3.org/Graphics/SVG/1.1/DTD/svg11.dtd">
<!-- Generated by graphviz version 2.40.1 (20161225.0304)
 -->
<!-- Title: public.localServiceLocalQualifications Pages: 1 -->
<svg width="1207pt" height="1012pt"
 viewBox="0.00 0.00 1207.00 1012.00" xmlns="http://www.w3.org/2000/svg" xmlns:xlink="http://www.w3.org/1999/xlink">
<g id="graph0" class="graph" transform="scale(1 1) rotate(0) translate(4 1008)">
<title>public.localServiceLocalQualifications</title>
<polygon fill="#ffffff" stroke="transparent" points="-4,4 -4,-1008 1203,-1008 1203,4 -4,4"/>
<!-- public.localServiceLocalQualifications -->
<g id="node1" class="node">
<title>public.localServiceLocalQualifications</title>
<polygon fill="#efefef" stroke="transparent" points="380,-922.5 380,-957.5 821,-957.5 821,-922.5 380,-922.5"/>
<polygon fill="none" stroke="#000000" points="380,-922.5 380,-957.5 821,-957.5 821,-922.5 380,-922.5"/>
<text text-anchor="start" x="386.6959" y="-935.3" font-family="Arial Bold" font-size="18.00" fill="#000000">public.localServiceLocalQualifications</text>
<text text-anchor="start" x="686.7361" y="-935.3" font-family="Arial" font-size="14.00" fill="#000000">    </text>
<text text-anchor="start" x="720.9409" y="-935.3" font-family="Arial" font-size="14.00" fill="#666666">[BASE TABLE]</text>
<polygon fill="none" stroke="#000000" points="380,-892.5 380,-922.5 821,-922.5 821,-892.5 380,-892.5"/>
<text text-anchor="start" x="387" y="-903.9" font-family="Arial" font-size="14.00" fill="#000000">localServiceID </text>
<text text-anchor="start" x="480.3352" y="-903.9" font-family="Arial" font-size="14.00" fill="#666666">[integer]</text>
<polygon fill="none" stroke="#000000" points="380,-862.5 380,-892.5 821,-892.5 821,-862.5 380,-862.5"/>
<text text-anchor="start" x="387" y="-873.9" font-family="Arial" font-size="14.00" fill="#000000">localQualID </text>
<text text-anchor="start" x="463.2286" y="-873.9" font-family="Arial" font-size="14.00" fill="#666666">[integer]</text>
<polygon fill="none" stroke="#000000" stroke-width="3" points="378,-861.5 378,-959.5 822,-959.5 822,-861.5 378,-861.5"/>
</g>
<!-- public.localServices -->
<g id="node2" class="node">
<title>public.localServices</title>
<polygon fill="#efefef" stroke="transparent" points="240,-702.5 240,-737.5 539,-737.5 539,-702.5 240,-702.5"/>
<polygon fill="none" stroke="#000000" points="240,-702.5 240,-737.5 539,-737.5 539,-702.5 240,-702.5"/>
<text text-anchor="start" x="246.7095" y="-715.3" font-family="Arial Bold" font-size="18.00" fill="#000000">public.localServices</text>
<text text-anchor="start" x="404.7225" y="-715.3" font-family="Arial" font-size="14.00" fill="#000000">    </text>
<text text-anchor="start" x="438.9273" y="-715.3" font-family="Arial" font-size="14.00" fill="#666666">[BASE TABLE]</text>
<polygon fill="none" stroke="#000000" points="240,-672.5 240,-702.5 539,-702.5 539,-672.5 240,-672.5"/>
<text text-anchor="start" x="247" y="-683.9" font-family="Arial" font-size="14.00" fill="#000000">localServiceID    </text>
<text text-anchor="start" x="370.6494" y="-683.9" font-family="Arial" font-size="14.00" fill="#666666">[integer]</text>
<polygon fill="none" stroke="#000000" points="240,-642.5 240,-672.5 539,-672.5 539,-642.5 240,-642.5"/>
<text text-anchor="start" x="247" y="-653.9" font-family="Arial" font-size="14.00" fill="#000000">serviceCategoryID    </text>
<text text-anchor="start" x="396.3226" y="-653.9" font-family="Arial" font-size="14.00" fill="#666666">[integer]</text>
<polygon fill="none" stroke="#000000" points="240,-612.5 240,-642.5 539,-642.5 539,-612.5 240,-612.5"/>
<text text-anchor="start" x="247" y="-623.9" font-family="Arial" font-size="14.00" fill="#000000">name    </text>
<text text-anchor="start" x="316.2132" y="-623.9" font-family="Arial" font-size="14.00" fill="#666666">[varchar(256)]</text>
<polygon fill="none" stroke="#000000" points="240,-582.5 240,-612.5 539,-612.5 539,-582.5 240,-582.5"/>
<text text-anchor="start" x="247" y="-593.9" font-family="Arial" font-size="14.00" fill="#000000">storeID    </text>
<text text-anchor="start" x="326.3184" y="-593.9" font-family="Arial" font-size="14.00" fill="#666666">[integer]</text>
<polygon fill="none" stroke="#000000" points="240,-552.5 240,-582.5 539,-582.5 539,-552.5 240,-552.5"/>
<text text-anchor="start" x="247" y="-563.9" font-family="Arial" font-size="14.00" fill="#000000">currency    </text>
<text text-anchor="start" x="334.8738" y="-563.9" font-family="Arial" font-size="14.00" fill="#666666">[varchar(5)]</text>
<polygon fill="none" stroke="#000000" points="240,-522.5 240,-552.5 539,-552.5 539,-522.5 240,-522.5"/>
<text text-anchor="start" x="247" y="-533.9" font-family="Arial" font-size="14.00" fill="#000000">cost    </text>
<text text-anchor="start" x="306.878" y="-533.9" font-family="Arial" font-size="14.00" fill="#666666">[real]</text>
<polygon fill="none" stroke="#000000" points="240,-492.5 240,-522.5 539,-522.5 539,-492.5 240,-492.5"/>
<text text-anchor="start" x="247" y="-503.9" font-family="Arial" font-size="14.00" fill="#000000">includeInAutomaticSms    </text>
<text text-anchor="start" x="427.4516" y="-503.9" font-family="Arial" font-size="14.00" fill="#666666">[boolean]</text>
<polygon fill="none" stroke="#000000" points="240,-462.5 240,-492.5 539,-492.5 539,-462.5 240,-462.5"/>
<text text-anchor="start" x="247" y="-473.9" font-family="Arial" font-size="14.00" fill="#000000">hidden    </text>
<text text-anchor="start" x="323.2244" y="-473.9" font-family="Arial" font-size="14.00" fill="#666666">[boolean]</text>
<polygon fill="none" stroke="#000000" points="240,-432.5 240,-462.5 539,-462.5 539,-432.5 240,-432.5"/>
<text text-anchor="start" x="247" y="-443.9" font-family="Arial" font-size="14.00" fill="#000000">callInterval    </text>
<text text-anchor="start" x="348.0968" y="-443.9" font-family="Arial" font-size="14.00" fill="#666666">[integer]</text>
<polygon fill="none" stroke="#000000" points="240,-402.5 240,-432.5 539,-432.5 539,-402.5 240,-402.5"/>
<text text-anchor="start" x="247" y="-413.9" font-family="Arial" font-size="14.00" fill="#000000">colorForService    </text>
<text text-anchor="start" x="379.202" y="-413.9" font-family="Arial" font-size="14.00" fill="#666666">[varchar]</text>
<polygon fill="none" stroke="#000000" points="240,-372.5 240,-402.5 539,-402.5 539,-372.5 240,-372.5"/>
<text text-anchor="start" x="247" y="-383.9" font-family="Arial" font-size="14.00" fill="#000000">warrantyCard    </text>
<text text-anchor="start" x="365.2034" y="-383.9" font-family="Arial" font-size="14.00" fill="#666666">[boolean]</text>
<polygon fill="none" stroke="#000000" points="240,-342.5 240,-372.5 539,-372.5 539,-342.5 240,-342.5"/>
<text text-anchor="start" x="247" y="-353.9" font-family="Arial" font-size="14.00" fill="#000000">itemNumber    </text>
<text text-anchor="start" x="357.4208" y="-353.9" font-family="Arial" font-size="14.00" fill="#666666">[varchar(256)]</text>
<polygon fill="none" stroke="#000000" points="240,-312.5 240,-342.5 539,-342.5 539,-312.5 240,-312.5"/>
<text text-anchor="start" x="247" y="-323.9" font-family="Arial" font-size="14.00" fill="#000000">award    </text>
<text text-anchor="start" x="319.3198" y="-323.9" font-family="Arial" font-size="14.00" fill="#666666">[real]</text>
<polygon fill="none" stroke="#000000" points="240,-282.5 240,-312.5 539,-312.5 539,-282.5 240,-282.5"/>
<text text-anchor="start" x="247" y="-293.9" font-family="Arial" font-size="14.00" fill="#000000">suppliersArticleNumber    </text>
<text text-anchor="start" x="425.8682" y="-293.9" font-family="Arial" font-size="14.00" fill="#666666">[varchar(256)]</text>
<polygon fill="none" stroke="#000000" points="240,-252.5 240,-282.5 539,-282.5 539,-252.5 240,-252.5"/>
<text text-anchor="start" x="247" y="-263.9" font-family="Arial" font-size="14.00" fill="#000000">externalArticleNumber    </text>
<text text-anchor="start" x="419.6522" y="-263.9" font-family="Arial" font-size="14.00" fill="#666666">[varchar(256)]</text>
<polygon fill="none" stroke="#000000" points="240,-222.5 240,-252.5 539,-252.5 539,-222.5 240,-222.5"/>
<text text-anchor="start" x="247" y="-233.9" font-family="Arial" font-size="14.00" fill="#000000">day1    </text>
<text text-anchor="start" x="311.5526" y="-233.9" font-family="Arial" font-size="14.00" fill="#666666">[time without time zone]</text>
<polygon fill="none" stroke="#000000" points="240,-192.5 240,-222.5 539,-222.5 539,-192.5 240,-192.5"/>
<text text-anchor="start" x="247" y="-203.9" font-family="Arial" font-size="14.00" fill="#000000">day2    </text>
<text text-anchor="start" x="311.5526" y="-203.9" font-family="Arial" font-size="14.00" fill="#666666">[time without time zone]</text>
<polygon fill="none" stroke="#000000" points="240,-162.5 240,-192.5 539,-192.5 539,-162.5 240,-162.5"/>
<text text-anchor="start" x="247" y="-173.9" font-family="Arial" font-size="14.00" fill="#000000">day3    </text>
<text text-anchor="start" x="311.5526" y="-173.9" font-family="Arial" font-size="14.00" fill="#666666">[time without time zone]</text>
<polygon fill="none" stroke="#000000" points="240,-132.5 240,-162.5 539,-162.5 539,-132.5 240,-132.5"/>
<text text-anchor="start" x="247" y="-143.9" font-family="Arial" font-size="14.00" fill="#000000">day4    </text>
<text text-anchor="start" x="311.5526" y="-143.9" font-family="Arial" font-size="14.00" fill="#666666">[time without time zone]</text>
<polygon fill="none" stroke="#000000" points="240,-102.5 240,-132.5 539,-132.5 539,-102.5 240,-102.5"/>
<text text-anchor="start" x="247" y="-113.9" font-family="Arial" font-size="14.00" fill="#000000">day5    </text>
<text text-anchor="start" x="311.5526" y="-113.9" font-family="Arial" font-size="14.00" fill="#666666">[time without time zone]</text>
<polygon fill="none" stroke="#000000" points="240,-72.5 240,-102.5 539,-102.5 539,-72.5 240,-72.5"/>
<text text-anchor="start" x="247" y="-83.9" font-family="Arial" font-size="14.00" fill="#000000">createdAt    </text>
<text text-anchor="start" x="341.1136" y="-83.9" font-family="Arial" font-size="14.00" fill="#666666">[timestamp without time zone]</text>
<polygon fill="none" stroke="#000000" points="240,-42.5 240,-72.5 539,-72.5 539,-42.5 240,-42.5"/>
<text text-anchor="start" x="247" y="-53.9" font-family="Arial" font-size="14.00" fill="#000000">updatedAt    </text>
<text text-anchor="start" x="345.0182" y="-53.9" font-family="Arial" font-size="14.00" fill="#666666">[timestamp without time zone]</text>
</g>
<!-- public.localServiceLocalQualifications&#45;&gt;public.localServices -->
<g id="edge1" class="edge">
<title>public.localServiceLocalQualifications:localServiceID&#45;&gt;public.localServices:localServiceID</title>
<path fill="none" stroke="#000000" d="M370.1093,-906.0138C342.7,-896.6665 357.2482,-845.4791 380,-817 425.2244,-760.3914 493.7756,-837.6086 539,-781 564.9377,-748.5331 580.5556,-687.5 539,-687.5"/>
<polygon fill="#000000" stroke="#000000" points="370.111,-906.014 379.3313,-911.95 375.0555,-906.757 380,-907.5 380,-907.5 380,-907.5 375.0555,-906.757 380.6687,-903.05 370.111,-906.014 370.111,-906.014"/>
<text text-anchor="start" x="6.8575" y="-917.5" font-family="Arial" font-size="10.00" fill="#000000">FOREIGN KEY (&quot;localServiceID&quot;) REFERENCES &quot;localServices&quot;(&quot;localServiceID&quot;)</text>
</g>
<!-- public.qualificationsLocal -->
<g id="node3" class="node">
<title>public.qualificationsLocal</title>
<polygon fill="#efefef" stroke="transparent" points="643,-447.5 643,-482.5 983,-482.5 983,-447.5 643,-447.5"/>
<polygon fill="none" stroke="#000000" points="643,-447.5 643,-482.5 983,-482.5 983,-447.5 643,-447.5"/>
<text text-anchor="start" x="649.6958" y="-460.3" font-family="Arial Bold" font-size="18.00" fill="#000000">public.qualificationsLocal</text>
<text text-anchor="start" x="848.7362" y="-460.3" font-family="Arial" font-size="14.00" fill="#000000">    </text>
<text text-anchor="start" x="882.941" y="-460.3" font-family="Arial" font-size="14.00" fill="#666666">[BASE TABLE]</text>
<polygon fill="none" stroke="#000000" points="643,-417.5 643,-447.5 983,-447.5 983,-417.5 643,-417.5"/>
<text text-anchor="start" x="650" y="-428.9" font-family="Arial" font-size="14.00" fill="#000000">storeID    </text>
<text text-anchor="start" x="729.3184" y="-428.9" font-family="Arial" font-size="14.00" fill="#666666">[integer]</text>
<polygon fill="none" stroke="#000000" points="643,-387.5 643,-417.5 983,-417.5 983,-387.5 643,-387.5"/>
<text text-anchor="start" x="650" y="-398.9" font-family="Arial" font-size="14.00" fill="#000000">localQualID    </text>
<text text-anchor="start" x="756.5428" y="-398.9" font-family="Arial" font-size="14.00" fill="#666666">[integer]</text>
<polygon fill="none" stroke="#000000" points="643,-357.5 643,-387.5 983,-387.5 983,-357.5 643,-357.5"/>
<text text-anchor="start" x="650" y="-368.9" font-family="Arial" font-size="14.00" fill="#000000">localQualName    </text>
<text text-anchor="start" x="779.878" y="-368.9" font-family="Arial" font-size="14.00" fill="#666666">[varchar(64)]</text>
<polygon fill="none" stroke="#000000" points="643,-327.5 643,-357.5 983,-357.5 983,-327.5 643,-327.5"/>
<text text-anchor="start" x="650" y="-338.9" font-family="Arial" font-size="14.00" fill="#000000">createdAt    </text>
<text text-anchor="start" x="744.1136" y="-338.9" font-family="Arial" font-size="14.00" fill="#666666">[timestamp without time zone]</text>
<polygon fill="none" stroke="#000000" points="643,-297.5 643,-327.5 983,-327.5 983,-297.5 643,-297.5"/>
<text text-anchor="start" x="650" y="-308.9" font-family="Arial" font-size="14.00" fill="#000000">updatedAt    </text>
<text text-anchor="start" x="748.0182" y="-308.9" font-family="Arial" font-size="14.00" fill="#666666">[timestamp without time zone]</text>
</g>
<!-- public.localServiceLocalQualifications&#45;&gt;public.qualificationsLocal -->
<g id="edge2" class="edge">
<title>public.localServiceLocalQualifications:localQualID&#45;&gt;public.qualificationsLocal:localQualID</title>
<path fill="none" stroke="#000000" d="M831.2398,-877.134C1026.402,-862.3157 421.1854,-402.5 643,-402.5"/>
<polygon fill="#000000" stroke="#000000" points="830.9936,-877.1427 820.8392,-873.0029 825.9968,-877.3213 821,-877.5 821,-877.5 821,-877.5 825.9968,-877.3213 821.1608,-881.9971 830.9936,-877.1427 830.9936,-877.1427"/>
<text text-anchor="start" x="827.68" y="-887.5" font-family="Arial" font-size="10.00" fill="#000000">FOREIGN KEY (&quot;localQualID&quot;) REFERENCES &quot;qualificationsLocal&quot;(&quot;localQualID&quot;)</text>
</g>
</g>
</svg>
