<?xml version="1.0" encoding="UTF-8" standalone="no"?>
<!DOCTYPE svg PUBLIC "-//W3C//DTD SVG 1.1//EN"
 "http://www.w3.org/Graphics/SVG/1.1/DTD/svg11.dtd">
<!-- Generated by graphviz version 2.40.1 (20161225.0304)
 -->
<!-- Title: public.driverCars Pages: 1 -->
<svg width="837pt" height="1889pt"
 viewBox="0.00 0.00 837.00 1889.00" xmlns="http://www.w3.org/2000/svg" xmlns:xlink="http://www.w3.org/1999/xlink">
<g id="graph0" class="graph" transform="scale(1 1) rotate(0) translate(4 1885)">
<title>public.driverCars</title>
<polygon fill="#ffffff" stroke="transparent" points="-4,4 -4,-1885 833,-1885 833,4 -4,4"/>
<!-- public.driverCars -->
<g id="node1" class="node">
<title>public.driverCars</title>
<polygon fill="#efefef" stroke="transparent" points="479,-1222.5 479,-1257.5 758,-1257.5 758,-1222.5 479,-1222.5"/>
<polygon fill="none" stroke="#000000" points="479,-1222.5 479,-1257.5 758,-1257.5 758,-1222.5 479,-1222.5"/>
<text text-anchor="start" x="487.2196" y="-1235.3" font-family="Arial Bold" font-size="18.00" fill="#000000">public.driverCars</text>
<text text-anchor="start" x="622.2124" y="-1235.3" font-family="Arial" font-size="14.00" fill="#000000">    </text>
<text text-anchor="start" x="656.4172" y="-1235.3" font-family="Arial" font-size="14.00" fill="#666666">[BASE TABLE]</text>
<polygon fill="none" stroke="#000000" points="479,-1192.5 479,-1222.5 758,-1222.5 758,-1192.5 479,-1192.5"/>
<text text-anchor="start" x="486" y="-1203.9" font-family="Arial" font-size="14.00" fill="#000000">driverCarID </text>
<text text-anchor="start" x="561.4306" y="-1203.9" font-family="Arial" font-size="14.00" fill="#666666">[integer]</text>
<polygon fill="none" stroke="#000000" points="479,-1162.5 479,-1192.5 758,-1192.5 758,-1162.5 479,-1162.5"/>
<text text-anchor="start" x="486" y="-1173.9" font-family="Arial" font-size="14.00" fill="#000000">driverID </text>
<text text-anchor="start" x="538.8808" y="-1173.9" font-family="Arial" font-size="14.00" fill="#666666">[integer]</text>
<polygon fill="none" stroke="#000000" points="479,-1132.5 479,-1162.5 758,-1162.5 758,-1132.5 479,-1132.5"/>
<text text-anchor="start" x="485.8899" y="-1143.9" font-family="Arial" font-size="14.00" fill="#000000">driverCarRegistrationNumber </text>
<text text-anchor="start" x="671.7735" y="-1143.9" font-family="Arial" font-size="14.00" fill="#666666">[varchar(11)]</text>
<polygon fill="none" stroke="#000000" points="479,-1102.5 479,-1132.5 758,-1132.5 758,-1102.5 479,-1102.5"/>
<text text-anchor="start" x="486" y="-1113.9" font-family="Arial" font-size="14.00" fill="#000000">driverCarBrand </text>
<text text-anchor="start" x="584.7784" y="-1113.9" font-family="Arial" font-size="14.00" fill="#666666">[varchar(128)]</text>
<polygon fill="none" stroke="#000000" points="479,-1072.5 479,-1102.5 758,-1102.5 758,-1072.5 479,-1072.5"/>
<text text-anchor="start" x="486" y="-1083.9" font-family="Arial" font-size="14.00" fill="#000000">driverCarModel </text>
<text text-anchor="start" x="585.5484" y="-1083.9" font-family="Arial" font-size="14.00" fill="#666666">[varchar(128)]</text>
<polygon fill="none" stroke="#000000" points="479,-1042.5 479,-1072.5 758,-1072.5 758,-1042.5 479,-1042.5"/>
<text text-anchor="start" x="486" y="-1053.9" font-family="Arial" font-size="14.00" fill="#000000">driverCarColor </text>
<text text-anchor="start" x="580.8724" y="-1053.9" font-family="Arial" font-size="14.00" fill="#666666">[varchar(64)]</text>
<polygon fill="none" stroke="#000000" points="479,-1012.5 479,-1042.5 758,-1042.5 758,-1012.5 479,-1012.5"/>
<text text-anchor="start" x="486" y="-1023.9" font-family="Arial" font-size="14.00" fill="#000000">driverCarYear </text>
<text text-anchor="start" x="576.9958" y="-1023.9" font-family="Arial" font-size="14.00" fill="#666666">[integer]</text>
<polygon fill="none" stroke="#000000" points="479,-982.5 479,-1012.5 758,-1012.5 758,-982.5 479,-982.5"/>
<text text-anchor="start" x="486" y="-993.9" font-family="Arial" font-size="14.00" fill="#000000">driverCarChassiNumber </text>
<text text-anchor="start" x="639.9874" y="-993.9" font-family="Arial" font-size="14.00" fill="#666666">[varchar(24)]</text>
<polygon fill="none" stroke="#000000" points="479,-952.5 479,-982.5 758,-982.5 758,-952.5 479,-952.5"/>
<text text-anchor="start" x="486" y="-963.9" font-family="Arial" font-size="14.00" fill="#000000">driverCarNotes </text>
<text text-anchor="start" x="583.9958" y="-963.9" font-family="Arial" font-size="14.00" fill="#666666">[varchar]</text>
<polygon fill="none" stroke="#000000" points="479,-922.5 479,-952.5 758,-952.5 758,-922.5 479,-922.5"/>
<text text-anchor="start" x="486" y="-933.9" font-family="Arial" font-size="14.00" fill="#000000">createdAt </text>
<text text-anchor="start" x="549.7994" y="-933.9" font-family="Arial" font-size="14.00" fill="#666666">[timestamp without time zone]</text>
<polygon fill="none" stroke="#000000" points="479,-892.5 479,-922.5 758,-922.5 758,-892.5 479,-892.5"/>
<text text-anchor="start" x="486" y="-903.9" font-family="Arial" font-size="14.00" fill="#000000">updatedAt </text>
<text text-anchor="start" x="553.704" y="-903.9" font-family="Arial" font-size="14.00" fill="#666666">[timestamp without time zone]</text>
<polygon fill="none" stroke="#000000" stroke-width="3" points="477,-891.5 477,-1259.5 759,-1259.5 759,-891.5 477,-891.5"/>
</g>
<!-- public.drivers -->
<g id="node3" class="node">
<title>public.drivers</title>
<polygon fill="#efefef" stroke="transparent" points="470,-732.5 470,-767.5 767,-767.5 767,-732.5 470,-732.5"/>
<polygon fill="none" stroke="#000000" points="470,-732.5 470,-767.5 767,-767.5 767,-732.5 470,-732.5"/>
<text text-anchor="start" x="501.7159" y="-745.3" font-family="Arial Bold" font-size="18.00" fill="#000000">public.drivers</text>
<text text-anchor="start" x="607.7161" y="-745.3" font-family="Arial" font-size="14.00" fill="#000000">    </text>
<text text-anchor="start" x="641.9209" y="-745.3" font-family="Arial" font-size="14.00" fill="#666666">[BASE TABLE]</text>
<polygon fill="none" stroke="#000000" points="470,-702.5 470,-732.5 767,-732.5 767,-702.5 470,-702.5"/>
<text text-anchor="start" x="477" y="-713.9" font-family="Arial" font-size="14.00" fill="#000000">driverID    </text>
<text text-anchor="start" x="560.195" y="-713.9" font-family="Arial" font-size="14.00" fill="#666666">[integer]</text>
<polygon fill="none" stroke="#000000" points="470,-672.5 470,-702.5 767,-702.5 767,-672.5 470,-672.5"/>
<text text-anchor="start" x="477" y="-683.9" font-family="Arial" font-size="14.00" fill="#000000">customerOrgNumber    </text>
<text text-anchor="start" x="641.8738" y="-683.9" font-family="Arial" font-size="14.00" fill="#666666">[varchar(11)]</text>
<polygon fill="none" stroke="#000000" points="470,-642.5 470,-672.5 767,-672.5 767,-642.5 470,-642.5"/>
<text text-anchor="start" x="477" y="-653.9" font-family="Arial" font-size="14.00" fill="#000000">driverExternalNumber    </text>
<text text-anchor="start" x="647.3156" y="-653.9" font-family="Arial" font-size="14.00" fill="#666666">[varchar(256)]</text>
<polygon fill="none" stroke="#000000" points="470,-612.5 470,-642.5 767,-642.5 767,-612.5 470,-612.5"/>
<text text-anchor="start" x="477" y="-623.9" font-family="Arial" font-size="14.00" fill="#000000">companyReference    </text>
<text text-anchor="start" x="632.5666" y="-623.9" font-family="Arial" font-size="14.00" fill="#666666">[varchar(255)]</text>
<polygon fill="none" stroke="#000000" points="470,-582.5 470,-612.5 767,-612.5 767,-582.5 470,-582.5"/>
<text text-anchor="start" x="477" y="-593.9" font-family="Arial" font-size="14.00" fill="#000000">driverGDPRAccept    </text>
<text text-anchor="start" x="629.4306" y="-593.9" font-family="Arial" font-size="14.00" fill="#666666">[boolean]</text>
<polygon fill="none" stroke="#000000" points="470,-552.5 470,-582.5 767,-582.5 767,-552.5 470,-552.5"/>
<text text-anchor="start" x="477" y="-563.9" font-family="Arial" font-size="14.00" fill="#000000">driverISWarrantyDriver    </text>
<text text-anchor="start" x="653.5162" y="-563.9" font-family="Arial" font-size="14.00" fill="#666666">[boolean]</text>
<polygon fill="none" stroke="#000000" points="470,-522.5 470,-552.5 767,-552.5 767,-522.5 470,-522.5"/>
<text text-anchor="start" x="477" y="-533.9" font-family="Arial" font-size="14.00" fill="#000000">driverAcceptsMarketing    </text>
<text text-anchor="start" x="657.439" y="-533.9" font-family="Arial" font-size="14.00" fill="#666666">[boolean]</text>
<polygon fill="none" stroke="#000000" points="470,-492.5 470,-522.5 767,-522.5 767,-492.5 470,-492.5"/>
<text text-anchor="start" x="477" y="-503.9" font-family="Arial" font-size="14.00" fill="#000000">driverFirstName    </text>
<text text-anchor="start" x="610.7406" y="-503.9" font-family="Arial" font-size="14.00" fill="#666666">[varchar(128)]</text>
<polygon fill="none" stroke="#000000" points="470,-462.5 470,-492.5 767,-492.5 767,-462.5 470,-462.5"/>
<text text-anchor="start" x="477" y="-473.9" font-family="Arial" font-size="14.00" fill="#000000">driverLastName    </text>
<text text-anchor="start" x="609.986" y="-473.9" font-family="Arial" font-size="14.00" fill="#666666">[varchar(128)]</text>
<polygon fill="none" stroke="#000000" points="470,-432.5 470,-462.5 767,-462.5 767,-432.5 470,-432.5"/>
<text text-anchor="start" x="477" y="-443.9" font-family="Arial" font-size="14.00" fill="#000000">driverEmail    </text>
<text text-anchor="start" x="581.1908" y="-443.9" font-family="Arial" font-size="14.00" fill="#666666">[varchar(256)]</text>
<polygon fill="none" stroke="#000000" points="470,-402.5 470,-432.5 767,-432.5 767,-402.5 470,-402.5"/>
<text text-anchor="start" x="477" y="-413.9" font-family="Arial" font-size="14.00" fill="#000000">driverPhoneNumber    </text>
<text text-anchor="start" x="636.4404" y="-413.9" font-family="Arial" font-size="14.00" fill="#666666">[varchar(32)]</text>
<polygon fill="none" stroke="#000000" points="470,-372.5 470,-402.5 767,-402.5 767,-372.5 470,-372.5"/>
<text text-anchor="start" x="477" y="-383.9" font-family="Arial" font-size="14.00" fill="#000000">driverAddress    </text>
<text text-anchor="start" x="597.5428" y="-383.9" font-family="Arial" font-size="14.00" fill="#666666">[varchar(256)]</text>
<polygon fill="none" stroke="#000000" points="470,-342.5 470,-372.5 767,-372.5 767,-342.5 470,-342.5"/>
<text text-anchor="start" x="477" y="-353.9" font-family="Arial" font-size="14.00" fill="#000000">driverZipCode    </text>
<text text-anchor="start" x="599.094" y="-353.9" font-family="Arial" font-size="14.00" fill="#666666">[varchar(16)]</text>
<polygon fill="none" stroke="#000000" points="470,-312.5 470,-342.5 767,-342.5 767,-312.5 470,-312.5"/>
<text text-anchor="start" x="477" y="-323.9" font-family="Arial" font-size="14.00" fill="#000000">driverAddressCity    </text>
<text text-anchor="start" x="621.6466" y="-323.9" font-family="Arial" font-size="14.00" fill="#666666">[varchar(256)]</text>
<polygon fill="none" stroke="#000000" points="470,-282.5 470,-312.5 767,-312.5 767,-282.5 470,-282.5"/>
<text text-anchor="start" x="477" y="-293.9" font-family="Arial" font-size="14.00" fill="#000000">driverCountry    </text>
<text text-anchor="start" x="595.2034" y="-293.9" font-family="Arial" font-size="14.00" fill="#666666">[varchar(256)]</text>
<polygon fill="none" stroke="#000000" points="470,-252.5 470,-282.5 767,-282.5 767,-252.5 470,-252.5"/>
<text text-anchor="start" x="477" y="-263.9" font-family="Arial" font-size="14.00" fill="#000000">driverHasCard    </text>
<text text-anchor="start" x="601.4194" y="-263.9" font-family="Arial" font-size="14.00" fill="#666666">[boolean]</text>
<polygon fill="none" stroke="#000000" points="470,-222.5 470,-252.5 767,-252.5 767,-222.5 470,-222.5"/>
<text text-anchor="start" x="477" y="-233.9" font-family="Arial" font-size="14.00" fill="#000000">driverCardValidTo    </text>
<text text-anchor="start" x="623.9804" y="-233.9" font-family="Arial" font-size="14.00" fill="#666666">[date]</text>
<polygon fill="none" stroke="#000000" points="470,-192.5 470,-222.5 767,-222.5 767,-192.5 470,-192.5"/>
<text text-anchor="start" x="477" y="-203.9" font-family="Arial" font-size="14.00" fill="#000000">driverCardNumber    </text>
<text text-anchor="start" x="626.3058" y="-203.9" font-family="Arial" font-size="14.00" fill="#666666">[varchar(256)]</text>
<polygon fill="none" stroke="#000000" points="470,-162.5 470,-192.5 767,-192.5 767,-162.5 470,-162.5"/>
<text text-anchor="start" x="477" y="-173.9" font-family="Arial" font-size="14.00" fill="#000000">driverKeyNumber    </text>
<text text-anchor="start" x="620.0926" y="-173.9" font-family="Arial" font-size="14.00" fill="#666666">[varchar(256)]</text>
<polygon fill="none" stroke="#000000" points="470,-132.5 470,-162.5 767,-162.5 767,-132.5 470,-132.5"/>
<text text-anchor="start" x="477" y="-143.9" font-family="Arial" font-size="14.00" fill="#000000">driverNotesShared    </text>
<text text-anchor="start" x="627.8878" y="-143.9" font-family="Arial" font-size="14.00" fill="#666666">[varchar]</text>
<polygon fill="none" stroke="#000000" points="470,-102.5 470,-132.5 767,-132.5 767,-102.5 470,-102.5"/>
<text text-anchor="start" x="477" y="-113.9" font-family="Arial" font-size="14.00" fill="#000000">driverNotes    </text>
<text text-anchor="start" x="582.7602" y="-113.9" font-family="Arial" font-size="14.00" fill="#666666">[varchar]</text>
<polygon fill="none" stroke="#000000" points="470,-72.5 470,-102.5 767,-102.5 767,-72.5 470,-72.5"/>
<text text-anchor="start" x="477" y="-83.9" font-family="Arial" font-size="14.00" fill="#000000">createdAt    </text>
<text text-anchor="start" x="571.1136" y="-83.9" font-family="Arial" font-size="14.00" fill="#666666">[timestamp without time zone]</text>
<polygon fill="none" stroke="#000000" points="470,-42.5 470,-72.5 767,-72.5 767,-42.5 470,-42.5"/>
<text text-anchor="start" x="476.9208" y="-53.9" font-family="Arial" font-size="14.00" fill="#000000">updatedAt    </text>
<text text-anchor="start" x="574.939" y="-53.9" font-family="Arial" font-size="14.00" fill="#666666">[timestamp without time zone]</text>
</g>
<!-- public.driverCars&#45;&gt;public.drivers -->
<g id="edge3" class="edge">
<title>public.driverCars:driverID&#45;&gt;public.drivers:driverID</title>
<path fill="none" stroke="#000000" d="M468.8437,-1175.9245C376.2729,-1146.5921 371.2528,-717.5 470,-717.5"/>
<polygon fill="#000000" stroke="#000000" points="469.1182,-1175.967 478.3102,-1181.9468 474.0591,-1176.7335 479,-1177.5 479,-1177.5 479,-1177.5 474.0591,-1176.7335 479.6898,-1173.0532 469.1182,-1175.967 469.1182,-1175.967"/>
<text text-anchor="start" x="89.4695" y="-1187.5" font-family="Arial" font-size="10.00" fill="#000000">FOREIGN KEY (&quot;driverID&quot;) REFERENCES drivers(&quot;driverID&quot;) ON DELETE CASCADE</text>
</g>
<!-- public.orders -->
<g id="node2" class="node">
<title>public.orders</title>
<polygon fill="#efefef" stroke="transparent" points="452,-1802.5 452,-1837.5 786,-1837.5 786,-1802.5 452,-1802.5"/>
<polygon fill="none" stroke="#000000" points="452,-1802.5 452,-1837.5 786,-1837.5 786,-1802.5 452,-1802.5"/>
<text text-anchor="start" x="503.7099" y="-1815.3" font-family="Arial Bold" font-size="18.00" fill="#000000">public.orders</text>
<text text-anchor="start" x="606.7221" y="-1815.3" font-family="Arial" font-size="14.00" fill="#000000">    </text>
<text text-anchor="start" x="640.9269" y="-1815.3" font-family="Arial" font-size="14.00" fill="#666666">[BASE TABLE]</text>
<polygon fill="none" stroke="#000000" points="452,-1772.5 452,-1802.5 786,-1802.5 786,-1772.5 452,-1772.5"/>
<text text-anchor="start" x="459" y="-1783.9" font-family="Arial" font-size="14.00" fill="#000000">orderID    </text>
<text text-anchor="start" x="539.871" y="-1783.9" font-family="Arial" font-size="14.00" fill="#666666">[integer]</text>
<polygon fill="none" stroke="#000000" points="452,-1742.5 452,-1772.5 786,-1772.5 786,-1742.5 452,-1742.5"/>
<text text-anchor="start" x="459" y="-1753.9" font-family="Arial" font-size="14.00" fill="#000000">driverCarID    </text>
<text text-anchor="start" x="564.7448" y="-1753.9" font-family="Arial" font-size="14.00" fill="#666666">[integer]</text>
<polygon fill="none" stroke="#000000" points="452,-1712.5 452,-1742.5 786,-1742.5 786,-1712.5 452,-1712.5"/>
<text text-anchor="start" x="459" y="-1723.9" font-family="Arial" font-size="14.00" fill="#000000">driverID    </text>
<text text-anchor="start" x="542.195" y="-1723.9" font-family="Arial" font-size="14.00" fill="#666666">[integer]</text>
<polygon fill="none" stroke="#000000" points="452,-1682.5 452,-1712.5 786,-1712.5 786,-1682.5 452,-1682.5"/>
<text text-anchor="start" x="459" y="-1693.9" font-family="Arial" font-size="14.00" fill="#000000">storeID    </text>
<text text-anchor="start" x="538.3184" y="-1693.9" font-family="Arial" font-size="14.00" fill="#666666">[integer]</text>
<polygon fill="none" stroke="#000000" points="452,-1652.5 452,-1682.5 786,-1682.5 786,-1652.5 452,-1652.5"/>
<text text-anchor="start" x="459" y="-1663.9" font-family="Arial" font-size="14.00" fill="#000000">orderNotes    </text>
<text text-anchor="start" x="562.4362" y="-1663.9" font-family="Arial" font-size="14.00" fill="#666666">[varchar]</text>
<polygon fill="none" stroke="#000000" points="452,-1622.5 452,-1652.5 786,-1652.5 786,-1622.5 452,-1622.5"/>
<text text-anchor="start" x="459" y="-1633.9" font-family="Arial" font-size="14.00" fill="#000000">employeeID    </text>
<text text-anchor="start" x="567.8822" y="-1633.9" font-family="Arial" font-size="14.00" fill="#666666">[integer]</text>
<polygon fill="none" stroke="#000000" points="452,-1592.5 452,-1622.5 786,-1622.5 786,-1592.5 452,-1592.5"/>
<text text-anchor="start" x="458.7742" y="-1603.9" font-family="Arial" font-size="14.00" fill="#000000">submissionTime    </text>
<text text-anchor="start" x="594.0856" y="-1603.9" font-family="Arial" font-size="14.00" fill="#666666">[timestamp without time zone]</text>
<polygon fill="none" stroke="#000000" points="452,-1562.5 452,-1592.5 786,-1592.5 786,-1562.5 452,-1562.5"/>
<text text-anchor="start" x="459" y="-1573.9" font-family="Arial" font-size="14.00" fill="#000000">pickupTime    </text>
<text text-anchor="start" x="564.7616" y="-1573.9" font-family="Arial" font-size="14.00" fill="#666666">[timestamp without time zone]</text>
<polygon fill="none" stroke="#000000" points="452,-1532.5 452,-1562.5 786,-1562.5 786,-1532.5 452,-1532.5"/>
<text text-anchor="start" x="459" y="-1543.9" font-family="Arial" font-size="14.00" fill="#000000">vatFree    </text>
<text text-anchor="start" x="540.6564" y="-1543.9" font-family="Arial" font-size="14.00" fill="#666666">[boolean]</text>
<polygon fill="none" stroke="#000000" points="452,-1502.5 452,-1532.5 786,-1532.5 786,-1502.5 452,-1502.5"/>
<text text-anchor="start" x="459" y="-1513.9" font-family="Arial" font-size="14.00" fill="#000000">orderStatus    </text>
<text text-anchor="start" x="565.5568" y="-1513.9" font-family="Arial" font-size="14.00" fill="#666666">[&quot;orderStatus&quot;]</text>
<polygon fill="none" stroke="#000000" points="452,-1472.5 452,-1502.5 786,-1502.5 786,-1472.5 452,-1472.5"/>
<text text-anchor="start" x="459" y="-1483.9" font-family="Arial" font-size="14.00" fill="#000000">currency    </text>
<text text-anchor="start" x="546.8738" y="-1483.9" font-family="Arial" font-size="14.00" fill="#666666">[varchar]</text>
<polygon fill="none" stroke="#000000" points="452,-1442.5 452,-1472.5 786,-1472.5 786,-1442.5 452,-1442.5"/>
<text text-anchor="start" x="459" y="-1453.9" font-family="Arial" font-size="14.00" fill="#000000">discount    </text>
<text text-anchor="start" x="545.3324" y="-1453.9" font-family="Arial" font-size="14.00" fill="#666666">[real]</text>
<polygon fill="none" stroke="#000000" points="452,-1412.5 452,-1442.5 786,-1442.5 786,-1412.5 452,-1412.5"/>
<text text-anchor="start" x="459" y="-1423.9" font-family="Arial" font-size="14.00" fill="#000000">createdAt    </text>
<text text-anchor="start" x="553.1136" y="-1423.9" font-family="Arial" font-size="14.00" fill="#666666">[timestamp without time zone]</text>
<polygon fill="none" stroke="#000000" points="452,-1382.5 452,-1412.5 786,-1412.5 786,-1382.5 452,-1382.5"/>
<text text-anchor="start" x="459" y="-1393.9" font-family="Arial" font-size="14.00" fill="#000000">updatedAt    </text>
<text text-anchor="start" x="557.0182" y="-1393.9" font-family="Arial" font-size="14.00" fill="#666666">[timestamp without time zone]</text>
</g>
<!-- public.orders&#45;&gt;public.driverCars -->
<g id="edge1" class="edge">
<title>public.orders:driverCarID&#45;&gt;public.driverCars:driverCarID</title>
<path fill="none" stroke="#000000" d="M441.6892,-1755.9436C361.7005,-1730.7247 392.7561,-1406.6223 452,-1340 542.9972,-1237.6696 667.0028,-1406.3304 758,-1304 786.5003,-1271.9502 800.8889,-1207.5 758,-1207.5"/>
<polygon fill="#000000" stroke="#000000" points="442.112,-1756.0073 451.3283,-1761.9496 447.056,-1756.7537 452,-1757.5 452,-1757.5 452,-1757.5 447.056,-1756.7537 452.6717,-1753.0504 442.112,-1756.0073 442.112,-1756.0073"/>
<text text-anchor="start" x="6.76" y="-1767.5" font-family="Arial" font-size="10.00" fill="#000000">FOREIGN KEY (&quot;driverCarID&quot;) REFERENCES &quot;driverCars&quot;(&quot;driverCarID&quot;) ON DELETE CASCADE</text>
</g>
<!-- public.orders&#45;&gt;public.driverCars -->
<g id="edge2" class="edge">
<title>public.orders:driverID&#45;&gt;public.driverCars:driverID</title>
<path fill="none" stroke="#000000" d="M441.9787,-1725.9093C368.3064,-1701.4269 397.1249,-1401.7094 452,-1340 542.9972,-1237.6696 667.0028,-1406.3304 758,-1304 795.3605,-1261.9865 814.2222,-1177.5 758,-1177.5"/>
<polygon fill="#000000" stroke="#000000" points="442.1237,-1725.9322 451.2945,-1731.9444 447.0618,-1726.7161 452,-1727.5 452,-1727.5 452,-1727.5 447.0618,-1726.7161 452.7055,-1723.0556 442.1237,-1725.9322 442.1237,-1725.9322"/>
<text text-anchor="start" x="22.392" y="-1737.5" font-family="Arial" font-size="10.00" fill="#000000">FOREIGN KEY (&quot;driverID&quot;, &quot;driverCarID&quot;) REFERENCES &quot;driverCars&quot;(&quot;driverID&quot;, &quot;driverCarID&quot;)</text>
</g>
</g>
</svg>
