<?xml version="1.0" encoding="UTF-8" standalone="no"?>
<!DOCTYPE svg PUBLIC "-//W3C//DTD SVG 1.1//EN"
 "http://www.w3.org/Graphics/SVG/1.1/DTD/svg11.dtd">
<!-- Generated by graphviz version 2.40.1 (20161225.0304)
 -->
<!-- Title: public.employeeStore Pages: 1 -->
<svg width="1263pt" height="1439pt"
 viewBox="0.00 0.00 1263.00 1439.00" xmlns="http://www.w3.org/2000/svg" xmlns:xlink="http://www.w3.org/1999/xlink">
<g id="graph0" class="graph" transform="scale(1 1) rotate(0) translate(4 1435)">
<title>public.employeeStore</title>
<polygon fill="#ffffff" stroke="transparent" points="-4,4 -4,-1435 1259,-1435 1259,4 -4,4"/>
<!-- public.employeeStore -->
<g id="node1" class="node">
<title>public.employeeStore</title>
<polygon fill="#efefef" stroke="transparent" points="388,-1072.5 388,-1107.5 702,-1107.5 702,-1072.5 388,-1072.5"/>
<polygon fill="none" stroke="#000000" points="388,-1072.5 388,-1107.5 702,-1107.5 702,-1072.5 388,-1072.5"/>
<text text-anchor="start" x="394.6972" y="-1085.3" font-family="Arial Bold" font-size="18.00" fill="#000000">public.employeeStore</text>
<text text-anchor="start" x="567.7348" y="-1085.3" font-family="Arial" font-size="14.00" fill="#000000">    </text>
<text text-anchor="start" x="601.9396" y="-1085.3" font-family="Arial" font-size="14.00" fill="#666666">[BASE TABLE]</text>
<polygon fill="none" stroke="#000000" points="388,-1042.5 388,-1072.5 702,-1072.5 702,-1042.5 388,-1042.5"/>
<text text-anchor="start" x="395" y="-1053.9" font-family="Arial" font-size="14.00" fill="#000000">storeID </text>
<text text-anchor="start" x="444.0042" y="-1053.9" font-family="Arial" font-size="14.00" fill="#666666">[integer]</text>
<polygon fill="none" stroke="#000000" points="388,-1012.5 388,-1042.5 702,-1042.5 702,-1012.5 388,-1012.5"/>
<text text-anchor="start" x="395" y="-1023.9" font-family="Arial" font-size="14.00" fill="#000000">employeeID </text>
<text text-anchor="start" x="473.568" y="-1023.9" font-family="Arial" font-size="14.00" fill="#666666">[integer]</text>
<polygon fill="none" stroke="#000000" points="388,-982.5 388,-1012.5 702,-1012.5 702,-982.5 388,-982.5"/>
<text text-anchor="start" x="395" y="-993.9" font-family="Arial" font-size="14.00" fill="#000000">employeeStoreID </text>
<text text-anchor="start" x="507.021" y="-993.9" font-family="Arial" font-size="14.00" fill="#666666">[integer]</text>
<polygon fill="none" stroke="#000000" points="388,-952.5 388,-982.5 702,-982.5 702,-952.5 388,-952.5"/>
<text text-anchor="start" x="395" y="-963.9" font-family="Arial" font-size="14.00" fill="#000000">createdAt </text>
<text text-anchor="start" x="458.7994" y="-963.9" font-family="Arial" font-size="14.00" fill="#666666">[timestamp without time zone]</text>
<polygon fill="none" stroke="#000000" points="388,-922.5 388,-952.5 702,-952.5 702,-922.5 388,-922.5"/>
<text text-anchor="start" x="395" y="-933.9" font-family="Arial" font-size="14.00" fill="#000000">updatedAt </text>
<text text-anchor="start" x="462.704" y="-933.9" font-family="Arial" font-size="14.00" fill="#666666">[timestamp without time zone]</text>
<polygon fill="none" stroke="#000000" stroke-width="3" points="386.5,-921.5 386.5,-1109.5 703.5,-1109.5 703.5,-921.5 386.5,-921.5"/>
</g>
<!-- public.stores -->
<g id="node2" class="node">
<title>public.stores</title>
<polygon fill="#efefef" stroke="transparent" points="196,-762.5 196,-797.5 493,-797.5 493,-762.5 196,-762.5"/>
<polygon fill="none" stroke="#000000" points="196,-762.5 196,-797.5 493,-797.5 493,-762.5 196,-762.5"/>
<text text-anchor="start" x="230.208" y="-775.3" font-family="Arial Bold" font-size="18.00" fill="#000000">public.stores</text>
<text text-anchor="start" x="331.224" y="-775.3" font-family="Arial" font-size="14.00" fill="#000000">    </text>
<text text-anchor="start" x="365.4288" y="-775.3" font-family="Arial" font-size="14.00" fill="#666666">[BASE TABLE]</text>
<polygon fill="none" stroke="#000000" points="196,-732.5 196,-762.5 493,-762.5 493,-732.5 196,-732.5"/>
<text text-anchor="start" x="203" y="-743.9" font-family="Arial" font-size="14.00" fill="#000000">storeID    </text>
<text text-anchor="start" x="282.3184" y="-743.9" font-family="Arial" font-size="14.00" fill="#666666">[integer]</text>
<polygon fill="none" stroke="#000000" points="196,-702.5 196,-732.5 493,-732.5 493,-702.5 196,-702.5"/>
<text text-anchor="start" x="203" y="-713.9" font-family="Arial" font-size="14.00" fill="#000000">storeOrgNumber    </text>
<text text-anchor="start" x="341.4306" y="-713.9" font-family="Arial" font-size="14.00" fill="#666666">[varchar(11)]</text>
<polygon fill="none" stroke="#000000" points="196,-672.5 196,-702.5 493,-702.5 493,-672.5 196,-672.5"/>
<text text-anchor="start" x="203" y="-683.9" font-family="Arial" font-size="14.00" fill="#000000">storeName    </text>
<text text-anchor="start" x="305.6536" y="-683.9" font-family="Arial" font-size="14.00" fill="#666666">[varchar(128)]</text>
<polygon fill="none" stroke="#000000" points="196,-642.5 196,-672.5 493,-672.5 493,-642.5 196,-642.5"/>
<text text-anchor="start" x="203" y="-653.9" font-family="Arial" font-size="14.00" fill="#000000">storeWebSite    </text>
<text text-anchor="start" x="321.2174" y="-653.9" font-family="Arial" font-size="14.00" fill="#666666">[varchar]</text>
<polygon fill="none" stroke="#000000" points="196,-612.5 196,-642.5 493,-642.5 493,-612.5 196,-612.5"/>
<text text-anchor="start" x="203" y="-623.9" font-family="Arial" font-size="14.00" fill="#000000">storeVatNumber    </text>
<text text-anchor="start" x="339.1066" y="-623.9" font-family="Arial" font-size="14.00" fill="#666666">[varchar(32)]</text>
<polygon fill="none" stroke="#000000" points="196,-582.5 196,-612.5 493,-612.5 493,-582.5 196,-582.5"/>
<text text-anchor="start" x="203" y="-593.9" font-family="Arial" font-size="14.00" fill="#000000">storeFSkatt    </text>
<text text-anchor="start" x="308.7742" y="-593.9" font-family="Arial" font-size="14.00" fill="#666666">[boolean]</text>
<polygon fill="none" stroke="#000000" points="196,-552.5 196,-582.5 493,-582.5 493,-552.5 196,-552.5"/>
<text text-anchor="start" x="203" y="-563.9" font-family="Arial" font-size="14.00" fill="#000000">storeStatus    </text>
<text text-anchor="start" x="308.0042" y="-563.9" font-family="Arial" font-size="14.00" fill="#666666">[boolean]</text>
<polygon fill="none" stroke="#000000" points="196,-522.5 196,-552.5 493,-552.5 493,-522.5 196,-522.5"/>
<text text-anchor="start" x="203" y="-533.9" font-family="Arial" font-size="14.00" fill="#000000">storeEmail    </text>
<text text-anchor="start" x="303.3142" y="-533.9" font-family="Arial" font-size="14.00" fill="#666666">[varchar]</text>
<polygon fill="none" stroke="#000000" points="196,-492.5 196,-522.5 493,-522.5 493,-492.5 196,-492.5"/>
<text text-anchor="start" x="203" y="-503.9" font-family="Arial" font-size="14.00" fill="#000000">storePhone    </text>
<text text-anchor="start" x="308.7882" y="-503.9" font-family="Arial" font-size="14.00" fill="#666666">[varchar]</text>
<polygon fill="none" stroke="#000000" points="196,-462.5 196,-492.5 493,-492.5 493,-462.5 196,-462.5"/>
<text text-anchor="start" x="203" y="-473.9" font-family="Arial" font-size="14.00" fill="#000000">storeAddress    </text>
<text text-anchor="start" x="319.6662" y="-473.9" font-family="Arial" font-size="14.00" fill="#666666">[varchar]</text>
<polygon fill="none" stroke="#000000" points="196,-432.5 196,-462.5 493,-462.5 493,-432.5 196,-432.5"/>
<text text-anchor="start" x="203" y="-443.9" font-family="Arial" font-size="14.00" fill="#000000">storeZipCode    </text>
<text text-anchor="start" x="321.2174" y="-443.9" font-family="Arial" font-size="14.00" fill="#666666">[varchar(16)]</text>
<polygon fill="none" stroke="#000000" points="196,-402.5 196,-432.5 493,-432.5 493,-402.5 196,-402.5"/>
<text text-anchor="start" x="203" y="-413.9" font-family="Arial" font-size="14.00" fill="#000000">storeCity    </text>
<text text-anchor="start" x="292.425" y="-413.9" font-family="Arial" font-size="14.00" fill="#666666">[varchar]</text>
<polygon fill="none" stroke="#000000" points="196,-372.5 196,-402.5 493,-402.5 493,-372.5 196,-372.5"/>
<text text-anchor="start" x="203" y="-383.9" font-family="Arial" font-size="14.00" fill="#000000">storeCountry    </text>
<text text-anchor="start" x="317.3268" y="-383.9" font-family="Arial" font-size="14.00" fill="#666666">[varchar]</text>
<polygon fill="none" stroke="#000000" points="196,-342.5 196,-372.5 493,-372.5 493,-342.5 196,-342.5"/>
<text text-anchor="start" x="203" y="-353.9" font-family="Arial" font-size="14.00" fill="#000000">storeDescription    </text>
<text text-anchor="start" x="338.3226" y="-353.9" font-family="Arial" font-size="14.00" fill="#666666">[varchar]</text>
<polygon fill="none" stroke="#000000" points="196,-312.5 196,-342.5 493,-342.5 493,-312.5 196,-312.5"/>
<text text-anchor="start" x="203" y="-323.9" font-family="Arial" font-size="14.00" fill="#000000">storeContactPerson    </text>
<text text-anchor="start" x="360.9018" y="-323.9" font-family="Arial" font-size="14.00" fill="#666666">[varchar(64)]</text>
<polygon fill="none" stroke="#000000" points="196,-282.5 196,-312.5 493,-312.5 493,-282.5 196,-282.5"/>
<text text-anchor="start" x="203" y="-293.9" font-family="Arial" font-size="14.00" fill="#000000">storeMaxUsers    </text>
<text text-anchor="start" x="331.3142" y="-293.9" font-family="Arial" font-size="14.00" fill="#666666">[integer]</text>
<polygon fill="none" stroke="#000000" points="196,-252.5 196,-282.5 493,-282.5 493,-252.5 196,-252.5"/>
<text text-anchor="start" x="203" y="-263.9" font-family="Arial" font-size="14.00" fill="#000000">currency    </text>
<text text-anchor="start" x="290.8738" y="-263.9" font-family="Arial" font-size="14.00" fill="#666666">[varchar]</text>
<polygon fill="none" stroke="#000000" points="196,-222.5 196,-252.5 493,-252.5 493,-222.5 196,-222.5"/>
<text text-anchor="start" x="203" y="-233.9" font-family="Arial" font-size="14.00" fill="#000000">storeAllowCarAPI    </text>
<text text-anchor="start" x="346.8738" y="-233.9" font-family="Arial" font-size="14.00" fill="#666666">[boolean]</text>
<polygon fill="none" stroke="#000000" points="196,-192.5 196,-222.5 493,-222.5 493,-192.5 196,-192.5"/>
<text text-anchor="start" x="203" y="-203.9" font-family="Arial" font-size="14.00" fill="#000000">storeAllowSendSMS    </text>
<text text-anchor="start" x="364.7784" y="-203.9" font-family="Arial" font-size="14.00" fill="#666666">[boolean]</text>
<polygon fill="none" stroke="#000000" points="196,-162.5 196,-192.5 493,-192.5 493,-162.5 196,-162.5"/>
<text text-anchor="start" x="203" y="-173.9" font-family="Arial" font-size="14.00" fill="#000000">storeSendSMS    </text>
<text text-anchor="start" x="331.3394" y="-173.9" font-family="Arial" font-size="14.00" fill="#666666">[boolean]</text>
<polygon fill="none" stroke="#000000" points="196,-132.5 196,-162.5 493,-162.5 493,-132.5 196,-132.5"/>
<text text-anchor="start" x="203" y="-143.9" font-family="Arial" font-size="14.00" fill="#000000">storeUsesCheckin    </text>
<text text-anchor="start" x="350.7714" y="-143.9" font-family="Arial" font-size="14.00" fill="#666666">[boolean]</text>
<polygon fill="none" stroke="#000000" points="196,-102.5 196,-132.5 493,-132.5 493,-102.5 196,-102.5"/>
<text text-anchor="start" x="203" y="-113.9" font-family="Arial" font-size="14.00" fill="#000000">storeUsesPIN    </text>
<text text-anchor="start" x="323.5442" y="-113.9" font-family="Arial" font-size="14.00" fill="#666666">[boolean]</text>
<polygon fill="none" stroke="#000000" points="196,-72.5 196,-102.5 493,-102.5 493,-72.5 196,-72.5"/>
<text text-anchor="start" x="203" y="-83.9" font-family="Arial" font-size="14.00" fill="#000000">createdAt    </text>
<text text-anchor="start" x="297.1136" y="-83.9" font-family="Arial" font-size="14.00" fill="#666666">[timestamp without time zone]</text>
<polygon fill="none" stroke="#000000" points="196,-42.5 196,-72.5 493,-72.5 493,-42.5 196,-42.5"/>
<text text-anchor="start" x="202.9208" y="-53.9" font-family="Arial" font-size="14.00" fill="#000000">updatedAt    </text>
<text text-anchor="start" x="300.939" y="-53.9" font-family="Arial" font-size="14.00" fill="#666666">[timestamp without time zone]</text>
</g>
<!-- public.employeeStore&#45;&gt;public.stores -->
<g id="edge1" class="edge">
<title>public.employeeStore:storeID&#45;&gt;public.stores:storeID</title>
<path fill="none" stroke="#000000" d="M377.8687,-1056.8174C310.8223,-1047.2489 343.4664,-939.347 388,-877 416.6744,-836.8558 464.3256,-881.1442 493,-841 517.1537,-807.1849 534.5556,-747.5 493,-747.5"/>
<polygon fill="#000000" stroke="#000000" points="378.0226,-1056.8277 387.6975,-1061.9898 383.0113,-1057.1639 388,-1057.5 388,-1057.5 388,-1057.5 383.0113,-1057.1639 388.3025,-1053.0102 378.0226,-1056.8277 378.0226,-1056.8277"/>
<text text-anchor="start" x="6.623" y="-1067.5" font-family="Arial" font-size="10.00" fill="#000000">FOREIGN KEY (&quot;storeID&quot;) REFERENCES stores(&quot;storeID&quot;) ON DELETE CASCADE</text>
</g>
<!-- public.employees -->
<g id="node3" class="node">
<title>public.employees</title>
<polygon fill="#efefef" stroke="transparent" points="597,-597.5 597,-632.5 894,-632.5 894,-597.5 597,-597.5"/>
<polygon fill="none" stroke="#000000" points="597,-597.5 597,-632.5 894,-632.5 894,-597.5 597,-597.5"/>
<text text-anchor="start" x="612.2027" y="-610.3" font-family="Arial Bold" font-size="18.00" fill="#000000">public.employees</text>
<text text-anchor="start" x="751.2293" y="-610.3" font-family="Arial" font-size="14.00" fill="#000000">    </text>
<text text-anchor="start" x="785.4341" y="-610.3" font-family="Arial" font-size="14.00" fill="#666666">[BASE TABLE]</text>
<polygon fill="none" stroke="#000000" points="597,-567.5 597,-597.5 894,-597.5 894,-567.5 597,-567.5"/>
<text text-anchor="start" x="604" y="-578.9" font-family="Arial" font-size="14.00" fill="#000000">userID    </text>
<text text-anchor="start" x="679.4278" y="-578.9" font-family="Arial" font-size="14.00" fill="#666666">[integer]</text>
<polygon fill="none" stroke="#000000" points="597,-537.5 597,-567.5 894,-567.5 894,-537.5 597,-537.5"/>
<text text-anchor="start" x="604" y="-548.9" font-family="Arial" font-size="14.00" fill="#000000">employeeID    </text>
<text text-anchor="start" x="712.8822" y="-548.9" font-family="Arial" font-size="14.00" fill="#666666">[integer]</text>
<polygon fill="none" stroke="#000000" points="597,-507.5 597,-537.5 894,-537.5 894,-507.5 597,-507.5"/>
<text text-anchor="start" x="604" y="-518.9" font-family="Arial" font-size="14.00" fill="#000000">shortUserName    </text>
<text text-anchor="start" x="736.2034" y="-518.9" font-family="Arial" font-size="14.00" fill="#666666">[varchar(16)]</text>
<polygon fill="none" stroke="#000000" points="597,-477.5 597,-507.5 894,-507.5 894,-477.5 597,-477.5"/>
<text text-anchor="start" x="604" y="-488.9" font-family="Arial" font-size="14.00" fill="#000000">employmentNumber    </text>
<text text-anchor="start" x="764.2118" y="-488.9" font-family="Arial" font-size="14.00" fill="#666666">[varchar(128)]</text>
<polygon fill="none" stroke="#000000" points="597,-447.5 597,-477.5 894,-477.5 894,-447.5 597,-447.5"/>
<text text-anchor="start" x="604" y="-458.9" font-family="Arial" font-size="14.00" fill="#000000">employeePersonalNumber    </text>
<text text-anchor="start" x="803.8948" y="-458.9" font-family="Arial" font-size="14.00" fill="#666666">[varchar(16)]</text>
<polygon fill="none" stroke="#000000" points="597,-417.5 597,-447.5 894,-447.5 894,-417.5 597,-417.5"/>
<text text-anchor="start" x="604" y="-428.9" font-family="Arial" font-size="14.00" fill="#000000">signature    </text>
<text text-anchor="start" x="695.7756" y="-428.9" font-family="Arial" font-size="14.00" fill="#666666">[varchar(4)]</text>
<polygon fill="none" stroke="#000000" points="597,-387.5 597,-417.5 894,-417.5 894,-387.5 597,-387.5"/>
<text text-anchor="start" x="604" y="-398.9" font-family="Arial" font-size="14.00" fill="#000000">employeeHourlyRate    </text>
<text text-anchor="start" x="768.8864" y="-398.9" font-family="Arial" font-size="14.00" fill="#666666">[real]</text>
<polygon fill="none" stroke="#000000" points="597,-357.5 597,-387.5 894,-387.5 894,-357.5 597,-357.5"/>
<text text-anchor="start" x="604" y="-368.9" font-family="Arial" font-size="14.00" fill="#000000">employeeHourlyRateCurrency    </text>
<text text-anchor="start" x="825.662" y="-368.9" font-family="Arial" font-size="14.00" fill="#666666">[varchar]</text>
<polygon fill="none" stroke="#000000" points="597,-327.5 597,-357.5 894,-357.5 894,-327.5 597,-327.5"/>
<text text-anchor="start" x="604" y="-338.9" font-family="Arial" font-size="14.00" fill="#000000">employeePin    </text>
<text text-anchor="start" x="719.1108" y="-338.9" font-family="Arial" font-size="14.00" fill="#666666">[varchar(4)]</text>
<polygon fill="none" stroke="#000000" points="597,-297.5 597,-327.5 894,-327.5 894,-297.5 597,-297.5"/>
<text text-anchor="start" x="604" y="-308.9" font-family="Arial" font-size="14.00" fill="#000000">employeeComment    </text>
<text text-anchor="start" x="759.5512" y="-308.9" font-family="Arial" font-size="14.00" fill="#666666">[varchar]</text>
<polygon fill="none" stroke="#000000" points="597,-267.5 597,-297.5 894,-297.5 894,-267.5 597,-267.5"/>
<text text-anchor="start" x="604" y="-278.9" font-family="Arial" font-size="14.00" fill="#000000">employeeActive    </text>
<text text-anchor="start" x="737.0014" y="-278.9" font-family="Arial" font-size="14.00" fill="#666666">[boolean]</text>
<polygon fill="none" stroke="#000000" points="597,-237.5 597,-267.5 894,-267.5 894,-237.5 597,-237.5"/>
<text text-anchor="start" x="604" y="-248.9" font-family="Arial" font-size="14.00" fill="#000000">createdAt    </text>
<text text-anchor="start" x="698.1136" y="-248.9" font-family="Arial" font-size="14.00" fill="#666666">[timestamp without time zone]</text>
<polygon fill="none" stroke="#000000" points="597,-207.5 597,-237.5 894,-237.5 894,-207.5 597,-207.5"/>
<text text-anchor="start" x="603.9208" y="-218.9" font-family="Arial" font-size="14.00" fill="#000000">updatedAt    </text>
<text text-anchor="start" x="701.939" y="-218.9" font-family="Arial" font-size="14.00" fill="#666666">[timestamp without time zone]</text>
</g>
<!-- public.employeeStore&#45;&gt;public.employees -->
<g id="edge2" class="edge">
<title>public.employeeStore:employeeID&#45;&gt;public.employees:employeeID</title>
<path fill="none" stroke="#000000" d="M712.2596,-1026.696C763.2302,-1017.876 717.0419,-938.2812 702,-877 677.974,-779.1175 621.026,-773.8825 597,-676 583.9155,-622.6935 542.1111,-552.5 597,-552.5"/>
<polygon fill="#000000" stroke="#000000" points="711.9694,-1026.7187 701.6484,-1023.0138 706.9847,-1027.1093 702,-1027.5 702,-1027.5 702,-1027.5 706.9847,-1027.1093 702.3516,-1031.9862 711.9694,-1026.7187 711.9694,-1026.7187"/>
<text text-anchor="start" x="708.9475" y="-1037.5" font-family="Arial" font-size="10.00" fill="#000000">FOREIGN KEY (&quot;employeeID&quot;) REFERENCES employees(&quot;employeeID&quot;) ON DELETE CASCADE</text>
</g>
<!-- public.employeeCheckin -->
<g id="node4" class="node">
<title>public.employeeCheckin</title>
<polygon fill="#efefef" stroke="transparent" points="359,-1352.5 359,-1387.5 730,-1387.5 730,-1352.5 359,-1352.5"/>
<polygon fill="none" stroke="#000000" points="359,-1352.5 359,-1387.5 730,-1387.5 730,-1352.5 359,-1352.5"/>
<text text-anchor="start" x="383.1992" y="-1365.3" font-family="Arial Bold" font-size="18.00" fill="#000000">public.employeeCheckin</text>
<text text-anchor="start" x="578.2328" y="-1365.3" font-family="Arial" font-size="14.00" fill="#000000">    </text>
<text text-anchor="start" x="612.4376" y="-1365.3" font-family="Arial" font-size="14.00" fill="#666666">[BASE TABLE]</text>
<polygon fill="none" stroke="#000000" points="359,-1322.5 359,-1352.5 730,-1352.5 730,-1322.5 359,-1322.5"/>
<text text-anchor="start" x="366" y="-1333.9" font-family="Arial" font-size="14.00" fill="#000000">employeeStoreID    </text>
<text text-anchor="start" x="508.3352" y="-1333.9" font-family="Arial" font-size="14.00" fill="#666666">[integer]</text>
<polygon fill="none" stroke="#000000" points="359,-1292.5 359,-1322.5 730,-1322.5 730,-1292.5 359,-1292.5"/>
<text text-anchor="start" x="366" y="-1303.9" font-family="Arial" font-size="14.00" fill="#000000">employeeCheckedIn    </text>
<text text-anchor="start" x="527.7952" y="-1303.9" font-family="Arial" font-size="14.00" fill="#666666">[timestamp without time zone]</text>
<polygon fill="none" stroke="#000000" points="359,-1262.5 359,-1292.5 730,-1292.5 730,-1262.5 359,-1262.5"/>
<text text-anchor="start" x="365.587" y="-1273.9" font-family="Arial" font-size="14.00" fill="#000000">employeeCheckedOut    </text>
<text text-anchor="start" x="538.2728" y="-1273.9" font-family="Arial" font-size="14.00" fill="#666666">[timestamp without time zone]</text>
<polygon fill="none" stroke="#000000" points="359,-1232.5 359,-1262.5 730,-1262.5 730,-1232.5 359,-1232.5"/>
<text text-anchor="start" x="366" y="-1243.9" font-family="Arial" font-size="14.00" fill="#000000">employeeCheckinID    </text>
<text text-anchor="start" x="525.4432" y="-1243.9" font-family="Arial" font-size="14.00" fill="#666666">[integer]</text>
</g>
<!-- public.employeeCheckin&#45;&gt;public.employeeStore -->
<g id="edge3" class="edge">
<title>public.employeeCheckin:employeeStoreID&#45;&gt;public.employeeStore:employeeStoreID</title>
<path fill="none" stroke="#000000" d="M739.983,-1336.6381C793.1165,-1326.8457 771.4627,-1236.0563 730,-1190 678.8696,-1133.2049 439.1304,-1210.7951 388,-1154 341.4623,-1102.3065 318.4444,-997.5 388,-997.5"/>
<polygon fill="#000000" stroke="#000000" points="739.9629,-1336.6397 729.6129,-1333.0167 734.9815,-1337.0699 730,-1337.5 730,-1337.5 730,-1337.5 734.9815,-1337.0699 730.3871,-1341.9833 739.9629,-1336.6397 739.9629,-1336.6397"/>
<text text-anchor="start" x="737.056" y="-1347.5" font-family="Arial" font-size="10.00" fill="#000000">FOREIGN KEY (&quot;employeeStoreID&quot;) REFERENCES &quot;employeeStore&quot;(&quot;employeeStoreID&quot;) ON DELETE CASCADE</text>
</g>
</g>
</svg>
