<?xml version="1.0" encoding="UTF-8" standalone="no"?>
<!DOCTYPE svg PUBLIC "-//W3C//DTD SVG 1.1//EN"
 "http://www.w3.org/Graphics/SVG/1.1/DTD/svg11.dtd">
<!-- Generated by graphviz version 2.40.1 (20161225.0304)
 -->
<!-- Title: public.bills Pages: 1 -->
<svg width="1245pt" height="1919pt"
 viewBox="0.00 0.00 1245.00 1919.00" xmlns="http://www.w3.org/2000/svg" xmlns:xlink="http://www.w3.org/1999/xlink">
<g id="graph0" class="graph" transform="scale(1 1) rotate(0) translate(4 1915)">
<title>public.bills</title>
<polygon fill="#ffffff" stroke="transparent" points="-4,4 -4,-1915 1241,-1915 1241,4 -4,4"/>
<!-- public.bills -->
<g id="node1" class="node">
<title>public.bills</title>
<polygon fill="#efefef" stroke="transparent" points="460.5,-1612.5 460.5,-1647.5 726.5,-1647.5 726.5,-1612.5 460.5,-1612.5"/>
<polygon fill="none" stroke="#000000" points="460.5,-1612.5 460.5,-1647.5 726.5,-1647.5 726.5,-1612.5 460.5,-1612.5"/>
<text text-anchor="start" x="488.217" y="-1625.3" font-family="Arial Bold" font-size="18.00" fill="#000000">public.bills</text>
<text text-anchor="start" x="571.215" y="-1625.3" font-family="Arial" font-size="14.00" fill="#000000">    </text>
<text text-anchor="start" x="605.4198" y="-1625.3" font-family="Arial" font-size="14.00" fill="#666666">[BASE TABLE]</text>
<polygon fill="none" stroke="#000000" points="460.5,-1582.5 460.5,-1612.5 726.5,-1612.5 726.5,-1582.5 460.5,-1582.5"/>
<text text-anchor="start" x="467.5" y="-1593.9" font-family="Arial" font-size="14.00" fill="#000000">orderID </text>
<text text-anchor="start" x="518.0568" y="-1593.9" font-family="Arial" font-size="14.00" fill="#666666">[integer]</text>
<polygon fill="none" stroke="#000000" points="460.5,-1552.5 460.5,-1582.5 726.5,-1582.5 726.5,-1552.5 460.5,-1552.5"/>
<text text-anchor="start" x="467.5" y="-1563.9" font-family="Arial" font-size="14.00" fill="#000000">employeeID </text>
<text text-anchor="start" x="546.068" y="-1563.9" font-family="Arial" font-size="14.00" fill="#666666">[integer]</text>
<polygon fill="none" stroke="#000000" points="460.5,-1522.5 460.5,-1552.5 726.5,-1552.5 726.5,-1522.5 460.5,-1522.5"/>
<text text-anchor="start" x="467.5" y="-1533.9" font-family="Arial" font-size="14.00" fill="#000000">billingDate </text>
<text text-anchor="start" x="536.7272" y="-1533.9" font-family="Arial" font-size="14.00" fill="#666666">[date]</text>
<polygon fill="none" stroke="#000000" points="460.5,-1492.5 460.5,-1522.5 726.5,-1522.5 726.5,-1492.5 460.5,-1492.5"/>
<text text-anchor="start" x="467.5" y="-1503.9" font-family="Arial" font-size="14.00" fill="#000000">paymentDate </text>
<text text-anchor="start" x="554.6346" y="-1503.9" font-family="Arial" font-size="14.00" fill="#666666">[date]</text>
<polygon fill="none" stroke="#000000" points="460.5,-1462.5 460.5,-1492.5 726.5,-1492.5 726.5,-1462.5 460.5,-1462.5"/>
<text text-anchor="start" x="467.5" y="-1473.9" font-family="Arial" font-size="14.00" fill="#000000">paymentDays </text>
<text text-anchor="start" x="556.9614" y="-1473.9" font-family="Arial" font-size="14.00" fill="#666666">[integer]</text>
<polygon fill="none" stroke="#000000" points="460.5,-1432.5 460.5,-1462.5 726.5,-1462.5 726.5,-1432.5 460.5,-1432.5"/>
<text text-anchor="start" x="467.5" y="-1443.9" font-family="Arial" font-size="14.00" fill="#000000">driverID </text>
<text text-anchor="start" x="520.3808" y="-1443.9" font-family="Arial" font-size="14.00" fill="#666666">[integer]</text>
<polygon fill="none" stroke="#000000" points="460.5,-1402.5 460.5,-1432.5 726.5,-1432.5 726.5,-1402.5 460.5,-1402.5"/>
<text text-anchor="start" x="467.5" y="-1413.9" font-family="Arial" font-size="14.00" fill="#000000">customerOrgNumber </text>
<text text-anchor="start" x="602.0596" y="-1413.9" font-family="Arial" font-size="14.00" fill="#666666">[varchar(11)]</text>
<polygon fill="none" stroke="#000000" points="460.5,-1372.5 460.5,-1402.5 726.5,-1402.5 726.5,-1372.5 460.5,-1372.5"/>
<text text-anchor="start" x="467.5" y="-1383.9" font-family="Arial" font-size="14.00" fill="#000000">driverExternalNumber </text>
<text text-anchor="start" x="607.5014" y="-1383.9" font-family="Arial" font-size="14.00" fill="#666666">[varchar(256)]</text>
<polygon fill="none" stroke="#000000" points="460.5,-1342.5 460.5,-1372.5 726.5,-1372.5 726.5,-1342.5 460.5,-1342.5"/>
<text text-anchor="start" x="467.5" y="-1353.9" font-family="Arial" font-size="14.00" fill="#000000">companyReference </text>
<text text-anchor="start" x="592.7524" y="-1353.9" font-family="Arial" font-size="14.00" fill="#666666">[varchar(255)]</text>
<polygon fill="none" stroke="#000000" points="460.5,-1312.5 460.5,-1342.5 726.5,-1342.5 726.5,-1312.5 460.5,-1312.5"/>
<text text-anchor="start" x="467.5" y="-1323.9" font-family="Arial" font-size="14.00" fill="#000000">driverFirstName </text>
<text text-anchor="start" x="570.9264" y="-1323.9" font-family="Arial" font-size="14.00" fill="#666666">[varchar(128)]</text>
<polygon fill="none" stroke="#000000" points="460.5,-1282.5 460.5,-1312.5 726.5,-1312.5 726.5,-1282.5 460.5,-1282.5"/>
<text text-anchor="start" x="467.5" y="-1293.9" font-family="Arial" font-size="14.00" fill="#000000">driverLastName </text>
<text text-anchor="start" x="570.1718" y="-1293.9" font-family="Arial" font-size="14.00" fill="#666666">[varchar(128)]</text>
<polygon fill="none" stroke="#000000" points="460.5,-1252.5 460.5,-1282.5 726.5,-1282.5 726.5,-1252.5 460.5,-1252.5"/>
<text text-anchor="start" x="467.5" y="-1263.9" font-family="Arial" font-size="14.00" fill="#000000">driverEmail </text>
<text text-anchor="start" x="541.3766" y="-1263.9" font-family="Arial" font-size="14.00" fill="#666666">[varchar(256)]</text>
<polygon fill="none" stroke="#000000" points="460.5,-1222.5 460.5,-1252.5 726.5,-1252.5 726.5,-1222.5 460.5,-1222.5"/>
<text text-anchor="start" x="467.5" y="-1233.9" font-family="Arial" font-size="14.00" fill="#000000">driverPhoneNumber </text>
<text text-anchor="start" x="596.6262" y="-1233.9" font-family="Arial" font-size="14.00" fill="#666666">[varchar(32)]</text>
<polygon fill="none" stroke="#000000" points="460.5,-1192.5 460.5,-1222.5 726.5,-1222.5 726.5,-1192.5 460.5,-1192.5"/>
<text text-anchor="start" x="467.5" y="-1203.9" font-family="Arial" font-size="14.00" fill="#000000">driverAddress </text>
<text text-anchor="start" x="557.7286" y="-1203.9" font-family="Arial" font-size="14.00" fill="#666666">[varchar(256)]</text>
<polygon fill="none" stroke="#000000" points="460.5,-1162.5 460.5,-1192.5 726.5,-1192.5 726.5,-1162.5 460.5,-1162.5"/>
<text text-anchor="start" x="467.5" y="-1173.9" font-family="Arial" font-size="14.00" fill="#000000">driverZipCode </text>
<text text-anchor="start" x="559.2798" y="-1173.9" font-family="Arial" font-size="14.00" fill="#666666">[varchar(16)]</text>
<polygon fill="none" stroke="#000000" points="460.5,-1132.5 460.5,-1162.5 726.5,-1162.5 726.5,-1132.5 460.5,-1132.5"/>
<text text-anchor="start" x="467.5" y="-1143.9" font-family="Arial" font-size="14.00" fill="#000000">driverAddressCity </text>
<text text-anchor="start" x="581.8324" y="-1143.9" font-family="Arial" font-size="14.00" fill="#666666">[varchar(256)]</text>
<polygon fill="none" stroke="#000000" points="460.5,-1102.5 460.5,-1132.5 726.5,-1132.5 726.5,-1102.5 460.5,-1102.5"/>
<text text-anchor="start" x="467.5" y="-1113.9" font-family="Arial" font-size="14.00" fill="#000000">driverCountry </text>
<text text-anchor="start" x="555.3892" y="-1113.9" font-family="Arial" font-size="14.00" fill="#666666">[varchar(256)]</text>
<polygon fill="none" stroke="#000000" points="460.5,-1072.5 460.5,-1102.5 726.5,-1102.5 726.5,-1072.5 460.5,-1072.5"/>
<text text-anchor="start" x="467.5" y="-1083.9" font-family="Arial" font-size="14.00" fill="#000000">driverHasCard </text>
<text text-anchor="start" x="561.6052" y="-1083.9" font-family="Arial" font-size="14.00" fill="#666666">[boolean]</text>
<polygon fill="none" stroke="#000000" points="460.5,-1042.5 460.5,-1072.5 726.5,-1072.5 726.5,-1042.5 460.5,-1042.5"/>
<text text-anchor="start" x="467.5" y="-1053.9" font-family="Arial" font-size="14.00" fill="#000000">driverCardValidTo </text>
<text text-anchor="start" x="584.1662" y="-1053.9" font-family="Arial" font-size="14.00" fill="#666666">[date]</text>
<polygon fill="none" stroke="#000000" points="460.5,-1012.5 460.5,-1042.5 726.5,-1042.5 726.5,-1012.5 460.5,-1012.5"/>
<text text-anchor="start" x="467.5" y="-1023.9" font-family="Arial" font-size="14.00" fill="#000000">driverCardNumber </text>
<text text-anchor="start" x="586.4916" y="-1023.9" font-family="Arial" font-size="14.00" fill="#666666">[varchar(256)]</text>
<polygon fill="none" stroke="#000000" points="460.5,-982.5 460.5,-1012.5 726.5,-1012.5 726.5,-982.5 460.5,-982.5"/>
<text text-anchor="start" x="467.5" y="-993.9" font-family="Arial" font-size="14.00" fill="#000000">driverKeyNumber </text>
<text text-anchor="start" x="580.2784" y="-993.9" font-family="Arial" font-size="14.00" fill="#666666">[varchar(256)]</text>
<polygon fill="none" stroke="#000000" points="460.5,-952.5 460.5,-982.5 726.5,-982.5 726.5,-952.5 460.5,-952.5"/>
<text text-anchor="start" x="467.5" y="-963.9" font-family="Arial" font-size="14.00" fill="#000000">createdAt </text>
<text text-anchor="start" x="531.2994" y="-963.9" font-family="Arial" font-size="14.00" fill="#666666">[timestamp without time zone]</text>
<polygon fill="none" stroke="#000000" points="460.5,-922.5 460.5,-952.5 726.5,-952.5 726.5,-922.5 460.5,-922.5"/>
<text text-anchor="start" x="467.0779" y="-933.9" font-family="Arial" font-size="14.00" fill="#000000">updatedAt </text>
<text text-anchor="start" x="534.7819" y="-933.9" font-family="Arial" font-size="14.00" fill="#666666">[timestamp without time zone]</text>
<polygon fill="none" stroke="#000000" points="460.5,-892.5 460.5,-922.5 726.5,-922.5 726.5,-892.5 460.5,-892.5"/>
<text text-anchor="start" x="467.5" y="-903.9" font-family="Arial" font-size="14.00" fill="#000000">billStatus </text>
<text text-anchor="start" x="528.176" y="-903.9" font-family="Arial" font-size="14.00" fill="#666666">[&quot;billStatus&quot;]</text>
<polygon fill="none" stroke="#000000" stroke-width="3" points="459,-891.5 459,-1649.5 728,-1649.5 728,-891.5 459,-891.5"/>
</g>
<!-- public.employees -->
<g id="node3" class="node">
<title>public.employees</title>
<polygon fill="#efefef" stroke="transparent" points="43.5,-582.5 43.5,-617.5 340.5,-617.5 340.5,-582.5 43.5,-582.5"/>
<polygon fill="none" stroke="#000000" points="43.5,-582.5 43.5,-617.5 340.5,-617.5 340.5,-582.5 43.5,-582.5"/>
<text text-anchor="start" x="58.7027" y="-595.3" font-family="Arial Bold" font-size="18.00" fill="#000000">public.employees</text>
<text text-anchor="start" x="197.7293" y="-595.3" font-family="Arial" font-size="14.00" fill="#000000">    </text>
<text text-anchor="start" x="231.9341" y="-595.3" font-family="Arial" font-size="14.00" fill="#666666">[BASE TABLE]</text>
<polygon fill="none" stroke="#000000" points="43.5,-552.5 43.5,-582.5 340.5,-582.5 340.5,-552.5 43.5,-552.5"/>
<text text-anchor="start" x="50.5" y="-563.9" font-family="Arial" font-size="14.00" fill="#000000">userID    </text>
<text text-anchor="start" x="125.9278" y="-563.9" font-family="Arial" font-size="14.00" fill="#666666">[integer]</text>
<polygon fill="none" stroke="#000000" points="43.5,-522.5 43.5,-552.5 340.5,-552.5 340.5,-522.5 43.5,-522.5"/>
<text text-anchor="start" x="50.5" y="-533.9" font-family="Arial" font-size="14.00" fill="#000000">employeeID    </text>
<text text-anchor="start" x="159.3822" y="-533.9" font-family="Arial" font-size="14.00" fill="#666666">[integer]</text>
<polygon fill="none" stroke="#000000" points="43.5,-492.5 43.5,-522.5 340.5,-522.5 340.5,-492.5 43.5,-492.5"/>
<text text-anchor="start" x="50.5" y="-503.9" font-family="Arial" font-size="14.00" fill="#000000">shortUserName    </text>
<text text-anchor="start" x="182.7034" y="-503.9" font-family="Arial" font-size="14.00" fill="#666666">[varchar(16)]</text>
<polygon fill="none" stroke="#000000" points="43.5,-462.5 43.5,-492.5 340.5,-492.5 340.5,-462.5 43.5,-462.5"/>
<text text-anchor="start" x="50.5" y="-473.9" font-family="Arial" font-size="14.00" fill="#000000">employmentNumber    </text>
<text text-anchor="start" x="210.7118" y="-473.9" font-family="Arial" font-size="14.00" fill="#666666">[varchar(128)]</text>
<polygon fill="none" stroke="#000000" points="43.5,-432.5 43.5,-462.5 340.5,-462.5 340.5,-432.5 43.5,-432.5"/>
<text text-anchor="start" x="50.5" y="-443.9" font-family="Arial" font-size="14.00" fill="#000000">employeePersonalNumber    </text>
<text text-anchor="start" x="250.3948" y="-443.9" font-family="Arial" font-size="14.00" fill="#666666">[varchar(16)]</text>
<polygon fill="none" stroke="#000000" points="43.5,-402.5 43.5,-432.5 340.5,-432.5 340.5,-402.5 43.5,-402.5"/>
<text text-anchor="start" x="50.5" y="-413.9" font-family="Arial" font-size="14.00" fill="#000000">signature    </text>
<text text-anchor="start" x="142.2756" y="-413.9" font-family="Arial" font-size="14.00" fill="#666666">[varchar(4)]</text>
<polygon fill="none" stroke="#000000" points="43.5,-372.5 43.5,-402.5 340.5,-402.5 340.5,-372.5 43.5,-372.5"/>
<text text-anchor="start" x="50.5" y="-383.9" font-family="Arial" font-size="14.00" fill="#000000">employeeHourlyRate    </text>
<text text-anchor="start" x="215.3864" y="-383.9" font-family="Arial" font-size="14.00" fill="#666666">[real]</text>
<polygon fill="none" stroke="#000000" points="43.5,-342.5 43.5,-372.5 340.5,-372.5 340.5,-342.5 43.5,-342.5"/>
<text text-anchor="start" x="50.5" y="-353.9" font-family="Arial" font-size="14.00" fill="#000000">employeeHourlyRateCurrency    </text>
<text text-anchor="start" x="272.162" y="-353.9" font-family="Arial" font-size="14.00" fill="#666666">[varchar]</text>
<polygon fill="none" stroke="#000000" points="43.5,-312.5 43.5,-342.5 340.5,-342.5 340.5,-312.5 43.5,-312.5"/>
<text text-anchor="start" x="50.5" y="-323.9" font-family="Arial" font-size="14.00" fill="#000000">employeePin    </text>
<text text-anchor="start" x="165.6108" y="-323.9" font-family="Arial" font-size="14.00" fill="#666666">[varchar(4)]</text>
<polygon fill="none" stroke="#000000" points="43.5,-282.5 43.5,-312.5 340.5,-312.5 340.5,-282.5 43.5,-282.5"/>
<text text-anchor="start" x="50.5" y="-293.9" font-family="Arial" font-size="14.00" fill="#000000">employeeComment    </text>
<text text-anchor="start" x="206.0512" y="-293.9" font-family="Arial" font-size="14.00" fill="#666666">[varchar]</text>
<polygon fill="none" stroke="#000000" points="43.5,-252.5 43.5,-282.5 340.5,-282.5 340.5,-252.5 43.5,-252.5"/>
<text text-anchor="start" x="50.5" y="-263.9" font-family="Arial" font-size="14.00" fill="#000000">employeeActive    </text>
<text text-anchor="start" x="183.5014" y="-263.9" font-family="Arial" font-size="14.00" fill="#666666">[boolean]</text>
<polygon fill="none" stroke="#000000" points="43.5,-222.5 43.5,-252.5 340.5,-252.5 340.5,-222.5 43.5,-222.5"/>
<text text-anchor="start" x="50.5" y="-233.9" font-family="Arial" font-size="14.00" fill="#000000">createdAt    </text>
<text text-anchor="start" x="144.6136" y="-233.9" font-family="Arial" font-size="14.00" fill="#666666">[timestamp without time zone]</text>
<polygon fill="none" stroke="#000000" points="43.5,-192.5 43.5,-222.5 340.5,-222.5 340.5,-192.5 43.5,-192.5"/>
<text text-anchor="start" x="50.4208" y="-203.9" font-family="Arial" font-size="14.00" fill="#000000">updatedAt    </text>
<text text-anchor="start" x="148.439" y="-203.9" font-family="Arial" font-size="14.00" fill="#666666">[timestamp without time zone]</text>
</g>
<!-- public.bills&#45;&gt;public.employees -->
<g id="edge2" class="edge">
<title>public.bills:employeeID&#45;&gt;public.employees:employeeID</title>
<path fill="none" stroke="#000000" d="M452.736,-1560.9226C402.3264,-1473.2007 395.4088,-537.5 340.5,-537.5"/>
<polygon fill="#000000" stroke="#000000" points="452.8699,-1561.036 457.5912,-1570.9335 456.685,-1564.268 460.5,-1567.5 460.5,-1567.5 460.5,-1567.5 456.685,-1564.268 463.4088,-1564.0665 452.8699,-1561.036 452.8699,-1561.036"/>
<text text-anchor="start" x="126.7285" y="-1577.5" font-family="Arial" font-size="10.00" fill="#000000">FOREIGN KEY (&quot;employeeID&quot;) REFERENCES employees(&quot;employeeID&quot;)</text>
</g>
<!-- public.drivers -->
<g id="node4" class="node">
<title>public.drivers</title>
<polygon fill="#efefef" stroke="transparent" points="444.5,-732.5 444.5,-767.5 741.5,-767.5 741.5,-732.5 444.5,-732.5"/>
<polygon fill="none" stroke="#000000" points="444.5,-732.5 444.5,-767.5 741.5,-767.5 741.5,-732.5 444.5,-732.5"/>
<text text-anchor="start" x="476.2159" y="-745.3" font-family="Arial Bold" font-size="18.00" fill="#000000">public.drivers</text>
<text text-anchor="start" x="582.2161" y="-745.3" font-family="Arial" font-size="14.00" fill="#000000">    </text>
<text text-anchor="start" x="616.4209" y="-745.3" font-family="Arial" font-size="14.00" fill="#666666">[BASE TABLE]</text>
<polygon fill="none" stroke="#000000" points="444.5,-702.5 444.5,-732.5 741.5,-732.5 741.5,-702.5 444.5,-702.5"/>
<text text-anchor="start" x="451.5" y="-713.9" font-family="Arial" font-size="14.00" fill="#000000">driverID    </text>
<text text-anchor="start" x="534.695" y="-713.9" font-family="Arial" font-size="14.00" fill="#666666">[integer]</text>
<polygon fill="none" stroke="#000000" points="444.5,-672.5 444.5,-702.5 741.5,-702.5 741.5,-672.5 444.5,-672.5"/>
<text text-anchor="start" x="451.5" y="-683.9" font-family="Arial" font-size="14.00" fill="#000000">customerOrgNumber    </text>
<text text-anchor="start" x="616.3738" y="-683.9" font-family="Arial" font-size="14.00" fill="#666666">[varchar(11)]</text>
<polygon fill="none" stroke="#000000" points="444.5,-642.5 444.5,-672.5 741.5,-672.5 741.5,-642.5 444.5,-642.5"/>
<text text-anchor="start" x="451.5" y="-653.9" font-family="Arial" font-size="14.00" fill="#000000">driverExternalNumber    </text>
<text text-anchor="start" x="621.8156" y="-653.9" font-family="Arial" font-size="14.00" fill="#666666">[varchar(256)]</text>
<polygon fill="none" stroke="#000000" points="444.5,-612.5 444.5,-642.5 741.5,-642.5 741.5,-612.5 444.5,-612.5"/>
<text text-anchor="start" x="451.5" y="-623.9" font-family="Arial" font-size="14.00" fill="#000000">companyReference    </text>
<text text-anchor="start" x="607.0666" y="-623.9" font-family="Arial" font-size="14.00" fill="#666666">[varchar(255)]</text>
<polygon fill="none" stroke="#000000" points="444.5,-582.5 444.5,-612.5 741.5,-612.5 741.5,-582.5 444.5,-582.5"/>
<text text-anchor="start" x="451.5" y="-593.9" font-family="Arial" font-size="14.00" fill="#000000">driverGDPRAccept    </text>
<text text-anchor="start" x="603.9306" y="-593.9" font-family="Arial" font-size="14.00" fill="#666666">[boolean]</text>
<polygon fill="none" stroke="#000000" points="444.5,-552.5 444.5,-582.5 741.5,-582.5 741.5,-552.5 444.5,-552.5"/>
<text text-anchor="start" x="451.5" y="-563.9" font-family="Arial" font-size="14.00" fill="#000000">driverISWarrantyDriver    </text>
<text text-anchor="start" x="628.0162" y="-563.9" font-family="Arial" font-size="14.00" fill="#666666">[boolean]</text>
<polygon fill="none" stroke="#000000" points="444.5,-522.5 444.5,-552.5 741.5,-552.5 741.5,-522.5 444.5,-522.5"/>
<text text-anchor="start" x="451.5" y="-533.9" font-family="Arial" font-size="14.00" fill="#000000">driverAcceptsMarketing    </text>
<text text-anchor="start" x="631.939" y="-533.9" font-family="Arial" font-size="14.00" fill="#666666">[boolean]</text>
<polygon fill="none" stroke="#000000" points="444.5,-492.5 444.5,-522.5 741.5,-522.5 741.5,-492.5 444.5,-492.5"/>
<text text-anchor="start" x="451.5" y="-503.9" font-family="Arial" font-size="14.00" fill="#000000">driverFirstName    </text>
<text text-anchor="start" x="585.2406" y="-503.9" font-family="Arial" font-size="14.00" fill="#666666">[varchar(128)]</text>
<polygon fill="none" stroke="#000000" points="444.5,-462.5 444.5,-492.5 741.5,-492.5 741.5,-462.5 444.5,-462.5"/>
<text text-anchor="start" x="451.5" y="-473.9" font-family="Arial" font-size="14.00" fill="#000000">driverLastName    </text>
<text text-anchor="start" x="584.486" y="-473.9" font-family="Arial" font-size="14.00" fill="#666666">[varchar(128)]</text>
<polygon fill="none" stroke="#000000" points="444.5,-432.5 444.5,-462.5 741.5,-462.5 741.5,-432.5 444.5,-432.5"/>
<text text-anchor="start" x="451.5" y="-443.9" font-family="Arial" font-size="14.00" fill="#000000">driverEmail    </text>
<text text-anchor="start" x="555.6908" y="-443.9" font-family="Arial" font-size="14.00" fill="#666666">[varchar(256)]</text>
<polygon fill="none" stroke="#000000" points="444.5,-402.5 444.5,-432.5 741.5,-432.5 741.5,-402.5 444.5,-402.5"/>
<text text-anchor="start" x="451.5" y="-413.9" font-family="Arial" font-size="14.00" fill="#000000">driverPhoneNumber    </text>
<text text-anchor="start" x="610.9404" y="-413.9" font-family="Arial" font-size="14.00" fill="#666666">[varchar(32)]</text>
<polygon fill="none" stroke="#000000" points="444.5,-372.5 444.5,-402.5 741.5,-402.5 741.5,-372.5 444.5,-372.5"/>
<text text-anchor="start" x="451.5" y="-383.9" font-family="Arial" font-size="14.00" fill="#000000">driverAddress    </text>
<text text-anchor="start" x="572.0428" y="-383.9" font-family="Arial" font-size="14.00" fill="#666666">[varchar(256)]</text>
<polygon fill="none" stroke="#000000" points="444.5,-342.5 444.5,-372.5 741.5,-372.5 741.5,-342.5 444.5,-342.5"/>
<text text-anchor="start" x="451.5" y="-353.9" font-family="Arial" font-size="14.00" fill="#000000">driverZipCode    </text>
<text text-anchor="start" x="573.594" y="-353.9" font-family="Arial" font-size="14.00" fill="#666666">[varchar(16)]</text>
<polygon fill="none" stroke="#000000" points="444.5,-312.5 444.5,-342.5 741.5,-342.5 741.5,-312.5 444.5,-312.5"/>
<text text-anchor="start" x="451.5" y="-323.9" font-family="Arial" font-size="14.00" fill="#000000">driverAddressCity    </text>
<text text-anchor="start" x="596.1466" y="-323.9" font-family="Arial" font-size="14.00" fill="#666666">[varchar(256)]</text>
<polygon fill="none" stroke="#000000" points="444.5,-282.5 444.5,-312.5 741.5,-312.5 741.5,-282.5 444.5,-282.5"/>
<text text-anchor="start" x="451.5" y="-293.9" font-family="Arial" font-size="14.00" fill="#000000">driverCountry    </text>
<text text-anchor="start" x="569.7034" y="-293.9" font-family="Arial" font-size="14.00" fill="#666666">[varchar(256)]</text>
<polygon fill="none" stroke="#000000" points="444.5,-252.5 444.5,-282.5 741.5,-282.5 741.5,-252.5 444.5,-252.5"/>
<text text-anchor="start" x="451.5" y="-263.9" font-family="Arial" font-size="14.00" fill="#000000">driverHasCard    </text>
<text text-anchor="start" x="575.9194" y="-263.9" font-family="Arial" font-size="14.00" fill="#666666">[boolean]</text>
<polygon fill="none" stroke="#000000" points="444.5,-222.5 444.5,-252.5 741.5,-252.5 741.5,-222.5 444.5,-222.5"/>
<text text-anchor="start" x="451.5" y="-233.9" font-family="Arial" font-size="14.00" fill="#000000">driverCardValidTo    </text>
<text text-anchor="start" x="598.4804" y="-233.9" font-family="Arial" font-size="14.00" fill="#666666">[date]</text>
<polygon fill="none" stroke="#000000" points="444.5,-192.5 444.5,-222.5 741.5,-222.5 741.5,-192.5 444.5,-192.5"/>
<text text-anchor="start" x="451.5" y="-203.9" font-family="Arial" font-size="14.00" fill="#000000">driverCardNumber    </text>
<text text-anchor="start" x="600.8058" y="-203.9" font-family="Arial" font-size="14.00" fill="#666666">[varchar(256)]</text>
<polygon fill="none" stroke="#000000" points="444.5,-162.5 444.5,-192.5 741.5,-192.5 741.5,-162.5 444.5,-162.5"/>
<text text-anchor="start" x="451.5" y="-173.9" font-family="Arial" font-size="14.00" fill="#000000">driverKeyNumber    </text>
<text text-anchor="start" x="594.5926" y="-173.9" font-family="Arial" font-size="14.00" fill="#666666">[varchar(256)]</text>
<polygon fill="none" stroke="#000000" points="444.5,-132.5 444.5,-162.5 741.5,-162.5 741.5,-132.5 444.5,-132.5"/>
<text text-anchor="start" x="451.5" y="-143.9" font-family="Arial" font-size="14.00" fill="#000000">driverNotesShared    </text>
<text text-anchor="start" x="602.3878" y="-143.9" font-family="Arial" font-size="14.00" fill="#666666">[varchar]</text>
<polygon fill="none" stroke="#000000" points="444.5,-102.5 444.5,-132.5 741.5,-132.5 741.5,-102.5 444.5,-102.5"/>
<text text-anchor="start" x="451.5" y="-113.9" font-family="Arial" font-size="14.00" fill="#000000">driverNotes    </text>
<text text-anchor="start" x="557.2602" y="-113.9" font-family="Arial" font-size="14.00" fill="#666666">[varchar]</text>
<polygon fill="none" stroke="#000000" points="444.5,-72.5 444.5,-102.5 741.5,-102.5 741.5,-72.5 444.5,-72.5"/>
<text text-anchor="start" x="451.5" y="-83.9" font-family="Arial" font-size="14.00" fill="#000000">createdAt    </text>
<text text-anchor="start" x="545.6136" y="-83.9" font-family="Arial" font-size="14.00" fill="#666666">[timestamp without time zone]</text>
<polygon fill="none" stroke="#000000" points="444.5,-42.5 444.5,-72.5 741.5,-72.5 741.5,-42.5 444.5,-42.5"/>
<text text-anchor="start" x="451.4208" y="-53.9" font-family="Arial" font-size="14.00" fill="#000000">updatedAt    </text>
<text text-anchor="start" x="549.439" y="-53.9" font-family="Arial" font-size="14.00" fill="#666666">[timestamp without time zone]</text>
</g>
<!-- public.bills&#45;&gt;public.drivers -->
<g id="edge3" class="edge">
<title>public.bills:driverID&#45;&gt;public.drivers:driverID</title>
<path fill="none" stroke="#000000" d="M450.1301,-1447.2927C196.014,-1436.9839 286.5036,-1044.7099 460.5,-847 543.6826,-752.4807 658.3174,-905.5193 741.5,-811 768.9538,-779.8046 783.0556,-717.5 741.5,-717.5"/>
<polygon fill="#000000" stroke="#000000" points="450.502,-1447.3001 460.41,-1451.9991 455.501,-1447.4 460.5,-1447.5 460.5,-1447.5 460.5,-1447.5 455.501,-1447.4 460.59,-1443.0009 450.502,-1447.3001 450.502,-1447.3001"/>
<text text-anchor="start" x="181.2505" y="-1457.5" font-family="Arial" font-size="10.00" fill="#000000">FOREIGN KEY (&quot;driverID&quot;) REFERENCES drivers(&quot;driverID&quot;)</text>
</g>
<!-- public.companycustomers -->
<g id="node5" class="node">
<title>public.companycustomers</title>
<polygon fill="#efefef" stroke="transparent" points="845.5,-537.5 845.5,-572.5 1194.5,-572.5 1194.5,-537.5 845.5,-537.5"/>
<polygon fill="none" stroke="#000000" points="845.5,-537.5 845.5,-572.5 1194.5,-572.5 1194.5,-537.5 845.5,-537.5"/>
<text text-anchor="start" x="852.2003" y="-550.3" font-family="Arial Bold" font-size="18.00" fill="#000000">public.companycustomers</text>
<text text-anchor="start" x="1060.2317" y="-550.3" font-family="Arial" font-size="14.00" fill="#000000">    </text>
<text text-anchor="start" x="1094.4365" y="-550.3" font-family="Arial" font-size="14.00" fill="#666666">[BASE TABLE]</text>
<polygon fill="none" stroke="#000000" points="845.5,-507.5 845.5,-537.5 1194.5,-537.5 1194.5,-507.5 845.5,-507.5"/>
<text text-anchor="start" x="852.5" y="-518.9" font-family="Arial" font-size="14.00" fill="#000000">customerOrgNumber    </text>
<text text-anchor="start" x="1017.3738" y="-518.9" font-family="Arial" font-size="14.00" fill="#666666">[varchar(11)]</text>
<polygon fill="none" stroke="#000000" points="845.5,-477.5 845.5,-507.5 1194.5,-507.5 1194.5,-477.5 845.5,-477.5"/>
<text text-anchor="start" x="852.5" y="-488.9" font-family="Arial" font-size="14.00" fill="#000000">customerCompanyName    </text>
<text text-anchor="start" x="1041.4944" y="-488.9" font-family="Arial" font-size="14.00" fill="#666666">[varchar(255)]</text>
<polygon fill="none" stroke="#000000" points="845.5,-447.5 845.5,-477.5 1194.5,-477.5 1194.5,-447.5 845.5,-447.5"/>
<text text-anchor="start" x="852.5" y="-458.9" font-family="Arial" font-size="14.00" fill="#000000">companyAddress    </text>
<text text-anchor="start" x="994.8408" y="-458.9" font-family="Arial" font-size="14.00" fill="#666666">[varchar(256)]</text>
<polygon fill="none" stroke="#000000" points="845.5,-417.5 845.5,-447.5 1194.5,-447.5 1194.5,-417.5 845.5,-417.5"/>
<text text-anchor="start" x="852.5" y="-428.9" font-family="Arial" font-size="14.00" fill="#000000">companyZipCode    </text>
<text text-anchor="start" x="996.392" y="-428.9" font-family="Arial" font-size="14.00" fill="#666666">[varchar(16)]</text>
<polygon fill="none" stroke="#000000" points="845.5,-387.5 845.5,-417.5 1194.5,-417.5 1194.5,-387.5 845.5,-387.5"/>
<text text-anchor="start" x="852.5" y="-398.9" font-family="Arial" font-size="14.00" fill="#000000">companyEmail    </text>
<text text-anchor="start" x="978.4888" y="-398.9" font-family="Arial" font-size="14.00" fill="#666666">[varchar(256)]</text>
<polygon fill="none" stroke="#000000" points="845.5,-357.5 845.5,-387.5 1194.5,-387.5 1194.5,-357.5 845.5,-357.5"/>
<text text-anchor="start" x="852.5" y="-368.9" font-family="Arial" font-size="14.00" fill="#000000">companyPhone    </text>
<text text-anchor="start" x="983.9628" y="-368.9" font-family="Arial" font-size="14.00" fill="#666666">[varchar(16)]</text>
<polygon fill="none" stroke="#000000" points="845.5,-327.5 845.5,-357.5 1194.5,-357.5 1194.5,-327.5 845.5,-327.5"/>
<text text-anchor="start" x="852.5" y="-338.9" font-family="Arial" font-size="14.00" fill="#000000">companyAddressCity    </text>
<text text-anchor="start" x="1018.9446" y="-338.9" font-family="Arial" font-size="14.00" fill="#666666">[varchar(256)]</text>
<polygon fill="none" stroke="#000000" points="845.5,-297.5 845.5,-327.5 1194.5,-327.5 1194.5,-297.5 845.5,-297.5"/>
<text text-anchor="start" x="852.5" y="-308.9" font-family="Arial" font-size="14.00" fill="#000000">companyCountry    </text>
<text text-anchor="start" x="992.5014" y="-308.9" font-family="Arial" font-size="14.00" fill="#666666">[varchar(256)]</text>
<polygon fill="none" stroke="#000000" points="845.5,-267.5 845.5,-297.5 1194.5,-297.5 1194.5,-267.5 845.5,-267.5"/>
<text text-anchor="start" x="852.5" y="-278.9" font-family="Arial" font-size="14.00" fill="#000000">createdAt    </text>
<text text-anchor="start" x="946.6136" y="-278.9" font-family="Arial" font-size="14.00" fill="#666666">[timestamp without time zone]</text>
<polygon fill="none" stroke="#000000" points="845.5,-237.5 845.5,-267.5 1194.5,-267.5 1194.5,-237.5 845.5,-237.5"/>
<text text-anchor="start" x="852.5" y="-248.9" font-family="Arial" font-size="14.00" fill="#000000">updatedAt    </text>
<text text-anchor="start" x="950.5182" y="-248.9" font-family="Arial" font-size="14.00" fill="#666666">[timestamp without time zone]</text>
</g>
<!-- public.bills&#45;&gt;public.companycustomers -->
<g id="edge4" class="edge">
<title>public.bills:customerOrgNumber&#45;&gt;public.companycustomers:customerOrgNumber</title>
<path fill="none" stroke="#000000" d="M734.0442,-1410.5554C778.6778,-1327.2511 797.9364,-522.5 845.5,-522.5"/>
<polygon fill="#000000" stroke="#000000" points="733.8574,-1410.7273 723.4523,-1414.1892 730.1787,-1414.1137 726.5,-1417.5 726.5,-1417.5 726.5,-1417.5 730.1787,-1414.1137 729.5477,-1420.8108 733.8574,-1410.7273 733.8574,-1410.7273"/>
<text text-anchor="start" x="733.5665" y="-1427.5" font-family="Arial" font-size="10.00" fill="#000000">FOREIGN KEY (&quot;customerOrgNumber&quot;) REFERENCES companycustomers(&quot;customerOrgNumber&quot;)</text>
</g>
<!-- public.billOrders -->
<g id="node2" class="node">
<title>public.billOrders</title>
<polygon fill="#efefef" stroke="transparent" points="458.5,-1832.5 458.5,-1867.5 728.5,-1867.5 728.5,-1832.5 458.5,-1832.5"/>
<polygon fill="none" stroke="#000000" points="458.5,-1832.5 458.5,-1867.5 728.5,-1867.5 728.5,-1832.5 458.5,-1832.5"/>
<text text-anchor="start" x="465.2175" y="-1845.3" font-family="Arial Bold" font-size="18.00" fill="#000000">public.billOrders</text>
<text text-anchor="start" x="594.2145" y="-1845.3" font-family="Arial" font-size="14.00" fill="#000000">    </text>
<text text-anchor="start" x="628.4193" y="-1845.3" font-family="Arial" font-size="14.00" fill="#666666">[BASE TABLE]</text>
<polygon fill="none" stroke="#000000" points="458.5,-1802.5 458.5,-1832.5 728.5,-1832.5 728.5,-1802.5 458.5,-1802.5"/>
<text text-anchor="start" x="465.5" y="-1813.9" font-family="Arial" font-size="14.00" fill="#000000">billID    </text>
<text text-anchor="start" x="530.8044" y="-1813.9" font-family="Arial" font-size="14.00" fill="#666666">[integer]</text>
<polygon fill="none" stroke="#000000" points="458.5,-1772.5 458.5,-1802.5 728.5,-1802.5 728.5,-1772.5 458.5,-1772.5"/>
<text text-anchor="start" x="465.5" y="-1783.9" font-family="Arial" font-size="14.00" fill="#000000">orderID    </text>
<text text-anchor="start" x="546.371" y="-1783.9" font-family="Arial" font-size="14.00" fill="#666666">[integer]</text>
</g>
<!-- public.billOrders&#45;&gt;public.bills -->
<g id="edge1" class="edge">
<title>public.billOrders:billID&#45;&gt;public.bills:orderID</title>
<path fill="none" stroke="#000000" d="M738.7088,-1816.6591C826.0122,-1801.8888 820.7487,-1597.5 726.5,-1597.5"/>
<polygon fill="#000000" stroke="#000000" points="738.4662,-1816.679 728.1305,-1813.0152 733.4831,-1817.0895 728.5,-1817.5 728.5,-1817.5 728.5,-1817.5 733.4831,-1817.0895 728.8695,-1821.9848 738.4662,-1816.679 738.4662,-1816.679"/>
<text text-anchor="start" x="735.5785" y="-1827.5" font-family="Arial" font-size="10.00" fill="#000000">FOREIGN KEY (&quot;billID&quot;) REFERENCES bills(&quot;orderID&quot;) ON DELETE CASCADE</text>
</g>
</g>
</svg>
