<?xml version="1.0" encoding="UTF-8" standalone="no"?>
<!DOCTYPE svg PUBLIC "-//W3C//DTD SVG 1.1//EN"
 "http://www.w3.org/Graphics/SVG/1.1/DTD/svg11.dtd">
<!-- Generated by graphviz version 2.40.1 (20161225.0304)
 -->
<!-- Title: public.orderListing Pages: 1 -->
<svg width="1652pt" height="1672pt"
 viewBox="0.00 0.00 1651.50 1672.00" xmlns="http://www.w3.org/2000/svg" xmlns:xlink="http://www.w3.org/1999/xlink">
<g id="graph0" class="graph" transform="scale(1 1) rotate(0) translate(4 1668)">
<title>public.orderListing</title>
<polygon fill="#ffffff" stroke="transparent" points="-4,4 -4,-1668 1647.5,-1668 1647.5,4 -4,4"/>
<!-- public.orderListing -->
<g id="node1" class="node">
<title>public.orderListing</title>
<polygon fill="#efefef" stroke="transparent" points="1309,-1582.5 1309,-1617.5 1596,-1617.5 1596,-1582.5 1309,-1582.5"/>
<polygon fill="none" stroke="#000000" points="1309,-1582.5 1309,-1617.5 1596,-1617.5 1596,-1582.5 1309,-1582.5"/>
<text text-anchor="start" x="1315.7053" y="-1595.3" font-family="Arial Bold" font-size="18.00" fill="#000000">public.orderListing</text>
<text text-anchor="start" x="1461.7267" y="-1595.3" font-family="Arial" font-size="14.00" fill="#000000">    </text>
<text text-anchor="start" x="1495.9315" y="-1595.3" font-family="Arial" font-size="14.00" fill="#666666">[BASE TABLE]</text>
<polygon fill="none" stroke="#000000" points="1309,-1552.5 1309,-1582.5 1596,-1582.5 1596,-1552.5 1309,-1552.5"/>
<text text-anchor="start" x="1316" y="-1563.9" font-family="Arial" font-size="14.00" fill="#000000">orderID </text>
<text text-anchor="start" x="1366.5568" y="-1563.9" font-family="Arial" font-size="14.00" fill="#666666">[integer]</text>
<polygon fill="none" stroke="#000000" points="1309,-1522.5 1309,-1552.5 1596,-1552.5 1596,-1522.5 1309,-1522.5"/>
<text text-anchor="start" x="1316" y="-1533.9" font-family="Arial" font-size="14.00" fill="#000000">serviceID </text>
<text text-anchor="start" x="1378.2202" y="-1533.9" font-family="Arial" font-size="14.00" fill="#666666">[integer]</text>
<polygon fill="none" stroke="#000000" points="1309,-1492.5 1309,-1522.5 1596,-1522.5 1596,-1492.5 1309,-1492.5"/>
<text text-anchor="start" x="1316" y="-1503.9" font-family="Arial" font-size="14.00" fill="#000000">name </text>
<text text-anchor="start" x="1354.899" y="-1503.9" font-family="Arial" font-size="14.00" fill="#666666">[varchar(256)]</text>
<polygon fill="none" stroke="#000000" points="1309,-1462.5 1309,-1492.5 1596,-1492.5 1596,-1462.5 1309,-1462.5"/>
<text text-anchor="start" x="1316" y="-1473.9" font-family="Arial" font-size="14.00" fill="#000000">amount </text>
<text text-anchor="start" x="1366.5722" y="-1473.9" font-family="Arial" font-size="14.00" fill="#666666">[integer]</text>
<polygon fill="none" stroke="#000000" points="1309,-1432.5 1309,-1462.5 1596,-1462.5 1596,-1432.5 1309,-1432.5"/>
<text text-anchor="start" x="1316" y="-1443.9" font-family="Arial" font-size="14.00" fill="#000000">serviceVariantID </text>
<text text-anchor="start" x="1422.5624" y="-1443.9" font-family="Arial" font-size="14.00" fill="#666666">[integer]</text>
<polygon fill="none" stroke="#000000" points="1309,-1402.5 1309,-1432.5 1596,-1432.5 1596,-1402.5 1309,-1402.5"/>
<text text-anchor="start" x="1316" y="-1413.9" font-family="Arial" font-size="14.00" fill="#000000">day1 </text>
<text text-anchor="start" x="1350.2384" y="-1413.9" font-family="Arial" font-size="14.00" fill="#666666">[timestamp without time zone]</text>
<polygon fill="none" stroke="#000000" points="1309,-1372.5 1309,-1402.5 1596,-1402.5 1596,-1372.5 1309,-1372.5"/>
<text text-anchor="start" x="1316" y="-1383.9" font-family="Arial" font-size="14.00" fill="#000000">day1Work </text>
<text text-anchor="start" x="1382.8962" y="-1383.9" font-family="Arial" font-size="14.00" fill="#666666">[interval]</text>
<polygon fill="none" stroke="#000000" points="1309,-1342.5 1309,-1372.5 1596,-1372.5 1596,-1342.5 1309,-1342.5"/>
<text text-anchor="start" x="1316" y="-1353.9" font-family="Arial" font-size="14.00" fill="#000000">day1Employee </text>
<text text-anchor="start" x="1412.4726" y="-1353.9" font-family="Arial" font-size="14.00" fill="#666666">[integer]</text>
<polygon fill="none" stroke="#000000" points="1309,-1312.5 1309,-1342.5 1596,-1342.5 1596,-1312.5 1309,-1312.5"/>
<text text-anchor="start" x="1316" y="-1323.9" font-family="Arial" font-size="14.00" fill="#000000">day2 </text>
<text text-anchor="start" x="1350.2384" y="-1323.9" font-family="Arial" font-size="14.00" fill="#666666">[timestamp without time zone]</text>
<polygon fill="none" stroke="#000000" points="1309,-1282.5 1309,-1312.5 1596,-1312.5 1596,-1282.5 1309,-1282.5"/>
<text text-anchor="start" x="1316" y="-1293.9" font-family="Arial" font-size="14.00" fill="#000000">day2Work </text>
<text text-anchor="start" x="1382.8962" y="-1293.9" font-family="Arial" font-size="14.00" fill="#666666">[interval]</text>
<polygon fill="none" stroke="#000000" points="1309,-1252.5 1309,-1282.5 1596,-1282.5 1596,-1252.5 1309,-1252.5"/>
<text text-anchor="start" x="1316" y="-1263.9" font-family="Arial" font-size="14.00" fill="#000000">day2Employee </text>
<text text-anchor="start" x="1412.4726" y="-1263.9" font-family="Arial" font-size="14.00" fill="#666666">[integer]</text>
<polygon fill="none" stroke="#000000" points="1309,-1222.5 1309,-1252.5 1596,-1252.5 1596,-1222.5 1309,-1222.5"/>
<text text-anchor="start" x="1316" y="-1233.9" font-family="Arial" font-size="14.00" fill="#000000">day3 </text>
<text text-anchor="start" x="1350.2384" y="-1233.9" font-family="Arial" font-size="14.00" fill="#666666">[timestamp without time zone]</text>
<polygon fill="none" stroke="#000000" points="1309,-1192.5 1309,-1222.5 1596,-1222.5 1596,-1192.5 1309,-1192.5"/>
<text text-anchor="start" x="1316" y="-1203.9" font-family="Arial" font-size="14.00" fill="#000000">day3Work </text>
<text text-anchor="start" x="1382.8962" y="-1203.9" font-family="Arial" font-size="14.00" fill="#666666">[interval]</text>
<polygon fill="none" stroke="#000000" points="1309,-1162.5 1309,-1192.5 1596,-1192.5 1596,-1162.5 1309,-1162.5"/>
<text text-anchor="start" x="1316" y="-1173.9" font-family="Arial" font-size="14.00" fill="#000000">day3Employee </text>
<text text-anchor="start" x="1412.4726" y="-1173.9" font-family="Arial" font-size="14.00" fill="#666666">[integer]</text>
<polygon fill="none" stroke="#000000" points="1309,-1132.5 1309,-1162.5 1596,-1162.5 1596,-1132.5 1309,-1132.5"/>
<text text-anchor="start" x="1316" y="-1143.9" font-family="Arial" font-size="14.00" fill="#000000">day4 </text>
<text text-anchor="start" x="1350.2384" y="-1143.9" font-family="Arial" font-size="14.00" fill="#666666">[timestamp without time zone]</text>
<polygon fill="none" stroke="#000000" points="1309,-1102.5 1309,-1132.5 1596,-1132.5 1596,-1102.5 1309,-1102.5"/>
<text text-anchor="start" x="1316" y="-1113.9" font-family="Arial" font-size="14.00" fill="#000000">day4Work </text>
<text text-anchor="start" x="1382.8962" y="-1113.9" font-family="Arial" font-size="14.00" fill="#666666">[interval]</text>
<polygon fill="none" stroke="#000000" points="1309,-1072.5 1309,-1102.5 1596,-1102.5 1596,-1072.5 1309,-1072.5"/>
<text text-anchor="start" x="1316" y="-1083.9" font-family="Arial" font-size="14.00" fill="#000000">day4Employee </text>
<text text-anchor="start" x="1412.4726" y="-1083.9" font-family="Arial" font-size="14.00" fill="#666666">[integer]</text>
<polygon fill="none" stroke="#000000" points="1309,-1042.5 1309,-1072.5 1596,-1072.5 1596,-1042.5 1309,-1042.5"/>
<text text-anchor="start" x="1316" y="-1053.9" font-family="Arial" font-size="14.00" fill="#000000">day5 </text>
<text text-anchor="start" x="1350.2384" y="-1053.9" font-family="Arial" font-size="14.00" fill="#666666">[timestamp without time zone]</text>
<polygon fill="none" stroke="#000000" points="1309,-1012.5 1309,-1042.5 1596,-1042.5 1596,-1012.5 1309,-1012.5"/>
<text text-anchor="start" x="1316" y="-1023.9" font-family="Arial" font-size="14.00" fill="#000000">day5Work </text>
<text text-anchor="start" x="1382.8962" y="-1023.9" font-family="Arial" font-size="14.00" fill="#666666">[interval]</text>
<polygon fill="none" stroke="#000000" points="1309,-982.5 1309,-1012.5 1596,-1012.5 1596,-982.5 1309,-982.5"/>
<text text-anchor="start" x="1316" y="-993.9" font-family="Arial" font-size="14.00" fill="#000000">day5Employee </text>
<text text-anchor="start" x="1412.4726" y="-993.9" font-family="Arial" font-size="14.00" fill="#666666">[integer]</text>
<polygon fill="none" stroke="#000000" points="1309,-952.5 1309,-982.5 1596,-982.5 1596,-952.5 1309,-952.5"/>
<text text-anchor="start" x="1316" y="-963.9" font-family="Arial" font-size="14.00" fill="#000000">cost </text>
<text text-anchor="start" x="1345.5638" y="-963.9" font-family="Arial" font-size="14.00" fill="#666666">[real]</text>
<polygon fill="none" stroke="#000000" points="1309,-922.5 1309,-952.5 1596,-952.5 1596,-922.5 1309,-922.5"/>
<text text-anchor="start" x="1316" y="-933.9" font-family="Arial" font-size="14.00" fill="#000000">currency </text>
<text text-anchor="start" x="1373.5596" y="-933.9" font-family="Arial" font-size="14.00" fill="#666666">[varchar]</text>
<polygon fill="none" stroke="#000000" points="1309,-892.5 1309,-922.5 1596,-922.5 1596,-892.5 1309,-892.5"/>
<text text-anchor="start" x="1316" y="-903.9" font-family="Arial" font-size="14.00" fill="#000000">vatFree </text>
<text text-anchor="start" x="1367.3422" y="-903.9" font-family="Arial" font-size="14.00" fill="#666666">[boolean]</text>
<polygon fill="none" stroke="#000000" points="1309,-862.5 1309,-892.5 1596,-892.5 1596,-862.5 1309,-862.5"/>
<text text-anchor="start" x="1316" y="-873.9" font-family="Arial" font-size="14.00" fill="#000000">orderNotes </text>
<text text-anchor="start" x="1389.122" y="-873.9" font-family="Arial" font-size="14.00" fill="#666666">[varchar]</text>
<polygon fill="none" stroke="#000000" stroke-width="3" points="1307,-861.5 1307,-1619.5 1597,-1619.5 1597,-861.5 1307,-861.5"/>
</g>
<!-- public.orders -->
<g id="node2" class="node">
<title>public.orders</title>
<polygon fill="#efefef" stroke="transparent" points="43,-582.5 43,-617.5 377,-617.5 377,-582.5 43,-582.5"/>
<polygon fill="none" stroke="#000000" points="43,-582.5 43,-617.5 377,-617.5 377,-582.5 43,-582.5"/>
<text text-anchor="start" x="94.7099" y="-595.3" font-family="Arial Bold" font-size="18.00" fill="#000000">public.orders</text>
<text text-anchor="start" x="197.7221" y="-595.3" font-family="Arial" font-size="14.00" fill="#000000">    </text>
<text text-anchor="start" x="231.9269" y="-595.3" font-family="Arial" font-size="14.00" fill="#666666">[BASE TABLE]</text>
<polygon fill="none" stroke="#000000" points="43,-552.5 43,-582.5 377,-582.5 377,-552.5 43,-552.5"/>
<text text-anchor="start" x="50" y="-563.9" font-family="Arial" font-size="14.00" fill="#000000">orderID    </text>
<text text-anchor="start" x="130.871" y="-563.9" font-family="Arial" font-size="14.00" fill="#666666">[integer]</text>
<polygon fill="none" stroke="#000000" points="43,-522.5 43,-552.5 377,-552.5 377,-522.5 43,-522.5"/>
<text text-anchor="start" x="50" y="-533.9" font-family="Arial" font-size="14.00" fill="#000000">driverCarID    </text>
<text text-anchor="start" x="155.7448" y="-533.9" font-family="Arial" font-size="14.00" fill="#666666">[integer]</text>
<polygon fill="none" stroke="#000000" points="43,-492.5 43,-522.5 377,-522.5 377,-492.5 43,-492.5"/>
<text text-anchor="start" x="50" y="-503.9" font-family="Arial" font-size="14.00" fill="#000000">driverID    </text>
<text text-anchor="start" x="133.195" y="-503.9" font-family="Arial" font-size="14.00" fill="#666666">[integer]</text>
<polygon fill="none" stroke="#000000" points="43,-462.5 43,-492.5 377,-492.5 377,-462.5 43,-462.5"/>
<text text-anchor="start" x="50" y="-473.9" font-family="Arial" font-size="14.00" fill="#000000">storeID    </text>
<text text-anchor="start" x="129.3184" y="-473.9" font-family="Arial" font-size="14.00" fill="#666666">[integer]</text>
<polygon fill="none" stroke="#000000" points="43,-432.5 43,-462.5 377,-462.5 377,-432.5 43,-432.5"/>
<text text-anchor="start" x="50" y="-443.9" font-family="Arial" font-size="14.00" fill="#000000">orderNotes    </text>
<text text-anchor="start" x="153.4362" y="-443.9" font-family="Arial" font-size="14.00" fill="#666666">[varchar]</text>
<polygon fill="none" stroke="#000000" points="43,-402.5 43,-432.5 377,-432.5 377,-402.5 43,-402.5"/>
<text text-anchor="start" x="50" y="-413.9" font-family="Arial" font-size="14.00" fill="#000000">employeeID    </text>
<text text-anchor="start" x="158.8822" y="-413.9" font-family="Arial" font-size="14.00" fill="#666666">[integer]</text>
<polygon fill="none" stroke="#000000" points="43,-372.5 43,-402.5 377,-402.5 377,-372.5 43,-372.5"/>
<text text-anchor="start" x="49.7742" y="-383.9" font-family="Arial" font-size="14.00" fill="#000000">submissionTime    </text>
<text text-anchor="start" x="185.0856" y="-383.9" font-family="Arial" font-size="14.00" fill="#666666">[timestamp without time zone]</text>
<polygon fill="none" stroke="#000000" points="43,-342.5 43,-372.5 377,-372.5 377,-342.5 43,-342.5"/>
<text text-anchor="start" x="50" y="-353.9" font-family="Arial" font-size="14.00" fill="#000000">pickupTime    </text>
<text text-anchor="start" x="155.7616" y="-353.9" font-family="Arial" font-size="14.00" fill="#666666">[timestamp without time zone]</text>
<polygon fill="none" stroke="#000000" points="43,-312.5 43,-342.5 377,-342.5 377,-312.5 43,-312.5"/>
<text text-anchor="start" x="50" y="-323.9" font-family="Arial" font-size="14.00" fill="#000000">vatFree    </text>
<text text-anchor="start" x="131.6564" y="-323.9" font-family="Arial" font-size="14.00" fill="#666666">[boolean]</text>
<polygon fill="none" stroke="#000000" points="43,-282.5 43,-312.5 377,-312.5 377,-282.5 43,-282.5"/>
<text text-anchor="start" x="50" y="-293.9" font-family="Arial" font-size="14.00" fill="#000000">orderStatus    </text>
<text text-anchor="start" x="156.5568" y="-293.9" font-family="Arial" font-size="14.00" fill="#666666">[&quot;orderStatus&quot;]</text>
<polygon fill="none" stroke="#000000" points="43,-252.5 43,-282.5 377,-282.5 377,-252.5 43,-252.5"/>
<text text-anchor="start" x="50" y="-263.9" font-family="Arial" font-size="14.00" fill="#000000">currency    </text>
<text text-anchor="start" x="137.8738" y="-263.9" font-family="Arial" font-size="14.00" fill="#666666">[varchar]</text>
<polygon fill="none" stroke="#000000" points="43,-222.5 43,-252.5 377,-252.5 377,-222.5 43,-222.5"/>
<text text-anchor="start" x="50" y="-233.9" font-family="Arial" font-size="14.00" fill="#000000">discount    </text>
<text text-anchor="start" x="136.3324" y="-233.9" font-family="Arial" font-size="14.00" fill="#666666">[real]</text>
<polygon fill="none" stroke="#000000" points="43,-192.5 43,-222.5 377,-222.5 377,-192.5 43,-192.5"/>
<text text-anchor="start" x="50" y="-203.9" font-family="Arial" font-size="14.00" fill="#000000">createdAt    </text>
<text text-anchor="start" x="144.1136" y="-203.9" font-family="Arial" font-size="14.00" fill="#666666">[timestamp without time zone]</text>
<polygon fill="none" stroke="#000000" points="43,-162.5 43,-192.5 377,-192.5 377,-162.5 43,-162.5"/>
<text text-anchor="start" x="50" y="-173.9" font-family="Arial" font-size="14.00" fill="#000000">updatedAt    </text>
<text text-anchor="start" x="148.0182" y="-173.9" font-family="Arial" font-size="14.00" fill="#666666">[timestamp without time zone]</text>
</g>
<!-- public.orderListing&#45;&gt;public.orders -->
<g id="edge1" class="edge">
<title>public.orderListing:orderID&#45;&gt;public.orders:orderID</title>
<path fill="none" stroke="#000000" d="M1298.6838,-1567.4562C783.3084,-1563.057 696.9933,-1227.9015 429,-781 378.7732,-697.2426 474.6628,-567.5 377,-567.5"/>
<polygon fill="#000000" stroke="#000000" points="1299.0001,-1567.4574 1308.9808,-1572 1304,-1567.4787 1309,-1567.5 1309,-1567.5 1309,-1567.5 1304,-1567.4787 1309.0192,-1563 1299.0001,-1567.4574 1299.0001,-1567.4574"/>
<text text-anchor="start" x="923.9595" y="-1577.5" font-family="Arial" font-size="10.00" fill="#000000">FOREIGN KEY (&quot;orderID&quot;) REFERENCES orders(&quot;orderID&quot;) ON DELETE CASCADE</text>
</g>
<!-- public.services -->
<g id="node3" class="node">
<title>public.services</title>
<polygon fill="#efefef" stroke="transparent" points="482,-702.5 482,-737.5 779,-737.5 779,-702.5 482,-702.5"/>
<polygon fill="none" stroke="#000000" points="482,-702.5 482,-737.5 779,-737.5 779,-702.5 482,-702.5"/>
<text text-anchor="start" x="507.712" y="-715.3" font-family="Arial Bold" font-size="18.00" fill="#000000">public.services</text>
<text text-anchor="start" x="625.72" y="-715.3" font-family="Arial" font-size="14.00" fill="#000000">    </text>
<text text-anchor="start" x="659.9248" y="-715.3" font-family="Arial" font-size="14.00" fill="#666666">[BASE TABLE]</text>
<polygon fill="none" stroke="#000000" points="482,-672.5 482,-702.5 779,-702.5 779,-672.5 482,-672.5"/>
<text text-anchor="start" x="489" y="-683.9" font-family="Arial" font-size="14.00" fill="#000000">serviceID    </text>
<text text-anchor="start" x="581.5344" y="-683.9" font-family="Arial" font-size="14.00" fill="#666666">[integer]</text>
<polygon fill="none" stroke="#000000" points="482,-642.5 482,-672.5 779,-672.5 779,-642.5 482,-642.5"/>
<text text-anchor="start" x="489" y="-653.9" font-family="Arial" font-size="14.00" fill="#000000">serviceCategoryID    </text>
<text text-anchor="start" x="638.3226" y="-653.9" font-family="Arial" font-size="14.00" fill="#666666">[integer]</text>
<polygon fill="none" stroke="#000000" points="482,-612.5 482,-642.5 779,-642.5 779,-612.5 482,-612.5"/>
<text text-anchor="start" x="489" y="-623.9" font-family="Arial" font-size="14.00" fill="#000000">name    </text>
<text text-anchor="start" x="558.2132" y="-623.9" font-family="Arial" font-size="14.00" fill="#666666">[varchar(256)]</text>
<polygon fill="none" stroke="#000000" points="482,-582.5 482,-612.5 779,-612.5 779,-582.5 482,-582.5"/>
<text text-anchor="start" x="489" y="-593.9" font-family="Arial" font-size="14.00" fill="#000000">storeID    </text>
<text text-anchor="start" x="568.3184" y="-593.9" font-family="Arial" font-size="14.00" fill="#666666">[integer]</text>
<polygon fill="none" stroke="#000000" points="482,-552.5 482,-582.5 779,-582.5 779,-552.5 482,-552.5"/>
<text text-anchor="start" x="489" y="-563.9" font-family="Arial" font-size="14.00" fill="#000000">currency    </text>
<text text-anchor="start" x="576.8738" y="-563.9" font-family="Arial" font-size="14.00" fill="#666666">[varchar(5)]</text>
<polygon fill="none" stroke="#000000" points="482,-522.5 482,-552.5 779,-552.5 779,-522.5 482,-522.5"/>
<text text-anchor="start" x="489" y="-533.9" font-family="Arial" font-size="14.00" fill="#000000">cost    </text>
<text text-anchor="start" x="548.878" y="-533.9" font-family="Arial" font-size="14.00" fill="#666666">[real]</text>
<polygon fill="none" stroke="#000000" points="482,-492.5 482,-522.5 779,-522.5 779,-492.5 482,-492.5"/>
<text text-anchor="start" x="489" y="-503.9" font-family="Arial" font-size="14.00" fill="#000000">includeInAutomaticSms    </text>
<text text-anchor="start" x="669.4516" y="-503.9" font-family="Arial" font-size="14.00" fill="#666666">[boolean]</text>
<polygon fill="none" stroke="#000000" points="482,-462.5 482,-492.5 779,-492.5 779,-462.5 482,-462.5"/>
<text text-anchor="start" x="489" y="-473.9" font-family="Arial" font-size="14.00" fill="#000000">hidden    </text>
<text text-anchor="start" x="565.2244" y="-473.9" font-family="Arial" font-size="14.00" fill="#666666">[boolean]</text>
<polygon fill="none" stroke="#000000" points="482,-432.5 482,-462.5 779,-462.5 779,-432.5 482,-432.5"/>
<text text-anchor="start" x="489" y="-443.9" font-family="Arial" font-size="14.00" fill="#000000">callInterval    </text>
<text text-anchor="start" x="590.0968" y="-443.9" font-family="Arial" font-size="14.00" fill="#666666">[integer]</text>
<polygon fill="none" stroke="#000000" points="482,-402.5 482,-432.5 779,-432.5 779,-402.5 482,-402.5"/>
<text text-anchor="start" x="489" y="-413.9" font-family="Arial" font-size="14.00" fill="#000000">colorForService    </text>
<text text-anchor="start" x="621.202" y="-413.9" font-family="Arial" font-size="14.00" fill="#666666">[varchar]</text>
<polygon fill="none" stroke="#000000" points="482,-372.5 482,-402.5 779,-402.5 779,-372.5 482,-372.5"/>
<text text-anchor="start" x="489" y="-383.9" font-family="Arial" font-size="14.00" fill="#000000">warrantyCard    </text>
<text text-anchor="start" x="607.2034" y="-383.9" font-family="Arial" font-size="14.00" fill="#666666">[boolean]</text>
<polygon fill="none" stroke="#000000" points="482,-342.5 482,-372.5 779,-372.5 779,-342.5 482,-342.5"/>
<text text-anchor="start" x="489" y="-353.9" font-family="Arial" font-size="14.00" fill="#000000">itemNumber    </text>
<text text-anchor="start" x="599.4208" y="-353.9" font-family="Arial" font-size="14.00" fill="#666666">[varchar(256)]</text>
<polygon fill="none" stroke="#000000" points="482,-312.5 482,-342.5 779,-342.5 779,-312.5 482,-312.5"/>
<text text-anchor="start" x="489" y="-323.9" font-family="Arial" font-size="14.00" fill="#000000">award    </text>
<text text-anchor="start" x="561.3198" y="-323.9" font-family="Arial" font-size="14.00" fill="#666666">[real]</text>
<polygon fill="none" stroke="#000000" points="482,-282.5 482,-312.5 779,-312.5 779,-282.5 482,-282.5"/>
<text text-anchor="start" x="489" y="-293.9" font-family="Arial" font-size="14.00" fill="#000000">suppliersArticleNumber    </text>
<text text-anchor="start" x="667.8682" y="-293.9" font-family="Arial" font-size="14.00" fill="#666666">[varchar(256)]</text>
<polygon fill="none" stroke="#000000" points="482,-252.5 482,-282.5 779,-282.5 779,-252.5 482,-252.5"/>
<text text-anchor="start" x="489" y="-263.9" font-family="Arial" font-size="14.00" fill="#000000">externalArticleNumber    </text>
<text text-anchor="start" x="661.6522" y="-263.9" font-family="Arial" font-size="14.00" fill="#666666">[varchar(256)]</text>
<polygon fill="none" stroke="#000000" points="482,-222.5 482,-252.5 779,-252.5 779,-222.5 482,-222.5"/>
<text text-anchor="start" x="489" y="-233.9" font-family="Arial" font-size="14.00" fill="#000000">day1    </text>
<text text-anchor="start" x="553.5526" y="-233.9" font-family="Arial" font-size="14.00" fill="#666666">[interval]</text>
<polygon fill="none" stroke="#000000" points="482,-192.5 482,-222.5 779,-222.5 779,-192.5 482,-192.5"/>
<text text-anchor="start" x="489" y="-203.9" font-family="Arial" font-size="14.00" fill="#000000">day2    </text>
<text text-anchor="start" x="553.5526" y="-203.9" font-family="Arial" font-size="14.00" fill="#666666">[interval]</text>
<polygon fill="none" stroke="#000000" points="482,-162.5 482,-192.5 779,-192.5 779,-162.5 482,-162.5"/>
<text text-anchor="start" x="489" y="-173.9" font-family="Arial" font-size="14.00" fill="#000000">day3    </text>
<text text-anchor="start" x="553.5526" y="-173.9" font-family="Arial" font-size="14.00" fill="#666666">[interval]</text>
<polygon fill="none" stroke="#000000" points="482,-132.5 482,-162.5 779,-162.5 779,-132.5 482,-132.5"/>
<text text-anchor="start" x="489" y="-143.9" font-family="Arial" font-size="14.00" fill="#000000">day4    </text>
<text text-anchor="start" x="553.5526" y="-143.9" font-family="Arial" font-size="14.00" fill="#666666">[interval]</text>
<polygon fill="none" stroke="#000000" points="482,-102.5 482,-132.5 779,-132.5 779,-102.5 482,-102.5"/>
<text text-anchor="start" x="489" y="-113.9" font-family="Arial" font-size="14.00" fill="#000000">day5    </text>
<text text-anchor="start" x="553.5526" y="-113.9" font-family="Arial" font-size="14.00" fill="#666666">[interval]</text>
<polygon fill="none" stroke="#000000" points="482,-72.5 482,-102.5 779,-102.5 779,-72.5 482,-72.5"/>
<text text-anchor="start" x="489" y="-83.9" font-family="Arial" font-size="14.00" fill="#000000">createdAt    </text>
<text text-anchor="start" x="583.1136" y="-83.9" font-family="Arial" font-size="14.00" fill="#666666">[timestamp without time zone]</text>
<polygon fill="none" stroke="#000000" points="482,-42.5 482,-72.5 779,-72.5 779,-42.5 482,-42.5"/>
<text text-anchor="start" x="488.9208" y="-53.9" font-family="Arial" font-size="14.00" fill="#000000">updatedAt    </text>
<text text-anchor="start" x="586.939" y="-53.9" font-family="Arial" font-size="14.00" fill="#666666">[timestamp without time zone]</text>
</g>
<!-- public.orderListing&#45;&gt;public.services -->
<g id="edge2" class="edge">
<title>public.orderListing:serviceID&#45;&gt;public.services:serviceID</title>
<path fill="none" stroke="#000000" d="M1298.9181,-1537.4095C913.3566,-1530.4221 1032.2203,-1120.1117 831,-781 806.7353,-740.1073 826.5498,-687.5 779,-687.5"/>
<polygon fill="#000000" stroke="#000000" points="1299.0004,-1537.4102 1308.9596,-1541.9998 1304.0002,-1537.4551 1309,-1537.5 1309,-1537.5 1309,-1537.5 1304.0002,-1537.4551 1309.0404,-1533.0002 1299.0004,-1537.4102 1299.0004,-1537.4102"/>
<text text-anchor="start" x="899.463" y="-1547.5" font-family="Arial" font-size="10.00" fill="#000000">FOREIGN KEY (&quot;serviceID&quot;) REFERENCES services(&quot;serviceID&quot;) ON DELETE CASCADE</text>
</g>
<!-- public.serviceVariants -->
<g id="node4" class="node">
<title>public.serviceVariants</title>
<polygon fill="#efefef" stroke="transparent" points="883,-567.5 883,-602.5 1199,-602.5 1199,-567.5 883,-567.5"/>
<polygon fill="none" stroke="#000000" points="883,-567.5 883,-602.5 1199,-602.5 1199,-567.5 883,-567.5"/>
<text text-anchor="start" x="889.7063" y="-580.3" font-family="Arial Bold" font-size="18.00" fill="#000000">public.serviceVariants</text>
<text text-anchor="start" x="1064.7257" y="-580.3" font-family="Arial" font-size="14.00" fill="#000000">    </text>
<text text-anchor="start" x="1098.9305" y="-580.3" font-family="Arial" font-size="14.00" fill="#666666">[BASE TABLE]</text>
<polygon fill="none" stroke="#000000" points="883,-537.5 883,-567.5 1199,-567.5 1199,-537.5 883,-537.5"/>
<text text-anchor="start" x="890" y="-548.9" font-family="Arial" font-size="14.00" fill="#000000">serviceVariantID    </text>
<text text-anchor="start" x="1026.8766" y="-548.9" font-family="Arial" font-size="14.00" fill="#666666">[integer]</text>
<polygon fill="none" stroke="#000000" points="883,-507.5 883,-537.5 1199,-537.5 1199,-507.5 883,-507.5"/>
<text text-anchor="start" x="890" y="-518.9" font-family="Arial" font-size="14.00" fill="#000000">name    </text>
<text text-anchor="start" x="959.2132" y="-518.9" font-family="Arial" font-size="14.00" fill="#666666">[varchar(256)]</text>
<polygon fill="none" stroke="#000000" points="883,-477.5 883,-507.5 1199,-507.5 1199,-477.5 883,-477.5"/>
<text text-anchor="start" x="890" y="-488.9" font-family="Arial" font-size="14.00" fill="#000000">cost    </text>
<text text-anchor="start" x="949.878" y="-488.9" font-family="Arial" font-size="14.00" fill="#666666">[real]</text>
<polygon fill="none" stroke="#000000" points="883,-447.5 883,-477.5 1199,-477.5 1199,-447.5 883,-447.5"/>
<text text-anchor="start" x="890" y="-458.9" font-family="Arial" font-size="14.00" fill="#000000">currency    </text>
<text text-anchor="start" x="977.8738" y="-458.9" font-family="Arial" font-size="14.00" fill="#666666">[varchar(5)]</text>
<polygon fill="none" stroke="#000000" points="883,-417.5 883,-447.5 1199,-447.5 1199,-417.5 883,-417.5"/>
<text text-anchor="start" x="890" y="-428.9" font-family="Arial" font-size="14.00" fill="#000000">award    </text>
<text text-anchor="start" x="962.3198" y="-428.9" font-family="Arial" font-size="14.00" fill="#666666">[real]</text>
<polygon fill="none" stroke="#000000" points="883,-387.5 883,-417.5 1199,-417.5 1199,-387.5 883,-387.5"/>
<text text-anchor="start" x="890" y="-398.9" font-family="Arial" font-size="14.00" fill="#000000">day1    </text>
<text text-anchor="start" x="954.5526" y="-398.9" font-family="Arial" font-size="14.00" fill="#666666">[interval]</text>
<polygon fill="none" stroke="#000000" points="883,-357.5 883,-387.5 1199,-387.5 1199,-357.5 883,-357.5"/>
<text text-anchor="start" x="890" y="-368.9" font-family="Arial" font-size="14.00" fill="#000000">day2    </text>
<text text-anchor="start" x="954.5526" y="-368.9" font-family="Arial" font-size="14.00" fill="#666666">[interval]</text>
<polygon fill="none" stroke="#000000" points="883,-327.5 883,-357.5 1199,-357.5 1199,-327.5 883,-327.5"/>
<text text-anchor="start" x="890" y="-338.9" font-family="Arial" font-size="14.00" fill="#000000">day3    </text>
<text text-anchor="start" x="954.5526" y="-338.9" font-family="Arial" font-size="14.00" fill="#666666">[interval]</text>
<polygon fill="none" stroke="#000000" points="883,-297.5 883,-327.5 1199,-327.5 1199,-297.5 883,-297.5"/>
<text text-anchor="start" x="890" y="-308.9" font-family="Arial" font-size="14.00" fill="#000000">day4    </text>
<text text-anchor="start" x="954.5526" y="-308.9" font-family="Arial" font-size="14.00" fill="#666666">[interval]</text>
<polygon fill="none" stroke="#000000" points="883,-267.5 883,-297.5 1199,-297.5 1199,-267.5 883,-267.5"/>
<text text-anchor="start" x="890" y="-278.9" font-family="Arial" font-size="14.00" fill="#000000">day5    </text>
<text text-anchor="start" x="954.5526" y="-278.9" font-family="Arial" font-size="14.00" fill="#666666">[interval]</text>
<polygon fill="none" stroke="#000000" points="883,-237.5 883,-267.5 1199,-267.5 1199,-237.5 883,-237.5"/>
<text text-anchor="start" x="890" y="-248.9" font-family="Arial" font-size="14.00" fill="#000000">serviceID    </text>
<text text-anchor="start" x="982.5344" y="-248.9" font-family="Arial" font-size="14.00" fill="#666666">[integer]</text>
<polygon fill="none" stroke="#000000" points="883,-207.5 883,-237.5 1199,-237.5 1199,-207.5 883,-207.5"/>
<text text-anchor="start" x="890" y="-218.9" font-family="Arial" font-size="14.00" fill="#000000">createdAt    </text>
<text text-anchor="start" x="984.1136" y="-218.9" font-family="Arial" font-size="14.00" fill="#666666">[timestamp without time zone]</text>
<polygon fill="none" stroke="#000000" points="883,-177.5 883,-207.5 1199,-207.5 1199,-177.5 883,-177.5"/>
<text text-anchor="start" x="890" y="-188.9" font-family="Arial" font-size="14.00" fill="#000000">updatedAt    </text>
<text text-anchor="start" x="988.0182" y="-188.9" font-family="Arial" font-size="14.00" fill="#666666">[timestamp without time zone]</text>
</g>
<!-- public.orderListing&#45;&gt;public.serviceVariants -->
<g id="edge3" class="edge">
<title>public.orderListing:serviceVariantID&#45;&gt;public.serviceVariants:serviceVariantID</title>
<path fill="none" stroke="#000000" d="M1299.379,-1444.4347C1214.7633,-1387.3639 1295.7682,-552.5 1199,-552.5"/>
<polygon fill="#000000" stroke="#000000" points="1299.4719,-1444.4642 1307.6339,-1451.7876 1304.236,-1445.9821 1309,-1447.5 1309,-1447.5 1309,-1447.5 1304.236,-1445.9821 1310.3661,-1443.2124 1299.4719,-1444.4642 1299.4719,-1444.4642"/>
<text text-anchor="start" x="797.4045" y="-1457.5" font-family="Arial" font-size="10.00" fill="#000000">FOREIGN KEY (&quot;serviceVariantID&quot;) REFERENCES &quot;serviceVariants&quot;(&quot;serviceVariantID&quot;) ON DELETE CASCADE</text>
</g>
<!-- public.employees -->
<g id="node5" class="node">
<title>public.employees</title>
<polygon fill="#efefef" stroke="transparent" points="1304,-567.5 1304,-602.5 1601,-602.5 1601,-567.5 1304,-567.5"/>
<polygon fill="none" stroke="#000000" points="1304,-567.5 1304,-602.5 1601,-602.5 1601,-567.5 1304,-567.5"/>
<text text-anchor="start" x="1319.2027" y="-580.3" font-family="Arial Bold" font-size="18.00" fill="#000000">public.employees</text>
<text text-anchor="start" x="1458.2293" y="-580.3" font-family="Arial" font-size="14.00" fill="#000000">    </text>
<text text-anchor="start" x="1492.4341" y="-580.3" font-family="Arial" font-size="14.00" fill="#666666">[BASE TABLE]</text>
<polygon fill="none" stroke="#000000" points="1304,-537.5 1304,-567.5 1601,-567.5 1601,-537.5 1304,-537.5"/>
<text text-anchor="start" x="1311" y="-548.9" font-family="Arial" font-size="14.00" fill="#000000">userID    </text>
<text text-anchor="start" x="1386.4278" y="-548.9" font-family="Arial" font-size="14.00" fill="#666666">[integer]</text>
<polygon fill="none" stroke="#000000" points="1304,-507.5 1304,-537.5 1601,-537.5 1601,-507.5 1304,-507.5"/>
<text text-anchor="start" x="1311" y="-518.9" font-family="Arial" font-size="14.00" fill="#000000">employeeID    </text>
<text text-anchor="start" x="1419.8822" y="-518.9" font-family="Arial" font-size="14.00" fill="#666666">[integer]</text>
<polygon fill="none" stroke="#000000" points="1304,-477.5 1304,-507.5 1601,-507.5 1601,-477.5 1304,-477.5"/>
<text text-anchor="start" x="1311" y="-488.9" font-family="Arial" font-size="14.00" fill="#000000">shortUserName    </text>
<text text-anchor="start" x="1443.2034" y="-488.9" font-family="Arial" font-size="14.00" fill="#666666">[varchar(16)]</text>
<polygon fill="none" stroke="#000000" points="1304,-447.5 1304,-477.5 1601,-477.5 1601,-447.5 1304,-447.5"/>
<text text-anchor="start" x="1311" y="-458.9" font-family="Arial" font-size="14.00" fill="#000000">employmentNumber    </text>
<text text-anchor="start" x="1471.2118" y="-458.9" font-family="Arial" font-size="14.00" fill="#666666">[varchar(128)]</text>
<polygon fill="none" stroke="#000000" points="1304,-417.5 1304,-447.5 1601,-447.5 1601,-417.5 1304,-417.5"/>
<text text-anchor="start" x="1311" y="-428.9" font-family="Arial" font-size="14.00" fill="#000000">employeePersonalNumber    </text>
<text text-anchor="start" x="1510.8948" y="-428.9" font-family="Arial" font-size="14.00" fill="#666666">[varchar(16)]</text>
<polygon fill="none" stroke="#000000" points="1304,-387.5 1304,-417.5 1601,-417.5 1601,-387.5 1304,-387.5"/>
<text text-anchor="start" x="1311" y="-398.9" font-family="Arial" font-size="14.00" fill="#000000">signature    </text>
<text text-anchor="start" x="1402.7756" y="-398.9" font-family="Arial" font-size="14.00" fill="#666666">[varchar(4)]</text>
<polygon fill="none" stroke="#000000" points="1304,-357.5 1304,-387.5 1601,-387.5 1601,-357.5 1304,-357.5"/>
<text text-anchor="start" x="1311" y="-368.9" font-family="Arial" font-size="14.00" fill="#000000">employeeHourlyRate    </text>
<text text-anchor="start" x="1475.8864" y="-368.9" font-family="Arial" font-size="14.00" fill="#666666">[real]</text>
<polygon fill="none" stroke="#000000" points="1304,-327.5 1304,-357.5 1601,-357.5 1601,-327.5 1304,-327.5"/>
<text text-anchor="start" x="1311" y="-338.9" font-family="Arial" font-size="14.00" fill="#000000">employeeHourlyRateCurrency    </text>
<text text-anchor="start" x="1532.662" y="-338.9" font-family="Arial" font-size="14.00" fill="#666666">[varchar]</text>
<polygon fill="none" stroke="#000000" points="1304,-297.5 1304,-327.5 1601,-327.5 1601,-297.5 1304,-297.5"/>
<text text-anchor="start" x="1311" y="-308.9" font-family="Arial" font-size="14.00" fill="#000000">employeePin    </text>
<text text-anchor="start" x="1426.1108" y="-308.9" font-family="Arial" font-size="14.00" fill="#666666">[varchar(4)]</text>
<polygon fill="none" stroke="#000000" points="1304,-267.5 1304,-297.5 1601,-297.5 1601,-267.5 1304,-267.5"/>
<text text-anchor="start" x="1311" y="-278.9" font-family="Arial" font-size="14.00" fill="#000000">employeeComment    </text>
<text text-anchor="start" x="1466.5512" y="-278.9" font-family="Arial" font-size="14.00" fill="#666666">[varchar]</text>
<polygon fill="none" stroke="#000000" points="1304,-237.5 1304,-267.5 1601,-267.5 1601,-237.5 1304,-237.5"/>
<text text-anchor="start" x="1311" y="-248.9" font-family="Arial" font-size="14.00" fill="#000000">employeeActive    </text>
<text text-anchor="start" x="1444.0014" y="-248.9" font-family="Arial" font-size="14.00" fill="#666666">[boolean]</text>
<polygon fill="none" stroke="#000000" points="1304,-207.5 1304,-237.5 1601,-237.5 1601,-207.5 1304,-207.5"/>
<text text-anchor="start" x="1311" y="-218.9" font-family="Arial" font-size="14.00" fill="#000000">createdAt    </text>
<text text-anchor="start" x="1405.1136" y="-218.9" font-family="Arial" font-size="14.00" fill="#666666">[timestamp without time zone]</text>
<polygon fill="none" stroke="#000000" points="1304,-177.5 1304,-207.5 1601,-207.5 1601,-177.5 1304,-177.5"/>
<text text-anchor="start" x="1310.9208" y="-188.9" font-family="Arial" font-size="14.00" fill="#000000">updatedAt    </text>
<text text-anchor="start" x="1408.939" y="-188.9" font-family="Arial" font-size="14.00" fill="#666666">[timestamp without time zone]</text>
</g>
<!-- public.orderListing&#45;&gt;public.employees -->
<g id="edge4" class="edge">
<title>public.orderListing:day1Employee&#45;&gt;public.employees:employeeID</title>
<path fill="none" stroke="#000000" d="M1301.7622,-1350.2814C1262.2171,-1268.6691 1260.1472,-522.5 1304,-522.5"/>
<polygon fill="#000000" stroke="#000000" points="1301.9195,-1350.4383 1305.8222,-1360.6862 1305.4598,-1353.9692 1309,-1357.5 1309,-1357.5 1309,-1357.5 1305.4598,-1353.9692 1312.1778,-1354.3138 1301.9195,-1350.4383 1301.9195,-1350.4383"/>
<text text-anchor="start" x="851.8285" y="-1367.5" font-family="Arial" font-size="10.00" fill="#000000">FOREIGN KEY (&quot;day1Employee&quot;) REFERENCES employees(&quot;employeeID&quot;) ON DELETE SET NULL</text>
</g>
<!-- public.orderListing&#45;&gt;public.employees -->
<g id="edge5" class="edge">
<title>public.orderListing:day2Employee&#45;&gt;public.employees:employeeID</title>
<path fill="none" stroke="#000000" d="M1302.1013,-1260.1265C1267.1835,-1182.7531 1265.0354,-522.5 1304,-522.5"/>
<polygon fill="#000000" stroke="#000000" points="1302.1679,-1260.1977 1305.714,-1270.5744 1305.584,-1263.8489 1309,-1267.5 1309,-1267.5 1309,-1267.5 1305.584,-1263.8489 1312.286,-1264.4256 1302.1679,-1260.1977 1302.1679,-1260.1977"/>
<text text-anchor="start" x="851.8285" y="-1277.5" font-family="Arial" font-size="10.00" fill="#000000">FOREIGN KEY (&quot;day2Employee&quot;) REFERENCES employees(&quot;employeeID&quot;) ON DELETE SET NULL</text>
</g>
<!-- public.orderListing&#45;&gt;public.employees -->
<g id="edge6" class="edge">
<title>public.orderListing:day3Employee&#45;&gt;public.employees:employeeID</title>
<path fill="none" stroke="#000000" d="M1299.603,-1173.6534C1235.9278,-1119.9741 1234.4895,-522.5 1304,-522.5"/>
<polygon fill="#000000" stroke="#000000" points="1299.7453,-1173.7116 1307.2952,-1181.6646 1304.3727,-1175.6058 1309,-1177.5 1309,-1177.5 1309,-1177.5 1304.3727,-1175.6058 1310.7048,-1173.3354 1299.7453,-1173.7116 1299.7453,-1173.7116"/>
<text text-anchor="start" x="851.8285" y="-1187.5" font-family="Arial" font-size="10.00" fill="#000000">FOREIGN KEY (&quot;day3Employee&quot;) REFERENCES employees(&quot;employeeID&quot;) ON DELETE SET NULL</text>
</g>
<!-- public.orderListing&#45;&gt;public.employees -->
<g id="edge7" class="edge">
<title>public.orderListing:day4Employee&#45;&gt;public.employees:employeeID</title>
<path fill="none" stroke="#000000" d="M1299.8841,-1083.277C1245.8867,-1031.5742 1244.4078,-522.5 1304,-522.5"/>
<polygon fill="#000000" stroke="#000000" points="1299.9263,-1083.2965 1307.1084,-1091.5831 1304.4632,-1085.3983 1309,-1087.5 1309,-1087.5 1309,-1087.5 1304.4632,-1085.3983 1310.8916,-1083.4169 1299.9263,-1083.2965 1299.9263,-1083.2965"/>
<text text-anchor="start" x="851.8285" y="-1097.5" font-family="Arial" font-size="10.00" fill="#000000">FOREIGN KEY (&quot;day4Employee&quot;) REFERENCES employees(&quot;employeeID&quot;) ON DELETE SET NULL</text>
</g>
<!-- public.orderListing&#45;&gt;public.employees -->
<g id="edge8" class="edge">
<title>public.orderListing:day5Employee&#45;&gt;public.employees:employeeID</title>
<path fill="none" stroke="#000000" d="M1299.9406,-992.4869C1255.8256,-941.7218 1254.415,-522.5 1304,-522.5"/>
<polygon fill="#000000" stroke="#000000" points="1300.2503,-992.6582 1306.8212,-1001.4374 1304.6251,-995.0791 1309,-997.5 1309,-997.5 1309,-997.5 1304.6251,-995.0791 1311.1788,-993.5626 1300.2503,-992.6582 1300.2503,-992.6582"/>
<text text-anchor="start" x="851.8285" y="-1007.5" font-family="Arial" font-size="10.00" fill="#000000">FOREIGN KEY (&quot;day5Employee&quot;) REFERENCES employees(&quot;employeeID&quot;) ON DELETE SET NULL</text>
</g>
</g>
</svg>
