<?xml version="1.0" encoding="UTF-8" standalone="no"?>
<!DOCTYPE svg PUBLIC "-//W3C//DTD SVG 1.1//EN"
 "http://www.w3.org/Graphics/SVG/1.1/DTD/svg11.dtd">
<!-- Generated by graphviz version 2.40.1 (20161225.0304)
 -->
<!-- Title: public.serviceCategories Pages: 1 -->
<svg width="919pt" height="1102pt"
 viewBox="0.00 0.00 918.50 1102.00" xmlns="http://www.w3.org/2000/svg" xmlns:xlink="http://www.w3.org/1999/xlink">
<g id="graph0" class="graph" transform="scale(1 1) rotate(0) translate(4 1098)">
<title>public.serviceCategories</title>
<polygon fill="#ffffff" stroke="transparent" points="-4,4 -4,-1098 914.5,-1098 914.5,4 -4,4"/>
<!-- public.serviceCategories -->
<g id="node1" class="node">
<title>public.serviceCategories</title>
<polygon fill="#efefef" stroke="transparent" points="528,-195.5 528,-230.5 865,-230.5 865,-195.5 528,-195.5"/>
<polygon fill="none" stroke="#000000" points="528,-195.5 528,-230.5 865,-230.5 865,-195.5 528,-195.5"/>
<text text-anchor="start" x="534.7051" y="-208.3" font-family="Arial Bold" font-size="18.00" fill="#000000">public.serviceCategories</text>
<text text-anchor="start" x="730.7269" y="-208.3" font-family="Arial" font-size="14.00" fill="#000000">    </text>
<text text-anchor="start" x="764.9317" y="-208.3" font-family="Arial" font-size="14.00" fill="#666666">[BASE TABLE]</text>
<polygon fill="none" stroke="#000000" points="528,-165.5 528,-195.5 865,-195.5 865,-165.5 528,-165.5"/>
<text text-anchor="start" x="535" y="-176.9" font-family="Arial" font-size="14.00" fill="#000000">serviceCategoryID </text>
<text text-anchor="start" x="654.0084" y="-176.9" font-family="Arial" font-size="14.00" fill="#666666">[integer]</text>
<polygon fill="none" stroke="#000000" points="528,-135.5 528,-165.5 865,-165.5 865,-135.5 528,-135.5"/>
<text text-anchor="start" x="535" y="-146.9" font-family="Arial" font-size="14.00" fill="#000000">serviceCategoryName </text>
<text text-anchor="start" x="677.3436" y="-146.9" font-family="Arial" font-size="14.00" fill="#666666">[varchar(256)]</text>
<polygon fill="none" stroke="#000000" points="528,-105.5 528,-135.5 865,-135.5 865,-105.5 528,-105.5"/>
<text text-anchor="start" x="535" y="-116.9" font-family="Arial" font-size="14.00" fill="#000000">serviceCategoryDescription </text>
<text text-anchor="start" x="710.0126" y="-116.9" font-family="Arial" font-size="14.00" fill="#666666">[varchar]</text>
<polygon fill="none" stroke="#000000" points="528,-75.5 528,-105.5 865,-105.5 865,-75.5 528,-75.5"/>
<text text-anchor="start" x="535" y="-86.9" font-family="Arial" font-size="14.00" fill="#000000">createdAt </text>
<text text-anchor="start" x="598.7994" y="-86.9" font-family="Arial" font-size="14.00" fill="#666666">[timestamp without time zone]</text>
<polygon fill="none" stroke="#000000" points="528,-45.5 528,-75.5 865,-75.5 865,-45.5 528,-45.5"/>
<text text-anchor="start" x="535" y="-56.9" font-family="Arial" font-size="14.00" fill="#000000">updatedAt </text>
<text text-anchor="start" x="602.704" y="-56.9" font-family="Arial" font-size="14.00" fill="#666666">[timestamp without time zone]</text>
<polygon fill="none" stroke="#000000" stroke-width="3" points="526,-44.5 526,-232.5 866,-232.5 866,-44.5 526,-44.5"/>
</g>
<!-- public.services -->
<g id="node2" class="node">
<title>public.services</title>
<polygon fill="#efefef" stroke="transparent" points="548,-1015.5 548,-1050.5 845,-1050.5 845,-1015.5 548,-1015.5"/>
<polygon fill="none" stroke="#000000" points="548,-1015.5 548,-1050.5 845,-1050.5 845,-1015.5 548,-1015.5"/>
<text text-anchor="start" x="573.712" y="-1028.3" font-family="Arial Bold" font-size="18.00" fill="#000000">public.services</text>
<text text-anchor="start" x="691.72" y="-1028.3" font-family="Arial" font-size="14.00" fill="#000000">    </text>
<text text-anchor="start" x="725.9248" y="-1028.3" font-family="Arial" font-size="14.00" fill="#666666">[BASE TABLE]</text>
<polygon fill="none" stroke="#000000" points="548,-985.5 548,-1015.5 845,-1015.5 845,-985.5 548,-985.5"/>
<text text-anchor="start" x="555" y="-996.9" font-family="Arial" font-size="14.00" fill="#000000">serviceID    </text>
<text text-anchor="start" x="647.5344" y="-996.9" font-family="Arial" font-size="14.00" fill="#666666">[integer]</text>
<polygon fill="none" stroke="#000000" points="548,-955.5 548,-985.5 845,-985.5 845,-955.5 548,-955.5"/>
<text text-anchor="start" x="555" y="-966.9" font-family="Arial" font-size="14.00" fill="#000000">serviceCategoryID    </text>
<text text-anchor="start" x="704.3226" y="-966.9" font-family="Arial" font-size="14.00" fill="#666666">[integer]</text>
<polygon fill="none" stroke="#000000" points="548,-925.5 548,-955.5 845,-955.5 845,-925.5 548,-925.5"/>
<text text-anchor="start" x="555" y="-936.9" font-family="Arial" font-size="14.00" fill="#000000">name    </text>
<text text-anchor="start" x="624.2132" y="-936.9" font-family="Arial" font-size="14.00" fill="#666666">[varchar(256)]</text>
<polygon fill="none" stroke="#000000" points="548,-895.5 548,-925.5 845,-925.5 845,-895.5 548,-895.5"/>
<text text-anchor="start" x="555" y="-906.9" font-family="Arial" font-size="14.00" fill="#000000">storeID    </text>
<text text-anchor="start" x="634.3184" y="-906.9" font-family="Arial" font-size="14.00" fill="#666666">[integer]</text>
<polygon fill="none" stroke="#000000" points="548,-865.5 548,-895.5 845,-895.5 845,-865.5 548,-865.5"/>
<text text-anchor="start" x="555" y="-876.9" font-family="Arial" font-size="14.00" fill="#000000">currency    </text>
<text text-anchor="start" x="642.8738" y="-876.9" font-family="Arial" font-size="14.00" fill="#666666">[varchar(5)]</text>
<polygon fill="none" stroke="#000000" points="548,-835.5 548,-865.5 845,-865.5 845,-835.5 548,-835.5"/>
<text text-anchor="start" x="555" y="-846.9" font-family="Arial" font-size="14.00" fill="#000000">cost    </text>
<text text-anchor="start" x="614.878" y="-846.9" font-family="Arial" font-size="14.00" fill="#666666">[real]</text>
<polygon fill="none" stroke="#000000" points="548,-805.5 548,-835.5 845,-835.5 845,-805.5 548,-805.5"/>
<text text-anchor="start" x="555" y="-816.9" font-family="Arial" font-size="14.00" fill="#000000">includeInAutomaticSms    </text>
<text text-anchor="start" x="735.4516" y="-816.9" font-family="Arial" font-size="14.00" fill="#666666">[boolean]</text>
<polygon fill="none" stroke="#000000" points="548,-775.5 548,-805.5 845,-805.5 845,-775.5 548,-775.5"/>
<text text-anchor="start" x="555" y="-786.9" font-family="Arial" font-size="14.00" fill="#000000">hidden    </text>
<text text-anchor="start" x="631.2244" y="-786.9" font-family="Arial" font-size="14.00" fill="#666666">[boolean]</text>
<polygon fill="none" stroke="#000000" points="548,-745.5 548,-775.5 845,-775.5 845,-745.5 548,-745.5"/>
<text text-anchor="start" x="555" y="-756.9" font-family="Arial" font-size="14.00" fill="#000000">callInterval    </text>
<text text-anchor="start" x="656.0968" y="-756.9" font-family="Arial" font-size="14.00" fill="#666666">[integer]</text>
<polygon fill="none" stroke="#000000" points="548,-715.5 548,-745.5 845,-745.5 845,-715.5 548,-715.5"/>
<text text-anchor="start" x="555" y="-726.9" font-family="Arial" font-size="14.00" fill="#000000">colorForService    </text>
<text text-anchor="start" x="687.202" y="-726.9" font-family="Arial" font-size="14.00" fill="#666666">[varchar]</text>
<polygon fill="none" stroke="#000000" points="548,-685.5 548,-715.5 845,-715.5 845,-685.5 548,-685.5"/>
<text text-anchor="start" x="555" y="-696.9" font-family="Arial" font-size="14.00" fill="#000000">warrantyCard    </text>
<text text-anchor="start" x="673.2034" y="-696.9" font-family="Arial" font-size="14.00" fill="#666666">[boolean]</text>
<polygon fill="none" stroke="#000000" points="548,-655.5 548,-685.5 845,-685.5 845,-655.5 548,-655.5"/>
<text text-anchor="start" x="555" y="-666.9" font-family="Arial" font-size="14.00" fill="#000000">itemNumber    </text>
<text text-anchor="start" x="665.4208" y="-666.9" font-family="Arial" font-size="14.00" fill="#666666">[varchar(256)]</text>
<polygon fill="none" stroke="#000000" points="548,-625.5 548,-655.5 845,-655.5 845,-625.5 548,-625.5"/>
<text text-anchor="start" x="555" y="-636.9" font-family="Arial" font-size="14.00" fill="#000000">award    </text>
<text text-anchor="start" x="627.3198" y="-636.9" font-family="Arial" font-size="14.00" fill="#666666">[real]</text>
<polygon fill="none" stroke="#000000" points="548,-595.5 548,-625.5 845,-625.5 845,-595.5 548,-595.5"/>
<text text-anchor="start" x="555" y="-606.9" font-family="Arial" font-size="14.00" fill="#000000">suppliersArticleNumber    </text>
<text text-anchor="start" x="733.8682" y="-606.9" font-family="Arial" font-size="14.00" fill="#666666">[varchar(256)]</text>
<polygon fill="none" stroke="#000000" points="548,-565.5 548,-595.5 845,-595.5 845,-565.5 548,-565.5"/>
<text text-anchor="start" x="555" y="-576.9" font-family="Arial" font-size="14.00" fill="#000000">externalArticleNumber    </text>
<text text-anchor="start" x="727.6522" y="-576.9" font-family="Arial" font-size="14.00" fill="#666666">[varchar(256)]</text>
<polygon fill="none" stroke="#000000" points="548,-535.5 548,-565.5 845,-565.5 845,-535.5 548,-535.5"/>
<text text-anchor="start" x="555" y="-546.9" font-family="Arial" font-size="14.00" fill="#000000">day1    </text>
<text text-anchor="start" x="619.5526" y="-546.9" font-family="Arial" font-size="14.00" fill="#666666">[interval]</text>
<polygon fill="none" stroke="#000000" points="548,-505.5 548,-535.5 845,-535.5 845,-505.5 548,-505.5"/>
<text text-anchor="start" x="555" y="-516.9" font-family="Arial" font-size="14.00" fill="#000000">day2    </text>
<text text-anchor="start" x="619.5526" y="-516.9" font-family="Arial" font-size="14.00" fill="#666666">[interval]</text>
<polygon fill="none" stroke="#000000" points="548,-475.5 548,-505.5 845,-505.5 845,-475.5 548,-475.5"/>
<text text-anchor="start" x="555" y="-486.9" font-family="Arial" font-size="14.00" fill="#000000">day3    </text>
<text text-anchor="start" x="619.5526" y="-486.9" font-family="Arial" font-size="14.00" fill="#666666">[interval]</text>
<polygon fill="none" stroke="#000000" points="548,-445.5 548,-475.5 845,-475.5 845,-445.5 548,-445.5"/>
<text text-anchor="start" x="555" y="-456.9" font-family="Arial" font-size="14.00" fill="#000000">day4    </text>
<text text-anchor="start" x="619.5526" y="-456.9" font-family="Arial" font-size="14.00" fill="#666666">[interval]</text>
<polygon fill="none" stroke="#000000" points="548,-415.5 548,-445.5 845,-445.5 845,-415.5 548,-415.5"/>
<text text-anchor="start" x="555" y="-426.9" font-family="Arial" font-size="14.00" fill="#000000">day5    </text>
<text text-anchor="start" x="619.5526" y="-426.9" font-family="Arial" font-size="14.00" fill="#666666">[interval]</text>
<polygon fill="none" stroke="#000000" points="548,-385.5 548,-415.5 845,-415.5 845,-385.5 548,-385.5"/>
<text text-anchor="start" x="555" y="-396.9" font-family="Arial" font-size="14.00" fill="#000000">createdAt    </text>
<text text-anchor="start" x="649.1136" y="-396.9" font-family="Arial" font-size="14.00" fill="#666666">[timestamp without time zone]</text>
<polygon fill="none" stroke="#000000" points="548,-355.5 548,-385.5 845,-385.5 845,-355.5 548,-355.5"/>
<text text-anchor="start" x="554.9208" y="-366.9" font-family="Arial" font-size="14.00" fill="#000000">updatedAt    </text>
<text text-anchor="start" x="652.939" y="-366.9" font-family="Arial" font-size="14.00" fill="#666666">[timestamp without time zone]</text>
</g>
<!-- public.services&#45;&gt;public.serviceCategories -->
<g id="edge1" class="edge">
<title>public.services:serviceCategoryID&#45;&gt;public.serviceCategories:serviceCategoryID</title>
<path fill="none" stroke="#000000" d="M538.5069,-967.317C458.8582,-912.9551 443.4525,-180.5 528,-180.5"/>
<polygon fill="#000000" stroke="#000000" points="538.5188,-967.3209 546.5694,-974.7666 543.2594,-968.9105 548,-970.5 548,-970.5 548,-970.5 543.2594,-968.9105 549.4306,-966.2334 538.5188,-967.3209 538.5188,-967.3209"/>
<text text-anchor="start" x="6.6805" y="-980.5" font-family="Arial" font-size="10.00" fill="#000000">FOREIGN KEY (&quot;serviceCategoryID&quot;) REFERENCES &quot;serviceCategories&quot;(&quot;serviceCategoryID&quot;) ON DELETE CASCADE</text>
</g>
</g>
</svg>
