<?xml version="1.0" encoding="UTF-8" standalone="no"?>
<!DOCTYPE svg PUBLIC "-//W3C//DTD SVG 1.1//EN"
 "http://www.w3.org/Graphics/SVG/1.1/DTD/svg11.dtd">
<!-- Generated by graphviz version 2.40.1 (20161225.0304)
 -->
<!-- Title: public.orderLocalServices Pages: 1 -->
<svg width="1722pt" height="1672pt"
 viewBox="0.00 0.00 1721.50 1672.00" xmlns="http://www.w3.org/2000/svg" xmlns:xlink="http://www.w3.org/1999/xlink">
<g id="graph0" class="graph" transform="scale(1 1) rotate(0) translate(4 1668)">
<title>public.orderLocalServices</title>
<polygon fill="#ffffff" stroke="transparent" points="-4,4 -4,-1668 1717.5,-1668 1717.5,4 -4,4"/>
<!-- public.orderLocalServices -->
<g id="node1" class="node">
<title>public.orderLocalServices</title>
<polygon fill="#efefef" stroke="transparent" points="1321,-1582.5 1321,-1617.5 1668,-1617.5 1668,-1582.5 1321,-1582.5"/>
<polygon fill="none" stroke="#000000" points="1321,-1582.5 1321,-1617.5 1668,-1617.5 1668,-1582.5 1321,-1582.5"/>
<text text-anchor="start" x="1327.702" y="-1595.3" font-family="Arial Bold" font-size="18.00" fill="#000000">public.orderLocalServices</text>
<text text-anchor="start" x="1533.73" y="-1595.3" font-family="Arial" font-size="14.00" fill="#000000">    </text>
<text text-anchor="start" x="1567.9348" y="-1595.3" font-family="Arial" font-size="14.00" fill="#666666">[BASE TABLE]</text>
<polygon fill="none" stroke="#000000" points="1321,-1552.5 1321,-1582.5 1668,-1582.5 1668,-1552.5 1321,-1552.5"/>
<text text-anchor="start" x="1328" y="-1563.9" font-family="Arial" font-size="14.00" fill="#000000">orderID </text>
<text text-anchor="start" x="1378.5568" y="-1563.9" font-family="Arial" font-size="14.00" fill="#666666">[integer]</text>
<polygon fill="none" stroke="#000000" points="1321,-1522.5 1321,-1552.5 1668,-1552.5 1668,-1522.5 1321,-1522.5"/>
<text text-anchor="start" x="1328" y="-1533.9" font-family="Arial" font-size="14.00" fill="#000000">localServiceID </text>
<text text-anchor="start" x="1421.3352" y="-1533.9" font-family="Arial" font-size="14.00" fill="#666666">[integer]</text>
<polygon fill="none" stroke="#000000" points="1321,-1492.5 1321,-1522.5 1668,-1522.5 1668,-1492.5 1321,-1492.5"/>
<text text-anchor="start" x="1328" y="-1503.9" font-family="Arial" font-size="14.00" fill="#000000">serviceVariantID </text>
<text text-anchor="start" x="1434.5624" y="-1503.9" font-family="Arial" font-size="14.00" fill="#666666">[integer]</text>
<polygon fill="none" stroke="#000000" points="1321,-1462.5 1321,-1492.5 1668,-1492.5 1668,-1462.5 1321,-1462.5"/>
<text text-anchor="start" x="1328" y="-1473.9" font-family="Arial" font-size="14.00" fill="#000000">day1 </text>
<text text-anchor="start" x="1362.2384" y="-1473.9" font-family="Arial" font-size="14.00" fill="#666666">[timestamp without time zone]</text>
<polygon fill="none" stroke="#000000" points="1321,-1432.5 1321,-1462.5 1668,-1462.5 1668,-1432.5 1321,-1432.5"/>
<text text-anchor="start" x="1328" y="-1443.9" font-family="Arial" font-size="14.00" fill="#000000">day1Work </text>
<text text-anchor="start" x="1394.8962" y="-1443.9" font-family="Arial" font-size="14.00" fill="#666666">[interval]</text>
<polygon fill="none" stroke="#000000" points="1321,-1402.5 1321,-1432.5 1668,-1432.5 1668,-1402.5 1321,-1402.5"/>
<text text-anchor="start" x="1328" y="-1413.9" font-family="Arial" font-size="14.00" fill="#000000">day1Employee </text>
<text text-anchor="start" x="1424.4726" y="-1413.9" font-family="Arial" font-size="14.00" fill="#666666">[integer]</text>
<polygon fill="none" stroke="#000000" points="1321,-1372.5 1321,-1402.5 1668,-1402.5 1668,-1372.5 1321,-1372.5"/>
<text text-anchor="start" x="1328" y="-1383.9" font-family="Arial" font-size="14.00" fill="#000000">day2 </text>
<text text-anchor="start" x="1362.2384" y="-1383.9" font-family="Arial" font-size="14.00" fill="#666666">[timestamp without time zone]</text>
<polygon fill="none" stroke="#000000" points="1321,-1342.5 1321,-1372.5 1668,-1372.5 1668,-1342.5 1321,-1342.5"/>
<text text-anchor="start" x="1328" y="-1353.9" font-family="Arial" font-size="14.00" fill="#000000">day3 </text>
<text text-anchor="start" x="1362.2384" y="-1353.9" font-family="Arial" font-size="14.00" fill="#666666">[timestamp without time zone]</text>
<polygon fill="none" stroke="#000000" points="1321,-1312.5 1321,-1342.5 1668,-1342.5 1668,-1312.5 1321,-1312.5"/>
<text text-anchor="start" x="1328" y="-1323.9" font-family="Arial" font-size="14.00" fill="#000000">day4 </text>
<text text-anchor="start" x="1362.2384" y="-1323.9" font-family="Arial" font-size="14.00" fill="#666666">[timestamp without time zone]</text>
<polygon fill="none" stroke="#000000" points="1321,-1282.5 1321,-1312.5 1668,-1312.5 1668,-1282.5 1321,-1282.5"/>
<text text-anchor="start" x="1328" y="-1293.9" font-family="Arial" font-size="14.00" fill="#000000">day5 </text>
<text text-anchor="start" x="1362.2384" y="-1293.9" font-family="Arial" font-size="14.00" fill="#666666">[timestamp without time zone]</text>
<polygon fill="none" stroke="#000000" points="1321,-1252.5 1321,-1282.5 1668,-1282.5 1668,-1252.5 1321,-1252.5"/>
<text text-anchor="start" x="1328" y="-1263.9" font-family="Arial" font-size="14.00" fill="#000000">cost </text>
<text text-anchor="start" x="1357.5638" y="-1263.9" font-family="Arial" font-size="14.00" fill="#666666">[real]</text>
<polygon fill="none" stroke="#000000" points="1321,-1222.5 1321,-1252.5 1668,-1252.5 1668,-1222.5 1321,-1222.5"/>
<text text-anchor="start" x="1328" y="-1233.9" font-family="Arial" font-size="14.00" fill="#000000">vatFree </text>
<text text-anchor="start" x="1379.3422" y="-1233.9" font-family="Arial" font-size="14.00" fill="#666666">[boolean]</text>
<polygon fill="none" stroke="#000000" points="1321,-1192.5 1321,-1222.5 1668,-1222.5 1668,-1192.5 1321,-1192.5"/>
<text text-anchor="start" x="1328" y="-1203.9" font-family="Arial" font-size="14.00" fill="#000000">orderNotes </text>
<text text-anchor="start" x="1401.122" y="-1203.9" font-family="Arial" font-size="14.00" fill="#666666">[varchar]</text>
<polygon fill="none" stroke="#000000" points="1321,-1162.5 1321,-1192.5 1668,-1192.5 1668,-1162.5 1321,-1162.5"/>
<text text-anchor="start" x="1328" y="-1173.9" font-family="Arial" font-size="14.00" fill="#000000">amount </text>
<text text-anchor="start" x="1378.5722" y="-1173.9" font-family="Arial" font-size="14.00" fill="#666666">[integer]</text>
<polygon fill="none" stroke="#000000" points="1321,-1132.5 1321,-1162.5 1668,-1162.5 1668,-1132.5 1321,-1132.5"/>
<text text-anchor="start" x="1328" y="-1143.9" font-family="Arial" font-size="14.00" fill="#000000">day2Employee </text>
<text text-anchor="start" x="1424.4726" y="-1143.9" font-family="Arial" font-size="14.00" fill="#666666">[integer]</text>
<polygon fill="none" stroke="#000000" points="1321,-1102.5 1321,-1132.5 1668,-1132.5 1668,-1102.5 1321,-1102.5"/>
<text text-anchor="start" x="1328" y="-1113.9" font-family="Arial" font-size="14.00" fill="#000000">day3Employee </text>
<text text-anchor="start" x="1424.4726" y="-1113.9" font-family="Arial" font-size="14.00" fill="#666666">[integer]</text>
<polygon fill="none" stroke="#000000" points="1321,-1072.5 1321,-1102.5 1668,-1102.5 1668,-1072.5 1321,-1072.5"/>
<text text-anchor="start" x="1328" y="-1083.9" font-family="Arial" font-size="14.00" fill="#000000">day4Employee </text>
<text text-anchor="start" x="1424.4726" y="-1083.9" font-family="Arial" font-size="14.00" fill="#666666">[integer]</text>
<polygon fill="none" stroke="#000000" points="1321,-1042.5 1321,-1072.5 1668,-1072.5 1668,-1042.5 1321,-1042.5"/>
<text text-anchor="start" x="1328" y="-1053.9" font-family="Arial" font-size="14.00" fill="#000000">day5Employee </text>
<text text-anchor="start" x="1424.4726" y="-1053.9" font-family="Arial" font-size="14.00" fill="#666666">[integer]</text>
<polygon fill="none" stroke="#000000" points="1321,-1012.5 1321,-1042.5 1668,-1042.5 1668,-1012.5 1321,-1012.5"/>
<text text-anchor="start" x="1328" y="-1023.9" font-family="Arial" font-size="14.00" fill="#000000">name </text>
<text text-anchor="start" x="1366.899" y="-1023.9" font-family="Arial" font-size="14.00" fill="#666666">[varchar(256)]</text>
<polygon fill="none" stroke="#000000" points="1321,-982.5 1321,-1012.5 1668,-1012.5 1668,-982.5 1321,-982.5"/>
<text text-anchor="start" x="1328" y="-993.9" font-family="Arial" font-size="14.00" fill="#000000">currency </text>
<text text-anchor="start" x="1385.5596" y="-993.9" font-family="Arial" font-size="14.00" fill="#666666">[varchar]</text>
<polygon fill="none" stroke="#000000" points="1321,-952.5 1321,-982.5 1668,-982.5 1668,-952.5 1321,-952.5"/>
<text text-anchor="start" x="1328" y="-963.9" font-family="Arial" font-size="14.00" fill="#000000">day2Work </text>
<text text-anchor="start" x="1394.8962" y="-963.9" font-family="Arial" font-size="14.00" fill="#666666">[interval]</text>
<polygon fill="none" stroke="#000000" points="1321,-922.5 1321,-952.5 1668,-952.5 1668,-922.5 1321,-922.5"/>
<text text-anchor="start" x="1328" y="-933.9" font-family="Arial" font-size="14.00" fill="#000000">day3Work </text>
<text text-anchor="start" x="1394.8962" y="-933.9" font-family="Arial" font-size="14.00" fill="#666666">[interval]</text>
<polygon fill="none" stroke="#000000" points="1321,-892.5 1321,-922.5 1668,-922.5 1668,-892.5 1321,-892.5"/>
<text text-anchor="start" x="1328" y="-903.9" font-family="Arial" font-size="14.00" fill="#000000">day4Work </text>
<text text-anchor="start" x="1394.8962" y="-903.9" font-family="Arial" font-size="14.00" fill="#666666">[interval]</text>
<polygon fill="none" stroke="#000000" points="1321,-862.5 1321,-892.5 1668,-892.5 1668,-862.5 1321,-862.5"/>
<text text-anchor="start" x="1328" y="-873.9" font-family="Arial" font-size="14.00" fill="#000000">day5Work </text>
<text text-anchor="start" x="1394.8962" y="-873.9" font-family="Arial" font-size="14.00" fill="#666666">[interval]</text>
<polygon fill="none" stroke="#000000" stroke-width="3" points="1319,-861.5 1319,-1619.5 1669,-1619.5 1669,-861.5 1319,-861.5"/>
</g>
<!-- public.orders -->
<g id="node2" class="node">
<title>public.orders</title>
<polygon fill="#efefef" stroke="transparent" points="43,-582.5 43,-617.5 377,-617.5 377,-582.5 43,-582.5"/>
<polygon fill="none" stroke="#000000" points="43,-582.5 43,-617.5 377,-617.5 377,-582.5 43,-582.5"/>
<text text-anchor="start" x="94.7099" y="-595.3" font-family="Arial Bold" font-size="18.00" fill="#000000">public.orders</text>
<text text-anchor="start" x="197.7221" y="-595.3" font-family="Arial" font-size="14.00" fill="#000000">    </text>
<text text-anchor="start" x="231.9269" y="-595.3" font-family="Arial" font-size="14.00" fill="#666666">[BASE TABLE]</text>
<polygon fill="none" stroke="#000000" points="43,-552.5 43,-582.5 377,-582.5 377,-552.5 43,-552.5"/>
<text text-anchor="start" x="50" y="-563.9" font-family="Arial" font-size="14.00" fill="#000000">orderID    </text>
<text text-anchor="start" x="130.871" y="-563.9" font-family="Arial" font-size="14.00" fill="#666666">[integer]</text>
<polygon fill="none" stroke="#000000" points="43,-522.5 43,-552.5 377,-552.5 377,-522.5 43,-522.5"/>
<text text-anchor="start" x="50" y="-533.9" font-family="Arial" font-size="14.00" fill="#000000">driverCarID    </text>
<text text-anchor="start" x="155.7448" y="-533.9" font-family="Arial" font-size="14.00" fill="#666666">[integer]</text>
<polygon fill="none" stroke="#000000" points="43,-492.5 43,-522.5 377,-522.5 377,-492.5 43,-492.5"/>
<text text-anchor="start" x="50" y="-503.9" font-family="Arial" font-size="14.00" fill="#000000">driverID    </text>
<text text-anchor="start" x="133.195" y="-503.9" font-family="Arial" font-size="14.00" fill="#666666">[integer]</text>
<polygon fill="none" stroke="#000000" points="43,-462.5 43,-492.5 377,-492.5 377,-462.5 43,-462.5"/>
<text text-anchor="start" x="50" y="-473.9" font-family="Arial" font-size="14.00" fill="#000000">storeID    </text>
<text text-anchor="start" x="129.3184" y="-473.9" font-family="Arial" font-size="14.00" fill="#666666">[integer]</text>
<polygon fill="none" stroke="#000000" points="43,-432.5 43,-462.5 377,-462.5 377,-432.5 43,-432.5"/>
<text text-anchor="start" x="50" y="-443.9" font-family="Arial" font-size="14.00" fill="#000000">orderNotes    </text>
<text text-anchor="start" x="153.4362" y="-443.9" font-family="Arial" font-size="14.00" fill="#666666">[varchar]</text>
<polygon fill="none" stroke="#000000" points="43,-402.5 43,-432.5 377,-432.5 377,-402.5 43,-402.5"/>
<text text-anchor="start" x="50" y="-413.9" font-family="Arial" font-size="14.00" fill="#000000">employeeID    </text>
<text text-anchor="start" x="158.8822" y="-413.9" font-family="Arial" font-size="14.00" fill="#666666">[integer]</text>
<polygon fill="none" stroke="#000000" points="43,-372.5 43,-402.5 377,-402.5 377,-372.5 43,-372.5"/>
<text text-anchor="start" x="49.7742" y="-383.9" font-family="Arial" font-size="14.00" fill="#000000">submissionTime    </text>
<text text-anchor="start" x="185.0856" y="-383.9" font-family="Arial" font-size="14.00" fill="#666666">[timestamp without time zone]</text>
<polygon fill="none" stroke="#000000" points="43,-342.5 43,-372.5 377,-372.5 377,-342.5 43,-342.5"/>
<text text-anchor="start" x="50" y="-353.9" font-family="Arial" font-size="14.00" fill="#000000">vatFree    </text>
<text text-anchor="start" x="131.6564" y="-353.9" font-family="Arial" font-size="14.00" fill="#666666">[boolean]</text>
<polygon fill="none" stroke="#000000" points="43,-312.5 43,-342.5 377,-342.5 377,-312.5 43,-312.5"/>
<text text-anchor="start" x="50" y="-323.9" font-family="Arial" font-size="14.00" fill="#000000">orderStatus    </text>
<text text-anchor="start" x="156.5568" y="-323.9" font-family="Arial" font-size="14.00" fill="#666666">[&quot;orderStatus&quot;]</text>
<polygon fill="none" stroke="#000000" points="43,-282.5 43,-312.5 377,-312.5 377,-282.5 43,-282.5"/>
<text text-anchor="start" x="50" y="-293.9" font-family="Arial" font-size="14.00" fill="#000000">currency    </text>
<text text-anchor="start" x="137.8738" y="-293.9" font-family="Arial" font-size="14.00" fill="#666666">[varchar]</text>
<polygon fill="none" stroke="#000000" points="43,-252.5 43,-282.5 377,-282.5 377,-252.5 43,-252.5"/>
<text text-anchor="start" x="50" y="-263.9" font-family="Arial" font-size="14.00" fill="#000000">discount    </text>
<text text-anchor="start" x="136.3324" y="-263.9" font-family="Arial" font-size="14.00" fill="#666666">[real]</text>
<polygon fill="none" stroke="#000000" points="43,-222.5 43,-252.5 377,-252.5 377,-222.5 43,-222.5"/>
<text text-anchor="start" x="50" y="-233.9" font-family="Arial" font-size="14.00" fill="#000000">createdAt    </text>
<text text-anchor="start" x="144.1136" y="-233.9" font-family="Arial" font-size="14.00" fill="#666666">[timestamp without time zone]</text>
<polygon fill="none" stroke="#000000" points="43,-192.5 43,-222.5 377,-222.5 377,-192.5 43,-192.5"/>
<text text-anchor="start" x="50" y="-203.9" font-family="Arial" font-size="14.00" fill="#000000">updatedAt    </text>
<text text-anchor="start" x="148.0182" y="-203.9" font-family="Arial" font-size="14.00" fill="#666666">[timestamp without time zone]</text>
<polygon fill="none" stroke="#000000" points="43,-162.5 43,-192.5 377,-192.5 377,-162.5 43,-162.5"/>
<text text-anchor="start" x="50" y="-173.9" font-family="Arial" font-size="14.00" fill="#000000">pickupTime    </text>
<text text-anchor="start" x="155.7616" y="-173.9" font-family="Arial" font-size="14.00" fill="#666666">[timestamp without time zone]</text>
</g>
<!-- public.orderLocalServices&#45;&gt;public.orders -->
<g id="edge1" class="edge">
<title>public.orderLocalServices:orderID&#45;&gt;public.orders:orderID</title>
<path fill="none" stroke="#000000" d="M1310.9878,-1567.4597C791.306,-1563.2534 700.6102,-1230.4996 429,-781 378.4919,-697.412 474.6628,-567.5 377,-567.5"/>
<polygon fill="#000000" stroke="#000000" points="1311.0001,-1567.4596 1320.9818,-1572 1316,-1567.4798 1321,-1567.5 1321,-1567.5 1321,-1567.5 1316,-1567.4798 1321.0182,-1563 1311.0001,-1567.4596 1311.0001,-1567.4596"/>
<text text-anchor="start" x="935.9595" y="-1577.5" font-family="Arial" font-size="10.00" fill="#000000">FOREIGN KEY (&quot;orderID&quot;) REFERENCES orders(&quot;orderID&quot;) ON DELETE CASCADE</text>
</g>
<!-- public.localServices -->
<g id="node3" class="node">
<title>public.localServices</title>
<polygon fill="#efefef" stroke="transparent" points="482,-702.5 482,-737.5 781,-737.5 781,-702.5 482,-702.5"/>
<polygon fill="none" stroke="#000000" points="482,-702.5 482,-737.5 781,-737.5 781,-702.5 482,-702.5"/>
<text text-anchor="start" x="488.7095" y="-715.3" font-family="Arial Bold" font-size="18.00" fill="#000000">public.localServices</text>
<text text-anchor="start" x="646.7225" y="-715.3" font-family="Arial" font-size="14.00" fill="#000000">    </text>
<text text-anchor="start" x="680.9273" y="-715.3" font-family="Arial" font-size="14.00" fill="#666666">[BASE TABLE]</text>
<polygon fill="none" stroke="#000000" points="482,-672.5 482,-702.5 781,-702.5 781,-672.5 482,-672.5"/>
<text text-anchor="start" x="489" y="-683.9" font-family="Arial" font-size="14.00" fill="#000000">localServiceID    </text>
<text text-anchor="start" x="612.6494" y="-683.9" font-family="Arial" font-size="14.00" fill="#666666">[integer]</text>
<polygon fill="none" stroke="#000000" points="482,-642.5 482,-672.5 781,-672.5 781,-642.5 482,-642.5"/>
<text text-anchor="start" x="489" y="-653.9" font-family="Arial" font-size="14.00" fill="#000000">serviceCategoryID    </text>
<text text-anchor="start" x="638.3226" y="-653.9" font-family="Arial" font-size="14.00" fill="#666666">[integer]</text>
<polygon fill="none" stroke="#000000" points="482,-612.5 482,-642.5 781,-642.5 781,-612.5 482,-612.5"/>
<text text-anchor="start" x="489" y="-623.9" font-family="Arial" font-size="14.00" fill="#000000">name    </text>
<text text-anchor="start" x="558.2132" y="-623.9" font-family="Arial" font-size="14.00" fill="#666666">[varchar(256)]</text>
<polygon fill="none" stroke="#000000" points="482,-582.5 482,-612.5 781,-612.5 781,-582.5 482,-582.5"/>
<text text-anchor="start" x="489" y="-593.9" font-family="Arial" font-size="14.00" fill="#000000">storeID    </text>
<text text-anchor="start" x="568.3184" y="-593.9" font-family="Arial" font-size="14.00" fill="#666666">[integer]</text>
<polygon fill="none" stroke="#000000" points="482,-552.5 482,-582.5 781,-582.5 781,-552.5 482,-552.5"/>
<text text-anchor="start" x="489" y="-563.9" font-family="Arial" font-size="14.00" fill="#000000">currency    </text>
<text text-anchor="start" x="576.8738" y="-563.9" font-family="Arial" font-size="14.00" fill="#666666">[varchar(5)]</text>
<polygon fill="none" stroke="#000000" points="482,-522.5 482,-552.5 781,-552.5 781,-522.5 482,-522.5"/>
<text text-anchor="start" x="489" y="-533.9" font-family="Arial" font-size="14.00" fill="#000000">cost    </text>
<text text-anchor="start" x="548.878" y="-533.9" font-family="Arial" font-size="14.00" fill="#666666">[real]</text>
<polygon fill="none" stroke="#000000" points="482,-492.5 482,-522.5 781,-522.5 781,-492.5 482,-492.5"/>
<text text-anchor="start" x="489" y="-503.9" font-family="Arial" font-size="14.00" fill="#000000">includeInAutomaticSms    </text>
<text text-anchor="start" x="669.4516" y="-503.9" font-family="Arial" font-size="14.00" fill="#666666">[boolean]</text>
<polygon fill="none" stroke="#000000" points="482,-462.5 482,-492.5 781,-492.5 781,-462.5 482,-462.5"/>
<text text-anchor="start" x="489" y="-473.9" font-family="Arial" font-size="14.00" fill="#000000">hidden    </text>
<text text-anchor="start" x="565.2244" y="-473.9" font-family="Arial" font-size="14.00" fill="#666666">[boolean]</text>
<polygon fill="none" stroke="#000000" points="482,-432.5 482,-462.5 781,-462.5 781,-432.5 482,-432.5"/>
<text text-anchor="start" x="489" y="-443.9" font-family="Arial" font-size="14.00" fill="#000000">callInterval    </text>
<text text-anchor="start" x="590.0968" y="-443.9" font-family="Arial" font-size="14.00" fill="#666666">[integer]</text>
<polygon fill="none" stroke="#000000" points="482,-402.5 482,-432.5 781,-432.5 781,-402.5 482,-402.5"/>
<text text-anchor="start" x="489" y="-413.9" font-family="Arial" font-size="14.00" fill="#000000">colorForService    </text>
<text text-anchor="start" x="621.202" y="-413.9" font-family="Arial" font-size="14.00" fill="#666666">[varchar]</text>
<polygon fill="none" stroke="#000000" points="482,-372.5 482,-402.5 781,-402.5 781,-372.5 482,-372.5"/>
<text text-anchor="start" x="489" y="-383.9" font-family="Arial" font-size="14.00" fill="#000000">warrantyCard    </text>
<text text-anchor="start" x="607.2034" y="-383.9" font-family="Arial" font-size="14.00" fill="#666666">[boolean]</text>
<polygon fill="none" stroke="#000000" points="482,-342.5 482,-372.5 781,-372.5 781,-342.5 482,-342.5"/>
<text text-anchor="start" x="489" y="-353.9" font-family="Arial" font-size="14.00" fill="#000000">itemNumber    </text>
<text text-anchor="start" x="599.4208" y="-353.9" font-family="Arial" font-size="14.00" fill="#666666">[varchar(256)]</text>
<polygon fill="none" stroke="#000000" points="482,-312.5 482,-342.5 781,-342.5 781,-312.5 482,-312.5"/>
<text text-anchor="start" x="489" y="-323.9" font-family="Arial" font-size="14.00" fill="#000000">award    </text>
<text text-anchor="start" x="561.3198" y="-323.9" font-family="Arial" font-size="14.00" fill="#666666">[real]</text>
<polygon fill="none" stroke="#000000" points="482,-282.5 482,-312.5 781,-312.5 781,-282.5 482,-282.5"/>
<text text-anchor="start" x="489" y="-293.9" font-family="Arial" font-size="14.00" fill="#000000">suppliersArticleNumber    </text>
<text text-anchor="start" x="667.8682" y="-293.9" font-family="Arial" font-size="14.00" fill="#666666">[varchar(256)]</text>
<polygon fill="none" stroke="#000000" points="482,-252.5 482,-282.5 781,-282.5 781,-252.5 482,-252.5"/>
<text text-anchor="start" x="489" y="-263.9" font-family="Arial" font-size="14.00" fill="#000000">externalArticleNumber    </text>
<text text-anchor="start" x="661.6522" y="-263.9" font-family="Arial" font-size="14.00" fill="#666666">[varchar(256)]</text>
<polygon fill="none" stroke="#000000" points="482,-222.5 482,-252.5 781,-252.5 781,-222.5 482,-222.5"/>
<text text-anchor="start" x="489" y="-233.9" font-family="Arial" font-size="14.00" fill="#000000">day1    </text>
<text text-anchor="start" x="553.5526" y="-233.9" font-family="Arial" font-size="14.00" fill="#666666">[interval]</text>
<polygon fill="none" stroke="#000000" points="482,-192.5 482,-222.5 781,-222.5 781,-192.5 482,-192.5"/>
<text text-anchor="start" x="489" y="-203.9" font-family="Arial" font-size="14.00" fill="#000000">day2    </text>
<text text-anchor="start" x="553.5526" y="-203.9" font-family="Arial" font-size="14.00" fill="#666666">[interval]</text>
<polygon fill="none" stroke="#000000" points="482,-162.5 482,-192.5 781,-192.5 781,-162.5 482,-162.5"/>
<text text-anchor="start" x="489" y="-173.9" font-family="Arial" font-size="14.00" fill="#000000">day3    </text>
<text text-anchor="start" x="553.5526" y="-173.9" font-family="Arial" font-size="14.00" fill="#666666">[interval]</text>
<polygon fill="none" stroke="#000000" points="482,-132.5 482,-162.5 781,-162.5 781,-132.5 482,-132.5"/>
<text text-anchor="start" x="489" y="-143.9" font-family="Arial" font-size="14.00" fill="#000000">day4    </text>
<text text-anchor="start" x="553.5526" y="-143.9" font-family="Arial" font-size="14.00" fill="#666666">[interval]</text>
<polygon fill="none" stroke="#000000" points="482,-102.5 482,-132.5 781,-132.5 781,-102.5 482,-102.5"/>
<text text-anchor="start" x="489" y="-113.9" font-family="Arial" font-size="14.00" fill="#000000">day5    </text>
<text text-anchor="start" x="553.5526" y="-113.9" font-family="Arial" font-size="14.00" fill="#666666">[interval]</text>
<polygon fill="none" stroke="#000000" points="482,-72.5 482,-102.5 781,-102.5 781,-72.5 482,-72.5"/>
<text text-anchor="start" x="489" y="-83.9" font-family="Arial" font-size="14.00" fill="#000000">createdAt    </text>
<text text-anchor="start" x="583.1136" y="-83.9" font-family="Arial" font-size="14.00" fill="#666666">[timestamp without time zone]</text>
<polygon fill="none" stroke="#000000" points="482,-42.5 482,-72.5 781,-72.5 781,-42.5 482,-42.5"/>
<text text-anchor="start" x="489" y="-53.9" font-family="Arial" font-size="14.00" fill="#000000">updatedAt    </text>
<text text-anchor="start" x="587.0182" y="-53.9" font-family="Arial" font-size="14.00" fill="#666666">[timestamp without time zone]</text>
</g>
<!-- public.orderLocalServices&#45;&gt;public.localServices -->
<g id="edge2" class="edge">
<title>public.orderLocalServices:localServiceID&#45;&gt;public.localServices:localServiceID</title>
<path fill="none" stroke="#000000" d="M1310.8563,-1537.4098C922.8835,-1530.4407 1037.03,-1121.1967 833,-781 808.5436,-740.2217 828.5498,-687.5 781,-687.5"/>
<polygon fill="#000000" stroke="#000000" points="1311.0004,-1537.4109 1320.9599,-1541.9998 1316.0002,-1537.4555 1321,-1537.5 1321,-1537.5 1321,-1537.5 1316.0002,-1537.4555 1321.0401,-1533.0002 1311.0004,-1537.4109 1311.0004,-1537.4109"/>
<text text-anchor="start" x="837.5765" y="-1547.5" font-family="Arial" font-size="10.00" fill="#000000">FOREIGN KEY (&quot;localServiceID&quot;) REFERENCES &quot;localServices&quot;(&quot;localServiceID&quot;) ON DELETE CASCADE</text>
</g>
<!-- public.localServiceVariants -->
<g id="node4" class="node">
<title>public.localServiceVariants</title>
<polygon fill="#efefef" stroke="transparent" points="885,-567.5 885,-602.5 1241,-602.5 1241,-567.5 885,-567.5"/>
<polygon fill="none" stroke="#000000" points="885,-567.5 885,-602.5 1241,-602.5 1241,-567.5 885,-567.5"/>
<text text-anchor="start" x="891.7038" y="-580.3" font-family="Arial Bold" font-size="18.00" fill="#000000">public.localServiceVariants</text>
<text text-anchor="start" x="1106.7282" y="-580.3" font-family="Arial" font-size="14.00" fill="#000000">    </text>
<text text-anchor="start" x="1140.933" y="-580.3" font-family="Arial" font-size="14.00" fill="#666666">[BASE TABLE]</text>
<polygon fill="none" stroke="#000000" points="885,-537.5 885,-567.5 1241,-567.5 1241,-537.5 885,-537.5"/>
<text text-anchor="start" x="892" y="-548.9" font-family="Arial" font-size="14.00" fill="#000000">serviceVariantID    </text>
<text text-anchor="start" x="1028.8766" y="-548.9" font-family="Arial" font-size="14.00" fill="#666666">[integer]</text>
<polygon fill="none" stroke="#000000" points="885,-507.5 885,-537.5 1241,-537.5 1241,-507.5 885,-507.5"/>
<text text-anchor="start" x="892" y="-518.9" font-family="Arial" font-size="14.00" fill="#000000">name    </text>
<text text-anchor="start" x="961.2132" y="-518.9" font-family="Arial" font-size="14.00" fill="#666666">[varchar(256)]</text>
<polygon fill="none" stroke="#000000" points="885,-477.5 885,-507.5 1241,-507.5 1241,-477.5 885,-477.5"/>
<text text-anchor="start" x="892" y="-488.9" font-family="Arial" font-size="14.00" fill="#000000">currency    </text>
<text text-anchor="start" x="979.8738" y="-488.9" font-family="Arial" font-size="14.00" fill="#666666">[varchar(5)]</text>
<polygon fill="none" stroke="#000000" points="885,-447.5 885,-477.5 1241,-477.5 1241,-447.5 885,-447.5"/>
<text text-anchor="start" x="892" y="-458.9" font-family="Arial" font-size="14.00" fill="#000000">cost    </text>
<text text-anchor="start" x="951.878" y="-458.9" font-family="Arial" font-size="14.00" fill="#666666">[real]</text>
<polygon fill="none" stroke="#000000" points="885,-417.5 885,-447.5 1241,-447.5 1241,-417.5 885,-417.5"/>
<text text-anchor="start" x="892" y="-428.9" font-family="Arial" font-size="14.00" fill="#000000">award    </text>
<text text-anchor="start" x="964.3198" y="-428.9" font-family="Arial" font-size="14.00" fill="#666666">[real]</text>
<polygon fill="none" stroke="#000000" points="885,-387.5 885,-417.5 1241,-417.5 1241,-387.5 885,-387.5"/>
<text text-anchor="start" x="892" y="-398.9" font-family="Arial" font-size="14.00" fill="#000000">day1    </text>
<text text-anchor="start" x="956.5526" y="-398.9" font-family="Arial" font-size="14.00" fill="#666666">[interval]</text>
<polygon fill="none" stroke="#000000" points="885,-357.5 885,-387.5 1241,-387.5 1241,-357.5 885,-357.5"/>
<text text-anchor="start" x="892" y="-368.9" font-family="Arial" font-size="14.00" fill="#000000">day2    </text>
<text text-anchor="start" x="956.5526" y="-368.9" font-family="Arial" font-size="14.00" fill="#666666">[interval]</text>
<polygon fill="none" stroke="#000000" points="885,-327.5 885,-357.5 1241,-357.5 1241,-327.5 885,-327.5"/>
<text text-anchor="start" x="892" y="-338.9" font-family="Arial" font-size="14.00" fill="#000000">day3    </text>
<text text-anchor="start" x="956.5526" y="-338.9" font-family="Arial" font-size="14.00" fill="#666666">[interval]</text>
<polygon fill="none" stroke="#000000" points="885,-297.5 885,-327.5 1241,-327.5 1241,-297.5 885,-297.5"/>
<text text-anchor="start" x="892" y="-308.9" font-family="Arial" font-size="14.00" fill="#000000">day4    </text>
<text text-anchor="start" x="956.5526" y="-308.9" font-family="Arial" font-size="14.00" fill="#666666">[interval]</text>
<polygon fill="none" stroke="#000000" points="885,-267.5 885,-297.5 1241,-297.5 1241,-267.5 885,-267.5"/>
<text text-anchor="start" x="892" y="-278.9" font-family="Arial" font-size="14.00" fill="#000000">day5    </text>
<text text-anchor="start" x="956.5526" y="-278.9" font-family="Arial" font-size="14.00" fill="#666666">[interval]</text>
<polygon fill="none" stroke="#000000" points="885,-237.5 885,-267.5 1241,-267.5 1241,-237.5 885,-237.5"/>
<text text-anchor="start" x="892" y="-248.9" font-family="Arial" font-size="14.00" fill="#000000">localServiceID    </text>
<text text-anchor="start" x="1015.6494" y="-248.9" font-family="Arial" font-size="14.00" fill="#666666">[integer]</text>
<polygon fill="none" stroke="#000000" points="885,-207.5 885,-237.5 1241,-237.5 1241,-207.5 885,-207.5"/>
<text text-anchor="start" x="892" y="-218.9" font-family="Arial" font-size="14.00" fill="#000000">createdAt    </text>
<text text-anchor="start" x="986.1136" y="-218.9" font-family="Arial" font-size="14.00" fill="#666666">[timestamp without time zone]</text>
<polygon fill="none" stroke="#000000" points="885,-177.5 885,-207.5 1241,-207.5 1241,-177.5 885,-177.5"/>
<text text-anchor="start" x="892" y="-188.9" font-family="Arial" font-size="14.00" fill="#000000">updatedAt    </text>
<text text-anchor="start" x="990.0182" y="-188.9" font-family="Arial" font-size="14.00" fill="#666666">[timestamp without time zone]</text>
</g>
<!-- public.orderLocalServices&#45;&gt;public.localServiceVariants -->
<g id="edge3" class="edge">
<title>public.orderLocalServices:serviceVariantID&#45;&gt;public.localServiceVariants:serviceVariantID</title>
<path fill="none" stroke="#000000" d="M1311.1677,-1504.4114C1223.083,-1445.1349 1343.9472,-552.5 1241,-552.5"/>
<polygon fill="#000000" stroke="#000000" points="1311.4596,-1504.503 1319.6514,-1511.7932 1316.2298,-1506.0015 1321,-1507.5 1321,-1507.5 1321,-1507.5 1316.2298,-1506.0015 1322.3486,-1503.2068 1311.4596,-1504.503 1311.4596,-1504.503"/>
<text text-anchor="start" x="787.292" y="-1517.5" font-family="Arial" font-size="10.00" fill="#000000">FOREIGN KEY (&quot;serviceVariantID&quot;) REFERENCES &quot;localServiceVariants&quot;(&quot;serviceVariantID&quot;) ON DELETE CASCADE</text>
</g>
<!-- public.employees -->
<g id="node5" class="node">
<title>public.employees</title>
<polygon fill="#efefef" stroke="transparent" points="1346,-567.5 1346,-602.5 1643,-602.5 1643,-567.5 1346,-567.5"/>
<polygon fill="none" stroke="#000000" points="1346,-567.5 1346,-602.5 1643,-602.5 1643,-567.5 1346,-567.5"/>
<text text-anchor="start" x="1361.2027" y="-580.3" font-family="Arial Bold" font-size="18.00" fill="#000000">public.employees</text>
<text text-anchor="start" x="1500.2293" y="-580.3" font-family="Arial" font-size="14.00" fill="#000000">    </text>
<text text-anchor="start" x="1534.4341" y="-580.3" font-family="Arial" font-size="14.00" fill="#666666">[BASE TABLE]</text>
<polygon fill="none" stroke="#000000" points="1346,-537.5 1346,-567.5 1643,-567.5 1643,-537.5 1346,-537.5"/>
<text text-anchor="start" x="1353" y="-548.9" font-family="Arial" font-size="14.00" fill="#000000">userID    </text>
<text text-anchor="start" x="1428.4278" y="-548.9" font-family="Arial" font-size="14.00" fill="#666666">[integer]</text>
<polygon fill="none" stroke="#000000" points="1346,-507.5 1346,-537.5 1643,-537.5 1643,-507.5 1346,-507.5"/>
<text text-anchor="start" x="1353" y="-518.9" font-family="Arial" font-size="14.00" fill="#000000">employeeID    </text>
<text text-anchor="start" x="1461.8822" y="-518.9" font-family="Arial" font-size="14.00" fill="#666666">[integer]</text>
<polygon fill="none" stroke="#000000" points="1346,-477.5 1346,-507.5 1643,-507.5 1643,-477.5 1346,-477.5"/>
<text text-anchor="start" x="1353" y="-488.9" font-family="Arial" font-size="14.00" fill="#000000">shortUserName    </text>
<text text-anchor="start" x="1485.2034" y="-488.9" font-family="Arial" font-size="14.00" fill="#666666">[varchar(16)]</text>
<polygon fill="none" stroke="#000000" points="1346,-447.5 1346,-477.5 1643,-477.5 1643,-447.5 1346,-447.5"/>
<text text-anchor="start" x="1353" y="-458.9" font-family="Arial" font-size="14.00" fill="#000000">employmentNumber    </text>
<text text-anchor="start" x="1513.2118" y="-458.9" font-family="Arial" font-size="14.00" fill="#666666">[varchar(128)]</text>
<polygon fill="none" stroke="#000000" points="1346,-417.5 1346,-447.5 1643,-447.5 1643,-417.5 1346,-417.5"/>
<text text-anchor="start" x="1353" y="-428.9" font-family="Arial" font-size="14.00" fill="#000000">employeePersonalNumber    </text>
<text text-anchor="start" x="1552.8948" y="-428.9" font-family="Arial" font-size="14.00" fill="#666666">[varchar(16)]</text>
<polygon fill="none" stroke="#000000" points="1346,-387.5 1346,-417.5 1643,-417.5 1643,-387.5 1346,-387.5"/>
<text text-anchor="start" x="1353" y="-398.9" font-family="Arial" font-size="14.00" fill="#000000">signature    </text>
<text text-anchor="start" x="1444.7756" y="-398.9" font-family="Arial" font-size="14.00" fill="#666666">[varchar(4)]</text>
<polygon fill="none" stroke="#000000" points="1346,-357.5 1346,-387.5 1643,-387.5 1643,-357.5 1346,-357.5"/>
<text text-anchor="start" x="1353" y="-368.9" font-family="Arial" font-size="14.00" fill="#000000">employeeHourlyRate    </text>
<text text-anchor="start" x="1517.8864" y="-368.9" font-family="Arial" font-size="14.00" fill="#666666">[real]</text>
<polygon fill="none" stroke="#000000" points="1346,-327.5 1346,-357.5 1643,-357.5 1643,-327.5 1346,-327.5"/>
<text text-anchor="start" x="1353" y="-338.9" font-family="Arial" font-size="14.00" fill="#000000">employeeHourlyRateCurrency    </text>
<text text-anchor="start" x="1574.662" y="-338.9" font-family="Arial" font-size="14.00" fill="#666666">[varchar]</text>
<polygon fill="none" stroke="#000000" points="1346,-297.5 1346,-327.5 1643,-327.5 1643,-297.5 1346,-297.5"/>
<text text-anchor="start" x="1353" y="-308.9" font-family="Arial" font-size="14.00" fill="#000000">employeePin    </text>
<text text-anchor="start" x="1468.1108" y="-308.9" font-family="Arial" font-size="14.00" fill="#666666">[varchar(4)]</text>
<polygon fill="none" stroke="#000000" points="1346,-267.5 1346,-297.5 1643,-297.5 1643,-267.5 1346,-267.5"/>
<text text-anchor="start" x="1353" y="-278.9" font-family="Arial" font-size="14.00" fill="#000000">employeeComment    </text>
<text text-anchor="start" x="1508.5512" y="-278.9" font-family="Arial" font-size="14.00" fill="#666666">[varchar]</text>
<polygon fill="none" stroke="#000000" points="1346,-237.5 1346,-267.5 1643,-267.5 1643,-237.5 1346,-237.5"/>
<text text-anchor="start" x="1353" y="-248.9" font-family="Arial" font-size="14.00" fill="#000000">employeeActive    </text>
<text text-anchor="start" x="1486.0014" y="-248.9" font-family="Arial" font-size="14.00" fill="#666666">[boolean]</text>
<polygon fill="none" stroke="#000000" points="1346,-207.5 1346,-237.5 1643,-237.5 1643,-207.5 1346,-207.5"/>
<text text-anchor="start" x="1353" y="-218.9" font-family="Arial" font-size="14.00" fill="#000000">createdAt    </text>
<text text-anchor="start" x="1447.1136" y="-218.9" font-family="Arial" font-size="14.00" fill="#666666">[timestamp without time zone]</text>
<polygon fill="none" stroke="#000000" points="1346,-177.5 1346,-207.5 1643,-207.5 1643,-177.5 1346,-177.5"/>
<text text-anchor="start" x="1352.9208" y="-188.9" font-family="Arial" font-size="14.00" fill="#000000">updatedAt    </text>
<text text-anchor="start" x="1450.939" y="-188.9" font-family="Arial" font-size="14.00" fill="#666666">[timestamp without time zone]</text>
</g>
<!-- public.orderLocalServices&#45;&gt;public.employees -->
<g id="edge4" class="edge">
<title>public.orderLocalServices:day1Employee&#45;&gt;public.employees:employeeID</title>
<path fill="none" stroke="#000000" d="M1313.7469,-1410.2957C1273.9639,-1325.5944 1298.8815,-522.5 1346,-522.5"/>
<polygon fill="#000000" stroke="#000000" points="1313.9051,-1410.4528 1317.8288,-1420.6927 1317.4525,-1413.9764 1321,-1417.5 1321,-1417.5 1321,-1417.5 1317.4525,-1413.9764 1324.1712,-1414.3073 1313.9051,-1410.4528 1313.9051,-1410.4528"/>
<text text-anchor="start" x="863.8285" y="-1427.5" font-family="Arial" font-size="10.00" fill="#000000">FOREIGN KEY (&quot;day1Employee&quot;) REFERENCES employees(&quot;employeeID&quot;) ON DELETE SET NULL</text>
</g>
<!-- public.orderLocalServices&#45;&gt;public.employees -->
<g id="edge5" class="edge">
<title>public.orderLocalServices:day2Employee&#45;&gt;public.employees:employeeID</title>
<path fill="none" stroke="#000000" d="M1314.853,-1139.5977C1289.6133,-1067.2483 1313.5576,-522.5 1346,-522.5"/>
<polygon fill="#000000" stroke="#000000" points="1314.8601,-1139.6068 1317.4481,-1150.263 1317.93,-1143.5534 1321,-1147.5 1321,-1147.5 1321,-1147.5 1317.93,-1143.5534 1324.5519,-1144.737 1314.8601,-1139.6068 1314.8601,-1139.6068"/>
<text text-anchor="start" x="863.8285" y="-1157.5" font-family="Arial" font-size="10.00" fill="#000000">FOREIGN KEY (&quot;day2Employee&quot;) REFERENCES employees(&quot;employeeID&quot;) ON DELETE SET NULL</text>
</g>
<!-- public.orderLocalServices&#45;&gt;public.employees -->
<g id="edge6" class="edge">
<title>public.orderLocalServices:day3Employee&#45;&gt;public.employees:employeeID</title>
<path fill="none" stroke="#000000" d="M1314.8653,-1109.0889C1291.4709,-1036.7697 1315.2415,-522.5 1346,-522.5"/>
<polygon fill="#000000" stroke="#000000" points="1315.1072,-1109.4206 1317.3643,-1120.1517 1318.0536,-1113.4603 1321,-1117.5 1321,-1117.5 1321,-1117.5 1318.0536,-1113.4603 1324.6357,-1114.8483 1315.1072,-1109.4206 1315.1072,-1109.4206"/>
<text text-anchor="start" x="863.8285" y="-1127.5" font-family="Arial" font-size="10.00" fill="#000000">FOREIGN KEY (&quot;day3Employee&quot;) REFERENCES employees(&quot;employeeID&quot;) ON DELETE SET NULL</text>
</g>
<!-- public.orderLocalServices&#45;&gt;public.employees -->
<g id="edge7" class="edge">
<title>public.orderLocalServices:day4Employee&#45;&gt;public.employees:employeeID</title>
<path fill="none" stroke="#000000" d="M1315.0534,-1079.0746C1293.2272,-1008.7905 1316.851,-522.5 1346,-522.5"/>
<polygon fill="#000000" stroke="#000000" points="1315.2336,-1079.33 1317.3235,-1090.0949 1318.1168,-1083.415 1321,-1087.5 1321,-1087.5 1321,-1087.5 1318.1168,-1083.415 1324.6765,-1084.9051 1315.2336,-1079.33 1315.2336,-1079.33"/>
<text text-anchor="start" x="863.8285" y="-1097.5" font-family="Arial" font-size="10.00" fill="#000000">FOREIGN KEY (&quot;day4Employee&quot;) REFERENCES employees(&quot;employeeID&quot;) ON DELETE SET NULL</text>
</g>
<!-- public.orderLocalServices&#45;&gt;public.employees -->
<g id="edge8" class="edge">
<title>public.orderLocalServices:day5Employee&#45;&gt;public.employees:employeeID</title>
<path fill="none" stroke="#000000" d="M1315.2593,-1049.0964C1294.9825,-981.0329 1318.4537,-522.5 1346,-522.5"/>
<polygon fill="#000000" stroke="#000000" points="1315.3592,-1049.2427 1317.2842,-1060.0383 1318.1796,-1053.3714 1321,-1057.5 1321,-1057.5 1321,-1057.5 1318.1796,-1053.3714 1324.7158,-1054.9617 1315.3592,-1049.2427 1315.3592,-1049.2427"/>
<text text-anchor="start" x="863.8285" y="-1067.5" font-family="Arial" font-size="10.00" fill="#000000">FOREIGN KEY (&quot;day5Employee&quot;) REFERENCES employees(&quot;employeeID&quot;) ON DELETE SET NULL</text>
</g>
</g>
</svg>
