<?xml version="1.0" encoding="UTF-8" standalone="no"?>
<!DOCTYPE svg PUBLIC "-//W3C//DTD SVG 1.1//EN"
 "http://www.w3.org/Graphics/SVG/1.1/DTD/svg11.dtd">
<!-- Generated by graphviz version 2.40.1 (20161225.0304)
 -->
<!-- Title: public.employeeGlobalQualifications Pages: 1 -->
<svg width="1397pt" height="742pt"
 viewBox="0.00 0.00 1397.00 742.00" xmlns="http://www.w3.org/2000/svg" xmlns:xlink="http://www.w3.org/1999/xlink">
<g id="graph0" class="graph" transform="scale(1 1) rotate(0) translate(4 738)">
<title>public.employeeGlobalQualifications</title>
<polygon fill="#ffffff" stroke="transparent" points="-4,4 -4,-738 1393,-738 1393,4 -4,4"/>
<!-- public.employeeGlobalQualifications -->
<g id="node1" class="node">
<title>public.employeeGlobalQualifications</title>
<polygon fill="#efefef" stroke="transparent" points="452,-652.5 452,-687.5 883,-687.5 883,-652.5 452,-652.5"/>
<polygon fill="none" stroke="#000000" points="452,-652.5 452,-687.5 883,-687.5 883,-652.5 452,-652.5"/>
<text text-anchor="start" x="458.6909" y="-665.3" font-family="Arial Bold" font-size="18.00" fill="#000000">public.employeeGlobalQualifications</text>
<text text-anchor="start" x="748.7411" y="-665.3" font-family="Arial" font-size="14.00" fill="#000000">    </text>
<text text-anchor="start" x="782.9459" y="-665.3" font-family="Arial" font-size="14.00" fill="#666666">[BASE TABLE]</text>
<polygon fill="none" stroke="#000000" points="452,-622.5 452,-652.5 883,-652.5 883,-622.5 452,-622.5"/>
<text text-anchor="start" x="459" y="-633.9" font-family="Arial" font-size="14.00" fill="#000000">employeeID </text>
<text text-anchor="start" x="537.568" y="-633.9" font-family="Arial" font-size="14.00" fill="#666666">[integer]</text>
<polygon fill="none" stroke="#000000" points="452,-592.5 452,-622.5 883,-622.5 883,-592.5 452,-592.5"/>
<text text-anchor="start" x="459" y="-603.9" font-family="Arial" font-size="14.00" fill="#000000">globalQualID </text>
<text text-anchor="start" x="543.7938" y="-603.9" font-family="Arial" font-size="14.00" fill="#666666">[integer]</text>
<polygon fill="none" stroke="#000000" stroke-width="3" points="450,-591.5 450,-689.5 884,-689.5 884,-591.5 450,-591.5"/>
</g>
<!-- public.employees -->
<g id="node2" class="node">
<title>public.employees</title>
<polygon fill="#efefef" stroke="transparent" points="306,-432.5 306,-467.5 603,-467.5 603,-432.5 306,-432.5"/>
<polygon fill="none" stroke="#000000" points="306,-432.5 306,-467.5 603,-467.5 603,-432.5 306,-432.5"/>
<text text-anchor="start" x="321.2027" y="-445.3" font-family="Arial Bold" font-size="18.00" fill="#000000">public.employees</text>
<text text-anchor="start" x="460.2293" y="-445.3" font-family="Arial" font-size="14.00" fill="#000000">    </text>
<text text-anchor="start" x="494.4341" y="-445.3" font-family="Arial" font-size="14.00" fill="#666666">[BASE TABLE]</text>
<polygon fill="none" stroke="#000000" points="306,-402.5 306,-432.5 603,-432.5 603,-402.5 306,-402.5"/>
<text text-anchor="start" x="313" y="-413.9" font-family="Arial" font-size="14.00" fill="#000000">userID    </text>
<text text-anchor="start" x="388.4278" y="-413.9" font-family="Arial" font-size="14.00" fill="#666666">[integer]</text>
<polygon fill="none" stroke="#000000" points="306,-372.5 306,-402.5 603,-402.5 603,-372.5 306,-372.5"/>
<text text-anchor="start" x="313" y="-383.9" font-family="Arial" font-size="14.00" fill="#000000">employeeID    </text>
<text text-anchor="start" x="421.8822" y="-383.9" font-family="Arial" font-size="14.00" fill="#666666">[integer]</text>
<polygon fill="none" stroke="#000000" points="306,-342.5 306,-372.5 603,-372.5 603,-342.5 306,-342.5"/>
<text text-anchor="start" x="313" y="-353.9" font-family="Arial" font-size="14.00" fill="#000000">shortUserName    </text>
<text text-anchor="start" x="445.2034" y="-353.9" font-family="Arial" font-size="14.00" fill="#666666">[varchar(16)]</text>
<polygon fill="none" stroke="#000000" points="306,-312.5 306,-342.5 603,-342.5 603,-312.5 306,-312.5"/>
<text text-anchor="start" x="313" y="-323.9" font-family="Arial" font-size="14.00" fill="#000000">employmentNumber    </text>
<text text-anchor="start" x="473.2118" y="-323.9" font-family="Arial" font-size="14.00" fill="#666666">[varchar(128)]</text>
<polygon fill="none" stroke="#000000" points="306,-282.5 306,-312.5 603,-312.5 603,-282.5 306,-282.5"/>
<text text-anchor="start" x="313" y="-293.9" font-family="Arial" font-size="14.00" fill="#000000">employeePersonalNumber    </text>
<text text-anchor="start" x="512.8948" y="-293.9" font-family="Arial" font-size="14.00" fill="#666666">[varchar(16)]</text>
<polygon fill="none" stroke="#000000" points="306,-252.5 306,-282.5 603,-282.5 603,-252.5 306,-252.5"/>
<text text-anchor="start" x="313" y="-263.9" font-family="Arial" font-size="14.00" fill="#000000">signature    </text>
<text text-anchor="start" x="404.7756" y="-263.9" font-family="Arial" font-size="14.00" fill="#666666">[varchar(4)]</text>
<polygon fill="none" stroke="#000000" points="306,-222.5 306,-252.5 603,-252.5 603,-222.5 306,-222.5"/>
<text text-anchor="start" x="313" y="-233.9" font-family="Arial" font-size="14.00" fill="#000000">employeeHourlyRate    </text>
<text text-anchor="start" x="477.8864" y="-233.9" font-family="Arial" font-size="14.00" fill="#666666">[real]</text>
<polygon fill="none" stroke="#000000" points="306,-192.5 306,-222.5 603,-222.5 603,-192.5 306,-192.5"/>
<text text-anchor="start" x="313" y="-203.9" font-family="Arial" font-size="14.00" fill="#000000">employeeHourlyRateCurrency    </text>
<text text-anchor="start" x="534.662" y="-203.9" font-family="Arial" font-size="14.00" fill="#666666">[varchar]</text>
<polygon fill="none" stroke="#000000" points="306,-162.5 306,-192.5 603,-192.5 603,-162.5 306,-162.5"/>
<text text-anchor="start" x="313" y="-173.9" font-family="Arial" font-size="14.00" fill="#000000">employeePin    </text>
<text text-anchor="start" x="428.1108" y="-173.9" font-family="Arial" font-size="14.00" fill="#666666">[varchar(4)]</text>
<polygon fill="none" stroke="#000000" points="306,-132.5 306,-162.5 603,-162.5 603,-132.5 306,-132.5"/>
<text text-anchor="start" x="313" y="-143.9" font-family="Arial" font-size="14.00" fill="#000000">employeeComment    </text>
<text text-anchor="start" x="468.5512" y="-143.9" font-family="Arial" font-size="14.00" fill="#666666">[varchar]</text>
<polygon fill="none" stroke="#000000" points="306,-102.5 306,-132.5 603,-132.5 603,-102.5 306,-102.5"/>
<text text-anchor="start" x="313" y="-113.9" font-family="Arial" font-size="14.00" fill="#000000">employeeActive    </text>
<text text-anchor="start" x="446.0014" y="-113.9" font-family="Arial" font-size="14.00" fill="#666666">[boolean]</text>
<polygon fill="none" stroke="#000000" points="306,-72.5 306,-102.5 603,-102.5 603,-72.5 306,-72.5"/>
<text text-anchor="start" x="313" y="-83.9" font-family="Arial" font-size="14.00" fill="#000000">createdAt    </text>
<text text-anchor="start" x="407.1136" y="-83.9" font-family="Arial" font-size="14.00" fill="#666666">[timestamp without time zone]</text>
<polygon fill="none" stroke="#000000" points="306,-42.5 306,-72.5 603,-72.5 603,-42.5 306,-42.5"/>
<text text-anchor="start" x="312.9208" y="-53.9" font-family="Arial" font-size="14.00" fill="#000000">updatedAt    </text>
<text text-anchor="start" x="410.939" y="-53.9" font-family="Arial" font-size="14.00" fill="#666666">[timestamp without time zone]</text>
</g>
<!-- public.employeeGlobalQualifications&#45;&gt;public.employees -->
<g id="edge1" class="edge">
<title>public.employeeGlobalQualifications:employeeID&#45;&gt;public.employees:employeeID</title>
<path fill="none" stroke="#000000" d="M441.7618,-635.8943C414.8571,-626.2507 429.508,-575.4848 452,-547 494.7553,-492.8531 560.2447,-565.1469 603,-511 637.0154,-467.9216 657.8889,-387.5 603,-387.5"/>
<polygon fill="#000000" stroke="#000000" points="442.1208,-635.9505 451.3027,-641.9457 447.0604,-636.7253 452,-637.5 452,-637.5 452,-637.5 447.0604,-636.7253 452.6973,-633.0543 442.1208,-635.9505 442.1208,-635.9505"/>
<text text-anchor="start" x="6.9475" y="-647.5" font-family="Arial" font-size="10.00" fill="#000000">FOREIGN KEY (&quot;employeeID&quot;) REFERENCES employees(&quot;employeeID&quot;) ON DELETE CASCADE</text>
</g>
<!-- public.qualificationsGlobal -->
<g id="node3" class="node">
<title>public.qualificationsGlobal</title>
<polygon fill="#efefef" stroke="transparent" points="707,-297.5 707,-332.5 1056,-332.5 1056,-297.5 707,-297.5"/>
<polygon fill="none" stroke="#000000" points="707,-297.5 707,-332.5 1056,-332.5 1056,-297.5 707,-297.5"/>
<text text-anchor="start" x="713.6976" y="-310.3" font-family="Arial Bold" font-size="18.00" fill="#000000">public.qualificationsGlobal</text>
<text text-anchor="start" x="921.7344" y="-310.3" font-family="Arial" font-size="14.00" fill="#000000">    </text>
<text text-anchor="start" x="955.9392" y="-310.3" font-family="Arial" font-size="14.00" fill="#666666">[BASE TABLE]</text>
<polygon fill="none" stroke="#000000" points="707,-267.5 707,-297.5 1056,-297.5 1056,-267.5 707,-267.5"/>
<text text-anchor="start" x="714" y="-278.9" font-family="Arial" font-size="14.00" fill="#000000">globalQualID    </text>
<text text-anchor="start" x="829.108" y="-278.9" font-family="Arial" font-size="14.00" fill="#666666">[integer]</text>
<polygon fill="none" stroke="#000000" points="707,-237.5 707,-267.5 1056,-267.5 1056,-237.5 707,-237.5"/>
<text text-anchor="start" x="714" y="-248.9" font-family="Arial" font-size="14.00" fill="#000000">globalQualName    </text>
<text text-anchor="start" x="852.4432" y="-248.9" font-family="Arial" font-size="14.00" fill="#666666">[varchar(64)]</text>
<polygon fill="none" stroke="#000000" points="707,-207.5 707,-237.5 1056,-237.5 1056,-207.5 707,-207.5"/>
<text text-anchor="start" x="714" y="-218.9" font-family="Arial" font-size="14.00" fill="#000000">createdAt    </text>
<text text-anchor="start" x="808.1136" y="-218.9" font-family="Arial" font-size="14.00" fill="#666666">[timestamp without time zone]</text>
<polygon fill="none" stroke="#000000" points="707,-177.5 707,-207.5 1056,-207.5 1056,-177.5 707,-177.5"/>
<text text-anchor="start" x="714" y="-188.9" font-family="Arial" font-size="14.00" fill="#000000">updatedAt    </text>
<text text-anchor="start" x="812.0182" y="-188.9" font-family="Arial" font-size="14.00" fill="#666666">[timestamp without time zone]</text>
</g>
<!-- public.employeeGlobalQualifications&#45;&gt;public.qualificationsGlobal -->
<g id="edge2" class="edge">
<title>public.employeeGlobalQualifications:globalQualID&#45;&gt;public.qualificationsGlobal:globalQualID</title>
<path fill="none" stroke="#000000" d="M892.9547,-604.8208C904.6612,-596.0704 891.7511,-567.7039 883,-547 840.5386,-446.5423 749.4614,-476.4577 707,-376 690.8212,-337.7232 665.4444,-282.5 707,-282.5"/>
<polygon fill="#000000" stroke="#000000" points="892.6564,-604.901 881.8305,-603.1546 887.8282,-606.2005 883,-607.5 883,-607.5 883,-607.5 887.8282,-606.2005 884.1695,-611.8454 892.6564,-604.901 892.6564,-604.901"/>
<text text-anchor="start" x="889.782" y="-617.5" font-family="Arial" font-size="10.00" fill="#000000">FOREIGN KEY (&quot;globalQualID&quot;) REFERENCES &quot;qualificationsGlobal&quot;(&quot;globalQualID&quot;) ON DELETE CASCADE</text>
</g>
</g>
</svg>
