<?xml version="1.0" encoding="UTF-8" standalone="no"?>
<!DOCTYPE svg PUBLIC "-//W3C//DTD SVG 1.1//EN"
 "http://www.w3.org/Graphics/SVG/1.1/DTD/svg11.dtd">
<!-- Generated by graphviz version 2.40.1 (20161225.0304)
 -->
<!-- Title: public.serviceCategories Pages: 1 -->
<svg width="1208pt" height="1102pt"
 viewBox="0.00 0.00 1208.00 1102.00" xmlns="http://www.w3.org/2000/svg" xmlns:xlink="http://www.w3.org/1999/xlink">
<g id="graph0" class="graph" transform="scale(1 1) rotate(0) translate(4 1098)">
<title>public.serviceCategories</title>
<polygon fill="#ffffff" stroke="transparent" points="-4,4 -4,-1098 1204,-1098 1204,4 -4,4"/>
<!-- public.serviceCategories -->
<g id="node1" class="node">
<title>public.serviceCategories</title>
<polygon fill="#efefef" stroke="transparent" points="431,-195.5 431,-230.5 768,-230.5 768,-195.5 431,-195.5"/>
<polygon fill="none" stroke="#000000" points="431,-195.5 431,-230.5 768,-230.5 768,-195.5 431,-195.5"/>
<text text-anchor="start" x="437.7051" y="-208.3" font-family="Arial Bold" font-size="18.00" fill="#000000">public.serviceCategories</text>
<text text-anchor="start" x="633.7269" y="-208.3" font-family="Arial" font-size="14.00" fill="#000000">    </text>
<text text-anchor="start" x="667.9317" y="-208.3" font-family="Arial" font-size="14.00" fill="#666666">[BASE TABLE]</text>
<polygon fill="none" stroke="#000000" points="431,-165.5 431,-195.5 768,-195.5 768,-165.5 431,-165.5"/>
<text text-anchor="start" x="438" y="-176.9" font-family="Arial" font-size="14.00" fill="#000000">serviceCategoryID </text>
<text text-anchor="start" x="557.0084" y="-176.9" font-family="Arial" font-size="14.00" fill="#666666">[integer]</text>
<polygon fill="none" stroke="#000000" points="431,-135.5 431,-165.5 768,-165.5 768,-135.5 431,-135.5"/>
<text text-anchor="start" x="438" y="-146.9" font-family="Arial" font-size="14.00" fill="#000000">serviceCategoryName </text>
<text text-anchor="start" x="580.3436" y="-146.9" font-family="Arial" font-size="14.00" fill="#666666">[varchar(256)]</text>
<polygon fill="none" stroke="#000000" points="431,-105.5 431,-135.5 768,-135.5 768,-105.5 431,-105.5"/>
<text text-anchor="start" x="438" y="-116.9" font-family="Arial" font-size="14.00" fill="#000000">serviceCategoryDescription </text>
<text text-anchor="start" x="613.0126" y="-116.9" font-family="Arial" font-size="14.00" fill="#666666">[varchar]</text>
<polygon fill="none" stroke="#000000" points="431,-75.5 431,-105.5 768,-105.5 768,-75.5 431,-75.5"/>
<text text-anchor="start" x="438" y="-86.9" font-family="Arial" font-size="14.00" fill="#000000">createdAt </text>
<text text-anchor="start" x="501.7994" y="-86.9" font-family="Arial" font-size="14.00" fill="#666666">[timestamp without time zone]</text>
<polygon fill="none" stroke="#000000" points="431,-45.5 431,-75.5 768,-75.5 768,-45.5 431,-45.5"/>
<text text-anchor="start" x="438" y="-56.9" font-family="Arial" font-size="14.00" fill="#000000">updatedAt </text>
<text text-anchor="start" x="505.704" y="-56.9" font-family="Arial" font-size="14.00" fill="#666666">[timestamp without time zone]</text>
<polygon fill="none" stroke="#000000" stroke-width="3" points="429,-44.5 429,-232.5 769,-232.5 769,-44.5 429,-44.5"/>
</g>
<!-- public.localServices -->
<g id="node2" class="node">
<title>public.localServices</title>
<polygon fill="#efefef" stroke="transparent" points="249,-1015.5 249,-1050.5 548,-1050.5 548,-1015.5 249,-1015.5"/>
<polygon fill="none" stroke="#000000" points="249,-1015.5 249,-1050.5 548,-1050.5 548,-1015.5 249,-1015.5"/>
<text text-anchor="start" x="255.7095" y="-1028.3" font-family="Arial Bold" font-size="18.00" fill="#000000">public.localServices</text>
<text text-anchor="start" x="413.7225" y="-1028.3" font-family="Arial" font-size="14.00" fill="#000000">    </text>
<text text-anchor="start" x="447.9273" y="-1028.3" font-family="Arial" font-size="14.00" fill="#666666">[BASE TABLE]</text>
<polygon fill="none" stroke="#000000" points="249,-985.5 249,-1015.5 548,-1015.5 548,-985.5 249,-985.5"/>
<text text-anchor="start" x="256" y="-996.9" font-family="Arial" font-size="14.00" fill="#000000">localServiceID    </text>
<text text-anchor="start" x="379.6494" y="-996.9" font-family="Arial" font-size="14.00" fill="#666666">[integer]</text>
<polygon fill="none" stroke="#000000" points="249,-955.5 249,-985.5 548,-985.5 548,-955.5 249,-955.5"/>
<text text-anchor="start" x="256" y="-966.9" font-family="Arial" font-size="14.00" fill="#000000">serviceCategoryID    </text>
<text text-anchor="start" x="405.3226" y="-966.9" font-family="Arial" font-size="14.00" fill="#666666">[integer]</text>
<polygon fill="none" stroke="#000000" points="249,-925.5 249,-955.5 548,-955.5 548,-925.5 249,-925.5"/>
<text text-anchor="start" x="256" y="-936.9" font-family="Arial" font-size="14.00" fill="#000000">name    </text>
<text text-anchor="start" x="325.2132" y="-936.9" font-family="Arial" font-size="14.00" fill="#666666">[varchar(256)]</text>
<polygon fill="none" stroke="#000000" points="249,-895.5 249,-925.5 548,-925.5 548,-895.5 249,-895.5"/>
<text text-anchor="start" x="256" y="-906.9" font-family="Arial" font-size="14.00" fill="#000000">storeID    </text>
<text text-anchor="start" x="335.3184" y="-906.9" font-family="Arial" font-size="14.00" fill="#666666">[integer]</text>
<polygon fill="none" stroke="#000000" points="249,-865.5 249,-895.5 548,-895.5 548,-865.5 249,-865.5"/>
<text text-anchor="start" x="256" y="-876.9" font-family="Arial" font-size="14.00" fill="#000000">currency    </text>
<text text-anchor="start" x="343.8738" y="-876.9" font-family="Arial" font-size="14.00" fill="#666666">[varchar(5)]</text>
<polygon fill="none" stroke="#000000" points="249,-835.5 249,-865.5 548,-865.5 548,-835.5 249,-835.5"/>
<text text-anchor="start" x="256" y="-846.9" font-family="Arial" font-size="14.00" fill="#000000">cost    </text>
<text text-anchor="start" x="315.878" y="-846.9" font-family="Arial" font-size="14.00" fill="#666666">[real]</text>
<polygon fill="none" stroke="#000000" points="249,-805.5 249,-835.5 548,-835.5 548,-805.5 249,-805.5"/>
<text text-anchor="start" x="256" y="-816.9" font-family="Arial" font-size="14.00" fill="#000000">includeInAutomaticSms    </text>
<text text-anchor="start" x="436.4516" y="-816.9" font-family="Arial" font-size="14.00" fill="#666666">[boolean]</text>
<polygon fill="none" stroke="#000000" points="249,-775.5 249,-805.5 548,-805.5 548,-775.5 249,-775.5"/>
<text text-anchor="start" x="256" y="-786.9" font-family="Arial" font-size="14.00" fill="#000000">hidden    </text>
<text text-anchor="start" x="332.2244" y="-786.9" font-family="Arial" font-size="14.00" fill="#666666">[boolean]</text>
<polygon fill="none" stroke="#000000" points="249,-745.5 249,-775.5 548,-775.5 548,-745.5 249,-745.5"/>
<text text-anchor="start" x="256" y="-756.9" font-family="Arial" font-size="14.00" fill="#000000">callInterval    </text>
<text text-anchor="start" x="357.0968" y="-756.9" font-family="Arial" font-size="14.00" fill="#666666">[integer]</text>
<polygon fill="none" stroke="#000000" points="249,-715.5 249,-745.5 548,-745.5 548,-715.5 249,-715.5"/>
<text text-anchor="start" x="256" y="-726.9" font-family="Arial" font-size="14.00" fill="#000000">colorForService    </text>
<text text-anchor="start" x="388.202" y="-726.9" font-family="Arial" font-size="14.00" fill="#666666">[varchar]</text>
<polygon fill="none" stroke="#000000" points="249,-685.5 249,-715.5 548,-715.5 548,-685.5 249,-685.5"/>
<text text-anchor="start" x="256" y="-696.9" font-family="Arial" font-size="14.00" fill="#000000">warrantyCard    </text>
<text text-anchor="start" x="374.2034" y="-696.9" font-family="Arial" font-size="14.00" fill="#666666">[boolean]</text>
<polygon fill="none" stroke="#000000" points="249,-655.5 249,-685.5 548,-685.5 548,-655.5 249,-655.5"/>
<text text-anchor="start" x="256" y="-666.9" font-family="Arial" font-size="14.00" fill="#000000">itemNumber    </text>
<text text-anchor="start" x="366.4208" y="-666.9" font-family="Arial" font-size="14.00" fill="#666666">[varchar(256)]</text>
<polygon fill="none" stroke="#000000" points="249,-625.5 249,-655.5 548,-655.5 548,-625.5 249,-625.5"/>
<text text-anchor="start" x="256" y="-636.9" font-family="Arial" font-size="14.00" fill="#000000">award    </text>
<text text-anchor="start" x="328.3198" y="-636.9" font-family="Arial" font-size="14.00" fill="#666666">[real]</text>
<polygon fill="none" stroke="#000000" points="249,-595.5 249,-625.5 548,-625.5 548,-595.5 249,-595.5"/>
<text text-anchor="start" x="256" y="-606.9" font-family="Arial" font-size="14.00" fill="#000000">suppliersArticleNumber    </text>
<text text-anchor="start" x="434.8682" y="-606.9" font-family="Arial" font-size="14.00" fill="#666666">[varchar(256)]</text>
<polygon fill="none" stroke="#000000" points="249,-565.5 249,-595.5 548,-595.5 548,-565.5 249,-565.5"/>
<text text-anchor="start" x="256" y="-576.9" font-family="Arial" font-size="14.00" fill="#000000">externalArticleNumber    </text>
<text text-anchor="start" x="428.6522" y="-576.9" font-family="Arial" font-size="14.00" fill="#666666">[varchar(256)]</text>
<polygon fill="none" stroke="#000000" points="249,-535.5 249,-565.5 548,-565.5 548,-535.5 249,-535.5"/>
<text text-anchor="start" x="256" y="-546.9" font-family="Arial" font-size="14.00" fill="#000000">day1    </text>
<text text-anchor="start" x="320.5526" y="-546.9" font-family="Arial" font-size="14.00" fill="#666666">[interval]</text>
<polygon fill="none" stroke="#000000" points="249,-505.5 249,-535.5 548,-535.5 548,-505.5 249,-505.5"/>
<text text-anchor="start" x="256" y="-516.9" font-family="Arial" font-size="14.00" fill="#000000">day2    </text>
<text text-anchor="start" x="320.5526" y="-516.9" font-family="Arial" font-size="14.00" fill="#666666">[interval]</text>
<polygon fill="none" stroke="#000000" points="249,-475.5 249,-505.5 548,-505.5 548,-475.5 249,-475.5"/>
<text text-anchor="start" x="256" y="-486.9" font-family="Arial" font-size="14.00" fill="#000000">day3    </text>
<text text-anchor="start" x="320.5526" y="-486.9" font-family="Arial" font-size="14.00" fill="#666666">[interval]</text>
<polygon fill="none" stroke="#000000" points="249,-445.5 249,-475.5 548,-475.5 548,-445.5 249,-445.5"/>
<text text-anchor="start" x="256" y="-456.9" font-family="Arial" font-size="14.00" fill="#000000">day4    </text>
<text text-anchor="start" x="320.5526" y="-456.9" font-family="Arial" font-size="14.00" fill="#666666">[interval]</text>
<polygon fill="none" stroke="#000000" points="249,-415.5 249,-445.5 548,-445.5 548,-415.5 249,-415.5"/>
<text text-anchor="start" x="256" y="-426.9" font-family="Arial" font-size="14.00" fill="#000000">day5    </text>
<text text-anchor="start" x="320.5526" y="-426.9" font-family="Arial" font-size="14.00" fill="#666666">[interval]</text>
<polygon fill="none" stroke="#000000" points="249,-385.5 249,-415.5 548,-415.5 548,-385.5 249,-385.5"/>
<text text-anchor="start" x="256" y="-396.9" font-family="Arial" font-size="14.00" fill="#000000">createdAt    </text>
<text text-anchor="start" x="350.1136" y="-396.9" font-family="Arial" font-size="14.00" fill="#666666">[timestamp without time zone]</text>
<polygon fill="none" stroke="#000000" points="249,-355.5 249,-385.5 548,-385.5 548,-355.5 249,-355.5"/>
<text text-anchor="start" x="256" y="-366.9" font-family="Arial" font-size="14.00" fill="#000000">updatedAt    </text>
<text text-anchor="start" x="354.0182" y="-366.9" font-family="Arial" font-size="14.00" fill="#666666">[timestamp without time zone]</text>
</g>
<!-- public.localServices&#45;&gt;public.serviceCategories -->
<g id="edge1" class="edge">
<title>public.localServices:serviceCategoryID&#45;&gt;public.serviceCategories:serviceCategoryID</title>
<path fill="none" stroke="#000000" d="M557.6056,-966.6705C618.2454,-915.5551 589.368,-369.0105 548,-313 515.6774,-269.2365 463.3226,-320.7635 431,-277 405.5196,-242.5006 388.1111,-180.5 431,-180.5"/>
<polygon fill="#000000" stroke="#000000" points="557.289,-966.7967 546.3335,-966.3199 552.6445,-968.6483 548,-970.5 548,-970.5 548,-970.5 552.6445,-968.6483 549.6665,-974.6801 557.289,-966.7967 557.289,-966.7967"/>
<text text-anchor="start" x="6.6805" y="-980.5" font-family="Arial" font-size="10.00" fill="#000000">FOREIGN KEY (&quot;serviceCategoryID&quot;) REFERENCES &quot;serviceCategories&quot;(&quot;serviceCategoryID&quot;) ON DELETE CASCADE</text>
</g>
<!-- public.services -->
<g id="node3" class="node">
<title>public.services</title>
<polygon fill="#efefef" stroke="transparent" points="652,-1000.5 652,-1035.5 949,-1035.5 949,-1000.5 652,-1000.5"/>
<polygon fill="none" stroke="#000000" points="652,-1000.5 652,-1035.5 949,-1035.5 949,-1000.5 652,-1000.5"/>
<text text-anchor="start" x="677.712" y="-1013.3" font-family="Arial Bold" font-size="18.00" fill="#000000">public.services</text>
<text text-anchor="start" x="795.72" y="-1013.3" font-family="Arial" font-size="14.00" fill="#000000">    </text>
<text text-anchor="start" x="829.9248" y="-1013.3" font-family="Arial" font-size="14.00" fill="#666666">[BASE TABLE]</text>
<polygon fill="none" stroke="#000000" points="652,-970.5 652,-1000.5 949,-1000.5 949,-970.5 652,-970.5"/>
<text text-anchor="start" x="659" y="-981.9" font-family="Arial" font-size="14.00" fill="#000000">serviceID    </text>
<text text-anchor="start" x="751.5344" y="-981.9" font-family="Arial" font-size="14.00" fill="#666666">[integer]</text>
<polygon fill="none" stroke="#000000" points="652,-940.5 652,-970.5 949,-970.5 949,-940.5 652,-940.5"/>
<text text-anchor="start" x="659" y="-951.9" font-family="Arial" font-size="14.00" fill="#000000">name    </text>
<text text-anchor="start" x="728.2132" y="-951.9" font-family="Arial" font-size="14.00" fill="#666666">[varchar(256)]</text>
<polygon fill="none" stroke="#000000" points="652,-910.5 652,-940.5 949,-940.5 949,-910.5 652,-910.5"/>
<text text-anchor="start" x="659" y="-921.9" font-family="Arial" font-size="14.00" fill="#000000">serviceCategoryID    </text>
<text text-anchor="start" x="808.3226" y="-921.9" font-family="Arial" font-size="14.00" fill="#666666">[integer]</text>
<polygon fill="none" stroke="#000000" points="652,-880.5 652,-910.5 949,-910.5 949,-880.5 652,-880.5"/>
<text text-anchor="start" x="659" y="-891.9" font-family="Arial" font-size="14.00" fill="#000000">currency    </text>
<text text-anchor="start" x="746.8738" y="-891.9" font-family="Arial" font-size="14.00" fill="#666666">[varchar(5)]</text>
<polygon fill="none" stroke="#000000" points="652,-850.5 652,-880.5 949,-880.5 949,-850.5 652,-850.5"/>
<text text-anchor="start" x="659" y="-861.9" font-family="Arial" font-size="14.00" fill="#000000">cost    </text>
<text text-anchor="start" x="718.878" y="-861.9" font-family="Arial" font-size="14.00" fill="#666666">[real]</text>
<polygon fill="none" stroke="#000000" points="652,-820.5 652,-850.5 949,-850.5 949,-820.5 652,-820.5"/>
<text text-anchor="start" x="659" y="-831.9" font-family="Arial" font-size="14.00" fill="#000000">includeInAutomaticSms    </text>
<text text-anchor="start" x="839.4516" y="-831.9" font-family="Arial" font-size="14.00" fill="#666666">[boolean]</text>
<polygon fill="none" stroke="#000000" points="652,-790.5 652,-820.5 949,-820.5 949,-790.5 652,-790.5"/>
<text text-anchor="start" x="659" y="-801.9" font-family="Arial" font-size="14.00" fill="#000000">hidden    </text>
<text text-anchor="start" x="735.2244" y="-801.9" font-family="Arial" font-size="14.00" fill="#666666">[boolean]</text>
<polygon fill="none" stroke="#000000" points="652,-760.5 652,-790.5 949,-790.5 949,-760.5 652,-760.5"/>
<text text-anchor="start" x="659" y="-771.9" font-family="Arial" font-size="14.00" fill="#000000">callInterval    </text>
<text text-anchor="start" x="760.0968" y="-771.9" font-family="Arial" font-size="14.00" fill="#666666">[integer]</text>
<polygon fill="none" stroke="#000000" points="652,-730.5 652,-760.5 949,-760.5 949,-730.5 652,-730.5"/>
<text text-anchor="start" x="659" y="-741.9" font-family="Arial" font-size="14.00" fill="#000000">colorForService    </text>
<text text-anchor="start" x="791.202" y="-741.9" font-family="Arial" font-size="14.00" fill="#666666">[varchar]</text>
<polygon fill="none" stroke="#000000" points="652,-700.5 652,-730.5 949,-730.5 949,-700.5 652,-700.5"/>
<text text-anchor="start" x="659" y="-711.9" font-family="Arial" font-size="14.00" fill="#000000">warrantyCard    </text>
<text text-anchor="start" x="777.2034" y="-711.9" font-family="Arial" font-size="14.00" fill="#666666">[boolean]</text>
<polygon fill="none" stroke="#000000" points="652,-670.5 652,-700.5 949,-700.5 949,-670.5 652,-670.5"/>
<text text-anchor="start" x="659" y="-681.9" font-family="Arial" font-size="14.00" fill="#000000">itemNumber    </text>
<text text-anchor="start" x="769.4208" y="-681.9" font-family="Arial" font-size="14.00" fill="#666666">[varchar(256)]</text>
<polygon fill="none" stroke="#000000" points="652,-640.5 652,-670.5 949,-670.5 949,-640.5 652,-640.5"/>
<text text-anchor="start" x="659" y="-651.9" font-family="Arial" font-size="14.00" fill="#000000">award    </text>
<text text-anchor="start" x="731.3198" y="-651.9" font-family="Arial" font-size="14.00" fill="#666666">[real]</text>
<polygon fill="none" stroke="#000000" points="652,-610.5 652,-640.5 949,-640.5 949,-610.5 652,-610.5"/>
<text text-anchor="start" x="659" y="-621.9" font-family="Arial" font-size="14.00" fill="#000000">suppliersArticleNumber    </text>
<text text-anchor="start" x="837.8682" y="-621.9" font-family="Arial" font-size="14.00" fill="#666666">[varchar(256)]</text>
<polygon fill="none" stroke="#000000" points="652,-580.5 652,-610.5 949,-610.5 949,-580.5 652,-580.5"/>
<text text-anchor="start" x="659" y="-591.9" font-family="Arial" font-size="14.00" fill="#000000">externalArticleNumber    </text>
<text text-anchor="start" x="831.6522" y="-591.9" font-family="Arial" font-size="14.00" fill="#666666">[varchar(256)]</text>
<polygon fill="none" stroke="#000000" points="652,-550.5 652,-580.5 949,-580.5 949,-550.5 652,-550.5"/>
<text text-anchor="start" x="659" y="-561.9" font-family="Arial" font-size="14.00" fill="#000000">day1    </text>
<text text-anchor="start" x="723.5526" y="-561.9" font-family="Arial" font-size="14.00" fill="#666666">[interval]</text>
<polygon fill="none" stroke="#000000" points="652,-520.5 652,-550.5 949,-550.5 949,-520.5 652,-520.5"/>
<text text-anchor="start" x="659" y="-531.9" font-family="Arial" font-size="14.00" fill="#000000">day2    </text>
<text text-anchor="start" x="723.5526" y="-531.9" font-family="Arial" font-size="14.00" fill="#666666">[interval]</text>
<polygon fill="none" stroke="#000000" points="652,-490.5 652,-520.5 949,-520.5 949,-490.5 652,-490.5"/>
<text text-anchor="start" x="659" y="-501.9" font-family="Arial" font-size="14.00" fill="#000000">day3    </text>
<text text-anchor="start" x="723.5526" y="-501.9" font-family="Arial" font-size="14.00" fill="#666666">[interval]</text>
<polygon fill="none" stroke="#000000" points="652,-460.5 652,-490.5 949,-490.5 949,-460.5 652,-460.5"/>
<text text-anchor="start" x="659" y="-471.9" font-family="Arial" font-size="14.00" fill="#000000">day4    </text>
<text text-anchor="start" x="723.5526" y="-471.9" font-family="Arial" font-size="14.00" fill="#666666">[interval]</text>
<polygon fill="none" stroke="#000000" points="652,-430.5 652,-460.5 949,-460.5 949,-430.5 652,-430.5"/>
<text text-anchor="start" x="659" y="-441.9" font-family="Arial" font-size="14.00" fill="#000000">day5    </text>
<text text-anchor="start" x="723.5526" y="-441.9" font-family="Arial" font-size="14.00" fill="#666666">[interval]</text>
<polygon fill="none" stroke="#000000" points="652,-400.5 652,-430.5 949,-430.5 949,-400.5 652,-400.5"/>
<text text-anchor="start" x="659" y="-411.9" font-family="Arial" font-size="14.00" fill="#000000">createdAt    </text>
<text text-anchor="start" x="753.1136" y="-411.9" font-family="Arial" font-size="14.00" fill="#666666">[timestamp without time zone]</text>
<polygon fill="none" stroke="#000000" points="652,-370.5 652,-400.5 949,-400.5 949,-370.5 652,-370.5"/>
<text text-anchor="start" x="658.9208" y="-381.9" font-family="Arial" font-size="14.00" fill="#000000">updatedAt    </text>
<text text-anchor="start" x="756.939" y="-381.9" font-family="Arial" font-size="14.00" fill="#666666">[timestamp without time zone]</text>
</g>
<!-- public.services&#45;&gt;public.serviceCategories -->
<g id="edge2" class="edge">
<title>public.services:serviceCategoryID&#45;&gt;public.serviceCategories:serviceCategoryID</title>
<path fill="none" stroke="#000000" d="M642.6207,-921.4424C588.6842,-871.7167 617.5551,-380.7709 652,-328 682.7831,-280.8391 737.2169,-324.1609 768,-277 791.4427,-241.0849 810.8889,-180.5 768,-180.5"/>
<polygon fill="#000000" stroke="#000000" points="642.822,-921.5294 650.2132,-929.6301 647.411,-923.5147 652,-925.5 652,-925.5 652,-925.5 647.411,-923.5147 653.7868,-921.3699 642.822,-921.5294 642.822,-921.5294"/>
<text text-anchor="start" x="658.6805" y="-935.5" font-family="Arial" font-size="10.00" fill="#000000">FOREIGN KEY (&quot;serviceCategoryID&quot;) REFERENCES &quot;serviceCategories&quot;(&quot;serviceCategoryID&quot;) ON DELETE CASCADE</text>
</g>
</g>
</svg>
