<?xml version="1.0" encoding="UTF-8" standalone="no"?>
<!DOCTYPE svg PUBLIC "-//W3C//DTD SVG 1.1//EN"
 "http://www.w3.org/Graphics/SVG/1.1/DTD/svg11.dtd">
<!-- Generated by graphviz version 2.40.1 (20161225.0304)
 -->
<!-- Title: public.drivers Pages: 1 -->
<svg width="1323pt" height="2159pt"
 viewBox="0.00 0.00 1322.50 2159.00" xmlns="http://www.w3.org/2000/svg" xmlns:xlink="http://www.w3.org/1999/xlink">
<g id="graph0" class="graph" transform="scale(1 1) rotate(0) translate(4 2155)">
<title>public.drivers</title>
<polygon fill="#ffffff" stroke="transparent" points="-4,4 -4,-2155 1318.5,-2155 1318.5,4 -4,4"/>
<!-- public.drivers -->
<g id="node1" class="node">
<title>public.drivers</title>
<polygon fill="#efefef" stroke="transparent" points="570,-1192.5 570,-1227.5 836,-1227.5 836,-1192.5 570,-1192.5"/>
<polygon fill="none" stroke="#000000" points="570,-1192.5 570,-1227.5 836,-1227.5 836,-1192.5 570,-1192.5"/>
<text text-anchor="start" x="586.2159" y="-1205.3" font-family="Arial Bold" font-size="18.00" fill="#000000">public.drivers</text>
<text text-anchor="start" x="692.2161" y="-1205.3" font-family="Arial" font-size="14.00" fill="#000000">    </text>
<text text-anchor="start" x="726.4209" y="-1205.3" font-family="Arial" font-size="14.00" fill="#666666">[BASE TABLE]</text>
<polygon fill="none" stroke="#000000" points="570,-1162.5 570,-1192.5 836,-1192.5 836,-1162.5 570,-1162.5"/>
<text text-anchor="start" x="577" y="-1173.9" font-family="Arial" font-size="14.00" fill="#000000">driverID </text>
<text text-anchor="start" x="629.8808" y="-1173.9" font-family="Arial" font-size="14.00" fill="#666666">[integer]</text>
<polygon fill="none" stroke="#000000" points="570,-1132.5 570,-1162.5 836,-1162.5 836,-1132.5 570,-1132.5"/>
<text text-anchor="start" x="577" y="-1143.9" font-family="Arial" font-size="14.00" fill="#000000">customerOrgNumber </text>
<text text-anchor="start" x="711.5596" y="-1143.9" font-family="Arial" font-size="14.00" fill="#666666">[varchar(11)]</text>
<polygon fill="none" stroke="#000000" points="570,-1102.5 570,-1132.5 836,-1132.5 836,-1102.5 570,-1102.5"/>
<text text-anchor="start" x="577" y="-1113.9" font-family="Arial" font-size="14.00" fill="#000000">driverExternalNumber </text>
<text text-anchor="start" x="717.0014" y="-1113.9" font-family="Arial" font-size="14.00" fill="#666666">[varchar(256)]</text>
<polygon fill="none" stroke="#000000" points="570,-1072.5 570,-1102.5 836,-1102.5 836,-1072.5 570,-1072.5"/>
<text text-anchor="start" x="577" y="-1083.9" font-family="Arial" font-size="14.00" fill="#000000">companyReference </text>
<text text-anchor="start" x="702.2524" y="-1083.9" font-family="Arial" font-size="14.00" fill="#666666">[varchar(255)]</text>
<polygon fill="none" stroke="#000000" points="570,-1042.5 570,-1072.5 836,-1072.5 836,-1042.5 570,-1042.5"/>
<text text-anchor="start" x="577" y="-1053.9" font-family="Arial" font-size="14.00" fill="#000000">driverGDPRAccept </text>
<text text-anchor="start" x="699.1164" y="-1053.9" font-family="Arial" font-size="14.00" fill="#666666">[boolean]</text>
<polygon fill="none" stroke="#000000" points="570,-1012.5 570,-1042.5 836,-1042.5 836,-1012.5 570,-1012.5"/>
<text text-anchor="start" x="577" y="-1023.9" font-family="Arial" font-size="14.00" fill="#000000">driverISWarrantyDriver </text>
<text text-anchor="start" x="723.202" y="-1023.9" font-family="Arial" font-size="14.00" fill="#666666">[boolean]</text>
<polygon fill="none" stroke="#000000" points="570,-982.5 570,-1012.5 836,-1012.5 836,-982.5 570,-982.5"/>
<text text-anchor="start" x="577" y="-993.9" font-family="Arial" font-size="14.00" fill="#000000">driverAcceptsMarketing </text>
<text text-anchor="start" x="727.1248" y="-993.9" font-family="Arial" font-size="14.00" fill="#666666">[boolean]</text>
<polygon fill="none" stroke="#000000" points="570,-952.5 570,-982.5 836,-982.5 836,-952.5 570,-952.5"/>
<text text-anchor="start" x="577" y="-963.9" font-family="Arial" font-size="14.00" fill="#000000">driverFirstName </text>
<text text-anchor="start" x="680.4264" y="-963.9" font-family="Arial" font-size="14.00" fill="#666666">[varchar(128)]</text>
<polygon fill="none" stroke="#000000" points="570,-922.5 570,-952.5 836,-952.5 836,-922.5 570,-922.5"/>
<text text-anchor="start" x="577" y="-933.9" font-family="Arial" font-size="14.00" fill="#000000">driverLastName </text>
<text text-anchor="start" x="679.6718" y="-933.9" font-family="Arial" font-size="14.00" fill="#666666">[varchar(128)]</text>
<polygon fill="none" stroke="#000000" points="570,-892.5 570,-922.5 836,-922.5 836,-892.5 570,-892.5"/>
<text text-anchor="start" x="577" y="-903.9" font-family="Arial" font-size="14.00" fill="#000000">driverEmail </text>
<text text-anchor="start" x="650.8766" y="-903.9" font-family="Arial" font-size="14.00" fill="#666666">[varchar(256)]</text>
<polygon fill="none" stroke="#000000" points="570,-862.5 570,-892.5 836,-892.5 836,-862.5 570,-862.5"/>
<text text-anchor="start" x="577" y="-873.9" font-family="Arial" font-size="14.00" fill="#000000">driverPhoneNumber </text>
<text text-anchor="start" x="706.1262" y="-873.9" font-family="Arial" font-size="14.00" fill="#666666">[varchar(32)]</text>
<polygon fill="none" stroke="#000000" points="570,-832.5 570,-862.5 836,-862.5 836,-832.5 570,-832.5"/>
<text text-anchor="start" x="577" y="-843.9" font-family="Arial" font-size="14.00" fill="#000000">driverAddress </text>
<text text-anchor="start" x="667.2286" y="-843.9" font-family="Arial" font-size="14.00" fill="#666666">[varchar(256)]</text>
<polygon fill="none" stroke="#000000" points="570,-802.5 570,-832.5 836,-832.5 836,-802.5 570,-802.5"/>
<text text-anchor="start" x="577" y="-813.9" font-family="Arial" font-size="14.00" fill="#000000">driverZipCode </text>
<text text-anchor="start" x="668.7798" y="-813.9" font-family="Arial" font-size="14.00" fill="#666666">[varchar(16)]</text>
<polygon fill="none" stroke="#000000" points="570,-772.5 570,-802.5 836,-802.5 836,-772.5 570,-772.5"/>
<text text-anchor="start" x="577" y="-783.9" font-family="Arial" font-size="14.00" fill="#000000">driverAddressCity </text>
<text text-anchor="start" x="691.3324" y="-783.9" font-family="Arial" font-size="14.00" fill="#666666">[varchar(256)]</text>
<polygon fill="none" stroke="#000000" points="570,-742.5 570,-772.5 836,-772.5 836,-742.5 570,-742.5"/>
<text text-anchor="start" x="577" y="-753.9" font-family="Arial" font-size="14.00" fill="#000000">driverCountry </text>
<text text-anchor="start" x="664.8892" y="-753.9" font-family="Arial" font-size="14.00" fill="#666666">[varchar(256)]</text>
<polygon fill="none" stroke="#000000" points="570,-712.5 570,-742.5 836,-742.5 836,-712.5 570,-712.5"/>
<text text-anchor="start" x="577" y="-723.9" font-family="Arial" font-size="14.00" fill="#000000">driverHasCard </text>
<text text-anchor="start" x="671.1052" y="-723.9" font-family="Arial" font-size="14.00" fill="#666666">[boolean]</text>
<polygon fill="none" stroke="#000000" points="570,-682.5 570,-712.5 836,-712.5 836,-682.5 570,-682.5"/>
<text text-anchor="start" x="577" y="-693.9" font-family="Arial" font-size="14.00" fill="#000000">driverCardValidTo </text>
<text text-anchor="start" x="693.6662" y="-693.9" font-family="Arial" font-size="14.00" fill="#666666">[date]</text>
<polygon fill="none" stroke="#000000" points="570,-652.5 570,-682.5 836,-682.5 836,-652.5 570,-652.5"/>
<text text-anchor="start" x="577" y="-663.9" font-family="Arial" font-size="14.00" fill="#000000">driverCardNumber </text>
<text text-anchor="start" x="695.9916" y="-663.9" font-family="Arial" font-size="14.00" fill="#666666">[varchar(256)]</text>
<polygon fill="none" stroke="#000000" points="570,-622.5 570,-652.5 836,-652.5 836,-622.5 570,-622.5"/>
<text text-anchor="start" x="577" y="-633.9" font-family="Arial" font-size="14.00" fill="#000000">driverKeyNumber </text>
<text text-anchor="start" x="689.7784" y="-633.9" font-family="Arial" font-size="14.00" fill="#666666">[varchar(256)]</text>
<polygon fill="none" stroke="#000000" points="570,-592.5 570,-622.5 836,-622.5 836,-592.5 570,-592.5"/>
<text text-anchor="start" x="577" y="-603.9" font-family="Arial" font-size="14.00" fill="#000000">driverNotesShared </text>
<text text-anchor="start" x="697.5736" y="-603.9" font-family="Arial" font-size="14.00" fill="#666666">[varchar]</text>
<polygon fill="none" stroke="#000000" points="570,-562.5 570,-592.5 836,-592.5 836,-562.5 570,-562.5"/>
<text text-anchor="start" x="577" y="-573.9" font-family="Arial" font-size="14.00" fill="#000000">driverNotes </text>
<text text-anchor="start" x="652.446" y="-573.9" font-family="Arial" font-size="14.00" fill="#666666">[varchar]</text>
<polygon fill="none" stroke="#000000" points="570,-532.5 570,-562.5 836,-562.5 836,-532.5 570,-532.5"/>
<text text-anchor="start" x="577" y="-543.9" font-family="Arial" font-size="14.00" fill="#000000">createdAt </text>
<text text-anchor="start" x="640.7994" y="-543.9" font-family="Arial" font-size="14.00" fill="#666666">[timestamp without time zone]</text>
<polygon fill="none" stroke="#000000" points="570,-502.5 570,-532.5 836,-532.5 836,-502.5 570,-502.5"/>
<text text-anchor="start" x="576.5779" y="-513.9" font-family="Arial" font-size="14.00" fill="#000000">updatedAt </text>
<text text-anchor="start" x="644.2819" y="-513.9" font-family="Arial" font-size="14.00" fill="#666666">[timestamp without time zone]</text>
<polygon fill="none" stroke="#000000" stroke-width="3" points="568.5,-501.5 568.5,-1229.5 837.5,-1229.5 837.5,-501.5 568.5,-501.5"/>
</g>
<!-- public.companycustomers -->
<g id="node5" class="node">
<title>public.companycustomers</title>
<polygon fill="#efefef" stroke="transparent" points="528,-342.5 528,-377.5 877,-377.5 877,-342.5 528,-342.5"/>
<polygon fill="none" stroke="#000000" points="528,-342.5 528,-377.5 877,-377.5 877,-342.5 528,-342.5"/>
<text text-anchor="start" x="534.7003" y="-355.3" font-family="Arial Bold" font-size="18.00" fill="#000000">public.companycustomers</text>
<text text-anchor="start" x="742.7317" y="-355.3" font-family="Arial" font-size="14.00" fill="#000000">    </text>
<text text-anchor="start" x="776.9365" y="-355.3" font-family="Arial" font-size="14.00" fill="#666666">[BASE TABLE]</text>
<polygon fill="none" stroke="#000000" points="528,-312.5 528,-342.5 877,-342.5 877,-312.5 528,-312.5"/>
<text text-anchor="start" x="535" y="-323.9" font-family="Arial" font-size="14.00" fill="#000000">customerOrgNumber    </text>
<text text-anchor="start" x="699.8738" y="-323.9" font-family="Arial" font-size="14.00" fill="#666666">[varchar(11)]</text>
<polygon fill="none" stroke="#000000" points="528,-282.5 528,-312.5 877,-312.5 877,-282.5 528,-282.5"/>
<text text-anchor="start" x="535" y="-293.9" font-family="Arial" font-size="14.00" fill="#000000">customerCompanyName    </text>
<text text-anchor="start" x="723.9944" y="-293.9" font-family="Arial" font-size="14.00" fill="#666666">[varchar(255)]</text>
<polygon fill="none" stroke="#000000" points="528,-252.5 528,-282.5 877,-282.5 877,-252.5 528,-252.5"/>
<text text-anchor="start" x="535" y="-263.9" font-family="Arial" font-size="14.00" fill="#000000">companyAddress    </text>
<text text-anchor="start" x="677.3408" y="-263.9" font-family="Arial" font-size="14.00" fill="#666666">[varchar(256)]</text>
<polygon fill="none" stroke="#000000" points="528,-222.5 528,-252.5 877,-252.5 877,-222.5 528,-222.5"/>
<text text-anchor="start" x="535" y="-233.9" font-family="Arial" font-size="14.00" fill="#000000">companyZipCode    </text>
<text text-anchor="start" x="678.892" y="-233.9" font-family="Arial" font-size="14.00" fill="#666666">[varchar(16)]</text>
<polygon fill="none" stroke="#000000" points="528,-192.5 528,-222.5 877,-222.5 877,-192.5 528,-192.5"/>
<text text-anchor="start" x="535" y="-203.9" font-family="Arial" font-size="14.00" fill="#000000">companyEmail    </text>
<text text-anchor="start" x="660.9888" y="-203.9" font-family="Arial" font-size="14.00" fill="#666666">[varchar(256)]</text>
<polygon fill="none" stroke="#000000" points="528,-162.5 528,-192.5 877,-192.5 877,-162.5 528,-162.5"/>
<text text-anchor="start" x="535" y="-173.9" font-family="Arial" font-size="14.00" fill="#000000">companyPhone    </text>
<text text-anchor="start" x="666.4628" y="-173.9" font-family="Arial" font-size="14.00" fill="#666666">[varchar(16)]</text>
<polygon fill="none" stroke="#000000" points="528,-132.5 528,-162.5 877,-162.5 877,-132.5 528,-132.5"/>
<text text-anchor="start" x="535" y="-143.9" font-family="Arial" font-size="14.00" fill="#000000">companyAddressCity    </text>
<text text-anchor="start" x="701.4446" y="-143.9" font-family="Arial" font-size="14.00" fill="#666666">[varchar(256)]</text>
<polygon fill="none" stroke="#000000" points="528,-102.5 528,-132.5 877,-132.5 877,-102.5 528,-102.5"/>
<text text-anchor="start" x="535" y="-113.9" font-family="Arial" font-size="14.00" fill="#000000">companyCountry    </text>
<text text-anchor="start" x="675.0014" y="-113.9" font-family="Arial" font-size="14.00" fill="#666666">[varchar(256)]</text>
<polygon fill="none" stroke="#000000" points="528,-72.5 528,-102.5 877,-102.5 877,-72.5 528,-72.5"/>
<text text-anchor="start" x="535" y="-83.9" font-family="Arial" font-size="14.00" fill="#000000">createdAt    </text>
<text text-anchor="start" x="629.1136" y="-83.9" font-family="Arial" font-size="14.00" fill="#666666">[timestamp without time zone]</text>
<polygon fill="none" stroke="#000000" points="528,-42.5 528,-72.5 877,-72.5 877,-42.5 528,-42.5"/>
<text text-anchor="start" x="535" y="-53.9" font-family="Arial" font-size="14.00" fill="#000000">updatedAt    </text>
<text text-anchor="start" x="633.0182" y="-53.9" font-family="Arial" font-size="14.00" fill="#666666">[timestamp without time zone]</text>
</g>
<!-- public.drivers&#45;&gt;public.companycustomers -->
<g id="edge4" class="edge">
<title>public.drivers:customerOrgNumber&#45;&gt;public.companycustomers:customerOrgNumber</title>
<path fill="none" stroke="#000000" d="M559.8151,-1147.3265C265.4354,-1137.1701 368.3153,-683.7169 570,-457 661.31,-354.357 785.69,-523.643 877,-421 904.6201,-389.9518 918.5556,-327.5 877,-327.5"/>
<polygon fill="#000000" stroke="#000000" points="560.0015,-1147.3296 569.9233,-1151.9993 565.0007,-1147.4148 570,-1147.5 570,-1147.5 570,-1147.5 565.0007,-1147.4148 570.0767,-1143.0007 560.0015,-1147.3296 560.0015,-1147.3296"/>
<text text-anchor="start" x="6.7855" y="-1157.5" font-family="Arial" font-size="10.00" fill="#000000">FOREIGN KEY (&quot;customerOrgNumber&quot;) REFERENCES companycustomers(&quot;customerOrgNumber&quot;) ON DELETE CASCADE</text>
</g>
<!-- public.driverCars -->
<g id="node2" class="node">
<title>public.driverCars</title>
<polygon fill="#efefef" stroke="transparent" points="123,-1877.5 123,-1912.5 432,-1912.5 432,-1877.5 123,-1877.5"/>
<polygon fill="none" stroke="#000000" points="123,-1877.5 123,-1912.5 432,-1912.5 432,-1877.5 123,-1877.5"/>
<text text-anchor="start" x="146.2196" y="-1890.3" font-family="Arial Bold" font-size="18.00" fill="#000000">public.driverCars</text>
<text text-anchor="start" x="281.2124" y="-1890.3" font-family="Arial" font-size="14.00" fill="#000000">    </text>
<text text-anchor="start" x="315.4172" y="-1890.3" font-family="Arial" font-size="14.00" fill="#666666">[BASE TABLE]</text>
<polygon fill="none" stroke="#000000" points="123,-1847.5 123,-1877.5 432,-1877.5 432,-1847.5 123,-1847.5"/>
<text text-anchor="start" x="130" y="-1858.9" font-family="Arial" font-size="14.00" fill="#000000">driverCarID    </text>
<text text-anchor="start" x="235.7448" y="-1858.9" font-family="Arial" font-size="14.00" fill="#666666">[integer]</text>
<polygon fill="none" stroke="#000000" points="123,-1817.5 123,-1847.5 432,-1847.5 432,-1817.5 123,-1817.5"/>
<text text-anchor="start" x="130" y="-1828.9" font-family="Arial" font-size="14.00" fill="#000000">driverID    </text>
<text text-anchor="start" x="213.195" y="-1828.9" font-family="Arial" font-size="14.00" fill="#666666">[integer]</text>
<polygon fill="none" stroke="#000000" points="123,-1787.5 123,-1817.5 432,-1817.5 432,-1787.5 123,-1787.5"/>
<text text-anchor="start" x="129.7328" y="-1798.9" font-family="Arial" font-size="14.00" fill="#000000">driverCarRegistrationNumber    </text>
<text text-anchor="start" x="345.9306" y="-1798.9" font-family="Arial" font-size="14.00" fill="#666666">[varchar(11)]</text>
<polygon fill="none" stroke="#000000" points="123,-1757.5 123,-1787.5 432,-1787.5 432,-1757.5 123,-1757.5"/>
<text text-anchor="start" x="130" y="-1768.9" font-family="Arial" font-size="14.00" fill="#000000">driverCarBrand    </text>
<text text-anchor="start" x="259.0926" y="-1768.9" font-family="Arial" font-size="14.00" fill="#666666">[varchar(128)]</text>
<polygon fill="none" stroke="#000000" points="123,-1727.5 123,-1757.5 432,-1757.5 432,-1727.5 123,-1727.5"/>
<text text-anchor="start" x="130" y="-1738.9" font-family="Arial" font-size="14.00" fill="#000000">driverCarModel    </text>
<text text-anchor="start" x="259.8626" y="-1738.9" font-family="Arial" font-size="14.00" fill="#666666">[varchar(128)]</text>
<polygon fill="none" stroke="#000000" points="123,-1697.5 123,-1727.5 432,-1727.5 432,-1697.5 123,-1697.5"/>
<text text-anchor="start" x="130" y="-1708.9" font-family="Arial" font-size="14.00" fill="#000000">driverCarColor    </text>
<text text-anchor="start" x="255.1866" y="-1708.9" font-family="Arial" font-size="14.00" fill="#666666">[varchar(64)]</text>
<polygon fill="none" stroke="#000000" points="123,-1667.5 123,-1697.5 432,-1697.5 432,-1667.5 123,-1667.5"/>
<text text-anchor="start" x="130" y="-1678.9" font-family="Arial" font-size="14.00" fill="#000000">driverCarYear    </text>
<text text-anchor="start" x="251.31" y="-1678.9" font-family="Arial" font-size="14.00" fill="#666666">[integer]</text>
<polygon fill="none" stroke="#000000" points="123,-1637.5 123,-1667.5 432,-1667.5 432,-1637.5 123,-1637.5"/>
<text text-anchor="start" x="130" y="-1648.9" font-family="Arial" font-size="14.00" fill="#000000">driverCarChassiNumber    </text>
<text text-anchor="start" x="314.3016" y="-1648.9" font-family="Arial" font-size="14.00" fill="#666666">[varchar(24)]</text>
<polygon fill="none" stroke="#000000" points="123,-1607.5 123,-1637.5 432,-1637.5 432,-1607.5 123,-1607.5"/>
<text text-anchor="start" x="130" y="-1618.9" font-family="Arial" font-size="14.00" fill="#000000">driverCarNotes    </text>
<text text-anchor="start" x="258.31" y="-1618.9" font-family="Arial" font-size="14.00" fill="#666666">[varchar]</text>
<polygon fill="none" stroke="#000000" points="123,-1577.5 123,-1607.5 432,-1607.5 432,-1577.5 123,-1577.5"/>
<text text-anchor="start" x="130" y="-1588.9" font-family="Arial" font-size="14.00" fill="#000000">createdAt    </text>
<text text-anchor="start" x="224.1136" y="-1588.9" font-family="Arial" font-size="14.00" fill="#666666">[timestamp without time zone]</text>
<polygon fill="none" stroke="#000000" points="123,-1547.5 123,-1577.5 432,-1577.5 432,-1547.5 123,-1547.5"/>
<text text-anchor="start" x="130" y="-1558.9" font-family="Arial" font-size="14.00" fill="#000000">updatedAt    </text>
<text text-anchor="start" x="228.0182" y="-1558.9" font-family="Arial" font-size="14.00" fill="#666666">[timestamp without time zone]</text>
</g>
<!-- public.driverCars&#45;&gt;public.drivers -->
<g id="edge1" class="edge">
<title>public.driverCars:driverID&#45;&gt;public.drivers:driverID</title>
<path fill="none" stroke="#000000" d="M441.1286,-1828.1609C487.58,-1780.8699 465.7778,-1361.9337 484,-1310 507.2441,-1243.7538 499.7943,-1177.5 570,-1177.5"/>
<polygon fill="#000000" stroke="#000000" points="441.0316,-1828.207 430.0681,-1828.4358 436.5158,-1830.3535 432,-1832.5 432,-1832.5 432,-1832.5 436.5158,-1830.3535 433.9319,-1836.5642 441.0316,-1828.207 441.0316,-1828.207"/>
<text text-anchor="start" x="42.4695" y="-1842.5" font-family="Arial" font-size="10.00" fill="#000000">FOREIGN KEY (&quot;driverID&quot;) REFERENCES drivers(&quot;driverID&quot;) ON DELETE CASCADE</text>
</g>
<!-- public.orders -->
<g id="node3" class="node">
<title>public.orders</title>
<polygon fill="#efefef" stroke="transparent" points="536,-1922.5 536,-1957.5 870,-1957.5 870,-1922.5 536,-1922.5"/>
<polygon fill="none" stroke="#000000" points="536,-1922.5 536,-1957.5 870,-1957.5 870,-1922.5 536,-1922.5"/>
<text text-anchor="start" x="587.7099" y="-1935.3" font-family="Arial Bold" font-size="18.00" fill="#000000">public.orders</text>
<text text-anchor="start" x="690.7221" y="-1935.3" font-family="Arial" font-size="14.00" fill="#000000">    </text>
<text text-anchor="start" x="724.9269" y="-1935.3" font-family="Arial" font-size="14.00" fill="#666666">[BASE TABLE]</text>
<polygon fill="none" stroke="#000000" points="536,-1892.5 536,-1922.5 870,-1922.5 870,-1892.5 536,-1892.5"/>
<text text-anchor="start" x="543" y="-1903.9" font-family="Arial" font-size="14.00" fill="#000000">orderID    </text>
<text text-anchor="start" x="623.871" y="-1903.9" font-family="Arial" font-size="14.00" fill="#666666">[integer]</text>
<polygon fill="none" stroke="#000000" points="536,-1862.5 536,-1892.5 870,-1892.5 870,-1862.5 536,-1862.5"/>
<text text-anchor="start" x="543" y="-1873.9" font-family="Arial" font-size="14.00" fill="#000000">driverCarID    </text>
<text text-anchor="start" x="648.7448" y="-1873.9" font-family="Arial" font-size="14.00" fill="#666666">[integer]</text>
<polygon fill="none" stroke="#000000" points="536,-1832.5 536,-1862.5 870,-1862.5 870,-1832.5 536,-1832.5"/>
<text text-anchor="start" x="543" y="-1843.9" font-family="Arial" font-size="14.00" fill="#000000">driverID    </text>
<text text-anchor="start" x="626.195" y="-1843.9" font-family="Arial" font-size="14.00" fill="#666666">[integer]</text>
<polygon fill="none" stroke="#000000" points="536,-1802.5 536,-1832.5 870,-1832.5 870,-1802.5 536,-1802.5"/>
<text text-anchor="start" x="543" y="-1813.9" font-family="Arial" font-size="14.00" fill="#000000">storeID    </text>
<text text-anchor="start" x="622.3184" y="-1813.9" font-family="Arial" font-size="14.00" fill="#666666">[integer]</text>
<polygon fill="none" stroke="#000000" points="536,-1772.5 536,-1802.5 870,-1802.5 870,-1772.5 536,-1772.5"/>
<text text-anchor="start" x="543" y="-1783.9" font-family="Arial" font-size="14.00" fill="#000000">orderNotes    </text>
<text text-anchor="start" x="646.4362" y="-1783.9" font-family="Arial" font-size="14.00" fill="#666666">[varchar]</text>
<polygon fill="none" stroke="#000000" points="536,-1742.5 536,-1772.5 870,-1772.5 870,-1742.5 536,-1742.5"/>
<text text-anchor="start" x="543" y="-1753.9" font-family="Arial" font-size="14.00" fill="#000000">employeeID    </text>
<text text-anchor="start" x="651.8822" y="-1753.9" font-family="Arial" font-size="14.00" fill="#666666">[integer]</text>
<polygon fill="none" stroke="#000000" points="536,-1712.5 536,-1742.5 870,-1742.5 870,-1712.5 536,-1712.5"/>
<text text-anchor="start" x="542.7742" y="-1723.9" font-family="Arial" font-size="14.00" fill="#000000">submissionTime    </text>
<text text-anchor="start" x="678.0856" y="-1723.9" font-family="Arial" font-size="14.00" fill="#666666">[timestamp without time zone]</text>
<polygon fill="none" stroke="#000000" points="536,-1682.5 536,-1712.5 870,-1712.5 870,-1682.5 536,-1682.5"/>
<text text-anchor="start" x="543" y="-1693.9" font-family="Arial" font-size="14.00" fill="#000000">vatFree    </text>
<text text-anchor="start" x="624.6564" y="-1693.9" font-family="Arial" font-size="14.00" fill="#666666">[boolean]</text>
<polygon fill="none" stroke="#000000" points="536,-1652.5 536,-1682.5 870,-1682.5 870,-1652.5 536,-1652.5"/>
<text text-anchor="start" x="543" y="-1663.9" font-family="Arial" font-size="14.00" fill="#000000">orderStatus    </text>
<text text-anchor="start" x="649.5568" y="-1663.9" font-family="Arial" font-size="14.00" fill="#666666">[&quot;orderStatus&quot;]</text>
<polygon fill="none" stroke="#000000" points="536,-1622.5 536,-1652.5 870,-1652.5 870,-1622.5 536,-1622.5"/>
<text text-anchor="start" x="543" y="-1633.9" font-family="Arial" font-size="14.00" fill="#000000">currency    </text>
<text text-anchor="start" x="630.8738" y="-1633.9" font-family="Arial" font-size="14.00" fill="#666666">[varchar]</text>
<polygon fill="none" stroke="#000000" points="536,-1592.5 536,-1622.5 870,-1622.5 870,-1592.5 536,-1592.5"/>
<text text-anchor="start" x="543" y="-1603.9" font-family="Arial" font-size="14.00" fill="#000000">discount    </text>
<text text-anchor="start" x="629.3324" y="-1603.9" font-family="Arial" font-size="14.00" fill="#666666">[real]</text>
<polygon fill="none" stroke="#000000" points="536,-1562.5 536,-1592.5 870,-1592.5 870,-1562.5 536,-1562.5"/>
<text text-anchor="start" x="543" y="-1573.9" font-family="Arial" font-size="14.00" fill="#000000">createdAt    </text>
<text text-anchor="start" x="637.1136" y="-1573.9" font-family="Arial" font-size="14.00" fill="#666666">[timestamp without time zone]</text>
<polygon fill="none" stroke="#000000" points="536,-1532.5 536,-1562.5 870,-1562.5 870,-1532.5 536,-1532.5"/>
<text text-anchor="start" x="543" y="-1543.9" font-family="Arial" font-size="14.00" fill="#000000">updatedAt    </text>
<text text-anchor="start" x="641.0182" y="-1543.9" font-family="Arial" font-size="14.00" fill="#666666">[timestamp without time zone]</text>
<polygon fill="none" stroke="#000000" points="536,-1502.5 536,-1532.5 870,-1532.5 870,-1502.5 536,-1502.5"/>
<text text-anchor="start" x="543" y="-1513.9" font-family="Arial" font-size="14.00" fill="#000000">pickupTime    </text>
<text text-anchor="start" x="648.7616" y="-1513.9" font-family="Arial" font-size="14.00" fill="#666666">[timestamp without time zone]</text>
</g>
<!-- public.orders&#45;&gt;public.drivers -->
<g id="edge2" class="edge">
<title>public.orders:driverID&#45;&gt;public.drivers:driverID</title>
<path fill="none" stroke="#000000" d="M879.3945,-1843.5653C941.4037,-1788.6567 907.1917,-1177.5 836,-1177.5"/>
<polygon fill="#000000" stroke="#000000" points="879.2237,-1843.6368 868.2616,-1843.3493 874.6118,-1845.5684 870,-1847.5 870,-1847.5 870,-1847.5 874.6118,-1845.5684 871.7384,-1851.6507 879.2237,-1843.6368 879.2237,-1843.6368"/>
<text text-anchor="start" x="678.9695" y="-1831.5" font-family="Arial" font-size="10.00" fill="#000000">FOREIGN KEY (&quot;driverID&quot;) REFERENCES drivers(&quot;driverID&quot;) ON DELETE CASCADE</text>
</g>
<!-- public.bills -->
<g id="node4" class="node">
<title>public.bills</title>
<polygon fill="#efefef" stroke="transparent" points="975,-2072.5 975,-2107.5 1272,-2107.5 1272,-2072.5 975,-2072.5"/>
<polygon fill="none" stroke="#000000" points="975,-2072.5 975,-2107.5 1272,-2107.5 1272,-2072.5 975,-2072.5"/>
<text text-anchor="start" x="1018.217" y="-2085.3" font-family="Arial Bold" font-size="18.00" fill="#000000">public.bills</text>
<text text-anchor="start" x="1101.215" y="-2085.3" font-family="Arial" font-size="14.00" fill="#000000">    </text>
<text text-anchor="start" x="1135.4198" y="-2085.3" font-family="Arial" font-size="14.00" fill="#666666">[BASE TABLE]</text>
<polygon fill="none" stroke="#000000" points="975,-2042.5 975,-2072.5 1272,-2072.5 1272,-2042.5 975,-2042.5"/>
<text text-anchor="start" x="982" y="-2053.9" font-family="Arial" font-size="14.00" fill="#000000">orderID    </text>
<text text-anchor="start" x="1062.871" y="-2053.9" font-family="Arial" font-size="14.00" fill="#666666">[integer]</text>
<polygon fill="none" stroke="#000000" points="975,-2012.5 975,-2042.5 1272,-2042.5 1272,-2012.5 975,-2012.5"/>
<text text-anchor="start" x="982" y="-2023.9" font-family="Arial" font-size="14.00" fill="#000000">employeeID    </text>
<text text-anchor="start" x="1090.8822" y="-2023.9" font-family="Arial" font-size="14.00" fill="#666666">[integer]</text>
<polygon fill="none" stroke="#000000" points="975,-1982.5 975,-2012.5 1272,-2012.5 1272,-1982.5 975,-1982.5"/>
<text text-anchor="start" x="982" y="-1993.9" font-family="Arial" font-size="14.00" fill="#000000">billingDate    </text>
<text text-anchor="start" x="1081.5414" y="-1993.9" font-family="Arial" font-size="14.00" fill="#666666">[date]</text>
<polygon fill="none" stroke="#000000" points="975,-1952.5 975,-1982.5 1272,-1982.5 1272,-1952.5 975,-1952.5"/>
<text text-anchor="start" x="982" y="-1963.9" font-family="Arial" font-size="14.00" fill="#000000">paymentDate    </text>
<text text-anchor="start" x="1099.4488" y="-1963.9" font-family="Arial" font-size="14.00" fill="#666666">[date]</text>
<polygon fill="none" stroke="#000000" points="975,-1922.5 975,-1952.5 1272,-1952.5 1272,-1922.5 975,-1922.5"/>
<text text-anchor="start" x="982" y="-1933.9" font-family="Arial" font-size="14.00" fill="#000000">paymentDays    </text>
<text text-anchor="start" x="1101.7756" y="-1933.9" font-family="Arial" font-size="14.00" fill="#666666">[integer]</text>
<polygon fill="none" stroke="#000000" points="975,-1892.5 975,-1922.5 1272,-1922.5 1272,-1892.5 975,-1892.5"/>
<text text-anchor="start" x="982" y="-1903.9" font-family="Arial" font-size="14.00" fill="#000000">driverID    </text>
<text text-anchor="start" x="1065.195" y="-1903.9" font-family="Arial" font-size="14.00" fill="#666666">[integer]</text>
<polygon fill="none" stroke="#000000" points="975,-1862.5 975,-1892.5 1272,-1892.5 1272,-1862.5 975,-1862.5"/>
<text text-anchor="start" x="982" y="-1873.9" font-family="Arial" font-size="14.00" fill="#000000">customerOrgNumber    </text>
<text text-anchor="start" x="1146.8738" y="-1873.9" font-family="Arial" font-size="14.00" fill="#666666">[varchar(11)]</text>
<polygon fill="none" stroke="#000000" points="975,-1832.5 975,-1862.5 1272,-1862.5 1272,-1832.5 975,-1832.5"/>
<text text-anchor="start" x="982" y="-1843.9" font-family="Arial" font-size="14.00" fill="#000000">driverExternalNumber    </text>
<text text-anchor="start" x="1152.3156" y="-1843.9" font-family="Arial" font-size="14.00" fill="#666666">[varchar(256)]</text>
<polygon fill="none" stroke="#000000" points="975,-1802.5 975,-1832.5 1272,-1832.5 1272,-1802.5 975,-1802.5"/>
<text text-anchor="start" x="982" y="-1813.9" font-family="Arial" font-size="14.00" fill="#000000">companyReference    </text>
<text text-anchor="start" x="1137.5666" y="-1813.9" font-family="Arial" font-size="14.00" fill="#666666">[varchar(255)]</text>
<polygon fill="none" stroke="#000000" points="975,-1772.5 975,-1802.5 1272,-1802.5 1272,-1772.5 975,-1772.5"/>
<text text-anchor="start" x="982" y="-1783.9" font-family="Arial" font-size="14.00" fill="#000000">driverFirstName    </text>
<text text-anchor="start" x="1115.7406" y="-1783.9" font-family="Arial" font-size="14.00" fill="#666666">[varchar(128)]</text>
<polygon fill="none" stroke="#000000" points="975,-1742.5 975,-1772.5 1272,-1772.5 1272,-1742.5 975,-1742.5"/>
<text text-anchor="start" x="982" y="-1753.9" font-family="Arial" font-size="14.00" fill="#000000">driverLastName    </text>
<text text-anchor="start" x="1114.986" y="-1753.9" font-family="Arial" font-size="14.00" fill="#666666">[varchar(128)]</text>
<polygon fill="none" stroke="#000000" points="975,-1712.5 975,-1742.5 1272,-1742.5 1272,-1712.5 975,-1712.5"/>
<text text-anchor="start" x="982" y="-1723.9" font-family="Arial" font-size="14.00" fill="#000000">driverEmail    </text>
<text text-anchor="start" x="1086.1908" y="-1723.9" font-family="Arial" font-size="14.00" fill="#666666">[varchar(256)]</text>
<polygon fill="none" stroke="#000000" points="975,-1682.5 975,-1712.5 1272,-1712.5 1272,-1682.5 975,-1682.5"/>
<text text-anchor="start" x="982" y="-1693.9" font-family="Arial" font-size="14.00" fill="#000000">driverPhoneNumber    </text>
<text text-anchor="start" x="1141.4404" y="-1693.9" font-family="Arial" font-size="14.00" fill="#666666">[varchar(32)]</text>
<polygon fill="none" stroke="#000000" points="975,-1652.5 975,-1682.5 1272,-1682.5 1272,-1652.5 975,-1652.5"/>
<text text-anchor="start" x="982" y="-1663.9" font-family="Arial" font-size="14.00" fill="#000000">driverAddress    </text>
<text text-anchor="start" x="1102.5428" y="-1663.9" font-family="Arial" font-size="14.00" fill="#666666">[varchar(256)]</text>
<polygon fill="none" stroke="#000000" points="975,-1622.5 975,-1652.5 1272,-1652.5 1272,-1622.5 975,-1622.5"/>
<text text-anchor="start" x="982" y="-1633.9" font-family="Arial" font-size="14.00" fill="#000000">driverZipCode    </text>
<text text-anchor="start" x="1104.094" y="-1633.9" font-family="Arial" font-size="14.00" fill="#666666">[varchar(16)]</text>
<polygon fill="none" stroke="#000000" points="975,-1592.5 975,-1622.5 1272,-1622.5 1272,-1592.5 975,-1592.5"/>
<text text-anchor="start" x="982" y="-1603.9" font-family="Arial" font-size="14.00" fill="#000000">driverAddressCity    </text>
<text text-anchor="start" x="1126.6466" y="-1603.9" font-family="Arial" font-size="14.00" fill="#666666">[varchar(256)]</text>
<polygon fill="none" stroke="#000000" points="975,-1562.5 975,-1592.5 1272,-1592.5 1272,-1562.5 975,-1562.5"/>
<text text-anchor="start" x="982" y="-1573.9" font-family="Arial" font-size="14.00" fill="#000000">driverCountry    </text>
<text text-anchor="start" x="1100.2034" y="-1573.9" font-family="Arial" font-size="14.00" fill="#666666">[varchar(256)]</text>
<polygon fill="none" stroke="#000000" points="975,-1532.5 975,-1562.5 1272,-1562.5 1272,-1532.5 975,-1532.5"/>
<text text-anchor="start" x="982" y="-1543.9" font-family="Arial" font-size="14.00" fill="#000000">driverHasCard    </text>
<text text-anchor="start" x="1106.4194" y="-1543.9" font-family="Arial" font-size="14.00" fill="#666666">[boolean]</text>
<polygon fill="none" stroke="#000000" points="975,-1502.5 975,-1532.5 1272,-1532.5 1272,-1502.5 975,-1502.5"/>
<text text-anchor="start" x="982" y="-1513.9" font-family="Arial" font-size="14.00" fill="#000000">driverCardValidTo    </text>
<text text-anchor="start" x="1128.9804" y="-1513.9" font-family="Arial" font-size="14.00" fill="#666666">[date]</text>
<polygon fill="none" stroke="#000000" points="975,-1472.5 975,-1502.5 1272,-1502.5 1272,-1472.5 975,-1472.5"/>
<text text-anchor="start" x="982" y="-1483.9" font-family="Arial" font-size="14.00" fill="#000000">driverCardNumber    </text>
<text text-anchor="start" x="1131.3058" y="-1483.9" font-family="Arial" font-size="14.00" fill="#666666">[varchar(256)]</text>
<polygon fill="none" stroke="#000000" points="975,-1442.5 975,-1472.5 1272,-1472.5 1272,-1442.5 975,-1442.5"/>
<text text-anchor="start" x="982" y="-1453.9" font-family="Arial" font-size="14.00" fill="#000000">driverKeyNumber    </text>
<text text-anchor="start" x="1125.0926" y="-1453.9" font-family="Arial" font-size="14.00" fill="#666666">[varchar(256)]</text>
<polygon fill="none" stroke="#000000" points="975,-1412.5 975,-1442.5 1272,-1442.5 1272,-1412.5 975,-1412.5"/>
<text text-anchor="start" x="982" y="-1423.9" font-family="Arial" font-size="14.00" fill="#000000">createdAt    </text>
<text text-anchor="start" x="1076.1136" y="-1423.9" font-family="Arial" font-size="14.00" fill="#666666">[timestamp without time zone]</text>
<polygon fill="none" stroke="#000000" points="975,-1382.5 975,-1412.5 1272,-1412.5 1272,-1382.5 975,-1382.5"/>
<text text-anchor="start" x="981.9208" y="-1393.9" font-family="Arial" font-size="14.00" fill="#000000">updatedAt    </text>
<text text-anchor="start" x="1079.939" y="-1393.9" font-family="Arial" font-size="14.00" fill="#666666">[timestamp without time zone]</text>
<polygon fill="none" stroke="#000000" points="975,-1352.5 975,-1382.5 1272,-1382.5 1272,-1352.5 975,-1352.5"/>
<text text-anchor="start" x="982" y="-1363.9" font-family="Arial" font-size="14.00" fill="#000000">billStatus    </text>
<text text-anchor="start" x="1072.9902" y="-1363.9" font-family="Arial" font-size="14.00" fill="#666666">[&quot;billStatus&quot;]</text>
</g>
<!-- public.bills&#45;&gt;public.drivers -->
<g id="edge3" class="edge">
<title>public.bills:driverID&#45;&gt;public.drivers:driverID</title>
<path fill="none" stroke="#000000" d="M965.6148,-1903.4968C911.7963,-1854.4315 942.6257,-1369.8084 922,-1310 899.1115,-1243.6302 906.2057,-1177.5 836,-1177.5"/>
<polygon fill="#000000" stroke="#000000" points="965.8018,-1903.5765 973.2344,-1911.6392 970.4009,-1905.5382 975,-1907.5 975,-1907.5 975,-1907.5 970.4009,-1905.5382 976.7656,-1903.3608 965.8018,-1903.5765 965.8018,-1903.5765"/>
<text text-anchor="start" x="695.7505" y="-1917.5" font-family="Arial" font-size="10.00" fill="#000000">FOREIGN KEY (&quot;driverID&quot;) REFERENCES drivers(&quot;driverID&quot;)</text>
</g>
</g>
</svg>
