<?xml version="1.0" encoding="UTF-8" standalone="no"?>
<!DOCTYPE svg PUBLIC "-//W3C//DTD SVG 1.1//EN"
 "http://www.w3.org/Graphics/SVG/1.1/DTD/svg11.dtd">
<!-- Generated by graphviz version 2.40.1 (20161225.0304)
 -->
<!-- Title: public.serviceVariants Pages: 1 -->
<svg width="1134pt" height="2219pt"
 viewBox="0.00 0.00 1134.00 2219.00" xmlns="http://www.w3.org/2000/svg" xmlns:xlink="http://www.w3.org/1999/xlink">
<g id="graph0" class="graph" transform="scale(1 1) rotate(0) translate(4 2215)">
<title>public.serviceVariants</title>
<polygon fill="#ffffff" stroke="transparent" points="-4,4 -4,-2215 1130,-2215 1130,4 -4,4"/>
<!-- public.serviceVariants -->
<g id="node1" class="node">
<title>public.serviceVariants</title>
<polygon fill="#efefef" stroke="transparent" points="306,-1252.5 306,-1287.5 622,-1287.5 622,-1252.5 306,-1252.5"/>
<polygon fill="none" stroke="#000000" points="306,-1252.5 306,-1287.5 622,-1287.5 622,-1252.5 306,-1252.5"/>
<text text-anchor="start" x="312.7063" y="-1265.3" font-family="Arial Bold" font-size="18.00" fill="#000000">public.serviceVariants</text>
<text text-anchor="start" x="487.7257" y="-1265.3" font-family="Arial" font-size="14.00" fill="#000000">    </text>
<text text-anchor="start" x="521.9305" y="-1265.3" font-family="Arial" font-size="14.00" fill="#666666">[BASE TABLE]</text>
<polygon fill="none" stroke="#000000" points="306,-1222.5 306,-1252.5 622,-1252.5 622,-1222.5 306,-1222.5"/>
<text text-anchor="start" x="313" y="-1233.9" font-family="Arial" font-size="14.00" fill="#000000">serviceVariantID </text>
<text text-anchor="start" x="419.5624" y="-1233.9" font-family="Arial" font-size="14.00" fill="#666666">[integer]</text>
<polygon fill="none" stroke="#000000" points="306,-1192.5 306,-1222.5 622,-1222.5 622,-1192.5 306,-1192.5"/>
<text text-anchor="start" x="313" y="-1203.9" font-family="Arial" font-size="14.00" fill="#000000">name </text>
<text text-anchor="start" x="351.899" y="-1203.9" font-family="Arial" font-size="14.00" fill="#666666">[varchar(256)]</text>
<polygon fill="none" stroke="#000000" points="306,-1162.5 306,-1192.5 622,-1192.5 622,-1162.5 306,-1162.5"/>
<text text-anchor="start" x="313" y="-1173.9" font-family="Arial" font-size="14.00" fill="#000000">cost </text>
<text text-anchor="start" x="342.5638" y="-1173.9" font-family="Arial" font-size="14.00" fill="#666666">[real]</text>
<polygon fill="none" stroke="#000000" points="306,-1132.5 306,-1162.5 622,-1162.5 622,-1132.5 306,-1132.5"/>
<text text-anchor="start" x="313" y="-1143.9" font-family="Arial" font-size="14.00" fill="#000000">currency </text>
<text text-anchor="start" x="370.5596" y="-1143.9" font-family="Arial" font-size="14.00" fill="#666666">[varchar(5)]</text>
<polygon fill="none" stroke="#000000" points="306,-1102.5 306,-1132.5 622,-1132.5 622,-1102.5 306,-1102.5"/>
<text text-anchor="start" x="313" y="-1113.9" font-family="Arial" font-size="14.00" fill="#000000">award </text>
<text text-anchor="start" x="355.0056" y="-1113.9" font-family="Arial" font-size="14.00" fill="#666666">[real]</text>
<polygon fill="none" stroke="#000000" points="306,-1072.5 306,-1102.5 622,-1102.5 622,-1072.5 306,-1072.5"/>
<text text-anchor="start" x="313" y="-1083.9" font-family="Arial" font-size="14.00" fill="#000000">day1 </text>
<text text-anchor="start" x="347.2384" y="-1083.9" font-family="Arial" font-size="14.00" fill="#666666">[interval]</text>
<polygon fill="none" stroke="#000000" points="306,-1042.5 306,-1072.5 622,-1072.5 622,-1042.5 306,-1042.5"/>
<text text-anchor="start" x="313" y="-1053.9" font-family="Arial" font-size="14.00" fill="#000000">day2 </text>
<text text-anchor="start" x="347.2384" y="-1053.9" font-family="Arial" font-size="14.00" fill="#666666">[interval]</text>
<polygon fill="none" stroke="#000000" points="306,-1012.5 306,-1042.5 622,-1042.5 622,-1012.5 306,-1012.5"/>
<text text-anchor="start" x="313" y="-1023.9" font-family="Arial" font-size="14.00" fill="#000000">day3 </text>
<text text-anchor="start" x="347.2384" y="-1023.9" font-family="Arial" font-size="14.00" fill="#666666">[interval]</text>
<polygon fill="none" stroke="#000000" points="306,-982.5 306,-1012.5 622,-1012.5 622,-982.5 306,-982.5"/>
<text text-anchor="start" x="313" y="-993.9" font-family="Arial" font-size="14.00" fill="#000000">day4 </text>
<text text-anchor="start" x="347.2384" y="-993.9" font-family="Arial" font-size="14.00" fill="#666666">[interval]</text>
<polygon fill="none" stroke="#000000" points="306,-952.5 306,-982.5 622,-982.5 622,-952.5 306,-952.5"/>
<text text-anchor="start" x="313" y="-963.9" font-family="Arial" font-size="14.00" fill="#000000">day5 </text>
<text text-anchor="start" x="347.2384" y="-963.9" font-family="Arial" font-size="14.00" fill="#666666">[interval]</text>
<polygon fill="none" stroke="#000000" points="306,-922.5 306,-952.5 622,-952.5 622,-922.5 306,-922.5"/>
<text text-anchor="start" x="313" y="-933.9" font-family="Arial" font-size="14.00" fill="#000000">serviceID </text>
<text text-anchor="start" x="375.2202" y="-933.9" font-family="Arial" font-size="14.00" fill="#666666">[integer]</text>
<polygon fill="none" stroke="#000000" points="306,-892.5 306,-922.5 622,-922.5 622,-892.5 306,-892.5"/>
<text text-anchor="start" x="313" y="-903.9" font-family="Arial" font-size="14.00" fill="#000000">createdAt </text>
<text text-anchor="start" x="376.7994" y="-903.9" font-family="Arial" font-size="14.00" fill="#666666">[timestamp without time zone]</text>
<polygon fill="none" stroke="#000000" points="306,-862.5 306,-892.5 622,-892.5 622,-862.5 306,-862.5"/>
<text text-anchor="start" x="313" y="-873.9" font-family="Arial" font-size="14.00" fill="#000000">updatedAt </text>
<text text-anchor="start" x="380.704" y="-873.9" font-family="Arial" font-size="14.00" fill="#666666">[timestamp without time zone]</text>
<polygon fill="none" stroke="#000000" stroke-width="3" points="304.5,-861.5 304.5,-1289.5 623.5,-1289.5 623.5,-861.5 304.5,-861.5"/>
</g>
<!-- public.services -->
<g id="node3" class="node">
<title>public.services</title>
<polygon fill="#efefef" stroke="transparent" points="315,-702.5 315,-737.5 612,-737.5 612,-702.5 315,-702.5"/>
<polygon fill="none" stroke="#000000" points="315,-702.5 315,-737.5 612,-737.5 612,-702.5 315,-702.5"/>
<text text-anchor="start" x="340.712" y="-715.3" font-family="Arial Bold" font-size="18.00" fill="#000000">public.services</text>
<text text-anchor="start" x="458.72" y="-715.3" font-family="Arial" font-size="14.00" fill="#000000">    </text>
<text text-anchor="start" x="492.9248" y="-715.3" font-family="Arial" font-size="14.00" fill="#666666">[BASE TABLE]</text>
<polygon fill="none" stroke="#000000" points="315,-672.5 315,-702.5 612,-702.5 612,-672.5 315,-672.5"/>
<text text-anchor="start" x="322" y="-683.9" font-family="Arial" font-size="14.00" fill="#000000">serviceID    </text>
<text text-anchor="start" x="414.5344" y="-683.9" font-family="Arial" font-size="14.00" fill="#666666">[integer]</text>
<polygon fill="none" stroke="#000000" points="315,-642.5 315,-672.5 612,-672.5 612,-642.5 315,-642.5"/>
<text text-anchor="start" x="322" y="-653.9" font-family="Arial" font-size="14.00" fill="#000000">serviceCategoryID    </text>
<text text-anchor="start" x="471.3226" y="-653.9" font-family="Arial" font-size="14.00" fill="#666666">[integer]</text>
<polygon fill="none" stroke="#000000" points="315,-612.5 315,-642.5 612,-642.5 612,-612.5 315,-612.5"/>
<text text-anchor="start" x="322" y="-623.9" font-family="Arial" font-size="14.00" fill="#000000">name    </text>
<text text-anchor="start" x="391.2132" y="-623.9" font-family="Arial" font-size="14.00" fill="#666666">[varchar(256)]</text>
<polygon fill="none" stroke="#000000" points="315,-582.5 315,-612.5 612,-612.5 612,-582.5 315,-582.5"/>
<text text-anchor="start" x="322" y="-593.9" font-family="Arial" font-size="14.00" fill="#000000">storeID    </text>
<text text-anchor="start" x="401.3184" y="-593.9" font-family="Arial" font-size="14.00" fill="#666666">[integer]</text>
<polygon fill="none" stroke="#000000" points="315,-552.5 315,-582.5 612,-582.5 612,-552.5 315,-552.5"/>
<text text-anchor="start" x="322" y="-563.9" font-family="Arial" font-size="14.00" fill="#000000">currency    </text>
<text text-anchor="start" x="409.8738" y="-563.9" font-family="Arial" font-size="14.00" fill="#666666">[varchar(5)]</text>
<polygon fill="none" stroke="#000000" points="315,-522.5 315,-552.5 612,-552.5 612,-522.5 315,-522.5"/>
<text text-anchor="start" x="322" y="-533.9" font-family="Arial" font-size="14.00" fill="#000000">cost    </text>
<text text-anchor="start" x="381.878" y="-533.9" font-family="Arial" font-size="14.00" fill="#666666">[real]</text>
<polygon fill="none" stroke="#000000" points="315,-492.5 315,-522.5 612,-522.5 612,-492.5 315,-492.5"/>
<text text-anchor="start" x="322" y="-503.9" font-family="Arial" font-size="14.00" fill="#000000">includeInAutomaticSms    </text>
<text text-anchor="start" x="502.4516" y="-503.9" font-family="Arial" font-size="14.00" fill="#666666">[boolean]</text>
<polygon fill="none" stroke="#000000" points="315,-462.5 315,-492.5 612,-492.5 612,-462.5 315,-462.5"/>
<text text-anchor="start" x="322" y="-473.9" font-family="Arial" font-size="14.00" fill="#000000">hidden    </text>
<text text-anchor="start" x="398.2244" y="-473.9" font-family="Arial" font-size="14.00" fill="#666666">[boolean]</text>
<polygon fill="none" stroke="#000000" points="315,-432.5 315,-462.5 612,-462.5 612,-432.5 315,-432.5"/>
<text text-anchor="start" x="322" y="-443.9" font-family="Arial" font-size="14.00" fill="#000000">callInterval    </text>
<text text-anchor="start" x="423.0968" y="-443.9" font-family="Arial" font-size="14.00" fill="#666666">[integer]</text>
<polygon fill="none" stroke="#000000" points="315,-402.5 315,-432.5 612,-432.5 612,-402.5 315,-402.5"/>
<text text-anchor="start" x="322" y="-413.9" font-family="Arial" font-size="14.00" fill="#000000">colorForService    </text>
<text text-anchor="start" x="454.202" y="-413.9" font-family="Arial" font-size="14.00" fill="#666666">[varchar]</text>
<polygon fill="none" stroke="#000000" points="315,-372.5 315,-402.5 612,-402.5 612,-372.5 315,-372.5"/>
<text text-anchor="start" x="322" y="-383.9" font-family="Arial" font-size="14.00" fill="#000000">warrantyCard    </text>
<text text-anchor="start" x="440.2034" y="-383.9" font-family="Arial" font-size="14.00" fill="#666666">[boolean]</text>
<polygon fill="none" stroke="#000000" points="315,-342.5 315,-372.5 612,-372.5 612,-342.5 315,-342.5"/>
<text text-anchor="start" x="322" y="-353.9" font-family="Arial" font-size="14.00" fill="#000000">itemNumber    </text>
<text text-anchor="start" x="432.4208" y="-353.9" font-family="Arial" font-size="14.00" fill="#666666">[varchar(256)]</text>
<polygon fill="none" stroke="#000000" points="315,-312.5 315,-342.5 612,-342.5 612,-312.5 315,-312.5"/>
<text text-anchor="start" x="322" y="-323.9" font-family="Arial" font-size="14.00" fill="#000000">award    </text>
<text text-anchor="start" x="394.3198" y="-323.9" font-family="Arial" font-size="14.00" fill="#666666">[real]</text>
<polygon fill="none" stroke="#000000" points="315,-282.5 315,-312.5 612,-312.5 612,-282.5 315,-282.5"/>
<text text-anchor="start" x="322" y="-293.9" font-family="Arial" font-size="14.00" fill="#000000">suppliersArticleNumber    </text>
<text text-anchor="start" x="500.8682" y="-293.9" font-family="Arial" font-size="14.00" fill="#666666">[varchar(256)]</text>
<polygon fill="none" stroke="#000000" points="315,-252.5 315,-282.5 612,-282.5 612,-252.5 315,-252.5"/>
<text text-anchor="start" x="322" y="-263.9" font-family="Arial" font-size="14.00" fill="#000000">externalArticleNumber    </text>
<text text-anchor="start" x="494.6522" y="-263.9" font-family="Arial" font-size="14.00" fill="#666666">[varchar(256)]</text>
<polygon fill="none" stroke="#000000" points="315,-222.5 315,-252.5 612,-252.5 612,-222.5 315,-222.5"/>
<text text-anchor="start" x="322" y="-233.9" font-family="Arial" font-size="14.00" fill="#000000">day1    </text>
<text text-anchor="start" x="386.5526" y="-233.9" font-family="Arial" font-size="14.00" fill="#666666">[interval]</text>
<polygon fill="none" stroke="#000000" points="315,-192.5 315,-222.5 612,-222.5 612,-192.5 315,-192.5"/>
<text text-anchor="start" x="322" y="-203.9" font-family="Arial" font-size="14.00" fill="#000000">day2    </text>
<text text-anchor="start" x="386.5526" y="-203.9" font-family="Arial" font-size="14.00" fill="#666666">[interval]</text>
<polygon fill="none" stroke="#000000" points="315,-162.5 315,-192.5 612,-192.5 612,-162.5 315,-162.5"/>
<text text-anchor="start" x="322" y="-173.9" font-family="Arial" font-size="14.00" fill="#000000">day3    </text>
<text text-anchor="start" x="386.5526" y="-173.9" font-family="Arial" font-size="14.00" fill="#666666">[interval]</text>
<polygon fill="none" stroke="#000000" points="315,-132.5 315,-162.5 612,-162.5 612,-132.5 315,-132.5"/>
<text text-anchor="start" x="322" y="-143.9" font-family="Arial" font-size="14.00" fill="#000000">day4    </text>
<text text-anchor="start" x="386.5526" y="-143.9" font-family="Arial" font-size="14.00" fill="#666666">[interval]</text>
<polygon fill="none" stroke="#000000" points="315,-102.5 315,-132.5 612,-132.5 612,-102.5 315,-102.5"/>
<text text-anchor="start" x="322" y="-113.9" font-family="Arial" font-size="14.00" fill="#000000">day5    </text>
<text text-anchor="start" x="386.5526" y="-113.9" font-family="Arial" font-size="14.00" fill="#666666">[interval]</text>
<polygon fill="none" stroke="#000000" points="315,-72.5 315,-102.5 612,-102.5 612,-72.5 315,-72.5"/>
<text text-anchor="start" x="322" y="-83.9" font-family="Arial" font-size="14.00" fill="#000000">createdAt    </text>
<text text-anchor="start" x="416.1136" y="-83.9" font-family="Arial" font-size="14.00" fill="#666666">[timestamp without time zone]</text>
<polygon fill="none" stroke="#000000" points="315,-42.5 315,-72.5 612,-72.5 612,-42.5 315,-42.5"/>
<text text-anchor="start" x="321.9208" y="-53.9" font-family="Arial" font-size="14.00" fill="#000000">updatedAt    </text>
<text text-anchor="start" x="419.939" y="-53.9" font-family="Arial" font-size="14.00" fill="#666666">[timestamp without time zone]</text>
</g>
<!-- public.serviceVariants&#45;&gt;public.services -->
<g id="edge2" class="edge">
<title>public.serviceVariants:serviceID&#45;&gt;public.services:serviceID</title>
<path fill="none" stroke="#000000" d="M296.0024,-936.4104C254.9832,-926.686 272.8444,-854.285 306,-817 396.9972,-714.6696 521.0028,-883.3304 612,-781 639.6143,-749.9466 653.5556,-687.5 612,-687.5"/>
<polygon fill="#000000" stroke="#000000" points="296.0589,-936.4165 305.5124,-941.9735 301.0294,-936.9582 306,-937.5 306,-937.5 306,-937.5 301.0294,-936.9582 306.4876,-933.0265 296.0589,-936.4165 296.0589,-936.4165"/>
<text text-anchor="start" x="6.744" y="-947.5" font-family="Arial" font-size="10.00" fill="#000000">FOREIGN KEY (&quot;serviceID&quot;) REFERENCES services(&quot;serviceID&quot;)</text>
</g>
<!-- public.orderListing -->
<g id="node2" class="node">
<title>public.orderListing</title>
<polygon fill="#efefef" stroke="transparent" points="320,-2132.5 320,-2167.5 607,-2167.5 607,-2132.5 320,-2132.5"/>
<polygon fill="none" stroke="#000000" points="320,-2132.5 320,-2167.5 607,-2167.5 607,-2132.5 320,-2132.5"/>
<text text-anchor="start" x="326.7053" y="-2145.3" font-family="Arial Bold" font-size="18.00" fill="#000000">public.orderListing</text>
<text text-anchor="start" x="472.7267" y="-2145.3" font-family="Arial" font-size="14.00" fill="#000000">    </text>
<text text-anchor="start" x="506.9315" y="-2145.3" font-family="Arial" font-size="14.00" fill="#666666">[BASE TABLE]</text>
<polygon fill="none" stroke="#000000" points="320,-2102.5 320,-2132.5 607,-2132.5 607,-2102.5 320,-2102.5"/>
<text text-anchor="start" x="327" y="-2113.9" font-family="Arial" font-size="14.00" fill="#000000">orderID    </text>
<text text-anchor="start" x="407.871" y="-2113.9" font-family="Arial" font-size="14.00" fill="#666666">[integer]</text>
<polygon fill="none" stroke="#000000" points="320,-2072.5 320,-2102.5 607,-2102.5 607,-2072.5 320,-2072.5"/>
<text text-anchor="start" x="327" y="-2083.9" font-family="Arial" font-size="14.00" fill="#000000">serviceID    </text>
<text text-anchor="start" x="419.5344" y="-2083.9" font-family="Arial" font-size="14.00" fill="#666666">[integer]</text>
<polygon fill="none" stroke="#000000" points="320,-2042.5 320,-2072.5 607,-2072.5 607,-2042.5 320,-2042.5"/>
<text text-anchor="start" x="327" y="-2053.9" font-family="Arial" font-size="14.00" fill="#000000">name    </text>
<text text-anchor="start" x="396.2132" y="-2053.9" font-family="Arial" font-size="14.00" fill="#666666">[varchar(256)]</text>
<polygon fill="none" stroke="#000000" points="320,-2012.5 320,-2042.5 607,-2042.5 607,-2012.5 320,-2012.5"/>
<text text-anchor="start" x="327" y="-2023.9" font-family="Arial" font-size="14.00" fill="#000000">amount    </text>
<text text-anchor="start" x="407.8864" y="-2023.9" font-family="Arial" font-size="14.00" fill="#666666">[integer]</text>
<polygon fill="none" stroke="#000000" points="320,-1982.5 320,-2012.5 607,-2012.5 607,-1982.5 320,-1982.5"/>
<text text-anchor="start" x="327" y="-1993.9" font-family="Arial" font-size="14.00" fill="#000000">serviceVariantID    </text>
<text text-anchor="start" x="463.8766" y="-1993.9" font-family="Arial" font-size="14.00" fill="#666666">[integer]</text>
<polygon fill="none" stroke="#000000" points="320,-1952.5 320,-1982.5 607,-1982.5 607,-1952.5 320,-1952.5"/>
<text text-anchor="start" x="327" y="-1963.9" font-family="Arial" font-size="14.00" fill="#000000">day1    </text>
<text text-anchor="start" x="391.5526" y="-1963.9" font-family="Arial" font-size="14.00" fill="#666666">[timestamp without time zone]</text>
<polygon fill="none" stroke="#000000" points="320,-1922.5 320,-1952.5 607,-1952.5 607,-1922.5 320,-1922.5"/>
<text text-anchor="start" x="327" y="-1933.9" font-family="Arial" font-size="14.00" fill="#000000">day1Work    </text>
<text text-anchor="start" x="424.2104" y="-1933.9" font-family="Arial" font-size="14.00" fill="#666666">[interval]</text>
<polygon fill="none" stroke="#000000" points="320,-1892.5 320,-1922.5 607,-1922.5 607,-1892.5 320,-1892.5"/>
<text text-anchor="start" x="327" y="-1903.9" font-family="Arial" font-size="14.00" fill="#000000">day1Employee    </text>
<text text-anchor="start" x="453.7868" y="-1903.9" font-family="Arial" font-size="14.00" fill="#666666">[integer]</text>
<polygon fill="none" stroke="#000000" points="320,-1862.5 320,-1892.5 607,-1892.5 607,-1862.5 320,-1862.5"/>
<text text-anchor="start" x="327" y="-1873.9" font-family="Arial" font-size="14.00" fill="#000000">day2    </text>
<text text-anchor="start" x="391.5526" y="-1873.9" font-family="Arial" font-size="14.00" fill="#666666">[timestamp without time zone]</text>
<polygon fill="none" stroke="#000000" points="320,-1832.5 320,-1862.5 607,-1862.5 607,-1832.5 320,-1832.5"/>
<text text-anchor="start" x="327" y="-1843.9" font-family="Arial" font-size="14.00" fill="#000000">day2Work    </text>
<text text-anchor="start" x="424.2104" y="-1843.9" font-family="Arial" font-size="14.00" fill="#666666">[interval]</text>
<polygon fill="none" stroke="#000000" points="320,-1802.5 320,-1832.5 607,-1832.5 607,-1802.5 320,-1802.5"/>
<text text-anchor="start" x="327" y="-1813.9" font-family="Arial" font-size="14.00" fill="#000000">day2Employee    </text>
<text text-anchor="start" x="453.7868" y="-1813.9" font-family="Arial" font-size="14.00" fill="#666666">[integer]</text>
<polygon fill="none" stroke="#000000" points="320,-1772.5 320,-1802.5 607,-1802.5 607,-1772.5 320,-1772.5"/>
<text text-anchor="start" x="327" y="-1783.9" font-family="Arial" font-size="14.00" fill="#000000">day3    </text>
<text text-anchor="start" x="391.5526" y="-1783.9" font-family="Arial" font-size="14.00" fill="#666666">[timestamp without time zone]</text>
<polygon fill="none" stroke="#000000" points="320,-1742.5 320,-1772.5 607,-1772.5 607,-1742.5 320,-1742.5"/>
<text text-anchor="start" x="327" y="-1753.9" font-family="Arial" font-size="14.00" fill="#000000">day3Work    </text>
<text text-anchor="start" x="424.2104" y="-1753.9" font-family="Arial" font-size="14.00" fill="#666666">[interval]</text>
<polygon fill="none" stroke="#000000" points="320,-1712.5 320,-1742.5 607,-1742.5 607,-1712.5 320,-1712.5"/>
<text text-anchor="start" x="327" y="-1723.9" font-family="Arial" font-size="14.00" fill="#000000">day3Employee    </text>
<text text-anchor="start" x="453.7868" y="-1723.9" font-family="Arial" font-size="14.00" fill="#666666">[integer]</text>
<polygon fill="none" stroke="#000000" points="320,-1682.5 320,-1712.5 607,-1712.5 607,-1682.5 320,-1682.5"/>
<text text-anchor="start" x="327" y="-1693.9" font-family="Arial" font-size="14.00" fill="#000000">day4    </text>
<text text-anchor="start" x="391.5526" y="-1693.9" font-family="Arial" font-size="14.00" fill="#666666">[timestamp without time zone]</text>
<polygon fill="none" stroke="#000000" points="320,-1652.5 320,-1682.5 607,-1682.5 607,-1652.5 320,-1652.5"/>
<text text-anchor="start" x="327" y="-1663.9" font-family="Arial" font-size="14.00" fill="#000000">day4Work    </text>
<text text-anchor="start" x="424.2104" y="-1663.9" font-family="Arial" font-size="14.00" fill="#666666">[interval]</text>
<polygon fill="none" stroke="#000000" points="320,-1622.5 320,-1652.5 607,-1652.5 607,-1622.5 320,-1622.5"/>
<text text-anchor="start" x="327" y="-1633.9" font-family="Arial" font-size="14.00" fill="#000000">day4Employee    </text>
<text text-anchor="start" x="453.7868" y="-1633.9" font-family="Arial" font-size="14.00" fill="#666666">[integer]</text>
<polygon fill="none" stroke="#000000" points="320,-1592.5 320,-1622.5 607,-1622.5 607,-1592.5 320,-1592.5"/>
<text text-anchor="start" x="327" y="-1603.9" font-family="Arial" font-size="14.00" fill="#000000">day5    </text>
<text text-anchor="start" x="391.5526" y="-1603.9" font-family="Arial" font-size="14.00" fill="#666666">[timestamp without time zone]</text>
<polygon fill="none" stroke="#000000" points="320,-1562.5 320,-1592.5 607,-1592.5 607,-1562.5 320,-1562.5"/>
<text text-anchor="start" x="327" y="-1573.9" font-family="Arial" font-size="14.00" fill="#000000">day5Work    </text>
<text text-anchor="start" x="424.2104" y="-1573.9" font-family="Arial" font-size="14.00" fill="#666666">[interval]</text>
<polygon fill="none" stroke="#000000" points="320,-1532.5 320,-1562.5 607,-1562.5 607,-1532.5 320,-1532.5"/>
<text text-anchor="start" x="327" y="-1543.9" font-family="Arial" font-size="14.00" fill="#000000">day5Employee    </text>
<text text-anchor="start" x="453.7868" y="-1543.9" font-family="Arial" font-size="14.00" fill="#666666">[integer]</text>
<polygon fill="none" stroke="#000000" points="320,-1502.5 320,-1532.5 607,-1532.5 607,-1502.5 320,-1502.5"/>
<text text-anchor="start" x="327" y="-1513.9" font-family="Arial" font-size="14.00" fill="#000000">cost    </text>
<text text-anchor="start" x="386.878" y="-1513.9" font-family="Arial" font-size="14.00" fill="#666666">[real]</text>
<polygon fill="none" stroke="#000000" points="320,-1472.5 320,-1502.5 607,-1502.5 607,-1472.5 320,-1472.5"/>
<text text-anchor="start" x="327" y="-1483.9" font-family="Arial" font-size="14.00" fill="#000000">currency    </text>
<text text-anchor="start" x="414.8738" y="-1483.9" font-family="Arial" font-size="14.00" fill="#666666">[varchar]</text>
<polygon fill="none" stroke="#000000" points="320,-1442.5 320,-1472.5 607,-1472.5 607,-1442.5 320,-1442.5"/>
<text text-anchor="start" x="327" y="-1453.9" font-family="Arial" font-size="14.00" fill="#000000">vatFree    </text>
<text text-anchor="start" x="408.6564" y="-1453.9" font-family="Arial" font-size="14.00" fill="#666666">[boolean]</text>
<polygon fill="none" stroke="#000000" points="320,-1412.5 320,-1442.5 607,-1442.5 607,-1412.5 320,-1412.5"/>
<text text-anchor="start" x="327" y="-1423.9" font-family="Arial" font-size="14.00" fill="#000000">orderNotes    </text>
<text text-anchor="start" x="430.4362" y="-1423.9" font-family="Arial" font-size="14.00" fill="#666666">[varchar]</text>
</g>
<!-- public.orderListing&#45;&gt;public.serviceVariants -->
<g id="edge1" class="edge">
<title>public.orderListing:serviceVariantID&#45;&gt;public.serviceVariants:serviceVariantID</title>
<path fill="none" stroke="#000000" d="M617.2637,-1996.5035C744.0343,-1971.2009 697.2122,-1471.6446 607,-1370 517.5662,-1269.2325 395.4338,-1434.7675 306,-1334 277.5306,-1301.9227 263.1111,-1237.5 306,-1237.5"/>
<polygon fill="#000000" stroke="#000000" points="616.9532,-1996.5336 606.5651,-1993.0211 611.9766,-1997.0168 607,-1997.5 607,-1997.5 607,-1997.5 611.9766,-1997.0168 607.4349,-2001.9789 616.9532,-1996.5336 616.9532,-1996.5336"/>
<text text-anchor="start" x="614.4045" y="-2007.5" font-family="Arial" font-size="10.00" fill="#000000">FOREIGN KEY (&quot;serviceVariantID&quot;) REFERENCES &quot;serviceVariants&quot;(&quot;serviceVariantID&quot;) ON DELETE CASCADE</text>
</g>
</g>
</svg>
