<?xml version="1.0" encoding="UTF-8" standalone="no"?>
<!DOCTYPE svg PUBLIC "-//W3C//DTD SVG 1.1//EN"
 "http://www.w3.org/Graphics/SVG/1.1/DTD/svg11.dtd">
<!-- Generated by graphviz version 2.40.1 (20161225.0304)
 -->
<!-- Title: public.orderServices Pages: 1 -->
<svg width="1659pt" height="1642pt"
 viewBox="0.00 0.00 1659.00 1642.00" xmlns="http://www.w3.org/2000/svg" xmlns:xlink="http://www.w3.org/1999/xlink">
<g id="graph0" class="graph" transform="scale(1 1) rotate(0) translate(4 1638)">
<title>public.orderServices</title>
<polygon fill="#ffffff" stroke="transparent" points="-4,4 -4,-1638 1655,-1638 1655,4 -4,4"/>
<!-- public.orderServices -->
<g id="node1" class="node">
<title>public.orderServices</title>
<polygon fill="#efefef" stroke="transparent" points="1301,-1552.5 1301,-1587.5 1605,-1587.5 1605,-1552.5 1301,-1552.5"/>
<polygon fill="none" stroke="#000000" points="1301,-1552.5 1301,-1587.5 1605,-1587.5 1605,-1552.5 1301,-1552.5"/>
<text text-anchor="start" x="1307.7084" y="-1565.3" font-family="Arial Bold" font-size="18.00" fill="#000000">public.orderServices</text>
<text text-anchor="start" x="1470.7236" y="-1565.3" font-family="Arial" font-size="14.00" fill="#000000">    </text>
<text text-anchor="start" x="1504.9284" y="-1565.3" font-family="Arial" font-size="14.00" fill="#666666">[BASE TABLE]</text>
<polygon fill="none" stroke="#000000" points="1301,-1522.5 1301,-1552.5 1605,-1552.5 1605,-1522.5 1301,-1522.5"/>
<text text-anchor="start" x="1308" y="-1533.9" font-family="Arial" font-size="14.00" fill="#000000">orderID </text>
<text text-anchor="start" x="1358.5568" y="-1533.9" font-family="Arial" font-size="14.00" fill="#666666">[integer]</text>
<polygon fill="none" stroke="#000000" points="1301,-1492.5 1301,-1522.5 1605,-1522.5 1605,-1492.5 1301,-1492.5"/>
<text text-anchor="start" x="1308" y="-1503.9" font-family="Arial" font-size="14.00" fill="#000000">serviceID </text>
<text text-anchor="start" x="1370.2202" y="-1503.9" font-family="Arial" font-size="14.00" fill="#666666">[integer]</text>
<polygon fill="none" stroke="#000000" points="1301,-1462.5 1301,-1492.5 1605,-1492.5 1605,-1462.5 1301,-1462.5"/>
<text text-anchor="start" x="1308" y="-1473.9" font-family="Arial" font-size="14.00" fill="#000000">serviceVariantID </text>
<text text-anchor="start" x="1414.5624" y="-1473.9" font-family="Arial" font-size="14.00" fill="#666666">[integer]</text>
<polygon fill="none" stroke="#000000" points="1301,-1432.5 1301,-1462.5 1605,-1462.5 1605,-1432.5 1301,-1432.5"/>
<text text-anchor="start" x="1308" y="-1443.9" font-family="Arial" font-size="14.00" fill="#000000">day1 </text>
<text text-anchor="start" x="1342.2384" y="-1443.9" font-family="Arial" font-size="14.00" fill="#666666">[timestamp without time zone]</text>
<polygon fill="none" stroke="#000000" points="1301,-1402.5 1301,-1432.5 1605,-1432.5 1605,-1402.5 1301,-1402.5"/>
<text text-anchor="start" x="1308" y="-1413.9" font-family="Arial" font-size="14.00" fill="#000000">day1Work </text>
<text text-anchor="start" x="1374.8962" y="-1413.9" font-family="Arial" font-size="14.00" fill="#666666">[interval]</text>
<polygon fill="none" stroke="#000000" points="1301,-1372.5 1301,-1402.5 1605,-1402.5 1605,-1372.5 1301,-1372.5"/>
<text text-anchor="start" x="1308" y="-1383.9" font-family="Arial" font-size="14.00" fill="#000000">day1Employee </text>
<text text-anchor="start" x="1404.4726" y="-1383.9" font-family="Arial" font-size="14.00" fill="#666666">[integer]</text>
<polygon fill="none" stroke="#000000" points="1301,-1342.5 1301,-1372.5 1605,-1372.5 1605,-1342.5 1301,-1342.5"/>
<text text-anchor="start" x="1308" y="-1353.9" font-family="Arial" font-size="14.00" fill="#000000">day2 </text>
<text text-anchor="start" x="1342.2384" y="-1353.9" font-family="Arial" font-size="14.00" fill="#666666">[timestamp without time zone]</text>
<polygon fill="none" stroke="#000000" points="1301,-1312.5 1301,-1342.5 1605,-1342.5 1605,-1312.5 1301,-1312.5"/>
<text text-anchor="start" x="1308" y="-1323.9" font-family="Arial" font-size="14.00" fill="#000000">day3 </text>
<text text-anchor="start" x="1342.2384" y="-1323.9" font-family="Arial" font-size="14.00" fill="#666666">[timestamp without time zone]</text>
<polygon fill="none" stroke="#000000" points="1301,-1282.5 1301,-1312.5 1605,-1312.5 1605,-1282.5 1301,-1282.5"/>
<text text-anchor="start" x="1308" y="-1293.9" font-family="Arial" font-size="14.00" fill="#000000">day4 </text>
<text text-anchor="start" x="1342.2384" y="-1293.9" font-family="Arial" font-size="14.00" fill="#666666">[timestamp without time zone]</text>
<polygon fill="none" stroke="#000000" points="1301,-1252.5 1301,-1282.5 1605,-1282.5 1605,-1252.5 1301,-1252.5"/>
<text text-anchor="start" x="1308" y="-1263.9" font-family="Arial" font-size="14.00" fill="#000000">day5 </text>
<text text-anchor="start" x="1342.2384" y="-1263.9" font-family="Arial" font-size="14.00" fill="#666666">[timestamp without time zone]</text>
<polygon fill="none" stroke="#000000" points="1301,-1222.5 1301,-1252.5 1605,-1252.5 1605,-1222.5 1301,-1222.5"/>
<text text-anchor="start" x="1308" y="-1233.9" font-family="Arial" font-size="14.00" fill="#000000">cost </text>
<text text-anchor="start" x="1337.5638" y="-1233.9" font-family="Arial" font-size="14.00" fill="#666666">[real]</text>
<polygon fill="none" stroke="#000000" points="1301,-1192.5 1301,-1222.5 1605,-1222.5 1605,-1192.5 1301,-1192.5"/>
<text text-anchor="start" x="1308" y="-1203.9" font-family="Arial" font-size="14.00" fill="#000000">vatFree </text>
<text text-anchor="start" x="1359.3422" y="-1203.9" font-family="Arial" font-size="14.00" fill="#666666">[boolean]</text>
<polygon fill="none" stroke="#000000" points="1301,-1162.5 1301,-1192.5 1605,-1192.5 1605,-1162.5 1301,-1162.5"/>
<text text-anchor="start" x="1308" y="-1173.9" font-family="Arial" font-size="14.00" fill="#000000">orderNotes </text>
<text text-anchor="start" x="1381.122" y="-1173.9" font-family="Arial" font-size="14.00" fill="#666666">[varchar]</text>
<polygon fill="none" stroke="#000000" points="1301,-1132.5 1301,-1162.5 1605,-1162.5 1605,-1132.5 1301,-1132.5"/>
<text text-anchor="start" x="1308" y="-1143.9" font-family="Arial" font-size="14.00" fill="#000000">amount </text>
<text text-anchor="start" x="1358.5722" y="-1143.9" font-family="Arial" font-size="14.00" fill="#666666">[integer]</text>
<polygon fill="none" stroke="#000000" points="1301,-1102.5 1301,-1132.5 1605,-1132.5 1605,-1102.5 1301,-1102.5"/>
<text text-anchor="start" x="1308" y="-1113.9" font-family="Arial" font-size="14.00" fill="#000000">day2Employee </text>
<text text-anchor="start" x="1404.4726" y="-1113.9" font-family="Arial" font-size="14.00" fill="#666666">[integer]</text>
<polygon fill="none" stroke="#000000" points="1301,-1072.5 1301,-1102.5 1605,-1102.5 1605,-1072.5 1301,-1072.5"/>
<text text-anchor="start" x="1308" y="-1083.9" font-family="Arial" font-size="14.00" fill="#000000">day3Employee </text>
<text text-anchor="start" x="1404.4726" y="-1083.9" font-family="Arial" font-size="14.00" fill="#666666">[integer]</text>
<polygon fill="none" stroke="#000000" points="1301,-1042.5 1301,-1072.5 1605,-1072.5 1605,-1042.5 1301,-1042.5"/>
<text text-anchor="start" x="1308" y="-1053.9" font-family="Arial" font-size="14.00" fill="#000000">day4Employee </text>
<text text-anchor="start" x="1404.4726" y="-1053.9" font-family="Arial" font-size="14.00" fill="#666666">[integer]</text>
<polygon fill="none" stroke="#000000" points="1301,-1012.5 1301,-1042.5 1605,-1042.5 1605,-1012.5 1301,-1012.5"/>
<text text-anchor="start" x="1308" y="-1023.9" font-family="Arial" font-size="14.00" fill="#000000">day5Employee </text>
<text text-anchor="start" x="1404.4726" y="-1023.9" font-family="Arial" font-size="14.00" fill="#666666">[integer]</text>
<polygon fill="none" stroke="#000000" points="1301,-982.5 1301,-1012.5 1605,-1012.5 1605,-982.5 1301,-982.5"/>
<text text-anchor="start" x="1308" y="-993.9" font-family="Arial" font-size="14.00" fill="#000000">name </text>
<text text-anchor="start" x="1346.899" y="-993.9" font-family="Arial" font-size="14.00" fill="#666666">[varchar(256)]</text>
<polygon fill="none" stroke="#000000" points="1301,-952.5 1301,-982.5 1605,-982.5 1605,-952.5 1301,-952.5"/>
<text text-anchor="start" x="1308" y="-963.9" font-family="Arial" font-size="14.00" fill="#000000">currency </text>
<text text-anchor="start" x="1365.5596" y="-963.9" font-family="Arial" font-size="14.00" fill="#666666">[varchar]</text>
<polygon fill="none" stroke="#000000" points="1301,-922.5 1301,-952.5 1605,-952.5 1605,-922.5 1301,-922.5"/>
<text text-anchor="start" x="1308" y="-933.9" font-family="Arial" font-size="14.00" fill="#000000">day2Work </text>
<text text-anchor="start" x="1374.8962" y="-933.9" font-family="Arial" font-size="14.00" fill="#666666">[interval]</text>
<polygon fill="none" stroke="#000000" points="1301,-892.5 1301,-922.5 1605,-922.5 1605,-892.5 1301,-892.5"/>
<text text-anchor="start" x="1308" y="-903.9" font-family="Arial" font-size="14.00" fill="#000000">day3Work </text>
<text text-anchor="start" x="1374.8962" y="-903.9" font-family="Arial" font-size="14.00" fill="#666666">[interval]</text>
<polygon fill="none" stroke="#000000" points="1301,-862.5 1301,-892.5 1605,-892.5 1605,-862.5 1301,-862.5"/>
<text text-anchor="start" x="1308" y="-873.9" font-family="Arial" font-size="14.00" fill="#000000">day4Work </text>
<text text-anchor="start" x="1374.8962" y="-873.9" font-family="Arial" font-size="14.00" fill="#666666">[interval]</text>
<polygon fill="none" stroke="#000000" points="1301,-832.5 1301,-862.5 1605,-862.5 1605,-832.5 1301,-832.5"/>
<text text-anchor="start" x="1308" y="-843.9" font-family="Arial" font-size="14.00" fill="#000000">day5Work </text>
<text text-anchor="start" x="1374.8962" y="-843.9" font-family="Arial" font-size="14.00" fill="#666666">[interval]</text>
<polygon fill="none" stroke="#000000" stroke-width="3" points="1299.5,-831.5 1299.5,-1589.5 1606.5,-1589.5 1606.5,-831.5 1299.5,-831.5"/>
</g>
<!-- public.orders -->
<g id="node2" class="node">
<title>public.orders</title>
<polygon fill="#efefef" stroke="transparent" points="43,-567.5 43,-602.5 377,-602.5 377,-567.5 43,-567.5"/>
<polygon fill="none" stroke="#000000" points="43,-567.5 43,-602.5 377,-602.5 377,-567.5 43,-567.5"/>
<text text-anchor="start" x="94.7099" y="-580.3" font-family="Arial Bold" font-size="18.00" fill="#000000">public.orders</text>
<text text-anchor="start" x="197.7221" y="-580.3" font-family="Arial" font-size="14.00" fill="#000000">    </text>
<text text-anchor="start" x="231.9269" y="-580.3" font-family="Arial" font-size="14.00" fill="#666666">[BASE TABLE]</text>
<polygon fill="none" stroke="#000000" points="43,-537.5 43,-567.5 377,-567.5 377,-537.5 43,-537.5"/>
<text text-anchor="start" x="50" y="-548.9" font-family="Arial" font-size="14.00" fill="#000000">orderID    </text>
<text text-anchor="start" x="130.871" y="-548.9" font-family="Arial" font-size="14.00" fill="#666666">[integer]</text>
<polygon fill="none" stroke="#000000" points="43,-507.5 43,-537.5 377,-537.5 377,-507.5 43,-507.5"/>
<text text-anchor="start" x="50" y="-518.9" font-family="Arial" font-size="14.00" fill="#000000">driverCarID    </text>
<text text-anchor="start" x="155.7448" y="-518.9" font-family="Arial" font-size="14.00" fill="#666666">[integer]</text>
<polygon fill="none" stroke="#000000" points="43,-477.5 43,-507.5 377,-507.5 377,-477.5 43,-477.5"/>
<text text-anchor="start" x="50" y="-488.9" font-family="Arial" font-size="14.00" fill="#000000">driverID    </text>
<text text-anchor="start" x="133.195" y="-488.9" font-family="Arial" font-size="14.00" fill="#666666">[integer]</text>
<polygon fill="none" stroke="#000000" points="43,-447.5 43,-477.5 377,-477.5 377,-447.5 43,-447.5"/>
<text text-anchor="start" x="50" y="-458.9" font-family="Arial" font-size="14.00" fill="#000000">storeID    </text>
<text text-anchor="start" x="129.3184" y="-458.9" font-family="Arial" font-size="14.00" fill="#666666">[integer]</text>
<polygon fill="none" stroke="#000000" points="43,-417.5 43,-447.5 377,-447.5 377,-417.5 43,-417.5"/>
<text text-anchor="start" x="50" y="-428.9" font-family="Arial" font-size="14.00" fill="#000000">orderNotes    </text>
<text text-anchor="start" x="153.4362" y="-428.9" font-family="Arial" font-size="14.00" fill="#666666">[varchar]</text>
<polygon fill="none" stroke="#000000" points="43,-387.5 43,-417.5 377,-417.5 377,-387.5 43,-387.5"/>
<text text-anchor="start" x="50" y="-398.9" font-family="Arial" font-size="14.00" fill="#000000">employeeID    </text>
<text text-anchor="start" x="158.8822" y="-398.9" font-family="Arial" font-size="14.00" fill="#666666">[integer]</text>
<polygon fill="none" stroke="#000000" points="43,-357.5 43,-387.5 377,-387.5 377,-357.5 43,-357.5"/>
<text text-anchor="start" x="49.7742" y="-368.9" font-family="Arial" font-size="14.00" fill="#000000">submissionTime    </text>
<text text-anchor="start" x="185.0856" y="-368.9" font-family="Arial" font-size="14.00" fill="#666666">[timestamp without time zone]</text>
<polygon fill="none" stroke="#000000" points="43,-327.5 43,-357.5 377,-357.5 377,-327.5 43,-327.5"/>
<text text-anchor="start" x="50" y="-338.9" font-family="Arial" font-size="14.00" fill="#000000">vatFree    </text>
<text text-anchor="start" x="131.6564" y="-338.9" font-family="Arial" font-size="14.00" fill="#666666">[boolean]</text>
<polygon fill="none" stroke="#000000" points="43,-297.5 43,-327.5 377,-327.5 377,-297.5 43,-297.5"/>
<text text-anchor="start" x="50" y="-308.9" font-family="Arial" font-size="14.00" fill="#000000">orderStatus    </text>
<text text-anchor="start" x="156.5568" y="-308.9" font-family="Arial" font-size="14.00" fill="#666666">[&quot;orderStatus&quot;]</text>
<polygon fill="none" stroke="#000000" points="43,-267.5 43,-297.5 377,-297.5 377,-267.5 43,-267.5"/>
<text text-anchor="start" x="50" y="-278.9" font-family="Arial" font-size="14.00" fill="#000000">currency    </text>
<text text-anchor="start" x="137.8738" y="-278.9" font-family="Arial" font-size="14.00" fill="#666666">[varchar]</text>
<polygon fill="none" stroke="#000000" points="43,-237.5 43,-267.5 377,-267.5 377,-237.5 43,-237.5"/>
<text text-anchor="start" x="50" y="-248.9" font-family="Arial" font-size="14.00" fill="#000000">discount    </text>
<text text-anchor="start" x="136.3324" y="-248.9" font-family="Arial" font-size="14.00" fill="#666666">[real]</text>
<polygon fill="none" stroke="#000000" points="43,-207.5 43,-237.5 377,-237.5 377,-207.5 43,-207.5"/>
<text text-anchor="start" x="50" y="-218.9" font-family="Arial" font-size="14.00" fill="#000000">createdAt    </text>
<text text-anchor="start" x="144.1136" y="-218.9" font-family="Arial" font-size="14.00" fill="#666666">[timestamp without time zone]</text>
<polygon fill="none" stroke="#000000" points="43,-177.5 43,-207.5 377,-207.5 377,-177.5 43,-177.5"/>
<text text-anchor="start" x="50" y="-188.9" font-family="Arial" font-size="14.00" fill="#000000">updatedAt    </text>
<text text-anchor="start" x="148.0182" y="-188.9" font-family="Arial" font-size="14.00" fill="#666666">[timestamp without time zone]</text>
<polygon fill="none" stroke="#000000" points="43,-147.5 43,-177.5 377,-177.5 377,-147.5 43,-147.5"/>
<text text-anchor="start" x="50" y="-158.9" font-family="Arial" font-size="14.00" fill="#000000">pickupTime    </text>
<text text-anchor="start" x="155.7616" y="-158.9" font-family="Arial" font-size="14.00" fill="#666666">[timestamp without time zone]</text>
</g>
<!-- public.orderServices&#45;&gt;public.orders -->
<g id="edge1" class="edge">
<title>public.orderServices:orderID&#45;&gt;public.orders:orderID</title>
<path fill="none" stroke="#000000" d="M1290.7366,-1537.4557C778.044,-1533.0048 698.4729,-1193.9374 429,-751 381.5994,-673.0868 468.1991,-552.5 377,-552.5"/>
<polygon fill="#000000" stroke="#000000" points="1291.0001,-1537.4567 1300.9805,-1542 1296,-1537.4784 1301,-1537.5 1301,-1537.5 1301,-1537.5 1296,-1537.4784 1301.0195,-1533 1291.0001,-1537.4567 1291.0001,-1537.4567"/>
<text text-anchor="start" x="915.9595" y="-1547.5" font-family="Arial" font-size="10.00" fill="#000000">FOREIGN KEY (&quot;orderID&quot;) REFERENCES orders(&quot;orderID&quot;) ON DELETE CASCADE</text>
</g>
<!-- public.services -->
<g id="node3" class="node">
<title>public.services</title>
<polygon fill="#efefef" stroke="transparent" points="482,-672.5 482,-707.5 779,-707.5 779,-672.5 482,-672.5"/>
<polygon fill="none" stroke="#000000" points="482,-672.5 482,-707.5 779,-707.5 779,-672.5 482,-672.5"/>
<text text-anchor="start" x="507.712" y="-685.3" font-family="Arial Bold" font-size="18.00" fill="#000000">public.services</text>
<text text-anchor="start" x="625.72" y="-685.3" font-family="Arial" font-size="14.00" fill="#000000">    </text>
<text text-anchor="start" x="659.9248" y="-685.3" font-family="Arial" font-size="14.00" fill="#666666">[BASE TABLE]</text>
<polygon fill="none" stroke="#000000" points="482,-642.5 482,-672.5 779,-672.5 779,-642.5 482,-642.5"/>
<text text-anchor="start" x="489" y="-653.9" font-family="Arial" font-size="14.00" fill="#000000">serviceID    </text>
<text text-anchor="start" x="581.5344" y="-653.9" font-family="Arial" font-size="14.00" fill="#666666">[integer]</text>
<polygon fill="none" stroke="#000000" points="482,-612.5 482,-642.5 779,-642.5 779,-612.5 482,-612.5"/>
<text text-anchor="start" x="489" y="-623.9" font-family="Arial" font-size="14.00" fill="#000000">name    </text>
<text text-anchor="start" x="558.2132" y="-623.9" font-family="Arial" font-size="14.00" fill="#666666">[varchar(256)]</text>
<polygon fill="none" stroke="#000000" points="482,-582.5 482,-612.5 779,-612.5 779,-582.5 482,-582.5"/>
<text text-anchor="start" x="489" y="-593.9" font-family="Arial" font-size="14.00" fill="#000000">serviceCategoryID    </text>
<text text-anchor="start" x="638.3226" y="-593.9" font-family="Arial" font-size="14.00" fill="#666666">[integer]</text>
<polygon fill="none" stroke="#000000" points="482,-552.5 482,-582.5 779,-582.5 779,-552.5 482,-552.5"/>
<text text-anchor="start" x="489" y="-563.9" font-family="Arial" font-size="14.00" fill="#000000">currency    </text>
<text text-anchor="start" x="576.8738" y="-563.9" font-family="Arial" font-size="14.00" fill="#666666">[varchar(5)]</text>
<polygon fill="none" stroke="#000000" points="482,-522.5 482,-552.5 779,-552.5 779,-522.5 482,-522.5"/>
<text text-anchor="start" x="489" y="-533.9" font-family="Arial" font-size="14.00" fill="#000000">cost    </text>
<text text-anchor="start" x="548.878" y="-533.9" font-family="Arial" font-size="14.00" fill="#666666">[real]</text>
<polygon fill="none" stroke="#000000" points="482,-492.5 482,-522.5 779,-522.5 779,-492.5 482,-492.5"/>
<text text-anchor="start" x="489" y="-503.9" font-family="Arial" font-size="14.00" fill="#000000">includeInAutomaticSms    </text>
<text text-anchor="start" x="669.4516" y="-503.9" font-family="Arial" font-size="14.00" fill="#666666">[boolean]</text>
<polygon fill="none" stroke="#000000" points="482,-462.5 482,-492.5 779,-492.5 779,-462.5 482,-462.5"/>
<text text-anchor="start" x="489" y="-473.9" font-family="Arial" font-size="14.00" fill="#000000">hidden    </text>
<text text-anchor="start" x="565.2244" y="-473.9" font-family="Arial" font-size="14.00" fill="#666666">[boolean]</text>
<polygon fill="none" stroke="#000000" points="482,-432.5 482,-462.5 779,-462.5 779,-432.5 482,-432.5"/>
<text text-anchor="start" x="489" y="-443.9" font-family="Arial" font-size="14.00" fill="#000000">callInterval    </text>
<text text-anchor="start" x="590.0968" y="-443.9" font-family="Arial" font-size="14.00" fill="#666666">[integer]</text>
<polygon fill="none" stroke="#000000" points="482,-402.5 482,-432.5 779,-432.5 779,-402.5 482,-402.5"/>
<text text-anchor="start" x="489" y="-413.9" font-family="Arial" font-size="14.00" fill="#000000">colorForService    </text>
<text text-anchor="start" x="621.202" y="-413.9" font-family="Arial" font-size="14.00" fill="#666666">[varchar]</text>
<polygon fill="none" stroke="#000000" points="482,-372.5 482,-402.5 779,-402.5 779,-372.5 482,-372.5"/>
<text text-anchor="start" x="489" y="-383.9" font-family="Arial" font-size="14.00" fill="#000000">warrantyCard    </text>
<text text-anchor="start" x="607.2034" y="-383.9" font-family="Arial" font-size="14.00" fill="#666666">[boolean]</text>
<polygon fill="none" stroke="#000000" points="482,-342.5 482,-372.5 779,-372.5 779,-342.5 482,-342.5"/>
<text text-anchor="start" x="489" y="-353.9" font-family="Arial" font-size="14.00" fill="#000000">itemNumber    </text>
<text text-anchor="start" x="599.4208" y="-353.9" font-family="Arial" font-size="14.00" fill="#666666">[varchar(256)]</text>
<polygon fill="none" stroke="#000000" points="482,-312.5 482,-342.5 779,-342.5 779,-312.5 482,-312.5"/>
<text text-anchor="start" x="489" y="-323.9" font-family="Arial" font-size="14.00" fill="#000000">award    </text>
<text text-anchor="start" x="561.3198" y="-323.9" font-family="Arial" font-size="14.00" fill="#666666">[real]</text>
<polygon fill="none" stroke="#000000" points="482,-282.5 482,-312.5 779,-312.5 779,-282.5 482,-282.5"/>
<text text-anchor="start" x="489" y="-293.9" font-family="Arial" font-size="14.00" fill="#000000">suppliersArticleNumber    </text>
<text text-anchor="start" x="667.8682" y="-293.9" font-family="Arial" font-size="14.00" fill="#666666">[varchar(256)]</text>
<polygon fill="none" stroke="#000000" points="482,-252.5 482,-282.5 779,-282.5 779,-252.5 482,-252.5"/>
<text text-anchor="start" x="489" y="-263.9" font-family="Arial" font-size="14.00" fill="#000000">externalArticleNumber    </text>
<text text-anchor="start" x="661.6522" y="-263.9" font-family="Arial" font-size="14.00" fill="#666666">[varchar(256)]</text>
<polygon fill="none" stroke="#000000" points="482,-222.5 482,-252.5 779,-252.5 779,-222.5 482,-222.5"/>
<text text-anchor="start" x="489" y="-233.9" font-family="Arial" font-size="14.00" fill="#000000">day1    </text>
<text text-anchor="start" x="553.5526" y="-233.9" font-family="Arial" font-size="14.00" fill="#666666">[interval]</text>
<polygon fill="none" stroke="#000000" points="482,-192.5 482,-222.5 779,-222.5 779,-192.5 482,-192.5"/>
<text text-anchor="start" x="489" y="-203.9" font-family="Arial" font-size="14.00" fill="#000000">day2    </text>
<text text-anchor="start" x="553.5526" y="-203.9" font-family="Arial" font-size="14.00" fill="#666666">[interval]</text>
<polygon fill="none" stroke="#000000" points="482,-162.5 482,-192.5 779,-192.5 779,-162.5 482,-162.5"/>
<text text-anchor="start" x="489" y="-173.9" font-family="Arial" font-size="14.00" fill="#000000">day3    </text>
<text text-anchor="start" x="553.5526" y="-173.9" font-family="Arial" font-size="14.00" fill="#666666">[interval]</text>
<polygon fill="none" stroke="#000000" points="482,-132.5 482,-162.5 779,-162.5 779,-132.5 482,-132.5"/>
<text text-anchor="start" x="489" y="-143.9" font-family="Arial" font-size="14.00" fill="#000000">day4    </text>
<text text-anchor="start" x="553.5526" y="-143.9" font-family="Arial" font-size="14.00" fill="#666666">[interval]</text>
<polygon fill="none" stroke="#000000" points="482,-102.5 482,-132.5 779,-132.5 779,-102.5 482,-102.5"/>
<text text-anchor="start" x="489" y="-113.9" font-family="Arial" font-size="14.00" fill="#000000">day5    </text>
<text text-anchor="start" x="553.5526" y="-113.9" font-family="Arial" font-size="14.00" fill="#666666">[interval]</text>
<polygon fill="none" stroke="#000000" points="482,-72.5 482,-102.5 779,-102.5 779,-72.5 482,-72.5"/>
<text text-anchor="start" x="489" y="-83.9" font-family="Arial" font-size="14.00" fill="#000000">createdAt    </text>
<text text-anchor="start" x="583.1136" y="-83.9" font-family="Arial" font-size="14.00" fill="#666666">[timestamp without time zone]</text>
<polygon fill="none" stroke="#000000" points="482,-42.5 482,-72.5 779,-72.5 779,-42.5 482,-42.5"/>
<text text-anchor="start" x="488.9208" y="-53.9" font-family="Arial" font-size="14.00" fill="#000000">updatedAt    </text>
<text text-anchor="start" x="586.939" y="-53.9" font-family="Arial" font-size="14.00" fill="#666666">[timestamp without time zone]</text>
</g>
<!-- public.orderServices&#45;&gt;public.services -->
<g id="edge2" class="edge">
<title>public.orderServices:serviceID&#45;&gt;public.services:serviceID</title>
<path fill="none" stroke="#000000" d="M1290.9669,-1507.4093C907.3102,-1500.4076 1029.9823,-1089.26 831,-751 806.8907,-710.0155 826.5498,-657.5 779,-657.5"/>
<polygon fill="#000000" stroke="#000000" points="1291.0004,-1507.4095 1300.9593,-1511.9998 1296.0002,-1507.4548 1301,-1507.5 1301,-1507.5 1301,-1507.5 1296.0002,-1507.4548 1301.0407,-1503.0002 1291.0004,-1507.4095 1291.0004,-1507.4095"/>
<text text-anchor="start" x="891.463" y="-1517.5" font-family="Arial" font-size="10.00" fill="#000000">FOREIGN KEY (&quot;serviceID&quot;) REFERENCES services(&quot;serviceID&quot;) ON DELETE CASCADE</text>
</g>
<!-- public.serviceVariants -->
<g id="node4" class="node">
<title>public.serviceVariants</title>
<polygon fill="#efefef" stroke="transparent" points="883,-552.5 883,-587.5 1199,-587.5 1199,-552.5 883,-552.5"/>
<polygon fill="none" stroke="#000000" points="883,-552.5 883,-587.5 1199,-587.5 1199,-552.5 883,-552.5"/>
<text text-anchor="start" x="889.7063" y="-565.3" font-family="Arial Bold" font-size="18.00" fill="#000000">public.serviceVariants</text>
<text text-anchor="start" x="1064.7257" y="-565.3" font-family="Arial" font-size="14.00" fill="#000000">    </text>
<text text-anchor="start" x="1098.9305" y="-565.3" font-family="Arial" font-size="14.00" fill="#666666">[BASE TABLE]</text>
<polygon fill="none" stroke="#000000" points="883,-522.5 883,-552.5 1199,-552.5 1199,-522.5 883,-522.5"/>
<text text-anchor="start" x="890" y="-533.9" font-family="Arial" font-size="14.00" fill="#000000">serviceVariantID    </text>
<text text-anchor="start" x="1026.8766" y="-533.9" font-family="Arial" font-size="14.00" fill="#666666">[integer]</text>
<polygon fill="none" stroke="#000000" points="883,-492.5 883,-522.5 1199,-522.5 1199,-492.5 883,-492.5"/>
<text text-anchor="start" x="890" y="-503.9" font-family="Arial" font-size="14.00" fill="#000000">name    </text>
<text text-anchor="start" x="959.2132" y="-503.9" font-family="Arial" font-size="14.00" fill="#666666">[varchar(256)]</text>
<polygon fill="none" stroke="#000000" points="883,-462.5 883,-492.5 1199,-492.5 1199,-462.5 883,-462.5"/>
<text text-anchor="start" x="890" y="-473.9" font-family="Arial" font-size="14.00" fill="#000000">cost    </text>
<text text-anchor="start" x="949.878" y="-473.9" font-family="Arial" font-size="14.00" fill="#666666">[real]</text>
<polygon fill="none" stroke="#000000" points="883,-432.5 883,-462.5 1199,-462.5 1199,-432.5 883,-432.5"/>
<text text-anchor="start" x="890" y="-443.9" font-family="Arial" font-size="14.00" fill="#000000">currency    </text>
<text text-anchor="start" x="977.8738" y="-443.9" font-family="Arial" font-size="14.00" fill="#666666">[varchar(5)]</text>
<polygon fill="none" stroke="#000000" points="883,-402.5 883,-432.5 1199,-432.5 1199,-402.5 883,-402.5"/>
<text text-anchor="start" x="890" y="-413.9" font-family="Arial" font-size="14.00" fill="#000000">award    </text>
<text text-anchor="start" x="962.3198" y="-413.9" font-family="Arial" font-size="14.00" fill="#666666">[real]</text>
<polygon fill="none" stroke="#000000" points="883,-372.5 883,-402.5 1199,-402.5 1199,-372.5 883,-372.5"/>
<text text-anchor="start" x="890" y="-383.9" font-family="Arial" font-size="14.00" fill="#000000">day1    </text>
<text text-anchor="start" x="954.5526" y="-383.9" font-family="Arial" font-size="14.00" fill="#666666">[interval]</text>
<polygon fill="none" stroke="#000000" points="883,-342.5 883,-372.5 1199,-372.5 1199,-342.5 883,-342.5"/>
<text text-anchor="start" x="890" y="-353.9" font-family="Arial" font-size="14.00" fill="#000000">day2    </text>
<text text-anchor="start" x="954.5526" y="-353.9" font-family="Arial" font-size="14.00" fill="#666666">[interval]</text>
<polygon fill="none" stroke="#000000" points="883,-312.5 883,-342.5 1199,-342.5 1199,-312.5 883,-312.5"/>
<text text-anchor="start" x="890" y="-323.9" font-family="Arial" font-size="14.00" fill="#000000">day3    </text>
<text text-anchor="start" x="954.5526" y="-323.9" font-family="Arial" font-size="14.00" fill="#666666">[interval]</text>
<polygon fill="none" stroke="#000000" points="883,-282.5 883,-312.5 1199,-312.5 1199,-282.5 883,-282.5"/>
<text text-anchor="start" x="890" y="-293.9" font-family="Arial" font-size="14.00" fill="#000000">day4    </text>
<text text-anchor="start" x="954.5526" y="-293.9" font-family="Arial" font-size="14.00" fill="#666666">[interval]</text>
<polygon fill="none" stroke="#000000" points="883,-252.5 883,-282.5 1199,-282.5 1199,-252.5 883,-252.5"/>
<text text-anchor="start" x="890" y="-263.9" font-family="Arial" font-size="14.00" fill="#000000">day5    </text>
<text text-anchor="start" x="954.5526" y="-263.9" font-family="Arial" font-size="14.00" fill="#666666">[interval]</text>
<polygon fill="none" stroke="#000000" points="883,-222.5 883,-252.5 1199,-252.5 1199,-222.5 883,-222.5"/>
<text text-anchor="start" x="890" y="-233.9" font-family="Arial" font-size="14.00" fill="#000000">serviceID    </text>
<text text-anchor="start" x="982.5344" y="-233.9" font-family="Arial" font-size="14.00" fill="#666666">[integer]</text>
<polygon fill="none" stroke="#000000" points="883,-192.5 883,-222.5 1199,-222.5 1199,-192.5 883,-192.5"/>
<text text-anchor="start" x="890" y="-203.9" font-family="Arial" font-size="14.00" fill="#000000">createdAt    </text>
<text text-anchor="start" x="984.1136" y="-203.9" font-family="Arial" font-size="14.00" fill="#666666">[timestamp without time zone]</text>
<polygon fill="none" stroke="#000000" points="883,-162.5 883,-192.5 1199,-192.5 1199,-162.5 883,-162.5"/>
<text text-anchor="start" x="890" y="-173.9" font-family="Arial" font-size="14.00" fill="#000000">updatedAt    </text>
<text text-anchor="start" x="988.0182" y="-173.9" font-family="Arial" font-size="14.00" fill="#666666">[timestamp without time zone]</text>
</g>
<!-- public.orderServices&#45;&gt;public.serviceVariants -->
<g id="edge3" class="edge">
<title>public.orderServices:serviceVariantID&#45;&gt;public.serviceVariants:serviceVariantID</title>
<path fill="none" stroke="#000000" d="M1291.2247,-1474.4599C1202.887,-1416.1144 1300.5693,-537.5 1199,-537.5"/>
<polygon fill="#000000" stroke="#000000" points="1291.4511,-1474.5303 1299.6636,-1481.797 1296.2256,-1476.0151 1301,-1477.5 1301,-1477.5 1301,-1477.5 1296.2256,-1476.0151 1302.3364,-1473.203 1291.4511,-1474.5303 1291.4511,-1474.5303"/>
<text text-anchor="start" x="789.4045" y="-1487.5" font-family="Arial" font-size="10.00" fill="#000000">FOREIGN KEY (&quot;serviceVariantID&quot;) REFERENCES &quot;serviceVariants&quot;(&quot;serviceVariantID&quot;) ON DELETE CASCADE</text>
</g>
<!-- public.employees -->
<g id="node5" class="node">
<title>public.employees</title>
<polygon fill="#efefef" stroke="transparent" points="1304,-552.5 1304,-587.5 1601,-587.5 1601,-552.5 1304,-552.5"/>
<polygon fill="none" stroke="#000000" points="1304,-552.5 1304,-587.5 1601,-587.5 1601,-552.5 1304,-552.5"/>
<text text-anchor="start" x="1319.2027" y="-565.3" font-family="Arial Bold" font-size="18.00" fill="#000000">public.employees</text>
<text text-anchor="start" x="1458.2293" y="-565.3" font-family="Arial" font-size="14.00" fill="#000000">    </text>
<text text-anchor="start" x="1492.4341" y="-565.3" font-family="Arial" font-size="14.00" fill="#666666">[BASE TABLE]</text>
<polygon fill="none" stroke="#000000" points="1304,-522.5 1304,-552.5 1601,-552.5 1601,-522.5 1304,-522.5"/>
<text text-anchor="start" x="1311" y="-533.9" font-family="Arial" font-size="14.00" fill="#000000">userID    </text>
<text text-anchor="start" x="1386.4278" y="-533.9" font-family="Arial" font-size="14.00" fill="#666666">[integer]</text>
<polygon fill="none" stroke="#000000" points="1304,-492.5 1304,-522.5 1601,-522.5 1601,-492.5 1304,-492.5"/>
<text text-anchor="start" x="1311" y="-503.9" font-family="Arial" font-size="14.00" fill="#000000">employeeID    </text>
<text text-anchor="start" x="1419.8822" y="-503.9" font-family="Arial" font-size="14.00" fill="#666666">[integer]</text>
<polygon fill="none" stroke="#000000" points="1304,-462.5 1304,-492.5 1601,-492.5 1601,-462.5 1304,-462.5"/>
<text text-anchor="start" x="1311" y="-473.9" font-family="Arial" font-size="14.00" fill="#000000">shortUserName    </text>
<text text-anchor="start" x="1443.2034" y="-473.9" font-family="Arial" font-size="14.00" fill="#666666">[varchar(16)]</text>
<polygon fill="none" stroke="#000000" points="1304,-432.5 1304,-462.5 1601,-462.5 1601,-432.5 1304,-432.5"/>
<text text-anchor="start" x="1311" y="-443.9" font-family="Arial" font-size="14.00" fill="#000000">employmentNumber    </text>
<text text-anchor="start" x="1471.2118" y="-443.9" font-family="Arial" font-size="14.00" fill="#666666">[varchar(128)]</text>
<polygon fill="none" stroke="#000000" points="1304,-402.5 1304,-432.5 1601,-432.5 1601,-402.5 1304,-402.5"/>
<text text-anchor="start" x="1311" y="-413.9" font-family="Arial" font-size="14.00" fill="#000000">employeePersonalNumber    </text>
<text text-anchor="start" x="1510.8948" y="-413.9" font-family="Arial" font-size="14.00" fill="#666666">[varchar(16)]</text>
<polygon fill="none" stroke="#000000" points="1304,-372.5 1304,-402.5 1601,-402.5 1601,-372.5 1304,-372.5"/>
<text text-anchor="start" x="1311" y="-383.9" font-family="Arial" font-size="14.00" fill="#000000">signature    </text>
<text text-anchor="start" x="1402.7756" y="-383.9" font-family="Arial" font-size="14.00" fill="#666666">[varchar(4)]</text>
<polygon fill="none" stroke="#000000" points="1304,-342.5 1304,-372.5 1601,-372.5 1601,-342.5 1304,-342.5"/>
<text text-anchor="start" x="1311" y="-353.9" font-family="Arial" font-size="14.00" fill="#000000">employeeHourlyRate    </text>
<text text-anchor="start" x="1475.8864" y="-353.9" font-family="Arial" font-size="14.00" fill="#666666">[real]</text>
<polygon fill="none" stroke="#000000" points="1304,-312.5 1304,-342.5 1601,-342.5 1601,-312.5 1304,-312.5"/>
<text text-anchor="start" x="1311" y="-323.9" font-family="Arial" font-size="14.00" fill="#000000">employeeHourlyRateCurrency    </text>
<text text-anchor="start" x="1532.662" y="-323.9" font-family="Arial" font-size="14.00" fill="#666666">[varchar]</text>
<polygon fill="none" stroke="#000000" points="1304,-282.5 1304,-312.5 1601,-312.5 1601,-282.5 1304,-282.5"/>
<text text-anchor="start" x="1311" y="-293.9" font-family="Arial" font-size="14.00" fill="#000000">employeePin    </text>
<text text-anchor="start" x="1426.1108" y="-293.9" font-family="Arial" font-size="14.00" fill="#666666">[varchar(4)]</text>
<polygon fill="none" stroke="#000000" points="1304,-252.5 1304,-282.5 1601,-282.5 1601,-252.5 1304,-252.5"/>
<text text-anchor="start" x="1311" y="-263.9" font-family="Arial" font-size="14.00" fill="#000000">employeeComment    </text>
<text text-anchor="start" x="1466.5512" y="-263.9" font-family="Arial" font-size="14.00" fill="#666666">[varchar]</text>
<polygon fill="none" stroke="#000000" points="1304,-222.5 1304,-252.5 1601,-252.5 1601,-222.5 1304,-222.5"/>
<text text-anchor="start" x="1311" y="-233.9" font-family="Arial" font-size="14.00" fill="#000000">employeeActive    </text>
<text text-anchor="start" x="1444.0014" y="-233.9" font-family="Arial" font-size="14.00" fill="#666666">[boolean]</text>
<polygon fill="none" stroke="#000000" points="1304,-192.5 1304,-222.5 1601,-222.5 1601,-192.5 1304,-192.5"/>
<text text-anchor="start" x="1311" y="-203.9" font-family="Arial" font-size="14.00" fill="#000000">createdAt    </text>
<text text-anchor="start" x="1405.1136" y="-203.9" font-family="Arial" font-size="14.00" fill="#666666">[timestamp without time zone]</text>
<polygon fill="none" stroke="#000000" points="1304,-162.5 1304,-192.5 1601,-192.5 1601,-162.5 1304,-162.5"/>
<text text-anchor="start" x="1310.9208" y="-173.9" font-family="Arial" font-size="14.00" fill="#000000">updatedAt    </text>
<text text-anchor="start" x="1408.939" y="-173.9" font-family="Arial" font-size="14.00" fill="#666666">[timestamp without time zone]</text>
</g>
<!-- public.orderServices&#45;&gt;public.employees -->
<g id="edge4" class="edge">
<title>public.orderServices:day1Employee&#45;&gt;public.employees:employeeID</title>
<path fill="none" stroke="#000000" d="M1290.6496,-1387.307C1037.498,-1377.7069 1164.3203,-1012.1279 1301,-787 1378.9913,-658.5389 1523.0087,-759.4611 1601,-631 1629.4854,-584.0812 1655.8889,-507.5 1601,-507.5"/>
<polygon fill="#000000" stroke="#000000" points="1291.0017,-1387.3135 1300.9161,-1391.9992 1296.0009,-1387.4067 1301,-1387.5 1301,-1387.5 1301,-1387.5 1296.0009,-1387.4067 1301.0839,-1383.0008 1291.0017,-1387.3135 1291.0017,-1387.3135"/>
<text text-anchor="start" x="843.8285" y="-1397.5" font-family="Arial" font-size="10.00" fill="#000000">FOREIGN KEY (&quot;day1Employee&quot;) REFERENCES employees(&quot;employeeID&quot;) ON DELETE SET NULL</text>
</g>
<!-- public.orderServices&#45;&gt;public.employees -->
<g id="edge5" class="edge">
<title>public.orderServices:day2Employee&#45;&gt;public.employees:employeeID</title>
<path fill="none" stroke="#000000" d="M1290.6275,-1117.1377C1157.5646,-1107.5405 1226.631,-909.4946 1301,-787 1378.9913,-658.5389 1523.0087,-759.4611 1601,-631 1629.4854,-584.0812 1655.8889,-507.5 1601,-507.5"/>
<polygon fill="#000000" stroke="#000000" points="1291.0061,-1117.1508 1300.8429,-1121.9973 1296.003,-1117.3254 1301,-1117.5 1301,-1117.5 1301,-1117.5 1296.003,-1117.3254 1301.1571,-1113.0027 1291.0061,-1117.1508 1291.0061,-1117.1508"/>
<text text-anchor="start" x="843.8285" y="-1127.5" font-family="Arial" font-size="10.00" fill="#000000">FOREIGN KEY (&quot;day2Employee&quot;) REFERENCES employees(&quot;employeeID&quot;) ON DELETE SET NULL</text>
</g>
<!-- public.orderServices&#45;&gt;public.employees -->
<g id="edge6" class="edge">
<title>public.orderServices:day3Employee&#45;&gt;public.employees:employeeID</title>
<path fill="none" stroke="#000000" d="M1290.8446,-1087.1161C1170.8359,-1077.7238 1233.517,-898.1526 1301,-787 1378.9913,-658.5389 1523.0087,-759.4611 1601,-631 1629.4854,-584.0812 1655.8889,-507.5 1601,-507.5"/>
<polygon fill="#000000" stroke="#000000" points="1291.0071,-1087.1221 1300.83,-1091.9968 1296.0036,-1087.3111 1301,-1087.5 1301,-1087.5 1301,-1087.5 1296.0036,-1087.3111 1301.17,-1083.0032 1291.0071,-1087.1221 1291.0071,-1087.1221"/>
<text text-anchor="start" x="843.8285" y="-1097.5" font-family="Arial" font-size="10.00" fill="#000000">FOREIGN KEY (&quot;day3Employee&quot;) REFERENCES employees(&quot;employeeID&quot;) ON DELETE SET NULL</text>
</g>
<!-- public.orderServices&#45;&gt;public.employees -->
<g id="edge7" class="edge">
<title>public.orderServices:day4Employee&#45;&gt;public.employees:employeeID</title>
<path fill="none" stroke="#000000" d="M1290.8877,-1057.0739C1184.1702,-1047.7276 1240.4369,-886.7548 1301,-787 1378.9913,-658.5389 1523.0087,-759.4611 1601,-631 1629.4854,-584.0812 1655.8889,-507.5 1601,-507.5"/>
<polygon fill="#000000" stroke="#000000" points="1291.0089,-1057.079 1300.8105,-1061.996 1296.0044,-1057.2895 1301,-1057.5 1301,-1057.5 1301,-1057.5 1296.0044,-1057.2895 1301.1895,-1053.004 1291.0089,-1057.079 1291.0089,-1057.079"/>
<text text-anchor="start" x="843.8285" y="-1067.5" font-family="Arial" font-size="10.00" fill="#000000">FOREIGN KEY (&quot;day4Employee&quot;) REFERENCES employees(&quot;employeeID&quot;) ON DELETE SET NULL</text>
</g>
<!-- public.orderServices&#45;&gt;public.employees -->
<g id="edge8" class="edge">
<title>public.orderServices:day5Employee&#45;&gt;public.employees:employeeID</title>
<path fill="none" stroke="#000000" d="M1290.8708,-1027.0143C1197.53,-1017.6604 1247.3703,-875.3345 1301,-787 1378.9913,-658.5389 1523.0087,-759.4611 1601,-631 1629.4854,-584.0812 1655.8889,-507.5 1601,-507.5"/>
<polygon fill="#000000" stroke="#000000" points="1291.0115,-1027.021 1300.7844,-1031.9948 1296.0057,-1027.2605 1301,-1027.5 1301,-1027.5 1301,-1027.5 1296.0057,-1027.2605 1301.2156,-1023.0052 1291.0115,-1027.021 1291.0115,-1027.021"/>
<text text-anchor="start" x="843.8285" y="-1037.5" font-family="Arial" font-size="10.00" fill="#000000">FOREIGN KEY (&quot;day5Employee&quot;) REFERENCES employees(&quot;employeeID&quot;) ON DELETE SET NULL</text>
</g>
</g>
</svg>
