<?xml version="1.0" encoding="UTF-8" standalone="no"?>
<!DOCTYPE svg PUBLIC "-//W3C//DTD SVG 1.1//EN"
 "http://www.w3.org/Graphics/SVG/1.1/DTD/svg11.dtd">
<!-- Generated by graphviz version 2.40.1 (20161225.0304)
 -->
<!-- Title: public.orderServices Pages: 1 -->
<svg width="1652pt" height="1372pt"
 viewBox="0.00 0.00 1651.50 1372.00" xmlns="http://www.w3.org/2000/svg" xmlns:xlink="http://www.w3.org/1999/xlink">
<g id="graph0" class="graph" transform="scale(1 1) rotate(0) translate(4 1368)">
<title>public.orderServices</title>
<polygon fill="#ffffff" stroke="transparent" points="-4,4 -4,-1368 1647.5,-1368 1647.5,4 -4,4"/>
<!-- public.orderServices -->
<g id="node1" class="node">
<title>public.orderServices</title>
<polygon fill="#efefef" stroke="transparent" points="684,-1282.5 684,-1317.5 988,-1317.5 988,-1282.5 684,-1282.5"/>
<polygon fill="none" stroke="#000000" points="684,-1282.5 684,-1317.5 988,-1317.5 988,-1282.5 684,-1282.5"/>
<text text-anchor="start" x="690.7084" y="-1295.3" font-family="Arial Bold" font-size="18.00" fill="#000000">public.orderServices</text>
<text text-anchor="start" x="853.7236" y="-1295.3" font-family="Arial" font-size="14.00" fill="#000000">    </text>
<text text-anchor="start" x="887.9284" y="-1295.3" font-family="Arial" font-size="14.00" fill="#666666">[BASE TABLE]</text>
<polygon fill="none" stroke="#000000" points="684,-1252.5 684,-1282.5 988,-1282.5 988,-1252.5 684,-1252.5"/>
<text text-anchor="start" x="691" y="-1263.9" font-family="Arial" font-size="14.00" fill="#000000">orderID </text>
<text text-anchor="start" x="741.5568" y="-1263.9" font-family="Arial" font-size="14.00" fill="#666666">[integer]</text>
<polygon fill="none" stroke="#000000" points="684,-1222.5 684,-1252.5 988,-1252.5 988,-1222.5 684,-1222.5"/>
<text text-anchor="start" x="691" y="-1233.9" font-family="Arial" font-size="14.00" fill="#000000">serviceID </text>
<text text-anchor="start" x="753.2202" y="-1233.9" font-family="Arial" font-size="14.00" fill="#666666">[integer]</text>
<polygon fill="none" stroke="#000000" points="684,-1192.5 684,-1222.5 988,-1222.5 988,-1192.5 684,-1192.5"/>
<text text-anchor="start" x="691" y="-1203.9" font-family="Arial" font-size="14.00" fill="#000000">serviceVariantID </text>
<text text-anchor="start" x="797.5624" y="-1203.9" font-family="Arial" font-size="14.00" fill="#666666">[integer]</text>
<polygon fill="none" stroke="#000000" points="684,-1162.5 684,-1192.5 988,-1192.5 988,-1162.5 684,-1162.5"/>
<text text-anchor="start" x="691" y="-1173.9" font-family="Arial" font-size="14.00" fill="#000000">day1 </text>
<text text-anchor="start" x="725.2384" y="-1173.9" font-family="Arial" font-size="14.00" fill="#666666">[timestamp without time zone]</text>
<polygon fill="none" stroke="#000000" points="684,-1132.5 684,-1162.5 988,-1162.5 988,-1132.5 684,-1132.5"/>
<text text-anchor="start" x="691" y="-1143.9" font-family="Arial" font-size="14.00" fill="#000000">day1Work </text>
<text text-anchor="start" x="757.8962" y="-1143.9" font-family="Arial" font-size="14.00" fill="#666666">[interval]</text>
<polygon fill="none" stroke="#000000" points="684,-1102.5 684,-1132.5 988,-1132.5 988,-1102.5 684,-1102.5"/>
<text text-anchor="start" x="691" y="-1113.9" font-family="Arial" font-size="14.00" fill="#000000">employeeID </text>
<text text-anchor="start" x="769.568" y="-1113.9" font-family="Arial" font-size="14.00" fill="#666666">[integer]</text>
<polygon fill="none" stroke="#000000" points="684,-1072.5 684,-1102.5 988,-1102.5 988,-1072.5 684,-1072.5"/>
<text text-anchor="start" x="691" y="-1083.9" font-family="Arial" font-size="14.00" fill="#000000">day2 </text>
<text text-anchor="start" x="725.2384" y="-1083.9" font-family="Arial" font-size="14.00" fill="#666666">[timestamp without time zone]</text>
<polygon fill="none" stroke="#000000" points="684,-1042.5 684,-1072.5 988,-1072.5 988,-1042.5 684,-1042.5"/>
<text text-anchor="start" x="691" y="-1053.9" font-family="Arial" font-size="14.00" fill="#000000">day3 </text>
<text text-anchor="start" x="725.2384" y="-1053.9" font-family="Arial" font-size="14.00" fill="#666666">[timestamp without time zone]</text>
<polygon fill="none" stroke="#000000" points="684,-1012.5 684,-1042.5 988,-1042.5 988,-1012.5 684,-1012.5"/>
<text text-anchor="start" x="691" y="-1023.9" font-family="Arial" font-size="14.00" fill="#000000">day4 </text>
<text text-anchor="start" x="725.2384" y="-1023.9" font-family="Arial" font-size="14.00" fill="#666666">[timestamp without time zone]</text>
<polygon fill="none" stroke="#000000" points="684,-982.5 684,-1012.5 988,-1012.5 988,-982.5 684,-982.5"/>
<text text-anchor="start" x="691" y="-993.9" font-family="Arial" font-size="14.00" fill="#000000">day5 </text>
<text text-anchor="start" x="725.2384" y="-993.9" font-family="Arial" font-size="14.00" fill="#666666">[timestamp without time zone]</text>
<polygon fill="none" stroke="#000000" points="684,-952.5 684,-982.5 988,-982.5 988,-952.5 684,-952.5"/>
<text text-anchor="start" x="691" y="-963.9" font-family="Arial" font-size="14.00" fill="#000000">cost </text>
<text text-anchor="start" x="720.5638" y="-963.9" font-family="Arial" font-size="14.00" fill="#666666">[real]</text>
<polygon fill="none" stroke="#000000" points="684,-922.5 684,-952.5 988,-952.5 988,-922.5 684,-922.5"/>
<text text-anchor="start" x="691" y="-933.9" font-family="Arial" font-size="14.00" fill="#000000">discount </text>
<text text-anchor="start" x="747.0182" y="-933.9" font-family="Arial" font-size="14.00" fill="#666666">[real]</text>
<polygon fill="none" stroke="#000000" points="684,-892.5 684,-922.5 988,-922.5 988,-892.5 684,-892.5"/>
<text text-anchor="start" x="691" y="-903.9" font-family="Arial" font-size="14.00" fill="#000000">vatFree </text>
<text text-anchor="start" x="742.3422" y="-903.9" font-family="Arial" font-size="14.00" fill="#666666">[boolean]</text>
<polygon fill="none" stroke="#000000" points="684,-862.5 684,-892.5 988,-892.5 988,-862.5 684,-862.5"/>
<text text-anchor="start" x="691" y="-873.9" font-family="Arial" font-size="14.00" fill="#000000">orderNotes </text>
<text text-anchor="start" x="764.122" y="-873.9" font-family="Arial" font-size="14.00" fill="#666666">[varchar]</text>
<polygon fill="none" stroke="#000000" points="684,-832.5 684,-862.5 988,-862.5 988,-832.5 684,-832.5"/>
<text text-anchor="start" x="691" y="-843.9" font-family="Arial" font-size="14.00" fill="#000000">amount </text>
<text text-anchor="start" x="741.5722" y="-843.9" font-family="Arial" font-size="14.00" fill="#666666">[integer]</text>
<polygon fill="none" stroke="#000000" stroke-width="3" points="682.5,-831.5 682.5,-1319.5 989.5,-1319.5 989.5,-831.5 682.5,-831.5"/>
</g>
<!-- public.orders -->
<g id="node2" class="node">
<title>public.orders</title>
<polygon fill="#efefef" stroke="transparent" points="43,-552.5 43,-587.5 377,-587.5 377,-552.5 43,-552.5"/>
<polygon fill="none" stroke="#000000" points="43,-552.5 43,-587.5 377,-587.5 377,-552.5 43,-552.5"/>
<text text-anchor="start" x="94.7099" y="-565.3" font-family="Arial Bold" font-size="18.00" fill="#000000">public.orders</text>
<text text-anchor="start" x="197.7221" y="-565.3" font-family="Arial" font-size="14.00" fill="#000000">    </text>
<text text-anchor="start" x="231.9269" y="-565.3" font-family="Arial" font-size="14.00" fill="#666666">[BASE TABLE]</text>
<polygon fill="none" stroke="#000000" points="43,-522.5 43,-552.5 377,-552.5 377,-522.5 43,-522.5"/>
<text text-anchor="start" x="50" y="-533.9" font-family="Arial" font-size="14.00" fill="#000000">orderID    </text>
<text text-anchor="start" x="130.871" y="-533.9" font-family="Arial" font-size="14.00" fill="#666666">[integer]</text>
<polygon fill="none" stroke="#000000" points="43,-492.5 43,-522.5 377,-522.5 377,-492.5 43,-492.5"/>
<text text-anchor="start" x="50" y="-503.9" font-family="Arial" font-size="14.00" fill="#000000">driverCarID    </text>
<text text-anchor="start" x="155.7448" y="-503.9" font-family="Arial" font-size="14.00" fill="#666666">[integer]</text>
<polygon fill="none" stroke="#000000" points="43,-462.5 43,-492.5 377,-492.5 377,-462.5 43,-462.5"/>
<text text-anchor="start" x="50" y="-473.9" font-family="Arial" font-size="14.00" fill="#000000">driverID    </text>
<text text-anchor="start" x="133.195" y="-473.9" font-family="Arial" font-size="14.00" fill="#666666">[integer]</text>
<polygon fill="none" stroke="#000000" points="43,-432.5 43,-462.5 377,-462.5 377,-432.5 43,-432.5"/>
<text text-anchor="start" x="50" y="-443.9" font-family="Arial" font-size="14.00" fill="#000000">storeID    </text>
<text text-anchor="start" x="129.3184" y="-443.9" font-family="Arial" font-size="14.00" fill="#666666">[integer]</text>
<polygon fill="none" stroke="#000000" points="43,-402.5 43,-432.5 377,-432.5 377,-402.5 43,-402.5"/>
<text text-anchor="start" x="50" y="-413.9" font-family="Arial" font-size="14.00" fill="#000000">orderNotes    </text>
<text text-anchor="start" x="153.4362" y="-413.9" font-family="Arial" font-size="14.00" fill="#666666">[varchar]</text>
<polygon fill="none" stroke="#000000" points="43,-372.5 43,-402.5 377,-402.5 377,-372.5 43,-372.5"/>
<text text-anchor="start" x="50" y="-383.9" font-family="Arial" font-size="14.00" fill="#000000">employeeID    </text>
<text text-anchor="start" x="158.8822" y="-383.9" font-family="Arial" font-size="14.00" fill="#666666">[integer]</text>
<polygon fill="none" stroke="#000000" points="43,-342.5 43,-372.5 377,-372.5 377,-342.5 43,-342.5"/>
<text text-anchor="start" x="49.7742" y="-353.9" font-family="Arial" font-size="14.00" fill="#000000">submissionTime    </text>
<text text-anchor="start" x="185.0856" y="-353.9" font-family="Arial" font-size="14.00" fill="#666666">[timestamp without time zone]</text>
<polygon fill="none" stroke="#000000" points="43,-312.5 43,-342.5 377,-342.5 377,-312.5 43,-312.5"/>
<text text-anchor="start" x="50" y="-323.9" font-family="Arial" font-size="14.00" fill="#000000">vatFree    </text>
<text text-anchor="start" x="131.6564" y="-323.9" font-family="Arial" font-size="14.00" fill="#666666">[boolean]</text>
<polygon fill="none" stroke="#000000" points="43,-282.5 43,-312.5 377,-312.5 377,-282.5 43,-282.5"/>
<text text-anchor="start" x="50" y="-293.9" font-family="Arial" font-size="14.00" fill="#000000">orderStatus    </text>
<text text-anchor="start" x="156.5568" y="-293.9" font-family="Arial" font-size="14.00" fill="#666666">[&quot;orderStatus&quot;]</text>
<polygon fill="none" stroke="#000000" points="43,-252.5 43,-282.5 377,-282.5 377,-252.5 43,-252.5"/>
<text text-anchor="start" x="50" y="-263.9" font-family="Arial" font-size="14.00" fill="#000000">currency    </text>
<text text-anchor="start" x="137.8738" y="-263.9" font-family="Arial" font-size="14.00" fill="#666666">[varchar(5)]</text>
<polygon fill="none" stroke="#000000" points="43,-222.5 43,-252.5 377,-252.5 377,-222.5 43,-222.5"/>
<text text-anchor="start" x="50" y="-233.9" font-family="Arial" font-size="14.00" fill="#000000">discount    </text>
<text text-anchor="start" x="136.3324" y="-233.9" font-family="Arial" font-size="14.00" fill="#666666">[real]</text>
<polygon fill="none" stroke="#000000" points="43,-192.5 43,-222.5 377,-222.5 377,-192.5 43,-192.5"/>
<text text-anchor="start" x="50" y="-203.9" font-family="Arial" font-size="14.00" fill="#000000">createdAt    </text>
<text text-anchor="start" x="144.1136" y="-203.9" font-family="Arial" font-size="14.00" fill="#666666">[timestamp without time zone]</text>
<polygon fill="none" stroke="#000000" points="43,-162.5 43,-192.5 377,-192.5 377,-162.5 43,-162.5"/>
<text text-anchor="start" x="50" y="-173.9" font-family="Arial" font-size="14.00" fill="#000000">updatedAt    </text>
<text text-anchor="start" x="148.0182" y="-173.9" font-family="Arial" font-size="14.00" fill="#666666">[timestamp without time zone]</text>
</g>
<!-- public.orderServices&#45;&gt;public.orders -->
<g id="edge1" class="edge">
<title>public.orderServices:orderID&#45;&gt;public.orders:orderID</title>
<path fill="none" stroke="#000000" d="M673.6915,-1267.3461C430.3786,-1259.9624 515.289,-988.3069 429,-751 395.6259,-659.2166 474.6628,-537.5 377,-537.5"/>
<polygon fill="#000000" stroke="#000000" points="674.0011,-1267.3506 683.9328,-1271.9995 679.0006,-1267.4253 684,-1267.5 684,-1267.5 684,-1267.5 679.0006,-1267.4253 684.0672,-1263.0005 674.0011,-1267.3506 674.0011,-1267.3506"/>
<text text-anchor="start" x="298.9595" y="-1277.5" font-family="Arial" font-size="10.00" fill="#000000">FOREIGN KEY (&quot;orderID&quot;) REFERENCES orders(&quot;orderID&quot;) ON DELETE CASCADE</text>
</g>
<!-- public.services -->
<g id="node3" class="node">
<title>public.services</title>
<polygon fill="#efefef" stroke="transparent" points="482,-672.5 482,-707.5 779,-707.5 779,-672.5 482,-672.5"/>
<polygon fill="none" stroke="#000000" points="482,-672.5 482,-707.5 779,-707.5 779,-672.5 482,-672.5"/>
<text text-anchor="start" x="507.712" y="-685.3" font-family="Arial Bold" font-size="18.00" fill="#000000">public.services</text>
<text text-anchor="start" x="625.72" y="-685.3" font-family="Arial" font-size="14.00" fill="#000000">    </text>
<text text-anchor="start" x="659.9248" y="-685.3" font-family="Arial" font-size="14.00" fill="#666666">[BASE TABLE]</text>
<polygon fill="none" stroke="#000000" points="482,-642.5 482,-672.5 779,-672.5 779,-642.5 482,-642.5"/>
<text text-anchor="start" x="489" y="-653.9" font-family="Arial" font-size="14.00" fill="#000000">serviceID    </text>
<text text-anchor="start" x="581.5344" y="-653.9" font-family="Arial" font-size="14.00" fill="#666666">[integer]</text>
<polygon fill="none" stroke="#000000" points="482,-612.5 482,-642.5 779,-642.5 779,-612.5 482,-612.5"/>
<text text-anchor="start" x="489" y="-623.9" font-family="Arial" font-size="14.00" fill="#000000">name    </text>
<text text-anchor="start" x="558.2132" y="-623.9" font-family="Arial" font-size="14.00" fill="#666666">[varchar(256)]</text>
<polygon fill="none" stroke="#000000" points="482,-582.5 482,-612.5 779,-612.5 779,-582.5 482,-582.5"/>
<text text-anchor="start" x="489" y="-593.9" font-family="Arial" font-size="14.00" fill="#000000">serviceCategoryID    </text>
<text text-anchor="start" x="638.3226" y="-593.9" font-family="Arial" font-size="14.00" fill="#666666">[integer]</text>
<polygon fill="none" stroke="#000000" points="482,-552.5 482,-582.5 779,-582.5 779,-552.5 482,-552.5"/>
<text text-anchor="start" x="489" y="-563.9" font-family="Arial" font-size="14.00" fill="#000000">currency    </text>
<text text-anchor="start" x="576.8738" y="-563.9" font-family="Arial" font-size="14.00" fill="#666666">[varchar(5)]</text>
<polygon fill="none" stroke="#000000" points="482,-522.5 482,-552.5 779,-552.5 779,-522.5 482,-522.5"/>
<text text-anchor="start" x="489" y="-533.9" font-family="Arial" font-size="14.00" fill="#000000">cost    </text>
<text text-anchor="start" x="548.878" y="-533.9" font-family="Arial" font-size="14.00" fill="#666666">[real]</text>
<polygon fill="none" stroke="#000000" points="482,-492.5 482,-522.5 779,-522.5 779,-492.5 482,-492.5"/>
<text text-anchor="start" x="489" y="-503.9" font-family="Arial" font-size="14.00" fill="#000000">includeInAutomaticSms    </text>
<text text-anchor="start" x="669.4516" y="-503.9" font-family="Arial" font-size="14.00" fill="#666666">[boolean]</text>
<polygon fill="none" stroke="#000000" points="482,-462.5 482,-492.5 779,-492.5 779,-462.5 482,-462.5"/>
<text text-anchor="start" x="489" y="-473.9" font-family="Arial" font-size="14.00" fill="#000000">hidden    </text>
<text text-anchor="start" x="565.2244" y="-473.9" font-family="Arial" font-size="14.00" fill="#666666">[boolean]</text>
<polygon fill="none" stroke="#000000" points="482,-432.5 482,-462.5 779,-462.5 779,-432.5 482,-432.5"/>
<text text-anchor="start" x="489" y="-443.9" font-family="Arial" font-size="14.00" fill="#000000">callInterval    </text>
<text text-anchor="start" x="590.0968" y="-443.9" font-family="Arial" font-size="14.00" fill="#666666">[integer]</text>
<polygon fill="none" stroke="#000000" points="482,-402.5 482,-432.5 779,-432.5 779,-402.5 482,-402.5"/>
<text text-anchor="start" x="489" y="-413.9" font-family="Arial" font-size="14.00" fill="#000000">colorForService    </text>
<text text-anchor="start" x="621.202" y="-413.9" font-family="Arial" font-size="14.00" fill="#666666">[varchar]</text>
<polygon fill="none" stroke="#000000" points="482,-372.5 482,-402.5 779,-402.5 779,-372.5 482,-372.5"/>
<text text-anchor="start" x="489" y="-383.9" font-family="Arial" font-size="14.00" fill="#000000">warrantyCard    </text>
<text text-anchor="start" x="607.2034" y="-383.9" font-family="Arial" font-size="14.00" fill="#666666">[boolean]</text>
<polygon fill="none" stroke="#000000" points="482,-342.5 482,-372.5 779,-372.5 779,-342.5 482,-342.5"/>
<text text-anchor="start" x="489" y="-353.9" font-family="Arial" font-size="14.00" fill="#000000">itemNumber    </text>
<text text-anchor="start" x="599.4208" y="-353.9" font-family="Arial" font-size="14.00" fill="#666666">[varchar(256)]</text>
<polygon fill="none" stroke="#000000" points="482,-312.5 482,-342.5 779,-342.5 779,-312.5 482,-312.5"/>
<text text-anchor="start" x="489" y="-323.9" font-family="Arial" font-size="14.00" fill="#000000">award    </text>
<text text-anchor="start" x="561.3198" y="-323.9" font-family="Arial" font-size="14.00" fill="#666666">[real]</text>
<polygon fill="none" stroke="#000000" points="482,-282.5 482,-312.5 779,-312.5 779,-282.5 482,-282.5"/>
<text text-anchor="start" x="489" y="-293.9" font-family="Arial" font-size="14.00" fill="#000000">suppliersArticleNumber    </text>
<text text-anchor="start" x="667.8682" y="-293.9" font-family="Arial" font-size="14.00" fill="#666666">[varchar(256)]</text>
<polygon fill="none" stroke="#000000" points="482,-252.5 482,-282.5 779,-282.5 779,-252.5 482,-252.5"/>
<text text-anchor="start" x="489" y="-263.9" font-family="Arial" font-size="14.00" fill="#000000">externalArticleNumber    </text>
<text text-anchor="start" x="661.6522" y="-263.9" font-family="Arial" font-size="14.00" fill="#666666">[varchar(256)]</text>
<polygon fill="none" stroke="#000000" points="482,-222.5 482,-252.5 779,-252.5 779,-222.5 482,-222.5"/>
<text text-anchor="start" x="489" y="-233.9" font-family="Arial" font-size="14.00" fill="#000000">day1    </text>
<text text-anchor="start" x="553.5526" y="-233.9" font-family="Arial" font-size="14.00" fill="#666666">[time without time zone]</text>
<polygon fill="none" stroke="#000000" points="482,-192.5 482,-222.5 779,-222.5 779,-192.5 482,-192.5"/>
<text text-anchor="start" x="489" y="-203.9" font-family="Arial" font-size="14.00" fill="#000000">day2    </text>
<text text-anchor="start" x="553.5526" y="-203.9" font-family="Arial" font-size="14.00" fill="#666666">[time without time zone]</text>
<polygon fill="none" stroke="#000000" points="482,-162.5 482,-192.5 779,-192.5 779,-162.5 482,-162.5"/>
<text text-anchor="start" x="489" y="-173.9" font-family="Arial" font-size="14.00" fill="#000000">day3    </text>
<text text-anchor="start" x="553.5526" y="-173.9" font-family="Arial" font-size="14.00" fill="#666666">[time without time zone]</text>
<polygon fill="none" stroke="#000000" points="482,-132.5 482,-162.5 779,-162.5 779,-132.5 482,-132.5"/>
<text text-anchor="start" x="489" y="-143.9" font-family="Arial" font-size="14.00" fill="#000000">day4    </text>
<text text-anchor="start" x="553.5526" y="-143.9" font-family="Arial" font-size="14.00" fill="#666666">[time without time zone]</text>
<polygon fill="none" stroke="#000000" points="482,-102.5 482,-132.5 779,-132.5 779,-102.5 482,-102.5"/>
<text text-anchor="start" x="489" y="-113.9" font-family="Arial" font-size="14.00" fill="#000000">day5    </text>
<text text-anchor="start" x="553.5526" y="-113.9" font-family="Arial" font-size="14.00" fill="#666666">[time without time zone]</text>
<polygon fill="none" stroke="#000000" points="482,-72.5 482,-102.5 779,-102.5 779,-72.5 482,-72.5"/>
<text text-anchor="start" x="489" y="-83.9" font-family="Arial" font-size="14.00" fill="#000000">createdAt    </text>
<text text-anchor="start" x="583.1136" y="-83.9" font-family="Arial" font-size="14.00" fill="#666666">[timestamp without time zone]</text>
<polygon fill="none" stroke="#000000" points="482,-42.5 482,-72.5 779,-72.5 779,-42.5 482,-42.5"/>
<text text-anchor="start" x="488.9208" y="-53.9" font-family="Arial" font-size="14.00" fill="#000000">updatedAt    </text>
<text text-anchor="start" x="586.939" y="-53.9" font-family="Arial" font-size="14.00" fill="#666666">[timestamp without time zone]</text>
</g>
<!-- public.orderServices&#45;&gt;public.services -->
<g id="edge2" class="edge">
<title>public.orderServices:serviceID&#45;&gt;public.services:serviceID</title>
<path fill="none" stroke="#000000" d="M673.9846,-1237.2517C486.741,-1227.769 572.1832,-948.9488 684,-787 709.6543,-749.8439 753.3457,-788.1561 779,-751 802.6108,-716.8036 820.5556,-657.5 779,-657.5"/>
<polygon fill="#000000" stroke="#000000" points="674.0031,-1237.252 683.8884,-1241.9986 679.0015,-1237.376 684,-1237.5 684,-1237.5 684,-1237.5 679.0015,-1237.376 684.1116,-1233.0014 674.0031,-1237.252 674.0031,-1237.252"/>
<text text-anchor="start" x="274.463" y="-1247.5" font-family="Arial" font-size="10.00" fill="#000000">FOREIGN KEY (&quot;serviceID&quot;) REFERENCES services(&quot;serviceID&quot;) ON DELETE CASCADE</text>
</g>
<!-- public.serviceVariants -->
<g id="node4" class="node">
<title>public.serviceVariants</title>
<polygon fill="#efefef" stroke="transparent" points="883,-552.5 883,-587.5 1199,-587.5 1199,-552.5 883,-552.5"/>
<polygon fill="none" stroke="#000000" points="883,-552.5 883,-587.5 1199,-587.5 1199,-552.5 883,-552.5"/>
<text text-anchor="start" x="889.7063" y="-565.3" font-family="Arial Bold" font-size="18.00" fill="#000000">public.serviceVariants</text>
<text text-anchor="start" x="1064.7257" y="-565.3" font-family="Arial" font-size="14.00" fill="#000000">    </text>
<text text-anchor="start" x="1098.9305" y="-565.3" font-family="Arial" font-size="14.00" fill="#666666">[BASE TABLE]</text>
<polygon fill="none" stroke="#000000" points="883,-522.5 883,-552.5 1199,-552.5 1199,-522.5 883,-522.5"/>
<text text-anchor="start" x="890" y="-533.9" font-family="Arial" font-size="14.00" fill="#000000">serviceVariantID    </text>
<text text-anchor="start" x="1026.8766" y="-533.9" font-family="Arial" font-size="14.00" fill="#666666">[integer]</text>
<polygon fill="none" stroke="#000000" points="883,-492.5 883,-522.5 1199,-522.5 1199,-492.5 883,-492.5"/>
<text text-anchor="start" x="890" y="-503.9" font-family="Arial" font-size="14.00" fill="#000000">name    </text>
<text text-anchor="start" x="959.2132" y="-503.9" font-family="Arial" font-size="14.00" fill="#666666">[varchar(256)]</text>
<polygon fill="none" stroke="#000000" points="883,-462.5 883,-492.5 1199,-492.5 1199,-462.5 883,-462.5"/>
<text text-anchor="start" x="890" y="-473.9" font-family="Arial" font-size="14.00" fill="#000000">cost    </text>
<text text-anchor="start" x="949.878" y="-473.9" font-family="Arial" font-size="14.00" fill="#666666">[real]</text>
<polygon fill="none" stroke="#000000" points="883,-432.5 883,-462.5 1199,-462.5 1199,-432.5 883,-432.5"/>
<text text-anchor="start" x="890" y="-443.9" font-family="Arial" font-size="14.00" fill="#000000">currency    </text>
<text text-anchor="start" x="977.8738" y="-443.9" font-family="Arial" font-size="14.00" fill="#666666">[varchar(5)]</text>
<polygon fill="none" stroke="#000000" points="883,-402.5 883,-432.5 1199,-432.5 1199,-402.5 883,-402.5"/>
<text text-anchor="start" x="890" y="-413.9" font-family="Arial" font-size="14.00" fill="#000000">award    </text>
<text text-anchor="start" x="962.3198" y="-413.9" font-family="Arial" font-size="14.00" fill="#666666">[real]</text>
<polygon fill="none" stroke="#000000" points="883,-372.5 883,-402.5 1199,-402.5 1199,-372.5 883,-372.5"/>
<text text-anchor="start" x="890" y="-383.9" font-family="Arial" font-size="14.00" fill="#000000">day1    </text>
<text text-anchor="start" x="954.5526" y="-383.9" font-family="Arial" font-size="14.00" fill="#666666">[time without time zone]</text>
<polygon fill="none" stroke="#000000" points="883,-342.5 883,-372.5 1199,-372.5 1199,-342.5 883,-342.5"/>
<text text-anchor="start" x="890" y="-353.9" font-family="Arial" font-size="14.00" fill="#000000">day2    </text>
<text text-anchor="start" x="954.5526" y="-353.9" font-family="Arial" font-size="14.00" fill="#666666">[time without time zone]</text>
<polygon fill="none" stroke="#000000" points="883,-312.5 883,-342.5 1199,-342.5 1199,-312.5 883,-312.5"/>
<text text-anchor="start" x="890" y="-323.9" font-family="Arial" font-size="14.00" fill="#000000">day3    </text>
<text text-anchor="start" x="954.5526" y="-323.9" font-family="Arial" font-size="14.00" fill="#666666">[time without time zone]</text>
<polygon fill="none" stroke="#000000" points="883,-282.5 883,-312.5 1199,-312.5 1199,-282.5 883,-282.5"/>
<text text-anchor="start" x="890" y="-293.9" font-family="Arial" font-size="14.00" fill="#000000">day4    </text>
<text text-anchor="start" x="954.5526" y="-293.9" font-family="Arial" font-size="14.00" fill="#666666">[time without time zone]</text>
<polygon fill="none" stroke="#000000" points="883,-252.5 883,-282.5 1199,-282.5 1199,-252.5 883,-252.5"/>
<text text-anchor="start" x="890" y="-263.9" font-family="Arial" font-size="14.00" fill="#000000">day5    </text>
<text text-anchor="start" x="954.5526" y="-263.9" font-family="Arial" font-size="14.00" fill="#666666">[time without time zone]</text>
<polygon fill="none" stroke="#000000" points="883,-222.5 883,-252.5 1199,-252.5 1199,-222.5 883,-222.5"/>
<text text-anchor="start" x="890" y="-233.9" font-family="Arial" font-size="14.00" fill="#000000">serviceID    </text>
<text text-anchor="start" x="982.5344" y="-233.9" font-family="Arial" font-size="14.00" fill="#666666">[integer]</text>
<polygon fill="none" stroke="#000000" points="883,-192.5 883,-222.5 1199,-222.5 1199,-192.5 883,-192.5"/>
<text text-anchor="start" x="890" y="-203.9" font-family="Arial" font-size="14.00" fill="#000000">createdAt    </text>
<text text-anchor="start" x="984.1136" y="-203.9" font-family="Arial" font-size="14.00" fill="#666666">[timestamp without time zone]</text>
<polygon fill="none" stroke="#000000" points="883,-162.5 883,-192.5 1199,-192.5 1199,-162.5 883,-162.5"/>
<text text-anchor="start" x="890" y="-173.9" font-family="Arial" font-size="14.00" fill="#000000">updatedAt    </text>
<text text-anchor="start" x="988.0182" y="-173.9" font-family="Arial" font-size="14.00" fill="#666666">[timestamp without time zone]</text>
</g>
<!-- public.orderServices&#45;&gt;public.serviceVariants -->
<g id="edge3" class="edge">
<title>public.orderServices:serviceVariantID&#45;&gt;public.serviceVariants:serviceVariantID</title>
<path fill="none" stroke="#000000" d="M998.0758,-1207.2523C1170.0048,-1198.5505 1041.5408,-962.433 988,-787 963.6042,-707.0642 907.3958,-710.9358 883,-631 870.8699,-591.2542 841.4444,-537.5 883,-537.5"/>
<polygon fill="#000000" stroke="#000000" points="997.997,-1207.2541 987.8893,-1203.0014 992.9985,-1207.3771 988,-1207.5 988,-1207.5 988,-1207.5 992.9985,-1207.3771 988.1107,-1211.9986 997.997,-1207.2541 997.997,-1207.2541"/>
<text text-anchor="start" x="995.4045" y="-1217.5" font-family="Arial" font-size="10.00" fill="#000000">FOREIGN KEY (&quot;serviceVariantID&quot;) REFERENCES &quot;serviceVariants&quot;(&quot;serviceVariantID&quot;) ON DELETE CASCADE</text>
</g>
<!-- public.employees -->
<g id="node5" class="node">
<title>public.employees</title>
<polygon fill="#efefef" stroke="transparent" points="1304,-552.5 1304,-587.5 1601,-587.5 1601,-552.5 1304,-552.5"/>
<polygon fill="none" stroke="#000000" points="1304,-552.5 1304,-587.5 1601,-587.5 1601,-552.5 1304,-552.5"/>
<text text-anchor="start" x="1319.2027" y="-565.3" font-family="Arial Bold" font-size="18.00" fill="#000000">public.employees</text>
<text text-anchor="start" x="1458.2293" y="-565.3" font-family="Arial" font-size="14.00" fill="#000000">    </text>
<text text-anchor="start" x="1492.4341" y="-565.3" font-family="Arial" font-size="14.00" fill="#666666">[BASE TABLE]</text>
<polygon fill="none" stroke="#000000" points="1304,-522.5 1304,-552.5 1601,-552.5 1601,-522.5 1304,-522.5"/>
<text text-anchor="start" x="1311" y="-533.9" font-family="Arial" font-size="14.00" fill="#000000">userID    </text>
<text text-anchor="start" x="1386.4278" y="-533.9" font-family="Arial" font-size="14.00" fill="#666666">[integer]</text>
<polygon fill="none" stroke="#000000" points="1304,-492.5 1304,-522.5 1601,-522.5 1601,-492.5 1304,-492.5"/>
<text text-anchor="start" x="1311" y="-503.9" font-family="Arial" font-size="14.00" fill="#000000">employeeID    </text>
<text text-anchor="start" x="1419.8822" y="-503.9" font-family="Arial" font-size="14.00" fill="#666666">[integer]</text>
<polygon fill="none" stroke="#000000" points="1304,-462.5 1304,-492.5 1601,-492.5 1601,-462.5 1304,-462.5"/>
<text text-anchor="start" x="1311" y="-473.9" font-family="Arial" font-size="14.00" fill="#000000">shortUserName    </text>
<text text-anchor="start" x="1443.2034" y="-473.9" font-family="Arial" font-size="14.00" fill="#666666">[varchar(16)]</text>
<polygon fill="none" stroke="#000000" points="1304,-432.5 1304,-462.5 1601,-462.5 1601,-432.5 1304,-432.5"/>
<text text-anchor="start" x="1311" y="-443.9" font-family="Arial" font-size="14.00" fill="#000000">employmentNumber    </text>
<text text-anchor="start" x="1471.2118" y="-443.9" font-family="Arial" font-size="14.00" fill="#666666">[varchar(128)]</text>
<polygon fill="none" stroke="#000000" points="1304,-402.5 1304,-432.5 1601,-432.5 1601,-402.5 1304,-402.5"/>
<text text-anchor="start" x="1311" y="-413.9" font-family="Arial" font-size="14.00" fill="#000000">employeePersonalNumber    </text>
<text text-anchor="start" x="1510.8948" y="-413.9" font-family="Arial" font-size="14.00" fill="#666666">[varchar(16)]</text>
<polygon fill="none" stroke="#000000" points="1304,-372.5 1304,-402.5 1601,-402.5 1601,-372.5 1304,-372.5"/>
<text text-anchor="start" x="1311" y="-383.9" font-family="Arial" font-size="14.00" fill="#000000">signature    </text>
<text text-anchor="start" x="1402.7756" y="-383.9" font-family="Arial" font-size="14.00" fill="#666666">[varchar(4)]</text>
<polygon fill="none" stroke="#000000" points="1304,-342.5 1304,-372.5 1601,-372.5 1601,-342.5 1304,-342.5"/>
<text text-anchor="start" x="1311" y="-353.9" font-family="Arial" font-size="14.00" fill="#000000">employeeHourlyRate    </text>
<text text-anchor="start" x="1475.8864" y="-353.9" font-family="Arial" font-size="14.00" fill="#666666">[real]</text>
<polygon fill="none" stroke="#000000" points="1304,-312.5 1304,-342.5 1601,-342.5 1601,-312.5 1304,-312.5"/>
<text text-anchor="start" x="1311" y="-323.9" font-family="Arial" font-size="14.00" fill="#000000">employeeHourlyRateCurrency    </text>
<text text-anchor="start" x="1532.662" y="-323.9" font-family="Arial" font-size="14.00" fill="#666666">[varchar]</text>
<polygon fill="none" stroke="#000000" points="1304,-282.5 1304,-312.5 1601,-312.5 1601,-282.5 1304,-282.5"/>
<text text-anchor="start" x="1311" y="-293.9" font-family="Arial" font-size="14.00" fill="#000000">employeePin    </text>
<text text-anchor="start" x="1426.1108" y="-293.9" font-family="Arial" font-size="14.00" fill="#666666">[varchar(4)]</text>
<polygon fill="none" stroke="#000000" points="1304,-252.5 1304,-282.5 1601,-282.5 1601,-252.5 1304,-252.5"/>
<text text-anchor="start" x="1311" y="-263.9" font-family="Arial" font-size="14.00" fill="#000000">employeeComment    </text>
<text text-anchor="start" x="1466.5512" y="-263.9" font-family="Arial" font-size="14.00" fill="#666666">[varchar]</text>
<polygon fill="none" stroke="#000000" points="1304,-222.5 1304,-252.5 1601,-252.5 1601,-222.5 1304,-222.5"/>
<text text-anchor="start" x="1311" y="-233.9" font-family="Arial" font-size="14.00" fill="#000000">employeeActive    </text>
<text text-anchor="start" x="1444.0014" y="-233.9" font-family="Arial" font-size="14.00" fill="#666666">[boolean]</text>
<polygon fill="none" stroke="#000000" points="1304,-192.5 1304,-222.5 1601,-222.5 1601,-192.5 1304,-192.5"/>
<text text-anchor="start" x="1311" y="-203.9" font-family="Arial" font-size="14.00" fill="#000000">createdAt    </text>
<text text-anchor="start" x="1405.1136" y="-203.9" font-family="Arial" font-size="14.00" fill="#666666">[timestamp without time zone]</text>
<polygon fill="none" stroke="#000000" points="1304,-162.5 1304,-192.5 1601,-192.5 1601,-162.5 1304,-162.5"/>
<text text-anchor="start" x="1310.9208" y="-173.9" font-family="Arial" font-size="14.00" fill="#000000">updatedAt    </text>
<text text-anchor="start" x="1408.939" y="-173.9" font-family="Arial" font-size="14.00" fill="#666666">[timestamp without time zone]</text>
</g>
<!-- public.orderServices&#45;&gt;public.employees -->
<g id="edge4" class="edge">
<title>public.orderServices:employeeID&#45;&gt;public.employees:employeeID</title>
<path fill="none" stroke="#000000" d="M998.0883,-1117.3403C1187.8708,-1111.2348 1170.9376,-931.0658 1251,-751 1273.4989,-700.3984 1248.622,-507.5 1304,-507.5"/>
<polygon fill="#000000" stroke="#000000" points="997.9987,-1117.3416 987.9287,-1113.0006 992.9994,-1117.4208 988,-1117.5 988,-1117.5 988,-1117.5 992.9994,-1117.4208 988.0713,-1121.9994 997.9987,-1117.3416 997.9987,-1117.3416"/>
<text text-anchor="start" x="995.223" y="-1127.5" font-family="Arial" font-size="10.00" fill="#000000">FOREIGN KEY (&quot;employeeID&quot;) REFERENCES employees(&quot;employeeID&quot;) ON DELETE SET NULL</text>
</g>
</g>
</svg>
