<?xml version="1.0" encoding="UTF-8" standalone="no"?>
<!DOCTYPE svg PUBLIC "-//W3C//DTD SVG 1.1//EN"
 "http://www.w3.org/Graphics/SVG/1.1/DTD/svg11.dtd">
<!-- Generated by graphviz version 2.40.1 (20161225.0304)
 -->
<!-- Title: public.rentCarBookings Pages: 1 -->
<svg width="1372pt" height="1012pt"
 viewBox="0.00 0.00 1372.00 1012.00" xmlns="http://www.w3.org/2000/svg" xmlns:xlink="http://www.w3.org/1999/xlink">
<g id="graph0" class="graph" transform="scale(1 1) rotate(0) translate(4 1008)">
<title>public.rentCarBookings</title>
<polygon fill="#ffffff" stroke="transparent" points="-4,4 -4,-1008 1368,-1008 1368,4 -4,4"/>
<!-- public.rentCarBookings -->
<g id="node1" class="node">
<title>public.rentCarBookings</title>
<polygon fill="#efefef" stroke="transparent" points="586,-922.5 586,-957.5 913,-957.5 913,-922.5 586,-922.5"/>
<polygon fill="none" stroke="#000000" points="586,-922.5 586,-957.5 913,-957.5 913,-922.5 586,-922.5"/>
<text text-anchor="start" x="592.7001" y="-935.3" font-family="Arial Bold" font-size="18.00" fill="#000000">public.rentCarBookings</text>
<text text-anchor="start" x="778.7319" y="-935.3" font-family="Arial" font-size="14.00" fill="#000000">    </text>
<text text-anchor="start" x="812.9367" y="-935.3" font-family="Arial" font-size="14.00" fill="#666666">[BASE TABLE]</text>
<polygon fill="none" stroke="#000000" points="586,-892.5 586,-922.5 913,-922.5 913,-892.5 586,-892.5"/>
<text text-anchor="start" x="593" y="-903.9" font-family="Arial" font-size="14.00" fill="#000000">rentCarBookingID </text>
<text text-anchor="start" x="708.1276" y="-903.9" font-family="Arial" font-size="14.00" fill="#666666">[integer]</text>
<polygon fill="none" stroke="#000000" points="586,-862.5 586,-892.5 913,-892.5 913,-862.5 586,-862.5"/>
<text text-anchor="start" x="593" y="-873.9" font-family="Arial" font-size="14.00" fill="#000000">orderID </text>
<text text-anchor="start" x="643.5568" y="-873.9" font-family="Arial" font-size="14.00" fill="#666666">[integer]</text>
<polygon fill="none" stroke="#000000" points="586,-832.5 586,-862.5 913,-862.5 913,-832.5 586,-832.5"/>
<text text-anchor="start" x="593" y="-843.9" font-family="Arial" font-size="14.00" fill="#000000">rentCarRegistrationNumber </text>
<text text-anchor="start" x="768.007" y="-843.9" font-family="Arial" font-size="14.00" fill="#666666">[varchar]</text>
<polygon fill="none" stroke="#000000" points="586,-802.5 586,-832.5 913,-832.5 913,-802.5 586,-802.5"/>
<text text-anchor="start" x="593" y="-813.9" font-family="Arial" font-size="14.00" fill="#000000">bookingStart </text>
<text text-anchor="start" x="675.4712" y="-813.9" font-family="Arial" font-size="14.00" fill="#666666">[date]</text>
<polygon fill="none" stroke="#000000" points="586,-772.5 586,-802.5 913,-802.5 913,-772.5 586,-772.5"/>
<text text-anchor="start" x="593" y="-783.9" font-family="Arial" font-size="14.00" fill="#000000">bookingEnd </text>
<text text-anchor="start" x="670.812" y="-783.9" font-family="Arial" font-size="14.00" fill="#666666">[date]</text>
<polygon fill="none" stroke="#000000" points="586,-742.5 586,-772.5 913,-772.5 913,-742.5 586,-742.5"/>
<text text-anchor="start" x="593" y="-753.9" font-family="Arial" font-size="14.00" fill="#000000">employeeID </text>
<text text-anchor="start" x="671.568" y="-753.9" font-family="Arial" font-size="14.00" fill="#666666">[integer]</text>
<polygon fill="none" stroke="#000000" points="586,-712.5 586,-742.5 913,-742.5 913,-712.5 586,-712.5"/>
<text text-anchor="start" x="593" y="-723.9" font-family="Arial" font-size="14.00" fill="#000000">bookingStatus </text>
<text text-anchor="start" x="685.5932" y="-723.9" font-family="Arial" font-size="14.00" fill="#666666">[&quot;orderStatus&quot;]</text>
<polygon fill="none" stroke="#000000" points="586,-682.5 586,-712.5 913,-712.5 913,-682.5 586,-682.5"/>
<text text-anchor="start" x="593" y="-693.9" font-family="Arial" font-size="14.00" fill="#000000">submissionTime </text>
<text text-anchor="start" x="697.9972" y="-693.9" font-family="Arial" font-size="14.00" fill="#666666">[timestamp without time zone]</text>
<polygon fill="none" stroke="#000000" points="586,-652.5 586,-682.5 913,-682.5 913,-652.5 586,-652.5"/>
<text text-anchor="start" x="593" y="-663.9" font-family="Arial" font-size="14.00" fill="#000000">createdAt </text>
<text text-anchor="start" x="656.7994" y="-663.9" font-family="Arial" font-size="14.00" fill="#666666">[timestamp without time zone]</text>
<polygon fill="none" stroke="#000000" points="586,-622.5 586,-652.5 913,-652.5 913,-622.5 586,-622.5"/>
<text text-anchor="start" x="593" y="-633.9" font-family="Arial" font-size="14.00" fill="#000000">updatedAt </text>
<text text-anchor="start" x="660.704" y="-633.9" font-family="Arial" font-size="14.00" fill="#666666">[timestamp without time zone]</text>
<polygon fill="none" stroke="#000000" stroke-width="3" points="584,-621.5 584,-959.5 914,-959.5 914,-621.5 584,-621.5"/>
</g>
<!-- public.orders -->
<g id="node2" class="node">
<title>public.orders</title>
<polygon fill="#efefef" stroke="transparent" points="162,-462.5 162,-497.5 496,-497.5 496,-462.5 162,-462.5"/>
<polygon fill="none" stroke="#000000" points="162,-462.5 162,-497.5 496,-497.5 496,-462.5 162,-462.5"/>
<text text-anchor="start" x="213.7099" y="-475.3" font-family="Arial Bold" font-size="18.00" fill="#000000">public.orders</text>
<text text-anchor="start" x="316.7221" y="-475.3" font-family="Arial" font-size="14.00" fill="#000000">    </text>
<text text-anchor="start" x="350.9269" y="-475.3" font-family="Arial" font-size="14.00" fill="#666666">[BASE TABLE]</text>
<polygon fill="none" stroke="#000000" points="162,-432.5 162,-462.5 496,-462.5 496,-432.5 162,-432.5"/>
<text text-anchor="start" x="169" y="-443.9" font-family="Arial" font-size="14.00" fill="#000000">orderID    </text>
<text text-anchor="start" x="249.871" y="-443.9" font-family="Arial" font-size="14.00" fill="#666666">[integer]</text>
<polygon fill="none" stroke="#000000" points="162,-402.5 162,-432.5 496,-432.5 496,-402.5 162,-402.5"/>
<text text-anchor="start" x="169" y="-413.9" font-family="Arial" font-size="14.00" fill="#000000">driverCarID    </text>
<text text-anchor="start" x="274.7448" y="-413.9" font-family="Arial" font-size="14.00" fill="#666666">[integer]</text>
<polygon fill="none" stroke="#000000" points="162,-372.5 162,-402.5 496,-402.5 496,-372.5 162,-372.5"/>
<text text-anchor="start" x="169" y="-383.9" font-family="Arial" font-size="14.00" fill="#000000">driverID    </text>
<text text-anchor="start" x="252.195" y="-383.9" font-family="Arial" font-size="14.00" fill="#666666">[integer]</text>
<polygon fill="none" stroke="#000000" points="162,-342.5 162,-372.5 496,-372.5 496,-342.5 162,-342.5"/>
<text text-anchor="start" x="169" y="-353.9" font-family="Arial" font-size="14.00" fill="#000000">storeID    </text>
<text text-anchor="start" x="248.3184" y="-353.9" font-family="Arial" font-size="14.00" fill="#666666">[integer]</text>
<polygon fill="none" stroke="#000000" points="162,-312.5 162,-342.5 496,-342.5 496,-312.5 162,-312.5"/>
<text text-anchor="start" x="169" y="-323.9" font-family="Arial" font-size="14.00" fill="#000000">orderNotes    </text>
<text text-anchor="start" x="272.4362" y="-323.9" font-family="Arial" font-size="14.00" fill="#666666">[varchar]</text>
<polygon fill="none" stroke="#000000" points="162,-282.5 162,-312.5 496,-312.5 496,-282.5 162,-282.5"/>
<text text-anchor="start" x="169" y="-293.9" font-family="Arial" font-size="14.00" fill="#000000">employeeID    </text>
<text text-anchor="start" x="277.8822" y="-293.9" font-family="Arial" font-size="14.00" fill="#666666">[integer]</text>
<polygon fill="none" stroke="#000000" points="162,-252.5 162,-282.5 496,-282.5 496,-252.5 162,-252.5"/>
<text text-anchor="start" x="168.7742" y="-263.9" font-family="Arial" font-size="14.00" fill="#000000">submissionTime    </text>
<text text-anchor="start" x="304.0856" y="-263.9" font-family="Arial" font-size="14.00" fill="#666666">[timestamp without time zone]</text>
<polygon fill="none" stroke="#000000" points="162,-222.5 162,-252.5 496,-252.5 496,-222.5 162,-222.5"/>
<text text-anchor="start" x="169" y="-233.9" font-family="Arial" font-size="14.00" fill="#000000">vatFree    </text>
<text text-anchor="start" x="250.6564" y="-233.9" font-family="Arial" font-size="14.00" fill="#666666">[boolean]</text>
<polygon fill="none" stroke="#000000" points="162,-192.5 162,-222.5 496,-222.5 496,-192.5 162,-192.5"/>
<text text-anchor="start" x="169" y="-203.9" font-family="Arial" font-size="14.00" fill="#000000">orderStatus    </text>
<text text-anchor="start" x="275.5568" y="-203.9" font-family="Arial" font-size="14.00" fill="#666666">[&quot;orderStatus&quot;]</text>
<polygon fill="none" stroke="#000000" points="162,-162.5 162,-192.5 496,-192.5 496,-162.5 162,-162.5"/>
<text text-anchor="start" x="169" y="-173.9" font-family="Arial" font-size="14.00" fill="#000000">currency    </text>
<text text-anchor="start" x="256.8738" y="-173.9" font-family="Arial" font-size="14.00" fill="#666666">[varchar]</text>
<polygon fill="none" stroke="#000000" points="162,-132.5 162,-162.5 496,-162.5 496,-132.5 162,-132.5"/>
<text text-anchor="start" x="169" y="-143.9" font-family="Arial" font-size="14.00" fill="#000000">discount    </text>
<text text-anchor="start" x="255.3324" y="-143.9" font-family="Arial" font-size="14.00" fill="#666666">[real]</text>
<polygon fill="none" stroke="#000000" points="162,-102.5 162,-132.5 496,-132.5 496,-102.5 162,-102.5"/>
<text text-anchor="start" x="169" y="-113.9" font-family="Arial" font-size="14.00" fill="#000000">createdAt    </text>
<text text-anchor="start" x="263.1136" y="-113.9" font-family="Arial" font-size="14.00" fill="#666666">[timestamp without time zone]</text>
<polygon fill="none" stroke="#000000" points="162,-72.5 162,-102.5 496,-102.5 496,-72.5 162,-72.5"/>
<text text-anchor="start" x="169" y="-83.9" font-family="Arial" font-size="14.00" fill="#000000">updatedAt    </text>
<text text-anchor="start" x="267.0182" y="-83.9" font-family="Arial" font-size="14.00" fill="#666666">[timestamp without time zone]</text>
<polygon fill="none" stroke="#000000" points="162,-42.5 162,-72.5 496,-72.5 496,-42.5 162,-42.5"/>
<text text-anchor="start" x="169" y="-53.9" font-family="Arial" font-size="14.00" fill="#000000">pickupTime    </text>
<text text-anchor="start" x="274.7616" y="-53.9" font-family="Arial" font-size="14.00" fill="#666666">[timestamp without time zone]</text>
</g>
<!-- public.rentCarBookings&#45;&gt;public.orders -->
<g id="edge1" class="edge">
<title>public.rentCarBookings:orderID&#45;&gt;public.orders:orderID</title>
<path fill="none" stroke="#000000" d="M575.9489,-875.7675C495.9062,-846.1781 590.0033,-447.5 496,-447.5"/>
<polygon fill="#000000" stroke="#000000" points="576.1453,-875.8013 585.2356,-881.9346 581.0727,-876.6506 586,-877.5 586,-877.5 586,-877.5 581.0727,-876.6506 586.7644,-873.0654 576.1453,-875.8013 576.1453,-875.8013"/>
<text text-anchor="start" x="200.9595" y="-887.5" font-family="Arial" font-size="10.00" fill="#000000">FOREIGN KEY (&quot;orderID&quot;) REFERENCES orders(&quot;orderID&quot;) ON DELETE CASCADE</text>
</g>
<!-- public.rentCars -->
<g id="node3" class="node">
<title>public.rentCars</title>
<polygon fill="#efefef" stroke="transparent" points="601,-387.5 601,-422.5 898,-422.5 898,-387.5 601,-387.5"/>
<polygon fill="none" stroke="#000000" points="601,-387.5 601,-422.5 898,-422.5 898,-387.5 601,-387.5"/>
<text text-anchor="start" x="625.2117" y="-400.3" font-family="Arial Bold" font-size="18.00" fill="#000000">public.rentCars</text>
<text text-anchor="start" x="746.2203" y="-400.3" font-family="Arial" font-size="14.00" fill="#000000">    </text>
<text text-anchor="start" x="780.4251" y="-400.3" font-family="Arial" font-size="14.00" fill="#666666">[BASE TABLE]</text>
<polygon fill="none" stroke="#000000" points="601,-357.5 601,-387.5 898,-387.5 898,-357.5 601,-357.5"/>
<text text-anchor="start" x="608" y="-368.9" font-family="Arial" font-size="14.00" fill="#000000">storeID    </text>
<text text-anchor="start" x="687.3184" y="-368.9" font-family="Arial" font-size="14.00" fill="#666666">[integer]</text>
<polygon fill="none" stroke="#000000" points="601,-327.5 601,-357.5 898,-357.5 898,-327.5 601,-327.5"/>
<text text-anchor="start" x="608" y="-338.9" font-family="Arial" font-size="14.00" fill="#000000">rentCarRegistrationNumber    </text>
<text text-anchor="start" x="813.3212" y="-338.9" font-family="Arial" font-size="14.00" fill="#666666">[varchar]</text>
<polygon fill="none" stroke="#000000" points="601,-297.5 601,-327.5 898,-327.5 898,-297.5 601,-297.5"/>
<text text-anchor="start" x="608" y="-308.9" font-family="Arial" font-size="14.00" fill="#000000">rentCarModel    </text>
<text text-anchor="start" x="726.986" y="-308.9" font-family="Arial" font-size="14.00" fill="#666666">[varchar]</text>
<polygon fill="none" stroke="#000000" points="601,-267.5 601,-297.5 898,-297.5 898,-267.5 601,-267.5"/>
<text text-anchor="start" x="608" y="-278.9" font-family="Arial" font-size="14.00" fill="#000000">rentCarColor    </text>
<text text-anchor="start" x="722.31" y="-278.9" font-family="Arial" font-size="14.00" fill="#666666">[varchar]</text>
<polygon fill="none" stroke="#000000" points="601,-237.5 601,-267.5 898,-267.5 898,-237.5 601,-237.5"/>
<text text-anchor="start" x="608" y="-248.9" font-family="Arial" font-size="14.00" fill="#000000">rentCarYear    </text>
<text text-anchor="start" x="718.4334" y="-248.9" font-family="Arial" font-size="14.00" fill="#666666">[integer]</text>
<polygon fill="none" stroke="#000000" points="601,-207.5 601,-237.5 898,-237.5 898,-207.5 601,-207.5"/>
<text text-anchor="start" x="608" y="-218.9" font-family="Arial" font-size="14.00" fill="#000000">rentCarNotes    </text>
<text text-anchor="start" x="725.4334" y="-218.9" font-family="Arial" font-size="14.00" fill="#666666">[varchar]</text>
<polygon fill="none" stroke="#000000" points="601,-177.5 601,-207.5 898,-207.5 898,-177.5 601,-177.5"/>
<text text-anchor="start" x="608" y="-188.9" font-family="Arial" font-size="14.00" fill="#000000">rentCarNumber    </text>
<text text-anchor="start" x="738.6466" y="-188.9" font-family="Arial" font-size="14.00" fill="#666666">[integer]</text>
<polygon fill="none" stroke="#000000" points="601,-147.5 601,-177.5 898,-177.5 898,-147.5 601,-147.5"/>
<text text-anchor="start" x="608" y="-158.9" font-family="Arial" font-size="14.00" fill="#000000">createdAt    </text>
<text text-anchor="start" x="702.1136" y="-158.9" font-family="Arial" font-size="14.00" fill="#666666">[timestamp without time zone]</text>
<polygon fill="none" stroke="#000000" points="601,-117.5 601,-147.5 898,-147.5 898,-117.5 601,-117.5"/>
<text text-anchor="start" x="607.9208" y="-128.9" font-family="Arial" font-size="14.00" fill="#000000">updatedAt    </text>
<text text-anchor="start" x="705.939" y="-128.9" font-family="Arial" font-size="14.00" fill="#666666">[timestamp without time zone]</text>
</g>
<!-- public.rentCarBookings&#45;&gt;public.rentCars -->
<g id="edge2" class="edge">
<title>public.rentCarBookings:rentCarRegistrationNumber&#45;&gt;public.rentCars:rentCarRegistrationNumber</title>
<path fill="none" stroke="#000000" d="M577.1405,-842.8232C531.6953,-791.9131 548.0437,-342.5 601,-342.5"/>
<polygon fill="#000000" stroke="#000000" points="577.1565,-842.8316 583.8992,-851.4796 581.5783,-845.1658 586,-847.5 586,-847.5 586,-847.5 581.5783,-845.1658 588.1008,-843.5204 577.1565,-842.8316 577.1565,-842.8316"/>
<text text-anchor="start" x="6.5185" y="-857.5" font-family="Arial" font-size="10.00" fill="#000000">FOREIGN KEY (&quot;rentCarRegistrationNumber&quot;) REFERENCES &quot;rentCars&quot;(&quot;rentCarRegistrationNumber&quot;) ON DELETE CASCADE</text>
</g>
<!-- public.employees -->
<g id="node4" class="node">
<title>public.employees</title>
<polygon fill="#efefef" stroke="transparent" points="1002,-447.5 1002,-482.5 1299,-482.5 1299,-447.5 1002,-447.5"/>
<polygon fill="none" stroke="#000000" points="1002,-447.5 1002,-482.5 1299,-482.5 1299,-447.5 1002,-447.5"/>
<text text-anchor="start" x="1017.2027" y="-460.3" font-family="Arial Bold" font-size="18.00" fill="#000000">public.employees</text>
<text text-anchor="start" x="1156.2293" y="-460.3" font-family="Arial" font-size="14.00" fill="#000000">    </text>
<text text-anchor="start" x="1190.4341" y="-460.3" font-family="Arial" font-size="14.00" fill="#666666">[BASE TABLE]</text>
<polygon fill="none" stroke="#000000" points="1002,-417.5 1002,-447.5 1299,-447.5 1299,-417.5 1002,-417.5"/>
<text text-anchor="start" x="1009" y="-428.9" font-family="Arial" font-size="14.00" fill="#000000">userID    </text>
<text text-anchor="start" x="1084.4278" y="-428.9" font-family="Arial" font-size="14.00" fill="#666666">[integer]</text>
<polygon fill="none" stroke="#000000" points="1002,-387.5 1002,-417.5 1299,-417.5 1299,-387.5 1002,-387.5"/>
<text text-anchor="start" x="1009" y="-398.9" font-family="Arial" font-size="14.00" fill="#000000">employeeID    </text>
<text text-anchor="start" x="1117.8822" y="-398.9" font-family="Arial" font-size="14.00" fill="#666666">[integer]</text>
<polygon fill="none" stroke="#000000" points="1002,-357.5 1002,-387.5 1299,-387.5 1299,-357.5 1002,-357.5"/>
<text text-anchor="start" x="1009" y="-368.9" font-family="Arial" font-size="14.00" fill="#000000">shortUserName    </text>
<text text-anchor="start" x="1141.2034" y="-368.9" font-family="Arial" font-size="14.00" fill="#666666">[varchar(16)]</text>
<polygon fill="none" stroke="#000000" points="1002,-327.5 1002,-357.5 1299,-357.5 1299,-327.5 1002,-327.5"/>
<text text-anchor="start" x="1009" y="-338.9" font-family="Arial" font-size="14.00" fill="#000000">employmentNumber    </text>
<text text-anchor="start" x="1169.2118" y="-338.9" font-family="Arial" font-size="14.00" fill="#666666">[varchar(128)]</text>
<polygon fill="none" stroke="#000000" points="1002,-297.5 1002,-327.5 1299,-327.5 1299,-297.5 1002,-297.5"/>
<text text-anchor="start" x="1009" y="-308.9" font-family="Arial" font-size="14.00" fill="#000000">employeePersonalNumber    </text>
<text text-anchor="start" x="1208.8948" y="-308.9" font-family="Arial" font-size="14.00" fill="#666666">[varchar(16)]</text>
<polygon fill="none" stroke="#000000" points="1002,-267.5 1002,-297.5 1299,-297.5 1299,-267.5 1002,-267.5"/>
<text text-anchor="start" x="1009" y="-278.9" font-family="Arial" font-size="14.00" fill="#000000">signature    </text>
<text text-anchor="start" x="1100.7756" y="-278.9" font-family="Arial" font-size="14.00" fill="#666666">[varchar(4)]</text>
<polygon fill="none" stroke="#000000" points="1002,-237.5 1002,-267.5 1299,-267.5 1299,-237.5 1002,-237.5"/>
<text text-anchor="start" x="1009" y="-248.9" font-family="Arial" font-size="14.00" fill="#000000">employeeHourlyRate    </text>
<text text-anchor="start" x="1173.8864" y="-248.9" font-family="Arial" font-size="14.00" fill="#666666">[real]</text>
<polygon fill="none" stroke="#000000" points="1002,-207.5 1002,-237.5 1299,-237.5 1299,-207.5 1002,-207.5"/>
<text text-anchor="start" x="1009" y="-218.9" font-family="Arial" font-size="14.00" fill="#000000">employeeHourlyRateCurrency    </text>
<text text-anchor="start" x="1230.662" y="-218.9" font-family="Arial" font-size="14.00" fill="#666666">[varchar]</text>
<polygon fill="none" stroke="#000000" points="1002,-177.5 1002,-207.5 1299,-207.5 1299,-177.5 1002,-177.5"/>
<text text-anchor="start" x="1009" y="-188.9" font-family="Arial" font-size="14.00" fill="#000000">employeePin    </text>
<text text-anchor="start" x="1124.1108" y="-188.9" font-family="Arial" font-size="14.00" fill="#666666">[varchar(4)]</text>
<polygon fill="none" stroke="#000000" points="1002,-147.5 1002,-177.5 1299,-177.5 1299,-147.5 1002,-147.5"/>
<text text-anchor="start" x="1009" y="-158.9" font-family="Arial" font-size="14.00" fill="#000000">employeeComment    </text>
<text text-anchor="start" x="1164.5512" y="-158.9" font-family="Arial" font-size="14.00" fill="#666666">[varchar]</text>
<polygon fill="none" stroke="#000000" points="1002,-117.5 1002,-147.5 1299,-147.5 1299,-117.5 1002,-117.5"/>
<text text-anchor="start" x="1009" y="-128.9" font-family="Arial" font-size="14.00" fill="#000000">employeeActive    </text>
<text text-anchor="start" x="1142.0014" y="-128.9" font-family="Arial" font-size="14.00" fill="#666666">[boolean]</text>
<polygon fill="none" stroke="#000000" points="1002,-87.5 1002,-117.5 1299,-117.5 1299,-87.5 1002,-87.5"/>
<text text-anchor="start" x="1009" y="-98.9" font-family="Arial" font-size="14.00" fill="#000000">createdAt    </text>
<text text-anchor="start" x="1103.1136" y="-98.9" font-family="Arial" font-size="14.00" fill="#666666">[timestamp without time zone]</text>
<polygon fill="none" stroke="#000000" points="1002,-57.5 1002,-87.5 1299,-87.5 1299,-57.5 1002,-57.5"/>
<text text-anchor="start" x="1008.9208" y="-68.9" font-family="Arial" font-size="14.00" fill="#000000">updatedAt    </text>
<text text-anchor="start" x="1106.939" y="-68.9" font-family="Arial" font-size="14.00" fill="#666666">[timestamp without time zone]</text>
</g>
<!-- public.rentCarBookings&#45;&gt;public.employees -->
<g id="edge3" class="edge">
<title>public.rentCarBookings:employeeID&#45;&gt;public.employees:employeeID</title>
<path fill="none" stroke="#000000" d="M923.0503,-755.4152C988.0251,-726.3218 924.3232,-402.5 1002,-402.5"/>
<polygon fill="#000000" stroke="#000000" points="922.7916,-755.4688 912.086,-753.0938 917.8958,-756.4844 913,-757.5 913,-757.5 913,-757.5 917.8958,-756.4844 913.914,-761.9062 922.7916,-755.4688 922.7916,-755.4688"/>
<text text-anchor="start" x="920.223" y="-767.5" font-family="Arial" font-size="10.00" fill="#000000">FOREIGN KEY (&quot;employeeID&quot;) REFERENCES employees(&quot;employeeID&quot;) ON DELETE SET NULL</text>
</g>
</g>
</svg>
