<?xml version="1.0" encoding="UTF-8" standalone="no"?>
<!DOCTYPE svg PUBLIC "-//W3C//DTD SVG 1.1//EN"
 "http://www.w3.org/Graphics/SVG/1.1/DTD/svg11.dtd">
<!-- Generated by graphviz version 2.40.1 (20161225.0304)
 -->
<!-- Title: public.qualificationsLocal Pages: 1 -->
<svg width="1068pt" height="1379pt"
 viewBox="0.00 0.00 1067.50 1379.00" xmlns="http://www.w3.org/2000/svg" xmlns:xlink="http://www.w3.org/1999/xlink">
<g id="graph0" class="graph" transform="scale(1 1) rotate(0) translate(4 1375)">
<title>public.qualificationsLocal</title>
<polygon fill="#ffffff" stroke="transparent" points="-4,4 -4,-1375 1063.5,-1375 1063.5,4 -4,4"/>
<!-- public.qualificationsLocal -->
<g id="node1" class="node">
<title>public.qualificationsLocal</title>
<polygon fill="#efefef" stroke="transparent" points="388,-1072.5 388,-1107.5 728,-1107.5 728,-1072.5 388,-1072.5"/>
<polygon fill="none" stroke="#000000" points="388,-1072.5 388,-1107.5 728,-1107.5 728,-1072.5 388,-1072.5"/>
<text text-anchor="start" x="394.6958" y="-1085.3" font-family="Arial Bold" font-size="18.00" fill="#000000">public.qualificationsLocal</text>
<text text-anchor="start" x="593.7362" y="-1085.3" font-family="Arial" font-size="14.00" fill="#000000">    </text>
<text text-anchor="start" x="627.941" y="-1085.3" font-family="Arial" font-size="14.00" fill="#666666">[BASE TABLE]</text>
<polygon fill="none" stroke="#000000" points="388,-1042.5 388,-1072.5 728,-1072.5 728,-1042.5 388,-1042.5"/>
<text text-anchor="start" x="395" y="-1053.9" font-family="Arial" font-size="14.00" fill="#000000">storeID </text>
<text text-anchor="start" x="444.0042" y="-1053.9" font-family="Arial" font-size="14.00" fill="#666666">[integer]</text>
<polygon fill="none" stroke="#000000" points="388,-1012.5 388,-1042.5 728,-1042.5 728,-1012.5 388,-1012.5"/>
<text text-anchor="start" x="395" y="-1023.9" font-family="Arial" font-size="14.00" fill="#000000">localQualID </text>
<text text-anchor="start" x="471.2286" y="-1023.9" font-family="Arial" font-size="14.00" fill="#666666">[integer]</text>
<polygon fill="none" stroke="#000000" points="388,-982.5 388,-1012.5 728,-1012.5 728,-982.5 388,-982.5"/>
<text text-anchor="start" x="395" y="-993.9" font-family="Arial" font-size="14.00" fill="#000000">localQualName </text>
<text text-anchor="start" x="494.5638" y="-993.9" font-family="Arial" font-size="14.00" fill="#666666">[varchar(64)]</text>
<polygon fill="none" stroke="#000000" points="388,-952.5 388,-982.5 728,-982.5 728,-952.5 388,-952.5"/>
<text text-anchor="start" x="395" y="-963.9" font-family="Arial" font-size="14.00" fill="#000000">createdAt </text>
<text text-anchor="start" x="458.7994" y="-963.9" font-family="Arial" font-size="14.00" fill="#666666">[timestamp without time zone]</text>
<polygon fill="none" stroke="#000000" points="388,-922.5 388,-952.5 728,-952.5 728,-922.5 388,-922.5"/>
<text text-anchor="start" x="395" y="-933.9" font-family="Arial" font-size="14.00" fill="#000000">updatedAt </text>
<text text-anchor="start" x="462.704" y="-933.9" font-family="Arial" font-size="14.00" fill="#666666">[timestamp without time zone]</text>
<polygon fill="none" stroke="#000000" stroke-width="3" points="386.5,-921.5 386.5,-1109.5 729.5,-1109.5 729.5,-921.5 386.5,-921.5"/>
</g>
<!-- public.stores -->
<g id="node2" class="node">
<title>public.stores</title>
<polygon fill="#efefef" stroke="transparent" points="409,-762.5 409,-797.5 706,-797.5 706,-762.5 409,-762.5"/>
<polygon fill="none" stroke="#000000" points="409,-762.5 409,-797.5 706,-797.5 706,-762.5 409,-762.5"/>
<text text-anchor="start" x="443.208" y="-775.3" font-family="Arial Bold" font-size="18.00" fill="#000000">public.stores</text>
<text text-anchor="start" x="544.224" y="-775.3" font-family="Arial" font-size="14.00" fill="#000000">    </text>
<text text-anchor="start" x="578.4288" y="-775.3" font-family="Arial" font-size="14.00" fill="#666666">[BASE TABLE]</text>
<polygon fill="none" stroke="#000000" points="409,-732.5 409,-762.5 706,-762.5 706,-732.5 409,-732.5"/>
<text text-anchor="start" x="416" y="-743.9" font-family="Arial" font-size="14.00" fill="#000000">storeID    </text>
<text text-anchor="start" x="495.3184" y="-743.9" font-family="Arial" font-size="14.00" fill="#666666">[integer]</text>
<polygon fill="none" stroke="#000000" points="409,-702.5 409,-732.5 706,-732.5 706,-702.5 409,-702.5"/>
<text text-anchor="start" x="416" y="-713.9" font-family="Arial" font-size="14.00" fill="#000000">storeOrgNumber    </text>
<text text-anchor="start" x="554.4306" y="-713.9" font-family="Arial" font-size="14.00" fill="#666666">[varchar(11)]</text>
<polygon fill="none" stroke="#000000" points="409,-672.5 409,-702.5 706,-702.5 706,-672.5 409,-672.5"/>
<text text-anchor="start" x="416" y="-683.9" font-family="Arial" font-size="14.00" fill="#000000">storeName    </text>
<text text-anchor="start" x="518.6536" y="-683.9" font-family="Arial" font-size="14.00" fill="#666666">[varchar(128)]</text>
<polygon fill="none" stroke="#000000" points="409,-642.5 409,-672.5 706,-672.5 706,-642.5 409,-642.5"/>
<text text-anchor="start" x="416" y="-653.9" font-family="Arial" font-size="14.00" fill="#000000">storeWebSite    </text>
<text text-anchor="start" x="534.2174" y="-653.9" font-family="Arial" font-size="14.00" fill="#666666">[varchar]</text>
<polygon fill="none" stroke="#000000" points="409,-612.5 409,-642.5 706,-642.5 706,-612.5 409,-612.5"/>
<text text-anchor="start" x="416" y="-623.9" font-family="Arial" font-size="14.00" fill="#000000">storeVatNumber    </text>
<text text-anchor="start" x="552.1066" y="-623.9" font-family="Arial" font-size="14.00" fill="#666666">[varchar(32)]</text>
<polygon fill="none" stroke="#000000" points="409,-582.5 409,-612.5 706,-612.5 706,-582.5 409,-582.5"/>
<text text-anchor="start" x="416" y="-593.9" font-family="Arial" font-size="14.00" fill="#000000">storeFSkatt    </text>
<text text-anchor="start" x="521.7742" y="-593.9" font-family="Arial" font-size="14.00" fill="#666666">[boolean]</text>
<polygon fill="none" stroke="#000000" points="409,-552.5 409,-582.5 706,-582.5 706,-552.5 409,-552.5"/>
<text text-anchor="start" x="416" y="-563.9" font-family="Arial" font-size="14.00" fill="#000000">storeStatus    </text>
<text text-anchor="start" x="521.0042" y="-563.9" font-family="Arial" font-size="14.00" fill="#666666">[boolean]</text>
<polygon fill="none" stroke="#000000" points="409,-522.5 409,-552.5 706,-552.5 706,-522.5 409,-522.5"/>
<text text-anchor="start" x="416" y="-533.9" font-family="Arial" font-size="14.00" fill="#000000">storeEmail    </text>
<text text-anchor="start" x="516.3142" y="-533.9" font-family="Arial" font-size="14.00" fill="#666666">[varchar]</text>
<polygon fill="none" stroke="#000000" points="409,-492.5 409,-522.5 706,-522.5 706,-492.5 409,-492.5"/>
<text text-anchor="start" x="416" y="-503.9" font-family="Arial" font-size="14.00" fill="#000000">storePhone    </text>
<text text-anchor="start" x="521.7882" y="-503.9" font-family="Arial" font-size="14.00" fill="#666666">[varchar]</text>
<polygon fill="none" stroke="#000000" points="409,-462.5 409,-492.5 706,-492.5 706,-462.5 409,-462.5"/>
<text text-anchor="start" x="416" y="-473.9" font-family="Arial" font-size="14.00" fill="#000000">storeAddress    </text>
<text text-anchor="start" x="532.6662" y="-473.9" font-family="Arial" font-size="14.00" fill="#666666">[varchar]</text>
<polygon fill="none" stroke="#000000" points="409,-432.5 409,-462.5 706,-462.5 706,-432.5 409,-432.5"/>
<text text-anchor="start" x="416" y="-443.9" font-family="Arial" font-size="14.00" fill="#000000">storeZipCode    </text>
<text text-anchor="start" x="534.2174" y="-443.9" font-family="Arial" font-size="14.00" fill="#666666">[varchar(16)]</text>
<polygon fill="none" stroke="#000000" points="409,-402.5 409,-432.5 706,-432.5 706,-402.5 409,-402.5"/>
<text text-anchor="start" x="416" y="-413.9" font-family="Arial" font-size="14.00" fill="#000000">storeCity    </text>
<text text-anchor="start" x="505.425" y="-413.9" font-family="Arial" font-size="14.00" fill="#666666">[varchar]</text>
<polygon fill="none" stroke="#000000" points="409,-372.5 409,-402.5 706,-402.5 706,-372.5 409,-372.5"/>
<text text-anchor="start" x="416" y="-383.9" font-family="Arial" font-size="14.00" fill="#000000">storeCountry    </text>
<text text-anchor="start" x="530.3268" y="-383.9" font-family="Arial" font-size="14.00" fill="#666666">[varchar]</text>
<polygon fill="none" stroke="#000000" points="409,-342.5 409,-372.5 706,-372.5 706,-342.5 409,-342.5"/>
<text text-anchor="start" x="416" y="-353.9" font-family="Arial" font-size="14.00" fill="#000000">storeDescription    </text>
<text text-anchor="start" x="551.3226" y="-353.9" font-family="Arial" font-size="14.00" fill="#666666">[varchar]</text>
<polygon fill="none" stroke="#000000" points="409,-312.5 409,-342.5 706,-342.5 706,-312.5 409,-312.5"/>
<text text-anchor="start" x="416" y="-323.9" font-family="Arial" font-size="14.00" fill="#000000">storeContactPerson    </text>
<text text-anchor="start" x="573.9018" y="-323.9" font-family="Arial" font-size="14.00" fill="#666666">[varchar(64)]</text>
<polygon fill="none" stroke="#000000" points="409,-282.5 409,-312.5 706,-312.5 706,-282.5 409,-282.5"/>
<text text-anchor="start" x="416" y="-293.9" font-family="Arial" font-size="14.00" fill="#000000">storeMaxUsers    </text>
<text text-anchor="start" x="544.3142" y="-293.9" font-family="Arial" font-size="14.00" fill="#666666">[integer]</text>
<polygon fill="none" stroke="#000000" points="409,-252.5 409,-282.5 706,-282.5 706,-252.5 409,-252.5"/>
<text text-anchor="start" x="416" y="-263.9" font-family="Arial" font-size="14.00" fill="#000000">currency    </text>
<text text-anchor="start" x="503.8738" y="-263.9" font-family="Arial" font-size="14.00" fill="#666666">[varchar]</text>
<polygon fill="none" stroke="#000000" points="409,-222.5 409,-252.5 706,-252.5 706,-222.5 409,-222.5"/>
<text text-anchor="start" x="416" y="-233.9" font-family="Arial" font-size="14.00" fill="#000000">storeAllowCarAPI    </text>
<text text-anchor="start" x="559.8738" y="-233.9" font-family="Arial" font-size="14.00" fill="#666666">[boolean]</text>
<polygon fill="none" stroke="#000000" points="409,-192.5 409,-222.5 706,-222.5 706,-192.5 409,-192.5"/>
<text text-anchor="start" x="416" y="-203.9" font-family="Arial" font-size="14.00" fill="#000000">storeAllowSendSMS    </text>
<text text-anchor="start" x="577.7784" y="-203.9" font-family="Arial" font-size="14.00" fill="#666666">[boolean]</text>
<polygon fill="none" stroke="#000000" points="409,-162.5 409,-192.5 706,-192.5 706,-162.5 409,-162.5"/>
<text text-anchor="start" x="416" y="-173.9" font-family="Arial" font-size="14.00" fill="#000000">storeSendSMS    </text>
<text text-anchor="start" x="544.3394" y="-173.9" font-family="Arial" font-size="14.00" fill="#666666">[boolean]</text>
<polygon fill="none" stroke="#000000" points="409,-132.5 409,-162.5 706,-162.5 706,-132.5 409,-132.5"/>
<text text-anchor="start" x="416" y="-143.9" font-family="Arial" font-size="14.00" fill="#000000">storeUsesCheckin    </text>
<text text-anchor="start" x="563.7714" y="-143.9" font-family="Arial" font-size="14.00" fill="#666666">[boolean]</text>
<polygon fill="none" stroke="#000000" points="409,-102.5 409,-132.5 706,-132.5 706,-102.5 409,-102.5"/>
<text text-anchor="start" x="416" y="-113.9" font-family="Arial" font-size="14.00" fill="#000000">storeUsesPIN    </text>
<text text-anchor="start" x="536.5442" y="-113.9" font-family="Arial" font-size="14.00" fill="#666666">[boolean]</text>
<polygon fill="none" stroke="#000000" points="409,-72.5 409,-102.5 706,-102.5 706,-72.5 409,-72.5"/>
<text text-anchor="start" x="416" y="-83.9" font-family="Arial" font-size="14.00" fill="#000000">createdAt    </text>
<text text-anchor="start" x="510.1136" y="-83.9" font-family="Arial" font-size="14.00" fill="#666666">[timestamp without time zone]</text>
<polygon fill="none" stroke="#000000" points="409,-42.5 409,-72.5 706,-72.5 706,-42.5 409,-42.5"/>
<text text-anchor="start" x="415.9208" y="-53.9" font-family="Arial" font-size="14.00" fill="#000000">updatedAt    </text>
<text text-anchor="start" x="513.939" y="-53.9" font-family="Arial" font-size="14.00" fill="#666666">[timestamp without time zone]</text>
</g>
<!-- public.qualificationsLocal&#45;&gt;public.stores -->
<g id="edge1" class="edge">
<title>public.qualificationsLocal:storeID&#45;&gt;public.stores:storeID</title>
<path fill="none" stroke="#000000" d="M377.8293,-1056.7859C310.2378,-1046.7814 336.9606,-934.1434 388,-877 482.7505,-770.9177 611.2495,-947.0823 706,-841 733.6822,-810.0071 747.5556,-747.5 706,-747.5"/>
<polygon fill="#000000" stroke="#000000" points="378.0246,-1056.7996 387.6848,-1061.989 383.0123,-1057.1498 388,-1057.5 388,-1057.5 388,-1057.5 383.0123,-1057.1498 388.3152,-1053.011 378.0246,-1056.7996 378.0246,-1056.7996"/>
<text text-anchor="start" x="6.623" y="-1067.5" font-family="Arial" font-size="10.00" fill="#000000">FOREIGN KEY (&quot;storeID&quot;) REFERENCES stores(&quot;storeID&quot;) ON DELETE CASCADE</text>
</g>
<!-- public.employeeLocalQualifications -->
<g id="node3" class="node">
<title>public.employeeLocalQualifications</title>
<polygon fill="#efefef" stroke="transparent" points="89,-1292.5 89,-1327.5 511,-1327.5 511,-1292.5 89,-1292.5"/>
<polygon fill="none" stroke="#000000" points="89,-1292.5 89,-1327.5 511,-1327.5 511,-1292.5 89,-1292.5"/>
<text text-anchor="start" x="95.6891" y="-1305.3" font-family="Arial Bold" font-size="18.00" fill="#000000">public.employeeLocalQualifications</text>
<text text-anchor="start" x="376.7429" y="-1305.3" font-family="Arial" font-size="14.00" fill="#000000">    </text>
<text text-anchor="start" x="410.9477" y="-1305.3" font-family="Arial" font-size="14.00" fill="#666666">[BASE TABLE]</text>
<polygon fill="none" stroke="#000000" points="89,-1262.5 89,-1292.5 511,-1292.5 511,-1262.5 89,-1262.5"/>
<text text-anchor="start" x="96" y="-1273.9" font-family="Arial" font-size="14.00" fill="#000000">employeeID    </text>
<text text-anchor="start" x="204.8822" y="-1273.9" font-family="Arial" font-size="14.00" fill="#666666">[integer]</text>
<polygon fill="none" stroke="#000000" points="89,-1232.5 89,-1262.5 511,-1262.5 511,-1232.5 89,-1232.5"/>
<text text-anchor="start" x="96" y="-1243.9" font-family="Arial" font-size="14.00" fill="#000000">localQualID    </text>
<text text-anchor="start" x="202.5428" y="-1243.9" font-family="Arial" font-size="14.00" fill="#666666">[integer]</text>
</g>
<!-- public.employeeLocalQualifications&#45;&gt;public.qualificationsLocal -->
<g id="edge2" class="edge">
<title>public.employeeLocalQualifications:localQualID&#45;&gt;public.qualificationsLocal:localQualID</title>
<path fill="none" stroke="#000000" d="M520.8239,-1244.7453C533.0612,-1235.7902 523.8097,-1207.0963 511,-1190 476.8453,-1144.416 422.1547,-1199.584 388,-1154 354.2877,-1109.0064 331.7778,-1027.5 388,-1027.5"/>
<polygon fill="#000000" stroke="#000000" points="520.6286,-1244.7999 509.785,-1243.1671 515.8143,-1246.15 511,-1247.5 511,-1247.5 511,-1247.5 515.8143,-1246.15 512.215,-1251.8329 520.6286,-1244.7999 520.6286,-1244.7999"/>
<text text-anchor="start" x="29.399" y="-1257.5" font-family="Arial" font-size="10.00" fill="#000000">FOREIGN KEY (&quot;localQualID&quot;) REFERENCES &quot;qualificationsLocal&quot;(&quot;localQualID&quot;) ON DELETE CASCADE</text>
</g>
<!-- public.serviceLocalQualifications -->
<g id="node4" class="node">
<title>public.serviceLocalQualifications</title>
<polygon fill="#efefef" stroke="transparent" points="616,-1292.5 616,-1327.5 1017,-1327.5 1017,-1292.5 616,-1292.5"/>
<polygon fill="none" stroke="#000000" points="616,-1292.5 616,-1327.5 1017,-1327.5 1017,-1292.5 616,-1292.5"/>
<text text-anchor="start" x="622.6984" y="-1305.3" font-family="Arial Bold" font-size="18.00" fill="#000000">public.serviceLocalQualifications</text>
<text text-anchor="start" x="882.7336" y="-1305.3" font-family="Arial" font-size="14.00" fill="#000000">    </text>
<text text-anchor="start" x="916.9384" y="-1305.3" font-family="Arial" font-size="14.00" fill="#666666">[BASE TABLE]</text>
<polygon fill="none" stroke="#000000" points="616,-1262.5 616,-1292.5 1017,-1292.5 1017,-1262.5 616,-1262.5"/>
<text text-anchor="start" x="623" y="-1273.9" font-family="Arial" font-size="14.00" fill="#000000">serviceID    </text>
<text text-anchor="start" x="715.5344" y="-1273.9" font-family="Arial" font-size="14.00" fill="#666666">[integer]</text>
<polygon fill="none" stroke="#000000" points="616,-1232.5 616,-1262.5 1017,-1262.5 1017,-1232.5 616,-1232.5"/>
<text text-anchor="start" x="623" y="-1243.9" font-family="Arial" font-size="14.00" fill="#000000">localQualID    </text>
<text text-anchor="start" x="729.5428" y="-1243.9" font-family="Arial" font-size="14.00" fill="#666666">[integer]</text>
</g>
<!-- public.serviceLocalQualifications&#45;&gt;public.qualificationsLocal -->
<g id="edge3" class="edge">
<title>public.serviceLocalQualifications:localQualID&#45;&gt;public.qualificationsLocal:localQualID</title>
<path fill="none" stroke="#000000" d="M606.1944,-1244.7587C594.0128,-1235.8449 603.4159,-1207.263 616,-1190 646.7998,-1147.7484 697.2002,-1196.2516 728,-1154 761.1184,-1108.5676 784.2222,-1027.5 728,-1027.5"/>
<polygon fill="#000000" stroke="#000000" points="606.3693,-1244.8075 614.7884,-1251.8338 611.1846,-1246.1538 616,-1247.5 616,-1247.5 616,-1247.5 611.1846,-1246.1538 617.2116,-1243.1662 606.3693,-1244.8075 606.3693,-1244.8075"/>
<text text-anchor="start" x="622.68" y="-1257.5" font-family="Arial" font-size="10.00" fill="#000000">FOREIGN KEY (&quot;localQualID&quot;) REFERENCES &quot;qualificationsLocal&quot;(&quot;localQualID&quot;)</text>
</g>
</g>
</svg>
