<?xml version="1.0" encoding="UTF-8" standalone="no"?>
<!DOCTYPE svg PUBLIC "-//W3C//DTD SVG 1.1//EN"
 "http://www.w3.org/Graphics/SVG/1.1/DTD/svg11.dtd">
<!-- Generated by graphviz version 2.40.1 (20161225.0304)
 -->
<!-- Title: public.localServiceVariants Pages: 1 -->
<svg width="1390pt" height="1949pt"
 viewBox="0.00 0.00 1390.00 1949.00" xmlns="http://www.w3.org/2000/svg" xmlns:xlink="http://www.w3.org/1999/xlink">
<g id="graph0" class="graph" transform="scale(1 1) rotate(0) translate(4 1945)">
<title>public.localServiceVariants</title>
<polygon fill="#ffffff" stroke="transparent" points="-4,4 -4,-1945 1386,-1945 1386,4 -4,4"/>
<!-- public.localServiceVariants -->
<g id="node1" class="node">
<title>public.localServiceVariants</title>
<polygon fill="#efefef" stroke="transparent" points="490,-1252.5 490,-1287.5 846,-1287.5 846,-1252.5 490,-1252.5"/>
<polygon fill="none" stroke="#000000" points="490,-1252.5 490,-1287.5 846,-1287.5 846,-1252.5 490,-1252.5"/>
<text text-anchor="start" x="496.7038" y="-1265.3" font-family="Arial Bold" font-size="18.00" fill="#000000">public.localServiceVariants</text>
<text text-anchor="start" x="711.7282" y="-1265.3" font-family="Arial" font-size="14.00" fill="#000000">    </text>
<text text-anchor="start" x="745.933" y="-1265.3" font-family="Arial" font-size="14.00" fill="#666666">[BASE TABLE]</text>
<polygon fill="none" stroke="#000000" points="490,-1222.5 490,-1252.5 846,-1252.5 846,-1222.5 490,-1222.5"/>
<text text-anchor="start" x="497" y="-1233.9" font-family="Arial" font-size="14.00" fill="#000000">serviceVariantID </text>
<text text-anchor="start" x="603.5624" y="-1233.9" font-family="Arial" font-size="14.00" fill="#666666">[integer]</text>
<polygon fill="none" stroke="#000000" points="490,-1192.5 490,-1222.5 846,-1222.5 846,-1192.5 490,-1192.5"/>
<text text-anchor="start" x="497" y="-1203.9" font-family="Arial" font-size="14.00" fill="#000000">name </text>
<text text-anchor="start" x="535.899" y="-1203.9" font-family="Arial" font-size="14.00" fill="#666666">[varchar(256)]</text>
<polygon fill="none" stroke="#000000" points="490,-1162.5 490,-1192.5 846,-1192.5 846,-1162.5 490,-1162.5"/>
<text text-anchor="start" x="497" y="-1173.9" font-family="Arial" font-size="14.00" fill="#000000">currency </text>
<text text-anchor="start" x="554.5596" y="-1173.9" font-family="Arial" font-size="14.00" fill="#666666">[varchar(5)]</text>
<polygon fill="none" stroke="#000000" points="490,-1132.5 490,-1162.5 846,-1162.5 846,-1132.5 490,-1132.5"/>
<text text-anchor="start" x="497" y="-1143.9" font-family="Arial" font-size="14.00" fill="#000000">cost </text>
<text text-anchor="start" x="526.5638" y="-1143.9" font-family="Arial" font-size="14.00" fill="#666666">[real]</text>
<polygon fill="none" stroke="#000000" points="490,-1102.5 490,-1132.5 846,-1132.5 846,-1102.5 490,-1102.5"/>
<text text-anchor="start" x="497" y="-1113.9" font-family="Arial" font-size="14.00" fill="#000000">award </text>
<text text-anchor="start" x="539.0056" y="-1113.9" font-family="Arial" font-size="14.00" fill="#666666">[real]</text>
<polygon fill="none" stroke="#000000" points="490,-1072.5 490,-1102.5 846,-1102.5 846,-1072.5 490,-1072.5"/>
<text text-anchor="start" x="497" y="-1083.9" font-family="Arial" font-size="14.00" fill="#000000">day1 </text>
<text text-anchor="start" x="531.2384" y="-1083.9" font-family="Arial" font-size="14.00" fill="#666666">[time without time zone]</text>
<polygon fill="none" stroke="#000000" points="490,-1042.5 490,-1072.5 846,-1072.5 846,-1042.5 490,-1042.5"/>
<text text-anchor="start" x="497" y="-1053.9" font-family="Arial" font-size="14.00" fill="#000000">day2 </text>
<text text-anchor="start" x="531.2384" y="-1053.9" font-family="Arial" font-size="14.00" fill="#666666">[time without time zone]</text>
<polygon fill="none" stroke="#000000" points="490,-1012.5 490,-1042.5 846,-1042.5 846,-1012.5 490,-1012.5"/>
<text text-anchor="start" x="497" y="-1023.9" font-family="Arial" font-size="14.00" fill="#000000">day3 </text>
<text text-anchor="start" x="531.2384" y="-1023.9" font-family="Arial" font-size="14.00" fill="#666666">[time without time zone]</text>
<polygon fill="none" stroke="#000000" points="490,-982.5 490,-1012.5 846,-1012.5 846,-982.5 490,-982.5"/>
<text text-anchor="start" x="497" y="-993.9" font-family="Arial" font-size="14.00" fill="#000000">day4 </text>
<text text-anchor="start" x="531.2384" y="-993.9" font-family="Arial" font-size="14.00" fill="#666666">[time without time zone]</text>
<polygon fill="none" stroke="#000000" points="490,-952.5 490,-982.5 846,-982.5 846,-952.5 490,-952.5"/>
<text text-anchor="start" x="497" y="-963.9" font-family="Arial" font-size="14.00" fill="#000000">day5 </text>
<text text-anchor="start" x="531.2384" y="-963.9" font-family="Arial" font-size="14.00" fill="#666666">[time without time zone]</text>
<polygon fill="none" stroke="#000000" points="490,-922.5 490,-952.5 846,-952.5 846,-922.5 490,-922.5"/>
<text text-anchor="start" x="497" y="-933.9" font-family="Arial" font-size="14.00" fill="#000000">localServiceID </text>
<text text-anchor="start" x="590.3352" y="-933.9" font-family="Arial" font-size="14.00" fill="#666666">[integer]</text>
<polygon fill="none" stroke="#000000" points="490,-892.5 490,-922.5 846,-922.5 846,-892.5 490,-892.5"/>
<text text-anchor="start" x="497" y="-903.9" font-family="Arial" font-size="14.00" fill="#000000">createdAt </text>
<text text-anchor="start" x="560.7994" y="-903.9" font-family="Arial" font-size="14.00" fill="#666666">[timestamp without time zone]</text>
<polygon fill="none" stroke="#000000" points="490,-862.5 490,-892.5 846,-892.5 846,-862.5 490,-862.5"/>
<text text-anchor="start" x="497" y="-873.9" font-family="Arial" font-size="14.00" fill="#000000">updatedAt </text>
<text text-anchor="start" x="564.704" y="-873.9" font-family="Arial" font-size="14.00" fill="#666666">[timestamp without time zone]</text>
<polygon fill="none" stroke="#000000" stroke-width="3" points="488.5,-861.5 488.5,-1289.5 847.5,-1289.5 847.5,-861.5 488.5,-861.5"/>
</g>
<!-- public.localServices -->
<g id="node3" class="node">
<title>public.localServices</title>
<polygon fill="#efefef" stroke="transparent" points="518,-702.5 518,-737.5 817,-737.5 817,-702.5 518,-702.5"/>
<polygon fill="none" stroke="#000000" points="518,-702.5 518,-737.5 817,-737.5 817,-702.5 518,-702.5"/>
<text text-anchor="start" x="524.7095" y="-715.3" font-family="Arial Bold" font-size="18.00" fill="#000000">public.localServices</text>
<text text-anchor="start" x="682.7225" y="-715.3" font-family="Arial" font-size="14.00" fill="#000000">    </text>
<text text-anchor="start" x="716.9273" y="-715.3" font-family="Arial" font-size="14.00" fill="#666666">[BASE TABLE]</text>
<polygon fill="none" stroke="#000000" points="518,-672.5 518,-702.5 817,-702.5 817,-672.5 518,-672.5"/>
<text text-anchor="start" x="525" y="-683.9" font-family="Arial" font-size="14.00" fill="#000000">localServiceID    </text>
<text text-anchor="start" x="648.6494" y="-683.9" font-family="Arial" font-size="14.00" fill="#666666">[integer]</text>
<polygon fill="none" stroke="#000000" points="518,-642.5 518,-672.5 817,-672.5 817,-642.5 518,-642.5"/>
<text text-anchor="start" x="525" y="-653.9" font-family="Arial" font-size="14.00" fill="#000000">serviceCategoryID    </text>
<text text-anchor="start" x="674.3226" y="-653.9" font-family="Arial" font-size="14.00" fill="#666666">[integer]</text>
<polygon fill="none" stroke="#000000" points="518,-612.5 518,-642.5 817,-642.5 817,-612.5 518,-612.5"/>
<text text-anchor="start" x="525" y="-623.9" font-family="Arial" font-size="14.00" fill="#000000">name    </text>
<text text-anchor="start" x="594.2132" y="-623.9" font-family="Arial" font-size="14.00" fill="#666666">[varchar(256)]</text>
<polygon fill="none" stroke="#000000" points="518,-582.5 518,-612.5 817,-612.5 817,-582.5 518,-582.5"/>
<text text-anchor="start" x="525" y="-593.9" font-family="Arial" font-size="14.00" fill="#000000">storeID    </text>
<text text-anchor="start" x="604.3184" y="-593.9" font-family="Arial" font-size="14.00" fill="#666666">[integer]</text>
<polygon fill="none" stroke="#000000" points="518,-552.5 518,-582.5 817,-582.5 817,-552.5 518,-552.5"/>
<text text-anchor="start" x="525" y="-563.9" font-family="Arial" font-size="14.00" fill="#000000">currency    </text>
<text text-anchor="start" x="612.8738" y="-563.9" font-family="Arial" font-size="14.00" fill="#666666">[varchar(5)]</text>
<polygon fill="none" stroke="#000000" points="518,-522.5 518,-552.5 817,-552.5 817,-522.5 518,-522.5"/>
<text text-anchor="start" x="525" y="-533.9" font-family="Arial" font-size="14.00" fill="#000000">cost    </text>
<text text-anchor="start" x="584.878" y="-533.9" font-family="Arial" font-size="14.00" fill="#666666">[real]</text>
<polygon fill="none" stroke="#000000" points="518,-492.5 518,-522.5 817,-522.5 817,-492.5 518,-492.5"/>
<text text-anchor="start" x="525" y="-503.9" font-family="Arial" font-size="14.00" fill="#000000">includeInAutomaticSms    </text>
<text text-anchor="start" x="705.4516" y="-503.9" font-family="Arial" font-size="14.00" fill="#666666">[boolean]</text>
<polygon fill="none" stroke="#000000" points="518,-462.5 518,-492.5 817,-492.5 817,-462.5 518,-462.5"/>
<text text-anchor="start" x="525" y="-473.9" font-family="Arial" font-size="14.00" fill="#000000">hidden    </text>
<text text-anchor="start" x="601.2244" y="-473.9" font-family="Arial" font-size="14.00" fill="#666666">[boolean]</text>
<polygon fill="none" stroke="#000000" points="518,-432.5 518,-462.5 817,-462.5 817,-432.5 518,-432.5"/>
<text text-anchor="start" x="525" y="-443.9" font-family="Arial" font-size="14.00" fill="#000000">callInterval    </text>
<text text-anchor="start" x="626.0968" y="-443.9" font-family="Arial" font-size="14.00" fill="#666666">[integer]</text>
<polygon fill="none" stroke="#000000" points="518,-402.5 518,-432.5 817,-432.5 817,-402.5 518,-402.5"/>
<text text-anchor="start" x="525" y="-413.9" font-family="Arial" font-size="14.00" fill="#000000">colorForService    </text>
<text text-anchor="start" x="657.202" y="-413.9" font-family="Arial" font-size="14.00" fill="#666666">[varchar]</text>
<polygon fill="none" stroke="#000000" points="518,-372.5 518,-402.5 817,-402.5 817,-372.5 518,-372.5"/>
<text text-anchor="start" x="525" y="-383.9" font-family="Arial" font-size="14.00" fill="#000000">warrantyCard    </text>
<text text-anchor="start" x="643.2034" y="-383.9" font-family="Arial" font-size="14.00" fill="#666666">[boolean]</text>
<polygon fill="none" stroke="#000000" points="518,-342.5 518,-372.5 817,-372.5 817,-342.5 518,-342.5"/>
<text text-anchor="start" x="525" y="-353.9" font-family="Arial" font-size="14.00" fill="#000000">itemNumber    </text>
<text text-anchor="start" x="635.4208" y="-353.9" font-family="Arial" font-size="14.00" fill="#666666">[varchar(256)]</text>
<polygon fill="none" stroke="#000000" points="518,-312.5 518,-342.5 817,-342.5 817,-312.5 518,-312.5"/>
<text text-anchor="start" x="525" y="-323.9" font-family="Arial" font-size="14.00" fill="#000000">award    </text>
<text text-anchor="start" x="597.3198" y="-323.9" font-family="Arial" font-size="14.00" fill="#666666">[real]</text>
<polygon fill="none" stroke="#000000" points="518,-282.5 518,-312.5 817,-312.5 817,-282.5 518,-282.5"/>
<text text-anchor="start" x="525" y="-293.9" font-family="Arial" font-size="14.00" fill="#000000">suppliersArticleNumber    </text>
<text text-anchor="start" x="703.8682" y="-293.9" font-family="Arial" font-size="14.00" fill="#666666">[varchar(256)]</text>
<polygon fill="none" stroke="#000000" points="518,-252.5 518,-282.5 817,-282.5 817,-252.5 518,-252.5"/>
<text text-anchor="start" x="525" y="-263.9" font-family="Arial" font-size="14.00" fill="#000000">externalArticleNumber    </text>
<text text-anchor="start" x="697.6522" y="-263.9" font-family="Arial" font-size="14.00" fill="#666666">[varchar(256)]</text>
<polygon fill="none" stroke="#000000" points="518,-222.5 518,-252.5 817,-252.5 817,-222.5 518,-222.5"/>
<text text-anchor="start" x="525" y="-233.9" font-family="Arial" font-size="14.00" fill="#000000">day1    </text>
<text text-anchor="start" x="589.5526" y="-233.9" font-family="Arial" font-size="14.00" fill="#666666">[time without time zone]</text>
<polygon fill="none" stroke="#000000" points="518,-192.5 518,-222.5 817,-222.5 817,-192.5 518,-192.5"/>
<text text-anchor="start" x="525" y="-203.9" font-family="Arial" font-size="14.00" fill="#000000">day2    </text>
<text text-anchor="start" x="589.5526" y="-203.9" font-family="Arial" font-size="14.00" fill="#666666">[time without time zone]</text>
<polygon fill="none" stroke="#000000" points="518,-162.5 518,-192.5 817,-192.5 817,-162.5 518,-162.5"/>
<text text-anchor="start" x="525" y="-173.9" font-family="Arial" font-size="14.00" fill="#000000">day3    </text>
<text text-anchor="start" x="589.5526" y="-173.9" font-family="Arial" font-size="14.00" fill="#666666">[time without time zone]</text>
<polygon fill="none" stroke="#000000" points="518,-132.5 518,-162.5 817,-162.5 817,-132.5 518,-132.5"/>
<text text-anchor="start" x="525" y="-143.9" font-family="Arial" font-size="14.00" fill="#000000">day4    </text>
<text text-anchor="start" x="589.5526" y="-143.9" font-family="Arial" font-size="14.00" fill="#666666">[time without time zone]</text>
<polygon fill="none" stroke="#000000" points="518,-102.5 518,-132.5 817,-132.5 817,-102.5 518,-102.5"/>
<text text-anchor="start" x="525" y="-113.9" font-family="Arial" font-size="14.00" fill="#000000">day5    </text>
<text text-anchor="start" x="589.5526" y="-113.9" font-family="Arial" font-size="14.00" fill="#666666">[time without time zone]</text>
<polygon fill="none" stroke="#000000" points="518,-72.5 518,-102.5 817,-102.5 817,-72.5 518,-72.5"/>
<text text-anchor="start" x="525" y="-83.9" font-family="Arial" font-size="14.00" fill="#000000">createdAt    </text>
<text text-anchor="start" x="619.1136" y="-83.9" font-family="Arial" font-size="14.00" fill="#666666">[timestamp without time zone]</text>
<polygon fill="none" stroke="#000000" points="518,-42.5 518,-72.5 817,-72.5 817,-42.5 518,-42.5"/>
<text text-anchor="start" x="525" y="-53.9" font-family="Arial" font-size="14.00" fill="#000000">updatedAt    </text>
<text text-anchor="start" x="623.0182" y="-53.9" font-family="Arial" font-size="14.00" fill="#666666">[timestamp without time zone]</text>
</g>
<!-- public.localServiceVariants&#45;&gt;public.localServices -->
<g id="edge2" class="edge">
<title>public.localServiceVariants:localServiceID&#45;&gt;public.localServices:localServiceID</title>
<path fill="none" stroke="#000000" d="M480.0004,-936.4087C438.9643,-926.6691 456.7056,-854.1611 490,-817 538.7832,-762.5514 768.2168,-835.4486 817,-781 844.7299,-750.0498 858.5556,-687.5 817,-687.5"/>
<polygon fill="#000000" stroke="#000000" points="480.059,-936.415 489.5117,-941.9734 485.0295,-936.9575 490,-937.5 490,-937.5 490,-937.5 485.0295,-936.9575 490.4883,-933.0266 480.059,-936.415 480.059,-936.415"/>
<text text-anchor="start" x="6.5765" y="-947.5" font-family="Arial" font-size="10.00" fill="#000000">FOREIGN KEY (&quot;localServiceID&quot;) REFERENCES &quot;localServices&quot;(&quot;localServiceID&quot;) ON DELETE CASCADE</text>
</g>
<!-- public.orderLocalServices -->
<g id="node2" class="node">
<title>public.orderLocalServices</title>
<polygon fill="#efefef" stroke="transparent" points="494,-1862.5 494,-1897.5 841,-1897.5 841,-1862.5 494,-1862.5"/>
<polygon fill="none" stroke="#000000" points="494,-1862.5 494,-1897.5 841,-1897.5 841,-1862.5 494,-1862.5"/>
<text text-anchor="start" x="500.702" y="-1875.3" font-family="Arial Bold" font-size="18.00" fill="#000000">public.orderLocalServices</text>
<text text-anchor="start" x="706.73" y="-1875.3" font-family="Arial" font-size="14.00" fill="#000000">    </text>
<text text-anchor="start" x="740.9348" y="-1875.3" font-family="Arial" font-size="14.00" fill="#666666">[BASE TABLE]</text>
<polygon fill="none" stroke="#000000" points="494,-1832.5 494,-1862.5 841,-1862.5 841,-1832.5 494,-1832.5"/>
<text text-anchor="start" x="501" y="-1843.9" font-family="Arial" font-size="14.00" fill="#000000">orderID    </text>
<text text-anchor="start" x="581.871" y="-1843.9" font-family="Arial" font-size="14.00" fill="#666666">[integer]</text>
<polygon fill="none" stroke="#000000" points="494,-1802.5 494,-1832.5 841,-1832.5 841,-1802.5 494,-1802.5"/>
<text text-anchor="start" x="501" y="-1813.9" font-family="Arial" font-size="14.00" fill="#000000">localServiceID    </text>
<text text-anchor="start" x="624.6494" y="-1813.9" font-family="Arial" font-size="14.00" fill="#666666">[integer]</text>
<polygon fill="none" stroke="#000000" points="494,-1772.5 494,-1802.5 841,-1802.5 841,-1772.5 494,-1772.5"/>
<text text-anchor="start" x="501" y="-1783.9" font-family="Arial" font-size="14.00" fill="#000000">serviceVariantID    </text>
<text text-anchor="start" x="637.8766" y="-1783.9" font-family="Arial" font-size="14.00" fill="#666666">[integer]</text>
<polygon fill="none" stroke="#000000" points="494,-1742.5 494,-1772.5 841,-1772.5 841,-1742.5 494,-1742.5"/>
<text text-anchor="start" x="501" y="-1753.9" font-family="Arial" font-size="14.00" fill="#000000">day1    </text>
<text text-anchor="start" x="565.5526" y="-1753.9" font-family="Arial" font-size="14.00" fill="#666666">[timestamp without time zone]</text>
<polygon fill="none" stroke="#000000" points="494,-1712.5 494,-1742.5 841,-1742.5 841,-1712.5 494,-1712.5"/>
<text text-anchor="start" x="501" y="-1723.9" font-family="Arial" font-size="14.00" fill="#000000">day1Work    </text>
<text text-anchor="start" x="598.2104" y="-1723.9" font-family="Arial" font-size="14.00" fill="#666666">[interval]</text>
<polygon fill="none" stroke="#000000" points="494,-1682.5 494,-1712.5 841,-1712.5 841,-1682.5 494,-1682.5"/>
<text text-anchor="start" x="501" y="-1693.9" font-family="Arial" font-size="14.00" fill="#000000">employeeID    </text>
<text text-anchor="start" x="609.8822" y="-1693.9" font-family="Arial" font-size="14.00" fill="#666666">[integer]</text>
<polygon fill="none" stroke="#000000" points="494,-1652.5 494,-1682.5 841,-1682.5 841,-1652.5 494,-1652.5"/>
<text text-anchor="start" x="501" y="-1663.9" font-family="Arial" font-size="14.00" fill="#000000">day2    </text>
<text text-anchor="start" x="565.5526" y="-1663.9" font-family="Arial" font-size="14.00" fill="#666666">[timestamp without time zone]</text>
<polygon fill="none" stroke="#000000" points="494,-1622.5 494,-1652.5 841,-1652.5 841,-1622.5 494,-1622.5"/>
<text text-anchor="start" x="501" y="-1633.9" font-family="Arial" font-size="14.00" fill="#000000">day3    </text>
<text text-anchor="start" x="565.5526" y="-1633.9" font-family="Arial" font-size="14.00" fill="#666666">[timestamp without time zone]</text>
<polygon fill="none" stroke="#000000" points="494,-1592.5 494,-1622.5 841,-1622.5 841,-1592.5 494,-1592.5"/>
<text text-anchor="start" x="501" y="-1603.9" font-family="Arial" font-size="14.00" fill="#000000">day4    </text>
<text text-anchor="start" x="565.5526" y="-1603.9" font-family="Arial" font-size="14.00" fill="#666666">[timestamp without time zone]</text>
<polygon fill="none" stroke="#000000" points="494,-1562.5 494,-1592.5 841,-1592.5 841,-1562.5 494,-1562.5"/>
<text text-anchor="start" x="501" y="-1573.9" font-family="Arial" font-size="14.00" fill="#000000">day5    </text>
<text text-anchor="start" x="565.5526" y="-1573.9" font-family="Arial" font-size="14.00" fill="#666666">[timestamp without time zone]</text>
<polygon fill="none" stroke="#000000" points="494,-1532.5 494,-1562.5 841,-1562.5 841,-1532.5 494,-1532.5"/>
<text text-anchor="start" x="501" y="-1543.9" font-family="Arial" font-size="14.00" fill="#000000">cost    </text>
<text text-anchor="start" x="560.878" y="-1543.9" font-family="Arial" font-size="14.00" fill="#666666">[real]</text>
<polygon fill="none" stroke="#000000" points="494,-1502.5 494,-1532.5 841,-1532.5 841,-1502.5 494,-1502.5"/>
<text text-anchor="start" x="501" y="-1513.9" font-family="Arial" font-size="14.00" fill="#000000">discount    </text>
<text text-anchor="start" x="587.3324" y="-1513.9" font-family="Arial" font-size="14.00" fill="#666666">[real]</text>
<polygon fill="none" stroke="#000000" points="494,-1472.5 494,-1502.5 841,-1502.5 841,-1472.5 494,-1472.5"/>
<text text-anchor="start" x="501" y="-1483.9" font-family="Arial" font-size="14.00" fill="#000000">vatFree    </text>
<text text-anchor="start" x="582.6564" y="-1483.9" font-family="Arial" font-size="14.00" fill="#666666">[boolean]</text>
<polygon fill="none" stroke="#000000" points="494,-1442.5 494,-1472.5 841,-1472.5 841,-1442.5 494,-1442.5"/>
<text text-anchor="start" x="501" y="-1453.9" font-family="Arial" font-size="14.00" fill="#000000">orderNotes    </text>
<text text-anchor="start" x="604.4362" y="-1453.9" font-family="Arial" font-size="14.00" fill="#666666">[varchar]</text>
<polygon fill="none" stroke="#000000" points="494,-1412.5 494,-1442.5 841,-1442.5 841,-1412.5 494,-1412.5"/>
<text text-anchor="start" x="501" y="-1423.9" font-family="Arial" font-size="14.00" fill="#000000">amount    </text>
<text text-anchor="start" x="581.8864" y="-1423.9" font-family="Arial" font-size="14.00" fill="#666666">[integer]</text>
</g>
<!-- public.orderLocalServices&#45;&gt;public.localServiceVariants -->
<g id="edge1" class="edge">
<title>public.orderLocalServices:serviceVariantID&#45;&gt;public.localServiceVariants:serviceVariantID</title>
<path fill="none" stroke="#000000" d="M851.313,-1785.9416C931.3382,-1760.6901 900.7386,-1436.1791 841,-1370 788.4608,-1311.7966 542.5392,-1392.2034 490,-1334 461.2617,-1302.1634 447.1111,-1237.5 490,-1237.5"/>
<polygon fill="#000000" stroke="#000000" points="850.8877,-1786.0057 840.3276,-1783.0505 845.9439,-1786.7529 841,-1787.5 841,-1787.5 841,-1787.5 845.9439,-1786.7529 841.6724,-1791.9495 850.8877,-1786.0057 850.8877,-1786.0057"/>
<text text-anchor="start" x="848.292" y="-1797.5" font-family="Arial" font-size="10.00" fill="#000000">FOREIGN KEY (&quot;serviceVariantID&quot;) REFERENCES &quot;localServiceVariants&quot;(&quot;serviceVariantID&quot;) ON DELETE CASCADE</text>
</g>
</g>
</svg>
