<?xml version="1.0" encoding="UTF-8" standalone="no"?>
<!DOCTYPE svg PUBLIC "-//W3C//DTD SVG 1.1//EN"
 "http://www.w3.org/Graphics/SVG/1.1/DTD/svg11.dtd">
<!-- Generated by graphviz version 2.40.1 (20161225.0304)
 -->
<!-- Title: public.services Pages: 1 -->
<svg width="1786pt" height="1679pt"
 viewBox="0.00 0.00 1786.00 1679.00" xmlns="http://www.w3.org/2000/svg" xmlns:xlink="http://www.w3.org/1999/xlink">
<g id="graph0" class="graph" transform="scale(1 1) rotate(0) translate(4 1675)">
<title>public.services</title>
<polygon fill="#ffffff" stroke="transparent" points="-4,4 -4,-1675 1782,-1675 1782,4 -4,4"/>
<!-- public.services -->
<g id="node1" class="node">
<title>public.services</title>
<polygon fill="#efefef" stroke="transparent" points="761,-982.5 761,-1017.5 1027,-1017.5 1027,-982.5 761,-982.5"/>
<polygon fill="none" stroke="#000000" points="761,-982.5 761,-1017.5 1027,-1017.5 1027,-982.5 761,-982.5"/>
<text text-anchor="start" x="771.212" y="-995.3" font-family="Arial Bold" font-size="18.00" fill="#000000">public.services</text>
<text text-anchor="start" x="889.22" y="-995.3" font-family="Arial" font-size="14.00" fill="#000000">    </text>
<text text-anchor="start" x="923.4248" y="-995.3" font-family="Arial" font-size="14.00" fill="#666666">[BASE TABLE]</text>
<polygon fill="none" stroke="#000000" points="761,-952.5 761,-982.5 1027,-982.5 1027,-952.5 761,-952.5"/>
<text text-anchor="start" x="768" y="-963.9" font-family="Arial" font-size="14.00" fill="#000000">serviceID </text>
<text text-anchor="start" x="830.2202" y="-963.9" font-family="Arial" font-size="14.00" fill="#666666">[integer]</text>
<polygon fill="none" stroke="#000000" points="761,-922.5 761,-952.5 1027,-952.5 1027,-922.5 761,-922.5"/>
<text text-anchor="start" x="768" y="-933.9" font-family="Arial" font-size="14.00" fill="#000000">name </text>
<text text-anchor="start" x="806.899" y="-933.9" font-family="Arial" font-size="14.00" fill="#666666">[varchar(256)]</text>
<polygon fill="none" stroke="#000000" points="761,-892.5 761,-922.5 1027,-922.5 1027,-892.5 761,-892.5"/>
<text text-anchor="start" x="768" y="-903.9" font-family="Arial" font-size="14.00" fill="#000000">serviceCategoryID </text>
<text text-anchor="start" x="887.0084" y="-903.9" font-family="Arial" font-size="14.00" fill="#666666">[integer]</text>
<polygon fill="none" stroke="#000000" points="761,-862.5 761,-892.5 1027,-892.5 1027,-862.5 761,-862.5"/>
<text text-anchor="start" x="768" y="-873.9" font-family="Arial" font-size="14.00" fill="#000000">currency </text>
<text text-anchor="start" x="825.5596" y="-873.9" font-family="Arial" font-size="14.00" fill="#666666">[varchar(5)]</text>
<polygon fill="none" stroke="#000000" points="761,-832.5 761,-862.5 1027,-862.5 1027,-832.5 761,-832.5"/>
<text text-anchor="start" x="768" y="-843.9" font-family="Arial" font-size="14.00" fill="#000000">cost </text>
<text text-anchor="start" x="797.5638" y="-843.9" font-family="Arial" font-size="14.00" fill="#666666">[real]</text>
<polygon fill="none" stroke="#000000" points="761,-802.5 761,-832.5 1027,-832.5 1027,-802.5 761,-802.5"/>
<text text-anchor="start" x="768" y="-813.9" font-family="Arial" font-size="14.00" fill="#000000">includeInAutomaticSms </text>
<text text-anchor="start" x="918.1374" y="-813.9" font-family="Arial" font-size="14.00" fill="#666666">[boolean]</text>
<polygon fill="none" stroke="#000000" points="761,-772.5 761,-802.5 1027,-802.5 1027,-772.5 761,-772.5"/>
<text text-anchor="start" x="768" y="-783.9" font-family="Arial" font-size="14.00" fill="#000000">hidden </text>
<text text-anchor="start" x="813.9102" y="-783.9" font-family="Arial" font-size="14.00" fill="#666666">[boolean]</text>
<polygon fill="none" stroke="#000000" points="761,-742.5 761,-772.5 1027,-772.5 1027,-742.5 761,-742.5"/>
<text text-anchor="start" x="768" y="-753.9" font-family="Arial" font-size="14.00" fill="#000000">callInterval </text>
<text text-anchor="start" x="838.7826" y="-753.9" font-family="Arial" font-size="14.00" fill="#666666">[integer]</text>
<polygon fill="none" stroke="#000000" points="761,-712.5 761,-742.5 1027,-742.5 1027,-712.5 761,-712.5"/>
<text text-anchor="start" x="768" y="-723.9" font-family="Arial" font-size="14.00" fill="#000000">colorForService </text>
<text text-anchor="start" x="869.8878" y="-723.9" font-family="Arial" font-size="14.00" fill="#666666">[varchar]</text>
<polygon fill="none" stroke="#000000" points="761,-682.5 761,-712.5 1027,-712.5 1027,-682.5 761,-682.5"/>
<text text-anchor="start" x="768" y="-693.9" font-family="Arial" font-size="14.00" fill="#000000">warrantyCard </text>
<text text-anchor="start" x="855.8892" y="-693.9" font-family="Arial" font-size="14.00" fill="#666666">[boolean]</text>
<polygon fill="none" stroke="#000000" points="761,-652.5 761,-682.5 1027,-682.5 1027,-652.5 761,-652.5"/>
<text text-anchor="start" x="768" y="-663.9" font-family="Arial" font-size="14.00" fill="#000000">itemNumber </text>
<text text-anchor="start" x="848.1066" y="-663.9" font-family="Arial" font-size="14.00" fill="#666666">[varchar(256)]</text>
<polygon fill="none" stroke="#000000" points="761,-622.5 761,-652.5 1027,-652.5 1027,-622.5 761,-622.5"/>
<text text-anchor="start" x="768" y="-633.9" font-family="Arial" font-size="14.00" fill="#000000">award </text>
<text text-anchor="start" x="810.0056" y="-633.9" font-family="Arial" font-size="14.00" fill="#666666">[real]</text>
<polygon fill="none" stroke="#000000" points="761,-592.5 761,-622.5 1027,-622.5 1027,-592.5 761,-592.5"/>
<text text-anchor="start" x="768" y="-603.9" font-family="Arial" font-size="14.00" fill="#000000">suppliersArticleNumber </text>
<text text-anchor="start" x="916.554" y="-603.9" font-family="Arial" font-size="14.00" fill="#666666">[varchar(256)]</text>
<polygon fill="none" stroke="#000000" points="761,-562.5 761,-592.5 1027,-592.5 1027,-562.5 761,-562.5"/>
<text text-anchor="start" x="768" y="-573.9" font-family="Arial" font-size="14.00" fill="#000000">externalArticleNumber </text>
<text text-anchor="start" x="910.338" y="-573.9" font-family="Arial" font-size="14.00" fill="#666666">[varchar(256)]</text>
<polygon fill="none" stroke="#000000" points="761,-532.5 761,-562.5 1027,-562.5 1027,-532.5 761,-532.5"/>
<text text-anchor="start" x="768" y="-543.9" font-family="Arial" font-size="14.00" fill="#000000">day1 </text>
<text text-anchor="start" x="802.2384" y="-543.9" font-family="Arial" font-size="14.00" fill="#666666">[time without time zone]</text>
<polygon fill="none" stroke="#000000" points="761,-502.5 761,-532.5 1027,-532.5 1027,-502.5 761,-502.5"/>
<text text-anchor="start" x="768" y="-513.9" font-family="Arial" font-size="14.00" fill="#000000">day2 </text>
<text text-anchor="start" x="802.2384" y="-513.9" font-family="Arial" font-size="14.00" fill="#666666">[time without time zone]</text>
<polygon fill="none" stroke="#000000" points="761,-472.5 761,-502.5 1027,-502.5 1027,-472.5 761,-472.5"/>
<text text-anchor="start" x="768" y="-483.9" font-family="Arial" font-size="14.00" fill="#000000">day3 </text>
<text text-anchor="start" x="802.2384" y="-483.9" font-family="Arial" font-size="14.00" fill="#666666">[time without time zone]</text>
<polygon fill="none" stroke="#000000" points="761,-442.5 761,-472.5 1027,-472.5 1027,-442.5 761,-442.5"/>
<text text-anchor="start" x="768" y="-453.9" font-family="Arial" font-size="14.00" fill="#000000">day4 </text>
<text text-anchor="start" x="802.2384" y="-453.9" font-family="Arial" font-size="14.00" fill="#666666">[time without time zone]</text>
<polygon fill="none" stroke="#000000" points="761,-412.5 761,-442.5 1027,-442.5 1027,-412.5 761,-412.5"/>
<text text-anchor="start" x="768" y="-423.9" font-family="Arial" font-size="14.00" fill="#000000">day5 </text>
<text text-anchor="start" x="802.2384" y="-423.9" font-family="Arial" font-size="14.00" fill="#666666">[time without time zone]</text>
<polygon fill="none" stroke="#000000" points="761,-382.5 761,-412.5 1027,-412.5 1027,-382.5 761,-382.5"/>
<text text-anchor="start" x="768" y="-393.9" font-family="Arial" font-size="14.00" fill="#000000">createdAt </text>
<text text-anchor="start" x="831.7994" y="-393.9" font-family="Arial" font-size="14.00" fill="#666666">[timestamp without time zone]</text>
<polygon fill="none" stroke="#000000" points="761,-352.5 761,-382.5 1027,-382.5 1027,-352.5 761,-352.5"/>
<text text-anchor="start" x="767.5779" y="-363.9" font-family="Arial" font-size="14.00" fill="#000000">updatedAt </text>
<text text-anchor="start" x="835.2819" y="-363.9" font-family="Arial" font-size="14.00" fill="#666666">[timestamp without time zone]</text>
<polygon fill="none" stroke="#000000" stroke-width="3" points="759.5,-351.5 759.5,-1019.5 1028.5,-1019.5 1028.5,-351.5 759.5,-351.5"/>
</g>
<!-- public.serviceCategories -->
<g id="node6" class="node">
<title>public.serviceCategories</title>
<polygon fill="#efefef" stroke="transparent" points="725,-192.5 725,-227.5 1062,-227.5 1062,-192.5 725,-192.5"/>
<polygon fill="none" stroke="#000000" points="725,-192.5 725,-227.5 1062,-227.5 1062,-192.5 725,-192.5"/>
<text text-anchor="start" x="731.7051" y="-205.3" font-family="Arial Bold" font-size="18.00" fill="#000000">public.serviceCategories</text>
<text text-anchor="start" x="927.7269" y="-205.3" font-family="Arial" font-size="14.00" fill="#000000">    </text>
<text text-anchor="start" x="961.9317" y="-205.3" font-family="Arial" font-size="14.00" fill="#666666">[BASE TABLE]</text>
<polygon fill="none" stroke="#000000" points="725,-162.5 725,-192.5 1062,-192.5 1062,-162.5 725,-162.5"/>
<text text-anchor="start" x="732" y="-173.9" font-family="Arial" font-size="14.00" fill="#000000">serviceCategoryID    </text>
<text text-anchor="start" x="881.3226" y="-173.9" font-family="Arial" font-size="14.00" fill="#666666">[integer]</text>
<polygon fill="none" stroke="#000000" points="725,-132.5 725,-162.5 1062,-162.5 1062,-132.5 725,-132.5"/>
<text text-anchor="start" x="732" y="-143.9" font-family="Arial" font-size="14.00" fill="#000000">serviceCategoryName    </text>
<text text-anchor="start" x="904.6578" y="-143.9" font-family="Arial" font-size="14.00" fill="#666666">[varchar(256)]</text>
<polygon fill="none" stroke="#000000" points="725,-102.5 725,-132.5 1062,-132.5 1062,-102.5 725,-102.5"/>
<text text-anchor="start" x="732" y="-113.9" font-family="Arial" font-size="14.00" fill="#000000">serviceCategoryDescription    </text>
<text text-anchor="start" x="937.3268" y="-113.9" font-family="Arial" font-size="14.00" fill="#666666">[varchar]</text>
<polygon fill="none" stroke="#000000" points="725,-72.5 725,-102.5 1062,-102.5 1062,-72.5 725,-72.5"/>
<text text-anchor="start" x="732" y="-83.9" font-family="Arial" font-size="14.00" fill="#000000">createdAt    </text>
<text text-anchor="start" x="826.1136" y="-83.9" font-family="Arial" font-size="14.00" fill="#666666">[timestamp without time zone]</text>
<polygon fill="none" stroke="#000000" points="725,-42.5 725,-72.5 1062,-72.5 1062,-42.5 725,-42.5"/>
<text text-anchor="start" x="732" y="-53.9" font-family="Arial" font-size="14.00" fill="#000000">updatedAt    </text>
<text text-anchor="start" x="830.0182" y="-53.9" font-family="Arial" font-size="14.00" fill="#666666">[timestamp without time zone]</text>
</g>
<!-- public.services&#45;&gt;public.serviceCategories -->
<g id="edge5" class="edge">
<title>public.services:serviceCategoryID&#45;&gt;public.serviceCategories:serviceCategoryID</title>
<path fill="none" stroke="#000000" d="M750.6297,-907.2923C496.4922,-896.9647 586.1763,-503.9787 761,-307 850.4338,-206.2325 972.5662,-371.7675 1062,-271 1089.5843,-239.92 1103.5556,-177.5 1062,-177.5"/>
<polygon fill="#000000" stroke="#000000" points="751.002,-907.2997 760.9099,-911.9991 756.001,-907.3999 761,-907.5 761,-907.5 761,-907.5 756.001,-907.3999 761.0901,-903.0009 751.002,-907.2997 751.002,-907.2997"/>
<text text-anchor="start" x="219.6805" y="-917.5" font-family="Arial" font-size="10.00" fill="#000000">FOREIGN KEY (&quot;serviceCategoryID&quot;) REFERENCES &quot;serviceCategories&quot;(&quot;serviceCategoryID&quot;) ON DELETE CASCADE</text>
</g>
<!-- public.orderServices -->
<g id="node2" class="node">
<title>public.orderServices</title>
<polygon fill="#efefef" stroke="transparent" points="43,-1592.5 43,-1627.5 347,-1627.5 347,-1592.5 43,-1592.5"/>
<polygon fill="none" stroke="#000000" points="43,-1592.5 43,-1627.5 347,-1627.5 347,-1592.5 43,-1592.5"/>
<text text-anchor="start" x="49.7084" y="-1605.3" font-family="Arial Bold" font-size="18.00" fill="#000000">public.orderServices</text>
<text text-anchor="start" x="212.7236" y="-1605.3" font-family="Arial" font-size="14.00" fill="#000000">    </text>
<text text-anchor="start" x="246.9284" y="-1605.3" font-family="Arial" font-size="14.00" fill="#666666">[BASE TABLE]</text>
<polygon fill="none" stroke="#000000" points="43,-1562.5 43,-1592.5 347,-1592.5 347,-1562.5 43,-1562.5"/>
<text text-anchor="start" x="50" y="-1573.9" font-family="Arial" font-size="14.00" fill="#000000">orderID    </text>
<text text-anchor="start" x="130.871" y="-1573.9" font-family="Arial" font-size="14.00" fill="#666666">[integer]</text>
<polygon fill="none" stroke="#000000" points="43,-1532.5 43,-1562.5 347,-1562.5 347,-1532.5 43,-1532.5"/>
<text text-anchor="start" x="50" y="-1543.9" font-family="Arial" font-size="14.00" fill="#000000">serviceID    </text>
<text text-anchor="start" x="142.5344" y="-1543.9" font-family="Arial" font-size="14.00" fill="#666666">[integer]</text>
<polygon fill="none" stroke="#000000" points="43,-1502.5 43,-1532.5 347,-1532.5 347,-1502.5 43,-1502.5"/>
<text text-anchor="start" x="50" y="-1513.9" font-family="Arial" font-size="14.00" fill="#000000">serviceVariantID    </text>
<text text-anchor="start" x="186.8766" y="-1513.9" font-family="Arial" font-size="14.00" fill="#666666">[integer]</text>
<polygon fill="none" stroke="#000000" points="43,-1472.5 43,-1502.5 347,-1502.5 347,-1472.5 43,-1472.5"/>
<text text-anchor="start" x="50" y="-1483.9" font-family="Arial" font-size="14.00" fill="#000000">day1    </text>
<text text-anchor="start" x="114.5526" y="-1483.9" font-family="Arial" font-size="14.00" fill="#666666">[timestamp without time zone]</text>
<polygon fill="none" stroke="#000000" points="43,-1442.5 43,-1472.5 347,-1472.5 347,-1442.5 43,-1442.5"/>
<text text-anchor="start" x="50" y="-1453.9" font-family="Arial" font-size="14.00" fill="#000000">day1Work    </text>
<text text-anchor="start" x="147.2104" y="-1453.9" font-family="Arial" font-size="14.00" fill="#666666">[interval]</text>
<polygon fill="none" stroke="#000000" points="43,-1412.5 43,-1442.5 347,-1442.5 347,-1412.5 43,-1412.5"/>
<text text-anchor="start" x="50" y="-1423.9" font-family="Arial" font-size="14.00" fill="#000000">employeeID    </text>
<text text-anchor="start" x="158.8822" y="-1423.9" font-family="Arial" font-size="14.00" fill="#666666">[integer]</text>
<polygon fill="none" stroke="#000000" points="43,-1382.5 43,-1412.5 347,-1412.5 347,-1382.5 43,-1382.5"/>
<text text-anchor="start" x="50" y="-1393.9" font-family="Arial" font-size="14.00" fill="#000000">day2    </text>
<text text-anchor="start" x="114.5526" y="-1393.9" font-family="Arial" font-size="14.00" fill="#666666">[timestamp without time zone]</text>
<polygon fill="none" stroke="#000000" points="43,-1352.5 43,-1382.5 347,-1382.5 347,-1352.5 43,-1352.5"/>
<text text-anchor="start" x="50" y="-1363.9" font-family="Arial" font-size="14.00" fill="#000000">day3    </text>
<text text-anchor="start" x="114.5526" y="-1363.9" font-family="Arial" font-size="14.00" fill="#666666">[timestamp without time zone]</text>
<polygon fill="none" stroke="#000000" points="43,-1322.5 43,-1352.5 347,-1352.5 347,-1322.5 43,-1322.5"/>
<text text-anchor="start" x="50" y="-1333.9" font-family="Arial" font-size="14.00" fill="#000000">day4    </text>
<text text-anchor="start" x="114.5526" y="-1333.9" font-family="Arial" font-size="14.00" fill="#666666">[timestamp without time zone]</text>
<polygon fill="none" stroke="#000000" points="43,-1292.5 43,-1322.5 347,-1322.5 347,-1292.5 43,-1292.5"/>
<text text-anchor="start" x="50" y="-1303.9" font-family="Arial" font-size="14.00" fill="#000000">day5    </text>
<text text-anchor="start" x="114.5526" y="-1303.9" font-family="Arial" font-size="14.00" fill="#666666">[timestamp without time zone]</text>
<polygon fill="none" stroke="#000000" points="43,-1262.5 43,-1292.5 347,-1292.5 347,-1262.5 43,-1262.5"/>
<text text-anchor="start" x="50" y="-1273.9" font-family="Arial" font-size="14.00" fill="#000000">cost    </text>
<text text-anchor="start" x="109.878" y="-1273.9" font-family="Arial" font-size="14.00" fill="#666666">[real]</text>
<polygon fill="none" stroke="#000000" points="43,-1232.5 43,-1262.5 347,-1262.5 347,-1232.5 43,-1232.5"/>
<text text-anchor="start" x="50" y="-1243.9" font-family="Arial" font-size="14.00" fill="#000000">discount    </text>
<text text-anchor="start" x="136.3324" y="-1243.9" font-family="Arial" font-size="14.00" fill="#666666">[real]</text>
<polygon fill="none" stroke="#000000" points="43,-1202.5 43,-1232.5 347,-1232.5 347,-1202.5 43,-1202.5"/>
<text text-anchor="start" x="50" y="-1213.9" font-family="Arial" font-size="14.00" fill="#000000">vatFree    </text>
<text text-anchor="start" x="131.6564" y="-1213.9" font-family="Arial" font-size="14.00" fill="#666666">[boolean]</text>
<polygon fill="none" stroke="#000000" points="43,-1172.5 43,-1202.5 347,-1202.5 347,-1172.5 43,-1172.5"/>
<text text-anchor="start" x="50" y="-1183.9" font-family="Arial" font-size="14.00" fill="#000000">orderNotes    </text>
<text text-anchor="start" x="153.4362" y="-1183.9" font-family="Arial" font-size="14.00" fill="#666666">[varchar]</text>
<polygon fill="none" stroke="#000000" points="43,-1142.5 43,-1172.5 347,-1172.5 347,-1142.5 43,-1142.5"/>
<text text-anchor="start" x="50" y="-1153.9" font-family="Arial" font-size="14.00" fill="#000000">amount    </text>
<text text-anchor="start" x="130.8864" y="-1153.9" font-family="Arial" font-size="14.00" fill="#666666">[integer]</text>
</g>
<!-- public.orderServices&#45;&gt;public.services -->
<g id="edge1" class="edge">
<title>public.orderServices:serviceID&#45;&gt;public.services:serviceID</title>
<path fill="none" stroke="#000000" d="M357.0468,-1546.0862C439.3811,-1521.2208 339.2437,-1175.7674 399,-1100 452.0482,-1032.7381 675.3362,-967.5 761,-967.5"/>
<polygon fill="#000000" stroke="#000000" points="356.9024,-1546.1065 346.3729,-1543.0439 351.9512,-1546.8032 347,-1547.5 347,-1547.5 347,-1547.5 351.9512,-1546.8032 347.6271,-1551.9561 356.9024,-1546.1065 356.9024,-1546.1065"/>
<text text-anchor="start" x="354.463" y="-1557.5" font-family="Arial" font-size="10.00" fill="#000000">FOREIGN KEY (&quot;serviceID&quot;) REFERENCES services(&quot;serviceID&quot;) ON DELETE CASCADE</text>
</g>
<!-- public.serviceLocalQualifications -->
<g id="node3" class="node">
<title>public.serviceLocalQualifications</title>
<polygon fill="#efefef" stroke="transparent" points="452,-1397.5 452,-1432.5 853,-1432.5 853,-1397.5 452,-1397.5"/>
<polygon fill="none" stroke="#000000" points="452,-1397.5 452,-1432.5 853,-1432.5 853,-1397.5 452,-1397.5"/>
<text text-anchor="start" x="458.6984" y="-1410.3" font-family="Arial Bold" font-size="18.00" fill="#000000">public.serviceLocalQualifications</text>
<text text-anchor="start" x="718.7336" y="-1410.3" font-family="Arial" font-size="14.00" fill="#000000">    </text>
<text text-anchor="start" x="752.9384" y="-1410.3" font-family="Arial" font-size="14.00" fill="#666666">[BASE TABLE]</text>
<polygon fill="none" stroke="#000000" points="452,-1367.5 452,-1397.5 853,-1397.5 853,-1367.5 452,-1367.5"/>
<text text-anchor="start" x="459" y="-1378.9" font-family="Arial" font-size="14.00" fill="#000000">serviceID    </text>
<text text-anchor="start" x="551.5344" y="-1378.9" font-family="Arial" font-size="14.00" fill="#666666">[integer]</text>
<polygon fill="none" stroke="#000000" points="452,-1337.5 452,-1367.5 853,-1367.5 853,-1337.5 452,-1337.5"/>
<text text-anchor="start" x="459" y="-1348.9" font-family="Arial" font-size="14.00" fill="#000000">localQualID    </text>
<text text-anchor="start" x="565.5428" y="-1348.9" font-family="Arial" font-size="14.00" fill="#666666">[integer]</text>
</g>
<!-- public.serviceLocalQualifications&#45;&gt;public.services -->
<g id="edge2" class="edge">
<title>public.serviceLocalQualifications:serviceID&#45;&gt;public.services:serviceID</title>
<path fill="none" stroke="#000000" d="M863.3256,-1382.0313C1023.8203,-1366.4474 575.7675,-967.5 761,-967.5"/>
<polygon fill="#000000" stroke="#000000" points="862.9897,-1382.0464 852.7959,-1378.0046 857.9949,-1382.2732 853,-1382.5 853,-1382.5 853,-1382.5 857.9949,-1382.2732 853.2041,-1386.9954 862.9897,-1382.0464 862.9897,-1382.0464"/>
<text text-anchor="start" x="859.744" y="-1392.5" font-family="Arial" font-size="10.00" fill="#000000">FOREIGN KEY (&quot;serviceID&quot;) REFERENCES services(&quot;serviceID&quot;)</text>
</g>
<!-- public.serviceQualifications -->
<g id="node4" class="node">
<title>public.serviceQualifications</title>
<polygon fill="#efefef" stroke="transparent" points="957,-1397.5 957,-1432.5 1315,-1432.5 1315,-1397.5 957,-1397.5"/>
<polygon fill="none" stroke="#000000" points="957,-1397.5 957,-1432.5 1315,-1432.5 1315,-1397.5 957,-1397.5"/>
<text text-anchor="start" x="963.7048" y="-1410.3" font-family="Arial Bold" font-size="18.00" fill="#000000">public.serviceQualifications</text>
<text text-anchor="start" x="1180.7272" y="-1410.3" font-family="Arial" font-size="14.00" fill="#000000">    </text>
<text text-anchor="start" x="1214.932" y="-1410.3" font-family="Arial" font-size="14.00" fill="#666666">[BASE TABLE]</text>
<polygon fill="none" stroke="#000000" points="957,-1367.5 957,-1397.5 1315,-1397.5 1315,-1367.5 957,-1367.5"/>
<text text-anchor="start" x="964" y="-1378.9" font-family="Arial" font-size="14.00" fill="#000000">serviceID    </text>
<text text-anchor="start" x="1056.5344" y="-1378.9" font-family="Arial" font-size="14.00" fill="#666666">[integer]</text>
<polygon fill="none" stroke="#000000" points="957,-1337.5 957,-1367.5 1315,-1367.5 1315,-1337.5 957,-1337.5"/>
<text text-anchor="start" x="964" y="-1348.9" font-family="Arial" font-size="14.00" fill="#000000">globalQualID    </text>
<text text-anchor="start" x="1079.108" y="-1348.9" font-family="Arial" font-size="14.00" fill="#666666">[integer]</text>
</g>
<!-- public.serviceQualifications&#45;&gt;public.services -->
<g id="edge3" class="edge">
<title>public.serviceQualifications:serviceID&#45;&gt;public.services:serviceID</title>
<path fill="none" stroke="#000000" d="M946.7529,-1382.0313C787.057,-1366.4474 1210.3966,-967.5 1027,-967.5"/>
<polygon fill="#000000" stroke="#000000" points="947.0104,-1382.0429 956.7943,-1386.9953 952.0052,-1382.2715 957,-1382.5 957,-1382.5 957,-1382.5 952.0052,-1382.2715 957.2057,-1378.0047 947.0104,-1382.0429 947.0104,-1382.0429"/>
<text text-anchor="start" x="963.744" y="-1366.5" font-family="Arial" font-size="10.00" fill="#000000">FOREIGN KEY (&quot;serviceID&quot;) REFERENCES services(&quot;serviceID&quot;)</text>
</g>
<!-- public.serviceVariants -->
<g id="node5" class="node">
<title>public.serviceVariants</title>
<polygon fill="#efefef" stroke="transparent" points="1419,-1562.5 1419,-1597.5 1735,-1597.5 1735,-1562.5 1419,-1562.5"/>
<polygon fill="none" stroke="#000000" points="1419,-1562.5 1419,-1597.5 1735,-1597.5 1735,-1562.5 1419,-1562.5"/>
<text text-anchor="start" x="1425.7063" y="-1575.3" font-family="Arial Bold" font-size="18.00" fill="#000000">public.serviceVariants</text>
<text text-anchor="start" x="1600.7257" y="-1575.3" font-family="Arial" font-size="14.00" fill="#000000">    </text>
<text text-anchor="start" x="1634.9305" y="-1575.3" font-family="Arial" font-size="14.00" fill="#666666">[BASE TABLE]</text>
<polygon fill="none" stroke="#000000" points="1419,-1532.5 1419,-1562.5 1735,-1562.5 1735,-1532.5 1419,-1532.5"/>
<text text-anchor="start" x="1426" y="-1543.9" font-family="Arial" font-size="14.00" fill="#000000">serviceVariantID    </text>
<text text-anchor="start" x="1562.8766" y="-1543.9" font-family="Arial" font-size="14.00" fill="#666666">[integer]</text>
<polygon fill="none" stroke="#000000" points="1419,-1502.5 1419,-1532.5 1735,-1532.5 1735,-1502.5 1419,-1502.5"/>
<text text-anchor="start" x="1426" y="-1513.9" font-family="Arial" font-size="14.00" fill="#000000">name    </text>
<text text-anchor="start" x="1495.2132" y="-1513.9" font-family="Arial" font-size="14.00" fill="#666666">[varchar(256)]</text>
<polygon fill="none" stroke="#000000" points="1419,-1472.5 1419,-1502.5 1735,-1502.5 1735,-1472.5 1419,-1472.5"/>
<text text-anchor="start" x="1426" y="-1483.9" font-family="Arial" font-size="14.00" fill="#000000">cost    </text>
<text text-anchor="start" x="1485.878" y="-1483.9" font-family="Arial" font-size="14.00" fill="#666666">[real]</text>
<polygon fill="none" stroke="#000000" points="1419,-1442.5 1419,-1472.5 1735,-1472.5 1735,-1442.5 1419,-1442.5"/>
<text text-anchor="start" x="1426" y="-1453.9" font-family="Arial" font-size="14.00" fill="#000000">currency    </text>
<text text-anchor="start" x="1513.8738" y="-1453.9" font-family="Arial" font-size="14.00" fill="#666666">[varchar(5)]</text>
<polygon fill="none" stroke="#000000" points="1419,-1412.5 1419,-1442.5 1735,-1442.5 1735,-1412.5 1419,-1412.5"/>
<text text-anchor="start" x="1426" y="-1423.9" font-family="Arial" font-size="14.00" fill="#000000">award    </text>
<text text-anchor="start" x="1498.3198" y="-1423.9" font-family="Arial" font-size="14.00" fill="#666666">[real]</text>
<polygon fill="none" stroke="#000000" points="1419,-1382.5 1419,-1412.5 1735,-1412.5 1735,-1382.5 1419,-1382.5"/>
<text text-anchor="start" x="1426" y="-1393.9" font-family="Arial" font-size="14.00" fill="#000000">day1    </text>
<text text-anchor="start" x="1490.5526" y="-1393.9" font-family="Arial" font-size="14.00" fill="#666666">[time without time zone]</text>
<polygon fill="none" stroke="#000000" points="1419,-1352.5 1419,-1382.5 1735,-1382.5 1735,-1352.5 1419,-1352.5"/>
<text text-anchor="start" x="1426" y="-1363.9" font-family="Arial" font-size="14.00" fill="#000000">day2    </text>
<text text-anchor="start" x="1490.5526" y="-1363.9" font-family="Arial" font-size="14.00" fill="#666666">[time without time zone]</text>
<polygon fill="none" stroke="#000000" points="1419,-1322.5 1419,-1352.5 1735,-1352.5 1735,-1322.5 1419,-1322.5"/>
<text text-anchor="start" x="1426" y="-1333.9" font-family="Arial" font-size="14.00" fill="#000000">day3    </text>
<text text-anchor="start" x="1490.5526" y="-1333.9" font-family="Arial" font-size="14.00" fill="#666666">[time without time zone]</text>
<polygon fill="none" stroke="#000000" points="1419,-1292.5 1419,-1322.5 1735,-1322.5 1735,-1292.5 1419,-1292.5"/>
<text text-anchor="start" x="1426" y="-1303.9" font-family="Arial" font-size="14.00" fill="#000000">day4    </text>
<text text-anchor="start" x="1490.5526" y="-1303.9" font-family="Arial" font-size="14.00" fill="#666666">[time without time zone]</text>
<polygon fill="none" stroke="#000000" points="1419,-1262.5 1419,-1292.5 1735,-1292.5 1735,-1262.5 1419,-1262.5"/>
<text text-anchor="start" x="1426" y="-1273.9" font-family="Arial" font-size="14.00" fill="#000000">day5    </text>
<text text-anchor="start" x="1490.5526" y="-1273.9" font-family="Arial" font-size="14.00" fill="#666666">[time without time zone]</text>
<polygon fill="none" stroke="#000000" points="1419,-1232.5 1419,-1262.5 1735,-1262.5 1735,-1232.5 1419,-1232.5"/>
<text text-anchor="start" x="1426" y="-1243.9" font-family="Arial" font-size="14.00" fill="#000000">serviceID    </text>
<text text-anchor="start" x="1518.5344" y="-1243.9" font-family="Arial" font-size="14.00" fill="#666666">[integer]</text>
<polygon fill="none" stroke="#000000" points="1419,-1202.5 1419,-1232.5 1735,-1232.5 1735,-1202.5 1419,-1202.5"/>
<text text-anchor="start" x="1426" y="-1213.9" font-family="Arial" font-size="14.00" fill="#000000">createdAt    </text>
<text text-anchor="start" x="1520.1136" y="-1213.9" font-family="Arial" font-size="14.00" fill="#666666">[timestamp without time zone]</text>
<polygon fill="none" stroke="#000000" points="1419,-1172.5 1419,-1202.5 1735,-1202.5 1735,-1172.5 1419,-1172.5"/>
<text text-anchor="start" x="1426" y="-1183.9" font-family="Arial" font-size="14.00" fill="#000000">updatedAt    </text>
<text text-anchor="start" x="1524.0182" y="-1183.9" font-family="Arial" font-size="14.00" fill="#666666">[timestamp without time zone]</text>
</g>
<!-- public.serviceVariants&#45;&gt;public.services -->
<g id="edge4" class="edge">
<title>public.serviceVariants:serviceID&#45;&gt;public.services:serviceID</title>
<path fill="none" stroke="#000000" d="M1408.7697,-1246.6485C1356.3509,-1236.9725 1412.6981,-1147.2157 1367,-1100 1254.2092,-983.4637 1189.1804,-967.5 1027,-967.5"/>
<polygon fill="#000000" stroke="#000000" points="1409.0345,-1246.6704 1418.6267,-1251.9845 1414.0172,-1247.0852 1419,-1247.5 1419,-1247.5 1419,-1247.5 1414.0172,-1247.0852 1419.3733,-1243.0155 1409.0345,-1246.6704 1409.0345,-1246.6704"/>
<text text-anchor="start" x="1119.744" y="-1257.5" font-family="Arial" font-size="10.00" fill="#000000">FOREIGN KEY (&quot;serviceID&quot;) REFERENCES services(&quot;serviceID&quot;)</text>
</g>
</g>
</svg>
