<?xml version="1.0" encoding="UTF-8" standalone="no"?>
<!DOCTYPE svg PUBLIC "-//W3C//DTD SVG 1.1//EN"
 "http://www.w3.org/Graphics/SVG/1.1/DTD/svg11.dtd">
<!-- Generated by graphviz version 2.40.1 (20161225.0304)
 -->
<!-- Title: public.roles Pages: 1 -->
<svg width="838pt" height="712pt"
 viewBox="0.00 0.00 837.50 712.00" xmlns="http://www.w3.org/2000/svg" xmlns:xlink="http://www.w3.org/1999/xlink">
<g id="graph0" class="graph" transform="scale(1 1) rotate(0) translate(4 708)">
<title>public.roles</title>
<polygon fill="#ffffff" stroke="transparent" points="-4,4 -4,-708 833.5,-708 833.5,4 -4,4"/>
<!-- public.roles -->
<g id="node1" class="node">
<title>public.roles</title>
<polygon fill="#efefef" stroke="transparent" points="293,-195.5 293,-230.5 559,-230.5 559,-195.5 293,-195.5"/>
<polygon fill="none" stroke="#000000" points="293,-195.5 293,-230.5 559,-230.5 559,-195.5 293,-195.5"/>
<text text-anchor="start" x="316.712" y="-208.3" font-family="Arial Bold" font-size="18.00" fill="#000000">public.roles</text>
<text text-anchor="start" x="407.72" y="-208.3" font-family="Arial" font-size="14.00" fill="#000000">    </text>
<text text-anchor="start" x="441.9248" y="-208.3" font-family="Arial" font-size="14.00" fill="#666666">[BASE TABLE]</text>
<polygon fill="none" stroke="#000000" points="293,-165.5 293,-195.5 559,-195.5 559,-165.5 293,-165.5"/>
<text text-anchor="start" x="300" y="-176.9" font-family="Arial" font-size="14.00" fill="#000000">roleID </text>
<text text-anchor="start" x="341.2202" y="-176.9" font-family="Arial" font-size="14.00" fill="#666666">[integer]</text>
<polygon fill="none" stroke="#000000" points="293,-135.5 293,-165.5 559,-165.5 559,-135.5 293,-135.5"/>
<text text-anchor="start" x="300" y="-146.9" font-family="Arial" font-size="14.00" fill="#000000">roleName </text>
<text text-anchor="start" x="364.5554" y="-146.9" font-family="Arial" font-size="14.00" fill="#666666">[varchar(256)]</text>
<polygon fill="none" stroke="#000000" points="293,-105.5 293,-135.5 559,-135.5 559,-105.5 293,-105.5"/>
<text text-anchor="start" x="300" y="-116.9" font-family="Arial" font-size="14.00" fill="#000000">description </text>
<text text-anchor="start" x="371.568" y="-116.9" font-family="Arial" font-size="14.00" fill="#666666">[text]</text>
<polygon fill="none" stroke="#000000" points="293,-75.5 293,-105.5 559,-105.5 559,-75.5 293,-75.5"/>
<text text-anchor="start" x="300" y="-86.9" font-family="Arial" font-size="14.00" fill="#000000">createdAt </text>
<text text-anchor="start" x="363.7994" y="-86.9" font-family="Arial" font-size="14.00" fill="#666666">[timestamp without time zone]</text>
<polygon fill="none" stroke="#000000" points="293,-45.5 293,-75.5 559,-75.5 559,-45.5 293,-45.5"/>
<text text-anchor="start" x="299.5779" y="-56.9" font-family="Arial" font-size="14.00" fill="#000000">updatedAt </text>
<text text-anchor="start" x="367.2819" y="-56.9" font-family="Arial" font-size="14.00" fill="#666666">[timestamp without time zone]</text>
<polygon fill="none" stroke="#000000" stroke-width="3" points="291.5,-44.5 291.5,-232.5 560.5,-232.5 560.5,-44.5 291.5,-44.5"/>
</g>
<!-- public.roleToPermissions -->
<g id="node2" class="node">
<title>public.roleToPermissions</title>
<polygon fill="#efefef" stroke="transparent" points="43,-550.5 43,-585.5 385,-585.5 385,-550.5 43,-550.5"/>
<polygon fill="none" stroke="#000000" points="43,-550.5 43,-585.5 385,-585.5 385,-550.5 43,-550.5"/>
<text text-anchor="start" x="49.713" y="-563.3" font-family="Arial Bold" font-size="18.00" fill="#000000">public.roleToPermissions</text>
<text text-anchor="start" x="250.719" y="-563.3" font-family="Arial" font-size="14.00" fill="#000000">    </text>
<text text-anchor="start" x="284.9238" y="-563.3" font-family="Arial" font-size="14.00" fill="#666666">[BASE TABLE]</text>
<polygon fill="none" stroke="#000000" points="43,-520.5 43,-550.5 385,-550.5 385,-520.5 43,-520.5"/>
<text text-anchor="start" x="50" y="-531.9" font-family="Arial" font-size="14.00" fill="#000000">roleID    </text>
<text text-anchor="start" x="121.5344" y="-531.9" font-family="Arial" font-size="14.00" fill="#666666">[integer]</text>
<polygon fill="none" stroke="#000000" points="43,-490.5 43,-520.5 385,-520.5 385,-490.5 43,-490.5"/>
<text text-anchor="start" x="50" y="-501.9" font-family="Arial" font-size="14.00" fill="#000000">permissionID    </text>
<text text-anchor="start" x="165.8668" y="-501.9" font-family="Arial" font-size="14.00" fill="#666666">[integer]</text>
<polygon fill="none" stroke="#000000" points="43,-460.5 43,-490.5 385,-490.5 385,-460.5 43,-460.5"/>
<text text-anchor="start" x="50" y="-471.9" font-family="Arial" font-size="14.00" fill="#000000">createdAt    </text>
<text text-anchor="start" x="144.1136" y="-471.9" font-family="Arial" font-size="14.00" fill="#666666">[timestamp without time zone]</text>
<polygon fill="none" stroke="#000000" points="43,-430.5 43,-460.5 385,-460.5 385,-430.5 43,-430.5"/>
<text text-anchor="start" x="50" y="-441.9" font-family="Arial" font-size="14.00" fill="#000000">updatedAt    </text>
<text text-anchor="start" x="148.0182" y="-441.9" font-family="Arial" font-size="14.00" fill="#666666">[timestamp without time zone]</text>
</g>
<!-- public.roleToPermissions&#45;&gt;public.roles -->
<g id="edge1" class="edge">
<title>public.roleToPermissions:roleID&#45;&gt;public.roles:roleID</title>
<path fill="none" stroke="#000000" d="M395.1151,-534.6939C445.7158,-525.8545 405.9753,-446.1767 385,-388 363.2673,-327.7226 314.7327,-337.2774 293,-277 278.4533,-236.6534 250.1111,-180.5 293,-180.5"/>
<polygon fill="#000000" stroke="#000000" points="394.9684,-534.7055 384.6425,-531.0142 389.9842,-535.1028 385,-535.5 385,-535.5 385,-535.5 389.9842,-535.1028 385.3575,-539.9858 394.9684,-534.7055 394.9684,-534.7055"/>
<text text-anchor="start" x="392.244" y="-545.5" font-family="Arial" font-size="10.00" fill="#000000">FOREIGN KEY (&quot;roleID&quot;) REFERENCES roles(&quot;roleID&quot;)</text>
</g>
<!-- public.users -->
<g id="node3" class="node">
<title>public.users</title>
<polygon fill="#efefef" stroke="transparent" points="490,-625.5 490,-660.5 787,-660.5 787,-625.5 490,-625.5"/>
<polygon fill="none" stroke="#000000" points="490,-625.5 490,-660.5 787,-660.5 787,-625.5 490,-625.5"/>
<text text-anchor="start" x="526.7091" y="-638.3" font-family="Arial Bold" font-size="18.00" fill="#000000">public.users</text>
<text text-anchor="start" x="622.7229" y="-638.3" font-family="Arial" font-size="14.00" fill="#000000">    </text>
<text text-anchor="start" x="656.9277" y="-638.3" font-family="Arial" font-size="14.00" fill="#666666">[BASE TABLE]</text>
<polygon fill="none" stroke="#000000" points="490,-595.5 490,-625.5 787,-625.5 787,-595.5 490,-595.5"/>
<text text-anchor="start" x="497" y="-606.9" font-family="Arial" font-size="14.00" fill="#000000">userID    </text>
<text text-anchor="start" x="572.4278" y="-606.9" font-family="Arial" font-size="14.00" fill="#666666">[integer]</text>
<polygon fill="none" stroke="#000000" points="490,-565.5 490,-595.5 787,-595.5 787,-565.5 490,-565.5"/>
<text text-anchor="start" x="497" y="-576.9" font-family="Arial" font-size="14.00" fill="#000000">firstName    </text>
<text text-anchor="start" x="591.0856" y="-576.9" font-family="Arial" font-size="14.00" fill="#666666">[varchar(128)]</text>
<polygon fill="none" stroke="#000000" points="490,-535.5 490,-565.5 787,-565.5 787,-535.5 490,-535.5"/>
<text text-anchor="start" x="497" y="-546.9" font-family="Arial" font-size="14.00" fill="#000000">lastName    </text>
<text text-anchor="start" x="590.317" y="-546.9" font-family="Arial" font-size="14.00" fill="#666666">[varchar(128)]</text>
<polygon fill="none" stroke="#000000" points="490,-505.5 490,-535.5 787,-535.5 787,-505.5 490,-505.5"/>
<text text-anchor="start" x="497" y="-516.9" font-family="Arial" font-size="14.00" fill="#000000">email    </text>
<text text-anchor="start" x="564.6438" y="-516.9" font-family="Arial" font-size="14.00" fill="#666666">[varchar]</text>
<polygon fill="none" stroke="#000000" points="490,-475.5 490,-505.5 787,-505.5 787,-475.5 490,-475.5"/>
<text text-anchor="start" x="497" y="-486.9" font-family="Arial" font-size="14.00" fill="#000000">password    </text>
<text text-anchor="start" x="591.1024" y="-486.9" font-family="Arial" font-size="14.00" fill="#666666">[text]</text>
<polygon fill="none" stroke="#000000" points="490,-445.5 490,-475.5 787,-475.5 787,-445.5 490,-445.5"/>
<text text-anchor="start" x="497" y="-456.9" font-family="Arial" font-size="14.00" fill="#000000">isSuperAdmin    </text>
<text text-anchor="start" x="618.3254" y="-456.9" font-family="Arial" font-size="14.00" fill="#666666">[boolean]</text>
<polygon fill="none" stroke="#000000" points="490,-415.5 490,-445.5 787,-445.5 787,-415.5 490,-415.5"/>
<text text-anchor="start" x="497" y="-426.9" font-family="Arial" font-size="14.00" fill="#000000">roleID    </text>
<text text-anchor="start" x="568.5344" y="-426.9" font-family="Arial" font-size="14.00" fill="#666666">[integer]</text>
<polygon fill="none" stroke="#000000" points="490,-385.5 490,-415.5 787,-415.5 787,-385.5 490,-385.5"/>
<text text-anchor="start" x="497" y="-396.9" font-family="Arial" font-size="14.00" fill="#000000">createdAt    </text>
<text text-anchor="start" x="591.1136" y="-396.9" font-family="Arial" font-size="14.00" fill="#666666">[timestamp without time zone]</text>
<polygon fill="none" stroke="#000000" points="490,-355.5 490,-385.5 787,-385.5 787,-355.5 490,-355.5"/>
<text text-anchor="start" x="496.9208" y="-366.9" font-family="Arial" font-size="14.00" fill="#000000">updatedAt    </text>
<text text-anchor="start" x="594.939" y="-366.9" font-family="Arial" font-size="14.00" fill="#666666">[timestamp without time zone]</text>
</g>
<!-- public.users&#45;&gt;public.roles -->
<g id="edge2" class="edge">
<title>public.users:roleID&#45;&gt;public.roles:roleID</title>
<path fill="none" stroke="#000000" d="M479.6202,-429.3376C441.5217,-419.8427 464.9383,-354.3434 490,-313 507.9306,-283.4206 541.0694,-306.5794 559,-277 581.2327,-240.3235 601.8889,-180.5 559,-180.5"/>
<polygon fill="#000000" stroke="#000000" points="480.0621,-429.387 489.4991,-434.972 485.0311,-429.9435 490,-430.5 490,-430.5 490,-430.5 485.0311,-429.9435 490.5009,-426.028 480.0621,-429.387 480.0621,-429.387"/>
<text text-anchor="start" x="497.244" y="-440.5" font-family="Arial" font-size="10.00" fill="#000000">FOREIGN KEY (&quot;roleID&quot;) REFERENCES roles(&quot;roleID&quot;)</text>
</g>
</g>
</svg>
