<?xml version="1.0" encoding="UTF-8" standalone="no"?>
<!DOCTYPE svg PUBLIC "-//W3C//DTD SVG 1.1//EN"
 "http://www.w3.org/Graphics/SVG/1.1/DTD/svg11.dtd">
<!-- Generated by graphviz version 2.40.1 (20161225.0304)
 -->
<!-- Title: public.billOrders Pages: 1 -->
<svg width="1038pt" height="1042pt"
 viewBox="0.00 0.00 1038.00 1042.00" xmlns="http://www.w3.org/2000/svg" xmlns:xlink="http://www.w3.org/1999/xlink">
<g id="graph0" class="graph" transform="scale(1 1) rotate(0) translate(4 1038)">
<title>public.billOrders</title>
<polygon fill="#ffffff" stroke="transparent" points="-4,4 -4,-1038 1034,-1038 1034,4 -4,4"/>
<!-- public.billOrders -->
<g id="node1" class="node">
<title>public.billOrders</title>
<polygon fill="#efefef" stroke="transparent" points="369,-952.5 369,-987.5 639,-987.5 639,-952.5 369,-952.5"/>
<polygon fill="none" stroke="#000000" points="369,-952.5 369,-987.5 639,-987.5 639,-952.5 369,-952.5"/>
<text text-anchor="start" x="375.7175" y="-965.3" font-family="Arial Bold" font-size="18.00" fill="#000000">public.billOrders</text>
<text text-anchor="start" x="504.7145" y="-965.3" font-family="Arial" font-size="14.00" fill="#000000">    </text>
<text text-anchor="start" x="538.9193" y="-965.3" font-family="Arial" font-size="14.00" fill="#666666">[BASE TABLE]</text>
<polygon fill="none" stroke="#000000" points="369,-922.5 369,-952.5 639,-952.5 639,-922.5 369,-922.5"/>
<text text-anchor="start" x="376" y="-933.9" font-family="Arial" font-size="14.00" fill="#000000">billID </text>
<text text-anchor="start" x="410.9902" y="-933.9" font-family="Arial" font-size="14.00" fill="#666666">[integer]</text>
<polygon fill="none" stroke="#000000" points="369,-892.5 369,-922.5 639,-922.5 639,-892.5 369,-892.5"/>
<text text-anchor="start" x="376" y="-903.9" font-family="Arial" font-size="14.00" fill="#000000">orderID </text>
<text text-anchor="start" x="426.5568" y="-903.9" font-family="Arial" font-size="14.00" fill="#666666">[integer]</text>
<polygon fill="none" stroke="#000000" stroke-width="3" points="367.5,-891.5 367.5,-989.5 640.5,-989.5 640.5,-891.5 367.5,-891.5"/>
</g>
<!-- public.bills -->
<g id="node2" class="node">
<title>public.bills</title>
<polygon fill="#efefef" stroke="transparent" points="146,-732.5 146,-767.5 443,-767.5 443,-732.5 146,-732.5"/>
<polygon fill="none" stroke="#000000" points="146,-732.5 146,-767.5 443,-767.5 443,-732.5 146,-732.5"/>
<text text-anchor="start" x="189.217" y="-745.3" font-family="Arial Bold" font-size="18.00" fill="#000000">public.bills</text>
<text text-anchor="start" x="272.215" y="-745.3" font-family="Arial" font-size="14.00" fill="#000000">    </text>
<text text-anchor="start" x="306.4198" y="-745.3" font-family="Arial" font-size="14.00" fill="#666666">[BASE TABLE]</text>
<polygon fill="none" stroke="#000000" points="146,-702.5 146,-732.5 443,-732.5 443,-702.5 146,-702.5"/>
<text text-anchor="start" x="153" y="-713.9" font-family="Arial" font-size="14.00" fill="#000000">orderID    </text>
<text text-anchor="start" x="233.871" y="-713.9" font-family="Arial" font-size="14.00" fill="#666666">[integer]</text>
<polygon fill="none" stroke="#000000" points="146,-672.5 146,-702.5 443,-702.5 443,-672.5 146,-672.5"/>
<text text-anchor="start" x="153" y="-683.9" font-family="Arial" font-size="14.00" fill="#000000">employeeID    </text>
<text text-anchor="start" x="261.8822" y="-683.9" font-family="Arial" font-size="14.00" fill="#666666">[integer]</text>
<polygon fill="none" stroke="#000000" points="146,-642.5 146,-672.5 443,-672.5 443,-642.5 146,-642.5"/>
<text text-anchor="start" x="153" y="-653.9" font-family="Arial" font-size="14.00" fill="#000000">billingDate    </text>
<text text-anchor="start" x="252.5414" y="-653.9" font-family="Arial" font-size="14.00" fill="#666666">[date]</text>
<polygon fill="none" stroke="#000000" points="146,-612.5 146,-642.5 443,-642.5 443,-612.5 146,-612.5"/>
<text text-anchor="start" x="153" y="-623.9" font-family="Arial" font-size="14.00" fill="#000000">paymentDate    </text>
<text text-anchor="start" x="270.4488" y="-623.9" font-family="Arial" font-size="14.00" fill="#666666">[date]</text>
<polygon fill="none" stroke="#000000" points="146,-582.5 146,-612.5 443,-612.5 443,-582.5 146,-582.5"/>
<text text-anchor="start" x="153" y="-593.9" font-family="Arial" font-size="14.00" fill="#000000">paymentDays    </text>
<text text-anchor="start" x="272.7756" y="-593.9" font-family="Arial" font-size="14.00" fill="#666666">[integer]</text>
<polygon fill="none" stroke="#000000" points="146,-552.5 146,-582.5 443,-582.5 443,-552.5 146,-552.5"/>
<text text-anchor="start" x="153" y="-563.9" font-family="Arial" font-size="14.00" fill="#000000">driverID    </text>
<text text-anchor="start" x="236.195" y="-563.9" font-family="Arial" font-size="14.00" fill="#666666">[integer]</text>
<polygon fill="none" stroke="#000000" points="146,-522.5 146,-552.5 443,-552.5 443,-522.5 146,-522.5"/>
<text text-anchor="start" x="153" y="-533.9" font-family="Arial" font-size="14.00" fill="#000000">customerOrgNumber    </text>
<text text-anchor="start" x="317.8738" y="-533.9" font-family="Arial" font-size="14.00" fill="#666666">[varchar(11)]</text>
<polygon fill="none" stroke="#000000" points="146,-492.5 146,-522.5 443,-522.5 443,-492.5 146,-492.5"/>
<text text-anchor="start" x="153" y="-503.9" font-family="Arial" font-size="14.00" fill="#000000">driverExternalNumber    </text>
<text text-anchor="start" x="323.3156" y="-503.9" font-family="Arial" font-size="14.00" fill="#666666">[varchar(256)]</text>
<polygon fill="none" stroke="#000000" points="146,-462.5 146,-492.5 443,-492.5 443,-462.5 146,-462.5"/>
<text text-anchor="start" x="153" y="-473.9" font-family="Arial" font-size="14.00" fill="#000000">companyReference    </text>
<text text-anchor="start" x="308.5666" y="-473.9" font-family="Arial" font-size="14.00" fill="#666666">[varchar(255)]</text>
<polygon fill="none" stroke="#000000" points="146,-432.5 146,-462.5 443,-462.5 443,-432.5 146,-432.5"/>
<text text-anchor="start" x="153" y="-443.9" font-family="Arial" font-size="14.00" fill="#000000">driverFirstName    </text>
<text text-anchor="start" x="286.7406" y="-443.9" font-family="Arial" font-size="14.00" fill="#666666">[varchar(128)]</text>
<polygon fill="none" stroke="#000000" points="146,-402.5 146,-432.5 443,-432.5 443,-402.5 146,-402.5"/>
<text text-anchor="start" x="153" y="-413.9" font-family="Arial" font-size="14.00" fill="#000000">driverLastName    </text>
<text text-anchor="start" x="285.986" y="-413.9" font-family="Arial" font-size="14.00" fill="#666666">[varchar(128)]</text>
<polygon fill="none" stroke="#000000" points="146,-372.5 146,-402.5 443,-402.5 443,-372.5 146,-372.5"/>
<text text-anchor="start" x="153" y="-383.9" font-family="Arial" font-size="14.00" fill="#000000">driverEmail    </text>
<text text-anchor="start" x="257.1908" y="-383.9" font-family="Arial" font-size="14.00" fill="#666666">[varchar(256)]</text>
<polygon fill="none" stroke="#000000" points="146,-342.5 146,-372.5 443,-372.5 443,-342.5 146,-342.5"/>
<text text-anchor="start" x="153" y="-353.9" font-family="Arial" font-size="14.00" fill="#000000">driverPhoneNumber    </text>
<text text-anchor="start" x="312.4404" y="-353.9" font-family="Arial" font-size="14.00" fill="#666666">[varchar(32)]</text>
<polygon fill="none" stroke="#000000" points="146,-312.5 146,-342.5 443,-342.5 443,-312.5 146,-312.5"/>
<text text-anchor="start" x="153" y="-323.9" font-family="Arial" font-size="14.00" fill="#000000">driverAddress    </text>
<text text-anchor="start" x="273.5428" y="-323.9" font-family="Arial" font-size="14.00" fill="#666666">[varchar(256)]</text>
<polygon fill="none" stroke="#000000" points="146,-282.5 146,-312.5 443,-312.5 443,-282.5 146,-282.5"/>
<text text-anchor="start" x="153" y="-293.9" font-family="Arial" font-size="14.00" fill="#000000">driverZipCode    </text>
<text text-anchor="start" x="275.094" y="-293.9" font-family="Arial" font-size="14.00" fill="#666666">[varchar(16)]</text>
<polygon fill="none" stroke="#000000" points="146,-252.5 146,-282.5 443,-282.5 443,-252.5 146,-252.5"/>
<text text-anchor="start" x="153" y="-263.9" font-family="Arial" font-size="14.00" fill="#000000">driverAddressCity    </text>
<text text-anchor="start" x="297.6466" y="-263.9" font-family="Arial" font-size="14.00" fill="#666666">[varchar(256)]</text>
<polygon fill="none" stroke="#000000" points="146,-222.5 146,-252.5 443,-252.5 443,-222.5 146,-222.5"/>
<text text-anchor="start" x="153" y="-233.9" font-family="Arial" font-size="14.00" fill="#000000">driverCountry    </text>
<text text-anchor="start" x="271.2034" y="-233.9" font-family="Arial" font-size="14.00" fill="#666666">[varchar(256)]</text>
<polygon fill="none" stroke="#000000" points="146,-192.5 146,-222.5 443,-222.5 443,-192.5 146,-192.5"/>
<text text-anchor="start" x="153" y="-203.9" font-family="Arial" font-size="14.00" fill="#000000">driverHasCard    </text>
<text text-anchor="start" x="277.4194" y="-203.9" font-family="Arial" font-size="14.00" fill="#666666">[boolean]</text>
<polygon fill="none" stroke="#000000" points="146,-162.5 146,-192.5 443,-192.5 443,-162.5 146,-162.5"/>
<text text-anchor="start" x="153" y="-173.9" font-family="Arial" font-size="14.00" fill="#000000">driverCardValidTo    </text>
<text text-anchor="start" x="299.9804" y="-173.9" font-family="Arial" font-size="14.00" fill="#666666">[date]</text>
<polygon fill="none" stroke="#000000" points="146,-132.5 146,-162.5 443,-162.5 443,-132.5 146,-132.5"/>
<text text-anchor="start" x="153" y="-143.9" font-family="Arial" font-size="14.00" fill="#000000">driverCardNumber    </text>
<text text-anchor="start" x="302.3058" y="-143.9" font-family="Arial" font-size="14.00" fill="#666666">[varchar(256)]</text>
<polygon fill="none" stroke="#000000" points="146,-102.5 146,-132.5 443,-132.5 443,-102.5 146,-102.5"/>
<text text-anchor="start" x="153" y="-113.9" font-family="Arial" font-size="14.00" fill="#000000">driverKeyNumber    </text>
<text text-anchor="start" x="296.0926" y="-113.9" font-family="Arial" font-size="14.00" fill="#666666">[varchar(256)]</text>
<polygon fill="none" stroke="#000000" points="146,-72.5 146,-102.5 443,-102.5 443,-72.5 146,-72.5"/>
<text text-anchor="start" x="153" y="-83.9" font-family="Arial" font-size="14.00" fill="#000000">createdAt    </text>
<text text-anchor="start" x="247.1136" y="-83.9" font-family="Arial" font-size="14.00" fill="#666666">[timestamp without time zone]</text>
<polygon fill="none" stroke="#000000" points="146,-42.5 146,-72.5 443,-72.5 443,-42.5 146,-42.5"/>
<text text-anchor="start" x="152.9208" y="-53.9" font-family="Arial" font-size="14.00" fill="#000000">updatedAt    </text>
<text text-anchor="start" x="250.939" y="-53.9" font-family="Arial" font-size="14.00" fill="#666666">[timestamp without time zone]</text>
</g>
<!-- public.billOrders&#45;&gt;public.bills -->
<g id="edge1" class="edge">
<title>public.billOrders:billID&#45;&gt;public.bills:orderID</title>
<path fill="none" stroke="#000000" d="M358.8546,-935.9597C332.4906,-926.697 349.7515,-877.7696 369,-847 388.397,-815.993 423.603,-842.007 443,-811 465.0388,-775.77 484.5556,-717.5 443,-717.5"/>
<polygon fill="#000000" stroke="#000000" points="359.1133,-935.9989 368.3245,-941.949 364.0566,-936.7494 369,-937.5 369,-937.5 369,-937.5 364.0566,-936.7494 369.6755,-933.051 359.1133,-935.9989 359.1133,-935.9989"/>
<text text-anchor="start" x="7.354" y="-947.5" font-family="Arial" font-size="10.00" fill="#000000">FOREIGN KEY (&quot;billID&quot;) REFERENCES bills(&quot;orderID&quot;) ON DELETE SET NULL</text>
</g>
<!-- public.orders -->
<g id="node3" class="node">
<title>public.orders</title>
<polygon fill="#efefef" stroke="transparent" points="547,-582.5 547,-617.5 881,-617.5 881,-582.5 547,-582.5"/>
<polygon fill="none" stroke="#000000" points="547,-582.5 547,-617.5 881,-617.5 881,-582.5 547,-582.5"/>
<text text-anchor="start" x="598.7099" y="-595.3" font-family="Arial Bold" font-size="18.00" fill="#000000">public.orders</text>
<text text-anchor="start" x="701.7221" y="-595.3" font-family="Arial" font-size="14.00" fill="#000000">    </text>
<text text-anchor="start" x="735.9269" y="-595.3" font-family="Arial" font-size="14.00" fill="#666666">[BASE TABLE]</text>
<polygon fill="none" stroke="#000000" points="547,-552.5 547,-582.5 881,-582.5 881,-552.5 547,-552.5"/>
<text text-anchor="start" x="554" y="-563.9" font-family="Arial" font-size="14.00" fill="#000000">orderID    </text>
<text text-anchor="start" x="634.871" y="-563.9" font-family="Arial" font-size="14.00" fill="#666666">[integer]</text>
<polygon fill="none" stroke="#000000" points="547,-522.5 547,-552.5 881,-552.5 881,-522.5 547,-522.5"/>
<text text-anchor="start" x="554" y="-533.9" font-family="Arial" font-size="14.00" fill="#000000">driverCarID    </text>
<text text-anchor="start" x="659.7448" y="-533.9" font-family="Arial" font-size="14.00" fill="#666666">[integer]</text>
<polygon fill="none" stroke="#000000" points="547,-492.5 547,-522.5 881,-522.5 881,-492.5 547,-492.5"/>
<text text-anchor="start" x="554" y="-503.9" font-family="Arial" font-size="14.00" fill="#000000">driverID    </text>
<text text-anchor="start" x="637.195" y="-503.9" font-family="Arial" font-size="14.00" fill="#666666">[integer]</text>
<polygon fill="none" stroke="#000000" points="547,-462.5 547,-492.5 881,-492.5 881,-462.5 547,-462.5"/>
<text text-anchor="start" x="554" y="-473.9" font-family="Arial" font-size="14.00" fill="#000000">storeID    </text>
<text text-anchor="start" x="633.3184" y="-473.9" font-family="Arial" font-size="14.00" fill="#666666">[integer]</text>
<polygon fill="none" stroke="#000000" points="547,-432.5 547,-462.5 881,-462.5 881,-432.5 547,-432.5"/>
<text text-anchor="start" x="554" y="-443.9" font-family="Arial" font-size="14.00" fill="#000000">orderNotes    </text>
<text text-anchor="start" x="657.4362" y="-443.9" font-family="Arial" font-size="14.00" fill="#666666">[varchar]</text>
<polygon fill="none" stroke="#000000" points="547,-402.5 547,-432.5 881,-432.5 881,-402.5 547,-402.5"/>
<text text-anchor="start" x="554" y="-413.9" font-family="Arial" font-size="14.00" fill="#000000">employeeID    </text>
<text text-anchor="start" x="662.8822" y="-413.9" font-family="Arial" font-size="14.00" fill="#666666">[integer]</text>
<polygon fill="none" stroke="#000000" points="547,-372.5 547,-402.5 881,-402.5 881,-372.5 547,-372.5"/>
<text text-anchor="start" x="553.7742" y="-383.9" font-family="Arial" font-size="14.00" fill="#000000">submissionTime    </text>
<text text-anchor="start" x="689.0856" y="-383.9" font-family="Arial" font-size="14.00" fill="#666666">[timestamp without time zone]</text>
<polygon fill="none" stroke="#000000" points="547,-342.5 547,-372.5 881,-372.5 881,-342.5 547,-342.5"/>
<text text-anchor="start" x="554" y="-353.9" font-family="Arial" font-size="14.00" fill="#000000">vatFree    </text>
<text text-anchor="start" x="635.6564" y="-353.9" font-family="Arial" font-size="14.00" fill="#666666">[boolean]</text>
<polygon fill="none" stroke="#000000" points="547,-312.5 547,-342.5 881,-342.5 881,-312.5 547,-312.5"/>
<text text-anchor="start" x="554" y="-323.9" font-family="Arial" font-size="14.00" fill="#000000">orderStatus    </text>
<text text-anchor="start" x="660.5568" y="-323.9" font-family="Arial" font-size="14.00" fill="#666666">[&quot;orderStatus&quot;]</text>
<polygon fill="none" stroke="#000000" points="547,-282.5 547,-312.5 881,-312.5 881,-282.5 547,-282.5"/>
<text text-anchor="start" x="554" y="-293.9" font-family="Arial" font-size="14.00" fill="#000000">currency    </text>
<text text-anchor="start" x="641.8738" y="-293.9" font-family="Arial" font-size="14.00" fill="#666666">[varchar(5)]</text>
<polygon fill="none" stroke="#000000" points="547,-252.5 547,-282.5 881,-282.5 881,-252.5 547,-252.5"/>
<text text-anchor="start" x="554" y="-263.9" font-family="Arial" font-size="14.00" fill="#000000">discount    </text>
<text text-anchor="start" x="640.3324" y="-263.9" font-family="Arial" font-size="14.00" fill="#666666">[real]</text>
<polygon fill="none" stroke="#000000" points="547,-222.5 547,-252.5 881,-252.5 881,-222.5 547,-222.5"/>
<text text-anchor="start" x="554" y="-233.9" font-family="Arial" font-size="14.00" fill="#000000">createdAt    </text>
<text text-anchor="start" x="648.1136" y="-233.9" font-family="Arial" font-size="14.00" fill="#666666">[timestamp without time zone]</text>
<polygon fill="none" stroke="#000000" points="547,-192.5 547,-222.5 881,-222.5 881,-192.5 547,-192.5"/>
<text text-anchor="start" x="554" y="-203.9" font-family="Arial" font-size="14.00" fill="#000000">updatedAt    </text>
<text text-anchor="start" x="652.0182" y="-203.9" font-family="Arial" font-size="14.00" fill="#666666">[timestamp without time zone]</text>
</g>
<!-- public.billOrders&#45;&gt;public.orders -->
<g id="edge2" class="edge">
<title>public.billOrders:orderID&#45;&gt;public.orders:orderID</title>
<path fill="none" stroke="#000000" d="M649.096,-906.9485C776.8653,-891.7493 394.1236,-567.5 547,-567.5"/>
<polygon fill="#000000" stroke="#000000" points="648.9851,-906.9544 638.7545,-903.0067 643.9926,-907.2272 639,-907.5 639,-907.5 639,-907.5 643.9926,-907.2272 639.2455,-911.9933 648.9851,-906.9544 648.9851,-906.9544"/>
<text text-anchor="start" x="646.235" y="-917.5" font-family="Arial" font-size="10.00" fill="#000000">FOREIGN KEY (&quot;orderID&quot;) REFERENCES orders(&quot;orderID&quot;) ON DELETE SET NULL</text>
</g>
</g>
</svg>
