<?xml version="1.0" encoding="UTF-8" standalone="no"?>
<!DOCTYPE svg PUBLIC "-//W3C//DTD SVG 1.1//EN"
 "http://www.w3.org/Graphics/SVG/1.1/DTD/svg11.dtd">
<!-- Generated by graphviz version 2.40.1 (20161225.0304)
 -->
<!-- Title: public.rentCarBookings Pages: 1 -->
<svg width="1372pt" height="982pt"
 viewBox="0.00 0.00 1372.00 982.00" xmlns="http://www.w3.org/2000/svg" xmlns:xlink="http://www.w3.org/1999/xlink">
<g id="graph0" class="graph" transform="scale(1 1) rotate(0) translate(4 978)">
<title>public.rentCarBookings</title>
<polygon fill="#ffffff" stroke="transparent" points="-4,4 -4,-978 1368,-978 1368,4 -4,4"/>
<!-- public.rentCarBookings -->
<g id="node1" class="node">
<title>public.rentCarBookings</title>
<polygon fill="#efefef" stroke="transparent" points="586,-892.5 586,-927.5 913,-927.5 913,-892.5 586,-892.5"/>
<polygon fill="none" stroke="#000000" points="586,-892.5 586,-927.5 913,-927.5 913,-892.5 586,-892.5"/>
<text text-anchor="start" x="592.7001" y="-905.3" font-family="Arial Bold" font-size="18.00" fill="#000000">public.rentCarBookings</text>
<text text-anchor="start" x="778.7319" y="-905.3" font-family="Arial" font-size="14.00" fill="#000000">    </text>
<text text-anchor="start" x="812.9367" y="-905.3" font-family="Arial" font-size="14.00" fill="#666666">[BASE TABLE]</text>
<polygon fill="none" stroke="#000000" points="586,-862.5 586,-892.5 913,-892.5 913,-862.5 586,-862.5"/>
<text text-anchor="start" x="593" y="-873.9" font-family="Arial" font-size="14.00" fill="#000000">rentCarBookingID </text>
<text text-anchor="start" x="708.1276" y="-873.9" font-family="Arial" font-size="14.00" fill="#666666">[integer]</text>
<polygon fill="none" stroke="#000000" points="586,-832.5 586,-862.5 913,-862.5 913,-832.5 586,-832.5"/>
<text text-anchor="start" x="593" y="-843.9" font-family="Arial" font-size="14.00" fill="#000000">orderID </text>
<text text-anchor="start" x="643.5568" y="-843.9" font-family="Arial" font-size="14.00" fill="#666666">[integer]</text>
<polygon fill="none" stroke="#000000" points="586,-802.5 586,-832.5 913,-832.5 913,-802.5 586,-802.5"/>
<text text-anchor="start" x="593" y="-813.9" font-family="Arial" font-size="14.00" fill="#000000">rentCarRegistrationNumber </text>
<text text-anchor="start" x="768.007" y="-813.9" font-family="Arial" font-size="14.00" fill="#666666">[varchar]</text>
<polygon fill="none" stroke="#000000" points="586,-772.5 586,-802.5 913,-802.5 913,-772.5 586,-772.5"/>
<text text-anchor="start" x="593" y="-783.9" font-family="Arial" font-size="14.00" fill="#000000">bookingStart </text>
<text text-anchor="start" x="675.4712" y="-783.9" font-family="Arial" font-size="14.00" fill="#666666">[date]</text>
<polygon fill="none" stroke="#000000" points="586,-742.5 586,-772.5 913,-772.5 913,-742.5 586,-742.5"/>
<text text-anchor="start" x="593" y="-753.9" font-family="Arial" font-size="14.00" fill="#000000">bookingEnd </text>
<text text-anchor="start" x="670.812" y="-753.9" font-family="Arial" font-size="14.00" fill="#666666">[date]</text>
<polygon fill="none" stroke="#000000" points="586,-712.5 586,-742.5 913,-742.5 913,-712.5 586,-712.5"/>
<text text-anchor="start" x="593" y="-723.9" font-family="Arial" font-size="14.00" fill="#000000">employeeID </text>
<text text-anchor="start" x="671.568" y="-723.9" font-family="Arial" font-size="14.00" fill="#666666">[integer]</text>
<polygon fill="none" stroke="#000000" points="586,-682.5 586,-712.5 913,-712.5 913,-682.5 586,-682.5"/>
<text text-anchor="start" x="593" y="-693.9" font-family="Arial" font-size="14.00" fill="#000000">bookingStatus </text>
<text text-anchor="start" x="685.5932" y="-693.9" font-family="Arial" font-size="14.00" fill="#666666">[&quot;orderStatus&quot;]</text>
<polygon fill="none" stroke="#000000" points="586,-652.5 586,-682.5 913,-682.5 913,-652.5 586,-652.5"/>
<text text-anchor="start" x="593" y="-663.9" font-family="Arial" font-size="14.00" fill="#000000">submissionTime </text>
<text text-anchor="start" x="697.9972" y="-663.9" font-family="Arial" font-size="14.00" fill="#666666">[timestamp without time zone]</text>
<polygon fill="none" stroke="#000000" points="586,-622.5 586,-652.5 913,-652.5 913,-622.5 586,-622.5"/>
<text text-anchor="start" x="593" y="-633.9" font-family="Arial" font-size="14.00" fill="#000000">createdAt </text>
<text text-anchor="start" x="656.7994" y="-633.9" font-family="Arial" font-size="14.00" fill="#666666">[timestamp without time zone]</text>
<polygon fill="none" stroke="#000000" points="586,-592.5 586,-622.5 913,-622.5 913,-592.5 586,-592.5"/>
<text text-anchor="start" x="593" y="-603.9" font-family="Arial" font-size="14.00" fill="#000000">updatedAt </text>
<text text-anchor="start" x="660.704" y="-603.9" font-family="Arial" font-size="14.00" fill="#666666">[timestamp without time zone]</text>
<polygon fill="none" stroke="#000000" stroke-width="3" points="584,-591.5 584,-929.5 914,-929.5 914,-591.5 584,-591.5"/>
</g>
<!-- public.orders -->
<g id="node2" class="node">
<title>public.orders</title>
<polygon fill="#efefef" stroke="transparent" points="162,-432.5 162,-467.5 496,-467.5 496,-432.5 162,-432.5"/>
<polygon fill="none" stroke="#000000" points="162,-432.5 162,-467.5 496,-467.5 496,-432.5 162,-432.5"/>
<text text-anchor="start" x="213.7099" y="-445.3" font-family="Arial Bold" font-size="18.00" fill="#000000">public.orders</text>
<text text-anchor="start" x="316.7221" y="-445.3" font-family="Arial" font-size="14.00" fill="#000000">    </text>
<text text-anchor="start" x="350.9269" y="-445.3" font-family="Arial" font-size="14.00" fill="#666666">[BASE TABLE]</text>
<polygon fill="none" stroke="#000000" points="162,-402.5 162,-432.5 496,-432.5 496,-402.5 162,-402.5"/>
<text text-anchor="start" x="169" y="-413.9" font-family="Arial" font-size="14.00" fill="#000000">orderID    </text>
<text text-anchor="start" x="249.871" y="-413.9" font-family="Arial" font-size="14.00" fill="#666666">[integer]</text>
<polygon fill="none" stroke="#000000" points="162,-372.5 162,-402.5 496,-402.5 496,-372.5 162,-372.5"/>
<text text-anchor="start" x="169" y="-383.9" font-family="Arial" font-size="14.00" fill="#000000">driverCarID    </text>
<text text-anchor="start" x="274.7448" y="-383.9" font-family="Arial" font-size="14.00" fill="#666666">[integer]</text>
<polygon fill="none" stroke="#000000" points="162,-342.5 162,-372.5 496,-372.5 496,-342.5 162,-342.5"/>
<text text-anchor="start" x="169" y="-353.9" font-family="Arial" font-size="14.00" fill="#000000">driverID    </text>
<text text-anchor="start" x="252.195" y="-353.9" font-family="Arial" font-size="14.00" fill="#666666">[integer]</text>
<polygon fill="none" stroke="#000000" points="162,-312.5 162,-342.5 496,-342.5 496,-312.5 162,-312.5"/>
<text text-anchor="start" x="169" y="-323.9" font-family="Arial" font-size="14.00" fill="#000000">storeID    </text>
<text text-anchor="start" x="248.3184" y="-323.9" font-family="Arial" font-size="14.00" fill="#666666">[integer]</text>
<polygon fill="none" stroke="#000000" points="162,-282.5 162,-312.5 496,-312.5 496,-282.5 162,-282.5"/>
<text text-anchor="start" x="169" y="-293.9" font-family="Arial" font-size="14.00" fill="#000000">orderNotes    </text>
<text text-anchor="start" x="272.4362" y="-293.9" font-family="Arial" font-size="14.00" fill="#666666">[varchar]</text>
<polygon fill="none" stroke="#000000" points="162,-252.5 162,-282.5 496,-282.5 496,-252.5 162,-252.5"/>
<text text-anchor="start" x="169" y="-263.9" font-family="Arial" font-size="14.00" fill="#000000">employeeID    </text>
<text text-anchor="start" x="277.8822" y="-263.9" font-family="Arial" font-size="14.00" fill="#666666">[integer]</text>
<polygon fill="none" stroke="#000000" points="162,-222.5 162,-252.5 496,-252.5 496,-222.5 162,-222.5"/>
<text text-anchor="start" x="168.7742" y="-233.9" font-family="Arial" font-size="14.00" fill="#000000">submissionTime    </text>
<text text-anchor="start" x="304.0856" y="-233.9" font-family="Arial" font-size="14.00" fill="#666666">[timestamp without time zone]</text>
<polygon fill="none" stroke="#000000" points="162,-192.5 162,-222.5 496,-222.5 496,-192.5 162,-192.5"/>
<text text-anchor="start" x="169" y="-203.9" font-family="Arial" font-size="14.00" fill="#000000">vatFree    </text>
<text text-anchor="start" x="250.6564" y="-203.9" font-family="Arial" font-size="14.00" fill="#666666">[boolean]</text>
<polygon fill="none" stroke="#000000" points="162,-162.5 162,-192.5 496,-192.5 496,-162.5 162,-162.5"/>
<text text-anchor="start" x="169" y="-173.9" font-family="Arial" font-size="14.00" fill="#000000">orderStatus    </text>
<text text-anchor="start" x="275.5568" y="-173.9" font-family="Arial" font-size="14.00" fill="#666666">[&quot;orderStatus&quot;]</text>
<polygon fill="none" stroke="#000000" points="162,-132.5 162,-162.5 496,-162.5 496,-132.5 162,-132.5"/>
<text text-anchor="start" x="169" y="-143.9" font-family="Arial" font-size="14.00" fill="#000000">currency    </text>
<text text-anchor="start" x="256.8738" y="-143.9" font-family="Arial" font-size="14.00" fill="#666666">[varchar(5)]</text>
<polygon fill="none" stroke="#000000" points="162,-102.5 162,-132.5 496,-132.5 496,-102.5 162,-102.5"/>
<text text-anchor="start" x="169" y="-113.9" font-family="Arial" font-size="14.00" fill="#000000">discount    </text>
<text text-anchor="start" x="255.3324" y="-113.9" font-family="Arial" font-size="14.00" fill="#666666">[real]</text>
<polygon fill="none" stroke="#000000" points="162,-72.5 162,-102.5 496,-102.5 496,-72.5 162,-72.5"/>
<text text-anchor="start" x="169" y="-83.9" font-family="Arial" font-size="14.00" fill="#000000">createdAt    </text>
<text text-anchor="start" x="263.1136" y="-83.9" font-family="Arial" font-size="14.00" fill="#666666">[timestamp without time zone]</text>
<polygon fill="none" stroke="#000000" points="162,-42.5 162,-72.5 496,-72.5 496,-42.5 162,-42.5"/>
<text text-anchor="start" x="169" y="-53.9" font-family="Arial" font-size="14.00" fill="#000000">updatedAt    </text>
<text text-anchor="start" x="267.0182" y="-53.9" font-family="Arial" font-size="14.00" fill="#666666">[timestamp without time zone]</text>
</g>
<!-- public.rentCarBookings&#45;&gt;public.orders -->
<g id="edge1" class="edge">
<title>public.rentCarBookings:orderID&#45;&gt;public.orders:orderID</title>
<path fill="none" stroke="#000000" d="M575.9489,-845.7675C495.9062,-816.1781 590.0033,-417.5 496,-417.5"/>
<polygon fill="#000000" stroke="#000000" points="576.1453,-845.8013 585.2356,-851.9346 581.0727,-846.6506 586,-847.5 586,-847.5 586,-847.5 581.0727,-846.6506 586.7644,-843.0654 576.1453,-845.8013 576.1453,-845.8013"/>
<text text-anchor="start" x="200.9595" y="-857.5" font-family="Arial" font-size="10.00" fill="#000000">FOREIGN KEY (&quot;orderID&quot;) REFERENCES orders(&quot;orderID&quot;) ON DELETE CASCADE</text>
</g>
<!-- public.rentCars -->
<g id="node3" class="node">
<title>public.rentCars</title>
<polygon fill="#efefef" stroke="transparent" points="601,-372.5 601,-407.5 898,-407.5 898,-372.5 601,-372.5"/>
<polygon fill="none" stroke="#000000" points="601,-372.5 601,-407.5 898,-407.5 898,-372.5 601,-372.5"/>
<text text-anchor="start" x="625.2117" y="-385.3" font-family="Arial Bold" font-size="18.00" fill="#000000">public.rentCars</text>
<text text-anchor="start" x="746.2203" y="-385.3" font-family="Arial" font-size="14.00" fill="#000000">    </text>
<text text-anchor="start" x="780.4251" y="-385.3" font-family="Arial" font-size="14.00" fill="#666666">[BASE TABLE]</text>
<polygon fill="none" stroke="#000000" points="601,-342.5 601,-372.5 898,-372.5 898,-342.5 601,-342.5"/>
<text text-anchor="start" x="608" y="-353.9" font-family="Arial" font-size="14.00" fill="#000000">storeID    </text>
<text text-anchor="start" x="687.3184" y="-353.9" font-family="Arial" font-size="14.00" fill="#666666">[integer]</text>
<polygon fill="none" stroke="#000000" points="601,-312.5 601,-342.5 898,-342.5 898,-312.5 601,-312.5"/>
<text text-anchor="start" x="608" y="-323.9" font-family="Arial" font-size="14.00" fill="#000000">rentCarRegistrationNumber    </text>
<text text-anchor="start" x="813.3212" y="-323.9" font-family="Arial" font-size="14.00" fill="#666666">[varchar]</text>
<polygon fill="none" stroke="#000000" points="601,-282.5 601,-312.5 898,-312.5 898,-282.5 601,-282.5"/>
<text text-anchor="start" x="608" y="-293.9" font-family="Arial" font-size="14.00" fill="#000000">rentCarModel    </text>
<text text-anchor="start" x="726.986" y="-293.9" font-family="Arial" font-size="14.00" fill="#666666">[varchar]</text>
<polygon fill="none" stroke="#000000" points="601,-252.5 601,-282.5 898,-282.5 898,-252.5 601,-252.5"/>
<text text-anchor="start" x="608" y="-263.9" font-family="Arial" font-size="14.00" fill="#000000">rentCarColor    </text>
<text text-anchor="start" x="722.31" y="-263.9" font-family="Arial" font-size="14.00" fill="#666666">[varchar]</text>
<polygon fill="none" stroke="#000000" points="601,-222.5 601,-252.5 898,-252.5 898,-222.5 601,-222.5"/>
<text text-anchor="start" x="608" y="-233.9" font-family="Arial" font-size="14.00" fill="#000000">rentCarYear    </text>
<text text-anchor="start" x="718.4334" y="-233.9" font-family="Arial" font-size="14.00" fill="#666666">[integer]</text>
<polygon fill="none" stroke="#000000" points="601,-192.5 601,-222.5 898,-222.5 898,-192.5 601,-192.5"/>
<text text-anchor="start" x="608" y="-203.9" font-family="Arial" font-size="14.00" fill="#000000">rentCarNotes    </text>
<text text-anchor="start" x="725.4334" y="-203.9" font-family="Arial" font-size="14.00" fill="#666666">[varchar]</text>
<polygon fill="none" stroke="#000000" points="601,-162.5 601,-192.5 898,-192.5 898,-162.5 601,-162.5"/>
<text text-anchor="start" x="608" y="-173.9" font-family="Arial" font-size="14.00" fill="#000000">rentCarNumber    </text>
<text text-anchor="start" x="738.6466" y="-173.9" font-family="Arial" font-size="14.00" fill="#666666">[integer]</text>
<polygon fill="none" stroke="#000000" points="601,-132.5 601,-162.5 898,-162.5 898,-132.5 601,-132.5"/>
<text text-anchor="start" x="608" y="-143.9" font-family="Arial" font-size="14.00" fill="#000000">createdAt    </text>
<text text-anchor="start" x="702.1136" y="-143.9" font-family="Arial" font-size="14.00" fill="#666666">[timestamp without time zone]</text>
<polygon fill="none" stroke="#000000" points="601,-102.5 601,-132.5 898,-132.5 898,-102.5 601,-102.5"/>
<text text-anchor="start" x="607.9208" y="-113.9" font-family="Arial" font-size="14.00" fill="#000000">updatedAt    </text>
<text text-anchor="start" x="705.939" y="-113.9" font-family="Arial" font-size="14.00" fill="#666666">[timestamp without time zone]</text>
</g>
<!-- public.rentCarBookings&#45;&gt;public.rentCars -->
<g id="edge2" class="edge">
<title>public.rentCarBookings:rentCarRegistrationNumber&#45;&gt;public.rentCars:rentCarRegistrationNumber</title>
<path fill="none" stroke="#000000" d="M577.1347,-812.6503C533.4234,-761.7604 549.7216,-327.5 601,-327.5"/>
<polygon fill="#000000" stroke="#000000" points="577.2269,-812.7007 583.8403,-821.4479 581.6134,-815.1003 586,-817.5 586,-817.5 586,-817.5 581.6134,-815.1003 588.1597,-813.5521 577.2269,-812.7007 577.2269,-812.7007"/>
<text text-anchor="start" x="6.5185" y="-827.5" font-family="Arial" font-size="10.00" fill="#000000">FOREIGN KEY (&quot;rentCarRegistrationNumber&quot;) REFERENCES &quot;rentCars&quot;(&quot;rentCarRegistrationNumber&quot;) ON DELETE CASCADE</text>
</g>
<!-- public.employees -->
<g id="node4" class="node">
<title>public.employees</title>
<polygon fill="#efefef" stroke="transparent" points="1002,-432.5 1002,-467.5 1299,-467.5 1299,-432.5 1002,-432.5"/>
<polygon fill="none" stroke="#000000" points="1002,-432.5 1002,-467.5 1299,-467.5 1299,-432.5 1002,-432.5"/>
<text text-anchor="start" x="1017.2027" y="-445.3" font-family="Arial Bold" font-size="18.00" fill="#000000">public.employees</text>
<text text-anchor="start" x="1156.2293" y="-445.3" font-family="Arial" font-size="14.00" fill="#000000">    </text>
<text text-anchor="start" x="1190.4341" y="-445.3" font-family="Arial" font-size="14.00" fill="#666666">[BASE TABLE]</text>
<polygon fill="none" stroke="#000000" points="1002,-402.5 1002,-432.5 1299,-432.5 1299,-402.5 1002,-402.5"/>
<text text-anchor="start" x="1009" y="-413.9" font-family="Arial" font-size="14.00" fill="#000000">userID    </text>
<text text-anchor="start" x="1084.4278" y="-413.9" font-family="Arial" font-size="14.00" fill="#666666">[integer]</text>
<polygon fill="none" stroke="#000000" points="1002,-372.5 1002,-402.5 1299,-402.5 1299,-372.5 1002,-372.5"/>
<text text-anchor="start" x="1009" y="-383.9" font-family="Arial" font-size="14.00" fill="#000000">employeeID    </text>
<text text-anchor="start" x="1117.8822" y="-383.9" font-family="Arial" font-size="14.00" fill="#666666">[integer]</text>
<polygon fill="none" stroke="#000000" points="1002,-342.5 1002,-372.5 1299,-372.5 1299,-342.5 1002,-342.5"/>
<text text-anchor="start" x="1009" y="-353.9" font-family="Arial" font-size="14.00" fill="#000000">shortUserName    </text>
<text text-anchor="start" x="1141.2034" y="-353.9" font-family="Arial" font-size="14.00" fill="#666666">[varchar(16)]</text>
<polygon fill="none" stroke="#000000" points="1002,-312.5 1002,-342.5 1299,-342.5 1299,-312.5 1002,-312.5"/>
<text text-anchor="start" x="1009" y="-323.9" font-family="Arial" font-size="14.00" fill="#000000">employmentNumber    </text>
<text text-anchor="start" x="1169.2118" y="-323.9" font-family="Arial" font-size="14.00" fill="#666666">[varchar(128)]</text>
<polygon fill="none" stroke="#000000" points="1002,-282.5 1002,-312.5 1299,-312.5 1299,-282.5 1002,-282.5"/>
<text text-anchor="start" x="1009" y="-293.9" font-family="Arial" font-size="14.00" fill="#000000">employeePersonalNumber    </text>
<text text-anchor="start" x="1208.8948" y="-293.9" font-family="Arial" font-size="14.00" fill="#666666">[varchar(16)]</text>
<polygon fill="none" stroke="#000000" points="1002,-252.5 1002,-282.5 1299,-282.5 1299,-252.5 1002,-252.5"/>
<text text-anchor="start" x="1009" y="-263.9" font-family="Arial" font-size="14.00" fill="#000000">signature    </text>
<text text-anchor="start" x="1100.7756" y="-263.9" font-family="Arial" font-size="14.00" fill="#666666">[varchar(4)]</text>
<polygon fill="none" stroke="#000000" points="1002,-222.5 1002,-252.5 1299,-252.5 1299,-222.5 1002,-222.5"/>
<text text-anchor="start" x="1009" y="-233.9" font-family="Arial" font-size="14.00" fill="#000000">employeeHourlyRate    </text>
<text text-anchor="start" x="1173.8864" y="-233.9" font-family="Arial" font-size="14.00" fill="#666666">[real]</text>
<polygon fill="none" stroke="#000000" points="1002,-192.5 1002,-222.5 1299,-222.5 1299,-192.5 1002,-192.5"/>
<text text-anchor="start" x="1009" y="-203.9" font-family="Arial" font-size="14.00" fill="#000000">employeeHourlyRateCurrency    </text>
<text text-anchor="start" x="1230.662" y="-203.9" font-family="Arial" font-size="14.00" fill="#666666">[varchar]</text>
<polygon fill="none" stroke="#000000" points="1002,-162.5 1002,-192.5 1299,-192.5 1299,-162.5 1002,-162.5"/>
<text text-anchor="start" x="1009" y="-173.9" font-family="Arial" font-size="14.00" fill="#000000">employeePin    </text>
<text text-anchor="start" x="1124.1108" y="-173.9" font-family="Arial" font-size="14.00" fill="#666666">[varchar(4)]</text>
<polygon fill="none" stroke="#000000" points="1002,-132.5 1002,-162.5 1299,-162.5 1299,-132.5 1002,-132.5"/>
<text text-anchor="start" x="1009" y="-143.9" font-family="Arial" font-size="14.00" fill="#000000">employeeComment    </text>
<text text-anchor="start" x="1164.5512" y="-143.9" font-family="Arial" font-size="14.00" fill="#666666">[varchar]</text>
<polygon fill="none" stroke="#000000" points="1002,-102.5 1002,-132.5 1299,-132.5 1299,-102.5 1002,-102.5"/>
<text text-anchor="start" x="1009" y="-113.9" font-family="Arial" font-size="14.00" fill="#000000">employeeActive    </text>
<text text-anchor="start" x="1142.0014" y="-113.9" font-family="Arial" font-size="14.00" fill="#666666">[boolean]</text>
<polygon fill="none" stroke="#000000" points="1002,-72.5 1002,-102.5 1299,-102.5 1299,-72.5 1002,-72.5"/>
<text text-anchor="start" x="1009" y="-83.9" font-family="Arial" font-size="14.00" fill="#000000">createdAt    </text>
<text text-anchor="start" x="1103.1136" y="-83.9" font-family="Arial" font-size="14.00" fill="#666666">[timestamp without time zone]</text>
<polygon fill="none" stroke="#000000" points="1002,-42.5 1002,-72.5 1299,-72.5 1299,-42.5 1002,-42.5"/>
<text text-anchor="start" x="1008.9208" y="-53.9" font-family="Arial" font-size="14.00" fill="#000000">updatedAt    </text>
<text text-anchor="start" x="1106.939" y="-53.9" font-family="Arial" font-size="14.00" fill="#666666">[timestamp without time zone]</text>
</g>
<!-- public.rentCarBookings&#45;&gt;public.employees -->
<g id="edge3" class="edge">
<title>public.rentCarBookings:employeeID&#45;&gt;public.employees:employeeID</title>
<path fill="none" stroke="#000000" d="M923.0551,-725.3288C985.1203,-696.3721 927.5598,-387.5 1002,-387.5"/>
<polygon fill="#000000" stroke="#000000" points="922.7747,-725.3893 912.0502,-723.1014 917.8874,-726.4446 913,-727.5 913,-727.5 913,-727.5 917.8874,-726.4446 913.9498,-731.8986 922.7747,-725.3893 922.7747,-725.3893"/>
<text text-anchor="start" x="920.223" y="-737.5" font-family="Arial" font-size="10.00" fill="#000000">FOREIGN KEY (&quot;employeeID&quot;) REFERENCES employees(&quot;employeeID&quot;) ON DELETE SET NULL</text>
</g>
</g>
</svg>
