<?xml version="1.0" encoding="UTF-8" standalone="no"?>
<!DOCTYPE svg PUBLIC "-//W3C//DTD SVG 1.1//EN"
 "http://www.w3.org/Graphics/SVG/1.1/DTD/svg11.dtd">
<!-- Generated by graphviz version 2.40.1 (20161225.0304)
 -->
<!-- Title: public.products Pages: 1 -->
<svg width="1159pt" height="1799pt"
 viewBox="0.00 0.00 1159.00 1799.00" xmlns="http://www.w3.org/2000/svg" xmlns:xlink="http://www.w3.org/1999/xlink">
<g id="graph0" class="graph" transform="scale(1 1) rotate(0) translate(4 1795)">
<title>public.products</title>
<polygon fill="#ffffff" stroke="transparent" points="-4,4 -4,-1795 1155,-1795 1155,4 -4,4"/>
<!-- public.products -->
<g id="node1" class="node">
<title>public.products</title>
<polygon fill="#efefef" stroke="transparent" points="443,-1342.5 443,-1377.5 709,-1377.5 709,-1342.5 443,-1342.5"/>
<polygon fill="none" stroke="#000000" points="443,-1342.5 443,-1377.5 709,-1377.5 709,-1342.5 443,-1342.5"/>
<text text-anchor="start" x="451.7018" y="-1355.3" font-family="Arial Bold" font-size="18.00" fill="#000000">public.products</text>
<text text-anchor="start" x="572.7302" y="-1355.3" font-family="Arial" font-size="14.00" fill="#000000">    </text>
<text text-anchor="start" x="606.935" y="-1355.3" font-family="Arial" font-size="14.00" fill="#666666">[BASE TABLE]</text>
<polygon fill="none" stroke="#000000" points="443,-1312.5 443,-1342.5 709,-1342.5 709,-1312.5 443,-1312.5"/>
<text text-anchor="start" x="450" y="-1323.9" font-family="Arial" font-size="14.00" fill="#000000">productID </text>
<text text-anchor="start" x="514.5694" y="-1323.9" font-family="Arial" font-size="14.00" fill="#666666">[integer]</text>
<polygon fill="none" stroke="#000000" points="443,-1282.5 443,-1312.5 709,-1312.5 709,-1282.5 443,-1282.5"/>
<text text-anchor="start" x="450" y="-1293.9" font-family="Arial" font-size="14.00" fill="#000000">productItemNumber </text>
<text text-anchor="start" x="577.5722" y="-1293.9" font-family="Arial" font-size="14.00" fill="#666666">[varchar]</text>
<polygon fill="none" stroke="#000000" points="443,-1252.5 443,-1282.5 709,-1282.5 709,-1252.5 443,-1252.5"/>
<text text-anchor="start" x="450" y="-1263.9" font-family="Arial" font-size="14.00" fill="#000000">currency </text>
<text text-anchor="start" x="507.5596" y="-1263.9" font-family="Arial" font-size="14.00" fill="#666666">[varchar(5)]</text>
<polygon fill="none" stroke="#000000" points="443,-1222.5 443,-1252.5 709,-1252.5 709,-1222.5 443,-1222.5"/>
<text text-anchor="start" x="450" y="-1233.9" font-family="Arial" font-size="14.00" fill="#000000">cost </text>
<text text-anchor="start" x="479.5638" y="-1233.9" font-family="Arial" font-size="14.00" fill="#666666">[real]</text>
<polygon fill="none" stroke="#000000" points="443,-1192.5 443,-1222.5 709,-1222.5 709,-1192.5 443,-1192.5"/>
<text text-anchor="start" x="450" y="-1203.9" font-family="Arial" font-size="14.00" fill="#000000">productCategoryID </text>
<text text-anchor="start" x="571.3576" y="-1203.9" font-family="Arial" font-size="14.00" fill="#666666">[integer]</text>
<polygon fill="none" stroke="#000000" points="443,-1162.5 443,-1192.5 709,-1192.5 709,-1162.5 443,-1162.5"/>
<text text-anchor="start" x="450" y="-1173.9" font-family="Arial" font-size="14.00" fill="#000000">productDescription </text>
<text text-anchor="start" x="570.5736" y="-1173.9" font-family="Arial" font-size="14.00" fill="#666666">[varchar(512)]</text>
<polygon fill="none" stroke="#000000" points="443,-1132.5 443,-1162.5 709,-1162.5 709,-1132.5 443,-1132.5"/>
<text text-anchor="start" x="450" y="-1143.9" font-family="Arial" font-size="14.00" fill="#000000">productSupplierArticleNumber </text>
<text text-anchor="start" x="640.5722" y="-1143.9" font-family="Arial" font-size="14.00" fill="#666666">[varchar]</text>
<polygon fill="none" stroke="#000000" points="443,-1102.5 443,-1132.5 709,-1132.5 709,-1102.5 443,-1102.5"/>
<text text-anchor="start" x="450" y="-1113.9" font-family="Arial" font-size="14.00" fill="#000000">productExternalArticleNumber </text>
<text text-anchor="start" x="640.5736" y="-1113.9" font-family="Arial" font-size="14.00" fill="#666666">[varchar]</text>
<polygon fill="none" stroke="#000000" points="443,-1072.5 443,-1102.5 709,-1102.5 709,-1072.5 443,-1072.5"/>
<text text-anchor="start" x="450" y="-1083.9" font-family="Arial" font-size="14.00" fill="#000000">productUpdateRelatedData </text>
<text text-anchor="start" x="623.4964" y="-1083.9" font-family="Arial" font-size="14.00" fill="#666666">[boolean]</text>
<polygon fill="none" stroke="#000000" points="443,-1042.5 443,-1072.5 709,-1072.5 709,-1042.5 443,-1042.5"/>
<text text-anchor="start" x="450" y="-1053.9" font-family="Arial" font-size="14.00" fill="#000000">award </text>
<text text-anchor="start" x="492.0056" y="-1053.9" font-family="Arial" font-size="14.00" fill="#666666">[real]</text>
<polygon fill="none" stroke="#000000" points="443,-1012.5 443,-1042.5 709,-1042.5 709,-1012.5 443,-1012.5"/>
<text text-anchor="start" x="450" y="-1023.9" font-family="Arial" font-size="14.00" fill="#000000">productInventoryBalance </text>
<text text-anchor="start" x="608.718" y="-1023.9" font-family="Arial" font-size="14.00" fill="#666666">[integer]</text>
<polygon fill="none" stroke="#000000" points="443,-982.5 443,-1012.5 709,-1012.5 709,-982.5 443,-982.5"/>
<text text-anchor="start" x="450" y="-993.9" font-family="Arial" font-size="14.00" fill="#000000">createdAt </text>
<text text-anchor="start" x="513.7994" y="-993.9" font-family="Arial" font-size="14.00" fill="#666666">[timestamp without time zone]</text>
<polygon fill="none" stroke="#000000" points="443,-952.5 443,-982.5 709,-982.5 709,-952.5 443,-952.5"/>
<text text-anchor="start" x="449.5779" y="-963.9" font-family="Arial" font-size="14.00" fill="#000000">updatedAt </text>
<text text-anchor="start" x="517.2819" y="-963.9" font-family="Arial" font-size="14.00" fill="#666666">[timestamp without time zone]</text>
<polygon fill="none" stroke="#000000" points="443,-922.5 443,-952.5 709,-952.5 709,-922.5 443,-922.5"/>
<text text-anchor="start" x="450" y="-933.9" font-family="Arial" font-size="14.00" fill="#000000">storeID </text>
<text text-anchor="start" x="499.0042" y="-933.9" font-family="Arial" font-size="14.00" fill="#666666">[integer]</text>
<polygon fill="none" stroke="#000000" stroke-width="3" points="441.5,-921.5 441.5,-1379.5 710.5,-1379.5 710.5,-921.5 441.5,-921.5"/>
</g>
<!-- public.productCategories -->
<g id="node3" class="node">
<title>public.productCategories</title>
<polygon fill="#efefef" stroke="transparent" points="194,-477.5 194,-512.5 534,-512.5 534,-477.5 194,-477.5"/>
<polygon fill="none" stroke="#000000" points="194,-477.5 194,-512.5 534,-512.5 534,-477.5 194,-477.5"/>
<text text-anchor="start" x="200.6949" y="-490.3" font-family="Arial Bold" font-size="18.00" fill="#000000">public.productCategories</text>
<text text-anchor="start" x="399.7371" y="-490.3" font-family="Arial" font-size="14.00" fill="#000000">    </text>
<text text-anchor="start" x="433.9419" y="-490.3" font-family="Arial" font-size="14.00" fill="#666666">[BASE TABLE]</text>
<polygon fill="none" stroke="#000000" points="194,-447.5 194,-477.5 534,-477.5 534,-447.5 194,-447.5"/>
<text text-anchor="start" x="201" y="-458.9" font-family="Arial" font-size="14.00" fill="#000000">productCategoryID    </text>
<text text-anchor="start" x="352.6718" y="-458.9" font-family="Arial" font-size="14.00" fill="#666666">[integer]</text>
<polygon fill="none" stroke="#000000" points="194,-417.5 194,-447.5 534,-447.5 534,-417.5 194,-417.5"/>
<text text-anchor="start" x="201" y="-428.9" font-family="Arial" font-size="14.00" fill="#000000">name    </text>
<text text-anchor="start" x="270.2132" y="-428.9" font-family="Arial" font-size="14.00" fill="#666666">[varchar(256)]</text>
<polygon fill="none" stroke="#000000" points="194,-387.5 194,-417.5 534,-417.5 534,-387.5 194,-387.5"/>
<text text-anchor="start" x="201" y="-398.9" font-family="Arial" font-size="14.00" fill="#000000">description    </text>
<text text-anchor="start" x="302.8822" y="-398.9" font-family="Arial" font-size="14.00" fill="#666666">[text]</text>
<polygon fill="none" stroke="#000000" points="194,-357.5 194,-387.5 534,-387.5 534,-357.5 194,-357.5"/>
<text text-anchor="start" x="201" y="-368.9" font-family="Arial" font-size="14.00" fill="#000000">createdAt    </text>
<text text-anchor="start" x="295.1136" y="-368.9" font-family="Arial" font-size="14.00" fill="#666666">[timestamp without time zone]</text>
<polygon fill="none" stroke="#000000" points="194,-327.5 194,-357.5 534,-357.5 534,-327.5 194,-327.5"/>
<text text-anchor="start" x="201" y="-338.9" font-family="Arial" font-size="14.00" fill="#000000">updatedAt    </text>
<text text-anchor="start" x="299.0182" y="-338.9" font-family="Arial" font-size="14.00" fill="#666666">[timestamp without time zone]</text>
</g>
<!-- public.products&#45;&gt;public.productCategories -->
<g id="edge2" class="edge">
<title>public.products:productCategoryID&#45;&gt;public.productCategories:productCategoryID</title>
<path fill="none" stroke="#000000" d="M432.6125,-1206.5661C290.7944,-1179.6708 530.5692,-580.6808 534,-556 539.7214,-514.8402 575.5556,-462.5 534,-462.5"/>
<polygon fill="#000000" stroke="#000000" points="433.0402,-1206.6045 442.597,-1211.9819 438.0201,-1207.0522 443,-1207.5 443,-1207.5 443,-1207.5 438.0201,-1207.0522 443.403,-1203.0181 433.0402,-1206.6045 433.0402,-1206.6045"/>
<text text-anchor="start" x="7.4445" y="-1217.5" font-family="Arial" font-size="10.00" fill="#000000">FOREIGN KEY (&quot;productCategoryID&quot;) REFERENCES &quot;productCategories&quot;(&quot;productCategoryID&quot;)</text>
</g>
<!-- public.stores -->
<g id="node4" class="node">
<title>public.stores</title>
<polygon fill="#efefef" stroke="transparent" points="639,-762.5 639,-797.5 936,-797.5 936,-762.5 639,-762.5"/>
<polygon fill="none" stroke="#000000" points="639,-762.5 639,-797.5 936,-797.5 936,-762.5 639,-762.5"/>
<text text-anchor="start" x="673.208" y="-775.3" font-family="Arial Bold" font-size="18.00" fill="#000000">public.stores</text>
<text text-anchor="start" x="774.224" y="-775.3" font-family="Arial" font-size="14.00" fill="#000000">    </text>
<text text-anchor="start" x="808.4288" y="-775.3" font-family="Arial" font-size="14.00" fill="#666666">[BASE TABLE]</text>
<polygon fill="none" stroke="#000000" points="639,-732.5 639,-762.5 936,-762.5 936,-732.5 639,-732.5"/>
<text text-anchor="start" x="646" y="-743.9" font-family="Arial" font-size="14.00" fill="#000000">storeID    </text>
<text text-anchor="start" x="725.3184" y="-743.9" font-family="Arial" font-size="14.00" fill="#666666">[integer]</text>
<polygon fill="none" stroke="#000000" points="639,-702.5 639,-732.5 936,-732.5 936,-702.5 639,-702.5"/>
<text text-anchor="start" x="646" y="-713.9" font-family="Arial" font-size="14.00" fill="#000000">storeOrgNumber    </text>
<text text-anchor="start" x="784.4306" y="-713.9" font-family="Arial" font-size="14.00" fill="#666666">[varchar(11)]</text>
<polygon fill="none" stroke="#000000" points="639,-672.5 639,-702.5 936,-702.5 936,-672.5 639,-672.5"/>
<text text-anchor="start" x="646" y="-683.9" font-family="Arial" font-size="14.00" fill="#000000">storeName    </text>
<text text-anchor="start" x="748.6536" y="-683.9" font-family="Arial" font-size="14.00" fill="#666666">[varchar(128)]</text>
<polygon fill="none" stroke="#000000" points="639,-642.5 639,-672.5 936,-672.5 936,-642.5 639,-642.5"/>
<text text-anchor="start" x="646" y="-653.9" font-family="Arial" font-size="14.00" fill="#000000">storeWebSite    </text>
<text text-anchor="start" x="764.2174" y="-653.9" font-family="Arial" font-size="14.00" fill="#666666">[varchar]</text>
<polygon fill="none" stroke="#000000" points="639,-612.5 639,-642.5 936,-642.5 936,-612.5 639,-612.5"/>
<text text-anchor="start" x="646" y="-623.9" font-family="Arial" font-size="14.00" fill="#000000">storeVatNumber    </text>
<text text-anchor="start" x="782.1066" y="-623.9" font-family="Arial" font-size="14.00" fill="#666666">[varchar(32)]</text>
<polygon fill="none" stroke="#000000" points="639,-582.5 639,-612.5 936,-612.5 936,-582.5 639,-582.5"/>
<text text-anchor="start" x="646" y="-593.9" font-family="Arial" font-size="14.00" fill="#000000">storeFSkatt    </text>
<text text-anchor="start" x="751.7742" y="-593.9" font-family="Arial" font-size="14.00" fill="#666666">[boolean]</text>
<polygon fill="none" stroke="#000000" points="639,-552.5 639,-582.5 936,-582.5 936,-552.5 639,-552.5"/>
<text text-anchor="start" x="646" y="-563.9" font-family="Arial" font-size="14.00" fill="#000000">storeStatus    </text>
<text text-anchor="start" x="751.0042" y="-563.9" font-family="Arial" font-size="14.00" fill="#666666">[boolean]</text>
<polygon fill="none" stroke="#000000" points="639,-522.5 639,-552.5 936,-552.5 936,-522.5 639,-522.5"/>
<text text-anchor="start" x="646" y="-533.9" font-family="Arial" font-size="14.00" fill="#000000">storeEmail    </text>
<text text-anchor="start" x="746.3142" y="-533.9" font-family="Arial" font-size="14.00" fill="#666666">[varchar]</text>
<polygon fill="none" stroke="#000000" points="639,-492.5 639,-522.5 936,-522.5 936,-492.5 639,-492.5"/>
<text text-anchor="start" x="646" y="-503.9" font-family="Arial" font-size="14.00" fill="#000000">storePhone    </text>
<text text-anchor="start" x="751.7882" y="-503.9" font-family="Arial" font-size="14.00" fill="#666666">[varchar]</text>
<polygon fill="none" stroke="#000000" points="639,-462.5 639,-492.5 936,-492.5 936,-462.5 639,-462.5"/>
<text text-anchor="start" x="646" y="-473.9" font-family="Arial" font-size="14.00" fill="#000000">storeAddress    </text>
<text text-anchor="start" x="762.6662" y="-473.9" font-family="Arial" font-size="14.00" fill="#666666">[varchar]</text>
<polygon fill="none" stroke="#000000" points="639,-432.5 639,-462.5 936,-462.5 936,-432.5 639,-432.5"/>
<text text-anchor="start" x="646" y="-443.9" font-family="Arial" font-size="14.00" fill="#000000">storeZipCode    </text>
<text text-anchor="start" x="764.2174" y="-443.9" font-family="Arial" font-size="14.00" fill="#666666">[varchar(16)]</text>
<polygon fill="none" stroke="#000000" points="639,-402.5 639,-432.5 936,-432.5 936,-402.5 639,-402.5"/>
<text text-anchor="start" x="646" y="-413.9" font-family="Arial" font-size="14.00" fill="#000000">storeCity    </text>
<text text-anchor="start" x="735.425" y="-413.9" font-family="Arial" font-size="14.00" fill="#666666">[varchar]</text>
<polygon fill="none" stroke="#000000" points="639,-372.5 639,-402.5 936,-402.5 936,-372.5 639,-372.5"/>
<text text-anchor="start" x="646" y="-383.9" font-family="Arial" font-size="14.00" fill="#000000">storeCountry    </text>
<text text-anchor="start" x="760.3268" y="-383.9" font-family="Arial" font-size="14.00" fill="#666666">[varchar]</text>
<polygon fill="none" stroke="#000000" points="639,-342.5 639,-372.5 936,-372.5 936,-342.5 639,-342.5"/>
<text text-anchor="start" x="646" y="-353.9" font-family="Arial" font-size="14.00" fill="#000000">storeDescription    </text>
<text text-anchor="start" x="781.3226" y="-353.9" font-family="Arial" font-size="14.00" fill="#666666">[varchar]</text>
<polygon fill="none" stroke="#000000" points="639,-312.5 639,-342.5 936,-342.5 936,-312.5 639,-312.5"/>
<text text-anchor="start" x="646" y="-323.9" font-family="Arial" font-size="14.00" fill="#000000">storeContactPerson    </text>
<text text-anchor="start" x="803.9018" y="-323.9" font-family="Arial" font-size="14.00" fill="#666666">[varchar(64)]</text>
<polygon fill="none" stroke="#000000" points="639,-282.5 639,-312.5 936,-312.5 936,-282.5 639,-282.5"/>
<text text-anchor="start" x="646" y="-293.9" font-family="Arial" font-size="14.00" fill="#000000">storeMaxUsers    </text>
<text text-anchor="start" x="774.3142" y="-293.9" font-family="Arial" font-size="14.00" fill="#666666">[integer]</text>
<polygon fill="none" stroke="#000000" points="639,-252.5 639,-282.5 936,-282.5 936,-252.5 639,-252.5"/>
<text text-anchor="start" x="646" y="-263.9" font-family="Arial" font-size="14.00" fill="#000000">currency    </text>
<text text-anchor="start" x="733.8738" y="-263.9" font-family="Arial" font-size="14.00" fill="#666666">[varchar]</text>
<polygon fill="none" stroke="#000000" points="639,-222.5 639,-252.5 936,-252.5 936,-222.5 639,-222.5"/>
<text text-anchor="start" x="646" y="-233.9" font-family="Arial" font-size="14.00" fill="#000000">storeAllowCarAPI    </text>
<text text-anchor="start" x="789.8738" y="-233.9" font-family="Arial" font-size="14.00" fill="#666666">[boolean]</text>
<polygon fill="none" stroke="#000000" points="639,-192.5 639,-222.5 936,-222.5 936,-192.5 639,-192.5"/>
<text text-anchor="start" x="646" y="-203.9" font-family="Arial" font-size="14.00" fill="#000000">storeAllowSendSMS    </text>
<text text-anchor="start" x="807.7784" y="-203.9" font-family="Arial" font-size="14.00" fill="#666666">[boolean]</text>
<polygon fill="none" stroke="#000000" points="639,-162.5 639,-192.5 936,-192.5 936,-162.5 639,-162.5"/>
<text text-anchor="start" x="646" y="-173.9" font-family="Arial" font-size="14.00" fill="#000000">storeSendSMS    </text>
<text text-anchor="start" x="774.3394" y="-173.9" font-family="Arial" font-size="14.00" fill="#666666">[boolean]</text>
<polygon fill="none" stroke="#000000" points="639,-132.5 639,-162.5 936,-162.5 936,-132.5 639,-132.5"/>
<text text-anchor="start" x="646" y="-143.9" font-family="Arial" font-size="14.00" fill="#000000">storeUsesCheckin    </text>
<text text-anchor="start" x="793.7714" y="-143.9" font-family="Arial" font-size="14.00" fill="#666666">[boolean]</text>
<polygon fill="none" stroke="#000000" points="639,-102.5 639,-132.5 936,-132.5 936,-102.5 639,-102.5"/>
<text text-anchor="start" x="646" y="-113.9" font-family="Arial" font-size="14.00" fill="#000000">storeUsesPIN    </text>
<text text-anchor="start" x="766.5442" y="-113.9" font-family="Arial" font-size="14.00" fill="#666666">[boolean]</text>
<polygon fill="none" stroke="#000000" points="639,-72.5 639,-102.5 936,-102.5 936,-72.5 639,-72.5"/>
<text text-anchor="start" x="646" y="-83.9" font-family="Arial" font-size="14.00" fill="#000000">createdAt    </text>
<text text-anchor="start" x="740.1136" y="-83.9" font-family="Arial" font-size="14.00" fill="#666666">[timestamp without time zone]</text>
<polygon fill="none" stroke="#000000" points="639,-42.5 639,-72.5 936,-72.5 936,-42.5 639,-42.5"/>
<text text-anchor="start" x="645.9208" y="-53.9" font-family="Arial" font-size="14.00" fill="#000000">updatedAt    </text>
<text text-anchor="start" x="743.939" y="-53.9" font-family="Arial" font-size="14.00" fill="#666666">[timestamp without time zone]</text>
</g>
<!-- public.products&#45;&gt;public.stores -->
<g id="edge3" class="edge">
<title>public.products:storeID&#45;&gt;public.stores:storeID</title>
<path fill="none" stroke="#000000" d="M718.8386,-934.9489C731.8356,-926.1229 720.8177,-896.3666 709,-877 690.777,-847.1366 657.223,-870.8634 639,-841 617.3541,-805.5272 597.4444,-747.5 639,-747.5"/>
<polygon fill="#000000" stroke="#000000" points="718.6799,-934.99 707.8705,-933.1441 713.8399,-936.245 709,-937.5 709,-937.5 709,-937.5 713.8399,-936.245 710.1295,-941.8559 718.6799,-934.99 718.6799,-934.99"/>
<text text-anchor="start" x="715.623" y="-947.5" font-family="Arial" font-size="10.00" fill="#000000">FOREIGN KEY (&quot;storeID&quot;) REFERENCES stores(&quot;storeID&quot;) ON DELETE CASCADE</text>
</g>
<!-- public.orderProducts -->
<g id="node2" class="node">
<title>public.orderProducts</title>
<polygon fill="#efefef" stroke="transparent" points="423,-1712.5 423,-1747.5 729,-1747.5 729,-1712.5 423,-1712.5"/>
<polygon fill="none" stroke="#000000" points="423,-1712.5 423,-1747.5 729,-1747.5 729,-1712.5 423,-1712.5"/>
<text text-anchor="start" x="429.7013" y="-1725.3" font-family="Arial Bold" font-size="18.00" fill="#000000">public.orderProducts</text>
<text text-anchor="start" x="594.7307" y="-1725.3" font-family="Arial" font-size="14.00" fill="#000000">    </text>
<text text-anchor="start" x="628.9355" y="-1725.3" font-family="Arial" font-size="14.00" fill="#666666">[BASE TABLE]</text>
<polygon fill="none" stroke="#000000" points="423,-1682.5 423,-1712.5 729,-1712.5 729,-1682.5 423,-1682.5"/>
<text text-anchor="start" x="430" y="-1693.9" font-family="Arial" font-size="14.00" fill="#000000">orderID    </text>
<text text-anchor="start" x="510.871" y="-1693.9" font-family="Arial" font-size="14.00" fill="#666666">[integer]</text>
<polygon fill="none" stroke="#000000" points="423,-1652.5 423,-1682.5 729,-1682.5 729,-1652.5 423,-1652.5"/>
<text text-anchor="start" x="430" y="-1663.9" font-family="Arial" font-size="14.00" fill="#000000">productID    </text>
<text text-anchor="start" x="524.8836" y="-1663.9" font-family="Arial" font-size="14.00" fill="#666666">[integer]</text>
<polygon fill="none" stroke="#000000" points="423,-1622.5 423,-1652.5 729,-1652.5 729,-1622.5 423,-1622.5"/>
<text text-anchor="start" x="430" y="-1633.9" font-family="Arial" font-size="14.00" fill="#000000">productDescription    </text>
<text text-anchor="start" x="580.8878" y="-1633.9" font-family="Arial" font-size="14.00" fill="#666666">[varchar(256)]</text>
<polygon fill="none" stroke="#000000" points="423,-1592.5 423,-1622.5 729,-1622.5 729,-1592.5 423,-1592.5"/>
<text text-anchor="start" x="430" y="-1603.9" font-family="Arial" font-size="14.00" fill="#000000">amount    </text>
<text text-anchor="start" x="510.8864" y="-1603.9" font-family="Arial" font-size="14.00" fill="#666666">[integer]</text>
<polygon fill="none" stroke="#000000" points="423,-1562.5 423,-1592.5 729,-1592.5 729,-1562.5 423,-1562.5"/>
<text text-anchor="start" x="430" y="-1573.9" font-family="Arial" font-size="14.00" fill="#000000">cost    </text>
<text text-anchor="start" x="489.878" y="-1573.9" font-family="Arial" font-size="14.00" fill="#666666">[real]</text>
<polygon fill="none" stroke="#000000" points="423,-1532.5 423,-1562.5 729,-1562.5 729,-1532.5 423,-1532.5"/>
<text text-anchor="start" x="430" y="-1543.9" font-family="Arial" font-size="14.00" fill="#000000">currency    </text>
<text text-anchor="start" x="517.8738" y="-1543.9" font-family="Arial" font-size="14.00" fill="#666666">[varchar]</text>
<polygon fill="none" stroke="#000000" points="423,-1502.5 423,-1532.5 729,-1532.5 729,-1502.5 423,-1502.5"/>
<text text-anchor="start" x="430" y="-1513.9" font-family="Arial" font-size="14.00" fill="#000000">orderProductNotes    </text>
<text text-anchor="start" x="581.6718" y="-1513.9" font-family="Arial" font-size="14.00" fill="#666666">[varchar]</text>
</g>
<!-- public.orderProducts&#45;&gt;public.products -->
<g id="edge1" class="edge">
<title>public.orderProducts:productID&#45;&gt;public.products:productID</title>
<path fill="none" stroke="#000000" d="M739.3615,-1666.9485C879.3627,-1651.7493 856.8245,-1327.5 709,-1327.5"/>
<polygon fill="#000000" stroke="#000000" points="738.9859,-1666.9684 728.7608,-1663.0064 733.9929,-1667.2342 729,-1667.5 729,-1667.5 729,-1667.5 733.9929,-1667.2342 729.2392,-1671.9936 738.9859,-1666.9684 738.9859,-1666.9684"/>
<text text-anchor="start" x="735.946" y="-1677.5" font-family="Arial" font-size="10.00" fill="#000000">FOREIGN KEY (&quot;productID&quot;) REFERENCES products(&quot;productID&quot;) ON DELETE CASCADE</text>
</g>
</g>
</svg>
