<?xml version="1.0" encoding="UTF-8" standalone="no"?>
<!DOCTYPE svg PUBLIC "-//W3C//DTD SVG 1.1//EN"
 "http://www.w3.org/Graphics/SVG/1.1/DTD/svg11.dtd">
<!-- Generated by graphviz version 2.40.1 (20161225.0304)
 -->
<!-- Title: public.qualificationsLocal Pages: 1 -->
<svg width="1591pt" height="1379pt"
 viewBox="0.00 0.00 1590.50 1379.00" xmlns="http://www.w3.org/2000/svg" xmlns:xlink="http://www.w3.org/1999/xlink">
<g id="graph0" class="graph" transform="scale(1 1) rotate(0) translate(4 1375)">
<title>public.qualificationsLocal</title>
<polygon fill="#ffffff" stroke="transparent" points="-4,4 -4,-1375 1586.5,-1375 1586.5,4 -4,4"/>
<!-- public.qualificationsLocal -->
<g id="node1" class="node">
<title>public.qualificationsLocal</title>
<polygon fill="#efefef" stroke="transparent" points="645,-1072.5 645,-1107.5 985,-1107.5 985,-1072.5 645,-1072.5"/>
<polygon fill="none" stroke="#000000" points="645,-1072.5 645,-1107.5 985,-1107.5 985,-1072.5 645,-1072.5"/>
<text text-anchor="start" x="651.6958" y="-1085.3" font-family="Arial Bold" font-size="18.00" fill="#000000">public.qualificationsLocal</text>
<text text-anchor="start" x="850.7362" y="-1085.3" font-family="Arial" font-size="14.00" fill="#000000">    </text>
<text text-anchor="start" x="884.941" y="-1085.3" font-family="Arial" font-size="14.00" fill="#666666">[BASE TABLE]</text>
<polygon fill="none" stroke="#000000" points="645,-1042.5 645,-1072.5 985,-1072.5 985,-1042.5 645,-1042.5"/>
<text text-anchor="start" x="652" y="-1053.9" font-family="Arial" font-size="14.00" fill="#000000">storeID </text>
<text text-anchor="start" x="701.0042" y="-1053.9" font-family="Arial" font-size="14.00" fill="#666666">[integer]</text>
<polygon fill="none" stroke="#000000" points="645,-1012.5 645,-1042.5 985,-1042.5 985,-1012.5 645,-1012.5"/>
<text text-anchor="start" x="652" y="-1023.9" font-family="Arial" font-size="14.00" fill="#000000">localQualID </text>
<text text-anchor="start" x="728.2286" y="-1023.9" font-family="Arial" font-size="14.00" fill="#666666">[integer]</text>
<polygon fill="none" stroke="#000000" points="645,-982.5 645,-1012.5 985,-1012.5 985,-982.5 645,-982.5"/>
<text text-anchor="start" x="652" y="-993.9" font-family="Arial" font-size="14.00" fill="#000000">localQualName </text>
<text text-anchor="start" x="751.5638" y="-993.9" font-family="Arial" font-size="14.00" fill="#666666">[varchar(64)]</text>
<polygon fill="none" stroke="#000000" points="645,-952.5 645,-982.5 985,-982.5 985,-952.5 645,-952.5"/>
<text text-anchor="start" x="652" y="-963.9" font-family="Arial" font-size="14.00" fill="#000000">createdAt </text>
<text text-anchor="start" x="715.7994" y="-963.9" font-family="Arial" font-size="14.00" fill="#666666">[timestamp without time zone]</text>
<polygon fill="none" stroke="#000000" points="645,-922.5 645,-952.5 985,-952.5 985,-922.5 645,-922.5"/>
<text text-anchor="start" x="652" y="-933.9" font-family="Arial" font-size="14.00" fill="#000000">updatedAt </text>
<text text-anchor="start" x="719.704" y="-933.9" font-family="Arial" font-size="14.00" fill="#666666">[timestamp without time zone]</text>
<polygon fill="none" stroke="#000000" stroke-width="3" points="643.5,-921.5 643.5,-1109.5 986.5,-1109.5 986.5,-921.5 643.5,-921.5"/>
</g>
<!-- public.stores -->
<g id="node2" class="node">
<title>public.stores</title>
<polygon fill="#efefef" stroke="transparent" points="666,-762.5 666,-797.5 963,-797.5 963,-762.5 666,-762.5"/>
<polygon fill="none" stroke="#000000" points="666,-762.5 666,-797.5 963,-797.5 963,-762.5 666,-762.5"/>
<text text-anchor="start" x="700.208" y="-775.3" font-family="Arial Bold" font-size="18.00" fill="#000000">public.stores</text>
<text text-anchor="start" x="801.224" y="-775.3" font-family="Arial" font-size="14.00" fill="#000000">    </text>
<text text-anchor="start" x="835.4288" y="-775.3" font-family="Arial" font-size="14.00" fill="#666666">[BASE TABLE]</text>
<polygon fill="none" stroke="#000000" points="666,-732.5 666,-762.5 963,-762.5 963,-732.5 666,-732.5"/>
<text text-anchor="start" x="673" y="-743.9" font-family="Arial" font-size="14.00" fill="#000000">storeID    </text>
<text text-anchor="start" x="752.3184" y="-743.9" font-family="Arial" font-size="14.00" fill="#666666">[integer]</text>
<polygon fill="none" stroke="#000000" points="666,-702.5 666,-732.5 963,-732.5 963,-702.5 666,-702.5"/>
<text text-anchor="start" x="673" y="-713.9" font-family="Arial" font-size="14.00" fill="#000000">storeOrgNumber    </text>
<text text-anchor="start" x="811.4306" y="-713.9" font-family="Arial" font-size="14.00" fill="#666666">[varchar(11)]</text>
<polygon fill="none" stroke="#000000" points="666,-672.5 666,-702.5 963,-702.5 963,-672.5 666,-672.5"/>
<text text-anchor="start" x="673" y="-683.9" font-family="Arial" font-size="14.00" fill="#000000">storeName    </text>
<text text-anchor="start" x="775.6536" y="-683.9" font-family="Arial" font-size="14.00" fill="#666666">[varchar(128)]</text>
<polygon fill="none" stroke="#000000" points="666,-642.5 666,-672.5 963,-672.5 963,-642.5 666,-642.5"/>
<text text-anchor="start" x="673" y="-653.9" font-family="Arial" font-size="14.00" fill="#000000">storeWebSite    </text>
<text text-anchor="start" x="791.2174" y="-653.9" font-family="Arial" font-size="14.00" fill="#666666">[varchar]</text>
<polygon fill="none" stroke="#000000" points="666,-612.5 666,-642.5 963,-642.5 963,-612.5 666,-612.5"/>
<text text-anchor="start" x="673" y="-623.9" font-family="Arial" font-size="14.00" fill="#000000">storeVatNumber    </text>
<text text-anchor="start" x="809.1066" y="-623.9" font-family="Arial" font-size="14.00" fill="#666666">[varchar(32)]</text>
<polygon fill="none" stroke="#000000" points="666,-582.5 666,-612.5 963,-612.5 963,-582.5 666,-582.5"/>
<text text-anchor="start" x="673" y="-593.9" font-family="Arial" font-size="14.00" fill="#000000">storeFSkatt    </text>
<text text-anchor="start" x="778.7742" y="-593.9" font-family="Arial" font-size="14.00" fill="#666666">[boolean]</text>
<polygon fill="none" stroke="#000000" points="666,-552.5 666,-582.5 963,-582.5 963,-552.5 666,-552.5"/>
<text text-anchor="start" x="673" y="-563.9" font-family="Arial" font-size="14.00" fill="#000000">storeStatus    </text>
<text text-anchor="start" x="778.0042" y="-563.9" font-family="Arial" font-size="14.00" fill="#666666">[boolean]</text>
<polygon fill="none" stroke="#000000" points="666,-522.5 666,-552.5 963,-552.5 963,-522.5 666,-522.5"/>
<text text-anchor="start" x="673" y="-533.9" font-family="Arial" font-size="14.00" fill="#000000">storeEmail    </text>
<text text-anchor="start" x="773.3142" y="-533.9" font-family="Arial" font-size="14.00" fill="#666666">[varchar]</text>
<polygon fill="none" stroke="#000000" points="666,-492.5 666,-522.5 963,-522.5 963,-492.5 666,-492.5"/>
<text text-anchor="start" x="673" y="-503.9" font-family="Arial" font-size="14.00" fill="#000000">storePhone    </text>
<text text-anchor="start" x="778.7882" y="-503.9" font-family="Arial" font-size="14.00" fill="#666666">[varchar]</text>
<polygon fill="none" stroke="#000000" points="666,-462.5 666,-492.5 963,-492.5 963,-462.5 666,-462.5"/>
<text text-anchor="start" x="673" y="-473.9" font-family="Arial" font-size="14.00" fill="#000000">storeAddress    </text>
<text text-anchor="start" x="789.6662" y="-473.9" font-family="Arial" font-size="14.00" fill="#666666">[varchar]</text>
<polygon fill="none" stroke="#000000" points="666,-432.5 666,-462.5 963,-462.5 963,-432.5 666,-432.5"/>
<text text-anchor="start" x="673" y="-443.9" font-family="Arial" font-size="14.00" fill="#000000">storeZipCode    </text>
<text text-anchor="start" x="791.2174" y="-443.9" font-family="Arial" font-size="14.00" fill="#666666">[varchar(16)]</text>
<polygon fill="none" stroke="#000000" points="666,-402.5 666,-432.5 963,-432.5 963,-402.5 666,-402.5"/>
<text text-anchor="start" x="673" y="-413.9" font-family="Arial" font-size="14.00" fill="#000000">storeCity    </text>
<text text-anchor="start" x="762.425" y="-413.9" font-family="Arial" font-size="14.00" fill="#666666">[varchar]</text>
<polygon fill="none" stroke="#000000" points="666,-372.5 666,-402.5 963,-402.5 963,-372.5 666,-372.5"/>
<text text-anchor="start" x="673" y="-383.9" font-family="Arial" font-size="14.00" fill="#000000">storeCountry    </text>
<text text-anchor="start" x="787.3268" y="-383.9" font-family="Arial" font-size="14.00" fill="#666666">[varchar]</text>
<polygon fill="none" stroke="#000000" points="666,-342.5 666,-372.5 963,-372.5 963,-342.5 666,-342.5"/>
<text text-anchor="start" x="673" y="-353.9" font-family="Arial" font-size="14.00" fill="#000000">storeDescription    </text>
<text text-anchor="start" x="808.3226" y="-353.9" font-family="Arial" font-size="14.00" fill="#666666">[varchar]</text>
<polygon fill="none" stroke="#000000" points="666,-312.5 666,-342.5 963,-342.5 963,-312.5 666,-312.5"/>
<text text-anchor="start" x="673" y="-323.9" font-family="Arial" font-size="14.00" fill="#000000">storeContactPerson    </text>
<text text-anchor="start" x="830.9018" y="-323.9" font-family="Arial" font-size="14.00" fill="#666666">[varchar(64)]</text>
<polygon fill="none" stroke="#000000" points="666,-282.5 666,-312.5 963,-312.5 963,-282.5 666,-282.5"/>
<text text-anchor="start" x="673" y="-293.9" font-family="Arial" font-size="14.00" fill="#000000">storeMaxUsers    </text>
<text text-anchor="start" x="801.3142" y="-293.9" font-family="Arial" font-size="14.00" fill="#666666">[integer]</text>
<polygon fill="none" stroke="#000000" points="666,-252.5 666,-282.5 963,-282.5 963,-252.5 666,-252.5"/>
<text text-anchor="start" x="673" y="-263.9" font-family="Arial" font-size="14.00" fill="#000000">currency    </text>
<text text-anchor="start" x="760.8738" y="-263.9" font-family="Arial" font-size="14.00" fill="#666666">[varchar]</text>
<polygon fill="none" stroke="#000000" points="666,-222.5 666,-252.5 963,-252.5 963,-222.5 666,-222.5"/>
<text text-anchor="start" x="673" y="-233.9" font-family="Arial" font-size="14.00" fill="#000000">storeAllowCarAPI    </text>
<text text-anchor="start" x="816.8738" y="-233.9" font-family="Arial" font-size="14.00" fill="#666666">[boolean]</text>
<polygon fill="none" stroke="#000000" points="666,-192.5 666,-222.5 963,-222.5 963,-192.5 666,-192.5"/>
<text text-anchor="start" x="673" y="-203.9" font-family="Arial" font-size="14.00" fill="#000000">storeAllowSendSMS    </text>
<text text-anchor="start" x="834.7784" y="-203.9" font-family="Arial" font-size="14.00" fill="#666666">[boolean]</text>
<polygon fill="none" stroke="#000000" points="666,-162.5 666,-192.5 963,-192.5 963,-162.5 666,-162.5"/>
<text text-anchor="start" x="673" y="-173.9" font-family="Arial" font-size="14.00" fill="#000000">storeSendSMS    </text>
<text text-anchor="start" x="801.3394" y="-173.9" font-family="Arial" font-size="14.00" fill="#666666">[boolean]</text>
<polygon fill="none" stroke="#000000" points="666,-132.5 666,-162.5 963,-162.5 963,-132.5 666,-132.5"/>
<text text-anchor="start" x="673" y="-143.9" font-family="Arial" font-size="14.00" fill="#000000">storeUsesCheckin    </text>
<text text-anchor="start" x="820.7714" y="-143.9" font-family="Arial" font-size="14.00" fill="#666666">[boolean]</text>
<polygon fill="none" stroke="#000000" points="666,-102.5 666,-132.5 963,-132.5 963,-102.5 666,-102.5"/>
<text text-anchor="start" x="673" y="-113.9" font-family="Arial" font-size="14.00" fill="#000000">storeUsesPIN    </text>
<text text-anchor="start" x="793.5442" y="-113.9" font-family="Arial" font-size="14.00" fill="#666666">[boolean]</text>
<polygon fill="none" stroke="#000000" points="666,-72.5 666,-102.5 963,-102.5 963,-72.5 666,-72.5"/>
<text text-anchor="start" x="673" y="-83.9" font-family="Arial" font-size="14.00" fill="#000000">createdAt    </text>
<text text-anchor="start" x="767.1136" y="-83.9" font-family="Arial" font-size="14.00" fill="#666666">[timestamp without time zone]</text>
<polygon fill="none" stroke="#000000" points="666,-42.5 666,-72.5 963,-72.5 963,-42.5 666,-42.5"/>
<text text-anchor="start" x="672.9208" y="-53.9" font-family="Arial" font-size="14.00" fill="#000000">updatedAt    </text>
<text text-anchor="start" x="770.939" y="-53.9" font-family="Arial" font-size="14.00" fill="#666666">[timestamp without time zone]</text>
</g>
<!-- public.qualificationsLocal&#45;&gt;public.stores -->
<g id="edge1" class="edge">
<title>public.qualificationsLocal:storeID&#45;&gt;public.stores:storeID</title>
<path fill="none" stroke="#000000" d="M634.8293,-1056.7859C567.2378,-1046.7814 593.9606,-934.1434 645,-877 739.7505,-770.9177 868.2495,-947.0823 963,-841 990.6822,-810.0071 1004.5556,-747.5 963,-747.5"/>
<polygon fill="#000000" stroke="#000000" points="635.0246,-1056.7996 644.6848,-1061.989 640.0123,-1057.1498 645,-1057.5 645,-1057.5 645,-1057.5 640.0123,-1057.1498 645.3152,-1053.011 635.0246,-1056.7996 635.0246,-1056.7996"/>
<text text-anchor="start" x="263.623" y="-1067.5" font-family="Arial" font-size="10.00" fill="#000000">FOREIGN KEY (&quot;storeID&quot;) REFERENCES stores(&quot;storeID&quot;) ON DELETE CASCADE</text>
</g>
<!-- public.employeeLocalQualifications -->
<g id="node3" class="node">
<title>public.employeeLocalQualifications</title>
<polygon fill="#efefef" stroke="transparent" points="67,-1292.5 67,-1327.5 489,-1327.5 489,-1292.5 67,-1292.5"/>
<polygon fill="none" stroke="#000000" points="67,-1292.5 67,-1327.5 489,-1327.5 489,-1292.5 67,-1292.5"/>
<text text-anchor="start" x="73.6891" y="-1305.3" font-family="Arial Bold" font-size="18.00" fill="#000000">public.employeeLocalQualifications</text>
<text text-anchor="start" x="354.7429" y="-1305.3" font-family="Arial" font-size="14.00" fill="#000000">    </text>
<text text-anchor="start" x="388.9477" y="-1305.3" font-family="Arial" font-size="14.00" fill="#666666">[BASE TABLE]</text>
<polygon fill="none" stroke="#000000" points="67,-1262.5 67,-1292.5 489,-1292.5 489,-1262.5 67,-1262.5"/>
<text text-anchor="start" x="74" y="-1273.9" font-family="Arial" font-size="14.00" fill="#000000">employeeID    </text>
<text text-anchor="start" x="182.8822" y="-1273.9" font-family="Arial" font-size="14.00" fill="#666666">[integer]</text>
<polygon fill="none" stroke="#000000" points="67,-1232.5 67,-1262.5 489,-1262.5 489,-1232.5 67,-1232.5"/>
<text text-anchor="start" x="74" y="-1243.9" font-family="Arial" font-size="14.00" fill="#000000">localQualID    </text>
<text text-anchor="start" x="180.5428" y="-1243.9" font-family="Arial" font-size="14.00" fill="#666666">[integer]</text>
</g>
<!-- public.employeeLocalQualifications&#45;&gt;public.qualificationsLocal -->
<g id="edge2" class="edge">
<title>public.employeeLocalQualifications:localQualID&#45;&gt;public.qualificationsLocal:localQualID</title>
<path fill="none" stroke="#000000" d="M498.1063,-1242.905C534.9897,-1211.3123 617.609,-1027.5 645,-1027.5"/>
<polygon fill="#000000" stroke="#000000" points="497.9278,-1242.995 486.9728,-1243.4825 493.4639,-1245.2475 489,-1247.5 489,-1247.5 489,-1247.5 493.4639,-1245.2475 491.0272,-1251.5175 497.9278,-1242.995 497.9278,-1242.995"/>
<text text-anchor="start" x="7.399" y="-1257.5" font-family="Arial" font-size="10.00" fill="#000000">FOREIGN KEY (&quot;localQualID&quot;) REFERENCES &quot;qualificationsLocal&quot;(&quot;localQualID&quot;) ON DELETE CASCADE</text>
</g>
<!-- public.localServiceLocalQualifications -->
<g id="node4" class="node">
<title>public.localServiceLocalQualifications</title>
<polygon fill="#efefef" stroke="transparent" points="594,-1292.5 594,-1327.5 1035,-1327.5 1035,-1292.5 594,-1292.5"/>
<polygon fill="none" stroke="#000000" points="594,-1292.5 594,-1327.5 1035,-1327.5 1035,-1292.5 594,-1292.5"/>
<text text-anchor="start" x="600.6959" y="-1305.3" font-family="Arial Bold" font-size="18.00" fill="#000000">public.localServiceLocalQualifications</text>
<text text-anchor="start" x="900.7361" y="-1305.3" font-family="Arial" font-size="14.00" fill="#000000">    </text>
<text text-anchor="start" x="934.9409" y="-1305.3" font-family="Arial" font-size="14.00" fill="#666666">[BASE TABLE]</text>
<polygon fill="none" stroke="#000000" points="594,-1262.5 594,-1292.5 1035,-1292.5 1035,-1262.5 594,-1262.5"/>
<text text-anchor="start" x="601" y="-1273.9" font-family="Arial" font-size="14.00" fill="#000000">localServiceID    </text>
<text text-anchor="start" x="724.6494" y="-1273.9" font-family="Arial" font-size="14.00" fill="#666666">[integer]</text>
<polygon fill="none" stroke="#000000" points="594,-1232.5 594,-1262.5 1035,-1262.5 1035,-1232.5 594,-1232.5"/>
<text text-anchor="start" x="601" y="-1243.9" font-family="Arial" font-size="14.00" fill="#000000">localQualID    </text>
<text text-anchor="start" x="707.5428" y="-1243.9" font-family="Arial" font-size="14.00" fill="#666666">[integer]</text>
</g>
<!-- public.localServiceLocalQualifications&#45;&gt;public.qualificationsLocal -->
<g id="edge3" class="edge">
<title>public.localServiceLocalQualifications:localQualID&#45;&gt;public.qualificationsLocal:localQualID</title>
<path fill="none" stroke="#000000" d="M814.261,-1222.2139C803.9178,-1155.7084 687.8316,-1220.9557 645,-1154 614.7033,-1106.6392 588.7778,-1027.5 645,-1027.5"/>
<polygon fill="#000000" stroke="#000000" points="814.2833,-1222.5257 810.5116,-1232.8225 814.6416,-1227.5129 815,-1232.5 815,-1232.5 815,-1232.5 814.6416,-1227.5129 819.4884,-1232.1775 814.2833,-1222.5257 814.2833,-1222.5257"/>
<text text-anchor="start" x="538.18" y="-1216.5" font-family="Arial" font-size="10.00" fill="#000000">FOREIGN KEY (&quot;localQualID&quot;) REFERENCES &quot;qualificationsLocal&quot;(&quot;localQualID&quot;)</text>
</g>
<!-- public.serviceLocalQualifications -->
<g id="node5" class="node">
<title>public.serviceLocalQualifications</title>
<polygon fill="#efefef" stroke="transparent" points="1139,-1292.5 1139,-1327.5 1540,-1327.5 1540,-1292.5 1139,-1292.5"/>
<polygon fill="none" stroke="#000000" points="1139,-1292.5 1139,-1327.5 1540,-1327.5 1540,-1292.5 1139,-1292.5"/>
<text text-anchor="start" x="1145.6984" y="-1305.3" font-family="Arial Bold" font-size="18.00" fill="#000000">public.serviceLocalQualifications</text>
<text text-anchor="start" x="1405.7336" y="-1305.3" font-family="Arial" font-size="14.00" fill="#000000">    </text>
<text text-anchor="start" x="1439.9384" y="-1305.3" font-family="Arial" font-size="14.00" fill="#666666">[BASE TABLE]</text>
<polygon fill="none" stroke="#000000" points="1139,-1262.5 1139,-1292.5 1540,-1292.5 1540,-1262.5 1139,-1262.5"/>
<text text-anchor="start" x="1146" y="-1273.9" font-family="Arial" font-size="14.00" fill="#000000">serviceID    </text>
<text text-anchor="start" x="1238.5344" y="-1273.9" font-family="Arial" font-size="14.00" fill="#666666">[integer]</text>
<polygon fill="none" stroke="#000000" points="1139,-1232.5 1139,-1262.5 1540,-1262.5 1540,-1232.5 1139,-1232.5"/>
<text text-anchor="start" x="1146" y="-1243.9" font-family="Arial" font-size="14.00" fill="#000000">localQualID    </text>
<text text-anchor="start" x="1252.5428" y="-1243.9" font-family="Arial" font-size="14.00" fill="#666666">[integer]</text>
</g>
<!-- public.serviceLocalQualifications&#45;&gt;public.qualificationsLocal -->
<g id="edge4" class="edge">
<title>public.serviceLocalQualifications:localQualID&#45;&gt;public.qualificationsLocal:localQualID</title>
<path fill="none" stroke="#000000" d="M1129.9605,-1242.905C1093.4261,-1211.3123 1012.274,-1027.5 985,-1027.5"/>
<polygon fill="#000000" stroke="#000000" points="1130.0856,-1242.9685 1136.9608,-1251.5115 1134.5428,-1245.2343 1139,-1247.5 1139,-1247.5 1139,-1247.5 1134.5428,-1245.2343 1141.0392,-1243.4885 1130.0856,-1242.9685 1130.0856,-1242.9685"/>
<text text-anchor="start" x="767.68" y="-1257.5" font-family="Arial" font-size="10.00" fill="#000000">FOREIGN KEY (&quot;localQualID&quot;) REFERENCES &quot;qualificationsLocal&quot;(&quot;localQualID&quot;)</text>
</g>
</g>
</svg>
