<?xml version="1.0" encoding="UTF-8" standalone="no"?>
<!DOCTYPE svg PUBLIC "-//W3C//DTD SVG 1.1//EN"
 "http://www.w3.org/Graphics/SVG/1.1/DTD/svg11.dtd">
<!-- Generated by graphviz version 2.40.1 (20161225.0304)
 -->
<!-- Title: public.orderLocalServices Pages: 1 -->
<svg width="1694pt" height="1402pt"
 viewBox="0.00 0.00 1693.50 1402.00" xmlns="http://www.w3.org/2000/svg" xmlns:xlink="http://www.w3.org/1999/xlink">
<g id="graph0" class="graph" transform="scale(1 1) rotate(0) translate(4 1398)">
<title>public.orderLocalServices</title>
<polygon fill="#ffffff" stroke="transparent" points="-4,4 -4,-1398 1689.5,-1398 1689.5,4 -4,4"/>
<!-- public.orderLocalServices -->
<g id="node1" class="node">
<title>public.orderLocalServices</title>
<polygon fill="#efefef" stroke="transparent" points="673,-1312.5 673,-1347.5 1020,-1347.5 1020,-1312.5 673,-1312.5"/>
<polygon fill="none" stroke="#000000" points="673,-1312.5 673,-1347.5 1020,-1347.5 1020,-1312.5 673,-1312.5"/>
<text text-anchor="start" x="679.702" y="-1325.3" font-family="Arial Bold" font-size="18.00" fill="#000000">public.orderLocalServices</text>
<text text-anchor="start" x="885.73" y="-1325.3" font-family="Arial" font-size="14.00" fill="#000000">    </text>
<text text-anchor="start" x="919.9348" y="-1325.3" font-family="Arial" font-size="14.00" fill="#666666">[BASE TABLE]</text>
<polygon fill="none" stroke="#000000" points="673,-1282.5 673,-1312.5 1020,-1312.5 1020,-1282.5 673,-1282.5"/>
<text text-anchor="start" x="680" y="-1293.9" font-family="Arial" font-size="14.00" fill="#000000">orderID </text>
<text text-anchor="start" x="730.5568" y="-1293.9" font-family="Arial" font-size="14.00" fill="#666666">[integer]</text>
<polygon fill="none" stroke="#000000" points="673,-1252.5 673,-1282.5 1020,-1282.5 1020,-1252.5 673,-1252.5"/>
<text text-anchor="start" x="680" y="-1263.9" font-family="Arial" font-size="14.00" fill="#000000">localServiceID </text>
<text text-anchor="start" x="773.3352" y="-1263.9" font-family="Arial" font-size="14.00" fill="#666666">[integer]</text>
<polygon fill="none" stroke="#000000" points="673,-1222.5 673,-1252.5 1020,-1252.5 1020,-1222.5 673,-1222.5"/>
<text text-anchor="start" x="680" y="-1233.9" font-family="Arial" font-size="14.00" fill="#000000">serviceVariantID </text>
<text text-anchor="start" x="786.5624" y="-1233.9" font-family="Arial" font-size="14.00" fill="#666666">[integer]</text>
<polygon fill="none" stroke="#000000" points="673,-1192.5 673,-1222.5 1020,-1222.5 1020,-1192.5 673,-1192.5"/>
<text text-anchor="start" x="680" y="-1203.9" font-family="Arial" font-size="14.00" fill="#000000">day1 </text>
<text text-anchor="start" x="714.2384" y="-1203.9" font-family="Arial" font-size="14.00" fill="#666666">[timestamp without time zone]</text>
<polygon fill="none" stroke="#000000" points="673,-1162.5 673,-1192.5 1020,-1192.5 1020,-1162.5 673,-1162.5"/>
<text text-anchor="start" x="680" y="-1173.9" font-family="Arial" font-size="14.00" fill="#000000">day1Work </text>
<text text-anchor="start" x="746.8962" y="-1173.9" font-family="Arial" font-size="14.00" fill="#666666">[interval]</text>
<polygon fill="none" stroke="#000000" points="673,-1132.5 673,-1162.5 1020,-1162.5 1020,-1132.5 673,-1132.5"/>
<text text-anchor="start" x="680" y="-1143.9" font-family="Arial" font-size="14.00" fill="#000000">employeeID </text>
<text text-anchor="start" x="758.568" y="-1143.9" font-family="Arial" font-size="14.00" fill="#666666">[integer]</text>
<polygon fill="none" stroke="#000000" points="673,-1102.5 673,-1132.5 1020,-1132.5 1020,-1102.5 673,-1102.5"/>
<text text-anchor="start" x="680" y="-1113.9" font-family="Arial" font-size="14.00" fill="#000000">day2 </text>
<text text-anchor="start" x="714.2384" y="-1113.9" font-family="Arial" font-size="14.00" fill="#666666">[timestamp without time zone]</text>
<polygon fill="none" stroke="#000000" points="673,-1072.5 673,-1102.5 1020,-1102.5 1020,-1072.5 673,-1072.5"/>
<text text-anchor="start" x="680" y="-1083.9" font-family="Arial" font-size="14.00" fill="#000000">day3 </text>
<text text-anchor="start" x="714.2384" y="-1083.9" font-family="Arial" font-size="14.00" fill="#666666">[timestamp without time zone]</text>
<polygon fill="none" stroke="#000000" points="673,-1042.5 673,-1072.5 1020,-1072.5 1020,-1042.5 673,-1042.5"/>
<text text-anchor="start" x="680" y="-1053.9" font-family="Arial" font-size="14.00" fill="#000000">day4 </text>
<text text-anchor="start" x="714.2384" y="-1053.9" font-family="Arial" font-size="14.00" fill="#666666">[timestamp without time zone]</text>
<polygon fill="none" stroke="#000000" points="673,-1012.5 673,-1042.5 1020,-1042.5 1020,-1012.5 673,-1012.5"/>
<text text-anchor="start" x="680" y="-1023.9" font-family="Arial" font-size="14.00" fill="#000000">day5 </text>
<text text-anchor="start" x="714.2384" y="-1023.9" font-family="Arial" font-size="14.00" fill="#666666">[timestamp without time zone]</text>
<polygon fill="none" stroke="#000000" points="673,-982.5 673,-1012.5 1020,-1012.5 1020,-982.5 673,-982.5"/>
<text text-anchor="start" x="680" y="-993.9" font-family="Arial" font-size="14.00" fill="#000000">cost </text>
<text text-anchor="start" x="709.5638" y="-993.9" font-family="Arial" font-size="14.00" fill="#666666">[real]</text>
<polygon fill="none" stroke="#000000" points="673,-952.5 673,-982.5 1020,-982.5 1020,-952.5 673,-952.5"/>
<text text-anchor="start" x="680" y="-963.9" font-family="Arial" font-size="14.00" fill="#000000">discount </text>
<text text-anchor="start" x="736.0182" y="-963.9" font-family="Arial" font-size="14.00" fill="#666666">[real]</text>
<polygon fill="none" stroke="#000000" points="673,-922.5 673,-952.5 1020,-952.5 1020,-922.5 673,-922.5"/>
<text text-anchor="start" x="680" y="-933.9" font-family="Arial" font-size="14.00" fill="#000000">vatFree </text>
<text text-anchor="start" x="731.3422" y="-933.9" font-family="Arial" font-size="14.00" fill="#666666">[boolean]</text>
<polygon fill="none" stroke="#000000" points="673,-892.5 673,-922.5 1020,-922.5 1020,-892.5 673,-892.5"/>
<text text-anchor="start" x="680" y="-903.9" font-family="Arial" font-size="14.00" fill="#000000">orderNotes </text>
<text text-anchor="start" x="753.122" y="-903.9" font-family="Arial" font-size="14.00" fill="#666666">[varchar]</text>
<polygon fill="none" stroke="#000000" points="673,-862.5 673,-892.5 1020,-892.5 1020,-862.5 673,-862.5"/>
<text text-anchor="start" x="680" y="-873.9" font-family="Arial" font-size="14.00" fill="#000000">amount </text>
<text text-anchor="start" x="730.5722" y="-873.9" font-family="Arial" font-size="14.00" fill="#666666">[integer]</text>
<polygon fill="none" stroke="#000000" stroke-width="3" points="671,-861.5 671,-1349.5 1021,-1349.5 1021,-861.5 671,-861.5"/>
</g>
<!-- public.orders -->
<g id="node2" class="node">
<title>public.orders</title>
<polygon fill="#efefef" stroke="transparent" points="43,-567.5 43,-602.5 377,-602.5 377,-567.5 43,-567.5"/>
<polygon fill="none" stroke="#000000" points="43,-567.5 43,-602.5 377,-602.5 377,-567.5 43,-567.5"/>
<text text-anchor="start" x="94.7099" y="-580.3" font-family="Arial Bold" font-size="18.00" fill="#000000">public.orders</text>
<text text-anchor="start" x="197.7221" y="-580.3" font-family="Arial" font-size="14.00" fill="#000000">    </text>
<text text-anchor="start" x="231.9269" y="-580.3" font-family="Arial" font-size="14.00" fill="#666666">[BASE TABLE]</text>
<polygon fill="none" stroke="#000000" points="43,-537.5 43,-567.5 377,-567.5 377,-537.5 43,-537.5"/>
<text text-anchor="start" x="50" y="-548.9" font-family="Arial" font-size="14.00" fill="#000000">orderID    </text>
<text text-anchor="start" x="130.871" y="-548.9" font-family="Arial" font-size="14.00" fill="#666666">[integer]</text>
<polygon fill="none" stroke="#000000" points="43,-507.5 43,-537.5 377,-537.5 377,-507.5 43,-507.5"/>
<text text-anchor="start" x="50" y="-518.9" font-family="Arial" font-size="14.00" fill="#000000">driverCarID    </text>
<text text-anchor="start" x="155.7448" y="-518.9" font-family="Arial" font-size="14.00" fill="#666666">[integer]</text>
<polygon fill="none" stroke="#000000" points="43,-477.5 43,-507.5 377,-507.5 377,-477.5 43,-477.5"/>
<text text-anchor="start" x="50" y="-488.9" font-family="Arial" font-size="14.00" fill="#000000">driverID    </text>
<text text-anchor="start" x="133.195" y="-488.9" font-family="Arial" font-size="14.00" fill="#666666">[integer]</text>
<polygon fill="none" stroke="#000000" points="43,-447.5 43,-477.5 377,-477.5 377,-447.5 43,-447.5"/>
<text text-anchor="start" x="50" y="-458.9" font-family="Arial" font-size="14.00" fill="#000000">storeID    </text>
<text text-anchor="start" x="129.3184" y="-458.9" font-family="Arial" font-size="14.00" fill="#666666">[integer]</text>
<polygon fill="none" stroke="#000000" points="43,-417.5 43,-447.5 377,-447.5 377,-417.5 43,-417.5"/>
<text text-anchor="start" x="50" y="-428.9" font-family="Arial" font-size="14.00" fill="#000000">orderNotes    </text>
<text text-anchor="start" x="153.4362" y="-428.9" font-family="Arial" font-size="14.00" fill="#666666">[varchar]</text>
<polygon fill="none" stroke="#000000" points="43,-387.5 43,-417.5 377,-417.5 377,-387.5 43,-387.5"/>
<text text-anchor="start" x="50" y="-398.9" font-family="Arial" font-size="14.00" fill="#000000">employeeID    </text>
<text text-anchor="start" x="158.8822" y="-398.9" font-family="Arial" font-size="14.00" fill="#666666">[integer]</text>
<polygon fill="none" stroke="#000000" points="43,-357.5 43,-387.5 377,-387.5 377,-357.5 43,-357.5"/>
<text text-anchor="start" x="49.7742" y="-368.9" font-family="Arial" font-size="14.00" fill="#000000">submissionTime    </text>
<text text-anchor="start" x="185.0856" y="-368.9" font-family="Arial" font-size="14.00" fill="#666666">[timestamp without time zone]</text>
<polygon fill="none" stroke="#000000" points="43,-327.5 43,-357.5 377,-357.5 377,-327.5 43,-327.5"/>
<text text-anchor="start" x="50" y="-338.9" font-family="Arial" font-size="14.00" fill="#000000">vatFree    </text>
<text text-anchor="start" x="131.6564" y="-338.9" font-family="Arial" font-size="14.00" fill="#666666">[boolean]</text>
<polygon fill="none" stroke="#000000" points="43,-297.5 43,-327.5 377,-327.5 377,-297.5 43,-297.5"/>
<text text-anchor="start" x="50" y="-308.9" font-family="Arial" font-size="14.00" fill="#000000">orderStatus    </text>
<text text-anchor="start" x="156.5568" y="-308.9" font-family="Arial" font-size="14.00" fill="#666666">[&quot;orderStatus&quot;]</text>
<polygon fill="none" stroke="#000000" points="43,-267.5 43,-297.5 377,-297.5 377,-267.5 43,-267.5"/>
<text text-anchor="start" x="50" y="-278.9" font-family="Arial" font-size="14.00" fill="#000000">currency    </text>
<text text-anchor="start" x="137.8738" y="-278.9" font-family="Arial" font-size="14.00" fill="#666666">[varchar(5)]</text>
<polygon fill="none" stroke="#000000" points="43,-237.5 43,-267.5 377,-267.5 377,-237.5 43,-237.5"/>
<text text-anchor="start" x="50" y="-248.9" font-family="Arial" font-size="14.00" fill="#000000">discount    </text>
<text text-anchor="start" x="136.3324" y="-248.9" font-family="Arial" font-size="14.00" fill="#666666">[real]</text>
<polygon fill="none" stroke="#000000" points="43,-207.5 43,-237.5 377,-237.5 377,-207.5 43,-207.5"/>
<text text-anchor="start" x="50" y="-218.9" font-family="Arial" font-size="14.00" fill="#000000">createdAt    </text>
<text text-anchor="start" x="144.1136" y="-218.9" font-family="Arial" font-size="14.00" fill="#666666">[timestamp without time zone]</text>
<polygon fill="none" stroke="#000000" points="43,-177.5 43,-207.5 377,-207.5 377,-177.5 43,-177.5"/>
<text text-anchor="start" x="50" y="-188.9" font-family="Arial" font-size="14.00" fill="#000000">updatedAt    </text>
<text text-anchor="start" x="148.0182" y="-188.9" font-family="Arial" font-size="14.00" fill="#666666">[timestamp without time zone]</text>
</g>
<!-- public.orderLocalServices&#45;&gt;public.orders -->
<g id="edge1" class="edge">
<title>public.orderLocalServices:orderID&#45;&gt;public.orders:orderID</title>
<path fill="none" stroke="#000000" d="M662.7799,-1297.3457C421.6219,-1289.9455 510.7469,-1017.6917 429,-781 411.9997,-731.777 429.076,-552.5 377,-552.5"/>
<polygon fill="#000000" stroke="#000000" points="663.0011,-1297.349 672.932,-1301.9995 668.0006,-1297.4245 673,-1297.5 673,-1297.5 673,-1297.5 668.0006,-1297.4245 673.068,-1293.0005 663.0011,-1297.349 663.0011,-1297.349"/>
<text text-anchor="start" x="287.9595" y="-1307.5" font-family="Arial" font-size="10.00" fill="#000000">FOREIGN KEY (&quot;orderID&quot;) REFERENCES orders(&quot;orderID&quot;) ON DELETE CASCADE</text>
</g>
<!-- public.localServices -->
<g id="node3" class="node">
<title>public.localServices</title>
<polygon fill="#efefef" stroke="transparent" points="482,-702.5 482,-737.5 781,-737.5 781,-702.5 482,-702.5"/>
<polygon fill="none" stroke="#000000" points="482,-702.5 482,-737.5 781,-737.5 781,-702.5 482,-702.5"/>
<text text-anchor="start" x="488.7095" y="-715.3" font-family="Arial Bold" font-size="18.00" fill="#000000">public.localServices</text>
<text text-anchor="start" x="646.7225" y="-715.3" font-family="Arial" font-size="14.00" fill="#000000">    </text>
<text text-anchor="start" x="680.9273" y="-715.3" font-family="Arial" font-size="14.00" fill="#666666">[BASE TABLE]</text>
<polygon fill="none" stroke="#000000" points="482,-672.5 482,-702.5 781,-702.5 781,-672.5 482,-672.5"/>
<text text-anchor="start" x="489" y="-683.9" font-family="Arial" font-size="14.00" fill="#000000">localServiceID    </text>
<text text-anchor="start" x="612.6494" y="-683.9" font-family="Arial" font-size="14.00" fill="#666666">[integer]</text>
<polygon fill="none" stroke="#000000" points="482,-642.5 482,-672.5 781,-672.5 781,-642.5 482,-642.5"/>
<text text-anchor="start" x="489" y="-653.9" font-family="Arial" font-size="14.00" fill="#000000">serviceCategoryID    </text>
<text text-anchor="start" x="638.3226" y="-653.9" font-family="Arial" font-size="14.00" fill="#666666">[integer]</text>
<polygon fill="none" stroke="#000000" points="482,-612.5 482,-642.5 781,-642.5 781,-612.5 482,-612.5"/>
<text text-anchor="start" x="489" y="-623.9" font-family="Arial" font-size="14.00" fill="#000000">name    </text>
<text text-anchor="start" x="558.2132" y="-623.9" font-family="Arial" font-size="14.00" fill="#666666">[varchar(256)]</text>
<polygon fill="none" stroke="#000000" points="482,-582.5 482,-612.5 781,-612.5 781,-582.5 482,-582.5"/>
<text text-anchor="start" x="489" y="-593.9" font-family="Arial" font-size="14.00" fill="#000000">storeID    </text>
<text text-anchor="start" x="568.3184" y="-593.9" font-family="Arial" font-size="14.00" fill="#666666">[integer]</text>
<polygon fill="none" stroke="#000000" points="482,-552.5 482,-582.5 781,-582.5 781,-552.5 482,-552.5"/>
<text text-anchor="start" x="489" y="-563.9" font-family="Arial" font-size="14.00" fill="#000000">currency    </text>
<text text-anchor="start" x="576.8738" y="-563.9" font-family="Arial" font-size="14.00" fill="#666666">[varchar(5)]</text>
<polygon fill="none" stroke="#000000" points="482,-522.5 482,-552.5 781,-552.5 781,-522.5 482,-522.5"/>
<text text-anchor="start" x="489" y="-533.9" font-family="Arial" font-size="14.00" fill="#000000">cost    </text>
<text text-anchor="start" x="548.878" y="-533.9" font-family="Arial" font-size="14.00" fill="#666666">[real]</text>
<polygon fill="none" stroke="#000000" points="482,-492.5 482,-522.5 781,-522.5 781,-492.5 482,-492.5"/>
<text text-anchor="start" x="489" y="-503.9" font-family="Arial" font-size="14.00" fill="#000000">includeInAutomaticSms    </text>
<text text-anchor="start" x="669.4516" y="-503.9" font-family="Arial" font-size="14.00" fill="#666666">[boolean]</text>
<polygon fill="none" stroke="#000000" points="482,-462.5 482,-492.5 781,-492.5 781,-462.5 482,-462.5"/>
<text text-anchor="start" x="489" y="-473.9" font-family="Arial" font-size="14.00" fill="#000000">hidden    </text>
<text text-anchor="start" x="565.2244" y="-473.9" font-family="Arial" font-size="14.00" fill="#666666">[boolean]</text>
<polygon fill="none" stroke="#000000" points="482,-432.5 482,-462.5 781,-462.5 781,-432.5 482,-432.5"/>
<text text-anchor="start" x="489" y="-443.9" font-family="Arial" font-size="14.00" fill="#000000">callInterval    </text>
<text text-anchor="start" x="590.0968" y="-443.9" font-family="Arial" font-size="14.00" fill="#666666">[integer]</text>
<polygon fill="none" stroke="#000000" points="482,-402.5 482,-432.5 781,-432.5 781,-402.5 482,-402.5"/>
<text text-anchor="start" x="489" y="-413.9" font-family="Arial" font-size="14.00" fill="#000000">colorForService    </text>
<text text-anchor="start" x="621.202" y="-413.9" font-family="Arial" font-size="14.00" fill="#666666">[varchar]</text>
<polygon fill="none" stroke="#000000" points="482,-372.5 482,-402.5 781,-402.5 781,-372.5 482,-372.5"/>
<text text-anchor="start" x="489" y="-383.9" font-family="Arial" font-size="14.00" fill="#000000">warrantyCard    </text>
<text text-anchor="start" x="607.2034" y="-383.9" font-family="Arial" font-size="14.00" fill="#666666">[boolean]</text>
<polygon fill="none" stroke="#000000" points="482,-342.5 482,-372.5 781,-372.5 781,-342.5 482,-342.5"/>
<text text-anchor="start" x="489" y="-353.9" font-family="Arial" font-size="14.00" fill="#000000">itemNumber    </text>
<text text-anchor="start" x="599.4208" y="-353.9" font-family="Arial" font-size="14.00" fill="#666666">[varchar(256)]</text>
<polygon fill="none" stroke="#000000" points="482,-312.5 482,-342.5 781,-342.5 781,-312.5 482,-312.5"/>
<text text-anchor="start" x="489" y="-323.9" font-family="Arial" font-size="14.00" fill="#000000">award    </text>
<text text-anchor="start" x="561.3198" y="-323.9" font-family="Arial" font-size="14.00" fill="#666666">[real]</text>
<polygon fill="none" stroke="#000000" points="482,-282.5 482,-312.5 781,-312.5 781,-282.5 482,-282.5"/>
<text text-anchor="start" x="489" y="-293.9" font-family="Arial" font-size="14.00" fill="#000000">suppliersArticleNumber    </text>
<text text-anchor="start" x="667.8682" y="-293.9" font-family="Arial" font-size="14.00" fill="#666666">[varchar(256)]</text>
<polygon fill="none" stroke="#000000" points="482,-252.5 482,-282.5 781,-282.5 781,-252.5 482,-252.5"/>
<text text-anchor="start" x="489" y="-263.9" font-family="Arial" font-size="14.00" fill="#000000">externalArticleNumber    </text>
<text text-anchor="start" x="661.6522" y="-263.9" font-family="Arial" font-size="14.00" fill="#666666">[varchar(256)]</text>
<polygon fill="none" stroke="#000000" points="482,-222.5 482,-252.5 781,-252.5 781,-222.5 482,-222.5"/>
<text text-anchor="start" x="489" y="-233.9" font-family="Arial" font-size="14.00" fill="#000000">day1    </text>
<text text-anchor="start" x="553.5526" y="-233.9" font-family="Arial" font-size="14.00" fill="#666666">[time without time zone]</text>
<polygon fill="none" stroke="#000000" points="482,-192.5 482,-222.5 781,-222.5 781,-192.5 482,-192.5"/>
<text text-anchor="start" x="489" y="-203.9" font-family="Arial" font-size="14.00" fill="#000000">day2    </text>
<text text-anchor="start" x="553.5526" y="-203.9" font-family="Arial" font-size="14.00" fill="#666666">[time without time zone]</text>
<polygon fill="none" stroke="#000000" points="482,-162.5 482,-192.5 781,-192.5 781,-162.5 482,-162.5"/>
<text text-anchor="start" x="489" y="-173.9" font-family="Arial" font-size="14.00" fill="#000000">day3    </text>
<text text-anchor="start" x="553.5526" y="-173.9" font-family="Arial" font-size="14.00" fill="#666666">[time without time zone]</text>
<polygon fill="none" stroke="#000000" points="482,-132.5 482,-162.5 781,-162.5 781,-132.5 482,-132.5"/>
<text text-anchor="start" x="489" y="-143.9" font-family="Arial" font-size="14.00" fill="#000000">day4    </text>
<text text-anchor="start" x="553.5526" y="-143.9" font-family="Arial" font-size="14.00" fill="#666666">[time without time zone]</text>
<polygon fill="none" stroke="#000000" points="482,-102.5 482,-132.5 781,-132.5 781,-102.5 482,-102.5"/>
<text text-anchor="start" x="489" y="-113.9" font-family="Arial" font-size="14.00" fill="#000000">day5    </text>
<text text-anchor="start" x="553.5526" y="-113.9" font-family="Arial" font-size="14.00" fill="#666666">[time without time zone]</text>
<polygon fill="none" stroke="#000000" points="482,-72.5 482,-102.5 781,-102.5 781,-72.5 482,-72.5"/>
<text text-anchor="start" x="489" y="-83.9" font-family="Arial" font-size="14.00" fill="#000000">createdAt    </text>
<text text-anchor="start" x="583.1136" y="-83.9" font-family="Arial" font-size="14.00" fill="#666666">[timestamp without time zone]</text>
<polygon fill="none" stroke="#000000" points="482,-42.5 482,-72.5 781,-72.5 781,-42.5 482,-42.5"/>
<text text-anchor="start" x="489" y="-53.9" font-family="Arial" font-size="14.00" fill="#000000">updatedAt    </text>
<text text-anchor="start" x="587.0182" y="-53.9" font-family="Arial" font-size="14.00" fill="#666666">[timestamp without time zone]</text>
</g>
<!-- public.orderLocalServices&#45;&gt;public.localServices -->
<g id="edge2" class="edge">
<title>public.orderLocalServices:localServiceID&#45;&gt;public.localServices:localServiceID</title>
<path fill="none" stroke="#000000" d="M662.9817,-1267.2497C475.6297,-1257.6905 557.9287,-976.6528 673,-817 702.5843,-775.954 751.4157,-822.046 781,-781 805.298,-747.2884 822.5556,-687.5 781,-687.5"/>
<polygon fill="#000000" stroke="#000000" points="663.0031,-1267.2501 672.8875,-1271.9986 668.0016,-1267.375 673,-1267.5 673,-1267.5 673,-1267.5 668.0016,-1267.375 673.1125,-1263.0014 663.0031,-1267.2501 663.0031,-1267.2501"/>
<text text-anchor="start" x="189.5765" y="-1277.5" font-family="Arial" font-size="10.00" fill="#000000">FOREIGN KEY (&quot;localServiceID&quot;) REFERENCES &quot;localServices&quot;(&quot;localServiceID&quot;) ON DELETE CASCADE</text>
</g>
<!-- public.localServiceVariants -->
<g id="node4" class="node">
<title>public.localServiceVariants</title>
<polygon fill="#efefef" stroke="transparent" points="885,-567.5 885,-602.5 1241,-602.5 1241,-567.5 885,-567.5"/>
<polygon fill="none" stroke="#000000" points="885,-567.5 885,-602.5 1241,-602.5 1241,-567.5 885,-567.5"/>
<text text-anchor="start" x="891.7038" y="-580.3" font-family="Arial Bold" font-size="18.00" fill="#000000">public.localServiceVariants</text>
<text text-anchor="start" x="1106.7282" y="-580.3" font-family="Arial" font-size="14.00" fill="#000000">    </text>
<text text-anchor="start" x="1140.933" y="-580.3" font-family="Arial" font-size="14.00" fill="#666666">[BASE TABLE]</text>
<polygon fill="none" stroke="#000000" points="885,-537.5 885,-567.5 1241,-567.5 1241,-537.5 885,-537.5"/>
<text text-anchor="start" x="892" y="-548.9" font-family="Arial" font-size="14.00" fill="#000000">serviceVariantID    </text>
<text text-anchor="start" x="1028.8766" y="-548.9" font-family="Arial" font-size="14.00" fill="#666666">[integer]</text>
<polygon fill="none" stroke="#000000" points="885,-507.5 885,-537.5 1241,-537.5 1241,-507.5 885,-507.5"/>
<text text-anchor="start" x="892" y="-518.9" font-family="Arial" font-size="14.00" fill="#000000">name    </text>
<text text-anchor="start" x="961.2132" y="-518.9" font-family="Arial" font-size="14.00" fill="#666666">[varchar(256)]</text>
<polygon fill="none" stroke="#000000" points="885,-477.5 885,-507.5 1241,-507.5 1241,-477.5 885,-477.5"/>
<text text-anchor="start" x="892" y="-488.9" font-family="Arial" font-size="14.00" fill="#000000">currency    </text>
<text text-anchor="start" x="979.8738" y="-488.9" font-family="Arial" font-size="14.00" fill="#666666">[varchar(5)]</text>
<polygon fill="none" stroke="#000000" points="885,-447.5 885,-477.5 1241,-477.5 1241,-447.5 885,-447.5"/>
<text text-anchor="start" x="892" y="-458.9" font-family="Arial" font-size="14.00" fill="#000000">cost    </text>
<text text-anchor="start" x="951.878" y="-458.9" font-family="Arial" font-size="14.00" fill="#666666">[real]</text>
<polygon fill="none" stroke="#000000" points="885,-417.5 885,-447.5 1241,-447.5 1241,-417.5 885,-417.5"/>
<text text-anchor="start" x="892" y="-428.9" font-family="Arial" font-size="14.00" fill="#000000">award    </text>
<text text-anchor="start" x="964.3198" y="-428.9" font-family="Arial" font-size="14.00" fill="#666666">[real]</text>
<polygon fill="none" stroke="#000000" points="885,-387.5 885,-417.5 1241,-417.5 1241,-387.5 885,-387.5"/>
<text text-anchor="start" x="892" y="-398.9" font-family="Arial" font-size="14.00" fill="#000000">day1    </text>
<text text-anchor="start" x="956.5526" y="-398.9" font-family="Arial" font-size="14.00" fill="#666666">[time without time zone]</text>
<polygon fill="none" stroke="#000000" points="885,-357.5 885,-387.5 1241,-387.5 1241,-357.5 885,-357.5"/>
<text text-anchor="start" x="892" y="-368.9" font-family="Arial" font-size="14.00" fill="#000000">day2    </text>
<text text-anchor="start" x="956.5526" y="-368.9" font-family="Arial" font-size="14.00" fill="#666666">[time without time zone]</text>
<polygon fill="none" stroke="#000000" points="885,-327.5 885,-357.5 1241,-357.5 1241,-327.5 885,-327.5"/>
<text text-anchor="start" x="892" y="-338.9" font-family="Arial" font-size="14.00" fill="#000000">day3    </text>
<text text-anchor="start" x="956.5526" y="-338.9" font-family="Arial" font-size="14.00" fill="#666666">[time without time zone]</text>
<polygon fill="none" stroke="#000000" points="885,-297.5 885,-327.5 1241,-327.5 1241,-297.5 885,-297.5"/>
<text text-anchor="start" x="892" y="-308.9" font-family="Arial" font-size="14.00" fill="#000000">day4    </text>
<text text-anchor="start" x="956.5526" y="-308.9" font-family="Arial" font-size="14.00" fill="#666666">[time without time zone]</text>
<polygon fill="none" stroke="#000000" points="885,-267.5 885,-297.5 1241,-297.5 1241,-267.5 885,-267.5"/>
<text text-anchor="start" x="892" y="-278.9" font-family="Arial" font-size="14.00" fill="#000000">day5    </text>
<text text-anchor="start" x="956.5526" y="-278.9" font-family="Arial" font-size="14.00" fill="#666666">[time without time zone]</text>
<polygon fill="none" stroke="#000000" points="885,-237.5 885,-267.5 1241,-267.5 1241,-237.5 885,-237.5"/>
<text text-anchor="start" x="892" y="-248.9" font-family="Arial" font-size="14.00" fill="#000000">localServiceID    </text>
<text text-anchor="start" x="1015.6494" y="-248.9" font-family="Arial" font-size="14.00" fill="#666666">[integer]</text>
<polygon fill="none" stroke="#000000" points="885,-207.5 885,-237.5 1241,-237.5 1241,-207.5 885,-207.5"/>
<text text-anchor="start" x="892" y="-218.9" font-family="Arial" font-size="14.00" fill="#000000">createdAt    </text>
<text text-anchor="start" x="986.1136" y="-218.9" font-family="Arial" font-size="14.00" fill="#666666">[timestamp without time zone]</text>
<polygon fill="none" stroke="#000000" points="885,-177.5 885,-207.5 1241,-207.5 1241,-177.5 885,-177.5"/>
<text text-anchor="start" x="892" y="-188.9" font-family="Arial" font-size="14.00" fill="#000000">updatedAt    </text>
<text text-anchor="start" x="990.0182" y="-188.9" font-family="Arial" font-size="14.00" fill="#666666">[timestamp without time zone]</text>
</g>
<!-- public.orderLocalServices&#45;&gt;public.localServiceVariants -->
<g id="edge3" class="edge">
<title>public.orderLocalServices:serviceVariantID&#45;&gt;public.localServiceVariants:serviceVariantID</title>
<path fill="none" stroke="#000000" d="M1030.0827,-1237.25C1202.2502,-1228.4705 1080.1551,-990.2764 1020,-817 988.2436,-725.5258 916.7564,-737.4742 885,-646 871.3714,-606.7428 843.4444,-552.5 885,-552.5"/>
<polygon fill="#000000" stroke="#000000" points="1029.9969,-1237.2521 1019.8884,-1233.0014 1024.9985,-1237.376 1020,-1237.5 1020,-1237.5 1020,-1237.5 1024.9985,-1237.376 1020.1116,-1241.9986 1029.9969,-1237.2521 1029.9969,-1237.2521"/>
<text text-anchor="start" x="1027.292" y="-1247.5" font-family="Arial" font-size="10.00" fill="#000000">FOREIGN KEY (&quot;serviceVariantID&quot;) REFERENCES &quot;localServiceVariants&quot;(&quot;serviceVariantID&quot;) ON DELETE CASCADE</text>
</g>
<!-- public.employees -->
<g id="node5" class="node">
<title>public.employees</title>
<polygon fill="#efefef" stroke="transparent" points="1346,-567.5 1346,-602.5 1643,-602.5 1643,-567.5 1346,-567.5"/>
<polygon fill="none" stroke="#000000" points="1346,-567.5 1346,-602.5 1643,-602.5 1643,-567.5 1346,-567.5"/>
<text text-anchor="start" x="1361.2027" y="-580.3" font-family="Arial Bold" font-size="18.00" fill="#000000">public.employees</text>
<text text-anchor="start" x="1500.2293" y="-580.3" font-family="Arial" font-size="14.00" fill="#000000">    </text>
<text text-anchor="start" x="1534.4341" y="-580.3" font-family="Arial" font-size="14.00" fill="#666666">[BASE TABLE]</text>
<polygon fill="none" stroke="#000000" points="1346,-537.5 1346,-567.5 1643,-567.5 1643,-537.5 1346,-537.5"/>
<text text-anchor="start" x="1353" y="-548.9" font-family="Arial" font-size="14.00" fill="#000000">userID    </text>
<text text-anchor="start" x="1428.4278" y="-548.9" font-family="Arial" font-size="14.00" fill="#666666">[integer]</text>
<polygon fill="none" stroke="#000000" points="1346,-507.5 1346,-537.5 1643,-537.5 1643,-507.5 1346,-507.5"/>
<text text-anchor="start" x="1353" y="-518.9" font-family="Arial" font-size="14.00" fill="#000000">employeeID    </text>
<text text-anchor="start" x="1461.8822" y="-518.9" font-family="Arial" font-size="14.00" fill="#666666">[integer]</text>
<polygon fill="none" stroke="#000000" points="1346,-477.5 1346,-507.5 1643,-507.5 1643,-477.5 1346,-477.5"/>
<text text-anchor="start" x="1353" y="-488.9" font-family="Arial" font-size="14.00" fill="#000000">shortUserName    </text>
<text text-anchor="start" x="1485.2034" y="-488.9" font-family="Arial" font-size="14.00" fill="#666666">[varchar(16)]</text>
<polygon fill="none" stroke="#000000" points="1346,-447.5 1346,-477.5 1643,-477.5 1643,-447.5 1346,-447.5"/>
<text text-anchor="start" x="1353" y="-458.9" font-family="Arial" font-size="14.00" fill="#000000">employmentNumber    </text>
<text text-anchor="start" x="1513.2118" y="-458.9" font-family="Arial" font-size="14.00" fill="#666666">[varchar(128)]</text>
<polygon fill="none" stroke="#000000" points="1346,-417.5 1346,-447.5 1643,-447.5 1643,-417.5 1346,-417.5"/>
<text text-anchor="start" x="1353" y="-428.9" font-family="Arial" font-size="14.00" fill="#000000">employeePersonalNumber    </text>
<text text-anchor="start" x="1552.8948" y="-428.9" font-family="Arial" font-size="14.00" fill="#666666">[varchar(16)]</text>
<polygon fill="none" stroke="#000000" points="1346,-387.5 1346,-417.5 1643,-417.5 1643,-387.5 1346,-387.5"/>
<text text-anchor="start" x="1353" y="-398.9" font-family="Arial" font-size="14.00" fill="#000000">signature    </text>
<text text-anchor="start" x="1444.7756" y="-398.9" font-family="Arial" font-size="14.00" fill="#666666">[varchar(4)]</text>
<polygon fill="none" stroke="#000000" points="1346,-357.5 1346,-387.5 1643,-387.5 1643,-357.5 1346,-357.5"/>
<text text-anchor="start" x="1353" y="-368.9" font-family="Arial" font-size="14.00" fill="#000000">employeeHourlyRate    </text>
<text text-anchor="start" x="1517.8864" y="-368.9" font-family="Arial" font-size="14.00" fill="#666666">[real]</text>
<polygon fill="none" stroke="#000000" points="1346,-327.5 1346,-357.5 1643,-357.5 1643,-327.5 1346,-327.5"/>
<text text-anchor="start" x="1353" y="-338.9" font-family="Arial" font-size="14.00" fill="#000000">employeeHourlyRateCurrency    </text>
<text text-anchor="start" x="1574.662" y="-338.9" font-family="Arial" font-size="14.00" fill="#666666">[varchar]</text>
<polygon fill="none" stroke="#000000" points="1346,-297.5 1346,-327.5 1643,-327.5 1643,-297.5 1346,-297.5"/>
<text text-anchor="start" x="1353" y="-308.9" font-family="Arial" font-size="14.00" fill="#000000">employeePin    </text>
<text text-anchor="start" x="1468.1108" y="-308.9" font-family="Arial" font-size="14.00" fill="#666666">[varchar(4)]</text>
<polygon fill="none" stroke="#000000" points="1346,-267.5 1346,-297.5 1643,-297.5 1643,-267.5 1346,-267.5"/>
<text text-anchor="start" x="1353" y="-278.9" font-family="Arial" font-size="14.00" fill="#000000">employeeComment    </text>
<text text-anchor="start" x="1508.5512" y="-278.9" font-family="Arial" font-size="14.00" fill="#666666">[varchar]</text>
<polygon fill="none" stroke="#000000" points="1346,-237.5 1346,-267.5 1643,-267.5 1643,-237.5 1346,-237.5"/>
<text text-anchor="start" x="1353" y="-248.9" font-family="Arial" font-size="14.00" fill="#000000">employeeActive    </text>
<text text-anchor="start" x="1486.0014" y="-248.9" font-family="Arial" font-size="14.00" fill="#666666">[boolean]</text>
<polygon fill="none" stroke="#000000" points="1346,-207.5 1346,-237.5 1643,-237.5 1643,-207.5 1346,-207.5"/>
<text text-anchor="start" x="1353" y="-218.9" font-family="Arial" font-size="14.00" fill="#000000">createdAt    </text>
<text text-anchor="start" x="1447.1136" y="-218.9" font-family="Arial" font-size="14.00" fill="#666666">[timestamp without time zone]</text>
<polygon fill="none" stroke="#000000" points="1346,-177.5 1346,-207.5 1643,-207.5 1643,-177.5 1346,-177.5"/>
<text text-anchor="start" x="1352.9208" y="-188.9" font-family="Arial" font-size="14.00" fill="#000000">updatedAt    </text>
<text text-anchor="start" x="1450.939" y="-188.9" font-family="Arial" font-size="14.00" fill="#666666">[timestamp without time zone]</text>
</g>
<!-- public.orderLocalServices&#45;&gt;public.employees -->
<g id="edge4" class="edge">
<title>public.orderLocalServices:employeeID&#45;&gt;public.employees:employeeID</title>
<path fill="none" stroke="#000000" d="M1030.2255,-1147.3422C1222.6905,-1141.3074 1211.3715,-963.1904 1293,-781 1316.9763,-727.4863 1287.3606,-522.5 1346,-522.5"/>
<polygon fill="#000000" stroke="#000000" points="1029.9988,-1147.3456 1019.9305,-1143.0005 1024.9994,-1147.4228 1020,-1147.5 1020,-1147.5 1020,-1147.5 1024.9994,-1147.4228 1020.0695,-1151.9995 1029.9988,-1147.3456 1029.9988,-1147.3456"/>
<text text-anchor="start" x="1027.223" y="-1157.5" font-family="Arial" font-size="10.00" fill="#000000">FOREIGN KEY (&quot;employeeID&quot;) REFERENCES employees(&quot;employeeID&quot;) ON DELETE SET NULL</text>
</g>
</g>
</svg>
