<?xml version="1.0" encoding="UTF-8" standalone="no"?>
<!DOCTYPE svg PUBLIC "-//W3C//DTD SVG 1.1//EN"
 "http://www.w3.org/Graphics/SVG/1.1/DTD/svg11.dtd">
<!-- Generated by graphviz version 2.40.1 (20161225.0304)
 -->
<!-- Title: public.qualificationsGlobal Pages: 1 -->
<svg width="1573pt" height="472pt"
 viewBox="0.00 0.00 1573.00 472.00" xmlns="http://www.w3.org/2000/svg" xmlns:xlink="http://www.w3.org/1999/xlink">
<g id="graph0" class="graph" transform="scale(1 1) rotate(0) translate(4 468)">
<title>public.qualificationsGlobal</title>
<polygon fill="#ffffff" stroke="transparent" points="-4,4 -4,-468 1569,-468 1569,4 -4,4"/>
<!-- public.qualificationsGlobal -->
<g id="node1" class="node">
<title>public.qualificationsGlobal</title>
<polygon fill="#efefef" stroke="transparent" points="660,-165.5 660,-200.5 1009,-200.5 1009,-165.5 660,-165.5"/>
<polygon fill="none" stroke="#000000" points="660,-165.5 660,-200.5 1009,-200.5 1009,-165.5 660,-165.5"/>
<text text-anchor="start" x="666.6976" y="-178.3" font-family="Arial Bold" font-size="18.00" fill="#000000">public.qualificationsGlobal</text>
<text text-anchor="start" x="874.7344" y="-178.3" font-family="Arial" font-size="14.00" fill="#000000">    </text>
<text text-anchor="start" x="908.9392" y="-178.3" font-family="Arial" font-size="14.00" fill="#666666">[BASE TABLE]</text>
<polygon fill="none" stroke="#000000" points="660,-135.5 660,-165.5 1009,-165.5 1009,-135.5 660,-135.5"/>
<text text-anchor="start" x="667" y="-146.9" font-family="Arial" font-size="14.00" fill="#000000">globalQualID </text>
<text text-anchor="start" x="751.7938" y="-146.9" font-family="Arial" font-size="14.00" fill="#666666">[integer]</text>
<polygon fill="none" stroke="#000000" points="660,-105.5 660,-135.5 1009,-135.5 1009,-105.5 660,-105.5"/>
<text text-anchor="start" x="667" y="-116.9" font-family="Arial" font-size="14.00" fill="#000000">globalQualName </text>
<text text-anchor="start" x="775.129" y="-116.9" font-family="Arial" font-size="14.00" fill="#666666">[varchar(64)]</text>
<polygon fill="none" stroke="#000000" points="660,-75.5 660,-105.5 1009,-105.5 1009,-75.5 660,-75.5"/>
<text text-anchor="start" x="667" y="-86.9" font-family="Arial" font-size="14.00" fill="#000000">createdAt </text>
<text text-anchor="start" x="730.7994" y="-86.9" font-family="Arial" font-size="14.00" fill="#666666">[timestamp without time zone]</text>
<polygon fill="none" stroke="#000000" points="660,-45.5 660,-75.5 1009,-75.5 1009,-45.5 660,-45.5"/>
<text text-anchor="start" x="667" y="-56.9" font-family="Arial" font-size="14.00" fill="#000000">updatedAt </text>
<text text-anchor="start" x="734.704" y="-56.9" font-family="Arial" font-size="14.00" fill="#666666">[timestamp without time zone]</text>
<polygon fill="none" stroke="#000000" stroke-width="3" points="658,-44.5 658,-202.5 1010,-202.5 1010,-44.5 658,-44.5"/>
</g>
<!-- public.employeeGlobalQualifications -->
<g id="node2" class="node">
<title>public.employeeGlobalQualifications</title>
<polygon fill="#efefef" stroke="transparent" points="75,-385.5 75,-420.5 506,-420.5 506,-385.5 75,-385.5"/>
<polygon fill="none" stroke="#000000" points="75,-385.5 75,-420.5 506,-420.5 506,-385.5 75,-385.5"/>
<text text-anchor="start" x="81.6909" y="-398.3" font-family="Arial Bold" font-size="18.00" fill="#000000">public.employeeGlobalQualifications</text>
<text text-anchor="start" x="371.7411" y="-398.3" font-family="Arial" font-size="14.00" fill="#000000">    </text>
<text text-anchor="start" x="405.9459" y="-398.3" font-family="Arial" font-size="14.00" fill="#666666">[BASE TABLE]</text>
<polygon fill="none" stroke="#000000" points="75,-355.5 75,-385.5 506,-385.5 506,-355.5 75,-355.5"/>
<text text-anchor="start" x="82" y="-366.9" font-family="Arial" font-size="14.00" fill="#000000">employeeID    </text>
<text text-anchor="start" x="190.8822" y="-366.9" font-family="Arial" font-size="14.00" fill="#666666">[integer]</text>
<polygon fill="none" stroke="#000000" points="75,-325.5 75,-355.5 506,-355.5 506,-325.5 75,-325.5"/>
<text text-anchor="start" x="82" y="-336.9" font-family="Arial" font-size="14.00" fill="#000000">globalQualID    </text>
<text text-anchor="start" x="197.108" y="-336.9" font-family="Arial" font-size="14.00" fill="#666666">[integer]</text>
</g>
<!-- public.employeeGlobalQualifications&#45;&gt;public.qualificationsGlobal -->
<g id="edge1" class="edge">
<title>public.employeeGlobalQualifications:globalQualID&#45;&gt;public.qualificationsGlobal:globalQualID</title>
<path fill="none" stroke="#000000" d="M515.4345,-335.8033C551.2223,-306.5449 635.3728,-150.5 660,-150.5"/>
<polygon fill="#000000" stroke="#000000" points="514.9521,-336.0434 503.9945,-336.4716 510.476,-338.2717 506,-340.5 506,-340.5 506,-340.5 510.476,-338.2717 508.0055,-344.5284 514.9521,-336.0434 514.9521,-336.0434"/>
<text text-anchor="start" x="6.782" y="-350.5" font-family="Arial" font-size="10.00" fill="#000000">FOREIGN KEY (&quot;globalQualID&quot;) REFERENCES &quot;qualificationsGlobal&quot;(&quot;globalQualID&quot;) ON DELETE CASCADE</text>
</g>
<!-- public.localServiceGlobalQualifications -->
<g id="node3" class="node">
<title>public.localServiceGlobalQualifications</title>
<polygon fill="#efefef" stroke="transparent" points="610,-385.5 610,-420.5 1060,-420.5 1060,-385.5 610,-385.5"/>
<polygon fill="none" stroke="#000000" points="610,-385.5 610,-420.5 1060,-420.5 1060,-385.5 610,-385.5"/>
<text text-anchor="start" x="616.6977" y="-398.3" font-family="Arial Bold" font-size="18.00" fill="#000000">public.localServiceGlobalQualifications</text>
<text text-anchor="start" x="925.7343" y="-398.3" font-family="Arial" font-size="14.00" fill="#000000">    </text>
<text text-anchor="start" x="959.9391" y="-398.3" font-family="Arial" font-size="14.00" fill="#666666">[BASE TABLE]</text>
<polygon fill="none" stroke="#000000" points="610,-355.5 610,-385.5 1060,-385.5 1060,-355.5 610,-355.5"/>
<text text-anchor="start" x="617" y="-366.9" font-family="Arial" font-size="14.00" fill="#000000">localServiceID    </text>
<text text-anchor="start" x="740.6494" y="-366.9" font-family="Arial" font-size="14.00" fill="#666666">[integer]</text>
<polygon fill="none" stroke="#000000" points="610,-325.5 610,-355.5 1060,-355.5 1060,-325.5 610,-325.5"/>
<text text-anchor="start" x="617" y="-336.9" font-family="Arial" font-size="14.00" fill="#000000">globalQualID    </text>
<text text-anchor="start" x="732.108" y="-336.9" font-family="Arial" font-size="14.00" fill="#666666">[integer]</text>
</g>
<!-- public.localServiceGlobalQualifications&#45;&gt;public.qualificationsGlobal -->
<g id="edge2" class="edge">
<title>public.localServiceGlobalQualifications:globalQualID&#45;&gt;public.qualificationsGlobal:globalQualID</title>
<path fill="none" stroke="#000000" d="M835.6922,-315.4388C845.846,-247.0552 964.9467,-315.2036 1009,-247 1032.2702,-210.9729 1051.8889,-150.5 1009,-150.5"/>
<polygon fill="#000000" stroke="#000000" points="835.6864,-315.5236 830.5106,-325.1911 835.3432,-320.5118 835,-325.5 835,-325.5 835,-325.5 835.3432,-320.5118 839.4894,-325.8089 835.6864,-315.5236 835.6864,-315.5236"/>
<text text-anchor="start" x="644.563" y="-309.5" font-family="Arial" font-size="10.00" fill="#000000">FOREIGN KEY (&quot;globalQualID&quot;) REFERENCES &quot;qualificationsGlobal&quot;(&quot;globalQualID&quot;)</text>
</g>
<!-- public.serviceQualifications -->
<g id="node4" class="node">
<title>public.serviceQualifications</title>
<polygon fill="#efefef" stroke="transparent" points="1164,-385.5 1164,-420.5 1522,-420.5 1522,-385.5 1164,-385.5"/>
<polygon fill="none" stroke="#000000" points="1164,-385.5 1164,-420.5 1522,-420.5 1522,-385.5 1164,-385.5"/>
<text text-anchor="start" x="1170.7048" y="-398.3" font-family="Arial Bold" font-size="18.00" fill="#000000">public.serviceQualifications</text>
<text text-anchor="start" x="1387.7272" y="-398.3" font-family="Arial" font-size="14.00" fill="#000000">    </text>
<text text-anchor="start" x="1421.932" y="-398.3" font-family="Arial" font-size="14.00" fill="#666666">[BASE TABLE]</text>
<polygon fill="none" stroke="#000000" points="1164,-355.5 1164,-385.5 1522,-385.5 1522,-355.5 1164,-355.5"/>
<text text-anchor="start" x="1171" y="-366.9" font-family="Arial" font-size="14.00" fill="#000000">serviceID    </text>
<text text-anchor="start" x="1263.5344" y="-366.9" font-family="Arial" font-size="14.00" fill="#666666">[integer]</text>
<polygon fill="none" stroke="#000000" points="1164,-325.5 1164,-355.5 1522,-355.5 1522,-325.5 1164,-325.5"/>
<text text-anchor="start" x="1171" y="-336.9" font-family="Arial" font-size="14.00" fill="#000000">globalQualID    </text>
<text text-anchor="start" x="1286.108" y="-336.9" font-family="Arial" font-size="14.00" fill="#666666">[integer]</text>
</g>
<!-- public.serviceQualifications&#45;&gt;public.qualificationsGlobal -->
<g id="edge3" class="edge">
<title>public.serviceQualifications:globalQualID&#45;&gt;public.qualificationsGlobal:globalQualID</title>
<path fill="none" stroke="#000000" d="M1154.5263,-335.8033C1118.5534,-306.5449 1033.6907,-150.5 1009,-150.5"/>
<polygon fill="#000000" stroke="#000000" points="1155.0406,-336.0582 1162.0012,-344.5317 1159.5203,-338.2791 1164,-340.5 1164,-340.5 1164,-340.5 1159.5203,-338.2791 1165.9988,-336.4683 1155.0406,-336.0582 1155.0406,-336.0582"/>
<text text-anchor="start" x="1171.063" y="-350.5" font-family="Arial" font-size="10.00" fill="#000000">FOREIGN KEY (&quot;globalQualID&quot;) REFERENCES &quot;qualificationsGlobal&quot;(&quot;globalQualID&quot;)</text>
</g>
</g>
</svg>
