<?xml version="1.0" encoding="UTF-8" standalone="no"?>
<!DOCTYPE svg PUBLIC "-//W3C//DTD SVG 1.1//EN"
 "http://www.w3.org/Graphics/SVG/1.1/DTD/svg11.dtd">
<!-- Generated by graphviz version 2.40.1 (20161225.0304)
 -->
<!-- Title: public.qualificationsGlobal Pages: 1 -->
<svg width="1019pt" height="472pt"
 viewBox="0.00 0.00 1019.00 472.00" xmlns="http://www.w3.org/2000/svg" xmlns:xlink="http://www.w3.org/1999/xlink">
<g id="graph0" class="graph" transform="scale(1 1) rotate(0) translate(4 468)">
<title>public.qualificationsGlobal</title>
<polygon fill="#ffffff" stroke="transparent" points="-4,4 -4,-468 1015,-468 1015,4 -4,4"/>
<!-- public.qualificationsGlobal -->
<g id="node1" class="node">
<title>public.qualificationsGlobal</title>
<polygon fill="#efefef" stroke="transparent" points="365,-165.5 365,-200.5 714,-200.5 714,-165.5 365,-165.5"/>
<polygon fill="none" stroke="#000000" points="365,-165.5 365,-200.5 714,-200.5 714,-165.5 365,-165.5"/>
<text text-anchor="start" x="371.6976" y="-178.3" font-family="Arial Bold" font-size="18.00" fill="#000000">public.qualificationsGlobal</text>
<text text-anchor="start" x="579.7344" y="-178.3" font-family="Arial" font-size="14.00" fill="#000000">    </text>
<text text-anchor="start" x="613.9392" y="-178.3" font-family="Arial" font-size="14.00" fill="#666666">[BASE TABLE]</text>
<polygon fill="none" stroke="#000000" points="365,-135.5 365,-165.5 714,-165.5 714,-135.5 365,-135.5"/>
<text text-anchor="start" x="372" y="-146.9" font-family="Arial" font-size="14.00" fill="#000000">globalQualID </text>
<text text-anchor="start" x="456.7938" y="-146.9" font-family="Arial" font-size="14.00" fill="#666666">[integer]</text>
<polygon fill="none" stroke="#000000" points="365,-105.5 365,-135.5 714,-135.5 714,-105.5 365,-105.5"/>
<text text-anchor="start" x="372" y="-116.9" font-family="Arial" font-size="14.00" fill="#000000">globalQualName </text>
<text text-anchor="start" x="480.129" y="-116.9" font-family="Arial" font-size="14.00" fill="#666666">[varchar(64)]</text>
<polygon fill="none" stroke="#000000" points="365,-75.5 365,-105.5 714,-105.5 714,-75.5 365,-75.5"/>
<text text-anchor="start" x="372" y="-86.9" font-family="Arial" font-size="14.00" fill="#000000">createdAt </text>
<text text-anchor="start" x="435.7994" y="-86.9" font-family="Arial" font-size="14.00" fill="#666666">[timestamp without time zone]</text>
<polygon fill="none" stroke="#000000" points="365,-45.5 365,-75.5 714,-75.5 714,-45.5 365,-45.5"/>
<text text-anchor="start" x="372" y="-56.9" font-family="Arial" font-size="14.00" fill="#000000">updatedAt </text>
<text text-anchor="start" x="439.704" y="-56.9" font-family="Arial" font-size="14.00" fill="#666666">[timestamp without time zone]</text>
<polygon fill="none" stroke="#000000" stroke-width="3" points="363,-44.5 363,-202.5 715,-202.5 715,-44.5 363,-44.5"/>
</g>
<!-- public.employeeGlobalQualifications -->
<g id="node2" class="node">
<title>public.employeeGlobalQualifications</title>
<polygon fill="#efefef" stroke="transparent" points="75,-385.5 75,-420.5 506,-420.5 506,-385.5 75,-385.5"/>
<polygon fill="none" stroke="#000000" points="75,-385.5 75,-420.5 506,-420.5 506,-385.5 75,-385.5"/>
<text text-anchor="start" x="81.6909" y="-398.3" font-family="Arial Bold" font-size="18.00" fill="#000000">public.employeeGlobalQualifications</text>
<text text-anchor="start" x="371.7411" y="-398.3" font-family="Arial" font-size="14.00" fill="#000000">    </text>
<text text-anchor="start" x="405.9459" y="-398.3" font-family="Arial" font-size="14.00" fill="#666666">[BASE TABLE]</text>
<polygon fill="none" stroke="#000000" points="75,-355.5 75,-385.5 506,-385.5 506,-355.5 75,-355.5"/>
<text text-anchor="start" x="82" y="-366.9" font-family="Arial" font-size="14.00" fill="#000000">employeeID    </text>
<text text-anchor="start" x="190.8822" y="-366.9" font-family="Arial" font-size="14.00" fill="#666666">[integer]</text>
<polygon fill="none" stroke="#000000" points="75,-325.5 75,-355.5 506,-355.5 506,-325.5 75,-325.5"/>
<text text-anchor="start" x="82" y="-336.9" font-family="Arial" font-size="14.00" fill="#000000">globalQualID    </text>
<text text-anchor="start" x="197.108" y="-336.9" font-family="Arial" font-size="14.00" fill="#666666">[integer]</text>
</g>
<!-- public.employeeGlobalQualifications&#45;&gt;public.qualificationsGlobal -->
<g id="edge1" class="edge">
<title>public.employeeGlobalQualifications:globalQualID&#45;&gt;public.qualificationsGlobal:globalQualID</title>
<path fill="none" stroke="#000000" d="M515.8477,-337.7271C528.158,-328.7163 519.1048,-299.8711 506,-283 466.3246,-231.9219 404.6754,-298.0781 365,-247 338.6902,-213.1289 322.1111,-150.5 365,-150.5"/>
<polygon fill="#000000" stroke="#000000" points="515.6257,-337.7895 504.7803,-336.1684 510.8128,-339.1448 506,-340.5 506,-340.5 506,-340.5 510.8128,-339.1448 507.2197,-344.8316 515.6257,-337.7895 515.6257,-337.7895"/>
<text text-anchor="start" x="6.782" y="-350.5" font-family="Arial" font-size="10.00" fill="#000000">FOREIGN KEY (&quot;globalQualID&quot;) REFERENCES &quot;qualificationsGlobal&quot;(&quot;globalQualID&quot;) ON DELETE CASCADE</text>
</g>
<!-- public.serviceQualifications -->
<g id="node3" class="node">
<title>public.serviceQualifications</title>
<polygon fill="#efefef" stroke="transparent" points="610,-385.5 610,-420.5 968,-420.5 968,-385.5 610,-385.5"/>
<polygon fill="none" stroke="#000000" points="610,-385.5 610,-420.5 968,-420.5 968,-385.5 610,-385.5"/>
<text text-anchor="start" x="616.7048" y="-398.3" font-family="Arial Bold" font-size="18.00" fill="#000000">public.serviceQualifications</text>
<text text-anchor="start" x="833.7272" y="-398.3" font-family="Arial" font-size="14.00" fill="#000000">    </text>
<text text-anchor="start" x="867.932" y="-398.3" font-family="Arial" font-size="14.00" fill="#666666">[BASE TABLE]</text>
<polygon fill="none" stroke="#000000" points="610,-355.5 610,-385.5 968,-385.5 968,-355.5 610,-355.5"/>
<text text-anchor="start" x="617" y="-366.9" font-family="Arial" font-size="14.00" fill="#000000">serviceID    </text>
<text text-anchor="start" x="709.5344" y="-366.9" font-family="Arial" font-size="14.00" fill="#666666">[integer]</text>
<polygon fill="none" stroke="#000000" points="610,-325.5 610,-355.5 968,-355.5 968,-325.5 610,-325.5"/>
<text text-anchor="start" x="617" y="-336.9" font-family="Arial" font-size="14.00" fill="#000000">globalQualID    </text>
<text text-anchor="start" x="732.108" y="-336.9" font-family="Arial" font-size="14.00" fill="#666666">[integer]</text>
</g>
<!-- public.serviceQualifications&#45;&gt;public.qualificationsGlobal -->
<g id="edge2" class="edge">
<title>public.serviceQualifications:globalQualID&#45;&gt;public.qualificationsGlobal:globalQualID</title>
<path fill="none" stroke="#000000" d="M600.2099,-337.7699C588.0761,-328.8905 597.6087,-300.4019 610,-283 638.3715,-243.1559 685.6285,-286.8441 714,-247 738.8772,-212.0632 756.8889,-150.5 714,-150.5"/>
<polygon fill="#000000" stroke="#000000" points="600.3675,-337.8138 608.7912,-344.8346 605.1838,-339.1569 610,-340.5 610,-340.5 610,-340.5 605.1838,-339.1569 611.2088,-336.1654 600.3675,-337.8138 600.3675,-337.8138"/>
<text text-anchor="start" x="617.063" y="-350.5" font-family="Arial" font-size="10.00" fill="#000000">FOREIGN KEY (&quot;globalQualID&quot;) REFERENCES &quot;qualificationsGlobal&quot;(&quot;globalQualID&quot;)</text>
</g>
</g>
</svg>
