<?xml version="1.0" encoding="UTF-8" standalone="no"?>
<!DOCTYPE svg PUBLIC "-//W3C//DTD SVG 1.1//EN"
 "http://www.w3.org/Graphics/SVG/1.1/DTD/svg11.dtd">
<!-- Generated by graphviz version 2.40.1 (20161225.0304)
 -->
<!-- Title: public.services Pages: 1 -->
<svg width="1769pt" height="2549pt"
 viewBox="0.00 0.00 1768.50 2549.00" xmlns="http://www.w3.org/2000/svg" xmlns:xlink="http://www.w3.org/1999/xlink">
<g id="graph0" class="graph" transform="scale(1 1) rotate(0) translate(4 2545)">
<title>public.services</title>
<polygon fill="#ffffff" stroke="transparent" points="-4,4 -4,-2545 1764.5,-2545 1764.5,4 -4,4"/>
<!-- public.services -->
<g id="node1" class="node">
<title>public.services</title>
<polygon fill="#efefef" stroke="transparent" points="743.5,-1582.5 743.5,-1617.5 1009.5,-1617.5 1009.5,-1582.5 743.5,-1582.5"/>
<polygon fill="none" stroke="#000000" points="743.5,-1582.5 743.5,-1617.5 1009.5,-1617.5 1009.5,-1582.5 743.5,-1582.5"/>
<text text-anchor="start" x="753.712" y="-1595.3" font-family="Arial Bold" font-size="18.00" fill="#000000">public.services</text>
<text text-anchor="start" x="871.72" y="-1595.3" font-family="Arial" font-size="14.00" fill="#000000">    </text>
<text text-anchor="start" x="905.9248" y="-1595.3" font-family="Arial" font-size="14.00" fill="#666666">[BASE TABLE]</text>
<polygon fill="none" stroke="#000000" points="743.5,-1552.5 743.5,-1582.5 1009.5,-1582.5 1009.5,-1552.5 743.5,-1552.5"/>
<text text-anchor="start" x="750.5" y="-1563.9" font-family="Arial" font-size="14.00" fill="#000000">serviceID </text>
<text text-anchor="start" x="812.7202" y="-1563.9" font-family="Arial" font-size="14.00" fill="#666666">[integer]</text>
<polygon fill="none" stroke="#000000" points="743.5,-1522.5 743.5,-1552.5 1009.5,-1552.5 1009.5,-1522.5 743.5,-1522.5"/>
<text text-anchor="start" x="750.5" y="-1533.9" font-family="Arial" font-size="14.00" fill="#000000">serviceCategoryID </text>
<text text-anchor="start" x="869.5084" y="-1533.9" font-family="Arial" font-size="14.00" fill="#666666">[integer]</text>
<polygon fill="none" stroke="#000000" points="743.5,-1492.5 743.5,-1522.5 1009.5,-1522.5 1009.5,-1492.5 743.5,-1492.5"/>
<text text-anchor="start" x="750.5" y="-1503.9" font-family="Arial" font-size="14.00" fill="#000000">name </text>
<text text-anchor="start" x="789.399" y="-1503.9" font-family="Arial" font-size="14.00" fill="#666666">[varchar(256)]</text>
<polygon fill="none" stroke="#000000" points="743.5,-1462.5 743.5,-1492.5 1009.5,-1492.5 1009.5,-1462.5 743.5,-1462.5"/>
<text text-anchor="start" x="750.5" y="-1473.9" font-family="Arial" font-size="14.00" fill="#000000">storeID </text>
<text text-anchor="start" x="799.5042" y="-1473.9" font-family="Arial" font-size="14.00" fill="#666666">[integer]</text>
<polygon fill="none" stroke="#000000" points="743.5,-1432.5 743.5,-1462.5 1009.5,-1462.5 1009.5,-1432.5 743.5,-1432.5"/>
<text text-anchor="start" x="750.5" y="-1443.9" font-family="Arial" font-size="14.00" fill="#000000">currency </text>
<text text-anchor="start" x="808.0596" y="-1443.9" font-family="Arial" font-size="14.00" fill="#666666">[varchar(5)]</text>
<polygon fill="none" stroke="#000000" points="743.5,-1402.5 743.5,-1432.5 1009.5,-1432.5 1009.5,-1402.5 743.5,-1402.5"/>
<text text-anchor="start" x="750.5" y="-1413.9" font-family="Arial" font-size="14.00" fill="#000000">cost </text>
<text text-anchor="start" x="780.0638" y="-1413.9" font-family="Arial" font-size="14.00" fill="#666666">[real]</text>
<polygon fill="none" stroke="#000000" points="743.5,-1372.5 743.5,-1402.5 1009.5,-1402.5 1009.5,-1372.5 743.5,-1372.5"/>
<text text-anchor="start" x="750.5" y="-1383.9" font-family="Arial" font-size="14.00" fill="#000000">includeInAutomaticSms </text>
<text text-anchor="start" x="900.6374" y="-1383.9" font-family="Arial" font-size="14.00" fill="#666666">[boolean]</text>
<polygon fill="none" stroke="#000000" points="743.5,-1342.5 743.5,-1372.5 1009.5,-1372.5 1009.5,-1342.5 743.5,-1342.5"/>
<text text-anchor="start" x="750.5" y="-1353.9" font-family="Arial" font-size="14.00" fill="#000000">hidden </text>
<text text-anchor="start" x="796.4102" y="-1353.9" font-family="Arial" font-size="14.00" fill="#666666">[boolean]</text>
<polygon fill="none" stroke="#000000" points="743.5,-1312.5 743.5,-1342.5 1009.5,-1342.5 1009.5,-1312.5 743.5,-1312.5"/>
<text text-anchor="start" x="750.5" y="-1323.9" font-family="Arial" font-size="14.00" fill="#000000">callInterval </text>
<text text-anchor="start" x="821.2826" y="-1323.9" font-family="Arial" font-size="14.00" fill="#666666">[integer]</text>
<polygon fill="none" stroke="#000000" points="743.5,-1282.5 743.5,-1312.5 1009.5,-1312.5 1009.5,-1282.5 743.5,-1282.5"/>
<text text-anchor="start" x="750.5" y="-1293.9" font-family="Arial" font-size="14.00" fill="#000000">colorForService </text>
<text text-anchor="start" x="852.3878" y="-1293.9" font-family="Arial" font-size="14.00" fill="#666666">[varchar]</text>
<polygon fill="none" stroke="#000000" points="743.5,-1252.5 743.5,-1282.5 1009.5,-1282.5 1009.5,-1252.5 743.5,-1252.5"/>
<text text-anchor="start" x="750.5" y="-1263.9" font-family="Arial" font-size="14.00" fill="#000000">warrantyCard </text>
<text text-anchor="start" x="838.3892" y="-1263.9" font-family="Arial" font-size="14.00" fill="#666666">[boolean]</text>
<polygon fill="none" stroke="#000000" points="743.5,-1222.5 743.5,-1252.5 1009.5,-1252.5 1009.5,-1222.5 743.5,-1222.5"/>
<text text-anchor="start" x="750.5" y="-1233.9" font-family="Arial" font-size="14.00" fill="#000000">itemNumber </text>
<text text-anchor="start" x="830.6066" y="-1233.9" font-family="Arial" font-size="14.00" fill="#666666">[varchar(256)]</text>
<polygon fill="none" stroke="#000000" points="743.5,-1192.5 743.5,-1222.5 1009.5,-1222.5 1009.5,-1192.5 743.5,-1192.5"/>
<text text-anchor="start" x="750.5" y="-1203.9" font-family="Arial" font-size="14.00" fill="#000000">award </text>
<text text-anchor="start" x="792.5056" y="-1203.9" font-family="Arial" font-size="14.00" fill="#666666">[real]</text>
<polygon fill="none" stroke="#000000" points="743.5,-1162.5 743.5,-1192.5 1009.5,-1192.5 1009.5,-1162.5 743.5,-1162.5"/>
<text text-anchor="start" x="750.5" y="-1173.9" font-family="Arial" font-size="14.00" fill="#000000">suppliersArticleNumber </text>
<text text-anchor="start" x="899.054" y="-1173.9" font-family="Arial" font-size="14.00" fill="#666666">[varchar(256)]</text>
<polygon fill="none" stroke="#000000" points="743.5,-1132.5 743.5,-1162.5 1009.5,-1162.5 1009.5,-1132.5 743.5,-1132.5"/>
<text text-anchor="start" x="750.5" y="-1143.9" font-family="Arial" font-size="14.00" fill="#000000">externalArticleNumber </text>
<text text-anchor="start" x="892.838" y="-1143.9" font-family="Arial" font-size="14.00" fill="#666666">[varchar(256)]</text>
<polygon fill="none" stroke="#000000" points="743.5,-1102.5 743.5,-1132.5 1009.5,-1132.5 1009.5,-1102.5 743.5,-1102.5"/>
<text text-anchor="start" x="750.5" y="-1113.9" font-family="Arial" font-size="14.00" fill="#000000">day1 </text>
<text text-anchor="start" x="784.7384" y="-1113.9" font-family="Arial" font-size="14.00" fill="#666666">[interval]</text>
<polygon fill="none" stroke="#000000" points="743.5,-1072.5 743.5,-1102.5 1009.5,-1102.5 1009.5,-1072.5 743.5,-1072.5"/>
<text text-anchor="start" x="750.5" y="-1083.9" font-family="Arial" font-size="14.00" fill="#000000">day2 </text>
<text text-anchor="start" x="784.7384" y="-1083.9" font-family="Arial" font-size="14.00" fill="#666666">[interval]</text>
<polygon fill="none" stroke="#000000" points="743.5,-1042.5 743.5,-1072.5 1009.5,-1072.5 1009.5,-1042.5 743.5,-1042.5"/>
<text text-anchor="start" x="750.5" y="-1053.9" font-family="Arial" font-size="14.00" fill="#000000">day3 </text>
<text text-anchor="start" x="784.7384" y="-1053.9" font-family="Arial" font-size="14.00" fill="#666666">[interval]</text>
<polygon fill="none" stroke="#000000" points="743.5,-1012.5 743.5,-1042.5 1009.5,-1042.5 1009.5,-1012.5 743.5,-1012.5"/>
<text text-anchor="start" x="750.5" y="-1023.9" font-family="Arial" font-size="14.00" fill="#000000">day4 </text>
<text text-anchor="start" x="784.7384" y="-1023.9" font-family="Arial" font-size="14.00" fill="#666666">[interval]</text>
<polygon fill="none" stroke="#000000" points="743.5,-982.5 743.5,-1012.5 1009.5,-1012.5 1009.5,-982.5 743.5,-982.5"/>
<text text-anchor="start" x="750.5" y="-993.9" font-family="Arial" font-size="14.00" fill="#000000">day5 </text>
<text text-anchor="start" x="784.7384" y="-993.9" font-family="Arial" font-size="14.00" fill="#666666">[interval]</text>
<polygon fill="none" stroke="#000000" points="743.5,-952.5 743.5,-982.5 1009.5,-982.5 1009.5,-952.5 743.5,-952.5"/>
<text text-anchor="start" x="750.5" y="-963.9" font-family="Arial" font-size="14.00" fill="#000000">createdAt </text>
<text text-anchor="start" x="814.2994" y="-963.9" font-family="Arial" font-size="14.00" fill="#666666">[timestamp without time zone]</text>
<polygon fill="none" stroke="#000000" points="743.5,-922.5 743.5,-952.5 1009.5,-952.5 1009.5,-922.5 743.5,-922.5"/>
<text text-anchor="start" x="750.0779" y="-933.9" font-family="Arial" font-size="14.00" fill="#000000">updatedAt </text>
<text text-anchor="start" x="817.7819" y="-933.9" font-family="Arial" font-size="14.00" fill="#666666">[timestamp without time zone]</text>
<polygon fill="none" stroke="#000000" stroke-width="3" points="742,-921.5 742,-1619.5 1011,-1619.5 1011,-921.5 742,-921.5"/>
</g>
<!-- public.serviceCategories -->
<g id="node6" class="node">
<title>public.serviceCategories</title>
<polygon fill="#efefef" stroke="transparent" points="497.5,-477.5 497.5,-512.5 834.5,-512.5 834.5,-477.5 497.5,-477.5"/>
<polygon fill="none" stroke="#000000" points="497.5,-477.5 497.5,-512.5 834.5,-512.5 834.5,-477.5 497.5,-477.5"/>
<text text-anchor="start" x="504.2051" y="-490.3" font-family="Arial Bold" font-size="18.00" fill="#000000">public.serviceCategories</text>
<text text-anchor="start" x="700.2269" y="-490.3" font-family="Arial" font-size="14.00" fill="#000000">    </text>
<text text-anchor="start" x="734.4317" y="-490.3" font-family="Arial" font-size="14.00" fill="#666666">[BASE TABLE]</text>
<polygon fill="none" stroke="#000000" points="497.5,-447.5 497.5,-477.5 834.5,-477.5 834.5,-447.5 497.5,-447.5"/>
<text text-anchor="start" x="504.5" y="-458.9" font-family="Arial" font-size="14.00" fill="#000000">serviceCategoryID    </text>
<text text-anchor="start" x="653.8226" y="-458.9" font-family="Arial" font-size="14.00" fill="#666666">[integer]</text>
<polygon fill="none" stroke="#000000" points="497.5,-417.5 497.5,-447.5 834.5,-447.5 834.5,-417.5 497.5,-417.5"/>
<text text-anchor="start" x="504.5" y="-428.9" font-family="Arial" font-size="14.00" fill="#000000">serviceCategoryName    </text>
<text text-anchor="start" x="677.1578" y="-428.9" font-family="Arial" font-size="14.00" fill="#666666">[varchar(256)]</text>
<polygon fill="none" stroke="#000000" points="497.5,-387.5 497.5,-417.5 834.5,-417.5 834.5,-387.5 497.5,-387.5"/>
<text text-anchor="start" x="504.5" y="-398.9" font-family="Arial" font-size="14.00" fill="#000000">serviceCategoryDescription    </text>
<text text-anchor="start" x="709.8268" y="-398.9" font-family="Arial" font-size="14.00" fill="#666666">[varchar]</text>
<polygon fill="none" stroke="#000000" points="497.5,-357.5 497.5,-387.5 834.5,-387.5 834.5,-357.5 497.5,-357.5"/>
<text text-anchor="start" x="504.5" y="-368.9" font-family="Arial" font-size="14.00" fill="#000000">createdAt    </text>
<text text-anchor="start" x="598.6136" y="-368.9" font-family="Arial" font-size="14.00" fill="#666666">[timestamp without time zone]</text>
<polygon fill="none" stroke="#000000" points="497.5,-327.5 497.5,-357.5 834.5,-357.5 834.5,-327.5 497.5,-327.5"/>
<text text-anchor="start" x="504.5" y="-338.9" font-family="Arial" font-size="14.00" fill="#000000">updatedAt    </text>
<text text-anchor="start" x="602.5182" y="-338.9" font-family="Arial" font-size="14.00" fill="#666666">[timestamp without time zone]</text>
</g>
<!-- public.services&#45;&gt;public.serviceCategories -->
<g id="edge5" class="edge">
<title>public.services:serviceCategoryID&#45;&gt;public.serviceCategories:serviceCategoryID</title>
<path fill="none" stroke="#000000" d="M733.4037,-1537.3484C455.8482,-1528.8451 703.5564,-1164.3525 743.5,-877 756.4841,-783.5933 928.8048,-462.5 834.5,-462.5"/>
<polygon fill="#000000" stroke="#000000" points="733.5011,-1537.3498 743.4324,-1541.9995 738.5006,-1537.4249 743.5,-1537.5 743.5,-1537.5 743.5,-1537.5 738.5006,-1537.4249 743.5676,-1533.0005 733.5011,-1537.3498 733.5011,-1537.3498"/>
<text text-anchor="start" x="202.1805" y="-1547.5" font-family="Arial" font-size="10.00" fill="#000000">FOREIGN KEY (&quot;serviceCategoryID&quot;) REFERENCES &quot;serviceCategories&quot;(&quot;serviceCategoryID&quot;) ON DELETE CASCADE</text>
</g>
<!-- public.stores -->
<g id="node7" class="node">
<title>public.stores</title>
<polygon fill="#efefef" stroke="transparent" points="938.5,-762.5 938.5,-797.5 1235.5,-797.5 1235.5,-762.5 938.5,-762.5"/>
<polygon fill="none" stroke="#000000" points="938.5,-762.5 938.5,-797.5 1235.5,-797.5 1235.5,-762.5 938.5,-762.5"/>
<text text-anchor="start" x="972.708" y="-775.3" font-family="Arial Bold" font-size="18.00" fill="#000000">public.stores</text>
<text text-anchor="start" x="1073.724" y="-775.3" font-family="Arial" font-size="14.00" fill="#000000">    </text>
<text text-anchor="start" x="1107.9288" y="-775.3" font-family="Arial" font-size="14.00" fill="#666666">[BASE TABLE]</text>
<polygon fill="none" stroke="#000000" points="938.5,-732.5 938.5,-762.5 1235.5,-762.5 1235.5,-732.5 938.5,-732.5"/>
<text text-anchor="start" x="945.5" y="-743.9" font-family="Arial" font-size="14.00" fill="#000000">storeID    </text>
<text text-anchor="start" x="1024.8184" y="-743.9" font-family="Arial" font-size="14.00" fill="#666666">[integer]</text>
<polygon fill="none" stroke="#000000" points="938.5,-702.5 938.5,-732.5 1235.5,-732.5 1235.5,-702.5 938.5,-702.5"/>
<text text-anchor="start" x="945.5" y="-713.9" font-family="Arial" font-size="14.00" fill="#000000">storeOrgNumber    </text>
<text text-anchor="start" x="1083.9306" y="-713.9" font-family="Arial" font-size="14.00" fill="#666666">[varchar(11)]</text>
<polygon fill="none" stroke="#000000" points="938.5,-672.5 938.5,-702.5 1235.5,-702.5 1235.5,-672.5 938.5,-672.5"/>
<text text-anchor="start" x="945.5" y="-683.9" font-family="Arial" font-size="14.00" fill="#000000">storeName    </text>
<text text-anchor="start" x="1048.1536" y="-683.9" font-family="Arial" font-size="14.00" fill="#666666">[varchar(128)]</text>
<polygon fill="none" stroke="#000000" points="938.5,-642.5 938.5,-672.5 1235.5,-672.5 1235.5,-642.5 938.5,-642.5"/>
<text text-anchor="start" x="945.5" y="-653.9" font-family="Arial" font-size="14.00" fill="#000000">storeWebSite    </text>
<text text-anchor="start" x="1063.7174" y="-653.9" font-family="Arial" font-size="14.00" fill="#666666">[varchar]</text>
<polygon fill="none" stroke="#000000" points="938.5,-612.5 938.5,-642.5 1235.5,-642.5 1235.5,-612.5 938.5,-612.5"/>
<text text-anchor="start" x="945.5" y="-623.9" font-family="Arial" font-size="14.00" fill="#000000">storeVatNumber    </text>
<text text-anchor="start" x="1081.6066" y="-623.9" font-family="Arial" font-size="14.00" fill="#666666">[varchar(32)]</text>
<polygon fill="none" stroke="#000000" points="938.5,-582.5 938.5,-612.5 1235.5,-612.5 1235.5,-582.5 938.5,-582.5"/>
<text text-anchor="start" x="945.5" y="-593.9" font-family="Arial" font-size="14.00" fill="#000000">storeFSkatt    </text>
<text text-anchor="start" x="1051.2742" y="-593.9" font-family="Arial" font-size="14.00" fill="#666666">[boolean]</text>
<polygon fill="none" stroke="#000000" points="938.5,-552.5 938.5,-582.5 1235.5,-582.5 1235.5,-552.5 938.5,-552.5"/>
<text text-anchor="start" x="945.5" y="-563.9" font-family="Arial" font-size="14.00" fill="#000000">storeStatus    </text>
<text text-anchor="start" x="1050.5042" y="-563.9" font-family="Arial" font-size="14.00" fill="#666666">[boolean]</text>
<polygon fill="none" stroke="#000000" points="938.5,-522.5 938.5,-552.5 1235.5,-552.5 1235.5,-522.5 938.5,-522.5"/>
<text text-anchor="start" x="945.5" y="-533.9" font-family="Arial" font-size="14.00" fill="#000000">storeEmail    </text>
<text text-anchor="start" x="1045.8142" y="-533.9" font-family="Arial" font-size="14.00" fill="#666666">[varchar]</text>
<polygon fill="none" stroke="#000000" points="938.5,-492.5 938.5,-522.5 1235.5,-522.5 1235.5,-492.5 938.5,-492.5"/>
<text text-anchor="start" x="945.5" y="-503.9" font-family="Arial" font-size="14.00" fill="#000000">storePhone    </text>
<text text-anchor="start" x="1051.2882" y="-503.9" font-family="Arial" font-size="14.00" fill="#666666">[varchar]</text>
<polygon fill="none" stroke="#000000" points="938.5,-462.5 938.5,-492.5 1235.5,-492.5 1235.5,-462.5 938.5,-462.5"/>
<text text-anchor="start" x="945.5" y="-473.9" font-family="Arial" font-size="14.00" fill="#000000">storeAddress    </text>
<text text-anchor="start" x="1062.1662" y="-473.9" font-family="Arial" font-size="14.00" fill="#666666">[varchar]</text>
<polygon fill="none" stroke="#000000" points="938.5,-432.5 938.5,-462.5 1235.5,-462.5 1235.5,-432.5 938.5,-432.5"/>
<text text-anchor="start" x="945.5" y="-443.9" font-family="Arial" font-size="14.00" fill="#000000">storeZipCode    </text>
<text text-anchor="start" x="1063.7174" y="-443.9" font-family="Arial" font-size="14.00" fill="#666666">[varchar(16)]</text>
<polygon fill="none" stroke="#000000" points="938.5,-402.5 938.5,-432.5 1235.5,-432.5 1235.5,-402.5 938.5,-402.5"/>
<text text-anchor="start" x="945.5" y="-413.9" font-family="Arial" font-size="14.00" fill="#000000">storeCity    </text>
<text text-anchor="start" x="1034.925" y="-413.9" font-family="Arial" font-size="14.00" fill="#666666">[varchar]</text>
<polygon fill="none" stroke="#000000" points="938.5,-372.5 938.5,-402.5 1235.5,-402.5 1235.5,-372.5 938.5,-372.5"/>
<text text-anchor="start" x="945.5" y="-383.9" font-family="Arial" font-size="14.00" fill="#000000">storeCountry    </text>
<text text-anchor="start" x="1059.8268" y="-383.9" font-family="Arial" font-size="14.00" fill="#666666">[varchar]</text>
<polygon fill="none" stroke="#000000" points="938.5,-342.5 938.5,-372.5 1235.5,-372.5 1235.5,-342.5 938.5,-342.5"/>
<text text-anchor="start" x="945.5" y="-353.9" font-family="Arial" font-size="14.00" fill="#000000">storeDescription    </text>
<text text-anchor="start" x="1080.8226" y="-353.9" font-family="Arial" font-size="14.00" fill="#666666">[varchar]</text>
<polygon fill="none" stroke="#000000" points="938.5,-312.5 938.5,-342.5 1235.5,-342.5 1235.5,-312.5 938.5,-312.5"/>
<text text-anchor="start" x="945.5" y="-323.9" font-family="Arial" font-size="14.00" fill="#000000">storeContactPerson    </text>
<text text-anchor="start" x="1103.4018" y="-323.9" font-family="Arial" font-size="14.00" fill="#666666">[varchar(64)]</text>
<polygon fill="none" stroke="#000000" points="938.5,-282.5 938.5,-312.5 1235.5,-312.5 1235.5,-282.5 938.5,-282.5"/>
<text text-anchor="start" x="945.5" y="-293.9" font-family="Arial" font-size="14.00" fill="#000000">storeMaxUsers    </text>
<text text-anchor="start" x="1073.8142" y="-293.9" font-family="Arial" font-size="14.00" fill="#666666">[integer]</text>
<polygon fill="none" stroke="#000000" points="938.5,-252.5 938.5,-282.5 1235.5,-282.5 1235.5,-252.5 938.5,-252.5"/>
<text text-anchor="start" x="945.5" y="-263.9" font-family="Arial" font-size="14.00" fill="#000000">currency    </text>
<text text-anchor="start" x="1033.3738" y="-263.9" font-family="Arial" font-size="14.00" fill="#666666">[varchar]</text>
<polygon fill="none" stroke="#000000" points="938.5,-222.5 938.5,-252.5 1235.5,-252.5 1235.5,-222.5 938.5,-222.5"/>
<text text-anchor="start" x="945.5" y="-233.9" font-family="Arial" font-size="14.00" fill="#000000">storeAllowCarAPI    </text>
<text text-anchor="start" x="1089.3738" y="-233.9" font-family="Arial" font-size="14.00" fill="#666666">[boolean]</text>
<polygon fill="none" stroke="#000000" points="938.5,-192.5 938.5,-222.5 1235.5,-222.5 1235.5,-192.5 938.5,-192.5"/>
<text text-anchor="start" x="945.5" y="-203.9" font-family="Arial" font-size="14.00" fill="#000000">storeAllowSendSMS    </text>
<text text-anchor="start" x="1107.2784" y="-203.9" font-family="Arial" font-size="14.00" fill="#666666">[boolean]</text>
<polygon fill="none" stroke="#000000" points="938.5,-162.5 938.5,-192.5 1235.5,-192.5 1235.5,-162.5 938.5,-162.5"/>
<text text-anchor="start" x="945.5" y="-173.9" font-family="Arial" font-size="14.00" fill="#000000">storeSendSMS    </text>
<text text-anchor="start" x="1073.8394" y="-173.9" font-family="Arial" font-size="14.00" fill="#666666">[boolean]</text>
<polygon fill="none" stroke="#000000" points="938.5,-132.5 938.5,-162.5 1235.5,-162.5 1235.5,-132.5 938.5,-132.5"/>
<text text-anchor="start" x="945.5" y="-143.9" font-family="Arial" font-size="14.00" fill="#000000">storeUsesCheckin    </text>
<text text-anchor="start" x="1093.2714" y="-143.9" font-family="Arial" font-size="14.00" fill="#666666">[boolean]</text>
<polygon fill="none" stroke="#000000" points="938.5,-102.5 938.5,-132.5 1235.5,-132.5 1235.5,-102.5 938.5,-102.5"/>
<text text-anchor="start" x="945.5" y="-113.9" font-family="Arial" font-size="14.00" fill="#000000">storeUsesPIN    </text>
<text text-anchor="start" x="1066.0442" y="-113.9" font-family="Arial" font-size="14.00" fill="#666666">[boolean]</text>
<polygon fill="none" stroke="#000000" points="938.5,-72.5 938.5,-102.5 1235.5,-102.5 1235.5,-72.5 938.5,-72.5"/>
<text text-anchor="start" x="945.5" y="-83.9" font-family="Arial" font-size="14.00" fill="#000000">createdAt    </text>
<text text-anchor="start" x="1039.6136" y="-83.9" font-family="Arial" font-size="14.00" fill="#666666">[timestamp without time zone]</text>
<polygon fill="none" stroke="#000000" points="938.5,-42.5 938.5,-72.5 1235.5,-72.5 1235.5,-42.5 938.5,-42.5"/>
<text text-anchor="start" x="945.4208" y="-53.9" font-family="Arial" font-size="14.00" fill="#000000">updatedAt    </text>
<text text-anchor="start" x="1043.439" y="-53.9" font-family="Arial" font-size="14.00" fill="#666666">[timestamp without time zone]</text>
</g>
<!-- public.services&#45;&gt;public.stores -->
<g id="edge6" class="edge">
<title>public.services:storeID&#45;&gt;public.stores:storeID</title>
<path fill="none" stroke="#000000" d="M1019.851,-1477.3067C1273.0324,-1467.6883 1147.3321,-1101.4242 1009.5,-877 990.9842,-846.8517 957.0158,-871.1483 938.5,-841 916.7523,-805.5895 896.9444,-747.5 938.5,-747.5"/>
<polygon fill="#000000" stroke="#000000" points="1019.4983,-1477.3132 1009.4159,-1473.0008 1014.4991,-1477.4066 1009.5,-1477.5 1009.5,-1477.5 1009.5,-1477.5 1014.4991,-1477.4066 1009.5841,-1481.9992 1019.4983,-1477.3132 1019.4983,-1477.3132"/>
<text text-anchor="start" x="1016.123" y="-1487.5" font-family="Arial" font-size="10.00" fill="#000000">FOREIGN KEY (&quot;storeID&quot;) REFERENCES stores(&quot;storeID&quot;) ON DELETE CASCADE</text>
</g>
<!-- public.orderListing -->
<g id="node2" class="node">
<title>public.orderListing</title>
<polygon fill="#efefef" stroke="transparent" points="43.5,-2462.5 43.5,-2497.5 330.5,-2497.5 330.5,-2462.5 43.5,-2462.5"/>
<polygon fill="none" stroke="#000000" points="43.5,-2462.5 43.5,-2497.5 330.5,-2497.5 330.5,-2462.5 43.5,-2462.5"/>
<text text-anchor="start" x="50.2053" y="-2475.3" font-family="Arial Bold" font-size="18.00" fill="#000000">public.orderListing</text>
<text text-anchor="start" x="196.2267" y="-2475.3" font-family="Arial" font-size="14.00" fill="#000000">    </text>
<text text-anchor="start" x="230.4315" y="-2475.3" font-family="Arial" font-size="14.00" fill="#666666">[BASE TABLE]</text>
<polygon fill="none" stroke="#000000" points="43.5,-2432.5 43.5,-2462.5 330.5,-2462.5 330.5,-2432.5 43.5,-2432.5"/>
<text text-anchor="start" x="50.5" y="-2443.9" font-family="Arial" font-size="14.00" fill="#000000">orderID    </text>
<text text-anchor="start" x="131.371" y="-2443.9" font-family="Arial" font-size="14.00" fill="#666666">[integer]</text>
<polygon fill="none" stroke="#000000" points="43.5,-2402.5 43.5,-2432.5 330.5,-2432.5 330.5,-2402.5 43.5,-2402.5"/>
<text text-anchor="start" x="50.5" y="-2413.9" font-family="Arial" font-size="14.00" fill="#000000">serviceID    </text>
<text text-anchor="start" x="143.0344" y="-2413.9" font-family="Arial" font-size="14.00" fill="#666666">[integer]</text>
<polygon fill="none" stroke="#000000" points="43.5,-2372.5 43.5,-2402.5 330.5,-2402.5 330.5,-2372.5 43.5,-2372.5"/>
<text text-anchor="start" x="50.5" y="-2383.9" font-family="Arial" font-size="14.00" fill="#000000">name    </text>
<text text-anchor="start" x="119.7132" y="-2383.9" font-family="Arial" font-size="14.00" fill="#666666">[varchar(256)]</text>
<polygon fill="none" stroke="#000000" points="43.5,-2342.5 43.5,-2372.5 330.5,-2372.5 330.5,-2342.5 43.5,-2342.5"/>
<text text-anchor="start" x="50.5" y="-2353.9" font-family="Arial" font-size="14.00" fill="#000000">amount    </text>
<text text-anchor="start" x="131.3864" y="-2353.9" font-family="Arial" font-size="14.00" fill="#666666">[integer]</text>
<polygon fill="none" stroke="#000000" points="43.5,-2312.5 43.5,-2342.5 330.5,-2342.5 330.5,-2312.5 43.5,-2312.5"/>
<text text-anchor="start" x="50.5" y="-2323.9" font-family="Arial" font-size="14.00" fill="#000000">serviceVariantID    </text>
<text text-anchor="start" x="187.3766" y="-2323.9" font-family="Arial" font-size="14.00" fill="#666666">[integer]</text>
<polygon fill="none" stroke="#000000" points="43.5,-2282.5 43.5,-2312.5 330.5,-2312.5 330.5,-2282.5 43.5,-2282.5"/>
<text text-anchor="start" x="50.5" y="-2293.9" font-family="Arial" font-size="14.00" fill="#000000">day1    </text>
<text text-anchor="start" x="115.0526" y="-2293.9" font-family="Arial" font-size="14.00" fill="#666666">[timestamp without time zone]</text>
<polygon fill="none" stroke="#000000" points="43.5,-2252.5 43.5,-2282.5 330.5,-2282.5 330.5,-2252.5 43.5,-2252.5"/>
<text text-anchor="start" x="50.5" y="-2263.9" font-family="Arial" font-size="14.00" fill="#000000">day1Work    </text>
<text text-anchor="start" x="147.7104" y="-2263.9" font-family="Arial" font-size="14.00" fill="#666666">[interval]</text>
<polygon fill="none" stroke="#000000" points="43.5,-2222.5 43.5,-2252.5 330.5,-2252.5 330.5,-2222.5 43.5,-2222.5"/>
<text text-anchor="start" x="50.5" y="-2233.9" font-family="Arial" font-size="14.00" fill="#000000">day1Employee    </text>
<text text-anchor="start" x="177.2868" y="-2233.9" font-family="Arial" font-size="14.00" fill="#666666">[integer]</text>
<polygon fill="none" stroke="#000000" points="43.5,-2192.5 43.5,-2222.5 330.5,-2222.5 330.5,-2192.5 43.5,-2192.5"/>
<text text-anchor="start" x="50.5" y="-2203.9" font-family="Arial" font-size="14.00" fill="#000000">day2    </text>
<text text-anchor="start" x="115.0526" y="-2203.9" font-family="Arial" font-size="14.00" fill="#666666">[timestamp without time zone]</text>
<polygon fill="none" stroke="#000000" points="43.5,-2162.5 43.5,-2192.5 330.5,-2192.5 330.5,-2162.5 43.5,-2162.5"/>
<text text-anchor="start" x="50.5" y="-2173.9" font-family="Arial" font-size="14.00" fill="#000000">day2Work    </text>
<text text-anchor="start" x="147.7104" y="-2173.9" font-family="Arial" font-size="14.00" fill="#666666">[interval]</text>
<polygon fill="none" stroke="#000000" points="43.5,-2132.5 43.5,-2162.5 330.5,-2162.5 330.5,-2132.5 43.5,-2132.5"/>
<text text-anchor="start" x="50.5" y="-2143.9" font-family="Arial" font-size="14.00" fill="#000000">day2Employee    </text>
<text text-anchor="start" x="177.2868" y="-2143.9" font-family="Arial" font-size="14.00" fill="#666666">[integer]</text>
<polygon fill="none" stroke="#000000" points="43.5,-2102.5 43.5,-2132.5 330.5,-2132.5 330.5,-2102.5 43.5,-2102.5"/>
<text text-anchor="start" x="50.5" y="-2113.9" font-family="Arial" font-size="14.00" fill="#000000">day3    </text>
<text text-anchor="start" x="115.0526" y="-2113.9" font-family="Arial" font-size="14.00" fill="#666666">[timestamp without time zone]</text>
<polygon fill="none" stroke="#000000" points="43.5,-2072.5 43.5,-2102.5 330.5,-2102.5 330.5,-2072.5 43.5,-2072.5"/>
<text text-anchor="start" x="50.5" y="-2083.9" font-family="Arial" font-size="14.00" fill="#000000">day3Work    </text>
<text text-anchor="start" x="147.7104" y="-2083.9" font-family="Arial" font-size="14.00" fill="#666666">[interval]</text>
<polygon fill="none" stroke="#000000" points="43.5,-2042.5 43.5,-2072.5 330.5,-2072.5 330.5,-2042.5 43.5,-2042.5"/>
<text text-anchor="start" x="50.5" y="-2053.9" font-family="Arial" font-size="14.00" fill="#000000">day3Employee    </text>
<text text-anchor="start" x="177.2868" y="-2053.9" font-family="Arial" font-size="14.00" fill="#666666">[integer]</text>
<polygon fill="none" stroke="#000000" points="43.5,-2012.5 43.5,-2042.5 330.5,-2042.5 330.5,-2012.5 43.5,-2012.5"/>
<text text-anchor="start" x="50.5" y="-2023.9" font-family="Arial" font-size="14.00" fill="#000000">day4    </text>
<text text-anchor="start" x="115.0526" y="-2023.9" font-family="Arial" font-size="14.00" fill="#666666">[timestamp without time zone]</text>
<polygon fill="none" stroke="#000000" points="43.5,-1982.5 43.5,-2012.5 330.5,-2012.5 330.5,-1982.5 43.5,-1982.5"/>
<text text-anchor="start" x="50.5" y="-1993.9" font-family="Arial" font-size="14.00" fill="#000000">day4Work    </text>
<text text-anchor="start" x="147.7104" y="-1993.9" font-family="Arial" font-size="14.00" fill="#666666">[interval]</text>
<polygon fill="none" stroke="#000000" points="43.5,-1952.5 43.5,-1982.5 330.5,-1982.5 330.5,-1952.5 43.5,-1952.5"/>
<text text-anchor="start" x="50.5" y="-1963.9" font-family="Arial" font-size="14.00" fill="#000000">day4Employee    </text>
<text text-anchor="start" x="177.2868" y="-1963.9" font-family="Arial" font-size="14.00" fill="#666666">[integer]</text>
<polygon fill="none" stroke="#000000" points="43.5,-1922.5 43.5,-1952.5 330.5,-1952.5 330.5,-1922.5 43.5,-1922.5"/>
<text text-anchor="start" x="50.5" y="-1933.9" font-family="Arial" font-size="14.00" fill="#000000">day5    </text>
<text text-anchor="start" x="115.0526" y="-1933.9" font-family="Arial" font-size="14.00" fill="#666666">[timestamp without time zone]</text>
<polygon fill="none" stroke="#000000" points="43.5,-1892.5 43.5,-1922.5 330.5,-1922.5 330.5,-1892.5 43.5,-1892.5"/>
<text text-anchor="start" x="50.5" y="-1903.9" font-family="Arial" font-size="14.00" fill="#000000">day5Work    </text>
<text text-anchor="start" x="147.7104" y="-1903.9" font-family="Arial" font-size="14.00" fill="#666666">[interval]</text>
<polygon fill="none" stroke="#000000" points="43.5,-1862.5 43.5,-1892.5 330.5,-1892.5 330.5,-1862.5 43.5,-1862.5"/>
<text text-anchor="start" x="50.5" y="-1873.9" font-family="Arial" font-size="14.00" fill="#000000">day5Employee    </text>
<text text-anchor="start" x="177.2868" y="-1873.9" font-family="Arial" font-size="14.00" fill="#666666">[integer]</text>
<polygon fill="none" stroke="#000000" points="43.5,-1832.5 43.5,-1862.5 330.5,-1862.5 330.5,-1832.5 43.5,-1832.5"/>
<text text-anchor="start" x="50.5" y="-1843.9" font-family="Arial" font-size="14.00" fill="#000000">cost    </text>
<text text-anchor="start" x="110.378" y="-1843.9" font-family="Arial" font-size="14.00" fill="#666666">[real]</text>
<polygon fill="none" stroke="#000000" points="43.5,-1802.5 43.5,-1832.5 330.5,-1832.5 330.5,-1802.5 43.5,-1802.5"/>
<text text-anchor="start" x="50.5" y="-1813.9" font-family="Arial" font-size="14.00" fill="#000000">currency    </text>
<text text-anchor="start" x="138.3738" y="-1813.9" font-family="Arial" font-size="14.00" fill="#666666">[varchar]</text>
<polygon fill="none" stroke="#000000" points="43.5,-1772.5 43.5,-1802.5 330.5,-1802.5 330.5,-1772.5 43.5,-1772.5"/>
<text text-anchor="start" x="50.5" y="-1783.9" font-family="Arial" font-size="14.00" fill="#000000">vatFree    </text>
<text text-anchor="start" x="132.1564" y="-1783.9" font-family="Arial" font-size="14.00" fill="#666666">[boolean]</text>
<polygon fill="none" stroke="#000000" points="43.5,-1742.5 43.5,-1772.5 330.5,-1772.5 330.5,-1742.5 43.5,-1742.5"/>
<text text-anchor="start" x="50.5" y="-1753.9" font-family="Arial" font-size="14.00" fill="#000000">orderNotes    </text>
<text text-anchor="start" x="153.9362" y="-1753.9" font-family="Arial" font-size="14.00" fill="#666666">[varchar]</text>
</g>
<!-- public.orderListing&#45;&gt;public.services -->
<g id="edge1" class="edge">
<title>public.orderListing:serviceID&#45;&gt;public.services:serviceID</title>
<path fill="none" stroke="#000000" d="M339.9558,-2413.9781C404.037,-2362.4155 335.4879,-1761.1022 381.5,-1700 433.0311,-1631.5688 657.8362,-1567.5 743.5,-1567.5"/>
<polygon fill="#000000" stroke="#000000" points="339.8711,-2414.0096 328.9293,-2413.283 335.1856,-2415.7548 330.5,-2417.5 330.5,-2417.5 330.5,-2417.5 335.1856,-2415.7548 332.0707,-2421.717 339.8711,-2414.0096 339.8711,-2414.0096"/>
<text text-anchor="start" x="337.963" y="-2427.5" font-family="Arial" font-size="10.00" fill="#000000">FOREIGN KEY (&quot;serviceID&quot;) REFERENCES services(&quot;serviceID&quot;) ON DELETE CASCADE</text>
</g>
<!-- public.serviceLocalQualifications -->
<g id="node3" class="node">
<title>public.serviceLocalQualifications</title>
<polygon fill="#efefef" stroke="transparent" points="434.5,-2132.5 434.5,-2167.5 835.5,-2167.5 835.5,-2132.5 434.5,-2132.5"/>
<polygon fill="none" stroke="#000000" points="434.5,-2132.5 434.5,-2167.5 835.5,-2167.5 835.5,-2132.5 434.5,-2132.5"/>
<text text-anchor="start" x="441.1984" y="-2145.3" font-family="Arial Bold" font-size="18.00" fill="#000000">public.serviceLocalQualifications</text>
<text text-anchor="start" x="701.2336" y="-2145.3" font-family="Arial" font-size="14.00" fill="#000000">    </text>
<text text-anchor="start" x="735.4384" y="-2145.3" font-family="Arial" font-size="14.00" fill="#666666">[BASE TABLE]</text>
<polygon fill="none" stroke="#000000" points="434.5,-2102.5 434.5,-2132.5 835.5,-2132.5 835.5,-2102.5 434.5,-2102.5"/>
<text text-anchor="start" x="441.5" y="-2113.9" font-family="Arial" font-size="14.00" fill="#000000">serviceID    </text>
<text text-anchor="start" x="534.0344" y="-2113.9" font-family="Arial" font-size="14.00" fill="#666666">[integer]</text>
<polygon fill="none" stroke="#000000" points="434.5,-2072.5 434.5,-2102.5 835.5,-2102.5 835.5,-2072.5 434.5,-2072.5"/>
<text text-anchor="start" x="441.5" y="-2083.9" font-family="Arial" font-size="14.00" fill="#000000">localQualID    </text>
<text text-anchor="start" x="548.0428" y="-2083.9" font-family="Arial" font-size="14.00" fill="#666666">[integer]</text>
</g>
<!-- public.serviceLocalQualifications&#45;&gt;public.services -->
<g id="edge2" class="edge">
<title>public.serviceLocalQualifications:serviceID&#45;&gt;public.services:serviceID</title>
<path fill="none" stroke="#000000" d="M845.5051,-2116.0183C939.2691,-2084.7033 623.3312,-1567.5 743.5,-1567.5"/>
<polygon fill="#000000" stroke="#000000" points="845.3921,-2116.035 834.8407,-2113.0485 840.4461,-2116.7675 835.5,-2117.5 835.5,-2117.5 835.5,-2117.5 840.4461,-2116.7675 836.1593,-2121.9515 845.3921,-2116.035 845.3921,-2116.035"/>
<text text-anchor="start" x="842.244" y="-2127.5" font-family="Arial" font-size="10.00" fill="#000000">FOREIGN KEY (&quot;serviceID&quot;) REFERENCES services(&quot;serviceID&quot;)</text>
</g>
<!-- public.serviceQualifications -->
<g id="node4" class="node">
<title>public.serviceQualifications</title>
<polygon fill="#efefef" stroke="transparent" points="939.5,-2132.5 939.5,-2167.5 1297.5,-2167.5 1297.5,-2132.5 939.5,-2132.5"/>
<polygon fill="none" stroke="#000000" points="939.5,-2132.5 939.5,-2167.5 1297.5,-2167.5 1297.5,-2132.5 939.5,-2132.5"/>
<text text-anchor="start" x="946.2048" y="-2145.3" font-family="Arial Bold" font-size="18.00" fill="#000000">public.serviceQualifications</text>
<text text-anchor="start" x="1163.2272" y="-2145.3" font-family="Arial" font-size="14.00" fill="#000000">    </text>
<text text-anchor="start" x="1197.432" y="-2145.3" font-family="Arial" font-size="14.00" fill="#666666">[BASE TABLE]</text>
<polygon fill="none" stroke="#000000" points="939.5,-2102.5 939.5,-2132.5 1297.5,-2132.5 1297.5,-2102.5 939.5,-2102.5"/>
<text text-anchor="start" x="946.5" y="-2113.9" font-family="Arial" font-size="14.00" fill="#000000">serviceID    </text>
<text text-anchor="start" x="1039.0344" y="-2113.9" font-family="Arial" font-size="14.00" fill="#666666">[integer]</text>
<polygon fill="none" stroke="#000000" points="939.5,-2072.5 939.5,-2102.5 1297.5,-2102.5 1297.5,-2072.5 939.5,-2072.5"/>
<text text-anchor="start" x="946.5" y="-2083.9" font-family="Arial" font-size="14.00" fill="#000000">globalQualID    </text>
<text text-anchor="start" x="1061.608" y="-2083.9" font-family="Arial" font-size="14.00" fill="#666666">[integer]</text>
</g>
<!-- public.serviceQualifications&#45;&gt;public.services -->
<g id="edge3" class="edge">
<title>public.serviceQualifications:serviceID&#45;&gt;public.services:serviceID</title>
<path fill="none" stroke="#000000" d="M929.4945,-2116.0183C835.047,-2084.7033 1128.9782,-1567.5 1009.5,-1567.5"/>
<polygon fill="#000000" stroke="#000000" points="929.6079,-2116.035 938.8408,-2121.9515 934.5539,-2116.7675 939.5,-2117.5 939.5,-2117.5 939.5,-2117.5 934.5539,-2116.7675 940.1592,-2113.0485 929.6079,-2116.035 929.6079,-2116.035"/>
<text text-anchor="start" x="946.244" y="-2101.5" font-family="Arial" font-size="10.00" fill="#000000">FOREIGN KEY (&quot;serviceID&quot;) REFERENCES services(&quot;serviceID&quot;)</text>
</g>
<!-- public.serviceVariants -->
<g id="node5" class="node">
<title>public.serviceVariants</title>
<polygon fill="#efefef" stroke="transparent" points="1401.5,-2297.5 1401.5,-2332.5 1717.5,-2332.5 1717.5,-2297.5 1401.5,-2297.5"/>
<polygon fill="none" stroke="#000000" points="1401.5,-2297.5 1401.5,-2332.5 1717.5,-2332.5 1717.5,-2297.5 1401.5,-2297.5"/>
<text text-anchor="start" x="1408.2063" y="-2310.3" font-family="Arial Bold" font-size="18.00" fill="#000000">public.serviceVariants</text>
<text text-anchor="start" x="1583.2257" y="-2310.3" font-family="Arial" font-size="14.00" fill="#000000">    </text>
<text text-anchor="start" x="1617.4305" y="-2310.3" font-family="Arial" font-size="14.00" fill="#666666">[BASE TABLE]</text>
<polygon fill="none" stroke="#000000" points="1401.5,-2267.5 1401.5,-2297.5 1717.5,-2297.5 1717.5,-2267.5 1401.5,-2267.5"/>
<text text-anchor="start" x="1408.5" y="-2278.9" font-family="Arial" font-size="14.00" fill="#000000">serviceVariantID    </text>
<text text-anchor="start" x="1545.3766" y="-2278.9" font-family="Arial" font-size="14.00" fill="#666666">[integer]</text>
<polygon fill="none" stroke="#000000" points="1401.5,-2237.5 1401.5,-2267.5 1717.5,-2267.5 1717.5,-2237.5 1401.5,-2237.5"/>
<text text-anchor="start" x="1408.5" y="-2248.9" font-family="Arial" font-size="14.00" fill="#000000">name    </text>
<text text-anchor="start" x="1477.7132" y="-2248.9" font-family="Arial" font-size="14.00" fill="#666666">[varchar(256)]</text>
<polygon fill="none" stroke="#000000" points="1401.5,-2207.5 1401.5,-2237.5 1717.5,-2237.5 1717.5,-2207.5 1401.5,-2207.5"/>
<text text-anchor="start" x="1408.5" y="-2218.9" font-family="Arial" font-size="14.00" fill="#000000">cost    </text>
<text text-anchor="start" x="1468.378" y="-2218.9" font-family="Arial" font-size="14.00" fill="#666666">[real]</text>
<polygon fill="none" stroke="#000000" points="1401.5,-2177.5 1401.5,-2207.5 1717.5,-2207.5 1717.5,-2177.5 1401.5,-2177.5"/>
<text text-anchor="start" x="1408.5" y="-2188.9" font-family="Arial" font-size="14.00" fill="#000000">currency    </text>
<text text-anchor="start" x="1496.3738" y="-2188.9" font-family="Arial" font-size="14.00" fill="#666666">[varchar(5)]</text>
<polygon fill="none" stroke="#000000" points="1401.5,-2147.5 1401.5,-2177.5 1717.5,-2177.5 1717.5,-2147.5 1401.5,-2147.5"/>
<text text-anchor="start" x="1408.5" y="-2158.9" font-family="Arial" font-size="14.00" fill="#000000">award    </text>
<text text-anchor="start" x="1480.8198" y="-2158.9" font-family="Arial" font-size="14.00" fill="#666666">[real]</text>
<polygon fill="none" stroke="#000000" points="1401.5,-2117.5 1401.5,-2147.5 1717.5,-2147.5 1717.5,-2117.5 1401.5,-2117.5"/>
<text text-anchor="start" x="1408.5" y="-2128.9" font-family="Arial" font-size="14.00" fill="#000000">day1    </text>
<text text-anchor="start" x="1473.0526" y="-2128.9" font-family="Arial" font-size="14.00" fill="#666666">[interval]</text>
<polygon fill="none" stroke="#000000" points="1401.5,-2087.5 1401.5,-2117.5 1717.5,-2117.5 1717.5,-2087.5 1401.5,-2087.5"/>
<text text-anchor="start" x="1408.5" y="-2098.9" font-family="Arial" font-size="14.00" fill="#000000">day2    </text>
<text text-anchor="start" x="1473.0526" y="-2098.9" font-family="Arial" font-size="14.00" fill="#666666">[interval]</text>
<polygon fill="none" stroke="#000000" points="1401.5,-2057.5 1401.5,-2087.5 1717.5,-2087.5 1717.5,-2057.5 1401.5,-2057.5"/>
<text text-anchor="start" x="1408.5" y="-2068.9" font-family="Arial" font-size="14.00" fill="#000000">day3    </text>
<text text-anchor="start" x="1473.0526" y="-2068.9" font-family="Arial" font-size="14.00" fill="#666666">[interval]</text>
<polygon fill="none" stroke="#000000" points="1401.5,-2027.5 1401.5,-2057.5 1717.5,-2057.5 1717.5,-2027.5 1401.5,-2027.5"/>
<text text-anchor="start" x="1408.5" y="-2038.9" font-family="Arial" font-size="14.00" fill="#000000">day4    </text>
<text text-anchor="start" x="1473.0526" y="-2038.9" font-family="Arial" font-size="14.00" fill="#666666">[interval]</text>
<polygon fill="none" stroke="#000000" points="1401.5,-1997.5 1401.5,-2027.5 1717.5,-2027.5 1717.5,-1997.5 1401.5,-1997.5"/>
<text text-anchor="start" x="1408.5" y="-2008.9" font-family="Arial" font-size="14.00" fill="#000000">day5    </text>
<text text-anchor="start" x="1473.0526" y="-2008.9" font-family="Arial" font-size="14.00" fill="#666666">[interval]</text>
<polygon fill="none" stroke="#000000" points="1401.5,-1967.5 1401.5,-1997.5 1717.5,-1997.5 1717.5,-1967.5 1401.5,-1967.5"/>
<text text-anchor="start" x="1408.5" y="-1978.9" font-family="Arial" font-size="14.00" fill="#000000">serviceID    </text>
<text text-anchor="start" x="1501.0344" y="-1978.9" font-family="Arial" font-size="14.00" fill="#666666">[integer]</text>
<polygon fill="none" stroke="#000000" points="1401.5,-1937.5 1401.5,-1967.5 1717.5,-1967.5 1717.5,-1937.5 1401.5,-1937.5"/>
<text text-anchor="start" x="1408.5" y="-1948.9" font-family="Arial" font-size="14.00" fill="#000000">createdAt    </text>
<text text-anchor="start" x="1502.6136" y="-1948.9" font-family="Arial" font-size="14.00" fill="#666666">[timestamp without time zone]</text>
<polygon fill="none" stroke="#000000" points="1401.5,-1907.5 1401.5,-1937.5 1717.5,-1937.5 1717.5,-1907.5 1401.5,-1907.5"/>
<text text-anchor="start" x="1408.5" y="-1918.9" font-family="Arial" font-size="14.00" fill="#000000">updatedAt    </text>
<text text-anchor="start" x="1506.5182" y="-1918.9" font-family="Arial" font-size="14.00" fill="#666666">[timestamp without time zone]</text>
</g>
<!-- public.serviceVariants&#45;&gt;public.services -->
<g id="edge4" class="edge">
<title>public.serviceVariants:serviceID&#45;&gt;public.services:serviceID</title>
<path fill="none" stroke="#000000" d="M1391.735,-1980.3305C1343.3153,-1956.6627 1387.8588,-1746.4185 1349.5,-1700 1246.1893,-1574.9825 1171.6804,-1567.5 1009.5,-1567.5"/>
<polygon fill="#000000" stroke="#000000" points="1391.738,-1980.3311 1400.524,-1986.8929 1396.619,-1981.4156 1401.5,-1982.5 1401.5,-1982.5 1401.5,-1982.5 1396.619,-1981.4156 1402.476,-1978.1071 1391.738,-1980.3311 1391.738,-1980.3311"/>
<text text-anchor="start" x="1102.244" y="-1992.5" font-family="Arial" font-size="10.00" fill="#000000">FOREIGN KEY (&quot;serviceID&quot;) REFERENCES services(&quot;serviceID&quot;)</text>
</g>
</g>
</svg>
