<?xml version="1.0" encoding="UTF-8" standalone="no"?>
<!DOCTYPE svg PUBLIC "-//W3C//DTD SVG 1.1//EN"
 "http://www.w3.org/Graphics/SVG/1.1/DTD/svg11.dtd">
<!-- Generated by graphviz version 2.40.1 (20161225.0304)
 -->
<!-- Title: public.employeeSpecialHours Pages: 1 -->
<svg width="1226pt" height="1222pt"
 viewBox="0.00 0.00 1226.00 1222.00" xmlns="http://www.w3.org/2000/svg" xmlns:xlink="http://www.w3.org/1999/xlink">
<g id="graph0" class="graph" transform="scale(1 1) rotate(0) translate(4 1218)">
<title>public.employeeSpecialHours</title>
<polygon fill="#ffffff" stroke="transparent" points="-4,4 -4,-1218 1222,-1218 1222,4 -4,4"/>
<!-- public.employeeSpecialHours -->
<g id="node1" class="node">
<title>public.employeeSpecialHours</title>
<polygon fill="#efefef" stroke="transparent" points="452,-1132.5 452,-1167.5 830,-1167.5 830,-1132.5 452,-1132.5"/>
<polygon fill="none" stroke="#000000" points="452,-1132.5 452,-1167.5 830,-1167.5 830,-1132.5 452,-1132.5"/>
<text text-anchor="start" x="458.6977" y="-1145.3" font-family="Arial Bold" font-size="18.00" fill="#000000">public.employeeSpecialHours</text>
<text text-anchor="start" x="695.7343" y="-1145.3" font-family="Arial" font-size="14.00" fill="#000000">    </text>
<text text-anchor="start" x="729.9391" y="-1145.3" font-family="Arial" font-size="14.00" fill="#666666">[BASE TABLE]</text>
<polygon fill="none" stroke="#000000" points="452,-1102.5 452,-1132.5 830,-1132.5 830,-1102.5 452,-1102.5"/>
<text text-anchor="start" x="459" y="-1113.9" font-family="Arial" font-size="14.00" fill="#000000">employeeSpecialHoursID </text>
<text text-anchor="start" x="620.798" y="-1113.9" font-family="Arial" font-size="14.00" fill="#666666">[integer]</text>
<polygon fill="none" stroke="#000000" points="452,-1072.5 452,-1102.5 830,-1102.5 830,-1072.5 452,-1072.5"/>
<text text-anchor="start" x="459" y="-1083.9" font-family="Arial" font-size="14.00" fill="#000000">employeeID </text>
<text text-anchor="start" x="537.568" y="-1083.9" font-family="Arial" font-size="14.00" fill="#666666">[integer]</text>
<polygon fill="none" stroke="#000000" points="452,-1042.5 452,-1072.5 830,-1072.5 830,-1042.5 452,-1042.5"/>
<text text-anchor="start" x="459" y="-1053.9" font-family="Arial" font-size="14.00" fill="#000000">storeID </text>
<text text-anchor="start" x="508.0042" y="-1053.9" font-family="Arial" font-size="14.00" fill="#666666">[integer]</text>
<polygon fill="none" stroke="#000000" points="452,-1012.5 452,-1042.5 830,-1042.5 830,-1012.5 452,-1012.5"/>
<text text-anchor="start" x="459" y="-1023.9" font-family="Arial" font-size="14.00" fill="#000000">start </text>
<text text-anchor="start" x="490.115" y="-1023.9" font-family="Arial" font-size="14.00" fill="#666666">[date]</text>
<polygon fill="none" stroke="#000000" points="452,-982.5 452,-1012.5 830,-1012.5 830,-982.5 452,-982.5"/>
<text text-anchor="start" x="459" y="-993.9" font-family="Arial" font-size="14.00" fill="#000000">end </text>
<text text-anchor="start" x="486.2384" y="-993.9" font-family="Arial" font-size="14.00" fill="#666666">[date]</text>
<polygon fill="none" stroke="#000000" points="452,-952.5 452,-982.5 830,-982.5 830,-952.5 452,-952.5"/>
<text text-anchor="start" x="459" y="-963.9" font-family="Arial" font-size="14.00" fill="#000000">description </text>
<text text-anchor="start" x="530.568" y="-963.9" font-family="Arial" font-size="14.00" fill="#666666">[varchar]</text>
<polygon fill="none" stroke="#000000" points="452,-922.5 452,-952.5 830,-952.5 830,-922.5 452,-922.5"/>
<text text-anchor="start" x="459" y="-933.9" font-family="Arial" font-size="14.00" fill="#000000">absence </text>
<text text-anchor="start" x="515.8036" y="-933.9" font-family="Arial" font-size="14.00" fill="#666666">[boolean]</text>
<polygon fill="none" stroke="#000000" stroke-width="3" points="450.5,-921.5 450.5,-1169.5 831.5,-1169.5 831.5,-921.5 450.5,-921.5"/>
</g>
<!-- public.employees -->
<g id="node2" class="node">
<title>public.employees</title>
<polygon fill="#efefef" stroke="transparent" points="292,-597.5 292,-632.5 589,-632.5 589,-597.5 292,-597.5"/>
<polygon fill="none" stroke="#000000" points="292,-597.5 292,-632.5 589,-632.5 589,-597.5 292,-597.5"/>
<text text-anchor="start" x="307.2027" y="-610.3" font-family="Arial Bold" font-size="18.00" fill="#000000">public.employees</text>
<text text-anchor="start" x="446.2293" y="-610.3" font-family="Arial" font-size="14.00" fill="#000000">    </text>
<text text-anchor="start" x="480.4341" y="-610.3" font-family="Arial" font-size="14.00" fill="#666666">[BASE TABLE]</text>
<polygon fill="none" stroke="#000000" points="292,-567.5 292,-597.5 589,-597.5 589,-567.5 292,-567.5"/>
<text text-anchor="start" x="299" y="-578.9" font-family="Arial" font-size="14.00" fill="#000000">userID    </text>
<text text-anchor="start" x="374.4278" y="-578.9" font-family="Arial" font-size="14.00" fill="#666666">[integer]</text>
<polygon fill="none" stroke="#000000" points="292,-537.5 292,-567.5 589,-567.5 589,-537.5 292,-537.5"/>
<text text-anchor="start" x="299" y="-548.9" font-family="Arial" font-size="14.00" fill="#000000">employeeID    </text>
<text text-anchor="start" x="407.8822" y="-548.9" font-family="Arial" font-size="14.00" fill="#666666">[integer]</text>
<polygon fill="none" stroke="#000000" points="292,-507.5 292,-537.5 589,-537.5 589,-507.5 292,-507.5"/>
<text text-anchor="start" x="299" y="-518.9" font-family="Arial" font-size="14.00" fill="#000000">shortUserName    </text>
<text text-anchor="start" x="431.2034" y="-518.9" font-family="Arial" font-size="14.00" fill="#666666">[varchar(16)]</text>
<polygon fill="none" stroke="#000000" points="292,-477.5 292,-507.5 589,-507.5 589,-477.5 292,-477.5"/>
<text text-anchor="start" x="299" y="-488.9" font-family="Arial" font-size="14.00" fill="#000000">employmentNumber    </text>
<text text-anchor="start" x="459.2118" y="-488.9" font-family="Arial" font-size="14.00" fill="#666666">[varchar(128)]</text>
<polygon fill="none" stroke="#000000" points="292,-447.5 292,-477.5 589,-477.5 589,-447.5 292,-447.5"/>
<text text-anchor="start" x="299" y="-458.9" font-family="Arial" font-size="14.00" fill="#000000">employeePersonalNumber    </text>
<text text-anchor="start" x="498.8948" y="-458.9" font-family="Arial" font-size="14.00" fill="#666666">[varchar(16)]</text>
<polygon fill="none" stroke="#000000" points="292,-417.5 292,-447.5 589,-447.5 589,-417.5 292,-417.5"/>
<text text-anchor="start" x="299" y="-428.9" font-family="Arial" font-size="14.00" fill="#000000">signature    </text>
<text text-anchor="start" x="390.7756" y="-428.9" font-family="Arial" font-size="14.00" fill="#666666">[varchar(4)]</text>
<polygon fill="none" stroke="#000000" points="292,-387.5 292,-417.5 589,-417.5 589,-387.5 292,-387.5"/>
<text text-anchor="start" x="299" y="-398.9" font-family="Arial" font-size="14.00" fill="#000000">employeeHourlyRate    </text>
<text text-anchor="start" x="463.8864" y="-398.9" font-family="Arial" font-size="14.00" fill="#666666">[real]</text>
<polygon fill="none" stroke="#000000" points="292,-357.5 292,-387.5 589,-387.5 589,-357.5 292,-357.5"/>
<text text-anchor="start" x="299" y="-368.9" font-family="Arial" font-size="14.00" fill="#000000">employeeHourlyRateCurrency    </text>
<text text-anchor="start" x="520.662" y="-368.9" font-family="Arial" font-size="14.00" fill="#666666">[varchar]</text>
<polygon fill="none" stroke="#000000" points="292,-327.5 292,-357.5 589,-357.5 589,-327.5 292,-327.5"/>
<text text-anchor="start" x="299" y="-338.9" font-family="Arial" font-size="14.00" fill="#000000">employeePin    </text>
<text text-anchor="start" x="414.1108" y="-338.9" font-family="Arial" font-size="14.00" fill="#666666">[varchar(4)]</text>
<polygon fill="none" stroke="#000000" points="292,-297.5 292,-327.5 589,-327.5 589,-297.5 292,-297.5"/>
<text text-anchor="start" x="299" y="-308.9" font-family="Arial" font-size="14.00" fill="#000000">employeeComment    </text>
<text text-anchor="start" x="454.5512" y="-308.9" font-family="Arial" font-size="14.00" fill="#666666">[varchar]</text>
<polygon fill="none" stroke="#000000" points="292,-267.5 292,-297.5 589,-297.5 589,-267.5 292,-267.5"/>
<text text-anchor="start" x="299" y="-278.9" font-family="Arial" font-size="14.00" fill="#000000">employeeActive    </text>
<text text-anchor="start" x="432.0014" y="-278.9" font-family="Arial" font-size="14.00" fill="#666666">[boolean]</text>
<polygon fill="none" stroke="#000000" points="292,-237.5 292,-267.5 589,-267.5 589,-237.5 292,-237.5"/>
<text text-anchor="start" x="299" y="-248.9" font-family="Arial" font-size="14.00" fill="#000000">createdAt    </text>
<text text-anchor="start" x="393.1136" y="-248.9" font-family="Arial" font-size="14.00" fill="#666666">[timestamp without time zone]</text>
<polygon fill="none" stroke="#000000" points="292,-207.5 292,-237.5 589,-237.5 589,-207.5 292,-207.5"/>
<text text-anchor="start" x="298.9208" y="-218.9" font-family="Arial" font-size="14.00" fill="#000000">updatedAt    </text>
<text text-anchor="start" x="396.939" y="-218.9" font-family="Arial" font-size="14.00" fill="#666666">[timestamp without time zone]</text>
</g>
<!-- public.employeeSpecialHours&#45;&gt;public.employees -->
<g id="edge1" class="edge">
<title>public.employeeSpecialHours:employeeID&#45;&gt;public.employees:employeeID</title>
<path fill="none" stroke="#000000" d="M441.755,-1086.9548C363.5409,-1078.0875 425.507,-962.9088 452,-877 483.8592,-773.6903 557.1408,-779.3097 589,-676 605.1753,-623.5486 643.8889,-552.5 589,-552.5"/>
<polygon fill="#000000" stroke="#000000" points="442.0141,-1086.9685 451.7608,-1091.9936 447.0071,-1087.2342 452,-1087.5 452,-1087.5 452,-1087.5 447.0071,-1087.2342 452.2392,-1083.0064 442.0141,-1086.9685 442.0141,-1086.9685"/>
<text text-anchor="start" x="6.9475" y="-1097.5" font-family="Arial" font-size="10.00" fill="#000000">FOREIGN KEY (&quot;employeeID&quot;) REFERENCES employees(&quot;employeeID&quot;) ON DELETE CASCADE</text>
</g>
<!-- public.stores -->
<g id="node3" class="node">
<title>public.stores</title>
<polygon fill="#efefef" stroke="transparent" points="693,-762.5 693,-797.5 990,-797.5 990,-762.5 693,-762.5"/>
<polygon fill="none" stroke="#000000" points="693,-762.5 693,-797.5 990,-797.5 990,-762.5 693,-762.5"/>
<text text-anchor="start" x="727.208" y="-775.3" font-family="Arial Bold" font-size="18.00" fill="#000000">public.stores</text>
<text text-anchor="start" x="828.224" y="-775.3" font-family="Arial" font-size="14.00" fill="#000000">    </text>
<text text-anchor="start" x="862.4288" y="-775.3" font-family="Arial" font-size="14.00" fill="#666666">[BASE TABLE]</text>
<polygon fill="none" stroke="#000000" points="693,-732.5 693,-762.5 990,-762.5 990,-732.5 693,-732.5"/>
<text text-anchor="start" x="700" y="-743.9" font-family="Arial" font-size="14.00" fill="#000000">storeID    </text>
<text text-anchor="start" x="779.3184" y="-743.9" font-family="Arial" font-size="14.00" fill="#666666">[integer]</text>
<polygon fill="none" stroke="#000000" points="693,-702.5 693,-732.5 990,-732.5 990,-702.5 693,-702.5"/>
<text text-anchor="start" x="700" y="-713.9" font-family="Arial" font-size="14.00" fill="#000000">storeOrgNumber    </text>
<text text-anchor="start" x="838.4306" y="-713.9" font-family="Arial" font-size="14.00" fill="#666666">[varchar(11)]</text>
<polygon fill="none" stroke="#000000" points="693,-672.5 693,-702.5 990,-702.5 990,-672.5 693,-672.5"/>
<text text-anchor="start" x="700" y="-683.9" font-family="Arial" font-size="14.00" fill="#000000">storeName    </text>
<text text-anchor="start" x="802.6536" y="-683.9" font-family="Arial" font-size="14.00" fill="#666666">[varchar(128)]</text>
<polygon fill="none" stroke="#000000" points="693,-642.5 693,-672.5 990,-672.5 990,-642.5 693,-642.5"/>
<text text-anchor="start" x="700" y="-653.9" font-family="Arial" font-size="14.00" fill="#000000">storeWebSite    </text>
<text text-anchor="start" x="818.2174" y="-653.9" font-family="Arial" font-size="14.00" fill="#666666">[varchar]</text>
<polygon fill="none" stroke="#000000" points="693,-612.5 693,-642.5 990,-642.5 990,-612.5 693,-612.5"/>
<text text-anchor="start" x="700" y="-623.9" font-family="Arial" font-size="14.00" fill="#000000">storeVatNumber    </text>
<text text-anchor="start" x="836.1066" y="-623.9" font-family="Arial" font-size="14.00" fill="#666666">[varchar(32)]</text>
<polygon fill="none" stroke="#000000" points="693,-582.5 693,-612.5 990,-612.5 990,-582.5 693,-582.5"/>
<text text-anchor="start" x="700" y="-593.9" font-family="Arial" font-size="14.00" fill="#000000">storeFSkatt    </text>
<text text-anchor="start" x="805.7742" y="-593.9" font-family="Arial" font-size="14.00" fill="#666666">[boolean]</text>
<polygon fill="none" stroke="#000000" points="693,-552.5 693,-582.5 990,-582.5 990,-552.5 693,-552.5"/>
<text text-anchor="start" x="700" y="-563.9" font-family="Arial" font-size="14.00" fill="#000000">storeStatus    </text>
<text text-anchor="start" x="805.0042" y="-563.9" font-family="Arial" font-size="14.00" fill="#666666">[boolean]</text>
<polygon fill="none" stroke="#000000" points="693,-522.5 693,-552.5 990,-552.5 990,-522.5 693,-522.5"/>
<text text-anchor="start" x="700" y="-533.9" font-family="Arial" font-size="14.00" fill="#000000">storeEmail    </text>
<text text-anchor="start" x="800.3142" y="-533.9" font-family="Arial" font-size="14.00" fill="#666666">[varchar]</text>
<polygon fill="none" stroke="#000000" points="693,-492.5 693,-522.5 990,-522.5 990,-492.5 693,-492.5"/>
<text text-anchor="start" x="700" y="-503.9" font-family="Arial" font-size="14.00" fill="#000000">storePhone    </text>
<text text-anchor="start" x="805.7882" y="-503.9" font-family="Arial" font-size="14.00" fill="#666666">[varchar]</text>
<polygon fill="none" stroke="#000000" points="693,-462.5 693,-492.5 990,-492.5 990,-462.5 693,-462.5"/>
<text text-anchor="start" x="700" y="-473.9" font-family="Arial" font-size="14.00" fill="#000000">storeAddress    </text>
<text text-anchor="start" x="816.6662" y="-473.9" font-family="Arial" font-size="14.00" fill="#666666">[varchar]</text>
<polygon fill="none" stroke="#000000" points="693,-432.5 693,-462.5 990,-462.5 990,-432.5 693,-432.5"/>
<text text-anchor="start" x="700" y="-443.9" font-family="Arial" font-size="14.00" fill="#000000">storeZipCode    </text>
<text text-anchor="start" x="818.2174" y="-443.9" font-family="Arial" font-size="14.00" fill="#666666">[varchar(16)]</text>
<polygon fill="none" stroke="#000000" points="693,-402.5 693,-432.5 990,-432.5 990,-402.5 693,-402.5"/>
<text text-anchor="start" x="700" y="-413.9" font-family="Arial" font-size="14.00" fill="#000000">storeCity    </text>
<text text-anchor="start" x="789.425" y="-413.9" font-family="Arial" font-size="14.00" fill="#666666">[varchar]</text>
<polygon fill="none" stroke="#000000" points="693,-372.5 693,-402.5 990,-402.5 990,-372.5 693,-372.5"/>
<text text-anchor="start" x="700" y="-383.9" font-family="Arial" font-size="14.00" fill="#000000">storeCountry    </text>
<text text-anchor="start" x="814.3268" y="-383.9" font-family="Arial" font-size="14.00" fill="#666666">[varchar]</text>
<polygon fill="none" stroke="#000000" points="693,-342.5 693,-372.5 990,-372.5 990,-342.5 693,-342.5"/>
<text text-anchor="start" x="700" y="-353.9" font-family="Arial" font-size="14.00" fill="#000000">storeDescription    </text>
<text text-anchor="start" x="835.3226" y="-353.9" font-family="Arial" font-size="14.00" fill="#666666">[varchar]</text>
<polygon fill="none" stroke="#000000" points="693,-312.5 693,-342.5 990,-342.5 990,-312.5 693,-312.5"/>
<text text-anchor="start" x="700" y="-323.9" font-family="Arial" font-size="14.00" fill="#000000">storeContactPerson    </text>
<text text-anchor="start" x="857.9018" y="-323.9" font-family="Arial" font-size="14.00" fill="#666666">[varchar(64)]</text>
<polygon fill="none" stroke="#000000" points="693,-282.5 693,-312.5 990,-312.5 990,-282.5 693,-282.5"/>
<text text-anchor="start" x="700" y="-293.9" font-family="Arial" font-size="14.00" fill="#000000">storeMaxUsers    </text>
<text text-anchor="start" x="828.3142" y="-293.9" font-family="Arial" font-size="14.00" fill="#666666">[integer]</text>
<polygon fill="none" stroke="#000000" points="693,-252.5 693,-282.5 990,-282.5 990,-252.5 693,-252.5"/>
<text text-anchor="start" x="700" y="-263.9" font-family="Arial" font-size="14.00" fill="#000000">currency    </text>
<text text-anchor="start" x="787.8738" y="-263.9" font-family="Arial" font-size="14.00" fill="#666666">[varchar]</text>
<polygon fill="none" stroke="#000000" points="693,-222.5 693,-252.5 990,-252.5 990,-222.5 693,-222.5"/>
<text text-anchor="start" x="700" y="-233.9" font-family="Arial" font-size="14.00" fill="#000000">storeAllowCarAPI    </text>
<text text-anchor="start" x="843.8738" y="-233.9" font-family="Arial" font-size="14.00" fill="#666666">[boolean]</text>
<polygon fill="none" stroke="#000000" points="693,-192.5 693,-222.5 990,-222.5 990,-192.5 693,-192.5"/>
<text text-anchor="start" x="700" y="-203.9" font-family="Arial" font-size="14.00" fill="#000000">storeAllowSendSMS    </text>
<text text-anchor="start" x="861.7784" y="-203.9" font-family="Arial" font-size="14.00" fill="#666666">[boolean]</text>
<polygon fill="none" stroke="#000000" points="693,-162.5 693,-192.5 990,-192.5 990,-162.5 693,-162.5"/>
<text text-anchor="start" x="700" y="-173.9" font-family="Arial" font-size="14.00" fill="#000000">storeSendSMS    </text>
<text text-anchor="start" x="828.3394" y="-173.9" font-family="Arial" font-size="14.00" fill="#666666">[boolean]</text>
<polygon fill="none" stroke="#000000" points="693,-132.5 693,-162.5 990,-162.5 990,-132.5 693,-132.5"/>
<text text-anchor="start" x="700" y="-143.9" font-family="Arial" font-size="14.00" fill="#000000">storeUsesCheckin    </text>
<text text-anchor="start" x="847.7714" y="-143.9" font-family="Arial" font-size="14.00" fill="#666666">[boolean]</text>
<polygon fill="none" stroke="#000000" points="693,-102.5 693,-132.5 990,-132.5 990,-102.5 693,-102.5"/>
<text text-anchor="start" x="700" y="-113.9" font-family="Arial" font-size="14.00" fill="#000000">storeUsesPIN    </text>
<text text-anchor="start" x="820.5442" y="-113.9" font-family="Arial" font-size="14.00" fill="#666666">[boolean]</text>
<polygon fill="none" stroke="#000000" points="693,-72.5 693,-102.5 990,-102.5 990,-72.5 693,-72.5"/>
<text text-anchor="start" x="700" y="-83.9" font-family="Arial" font-size="14.00" fill="#000000">createdAt    </text>
<text text-anchor="start" x="794.1136" y="-83.9" font-family="Arial" font-size="14.00" fill="#666666">[timestamp without time zone]</text>
<polygon fill="none" stroke="#000000" points="693,-42.5 693,-72.5 990,-72.5 990,-42.5 693,-42.5"/>
<text text-anchor="start" x="699.9208" y="-53.9" font-family="Arial" font-size="14.00" fill="#000000">updatedAt    </text>
<text text-anchor="start" x="797.939" y="-53.9" font-family="Arial" font-size="14.00" fill="#666666">[timestamp without time zone]</text>
</g>
<!-- public.employeeSpecialHours&#45;&gt;public.stores -->
<g id="edge2" class="edge">
<title>public.employeeSpecialHours:storeID&#45;&gt;public.stores:storeID</title>
<path fill="none" stroke="#000000" d="M840.145,-1056.8073C907.3804,-1047.0985 876.7892,-937.6726 830,-877 791.5542,-827.1465 731.4458,-890.8535 693,-841 667.623,-808.093 651.4444,-747.5 693,-747.5"/>
<polygon fill="#000000" stroke="#000000" points="839.9768,-1056.8187 829.6934,-1053.0105 834.9884,-1057.1593 830,-1057.5 830,-1057.5 830,-1057.5 834.9884,-1057.1593 830.3066,-1061.9895 839.9768,-1056.8187 839.9768,-1056.8187"/>
<text text-anchor="start" x="836.623" y="-1067.5" font-family="Arial" font-size="10.00" fill="#000000">FOREIGN KEY (&quot;storeID&quot;) REFERENCES stores(&quot;storeID&quot;) ON DELETE CASCADE</text>
</g>
</g>
</svg>
