<?xml version="1.0" encoding="UTF-8" standalone="no"?>
<!DOCTYPE svg PUBLIC "-//W3C//DTD SVG 1.1//EN"
 "http://www.w3.org/Graphics/SVG/1.1/DTD/svg11.dtd">
<!-- Generated by graphviz version 2.40.1 (20161225.0304)
 -->
<!-- Title: public.drivers Pages: 1 -->
<svg width="1366pt" height="2249pt"
 viewBox="0.00 0.00 1366.00 2249.00" xmlns="http://www.w3.org/2000/svg" xmlns:xlink="http://www.w3.org/1999/xlink">
<g id="graph0" class="graph" transform="scale(1 1) rotate(0) translate(4 2245)">
<title>public.drivers</title>
<polygon fill="#ffffff" stroke="transparent" points="-4,4 -4,-2245 1362,-2245 1362,4 -4,4"/>
<!-- public.drivers -->
<g id="node1" class="node">
<title>public.drivers</title>
<polygon fill="#efefef" stroke="transparent" points="570,-1192.5 570,-1227.5 836,-1227.5 836,-1192.5 570,-1192.5"/>
<polygon fill="none" stroke="#000000" points="570,-1192.5 570,-1227.5 836,-1227.5 836,-1192.5 570,-1192.5"/>
<text text-anchor="start" x="586.2159" y="-1205.3" font-family="Arial Bold" font-size="18.00" fill="#000000">public.drivers</text>
<text text-anchor="start" x="692.2161" y="-1205.3" font-family="Arial" font-size="14.00" fill="#000000">    </text>
<text text-anchor="start" x="726.4209" y="-1205.3" font-family="Arial" font-size="14.00" fill="#666666">[BASE TABLE]</text>
<polygon fill="none" stroke="#000000" points="570,-1162.5 570,-1192.5 836,-1192.5 836,-1162.5 570,-1162.5"/>
<text text-anchor="start" x="577" y="-1173.9" font-family="Arial" font-size="14.00" fill="#000000">driverID </text>
<text text-anchor="start" x="629.8808" y="-1173.9" font-family="Arial" font-size="14.00" fill="#666666">[integer]</text>
<polygon fill="none" stroke="#000000" points="570,-1132.5 570,-1162.5 836,-1162.5 836,-1132.5 570,-1132.5"/>
<text text-anchor="start" x="577" y="-1143.9" font-family="Arial" font-size="14.00" fill="#000000">customerOrgNumber </text>
<text text-anchor="start" x="711.5596" y="-1143.9" font-family="Arial" font-size="14.00" fill="#666666">[varchar(11)]</text>
<polygon fill="none" stroke="#000000" points="570,-1102.5 570,-1132.5 836,-1132.5 836,-1102.5 570,-1102.5"/>
<text text-anchor="start" x="577" y="-1113.9" font-family="Arial" font-size="14.00" fill="#000000">driverExternalNumber </text>
<text text-anchor="start" x="717.0014" y="-1113.9" font-family="Arial" font-size="14.00" fill="#666666">[varchar(256)]</text>
<polygon fill="none" stroke="#000000" points="570,-1072.5 570,-1102.5 836,-1102.5 836,-1072.5 570,-1072.5"/>
<text text-anchor="start" x="577" y="-1083.9" font-family="Arial" font-size="14.00" fill="#000000">companyReference </text>
<text text-anchor="start" x="702.2524" y="-1083.9" font-family="Arial" font-size="14.00" fill="#666666">[varchar(255)]</text>
<polygon fill="none" stroke="#000000" points="570,-1042.5 570,-1072.5 836,-1072.5 836,-1042.5 570,-1042.5"/>
<text text-anchor="start" x="577" y="-1053.9" font-family="Arial" font-size="14.00" fill="#000000">driverGDPRAccept </text>
<text text-anchor="start" x="699.1164" y="-1053.9" font-family="Arial" font-size="14.00" fill="#666666">[boolean]</text>
<polygon fill="none" stroke="#000000" points="570,-1012.5 570,-1042.5 836,-1042.5 836,-1012.5 570,-1012.5"/>
<text text-anchor="start" x="577" y="-1023.9" font-family="Arial" font-size="14.00" fill="#000000">driverISWarrantyDriver </text>
<text text-anchor="start" x="723.202" y="-1023.9" font-family="Arial" font-size="14.00" fill="#666666">[boolean]</text>
<polygon fill="none" stroke="#000000" points="570,-982.5 570,-1012.5 836,-1012.5 836,-982.5 570,-982.5"/>
<text text-anchor="start" x="577" y="-993.9" font-family="Arial" font-size="14.00" fill="#000000">driverAcceptsMarketing </text>
<text text-anchor="start" x="727.1248" y="-993.9" font-family="Arial" font-size="14.00" fill="#666666">[boolean]</text>
<polygon fill="none" stroke="#000000" points="570,-952.5 570,-982.5 836,-982.5 836,-952.5 570,-952.5"/>
<text text-anchor="start" x="577" y="-963.9" font-family="Arial" font-size="14.00" fill="#000000">driverFirstName </text>
<text text-anchor="start" x="680.4264" y="-963.9" font-family="Arial" font-size="14.00" fill="#666666">[varchar(128)]</text>
<polygon fill="none" stroke="#000000" points="570,-922.5 570,-952.5 836,-952.5 836,-922.5 570,-922.5"/>
<text text-anchor="start" x="577" y="-933.9" font-family="Arial" font-size="14.00" fill="#000000">driverLastName </text>
<text text-anchor="start" x="679.6718" y="-933.9" font-family="Arial" font-size="14.00" fill="#666666">[varchar(128)]</text>
<polygon fill="none" stroke="#000000" points="570,-892.5 570,-922.5 836,-922.5 836,-892.5 570,-892.5"/>
<text text-anchor="start" x="577" y="-903.9" font-family="Arial" font-size="14.00" fill="#000000">driverEmail </text>
<text text-anchor="start" x="650.8766" y="-903.9" font-family="Arial" font-size="14.00" fill="#666666">[varchar(256)]</text>
<polygon fill="none" stroke="#000000" points="570,-862.5 570,-892.5 836,-892.5 836,-862.5 570,-862.5"/>
<text text-anchor="start" x="577" y="-873.9" font-family="Arial" font-size="14.00" fill="#000000">driverPhoneNumber </text>
<text text-anchor="start" x="706.1262" y="-873.9" font-family="Arial" font-size="14.00" fill="#666666">[varchar(32)]</text>
<polygon fill="none" stroke="#000000" points="570,-832.5 570,-862.5 836,-862.5 836,-832.5 570,-832.5"/>
<text text-anchor="start" x="577" y="-843.9" font-family="Arial" font-size="14.00" fill="#000000">driverAddress </text>
<text text-anchor="start" x="667.2286" y="-843.9" font-family="Arial" font-size="14.00" fill="#666666">[varchar(256)]</text>
<polygon fill="none" stroke="#000000" points="570,-802.5 570,-832.5 836,-832.5 836,-802.5 570,-802.5"/>
<text text-anchor="start" x="577" y="-813.9" font-family="Arial" font-size="14.00" fill="#000000">driverZipCode </text>
<text text-anchor="start" x="668.7798" y="-813.9" font-family="Arial" font-size="14.00" fill="#666666">[varchar(16)]</text>
<polygon fill="none" stroke="#000000" points="570,-772.5 570,-802.5 836,-802.5 836,-772.5 570,-772.5"/>
<text text-anchor="start" x="577" y="-783.9" font-family="Arial" font-size="14.00" fill="#000000">driverAddressCity </text>
<text text-anchor="start" x="691.3324" y="-783.9" font-family="Arial" font-size="14.00" fill="#666666">[varchar(256)]</text>
<polygon fill="none" stroke="#000000" points="570,-742.5 570,-772.5 836,-772.5 836,-742.5 570,-742.5"/>
<text text-anchor="start" x="577" y="-753.9" font-family="Arial" font-size="14.00" fill="#000000">driverCountry </text>
<text text-anchor="start" x="664.8892" y="-753.9" font-family="Arial" font-size="14.00" fill="#666666">[varchar(256)]</text>
<polygon fill="none" stroke="#000000" points="570,-712.5 570,-742.5 836,-742.5 836,-712.5 570,-712.5"/>
<text text-anchor="start" x="577" y="-723.9" font-family="Arial" font-size="14.00" fill="#000000">driverHasCard </text>
<text text-anchor="start" x="671.1052" y="-723.9" font-family="Arial" font-size="14.00" fill="#666666">[boolean]</text>
<polygon fill="none" stroke="#000000" points="570,-682.5 570,-712.5 836,-712.5 836,-682.5 570,-682.5"/>
<text text-anchor="start" x="577" y="-693.9" font-family="Arial" font-size="14.00" fill="#000000">driverCardValidTo </text>
<text text-anchor="start" x="693.6662" y="-693.9" font-family="Arial" font-size="14.00" fill="#666666">[date]</text>
<polygon fill="none" stroke="#000000" points="570,-652.5 570,-682.5 836,-682.5 836,-652.5 570,-652.5"/>
<text text-anchor="start" x="577" y="-663.9" font-family="Arial" font-size="14.00" fill="#000000">driverCardNumber </text>
<text text-anchor="start" x="695.9916" y="-663.9" font-family="Arial" font-size="14.00" fill="#666666">[varchar(256)]</text>
<polygon fill="none" stroke="#000000" points="570,-622.5 570,-652.5 836,-652.5 836,-622.5 570,-622.5"/>
<text text-anchor="start" x="577" y="-633.9" font-family="Arial" font-size="14.00" fill="#000000">driverKeyNumber </text>
<text text-anchor="start" x="689.7784" y="-633.9" font-family="Arial" font-size="14.00" fill="#666666">[varchar(256)]</text>
<polygon fill="none" stroke="#000000" points="570,-592.5 570,-622.5 836,-622.5 836,-592.5 570,-592.5"/>
<text text-anchor="start" x="577" y="-603.9" font-family="Arial" font-size="14.00" fill="#000000">driverNotesShared </text>
<text text-anchor="start" x="697.5736" y="-603.9" font-family="Arial" font-size="14.00" fill="#666666">[varchar]</text>
<polygon fill="none" stroke="#000000" points="570,-562.5 570,-592.5 836,-592.5 836,-562.5 570,-562.5"/>
<text text-anchor="start" x="577" y="-573.9" font-family="Arial" font-size="14.00" fill="#000000">driverNotes </text>
<text text-anchor="start" x="652.446" y="-573.9" font-family="Arial" font-size="14.00" fill="#666666">[varchar]</text>
<polygon fill="none" stroke="#000000" points="570,-532.5 570,-562.5 836,-562.5 836,-532.5 570,-532.5"/>
<text text-anchor="start" x="577" y="-543.9" font-family="Arial" font-size="14.00" fill="#000000">createdAt </text>
<text text-anchor="start" x="640.7994" y="-543.9" font-family="Arial" font-size="14.00" fill="#666666">[timestamp without time zone]</text>
<polygon fill="none" stroke="#000000" points="570,-502.5 570,-532.5 836,-532.5 836,-502.5 570,-502.5"/>
<text text-anchor="start" x="576.5779" y="-513.9" font-family="Arial" font-size="14.00" fill="#000000">updatedAt </text>
<text text-anchor="start" x="644.2819" y="-513.9" font-family="Arial" font-size="14.00" fill="#666666">[timestamp without time zone]</text>
<polygon fill="none" stroke="#000000" stroke-width="3" points="568.5,-501.5 568.5,-1229.5 837.5,-1229.5 837.5,-501.5 568.5,-501.5"/>
</g>
<!-- public.companycustomers -->
<g id="node5" class="node">
<title>public.companycustomers</title>
<polygon fill="#efefef" stroke="transparent" points="528,-342.5 528,-377.5 877,-377.5 877,-342.5 528,-342.5"/>
<polygon fill="none" stroke="#000000" points="528,-342.5 528,-377.5 877,-377.5 877,-342.5 528,-342.5"/>
<text text-anchor="start" x="534.7003" y="-355.3" font-family="Arial Bold" font-size="18.00" fill="#000000">public.companycustomers</text>
<text text-anchor="start" x="742.7317" y="-355.3" font-family="Arial" font-size="14.00" fill="#000000">    </text>
<text text-anchor="start" x="776.9365" y="-355.3" font-family="Arial" font-size="14.00" fill="#666666">[BASE TABLE]</text>
<polygon fill="none" stroke="#000000" points="528,-312.5 528,-342.5 877,-342.5 877,-312.5 528,-312.5"/>
<text text-anchor="start" x="535" y="-323.9" font-family="Arial" font-size="14.00" fill="#000000">customerOrgNumber    </text>
<text text-anchor="start" x="699.8738" y="-323.9" font-family="Arial" font-size="14.00" fill="#666666">[varchar(11)]</text>
<polygon fill="none" stroke="#000000" points="528,-282.5 528,-312.5 877,-312.5 877,-282.5 528,-282.5"/>
<text text-anchor="start" x="535" y="-293.9" font-family="Arial" font-size="14.00" fill="#000000">customerCompanyName    </text>
<text text-anchor="start" x="723.9944" y="-293.9" font-family="Arial" font-size="14.00" fill="#666666">[varchar(255)]</text>
<polygon fill="none" stroke="#000000" points="528,-252.5 528,-282.5 877,-282.5 877,-252.5 528,-252.5"/>
<text text-anchor="start" x="535" y="-263.9" font-family="Arial" font-size="14.00" fill="#000000">companyAddress    </text>
<text text-anchor="start" x="677.3408" y="-263.9" font-family="Arial" font-size="14.00" fill="#666666">[varchar(256)]</text>
<polygon fill="none" stroke="#000000" points="528,-222.5 528,-252.5 877,-252.5 877,-222.5 528,-222.5"/>
<text text-anchor="start" x="535" y="-233.9" font-family="Arial" font-size="14.00" fill="#000000">companyZipCode    </text>
<text text-anchor="start" x="678.892" y="-233.9" font-family="Arial" font-size="14.00" fill="#666666">[varchar(16)]</text>
<polygon fill="none" stroke="#000000" points="528,-192.5 528,-222.5 877,-222.5 877,-192.5 528,-192.5"/>
<text text-anchor="start" x="535" y="-203.9" font-family="Arial" font-size="14.00" fill="#000000">companyEmail    </text>
<text text-anchor="start" x="660.9888" y="-203.9" font-family="Arial" font-size="14.00" fill="#666666">[varchar(256)]</text>
<polygon fill="none" stroke="#000000" points="528,-162.5 528,-192.5 877,-192.5 877,-162.5 528,-162.5"/>
<text text-anchor="start" x="535" y="-173.9" font-family="Arial" font-size="14.00" fill="#000000">companyPhone    </text>
<text text-anchor="start" x="666.4628" y="-173.9" font-family="Arial" font-size="14.00" fill="#666666">[varchar(16)]</text>
<polygon fill="none" stroke="#000000" points="528,-132.5 528,-162.5 877,-162.5 877,-132.5 528,-132.5"/>
<text text-anchor="start" x="535" y="-143.9" font-family="Arial" font-size="14.00" fill="#000000">companyAddressCity    </text>
<text text-anchor="start" x="701.4446" y="-143.9" font-family="Arial" font-size="14.00" fill="#666666">[varchar(256)]</text>
<polygon fill="none" stroke="#000000" points="528,-102.5 528,-132.5 877,-132.5 877,-102.5 528,-102.5"/>
<text text-anchor="start" x="535" y="-113.9" font-family="Arial" font-size="14.00" fill="#000000">companyCountry    </text>
<text text-anchor="start" x="675.0014" y="-113.9" font-family="Arial" font-size="14.00" fill="#666666">[varchar(256)]</text>
<polygon fill="none" stroke="#000000" points="528,-72.5 528,-102.5 877,-102.5 877,-72.5 528,-72.5"/>
<text text-anchor="start" x="535" y="-83.9" font-family="Arial" font-size="14.00" fill="#000000">createdAt    </text>
<text text-anchor="start" x="629.1136" y="-83.9" font-family="Arial" font-size="14.00" fill="#666666">[timestamp without time zone]</text>
<polygon fill="none" stroke="#000000" points="528,-42.5 528,-72.5 877,-72.5 877,-42.5 528,-42.5"/>
<text text-anchor="start" x="535" y="-53.9" font-family="Arial" font-size="14.00" fill="#000000">updatedAt    </text>
<text text-anchor="start" x="633.0182" y="-53.9" font-family="Arial" font-size="14.00" fill="#666666">[timestamp without time zone]</text>
</g>
<!-- public.drivers&#45;&gt;public.companycustomers -->
<g id="edge4" class="edge">
<title>public.drivers:customerOrgNumber&#45;&gt;public.companycustomers:customerOrgNumber</title>
<path fill="none" stroke="#000000" d="M559.8151,-1147.3265C265.4354,-1137.1701 368.3153,-683.7169 570,-457 661.31,-354.357 785.69,-523.643 877,-421 904.6201,-389.9518 918.5556,-327.5 877,-327.5"/>
<polygon fill="#000000" stroke="#000000" points="560.0015,-1147.3296 569.9233,-1151.9993 565.0007,-1147.4148 570,-1147.5 570,-1147.5 570,-1147.5 565.0007,-1147.4148 570.0767,-1143.0007 560.0015,-1147.3296 560.0015,-1147.3296"/>
<text text-anchor="start" x="6.7855" y="-1157.5" font-family="Arial" font-size="10.00" fill="#000000">FOREIGN KEY (&quot;customerOrgNumber&quot;) REFERENCES companycustomers(&quot;customerOrgNumber&quot;) ON DELETE CASCADE</text>
</g>
<!-- public.bills -->
<g id="node2" class="node">
<title>public.bills</title>
<polygon fill="#efefef" stroke="transparent" points="147,-2162.5 147,-2197.5 444,-2197.5 444,-2162.5 147,-2162.5"/>
<polygon fill="none" stroke="#000000" points="147,-2162.5 147,-2197.5 444,-2197.5 444,-2162.5 147,-2162.5"/>
<text text-anchor="start" x="190.217" y="-2175.3" font-family="Arial Bold" font-size="18.00" fill="#000000">public.bills</text>
<text text-anchor="start" x="273.215" y="-2175.3" font-family="Arial" font-size="14.00" fill="#000000">    </text>
<text text-anchor="start" x="307.4198" y="-2175.3" font-family="Arial" font-size="14.00" fill="#666666">[BASE TABLE]</text>
<polygon fill="none" stroke="#000000" points="147,-2132.5 147,-2162.5 444,-2162.5 444,-2132.5 147,-2132.5"/>
<text text-anchor="start" x="154" y="-2143.9" font-family="Arial" font-size="14.00" fill="#000000">orderID    </text>
<text text-anchor="start" x="234.871" y="-2143.9" font-family="Arial" font-size="14.00" fill="#666666">[integer]</text>
<polygon fill="none" stroke="#000000" points="147,-2102.5 147,-2132.5 444,-2132.5 444,-2102.5 147,-2102.5"/>
<text text-anchor="start" x="154" y="-2113.9" font-family="Arial" font-size="14.00" fill="#000000">storeID    </text>
<text text-anchor="start" x="233.3184" y="-2113.9" font-family="Arial" font-size="14.00" fill="#666666">[integer]</text>
<polygon fill="none" stroke="#000000" points="147,-2072.5 147,-2102.5 444,-2102.5 444,-2072.5 147,-2072.5"/>
<text text-anchor="start" x="154" y="-2083.9" font-family="Arial" font-size="14.00" fill="#000000">billStatus    </text>
<text text-anchor="start" x="244.9902" y="-2083.9" font-family="Arial" font-size="14.00" fill="#666666">[&quot;billStatus&quot;]</text>
<polygon fill="none" stroke="#000000" points="147,-2042.5 147,-2072.5 444,-2072.5 444,-2042.5 147,-2042.5"/>
<text text-anchor="start" x="154" y="-2053.9" font-family="Arial" font-size="14.00" fill="#000000">billedAmount    </text>
<text text-anchor="start" x="269.108" y="-2053.9" font-family="Arial" font-size="14.00" fill="#666666">[real]</text>
<polygon fill="none" stroke="#000000" points="147,-2012.5 147,-2042.5 444,-2042.5 444,-2012.5 147,-2012.5"/>
<text text-anchor="start" x="154" y="-2023.9" font-family="Arial" font-size="14.00" fill="#000000">currency    </text>
<text text-anchor="start" x="241.8738" y="-2023.9" font-family="Arial" font-size="14.00" fill="#666666">[varchar]</text>
<polygon fill="none" stroke="#000000" points="147,-1982.5 147,-2012.5 444,-2012.5 444,-1982.5 147,-1982.5"/>
<text text-anchor="start" x="154" y="-1993.9" font-family="Arial" font-size="14.00" fill="#000000">employeeID    </text>
<text text-anchor="start" x="262.8822" y="-1993.9" font-family="Arial" font-size="14.00" fill="#666666">[integer]</text>
<polygon fill="none" stroke="#000000" points="147,-1952.5 147,-1982.5 444,-1982.5 444,-1952.5 147,-1952.5"/>
<text text-anchor="start" x="154" y="-1963.9" font-family="Arial" font-size="14.00" fill="#000000">billingDate    </text>
<text text-anchor="start" x="253.5414" y="-1963.9" font-family="Arial" font-size="14.00" fill="#666666">[date]</text>
<polygon fill="none" stroke="#000000" points="147,-1922.5 147,-1952.5 444,-1952.5 444,-1922.5 147,-1922.5"/>
<text text-anchor="start" x="154" y="-1933.9" font-family="Arial" font-size="14.00" fill="#000000">paymentDate    </text>
<text text-anchor="start" x="271.4488" y="-1933.9" font-family="Arial" font-size="14.00" fill="#666666">[date]</text>
<polygon fill="none" stroke="#000000" points="147,-1892.5 147,-1922.5 444,-1922.5 444,-1892.5 147,-1892.5"/>
<text text-anchor="start" x="154" y="-1903.9" font-family="Arial" font-size="14.00" fill="#000000">paymentDays    </text>
<text text-anchor="start" x="273.7756" y="-1903.9" font-family="Arial" font-size="14.00" fill="#666666">[integer]</text>
<polygon fill="none" stroke="#000000" points="147,-1862.5 147,-1892.5 444,-1892.5 444,-1862.5 147,-1862.5"/>
<text text-anchor="start" x="154" y="-1873.9" font-family="Arial" font-size="14.00" fill="#000000">driverID    </text>
<text text-anchor="start" x="237.195" y="-1873.9" font-family="Arial" font-size="14.00" fill="#666666">[integer]</text>
<polygon fill="none" stroke="#000000" points="147,-1832.5 147,-1862.5 444,-1862.5 444,-1832.5 147,-1832.5"/>
<text text-anchor="start" x="154" y="-1843.9" font-family="Arial" font-size="14.00" fill="#000000">customerOrgNumber    </text>
<text text-anchor="start" x="318.8738" y="-1843.9" font-family="Arial" font-size="14.00" fill="#666666">[varchar(11)]</text>
<polygon fill="none" stroke="#000000" points="147,-1802.5 147,-1832.5 444,-1832.5 444,-1802.5 147,-1802.5"/>
<text text-anchor="start" x="154" y="-1813.9" font-family="Arial" font-size="14.00" fill="#000000">driverExternalNumber    </text>
<text text-anchor="start" x="324.3156" y="-1813.9" font-family="Arial" font-size="14.00" fill="#666666">[varchar(256)]</text>
<polygon fill="none" stroke="#000000" points="147,-1772.5 147,-1802.5 444,-1802.5 444,-1772.5 147,-1772.5"/>
<text text-anchor="start" x="154" y="-1783.9" font-family="Arial" font-size="14.00" fill="#000000">companyReference    </text>
<text text-anchor="start" x="309.5666" y="-1783.9" font-family="Arial" font-size="14.00" fill="#666666">[varchar(255)]</text>
<polygon fill="none" stroke="#000000" points="147,-1742.5 147,-1772.5 444,-1772.5 444,-1742.5 147,-1742.5"/>
<text text-anchor="start" x="154" y="-1753.9" font-family="Arial" font-size="14.00" fill="#000000">driverFirstName    </text>
<text text-anchor="start" x="287.7406" y="-1753.9" font-family="Arial" font-size="14.00" fill="#666666">[varchar(128)]</text>
<polygon fill="none" stroke="#000000" points="147,-1712.5 147,-1742.5 444,-1742.5 444,-1712.5 147,-1712.5"/>
<text text-anchor="start" x="154" y="-1723.9" font-family="Arial" font-size="14.00" fill="#000000">driverLastName    </text>
<text text-anchor="start" x="286.986" y="-1723.9" font-family="Arial" font-size="14.00" fill="#666666">[varchar(128)]</text>
<polygon fill="none" stroke="#000000" points="147,-1682.5 147,-1712.5 444,-1712.5 444,-1682.5 147,-1682.5"/>
<text text-anchor="start" x="154" y="-1693.9" font-family="Arial" font-size="14.00" fill="#000000">driverEmail    </text>
<text text-anchor="start" x="258.1908" y="-1693.9" font-family="Arial" font-size="14.00" fill="#666666">[varchar(256)]</text>
<polygon fill="none" stroke="#000000" points="147,-1652.5 147,-1682.5 444,-1682.5 444,-1652.5 147,-1652.5"/>
<text text-anchor="start" x="154" y="-1663.9" font-family="Arial" font-size="14.00" fill="#000000">driverPhoneNumber    </text>
<text text-anchor="start" x="313.4404" y="-1663.9" font-family="Arial" font-size="14.00" fill="#666666">[varchar(32)]</text>
<polygon fill="none" stroke="#000000" points="147,-1622.5 147,-1652.5 444,-1652.5 444,-1622.5 147,-1622.5"/>
<text text-anchor="start" x="154" y="-1633.9" font-family="Arial" font-size="14.00" fill="#000000">driverAddress    </text>
<text text-anchor="start" x="274.5428" y="-1633.9" font-family="Arial" font-size="14.00" fill="#666666">[varchar(256)]</text>
<polygon fill="none" stroke="#000000" points="147,-1592.5 147,-1622.5 444,-1622.5 444,-1592.5 147,-1592.5"/>
<text text-anchor="start" x="154" y="-1603.9" font-family="Arial" font-size="14.00" fill="#000000">driverZipCode    </text>
<text text-anchor="start" x="276.094" y="-1603.9" font-family="Arial" font-size="14.00" fill="#666666">[varchar(16)]</text>
<polygon fill="none" stroke="#000000" points="147,-1562.5 147,-1592.5 444,-1592.5 444,-1562.5 147,-1562.5"/>
<text text-anchor="start" x="154" y="-1573.9" font-family="Arial" font-size="14.00" fill="#000000">driverAddressCity    </text>
<text text-anchor="start" x="298.6466" y="-1573.9" font-family="Arial" font-size="14.00" fill="#666666">[varchar(256)]</text>
<polygon fill="none" stroke="#000000" points="147,-1532.5 147,-1562.5 444,-1562.5 444,-1532.5 147,-1532.5"/>
<text text-anchor="start" x="154" y="-1543.9" font-family="Arial" font-size="14.00" fill="#000000">driverCountry    </text>
<text text-anchor="start" x="272.2034" y="-1543.9" font-family="Arial" font-size="14.00" fill="#666666">[varchar(256)]</text>
<polygon fill="none" stroke="#000000" points="147,-1502.5 147,-1532.5 444,-1532.5 444,-1502.5 147,-1502.5"/>
<text text-anchor="start" x="154" y="-1513.9" font-family="Arial" font-size="14.00" fill="#000000">driverHasCard    </text>
<text text-anchor="start" x="278.4194" y="-1513.9" font-family="Arial" font-size="14.00" fill="#666666">[boolean]</text>
<polygon fill="none" stroke="#000000" points="147,-1472.5 147,-1502.5 444,-1502.5 444,-1472.5 147,-1472.5"/>
<text text-anchor="start" x="154" y="-1483.9" font-family="Arial" font-size="14.00" fill="#000000">driverCardValidTo    </text>
<text text-anchor="start" x="300.9804" y="-1483.9" font-family="Arial" font-size="14.00" fill="#666666">[date]</text>
<polygon fill="none" stroke="#000000" points="147,-1442.5 147,-1472.5 444,-1472.5 444,-1442.5 147,-1442.5"/>
<text text-anchor="start" x="154" y="-1453.9" font-family="Arial" font-size="14.00" fill="#000000">driverCardNumber    </text>
<text text-anchor="start" x="303.3058" y="-1453.9" font-family="Arial" font-size="14.00" fill="#666666">[varchar(256)]</text>
<polygon fill="none" stroke="#000000" points="147,-1412.5 147,-1442.5 444,-1442.5 444,-1412.5 147,-1412.5"/>
<text text-anchor="start" x="154" y="-1423.9" font-family="Arial" font-size="14.00" fill="#000000">driverKeyNumber    </text>
<text text-anchor="start" x="297.0926" y="-1423.9" font-family="Arial" font-size="14.00" fill="#666666">[varchar(256)]</text>
<polygon fill="none" stroke="#000000" points="147,-1382.5 147,-1412.5 444,-1412.5 444,-1382.5 147,-1382.5"/>
<text text-anchor="start" x="154" y="-1393.9" font-family="Arial" font-size="14.00" fill="#000000">createdAt    </text>
<text text-anchor="start" x="248.1136" y="-1393.9" font-family="Arial" font-size="14.00" fill="#666666">[timestamp without time zone]</text>
<polygon fill="none" stroke="#000000" points="147,-1352.5 147,-1382.5 444,-1382.5 444,-1352.5 147,-1352.5"/>
<text text-anchor="start" x="153.9208" y="-1363.9" font-family="Arial" font-size="14.00" fill="#000000">updatedAt    </text>
<text text-anchor="start" x="251.939" y="-1363.9" font-family="Arial" font-size="14.00" fill="#666666">[timestamp without time zone]</text>
</g>
<!-- public.bills&#45;&gt;public.drivers -->
<g id="edge1" class="edge">
<title>public.bills:driverID&#45;&gt;public.drivers:driverID</title>
<path fill="none" stroke="#000000" d="M453.2488,-1873.4096C504.1622,-1825.2628 477.1428,-1367.2507 495,-1310 515.1492,-1245.4011 502.3316,-1177.5 570,-1177.5"/>
<polygon fill="#000000" stroke="#000000" points="453.1455,-1873.4552 442.1798,-1873.3845 448.5728,-1875.4776 444,-1877.5 444,-1877.5 444,-1877.5 448.5728,-1875.4776 445.8202,-1881.6155 453.1455,-1873.4552 453.1455,-1873.4552"/>
<text text-anchor="start" x="450.7505" y="-1887.5" font-family="Arial" font-size="10.00" fill="#000000">FOREIGN KEY (&quot;driverID&quot;) REFERENCES drivers(&quot;driverID&quot;)</text>
</g>
<!-- public.driverCars -->
<g id="node3" class="node">
<title>public.driverCars</title>
<polygon fill="#efefef" stroke="transparent" points="548,-1922.5 548,-1957.5 857,-1957.5 857,-1922.5 548,-1922.5"/>
<polygon fill="none" stroke="#000000" points="548,-1922.5 548,-1957.5 857,-1957.5 857,-1922.5 548,-1922.5"/>
<text text-anchor="start" x="571.2196" y="-1935.3" font-family="Arial Bold" font-size="18.00" fill="#000000">public.driverCars</text>
<text text-anchor="start" x="706.2124" y="-1935.3" font-family="Arial" font-size="14.00" fill="#000000">    </text>
<text text-anchor="start" x="740.4172" y="-1935.3" font-family="Arial" font-size="14.00" fill="#666666">[BASE TABLE]</text>
<polygon fill="none" stroke="#000000" points="548,-1892.5 548,-1922.5 857,-1922.5 857,-1892.5 548,-1892.5"/>
<text text-anchor="start" x="555" y="-1903.9" font-family="Arial" font-size="14.00" fill="#000000">driverCarID    </text>
<text text-anchor="start" x="660.7448" y="-1903.9" font-family="Arial" font-size="14.00" fill="#666666">[integer]</text>
<polygon fill="none" stroke="#000000" points="548,-1862.5 548,-1892.5 857,-1892.5 857,-1862.5 548,-1862.5"/>
<text text-anchor="start" x="555" y="-1873.9" font-family="Arial" font-size="14.00" fill="#000000">driverID    </text>
<text text-anchor="start" x="638.195" y="-1873.9" font-family="Arial" font-size="14.00" fill="#666666">[integer]</text>
<polygon fill="none" stroke="#000000" points="548,-1832.5 548,-1862.5 857,-1862.5 857,-1832.5 548,-1832.5"/>
<text text-anchor="start" x="554.7328" y="-1843.9" font-family="Arial" font-size="14.00" fill="#000000">driverCarRegistrationNumber    </text>
<text text-anchor="start" x="770.9306" y="-1843.9" font-family="Arial" font-size="14.00" fill="#666666">[varchar(11)]</text>
<polygon fill="none" stroke="#000000" points="548,-1802.5 548,-1832.5 857,-1832.5 857,-1802.5 548,-1802.5"/>
<text text-anchor="start" x="555" y="-1813.9" font-family="Arial" font-size="14.00" fill="#000000">driverCarBrand    </text>
<text text-anchor="start" x="684.0926" y="-1813.9" font-family="Arial" font-size="14.00" fill="#666666">[varchar(128)]</text>
<polygon fill="none" stroke="#000000" points="548,-1772.5 548,-1802.5 857,-1802.5 857,-1772.5 548,-1772.5"/>
<text text-anchor="start" x="555" y="-1783.9" font-family="Arial" font-size="14.00" fill="#000000">driverCarModel    </text>
<text text-anchor="start" x="684.8626" y="-1783.9" font-family="Arial" font-size="14.00" fill="#666666">[varchar(128)]</text>
<polygon fill="none" stroke="#000000" points="548,-1742.5 548,-1772.5 857,-1772.5 857,-1742.5 548,-1742.5"/>
<text text-anchor="start" x="555" y="-1753.9" font-family="Arial" font-size="14.00" fill="#000000">driverCarColor    </text>
<text text-anchor="start" x="680.1866" y="-1753.9" font-family="Arial" font-size="14.00" fill="#666666">[varchar(64)]</text>
<polygon fill="none" stroke="#000000" points="548,-1712.5 548,-1742.5 857,-1742.5 857,-1712.5 548,-1712.5"/>
<text text-anchor="start" x="555" y="-1723.9" font-family="Arial" font-size="14.00" fill="#000000">driverCarYear    </text>
<text text-anchor="start" x="676.31" y="-1723.9" font-family="Arial" font-size="14.00" fill="#666666">[integer]</text>
<polygon fill="none" stroke="#000000" points="548,-1682.5 548,-1712.5 857,-1712.5 857,-1682.5 548,-1682.5"/>
<text text-anchor="start" x="555" y="-1693.9" font-family="Arial" font-size="14.00" fill="#000000">driverCarChassiNumber    </text>
<text text-anchor="start" x="739.3016" y="-1693.9" font-family="Arial" font-size="14.00" fill="#666666">[varchar(24)]</text>
<polygon fill="none" stroke="#000000" points="548,-1652.5 548,-1682.5 857,-1682.5 857,-1652.5 548,-1652.5"/>
<text text-anchor="start" x="555" y="-1663.9" font-family="Arial" font-size="14.00" fill="#000000">driverCarNotes    </text>
<text text-anchor="start" x="683.31" y="-1663.9" font-family="Arial" font-size="14.00" fill="#666666">[varchar]</text>
<polygon fill="none" stroke="#000000" points="548,-1622.5 548,-1652.5 857,-1652.5 857,-1622.5 548,-1622.5"/>
<text text-anchor="start" x="555" y="-1633.9" font-family="Arial" font-size="14.00" fill="#000000">createdAt    </text>
<text text-anchor="start" x="649.1136" y="-1633.9" font-family="Arial" font-size="14.00" fill="#666666">[timestamp without time zone]</text>
<polygon fill="none" stroke="#000000" points="548,-1592.5 548,-1622.5 857,-1622.5 857,-1592.5 548,-1592.5"/>
<text text-anchor="start" x="555" y="-1603.9" font-family="Arial" font-size="14.00" fill="#000000">updatedAt    </text>
<text text-anchor="start" x="653.0182" y="-1603.9" font-family="Arial" font-size="14.00" fill="#666666">[timestamp without time zone]</text>
</g>
<!-- public.driverCars&#45;&gt;public.drivers -->
<g id="edge2" class="edge">
<title>public.driverCars:driverID&#45;&gt;public.drivers:driverID</title>
<path fill="none" stroke="#000000" d="M866.8391,-1875.6894C925.492,-1852.5184 884.1144,-1613.693 857,-1550 787.6837,-1387.1726 639.3163,-1436.8274 570,-1274 553.2009,-1234.538 527.1111,-1177.5 570,-1177.5"/>
<polygon fill="#000000" stroke="#000000" points="866.8349,-1875.6901 856.1855,-1873.0743 861.9174,-1876.595 857,-1877.5 857,-1877.5 857,-1877.5 861.9174,-1876.595 857.8145,-1881.9257 866.8349,-1875.6901 866.8349,-1875.6901"/>
<text text-anchor="start" x="665.9695" y="-1861.5" font-family="Arial" font-size="10.00" fill="#000000">FOREIGN KEY (&quot;driverID&quot;) REFERENCES drivers(&quot;driverID&quot;) ON DELETE CASCADE</text>
</g>
<!-- public.orders -->
<g id="node4" class="node">
<title>public.orders</title>
<polygon fill="#efefef" stroke="transparent" points="961,-1967.5 961,-2002.5 1295,-2002.5 1295,-1967.5 961,-1967.5"/>
<polygon fill="none" stroke="#000000" points="961,-1967.5 961,-2002.5 1295,-2002.5 1295,-1967.5 961,-1967.5"/>
<text text-anchor="start" x="1012.7099" y="-1980.3" font-family="Arial Bold" font-size="18.00" fill="#000000">public.orders</text>
<text text-anchor="start" x="1115.7221" y="-1980.3" font-family="Arial" font-size="14.00" fill="#000000">    </text>
<text text-anchor="start" x="1149.9269" y="-1980.3" font-family="Arial" font-size="14.00" fill="#666666">[BASE TABLE]</text>
<polygon fill="none" stroke="#000000" points="961,-1937.5 961,-1967.5 1295,-1967.5 1295,-1937.5 961,-1937.5"/>
<text text-anchor="start" x="968" y="-1948.9" font-family="Arial" font-size="14.00" fill="#000000">orderID    </text>
<text text-anchor="start" x="1048.871" y="-1948.9" font-family="Arial" font-size="14.00" fill="#666666">[integer]</text>
<polygon fill="none" stroke="#000000" points="961,-1907.5 961,-1937.5 1295,-1937.5 1295,-1907.5 961,-1907.5"/>
<text text-anchor="start" x="968" y="-1918.9" font-family="Arial" font-size="14.00" fill="#000000">driverCarID    </text>
<text text-anchor="start" x="1073.7448" y="-1918.9" font-family="Arial" font-size="14.00" fill="#666666">[integer]</text>
<polygon fill="none" stroke="#000000" points="961,-1877.5 961,-1907.5 1295,-1907.5 1295,-1877.5 961,-1877.5"/>
<text text-anchor="start" x="968" y="-1888.9" font-family="Arial" font-size="14.00" fill="#000000">driverID    </text>
<text text-anchor="start" x="1051.195" y="-1888.9" font-family="Arial" font-size="14.00" fill="#666666">[integer]</text>
<polygon fill="none" stroke="#000000" points="961,-1847.5 961,-1877.5 1295,-1877.5 1295,-1847.5 961,-1847.5"/>
<text text-anchor="start" x="968" y="-1858.9" font-family="Arial" font-size="14.00" fill="#000000">storeID    </text>
<text text-anchor="start" x="1047.3184" y="-1858.9" font-family="Arial" font-size="14.00" fill="#666666">[integer]</text>
<polygon fill="none" stroke="#000000" points="961,-1817.5 961,-1847.5 1295,-1847.5 1295,-1817.5 961,-1817.5"/>
<text text-anchor="start" x="968" y="-1828.9" font-family="Arial" font-size="14.00" fill="#000000">orderNotes    </text>
<text text-anchor="start" x="1071.4362" y="-1828.9" font-family="Arial" font-size="14.00" fill="#666666">[varchar]</text>
<polygon fill="none" stroke="#000000" points="961,-1787.5 961,-1817.5 1295,-1817.5 1295,-1787.5 961,-1787.5"/>
<text text-anchor="start" x="968" y="-1798.9" font-family="Arial" font-size="14.00" fill="#000000">employeeID    </text>
<text text-anchor="start" x="1076.8822" y="-1798.9" font-family="Arial" font-size="14.00" fill="#666666">[integer]</text>
<polygon fill="none" stroke="#000000" points="961,-1757.5 961,-1787.5 1295,-1787.5 1295,-1757.5 961,-1757.5"/>
<text text-anchor="start" x="967.7742" y="-1768.9" font-family="Arial" font-size="14.00" fill="#000000">submissionTime    </text>
<text text-anchor="start" x="1103.0856" y="-1768.9" font-family="Arial" font-size="14.00" fill="#666666">[timestamp without time zone]</text>
<polygon fill="none" stroke="#000000" points="961,-1727.5 961,-1757.5 1295,-1757.5 1295,-1727.5 961,-1727.5"/>
<text text-anchor="start" x="968" y="-1738.9" font-family="Arial" font-size="14.00" fill="#000000">pickupTime    </text>
<text text-anchor="start" x="1073.7616" y="-1738.9" font-family="Arial" font-size="14.00" fill="#666666">[timestamp without time zone]</text>
<polygon fill="none" stroke="#000000" points="961,-1697.5 961,-1727.5 1295,-1727.5 1295,-1697.5 961,-1697.5"/>
<text text-anchor="start" x="968" y="-1708.9" font-family="Arial" font-size="14.00" fill="#000000">vatFree    </text>
<text text-anchor="start" x="1049.6564" y="-1708.9" font-family="Arial" font-size="14.00" fill="#666666">[boolean]</text>
<polygon fill="none" stroke="#000000" points="961,-1667.5 961,-1697.5 1295,-1697.5 1295,-1667.5 961,-1667.5"/>
<text text-anchor="start" x="968" y="-1678.9" font-family="Arial" font-size="14.00" fill="#000000">orderStatus    </text>
<text text-anchor="start" x="1074.5568" y="-1678.9" font-family="Arial" font-size="14.00" fill="#666666">[&quot;orderStatus&quot;]</text>
<polygon fill="none" stroke="#000000" points="961,-1637.5 961,-1667.5 1295,-1667.5 1295,-1637.5 961,-1637.5"/>
<text text-anchor="start" x="968" y="-1648.9" font-family="Arial" font-size="14.00" fill="#000000">currency    </text>
<text text-anchor="start" x="1055.8738" y="-1648.9" font-family="Arial" font-size="14.00" fill="#666666">[varchar]</text>
<polygon fill="none" stroke="#000000" points="961,-1607.5 961,-1637.5 1295,-1637.5 1295,-1607.5 961,-1607.5"/>
<text text-anchor="start" x="968" y="-1618.9" font-family="Arial" font-size="14.00" fill="#000000">discount    </text>
<text text-anchor="start" x="1054.3324" y="-1618.9" font-family="Arial" font-size="14.00" fill="#666666">[real]</text>
<polygon fill="none" stroke="#000000" points="961,-1577.5 961,-1607.5 1295,-1607.5 1295,-1577.5 961,-1577.5"/>
<text text-anchor="start" x="968" y="-1588.9" font-family="Arial" font-size="14.00" fill="#000000">createdAt    </text>
<text text-anchor="start" x="1062.1136" y="-1588.9" font-family="Arial" font-size="14.00" fill="#666666">[timestamp without time zone]</text>
<polygon fill="none" stroke="#000000" points="961,-1547.5 961,-1577.5 1295,-1577.5 1295,-1547.5 961,-1547.5"/>
<text text-anchor="start" x="968" y="-1558.9" font-family="Arial" font-size="14.00" fill="#000000">updatedAt    </text>
<text text-anchor="start" x="1066.0182" y="-1558.9" font-family="Arial" font-size="14.00" fill="#666666">[timestamp without time zone]</text>
</g>
<!-- public.orders&#45;&gt;public.drivers -->
<g id="edge3" class="edge">
<title>public.orders:driverID&#45;&gt;public.drivers:driverID</title>
<path fill="none" stroke="#000000" d="M951.507,-1888.3023C899.2488,-1838.8934 926.9725,-1368.8707 909,-1310 889.3684,-1245.6949 903.235,-1177.5 836,-1177.5"/>
<polygon fill="#000000" stroke="#000000" points="951.8542,-1888.4558 959.1801,-1896.6156 956.4271,-1890.4779 961,-1892.5 961,-1892.5 961,-1892.5 956.4271,-1890.4779 962.8199,-1888.3844 951.8542,-1888.4558 951.8542,-1888.4558"/>
<text text-anchor="start" x="968.4695" y="-1902.5" font-family="Arial" font-size="10.00" fill="#000000">FOREIGN KEY (&quot;driverID&quot;) REFERENCES drivers(&quot;driverID&quot;) ON DELETE CASCADE</text>
</g>
</g>
</svg>
