<?xml version="1.0" encoding="UTF-8" standalone="no"?>
<!DOCTYPE svg PUBLIC "-//W3C//DTD SVG 1.1//EN"
 "http://www.w3.org/Graphics/SVG/1.1/DTD/svg11.dtd">
<!-- Generated by graphviz version 2.40.1 (20161225.0304)
 -->
<!-- Title: public.products Pages: 1 -->
<svg width="797pt" height="832pt"
 viewBox="0.00 0.00 797.00 832.00" xmlns="http://www.w3.org/2000/svg" xmlns:xlink="http://www.w3.org/1999/xlink">
<g id="graph0" class="graph" transform="scale(1 1) rotate(0) translate(4 828)">
<title>public.products</title>
<polygon fill="#ffffff" stroke="transparent" points="-4,4 -4,-828 793,-828 793,4 -4,4"/>
<!-- public.products -->
<g id="node1" class="node">
<title>public.products</title>
<polygon fill="#efefef" stroke="transparent" points="80,-742.5 80,-777.5 346,-777.5 346,-742.5 80,-742.5"/>
<polygon fill="none" stroke="#000000" points="80,-742.5 80,-777.5 346,-777.5 346,-742.5 80,-742.5"/>
<text text-anchor="start" x="88.7018" y="-755.3" font-family="Arial Bold" font-size="18.00" fill="#000000">public.products</text>
<text text-anchor="start" x="209.7302" y="-755.3" font-family="Arial" font-size="14.00" fill="#000000">    </text>
<text text-anchor="start" x="243.935" y="-755.3" font-family="Arial" font-size="14.00" fill="#666666">[BASE TABLE]</text>
<polygon fill="none" stroke="#000000" points="80,-712.5 80,-742.5 346,-742.5 346,-712.5 80,-712.5"/>
<text text-anchor="start" x="87" y="-723.9" font-family="Arial" font-size="14.00" fill="#000000">productID </text>
<text text-anchor="start" x="151.5694" y="-723.9" font-family="Arial" font-size="14.00" fill="#666666">[integer]</text>
<polygon fill="none" stroke="#000000" points="80,-682.5 80,-712.5 346,-712.5 346,-682.5 80,-682.5"/>
<text text-anchor="start" x="87" y="-693.9" font-family="Arial" font-size="14.00" fill="#000000">productItemNumber </text>
<text text-anchor="start" x="214.5722" y="-693.9" font-family="Arial" font-size="14.00" fill="#666666">[varchar]</text>
<polygon fill="none" stroke="#000000" points="80,-652.5 80,-682.5 346,-682.5 346,-652.5 80,-652.5"/>
<text text-anchor="start" x="87" y="-663.9" font-family="Arial" font-size="14.00" fill="#000000">currency </text>
<text text-anchor="start" x="144.5596" y="-663.9" font-family="Arial" font-size="14.00" fill="#666666">[varchar(5)]</text>
<polygon fill="none" stroke="#000000" points="80,-622.5 80,-652.5 346,-652.5 346,-622.5 80,-622.5"/>
<text text-anchor="start" x="87" y="-633.9" font-family="Arial" font-size="14.00" fill="#000000">cost </text>
<text text-anchor="start" x="116.5638" y="-633.9" font-family="Arial" font-size="14.00" fill="#666666">[real]</text>
<polygon fill="none" stroke="#000000" points="80,-592.5 80,-622.5 346,-622.5 346,-592.5 80,-592.5"/>
<text text-anchor="start" x="87" y="-603.9" font-family="Arial" font-size="14.00" fill="#000000">productCategoryID </text>
<text text-anchor="start" x="208.3576" y="-603.9" font-family="Arial" font-size="14.00" fill="#666666">[integer]</text>
<polygon fill="none" stroke="#000000" points="80,-562.5 80,-592.5 346,-592.5 346,-562.5 80,-562.5"/>
<text text-anchor="start" x="87" y="-573.9" font-family="Arial" font-size="14.00" fill="#000000">productDescription </text>
<text text-anchor="start" x="207.5736" y="-573.9" font-family="Arial" font-size="14.00" fill="#666666">[varchar(512)]</text>
<polygon fill="none" stroke="#000000" points="80,-532.5 80,-562.5 346,-562.5 346,-532.5 80,-532.5"/>
<text text-anchor="start" x="87" y="-543.9" font-family="Arial" font-size="14.00" fill="#000000">productSupplierArticleNumber </text>
<text text-anchor="start" x="277.5722" y="-543.9" font-family="Arial" font-size="14.00" fill="#666666">[varchar]</text>
<polygon fill="none" stroke="#000000" points="80,-502.5 80,-532.5 346,-532.5 346,-502.5 80,-502.5"/>
<text text-anchor="start" x="87" y="-513.9" font-family="Arial" font-size="14.00" fill="#000000">productExternalArticleNumber </text>
<text text-anchor="start" x="277.5736" y="-513.9" font-family="Arial" font-size="14.00" fill="#666666">[varchar]</text>
<polygon fill="none" stroke="#000000" points="80,-472.5 80,-502.5 346,-502.5 346,-472.5 80,-472.5"/>
<text text-anchor="start" x="87" y="-483.9" font-family="Arial" font-size="14.00" fill="#000000">productUpdateRelatedData </text>
<text text-anchor="start" x="260.4964" y="-483.9" font-family="Arial" font-size="14.00" fill="#666666">[boolean]</text>
<polygon fill="none" stroke="#000000" points="80,-442.5 80,-472.5 346,-472.5 346,-442.5 80,-442.5"/>
<text text-anchor="start" x="87" y="-453.9" font-family="Arial" font-size="14.00" fill="#000000">award </text>
<text text-anchor="start" x="129.0056" y="-453.9" font-family="Arial" font-size="14.00" fill="#666666">[real]</text>
<polygon fill="none" stroke="#000000" points="80,-412.5 80,-442.5 346,-442.5 346,-412.5 80,-412.5"/>
<text text-anchor="start" x="87" y="-423.9" font-family="Arial" font-size="14.00" fill="#000000">productInventoryBalance </text>
<text text-anchor="start" x="245.718" y="-423.9" font-family="Arial" font-size="14.00" fill="#666666">[integer]</text>
<polygon fill="none" stroke="#000000" points="80,-382.5 80,-412.5 346,-412.5 346,-382.5 80,-382.5"/>
<text text-anchor="start" x="87" y="-393.9" font-family="Arial" font-size="14.00" fill="#000000">createdAt </text>
<text text-anchor="start" x="150.7994" y="-393.9" font-family="Arial" font-size="14.00" fill="#666666">[timestamp without time zone]</text>
<polygon fill="none" stroke="#000000" points="80,-352.5 80,-382.5 346,-382.5 346,-352.5 80,-352.5"/>
<text text-anchor="start" x="86.5779" y="-363.9" font-family="Arial" font-size="14.00" fill="#000000">updatedAt </text>
<text text-anchor="start" x="154.2819" y="-363.9" font-family="Arial" font-size="14.00" fill="#666666">[timestamp without time zone]</text>
<polygon fill="none" stroke="#000000" stroke-width="3" points="78.5,-351.5 78.5,-779.5 347.5,-779.5 347.5,-351.5 78.5,-351.5"/>
</g>
<!-- public.productCategories -->
<g id="node2" class="node">
<title>public.productCategories</title>
<polygon fill="#efefef" stroke="transparent" points="43,-192.5 43,-227.5 383,-227.5 383,-192.5 43,-192.5"/>
<polygon fill="none" stroke="#000000" points="43,-192.5 43,-227.5 383,-227.5 383,-192.5 43,-192.5"/>
<text text-anchor="start" x="49.6949" y="-205.3" font-family="Arial Bold" font-size="18.00" fill="#000000">public.productCategories</text>
<text text-anchor="start" x="248.7371" y="-205.3" font-family="Arial" font-size="14.00" fill="#000000">    </text>
<text text-anchor="start" x="282.9419" y="-205.3" font-family="Arial" font-size="14.00" fill="#666666">[BASE TABLE]</text>
<polygon fill="none" stroke="#000000" points="43,-162.5 43,-192.5 383,-192.5 383,-162.5 43,-162.5"/>
<text text-anchor="start" x="50" y="-173.9" font-family="Arial" font-size="14.00" fill="#000000">productCategoryID    </text>
<text text-anchor="start" x="201.6718" y="-173.9" font-family="Arial" font-size="14.00" fill="#666666">[integer]</text>
<polygon fill="none" stroke="#000000" points="43,-132.5 43,-162.5 383,-162.5 383,-132.5 43,-132.5"/>
<text text-anchor="start" x="50" y="-143.9" font-family="Arial" font-size="14.00" fill="#000000">name    </text>
<text text-anchor="start" x="119.2132" y="-143.9" font-family="Arial" font-size="14.00" fill="#666666">[varchar(256)]</text>
<polygon fill="none" stroke="#000000" points="43,-102.5 43,-132.5 383,-132.5 383,-102.5 43,-102.5"/>
<text text-anchor="start" x="50" y="-113.9" font-family="Arial" font-size="14.00" fill="#000000">description    </text>
<text text-anchor="start" x="151.8822" y="-113.9" font-family="Arial" font-size="14.00" fill="#666666">[text]</text>
<polygon fill="none" stroke="#000000" points="43,-72.5 43,-102.5 383,-102.5 383,-72.5 43,-72.5"/>
<text text-anchor="start" x="50" y="-83.9" font-family="Arial" font-size="14.00" fill="#000000">createdAt    </text>
<text text-anchor="start" x="144.1136" y="-83.9" font-family="Arial" font-size="14.00" fill="#666666">[timestamp without time zone]</text>
<polygon fill="none" stroke="#000000" points="43,-42.5 43,-72.5 383,-72.5 383,-42.5 43,-42.5"/>
<text text-anchor="start" x="50" y="-53.9" font-family="Arial" font-size="14.00" fill="#000000">updatedAt    </text>
<text text-anchor="start" x="148.0182" y="-53.9" font-family="Arial" font-size="14.00" fill="#666666">[timestamp without time zone]</text>
</g>
<!-- public.products&#45;&gt;public.productCategories -->
<g id="edge1" class="edge">
<title>public.products:productCategoryID&#45;&gt;public.productCategories:productCategoryID</title>
<path fill="none" stroke="#000000" d="M355.8937,-605.943C444.3459,-577.7971 475.5369,-177.5 383,-177.5"/>
<polygon fill="#000000" stroke="#000000" points="355.8784,-605.9453 345.3004,-603.0547 350.9392,-606.7227 346,-607.5 346,-607.5 346,-607.5 350.9392,-606.7227 346.6996,-611.9453 355.8784,-605.9453 355.8784,-605.9453"/>
<text text-anchor="start" x="353.4445" y="-617.5" font-family="Arial" font-size="10.00" fill="#000000">FOREIGN KEY (&quot;productCategoryID&quot;) REFERENCES &quot;productCategories&quot;(&quot;productCategoryID&quot;)</text>
</g>
</g>
</svg>
