<?xml version="1.0" encoding="UTF-8" standalone="no"?>
<!DOCTYPE svg PUBLIC "-//W3C//DTD SVG 1.1//EN"
 "http://www.w3.org/Graphics/SVG/1.1/DTD/svg11.dtd">
<!-- Generated by graphviz version 2.40.1 (20161225.0304)
 -->
<!-- Title: public.employeeLocalQualifications Pages: 1 -->
<svg width="1371pt" height="742pt"
 viewBox="0.00 0.00 1371.00 742.00" xmlns="http://www.w3.org/2000/svg" xmlns:xlink="http://www.w3.org/1999/xlink">
<g id="graph0" class="graph" transform="scale(1 1) rotate(0) translate(4 738)">
<title>public.employeeLocalQualifications</title>
<polygon fill="#ffffff" stroke="transparent" points="-4,4 -4,-738 1367,-738 1367,4 -4,4"/>
<!-- public.employeeLocalQualifications -->
<g id="node1" class="node">
<title>public.employeeLocalQualifications</title>
<polygon fill="#efefef" stroke="transparent" points="452,-652.5 452,-687.5 874,-687.5 874,-652.5 452,-652.5"/>
<polygon fill="none" stroke="#000000" points="452,-652.5 452,-687.5 874,-687.5 874,-652.5 452,-652.5"/>
<text text-anchor="start" x="458.6891" y="-665.3" font-family="Arial Bold" font-size="18.00" fill="#000000">public.employeeLocalQualifications</text>
<text text-anchor="start" x="739.7429" y="-665.3" font-family="Arial" font-size="14.00" fill="#000000">    </text>
<text text-anchor="start" x="773.9477" y="-665.3" font-family="Arial" font-size="14.00" fill="#666666">[BASE TABLE]</text>
<polygon fill="none" stroke="#000000" points="452,-622.5 452,-652.5 874,-652.5 874,-622.5 452,-622.5"/>
<text text-anchor="start" x="459" y="-633.9" font-family="Arial" font-size="14.00" fill="#000000">employeeID </text>
<text text-anchor="start" x="537.568" y="-633.9" font-family="Arial" font-size="14.00" fill="#666666">[integer]</text>
<polygon fill="none" stroke="#000000" points="452,-592.5 452,-622.5 874,-622.5 874,-592.5 452,-592.5"/>
<text text-anchor="start" x="459" y="-603.9" font-family="Arial" font-size="14.00" fill="#000000">localQualID </text>
<text text-anchor="start" x="535.2286" y="-603.9" font-family="Arial" font-size="14.00" fill="#666666">[integer]</text>
<polygon fill="none" stroke="#000000" stroke-width="3" points="450.5,-591.5 450.5,-689.5 875.5,-689.5 875.5,-591.5 450.5,-591.5"/>
</g>
<!-- public.employees -->
<g id="node2" class="node">
<title>public.employees</title>
<polygon fill="#efefef" stroke="transparent" points="303,-432.5 303,-467.5 600,-467.5 600,-432.5 303,-432.5"/>
<polygon fill="none" stroke="#000000" points="303,-432.5 303,-467.5 600,-467.5 600,-432.5 303,-432.5"/>
<text text-anchor="start" x="318.2027" y="-445.3" font-family="Arial Bold" font-size="18.00" fill="#000000">public.employees</text>
<text text-anchor="start" x="457.2293" y="-445.3" font-family="Arial" font-size="14.00" fill="#000000">    </text>
<text text-anchor="start" x="491.4341" y="-445.3" font-family="Arial" font-size="14.00" fill="#666666">[BASE TABLE]</text>
<polygon fill="none" stroke="#000000" points="303,-402.5 303,-432.5 600,-432.5 600,-402.5 303,-402.5"/>
<text text-anchor="start" x="310" y="-413.9" font-family="Arial" font-size="14.00" fill="#000000">userID    </text>
<text text-anchor="start" x="385.4278" y="-413.9" font-family="Arial" font-size="14.00" fill="#666666">[integer]</text>
<polygon fill="none" stroke="#000000" points="303,-372.5 303,-402.5 600,-402.5 600,-372.5 303,-372.5"/>
<text text-anchor="start" x="310" y="-383.9" font-family="Arial" font-size="14.00" fill="#000000">employeeID    </text>
<text text-anchor="start" x="418.8822" y="-383.9" font-family="Arial" font-size="14.00" fill="#666666">[integer]</text>
<polygon fill="none" stroke="#000000" points="303,-342.5 303,-372.5 600,-372.5 600,-342.5 303,-342.5"/>
<text text-anchor="start" x="310" y="-353.9" font-family="Arial" font-size="14.00" fill="#000000">shortUserName    </text>
<text text-anchor="start" x="442.2034" y="-353.9" font-family="Arial" font-size="14.00" fill="#666666">[varchar(16)]</text>
<polygon fill="none" stroke="#000000" points="303,-312.5 303,-342.5 600,-342.5 600,-312.5 303,-312.5"/>
<text text-anchor="start" x="310" y="-323.9" font-family="Arial" font-size="14.00" fill="#000000">employmentNumber    </text>
<text text-anchor="start" x="470.2118" y="-323.9" font-family="Arial" font-size="14.00" fill="#666666">[varchar(128)]</text>
<polygon fill="none" stroke="#000000" points="303,-282.5 303,-312.5 600,-312.5 600,-282.5 303,-282.5"/>
<text text-anchor="start" x="310" y="-293.9" font-family="Arial" font-size="14.00" fill="#000000">employeePersonalNumber    </text>
<text text-anchor="start" x="509.8948" y="-293.9" font-family="Arial" font-size="14.00" fill="#666666">[varchar(16)]</text>
<polygon fill="none" stroke="#000000" points="303,-252.5 303,-282.5 600,-282.5 600,-252.5 303,-252.5"/>
<text text-anchor="start" x="310" y="-263.9" font-family="Arial" font-size="14.00" fill="#000000">signature    </text>
<text text-anchor="start" x="401.7756" y="-263.9" font-family="Arial" font-size="14.00" fill="#666666">[varchar(4)]</text>
<polygon fill="none" stroke="#000000" points="303,-222.5 303,-252.5 600,-252.5 600,-222.5 303,-222.5"/>
<text text-anchor="start" x="310" y="-233.9" font-family="Arial" font-size="14.00" fill="#000000">employeeHourlyRate    </text>
<text text-anchor="start" x="474.8864" y="-233.9" font-family="Arial" font-size="14.00" fill="#666666">[real]</text>
<polygon fill="none" stroke="#000000" points="303,-192.5 303,-222.5 600,-222.5 600,-192.5 303,-192.5"/>
<text text-anchor="start" x="310" y="-203.9" font-family="Arial" font-size="14.00" fill="#000000">employeeHourlyRateCurrency    </text>
<text text-anchor="start" x="531.662" y="-203.9" font-family="Arial" font-size="14.00" fill="#666666">[varchar]</text>
<polygon fill="none" stroke="#000000" points="303,-162.5 303,-192.5 600,-192.5 600,-162.5 303,-162.5"/>
<text text-anchor="start" x="310" y="-173.9" font-family="Arial" font-size="14.00" fill="#000000">employeePin    </text>
<text text-anchor="start" x="425.1108" y="-173.9" font-family="Arial" font-size="14.00" fill="#666666">[varchar(4)]</text>
<polygon fill="none" stroke="#000000" points="303,-132.5 303,-162.5 600,-162.5 600,-132.5 303,-132.5"/>
<text text-anchor="start" x="310" y="-143.9" font-family="Arial" font-size="14.00" fill="#000000">employeeComment    </text>
<text text-anchor="start" x="465.5512" y="-143.9" font-family="Arial" font-size="14.00" fill="#666666">[varchar]</text>
<polygon fill="none" stroke="#000000" points="303,-102.5 303,-132.5 600,-132.5 600,-102.5 303,-102.5"/>
<text text-anchor="start" x="310" y="-113.9" font-family="Arial" font-size="14.00" fill="#000000">employeeActive    </text>
<text text-anchor="start" x="443.0014" y="-113.9" font-family="Arial" font-size="14.00" fill="#666666">[boolean]</text>
<polygon fill="none" stroke="#000000" points="303,-72.5 303,-102.5 600,-102.5 600,-72.5 303,-72.5"/>
<text text-anchor="start" x="310" y="-83.9" font-family="Arial" font-size="14.00" fill="#000000">createdAt    </text>
<text text-anchor="start" x="404.1136" y="-83.9" font-family="Arial" font-size="14.00" fill="#666666">[timestamp without time zone]</text>
<polygon fill="none" stroke="#000000" points="303,-42.5 303,-72.5 600,-72.5 600,-42.5 303,-42.5"/>
<text text-anchor="start" x="309.9208" y="-53.9" font-family="Arial" font-size="14.00" fill="#000000">updatedAt    </text>
<text text-anchor="start" x="407.939" y="-53.9" font-family="Arial" font-size="14.00" fill="#666666">[timestamp without time zone]</text>
</g>
<!-- public.employeeLocalQualifications&#45;&gt;public.employees -->
<g id="edge1" class="edge">
<title>public.employeeLocalQualifications:employeeID&#45;&gt;public.employees:employeeID</title>
<path fill="none" stroke="#000000" d="M441.7637,-635.8958C414.8698,-626.2607 429.5731,-575.5361 452,-547 493.8305,-493.7748 558.1695,-564.2252 600,-511 633.9169,-467.8441 654.8889,-387.5 600,-387.5"/>
<polygon fill="#000000" stroke="#000000" points="442.1206,-635.9516 451.3032,-641.9457 447.0603,-636.7258 452,-637.5 452,-637.5 452,-637.5 447.0603,-636.7258 452.6968,-633.0543 442.1206,-635.9516 442.1206,-635.9516"/>
<text text-anchor="start" x="6.9475" y="-647.5" font-family="Arial" font-size="10.00" fill="#000000">FOREIGN KEY (&quot;employeeID&quot;) REFERENCES employees(&quot;employeeID&quot;) ON DELETE CASCADE</text>
</g>
<!-- public.qualificationsLocal -->
<g id="node3" class="node">
<title>public.qualificationsLocal</title>
<polygon fill="#efefef" stroke="transparent" points="704,-312.5 704,-347.5 1044,-347.5 1044,-312.5 704,-312.5"/>
<polygon fill="none" stroke="#000000" points="704,-312.5 704,-347.5 1044,-347.5 1044,-312.5 704,-312.5"/>
<text text-anchor="start" x="710.6958" y="-325.3" font-family="Arial Bold" font-size="18.00" fill="#000000">public.qualificationsLocal</text>
<text text-anchor="start" x="909.7362" y="-325.3" font-family="Arial" font-size="14.00" fill="#000000">    </text>
<text text-anchor="start" x="943.941" y="-325.3" font-family="Arial" font-size="14.00" fill="#666666">[BASE TABLE]</text>
<polygon fill="none" stroke="#000000" points="704,-282.5 704,-312.5 1044,-312.5 1044,-282.5 704,-282.5"/>
<text text-anchor="start" x="711" y="-293.9" font-family="Arial" font-size="14.00" fill="#000000">storeID    </text>
<text text-anchor="start" x="790.3184" y="-293.9" font-family="Arial" font-size="14.00" fill="#666666">[integer]</text>
<polygon fill="none" stroke="#000000" points="704,-252.5 704,-282.5 1044,-282.5 1044,-252.5 704,-252.5"/>
<text text-anchor="start" x="711" y="-263.9" font-family="Arial" font-size="14.00" fill="#000000">localQualID    </text>
<text text-anchor="start" x="817.5428" y="-263.9" font-family="Arial" font-size="14.00" fill="#666666">[integer]</text>
<polygon fill="none" stroke="#000000" points="704,-222.5 704,-252.5 1044,-252.5 1044,-222.5 704,-222.5"/>
<text text-anchor="start" x="711" y="-233.9" font-family="Arial" font-size="14.00" fill="#000000">localQualName    </text>
<text text-anchor="start" x="840.878" y="-233.9" font-family="Arial" font-size="14.00" fill="#666666">[varchar(64)]</text>
<polygon fill="none" stroke="#000000" points="704,-192.5 704,-222.5 1044,-222.5 1044,-192.5 704,-192.5"/>
<text text-anchor="start" x="711" y="-203.9" font-family="Arial" font-size="14.00" fill="#000000">createdAt    </text>
<text text-anchor="start" x="805.1136" y="-203.9" font-family="Arial" font-size="14.00" fill="#666666">[timestamp without time zone]</text>
<polygon fill="none" stroke="#000000" points="704,-162.5 704,-192.5 1044,-192.5 1044,-162.5 704,-162.5"/>
<text text-anchor="start" x="711" y="-173.9" font-family="Arial" font-size="14.00" fill="#000000">updatedAt    </text>
<text text-anchor="start" x="809.0182" y="-173.9" font-family="Arial" font-size="14.00" fill="#666666">[timestamp without time zone]</text>
</g>
<!-- public.employeeLocalQualifications&#45;&gt;public.qualificationsLocal -->
<g id="edge2" class="edge">
<title>public.employeeLocalQualifications:localQualID&#45;&gt;public.qualificationsLocal:localQualID</title>
<path fill="none" stroke="#000000" d="M883.9785,-604.8106C895.7577,-596.0287 883.0454,-567.5771 874,-547 832.7333,-453.1234 745.2667,-484.8766 704,-391 681.9116,-340.7517 649.1111,-267.5 704,-267.5"/>
<polygon fill="#000000" stroke="#000000" points="883.6555,-604.8976 872.8289,-603.155 878.8277,-606.1988 874,-607.5 874,-607.5 874,-607.5 878.8277,-606.1988 875.1711,-611.845 883.6555,-604.8976 883.6555,-604.8976"/>
<text text-anchor="start" x="881.399" y="-617.5" font-family="Arial" font-size="10.00" fill="#000000">FOREIGN KEY (&quot;localQualID&quot;) REFERENCES &quot;qualificationsLocal&quot;(&quot;localQualID&quot;) ON DELETE CASCADE</text>
</g>
</g>
</svg>
