<?xml version="1.0" encoding="UTF-8" standalone="no"?>
<!DOCTYPE svg PUBLIC "-//W3C//DTD SVG 1.1//EN"
 "http://www.w3.org/Graphics/SVG/1.1/DTD/svg11.dtd">
<!-- Generated by graphviz version 2.40.1 (20161225.0304)
 -->
<!-- Title: public.products Pages: 1 -->
<svg width="1105pt" height="1799pt"
 viewBox="0.00 0.00 1105.00 1799.00" xmlns="http://www.w3.org/2000/svg" xmlns:xlink="http://www.w3.org/1999/xlink">
<g id="graph0" class="graph" transform="scale(1 1) rotate(0) translate(4 1795)">
<title>public.products</title>
<polygon fill="#ffffff" stroke="transparent" points="-4,4 -4,-1795 1101,-1795 1101,4 -4,4"/>
<!-- public.products -->
<g id="node1" class="node">
<title>public.products</title>
<polygon fill="#efefef" stroke="transparent" points="388,-1342.5 388,-1377.5 654,-1377.5 654,-1342.5 388,-1342.5"/>
<polygon fill="none" stroke="#000000" points="388,-1342.5 388,-1377.5 654,-1377.5 654,-1342.5 388,-1342.5"/>
<text text-anchor="start" x="396.7018" y="-1355.3" font-family="Arial Bold" font-size="18.00" fill="#000000">public.products</text>
<text text-anchor="start" x="517.7302" y="-1355.3" font-family="Arial" font-size="14.00" fill="#000000">    </text>
<text text-anchor="start" x="551.935" y="-1355.3" font-family="Arial" font-size="14.00" fill="#666666">[BASE TABLE]</text>
<polygon fill="none" stroke="#000000" points="388,-1312.5 388,-1342.5 654,-1342.5 654,-1312.5 388,-1312.5"/>
<text text-anchor="start" x="395" y="-1323.9" font-family="Arial" font-size="14.00" fill="#000000">productID </text>
<text text-anchor="start" x="459.5694" y="-1323.9" font-family="Arial" font-size="14.00" fill="#666666">[integer]</text>
<polygon fill="none" stroke="#000000" points="388,-1282.5 388,-1312.5 654,-1312.5 654,-1282.5 388,-1282.5"/>
<text text-anchor="start" x="395" y="-1293.9" font-family="Arial" font-size="14.00" fill="#000000">storeID </text>
<text text-anchor="start" x="444.0042" y="-1293.9" font-family="Arial" font-size="14.00" fill="#666666">[integer]</text>
<polygon fill="none" stroke="#000000" points="388,-1252.5 388,-1282.5 654,-1282.5 654,-1252.5 388,-1252.5"/>
<text text-anchor="start" x="395" y="-1263.9" font-family="Arial" font-size="14.00" fill="#000000">productItemNumber </text>
<text text-anchor="start" x="522.5722" y="-1263.9" font-family="Arial" font-size="14.00" fill="#666666">[varchar]</text>
<polygon fill="none" stroke="#000000" points="388,-1222.5 388,-1252.5 654,-1252.5 654,-1222.5 388,-1222.5"/>
<text text-anchor="start" x="395" y="-1233.9" font-family="Arial" font-size="14.00" fill="#000000">currency </text>
<text text-anchor="start" x="452.5596" y="-1233.9" font-family="Arial" font-size="14.00" fill="#666666">[varchar(5)]</text>
<polygon fill="none" stroke="#000000" points="388,-1192.5 388,-1222.5 654,-1222.5 654,-1192.5 388,-1192.5"/>
<text text-anchor="start" x="395" y="-1203.9" font-family="Arial" font-size="14.00" fill="#000000">cost </text>
<text text-anchor="start" x="424.5638" y="-1203.9" font-family="Arial" font-size="14.00" fill="#666666">[real]</text>
<polygon fill="none" stroke="#000000" points="388,-1162.5 388,-1192.5 654,-1192.5 654,-1162.5 388,-1162.5"/>
<text text-anchor="start" x="395" y="-1173.9" font-family="Arial" font-size="14.00" fill="#000000">productCategoryID </text>
<text text-anchor="start" x="516.3576" y="-1173.9" font-family="Arial" font-size="14.00" fill="#666666">[integer]</text>
<polygon fill="none" stroke="#000000" points="388,-1132.5 388,-1162.5 654,-1162.5 654,-1132.5 388,-1132.5"/>
<text text-anchor="start" x="395" y="-1143.9" font-family="Arial" font-size="14.00" fill="#000000">productDescription </text>
<text text-anchor="start" x="515.5736" y="-1143.9" font-family="Arial" font-size="14.00" fill="#666666">[varchar(512)]</text>
<polygon fill="none" stroke="#000000" points="388,-1102.5 388,-1132.5 654,-1132.5 654,-1102.5 388,-1102.5"/>
<text text-anchor="start" x="395" y="-1113.9" font-family="Arial" font-size="14.00" fill="#000000">productSupplierArticleNumber </text>
<text text-anchor="start" x="585.5722" y="-1113.9" font-family="Arial" font-size="14.00" fill="#666666">[varchar]</text>
<polygon fill="none" stroke="#000000" points="388,-1072.5 388,-1102.5 654,-1102.5 654,-1072.5 388,-1072.5"/>
<text text-anchor="start" x="395" y="-1083.9" font-family="Arial" font-size="14.00" fill="#000000">productExternalArticleNumber </text>
<text text-anchor="start" x="585.5736" y="-1083.9" font-family="Arial" font-size="14.00" fill="#666666">[varchar]</text>
<polygon fill="none" stroke="#000000" points="388,-1042.5 388,-1072.5 654,-1072.5 654,-1042.5 388,-1042.5"/>
<text text-anchor="start" x="395" y="-1053.9" font-family="Arial" font-size="14.00" fill="#000000">productUpdateRelatedData </text>
<text text-anchor="start" x="568.4964" y="-1053.9" font-family="Arial" font-size="14.00" fill="#666666">[boolean]</text>
<polygon fill="none" stroke="#000000" points="388,-1012.5 388,-1042.5 654,-1042.5 654,-1012.5 388,-1012.5"/>
<text text-anchor="start" x="395" y="-1023.9" font-family="Arial" font-size="14.00" fill="#000000">award </text>
<text text-anchor="start" x="437.0056" y="-1023.9" font-family="Arial" font-size="14.00" fill="#666666">[real]</text>
<polygon fill="none" stroke="#000000" points="388,-982.5 388,-1012.5 654,-1012.5 654,-982.5 388,-982.5"/>
<text text-anchor="start" x="395" y="-993.9" font-family="Arial" font-size="14.00" fill="#000000">productInventoryBalance </text>
<text text-anchor="start" x="553.718" y="-993.9" font-family="Arial" font-size="14.00" fill="#666666">[integer]</text>
<polygon fill="none" stroke="#000000" points="388,-952.5 388,-982.5 654,-982.5 654,-952.5 388,-952.5"/>
<text text-anchor="start" x="395" y="-963.9" font-family="Arial" font-size="14.00" fill="#000000">createdAt </text>
<text text-anchor="start" x="458.7994" y="-963.9" font-family="Arial" font-size="14.00" fill="#666666">[timestamp without time zone]</text>
<polygon fill="none" stroke="#000000" points="388,-922.5 388,-952.5 654,-952.5 654,-922.5 388,-922.5"/>
<text text-anchor="start" x="394.5779" y="-933.9" font-family="Arial" font-size="14.00" fill="#000000">updatedAt </text>
<text text-anchor="start" x="462.2819" y="-933.9" font-family="Arial" font-size="14.00" fill="#666666">[timestamp without time zone]</text>
<polygon fill="none" stroke="#000000" stroke-width="3" points="386.5,-921.5 386.5,-1379.5 655.5,-1379.5 655.5,-921.5 386.5,-921.5"/>
</g>
<!-- public.stores -->
<g id="node3" class="node">
<title>public.stores</title>
<polygon fill="#efefef" stroke="transparent" points="161,-762.5 161,-797.5 458,-797.5 458,-762.5 161,-762.5"/>
<polygon fill="none" stroke="#000000" points="161,-762.5 161,-797.5 458,-797.5 458,-762.5 161,-762.5"/>
<text text-anchor="start" x="195.208" y="-775.3" font-family="Arial Bold" font-size="18.00" fill="#000000">public.stores</text>
<text text-anchor="start" x="296.224" y="-775.3" font-family="Arial" font-size="14.00" fill="#000000">    </text>
<text text-anchor="start" x="330.4288" y="-775.3" font-family="Arial" font-size="14.00" fill="#666666">[BASE TABLE]</text>
<polygon fill="none" stroke="#000000" points="161,-732.5 161,-762.5 458,-762.5 458,-732.5 161,-732.5"/>
<text text-anchor="start" x="168" y="-743.9" font-family="Arial" font-size="14.00" fill="#000000">storeID    </text>
<text text-anchor="start" x="247.3184" y="-743.9" font-family="Arial" font-size="14.00" fill="#666666">[integer]</text>
<polygon fill="none" stroke="#000000" points="161,-702.5 161,-732.5 458,-732.5 458,-702.5 161,-702.5"/>
<text text-anchor="start" x="168" y="-713.9" font-family="Arial" font-size="14.00" fill="#000000">storeOrgNumber    </text>
<text text-anchor="start" x="306.4306" y="-713.9" font-family="Arial" font-size="14.00" fill="#666666">[varchar(11)]</text>
<polygon fill="none" stroke="#000000" points="161,-672.5 161,-702.5 458,-702.5 458,-672.5 161,-672.5"/>
<text text-anchor="start" x="168" y="-683.9" font-family="Arial" font-size="14.00" fill="#000000">storeName    </text>
<text text-anchor="start" x="270.6536" y="-683.9" font-family="Arial" font-size="14.00" fill="#666666">[varchar(128)]</text>
<polygon fill="none" stroke="#000000" points="161,-642.5 161,-672.5 458,-672.5 458,-642.5 161,-642.5"/>
<text text-anchor="start" x="168" y="-653.9" font-family="Arial" font-size="14.00" fill="#000000">storeWebSite    </text>
<text text-anchor="start" x="286.2174" y="-653.9" font-family="Arial" font-size="14.00" fill="#666666">[varchar]</text>
<polygon fill="none" stroke="#000000" points="161,-612.5 161,-642.5 458,-642.5 458,-612.5 161,-612.5"/>
<text text-anchor="start" x="168" y="-623.9" font-family="Arial" font-size="14.00" fill="#000000">storeVatNumber    </text>
<text text-anchor="start" x="304.1066" y="-623.9" font-family="Arial" font-size="14.00" fill="#666666">[varchar(32)]</text>
<polygon fill="none" stroke="#000000" points="161,-582.5 161,-612.5 458,-612.5 458,-582.5 161,-582.5"/>
<text text-anchor="start" x="168" y="-593.9" font-family="Arial" font-size="14.00" fill="#000000">storeFSkatt    </text>
<text text-anchor="start" x="273.7742" y="-593.9" font-family="Arial" font-size="14.00" fill="#666666">[boolean]</text>
<polygon fill="none" stroke="#000000" points="161,-552.5 161,-582.5 458,-582.5 458,-552.5 161,-552.5"/>
<text text-anchor="start" x="168" y="-563.9" font-family="Arial" font-size="14.00" fill="#000000">storeStatus    </text>
<text text-anchor="start" x="273.0042" y="-563.9" font-family="Arial" font-size="14.00" fill="#666666">[boolean]</text>
<polygon fill="none" stroke="#000000" points="161,-522.5 161,-552.5 458,-552.5 458,-522.5 161,-522.5"/>
<text text-anchor="start" x="168" y="-533.9" font-family="Arial" font-size="14.00" fill="#000000">storeEmail    </text>
<text text-anchor="start" x="268.3142" y="-533.9" font-family="Arial" font-size="14.00" fill="#666666">[varchar]</text>
<polygon fill="none" stroke="#000000" points="161,-492.5 161,-522.5 458,-522.5 458,-492.5 161,-492.5"/>
<text text-anchor="start" x="168" y="-503.9" font-family="Arial" font-size="14.00" fill="#000000">storePhone    </text>
<text text-anchor="start" x="273.7882" y="-503.9" font-family="Arial" font-size="14.00" fill="#666666">[varchar]</text>
<polygon fill="none" stroke="#000000" points="161,-462.5 161,-492.5 458,-492.5 458,-462.5 161,-462.5"/>
<text text-anchor="start" x="168" y="-473.9" font-family="Arial" font-size="14.00" fill="#000000">storeAddress    </text>
<text text-anchor="start" x="284.6662" y="-473.9" font-family="Arial" font-size="14.00" fill="#666666">[varchar]</text>
<polygon fill="none" stroke="#000000" points="161,-432.5 161,-462.5 458,-462.5 458,-432.5 161,-432.5"/>
<text text-anchor="start" x="168" y="-443.9" font-family="Arial" font-size="14.00" fill="#000000">storeZipCode    </text>
<text text-anchor="start" x="286.2174" y="-443.9" font-family="Arial" font-size="14.00" fill="#666666">[varchar(16)]</text>
<polygon fill="none" stroke="#000000" points="161,-402.5 161,-432.5 458,-432.5 458,-402.5 161,-402.5"/>
<text text-anchor="start" x="168" y="-413.9" font-family="Arial" font-size="14.00" fill="#000000">storeCity    </text>
<text text-anchor="start" x="257.425" y="-413.9" font-family="Arial" font-size="14.00" fill="#666666">[varchar]</text>
<polygon fill="none" stroke="#000000" points="161,-372.5 161,-402.5 458,-402.5 458,-372.5 161,-372.5"/>
<text text-anchor="start" x="168" y="-383.9" font-family="Arial" font-size="14.00" fill="#000000">storeCountry    </text>
<text text-anchor="start" x="282.3268" y="-383.9" font-family="Arial" font-size="14.00" fill="#666666">[varchar]</text>
<polygon fill="none" stroke="#000000" points="161,-342.5 161,-372.5 458,-372.5 458,-342.5 161,-342.5"/>
<text text-anchor="start" x="168" y="-353.9" font-family="Arial" font-size="14.00" fill="#000000">storeDescription    </text>
<text text-anchor="start" x="303.3226" y="-353.9" font-family="Arial" font-size="14.00" fill="#666666">[varchar]</text>
<polygon fill="none" stroke="#000000" points="161,-312.5 161,-342.5 458,-342.5 458,-312.5 161,-312.5"/>
<text text-anchor="start" x="168" y="-323.9" font-family="Arial" font-size="14.00" fill="#000000">storeContactPerson    </text>
<text text-anchor="start" x="325.9018" y="-323.9" font-family="Arial" font-size="14.00" fill="#666666">[varchar(64)]</text>
<polygon fill="none" stroke="#000000" points="161,-282.5 161,-312.5 458,-312.5 458,-282.5 161,-282.5"/>
<text text-anchor="start" x="168" y="-293.9" font-family="Arial" font-size="14.00" fill="#000000">storeMaxUsers    </text>
<text text-anchor="start" x="296.3142" y="-293.9" font-family="Arial" font-size="14.00" fill="#666666">[integer]</text>
<polygon fill="none" stroke="#000000" points="161,-252.5 161,-282.5 458,-282.5 458,-252.5 161,-252.5"/>
<text text-anchor="start" x="168" y="-263.9" font-family="Arial" font-size="14.00" fill="#000000">currency    </text>
<text text-anchor="start" x="255.8738" y="-263.9" font-family="Arial" font-size="14.00" fill="#666666">[varchar]</text>
<polygon fill="none" stroke="#000000" points="161,-222.5 161,-252.5 458,-252.5 458,-222.5 161,-222.5"/>
<text text-anchor="start" x="168" y="-233.9" font-family="Arial" font-size="14.00" fill="#000000">storeAllowCarAPI    </text>
<text text-anchor="start" x="311.8738" y="-233.9" font-family="Arial" font-size="14.00" fill="#666666">[boolean]</text>
<polygon fill="none" stroke="#000000" points="161,-192.5 161,-222.5 458,-222.5 458,-192.5 161,-192.5"/>
<text text-anchor="start" x="168" y="-203.9" font-family="Arial" font-size="14.00" fill="#000000">storeAllowSendSMS    </text>
<text text-anchor="start" x="329.7784" y="-203.9" font-family="Arial" font-size="14.00" fill="#666666">[boolean]</text>
<polygon fill="none" stroke="#000000" points="161,-162.5 161,-192.5 458,-192.5 458,-162.5 161,-162.5"/>
<text text-anchor="start" x="168" y="-173.9" font-family="Arial" font-size="14.00" fill="#000000">storeSendSMS    </text>
<text text-anchor="start" x="296.3394" y="-173.9" font-family="Arial" font-size="14.00" fill="#666666">[boolean]</text>
<polygon fill="none" stroke="#000000" points="161,-132.5 161,-162.5 458,-162.5 458,-132.5 161,-132.5"/>
<text text-anchor="start" x="168" y="-143.9" font-family="Arial" font-size="14.00" fill="#000000">storeUsesCheckin    </text>
<text text-anchor="start" x="315.7714" y="-143.9" font-family="Arial" font-size="14.00" fill="#666666">[boolean]</text>
<polygon fill="none" stroke="#000000" points="161,-102.5 161,-132.5 458,-132.5 458,-102.5 161,-102.5"/>
<text text-anchor="start" x="168" y="-113.9" font-family="Arial" font-size="14.00" fill="#000000">storeUsesPIN    </text>
<text text-anchor="start" x="288.5442" y="-113.9" font-family="Arial" font-size="14.00" fill="#666666">[boolean]</text>
<polygon fill="none" stroke="#000000" points="161,-72.5 161,-102.5 458,-102.5 458,-72.5 161,-72.5"/>
<text text-anchor="start" x="168" y="-83.9" font-family="Arial" font-size="14.00" fill="#000000">createdAt    </text>
<text text-anchor="start" x="262.1136" y="-83.9" font-family="Arial" font-size="14.00" fill="#666666">[timestamp without time zone]</text>
<polygon fill="none" stroke="#000000" points="161,-42.5 161,-72.5 458,-72.5 458,-42.5 161,-42.5"/>
<text text-anchor="start" x="167.9208" y="-53.9" font-family="Arial" font-size="14.00" fill="#000000">updatedAt    </text>
<text text-anchor="start" x="265.939" y="-53.9" font-family="Arial" font-size="14.00" fill="#666666">[timestamp without time zone]</text>
</g>
<!-- public.products&#45;&gt;public.stores -->
<g id="edge2" class="edge">
<title>public.products:storeID&#45;&gt;public.stores:storeID</title>
<path fill="none" stroke="#000000" d="M377.8808,-1297.2328C204.4366,-1287.8506 292.4578,-1033.5728 388,-877 406.223,-847.1366 439.777,-870.8634 458,-841 479.6459,-805.5272 499.5556,-747.5 458,-747.5"/>
<polygon fill="#000000" stroke="#000000" points="378.0035,-1297.2359 387.8812,-1301.9984 383.0017,-1297.368 388,-1297.5 388,-1297.5 388,-1297.5 383.0017,-1297.368 388.1188,-1293.0016 378.0035,-1297.2359 378.0035,-1297.2359"/>
<text text-anchor="start" x="6.623" y="-1307.5" font-family="Arial" font-size="10.00" fill="#000000">FOREIGN KEY (&quot;storeID&quot;) REFERENCES stores(&quot;storeID&quot;) ON DELETE CASCADE</text>
</g>
<!-- public.productCategories -->
<g id="node4" class="node">
<title>public.productCategories</title>
<polygon fill="#efefef" stroke="transparent" points="562,-477.5 562,-512.5 902,-512.5 902,-477.5 562,-477.5"/>
<polygon fill="none" stroke="#000000" points="562,-477.5 562,-512.5 902,-512.5 902,-477.5 562,-477.5"/>
<text text-anchor="start" x="568.6949" y="-490.3" font-family="Arial Bold" font-size="18.00" fill="#000000">public.productCategories</text>
<text text-anchor="start" x="767.7371" y="-490.3" font-family="Arial" font-size="14.00" fill="#000000">    </text>
<text text-anchor="start" x="801.9419" y="-490.3" font-family="Arial" font-size="14.00" fill="#666666">[BASE TABLE]</text>
<polygon fill="none" stroke="#000000" points="562,-447.5 562,-477.5 902,-477.5 902,-447.5 562,-447.5"/>
<text text-anchor="start" x="569" y="-458.9" font-family="Arial" font-size="14.00" fill="#000000">productCategoryID    </text>
<text text-anchor="start" x="720.6718" y="-458.9" font-family="Arial" font-size="14.00" fill="#666666">[integer]</text>
<polygon fill="none" stroke="#000000" points="562,-417.5 562,-447.5 902,-447.5 902,-417.5 562,-417.5"/>
<text text-anchor="start" x="569" y="-428.9" font-family="Arial" font-size="14.00" fill="#000000">name    </text>
<text text-anchor="start" x="638.2132" y="-428.9" font-family="Arial" font-size="14.00" fill="#666666">[varchar(256)]</text>
<polygon fill="none" stroke="#000000" points="562,-387.5 562,-417.5 902,-417.5 902,-387.5 562,-387.5"/>
<text text-anchor="start" x="569" y="-398.9" font-family="Arial" font-size="14.00" fill="#000000">description    </text>
<text text-anchor="start" x="670.8822" y="-398.9" font-family="Arial" font-size="14.00" fill="#666666">[text]</text>
<polygon fill="none" stroke="#000000" points="562,-357.5 562,-387.5 902,-387.5 902,-357.5 562,-357.5"/>
<text text-anchor="start" x="569" y="-368.9" font-family="Arial" font-size="14.00" fill="#000000">createdAt    </text>
<text text-anchor="start" x="663.1136" y="-368.9" font-family="Arial" font-size="14.00" fill="#666666">[timestamp without time zone]</text>
<polygon fill="none" stroke="#000000" points="562,-327.5 562,-357.5 902,-357.5 902,-327.5 562,-327.5"/>
<text text-anchor="start" x="569" y="-338.9" font-family="Arial" font-size="14.00" fill="#000000">updatedAt    </text>
<text text-anchor="start" x="667.0182" y="-338.9" font-family="Arial" font-size="14.00" fill="#666666">[timestamp without time zone]</text>
</g>
<!-- public.products&#45;&gt;public.productCategories -->
<g id="edge3" class="edge">
<title>public.products:productCategoryID&#45;&gt;public.productCategories:productCategoryID</title>
<path fill="none" stroke="#000000" d="M664.3285,-1176.5005C792.9712,-1150.0848 569.3679,-608.4501 562,-556 556.2193,-514.8485 520.4444,-462.5 562,-462.5"/>
<polygon fill="#000000" stroke="#000000" points="663.9535,-1176.5368 653.5665,-1173.0209 658.9768,-1177.0184 654,-1177.5 654,-1177.5 654,-1177.5 658.9768,-1177.0184 654.4335,-1181.9791 663.9535,-1176.5368 663.9535,-1176.5368"/>
<text text-anchor="start" x="661.4445" y="-1187.5" font-family="Arial" font-size="10.00" fill="#000000">FOREIGN KEY (&quot;productCategoryID&quot;) REFERENCES &quot;productCategories&quot;(&quot;productCategoryID&quot;)</text>
</g>
<!-- public.orderProducts -->
<g id="node2" class="node">
<title>public.orderProducts</title>
<polygon fill="#efefef" stroke="transparent" points="368,-1712.5 368,-1747.5 674,-1747.5 674,-1712.5 368,-1712.5"/>
<polygon fill="none" stroke="#000000" points="368,-1712.5 368,-1747.5 674,-1747.5 674,-1712.5 368,-1712.5"/>
<text text-anchor="start" x="374.7013" y="-1725.3" font-family="Arial Bold" font-size="18.00" fill="#000000">public.orderProducts</text>
<text text-anchor="start" x="539.7307" y="-1725.3" font-family="Arial" font-size="14.00" fill="#000000">    </text>
<text text-anchor="start" x="573.9355" y="-1725.3" font-family="Arial" font-size="14.00" fill="#666666">[BASE TABLE]</text>
<polygon fill="none" stroke="#000000" points="368,-1682.5 368,-1712.5 674,-1712.5 674,-1682.5 368,-1682.5"/>
<text text-anchor="start" x="375" y="-1693.9" font-family="Arial" font-size="14.00" fill="#000000">orderID    </text>
<text text-anchor="start" x="455.871" y="-1693.9" font-family="Arial" font-size="14.00" fill="#666666">[integer]</text>
<polygon fill="none" stroke="#000000" points="368,-1652.5 368,-1682.5 674,-1682.5 674,-1652.5 368,-1652.5"/>
<text text-anchor="start" x="375" y="-1663.9" font-family="Arial" font-size="14.00" fill="#000000">productID    </text>
<text text-anchor="start" x="469.8836" y="-1663.9" font-family="Arial" font-size="14.00" fill="#666666">[integer]</text>
<polygon fill="none" stroke="#000000" points="368,-1622.5 368,-1652.5 674,-1652.5 674,-1622.5 368,-1622.5"/>
<text text-anchor="start" x="375" y="-1633.9" font-family="Arial" font-size="14.00" fill="#000000">productDescription    </text>
<text text-anchor="start" x="525.8878" y="-1633.9" font-family="Arial" font-size="14.00" fill="#666666">[varchar(256)]</text>
<polygon fill="none" stroke="#000000" points="368,-1592.5 368,-1622.5 674,-1622.5 674,-1592.5 368,-1592.5"/>
<text text-anchor="start" x="375" y="-1603.9" font-family="Arial" font-size="14.00" fill="#000000">amount    </text>
<text text-anchor="start" x="455.8864" y="-1603.9" font-family="Arial" font-size="14.00" fill="#666666">[integer]</text>
<polygon fill="none" stroke="#000000" points="368,-1562.5 368,-1592.5 674,-1592.5 674,-1562.5 368,-1562.5"/>
<text text-anchor="start" x="375" y="-1573.9" font-family="Arial" font-size="14.00" fill="#000000">cost    </text>
<text text-anchor="start" x="434.878" y="-1573.9" font-family="Arial" font-size="14.00" fill="#666666">[real]</text>
<polygon fill="none" stroke="#000000" points="368,-1532.5 368,-1562.5 674,-1562.5 674,-1532.5 368,-1532.5"/>
<text text-anchor="start" x="375" y="-1543.9" font-family="Arial" font-size="14.00" fill="#000000">currency    </text>
<text text-anchor="start" x="462.8738" y="-1543.9" font-family="Arial" font-size="14.00" fill="#666666">[varchar]</text>
<polygon fill="none" stroke="#000000" points="368,-1502.5 368,-1532.5 674,-1532.5 674,-1502.5 368,-1502.5"/>
<text text-anchor="start" x="375" y="-1513.9" font-family="Arial" font-size="14.00" fill="#000000">orderProductNotes    </text>
<text text-anchor="start" x="526.6718" y="-1513.9" font-family="Arial" font-size="14.00" fill="#666666">[varchar]</text>
</g>
<!-- public.orderProducts&#45;&gt;public.products -->
<g id="edge1" class="edge">
<title>public.orderProducts:productID&#45;&gt;public.products:productID</title>
<path fill="none" stroke="#000000" d="M684.3615,-1666.9485C824.3627,-1651.7493 801.8245,-1327.5 654,-1327.5"/>
<polygon fill="#000000" stroke="#000000" points="683.9859,-1666.9684 673.7608,-1663.0064 678.9929,-1667.2342 674,-1667.5 674,-1667.5 674,-1667.5 678.9929,-1667.2342 674.2392,-1671.9936 683.9859,-1666.9684 683.9859,-1666.9684"/>
<text text-anchor="start" x="680.946" y="-1677.5" font-family="Arial" font-size="10.00" fill="#000000">FOREIGN KEY (&quot;productID&quot;) REFERENCES products(&quot;productID&quot;) ON DELETE CASCADE</text>
</g>
</g>
</svg>
