<?xml version="1.0" encoding="UTF-8" standalone="no"?>
<!DOCTYPE svg PUBLIC "-//W3C//DTD SVG 1.1//EN"
 "http://www.w3.org/Graphics/SVG/1.1/DTD/svg11.dtd">
<!-- Generated by graphviz version 2.40.1 (20161225.0304)
 -->
<!-- Title: public.users Pages: 1 -->
<svg width="852pt" height="1259pt"
 viewBox="0.00 0.00 852.00 1259.00" xmlns="http://www.w3.org/2000/svg" xmlns:xlink="http://www.w3.org/1999/xlink">
<g id="graph0" class="graph" transform="scale(1 1) rotate(0) translate(4 1255)">
<title>public.users</title>
<polygon fill="#ffffff" stroke="transparent" points="-4,4 -4,-1255 848,-1255 848,4 -4,4"/>
<!-- public.users -->
<g id="node1" class="node">
<title>public.users</title>
<polygon fill="#efefef" stroke="transparent" points="274.5,-622.5 274.5,-657.5 540.5,-657.5 540.5,-622.5 274.5,-622.5"/>
<polygon fill="none" stroke="#000000" points="274.5,-622.5 274.5,-657.5 540.5,-657.5 540.5,-622.5 274.5,-622.5"/>
<text text-anchor="start" x="295.7091" y="-635.3" font-family="Arial Bold" font-size="18.00" fill="#000000">public.users</text>
<text text-anchor="start" x="391.7229" y="-635.3" font-family="Arial" font-size="14.00" fill="#000000">    </text>
<text text-anchor="start" x="425.9277" y="-635.3" font-family="Arial" font-size="14.00" fill="#666666">[BASE TABLE]</text>
<polygon fill="none" stroke="#000000" points="274.5,-592.5 274.5,-622.5 540.5,-622.5 540.5,-592.5 274.5,-592.5"/>
<text text-anchor="start" x="281.5" y="-603.9" font-family="Arial" font-size="14.00" fill="#000000">userID </text>
<text text-anchor="start" x="326.6136" y="-603.9" font-family="Arial" font-size="14.00" fill="#666666">[integer]</text>
<polygon fill="none" stroke="#000000" points="274.5,-562.5 274.5,-592.5 540.5,-592.5 540.5,-562.5 274.5,-562.5"/>
<text text-anchor="start" x="281.5" y="-573.9" font-family="Arial" font-size="14.00" fill="#000000">firstName </text>
<text text-anchor="start" x="345.2714" y="-573.9" font-family="Arial" font-size="14.00" fill="#666666">[varchar(128)]</text>
<polygon fill="none" stroke="#000000" points="274.5,-532.5 274.5,-562.5 540.5,-562.5 540.5,-532.5 274.5,-532.5"/>
<text text-anchor="start" x="281.5" y="-543.9" font-family="Arial" font-size="14.00" fill="#000000">lastName </text>
<text text-anchor="start" x="344.5028" y="-543.9" font-family="Arial" font-size="14.00" fill="#666666">[varchar(128)]</text>
<polygon fill="none" stroke="#000000" points="274.5,-502.5 274.5,-532.5 540.5,-532.5 540.5,-502.5 274.5,-502.5"/>
<text text-anchor="start" x="281.5" y="-513.9" font-family="Arial" font-size="14.00" fill="#000000">email </text>
<text text-anchor="start" x="318.8296" y="-513.9" font-family="Arial" font-size="14.00" fill="#666666">[varchar]</text>
<polygon fill="none" stroke="#000000" points="274.5,-472.5 274.5,-502.5 540.5,-502.5 540.5,-472.5 274.5,-472.5"/>
<text text-anchor="start" x="281.5" y="-483.9" font-family="Arial" font-size="14.00" fill="#000000">password </text>
<text text-anchor="start" x="345.2882" y="-483.9" font-family="Arial" font-size="14.00" fill="#666666">[text]</text>
<polygon fill="none" stroke="#000000" points="274.5,-442.5 274.5,-472.5 540.5,-472.5 540.5,-442.5 274.5,-442.5"/>
<text text-anchor="start" x="281.5" y="-453.9" font-family="Arial" font-size="14.00" fill="#000000">isSuperAdmin </text>
<text text-anchor="start" x="372.5112" y="-453.9" font-family="Arial" font-size="14.00" fill="#666666">[boolean]</text>
<polygon fill="none" stroke="#000000" points="274.5,-412.5 274.5,-442.5 540.5,-442.5 540.5,-412.5 274.5,-412.5"/>
<text text-anchor="start" x="281.5" y="-423.9" font-family="Arial" font-size="14.00" fill="#000000">roleID </text>
<text text-anchor="start" x="322.7202" y="-423.9" font-family="Arial" font-size="14.00" fill="#666666">[integer]</text>
<polygon fill="none" stroke="#000000" points="274.5,-382.5 274.5,-412.5 540.5,-412.5 540.5,-382.5 274.5,-382.5"/>
<text text-anchor="start" x="281.5" y="-393.9" font-family="Arial" font-size="14.00" fill="#000000">createdAt </text>
<text text-anchor="start" x="345.2994" y="-393.9" font-family="Arial" font-size="14.00" fill="#666666">[timestamp without time zone]</text>
<polygon fill="none" stroke="#000000" points="274.5,-352.5 274.5,-382.5 540.5,-382.5 540.5,-352.5 274.5,-352.5"/>
<text text-anchor="start" x="281.0779" y="-363.9" font-family="Arial" font-size="14.00" fill="#000000">updatedAt </text>
<text text-anchor="start" x="348.7819" y="-363.9" font-family="Arial" font-size="14.00" fill="#666666">[timestamp without time zone]</text>
<polygon fill="none" stroke="#000000" stroke-width="3" points="273,-351.5 273,-659.5 542,-659.5 542,-351.5 273,-351.5"/>
</g>
<!-- public.roles -->
<g id="node4" class="node">
<title>public.roles</title>
<polygon fill="#efefef" stroke="transparent" points="258.5,-192.5 258.5,-227.5 555.5,-227.5 555.5,-192.5 258.5,-192.5"/>
<polygon fill="none" stroke="#000000" points="258.5,-192.5 258.5,-227.5 555.5,-227.5 555.5,-192.5 258.5,-192.5"/>
<text text-anchor="start" x="297.712" y="-205.3" font-family="Arial Bold" font-size="18.00" fill="#000000">public.roles</text>
<text text-anchor="start" x="388.72" y="-205.3" font-family="Arial" font-size="14.00" fill="#000000">    </text>
<text text-anchor="start" x="422.9248" y="-205.3" font-family="Arial" font-size="14.00" fill="#666666">[BASE TABLE]</text>
<polygon fill="none" stroke="#000000" points="258.5,-162.5 258.5,-192.5 555.5,-192.5 555.5,-162.5 258.5,-162.5"/>
<text text-anchor="start" x="265.5" y="-173.9" font-family="Arial" font-size="14.00" fill="#000000">roleID    </text>
<text text-anchor="start" x="337.0344" y="-173.9" font-family="Arial" font-size="14.00" fill="#666666">[integer]</text>
<polygon fill="none" stroke="#000000" points="258.5,-132.5 258.5,-162.5 555.5,-162.5 555.5,-132.5 258.5,-132.5"/>
<text text-anchor="start" x="265.5" y="-143.9" font-family="Arial" font-size="14.00" fill="#000000">roleName    </text>
<text text-anchor="start" x="360.3696" y="-143.9" font-family="Arial" font-size="14.00" fill="#666666">[varchar(256)]</text>
<polygon fill="none" stroke="#000000" points="258.5,-102.5 258.5,-132.5 555.5,-132.5 555.5,-102.5 258.5,-102.5"/>
<text text-anchor="start" x="265.5" y="-113.9" font-family="Arial" font-size="14.00" fill="#000000">description    </text>
<text text-anchor="start" x="367.3822" y="-113.9" font-family="Arial" font-size="14.00" fill="#666666">[text]</text>
<polygon fill="none" stroke="#000000" points="258.5,-72.5 258.5,-102.5 555.5,-102.5 555.5,-72.5 258.5,-72.5"/>
<text text-anchor="start" x="265.5" y="-83.9" font-family="Arial" font-size="14.00" fill="#000000">createdAt    </text>
<text text-anchor="start" x="359.6136" y="-83.9" font-family="Arial" font-size="14.00" fill="#666666">[timestamp without time zone]</text>
<polygon fill="none" stroke="#000000" points="258.5,-42.5 258.5,-72.5 555.5,-72.5 555.5,-42.5 258.5,-42.5"/>
<text text-anchor="start" x="265.4208" y="-53.9" font-family="Arial" font-size="14.00" fill="#000000">updatedAt    </text>
<text text-anchor="start" x="363.439" y="-53.9" font-family="Arial" font-size="14.00" fill="#666666">[timestamp without time zone]</text>
</g>
<!-- public.users&#45;&gt;public.roles -->
<g id="edge3" class="edge">
<title>public.users:roleID&#45;&gt;public.roles:roleID</title>
<path fill="none" stroke="#000000" d="M264.5051,-426.4128C223.5096,-416.7093 241.537,-344.4554 274.5,-307 357.6826,-212.4807 472.3174,-365.5193 555.5,-271 582.9538,-239.8046 597.0556,-177.5 555.5,-177.5"/>
<polygon fill="#000000" stroke="#000000" points="264.5586,-426.4185 274.0133,-431.9736 269.5293,-426.9593 274.5,-427.5 274.5,-427.5 274.5,-427.5 269.5293,-426.9593 274.9867,-423.0264 264.5586,-426.4185 264.5586,-426.4185"/>
<text text-anchor="start" x="20.744" y="-437.5" font-family="Arial" font-size="10.00" fill="#000000">FOREIGN KEY (&quot;roleID&quot;) REFERENCES roles(&quot;roleID&quot;)</text>
</g>
<!-- public.employees -->
<g id="node2" class="node">
<title>public.employees</title>
<polygon fill="#efefef" stroke="transparent" points="43.5,-1172.5 43.5,-1207.5 340.5,-1207.5 340.5,-1172.5 43.5,-1172.5"/>
<polygon fill="none" stroke="#000000" points="43.5,-1172.5 43.5,-1207.5 340.5,-1207.5 340.5,-1172.5 43.5,-1172.5"/>
<text text-anchor="start" x="58.7027" y="-1185.3" font-family="Arial Bold" font-size="18.00" fill="#000000">public.employees</text>
<text text-anchor="start" x="197.7293" y="-1185.3" font-family="Arial" font-size="14.00" fill="#000000">    </text>
<text text-anchor="start" x="231.9341" y="-1185.3" font-family="Arial" font-size="14.00" fill="#666666">[BASE TABLE]</text>
<polygon fill="none" stroke="#000000" points="43.5,-1142.5 43.5,-1172.5 340.5,-1172.5 340.5,-1142.5 43.5,-1142.5"/>
<text text-anchor="start" x="50.5" y="-1153.9" font-family="Arial" font-size="14.00" fill="#000000">userID    </text>
<text text-anchor="start" x="125.9278" y="-1153.9" font-family="Arial" font-size="14.00" fill="#666666">[integer]</text>
<polygon fill="none" stroke="#000000" points="43.5,-1112.5 43.5,-1142.5 340.5,-1142.5 340.5,-1112.5 43.5,-1112.5"/>
<text text-anchor="start" x="50.5" y="-1123.9" font-family="Arial" font-size="14.00" fill="#000000">employeeID    </text>
<text text-anchor="start" x="159.3822" y="-1123.9" font-family="Arial" font-size="14.00" fill="#666666">[integer]</text>
<polygon fill="none" stroke="#000000" points="43.5,-1082.5 43.5,-1112.5 340.5,-1112.5 340.5,-1082.5 43.5,-1082.5"/>
<text text-anchor="start" x="50.5" y="-1093.9" font-family="Arial" font-size="14.00" fill="#000000">shortUserName    </text>
<text text-anchor="start" x="182.7034" y="-1093.9" font-family="Arial" font-size="14.00" fill="#666666">[varchar(16)]</text>
<polygon fill="none" stroke="#000000" points="43.5,-1052.5 43.5,-1082.5 340.5,-1082.5 340.5,-1052.5 43.5,-1052.5"/>
<text text-anchor="start" x="50.5" y="-1063.9" font-family="Arial" font-size="14.00" fill="#000000">employmentNumber    </text>
<text text-anchor="start" x="210.7118" y="-1063.9" font-family="Arial" font-size="14.00" fill="#666666">[varchar(128)]</text>
<polygon fill="none" stroke="#000000" points="43.5,-1022.5 43.5,-1052.5 340.5,-1052.5 340.5,-1022.5 43.5,-1022.5"/>
<text text-anchor="start" x="50.5" y="-1033.9" font-family="Arial" font-size="14.00" fill="#000000">employeePersonalNumber    </text>
<text text-anchor="start" x="250.3948" y="-1033.9" font-family="Arial" font-size="14.00" fill="#666666">[varchar(16)]</text>
<polygon fill="none" stroke="#000000" points="43.5,-992.5 43.5,-1022.5 340.5,-1022.5 340.5,-992.5 43.5,-992.5"/>
<text text-anchor="start" x="50.5" y="-1003.9" font-family="Arial" font-size="14.00" fill="#000000">signature    </text>
<text text-anchor="start" x="142.2756" y="-1003.9" font-family="Arial" font-size="14.00" fill="#666666">[varchar(4)]</text>
<polygon fill="none" stroke="#000000" points="43.5,-962.5 43.5,-992.5 340.5,-992.5 340.5,-962.5 43.5,-962.5"/>
<text text-anchor="start" x="50.5" y="-973.9" font-family="Arial" font-size="14.00" fill="#000000">employeeHourlyRate    </text>
<text text-anchor="start" x="215.3864" y="-973.9" font-family="Arial" font-size="14.00" fill="#666666">[real]</text>
<polygon fill="none" stroke="#000000" points="43.5,-932.5 43.5,-962.5 340.5,-962.5 340.5,-932.5 43.5,-932.5"/>
<text text-anchor="start" x="50.5" y="-943.9" font-family="Arial" font-size="14.00" fill="#000000">employeeHourlyRateCurrency    </text>
<text text-anchor="start" x="272.162" y="-943.9" font-family="Arial" font-size="14.00" fill="#666666">[varchar]</text>
<polygon fill="none" stroke="#000000" points="43.5,-902.5 43.5,-932.5 340.5,-932.5 340.5,-902.5 43.5,-902.5"/>
<text text-anchor="start" x="50.5" y="-913.9" font-family="Arial" font-size="14.00" fill="#000000">employeePin    </text>
<text text-anchor="start" x="165.6108" y="-913.9" font-family="Arial" font-size="14.00" fill="#666666">[varchar(4)]</text>
<polygon fill="none" stroke="#000000" points="43.5,-872.5 43.5,-902.5 340.5,-902.5 340.5,-872.5 43.5,-872.5"/>
<text text-anchor="start" x="50.5" y="-883.9" font-family="Arial" font-size="14.00" fill="#000000">employeeComment    </text>
<text text-anchor="start" x="206.0512" y="-883.9" font-family="Arial" font-size="14.00" fill="#666666">[varchar]</text>
<polygon fill="none" stroke="#000000" points="43.5,-842.5 43.5,-872.5 340.5,-872.5 340.5,-842.5 43.5,-842.5"/>
<text text-anchor="start" x="50.5" y="-853.9" font-family="Arial" font-size="14.00" fill="#000000">employeeActive    </text>
<text text-anchor="start" x="183.5014" y="-853.9" font-family="Arial" font-size="14.00" fill="#666666">[boolean]</text>
<polygon fill="none" stroke="#000000" points="43.5,-812.5 43.5,-842.5 340.5,-842.5 340.5,-812.5 43.5,-812.5"/>
<text text-anchor="start" x="50.5" y="-823.9" font-family="Arial" font-size="14.00" fill="#000000">createdAt    </text>
<text text-anchor="start" x="144.6136" y="-823.9" font-family="Arial" font-size="14.00" fill="#666666">[timestamp without time zone]</text>
<polygon fill="none" stroke="#000000" points="43.5,-782.5 43.5,-812.5 340.5,-812.5 340.5,-782.5 43.5,-782.5"/>
<text text-anchor="start" x="50.4208" y="-793.9" font-family="Arial" font-size="14.00" fill="#000000">updatedAt    </text>
<text text-anchor="start" x="148.439" y="-793.9" font-family="Arial" font-size="14.00" fill="#666666">[timestamp without time zone]</text>
</g>
<!-- public.employees&#45;&gt;public.users -->
<g id="edge1" class="edge">
<title>public.employees:userID&#45;&gt;public.users:userID</title>
<path fill="none" stroke="#000000" d="M349.284,-1152.1481C383.6906,-1106.0682 362.5149,-777.085 340.5,-740 323.4437,-711.268 291.5563,-732.732 274.5,-704 252.6067,-667.1199 231.6111,-607.5 274.5,-607.5"/>
<polygon fill="#000000" stroke="#000000" points="349.0398,-1152.2969 338.1586,-1153.6571 344.7699,-1154.8984 340.5,-1157.5 340.5,-1157.5 340.5,-1157.5 344.7699,-1154.8984 342.8414,-1161.3429 349.0398,-1152.2969 349.0398,-1152.2969"/>
<text text-anchor="start" x="347.2915" y="-1167.5" font-family="Arial" font-size="10.00" fill="#000000">FOREIGN KEY (&quot;userID&quot;) REFERENCES users(&quot;userID&quot;) ON DELETE CASCADE</text>
</g>
<!-- public.userBelongsToStore -->
<g id="node3" class="node">
<title>public.userBelongsToStore</title>
<polygon fill="#efefef" stroke="transparent" points="444.5,-1007.5 444.5,-1042.5 801.5,-1042.5 801.5,-1007.5 444.5,-1007.5"/>
<polygon fill="none" stroke="#000000" points="444.5,-1007.5 444.5,-1042.5 801.5,-1042.5 801.5,-1007.5 444.5,-1007.5"/>
<text text-anchor="start" x="451.1908" y="-1020.3" font-family="Arial Bold" font-size="18.00" fill="#000000">public.userBelongsToStore</text>
<text text-anchor="start" x="667.2412" y="-1020.3" font-family="Arial" font-size="14.00" fill="#000000">    </text>
<text text-anchor="start" x="701.446" y="-1020.3" font-family="Arial" font-size="14.00" fill="#666666">[BASE TABLE]</text>
<polygon fill="none" stroke="#000000" points="444.5,-977.5 444.5,-1007.5 801.5,-1007.5 801.5,-977.5 444.5,-977.5"/>
<text text-anchor="start" x="451.5" y="-988.9" font-family="Arial" font-size="14.00" fill="#000000">userID    </text>
<text text-anchor="start" x="526.9278" y="-988.9" font-family="Arial" font-size="14.00" fill="#666666">[integer]</text>
<polygon fill="none" stroke="#000000" points="444.5,-947.5 444.5,-977.5 801.5,-977.5 801.5,-947.5 444.5,-947.5"/>
<text text-anchor="start" x="451.5" y="-958.9" font-family="Arial" font-size="14.00" fill="#000000">storeID    </text>
<text text-anchor="start" x="530.8184" y="-958.9" font-family="Arial" font-size="14.00" fill="#666666">[integer]</text>
</g>
<!-- public.userBelongsToStore&#45;&gt;public.users -->
<g id="edge2" class="edge">
<title>public.userBelongsToStore:userID&#45;&gt;public.users:userID</title>
<path fill="none" stroke="#000000" d="M434.4282,-992.0209C286.2905,-976.8709 713.2338,-607.5 540.5,-607.5"/>
<polygon fill="#000000" stroke="#000000" points="434.5113,-992.0247 444.2861,-996.9949 439.5056,-992.2624 444.5,-992.5 444.5,-992.5 444.5,-992.5 439.5056,-992.2624 444.7139,-988.0051 434.5113,-992.0247 434.5113,-992.0247"/>
<text text-anchor="start" x="451.2915" y="-1002.5" font-family="Arial" font-size="10.00" fill="#000000">FOREIGN KEY (&quot;userID&quot;) REFERENCES users(&quot;userID&quot;) ON DELETE CASCADE</text>
</g>
</g>
</svg>
