<?xml version="1.0" encoding="UTF-8" standalone="no"?>
<!DOCTYPE svg PUBLIC "-//W3C//DTD SVG 1.1//EN"
 "http://www.w3.org/Graphics/SVG/1.1/DTD/svg11.dtd">
<!-- Generated by graphviz version 2.40.1 (20161225.0304)
 -->
<!-- Title: public.localProducts Pages: 1 -->
<svg width="1140pt" height="1432pt"
 viewBox="0.00 0.00 1140.00 1432.00" xmlns="http://www.w3.org/2000/svg" xmlns:xlink="http://www.w3.org/1999/xlink">
<g id="graph0" class="graph" transform="scale(1 1) rotate(0) translate(4 1428)">
<title>public.localProducts</title>
<polygon fill="#ffffff" stroke="transparent" points="-4,4 -4,-1428 1136,-1428 1136,4 -4,4"/>
<!-- public.localProducts -->
<g id="node1" class="node">
<title>public.localProducts</title>
<polygon fill="#efefef" stroke="transparent" points="388,-1342.5 388,-1377.5 689,-1377.5 689,-1342.5 388,-1342.5"/>
<polygon fill="none" stroke="#000000" points="388,-1342.5 388,-1377.5 689,-1377.5 689,-1342.5 388,-1342.5"/>
<text text-anchor="start" x="394.7024" y="-1355.3" font-family="Arial Bold" font-size="18.00" fill="#000000">public.localProducts</text>
<text text-anchor="start" x="554.7296" y="-1355.3" font-family="Arial" font-size="14.00" fill="#000000">    </text>
<text text-anchor="start" x="588.9344" y="-1355.3" font-family="Arial" font-size="14.00" fill="#666666">[BASE TABLE]</text>
<polygon fill="none" stroke="#000000" points="388,-1312.5 388,-1342.5 689,-1342.5 689,-1312.5 388,-1312.5"/>
<text text-anchor="start" x="395" y="-1323.9" font-family="Arial" font-size="14.00" fill="#000000">storeID </text>
<text text-anchor="start" x="444.0042" y="-1323.9" font-family="Arial" font-size="14.00" fill="#666666">[integer]</text>
<polygon fill="none" stroke="#000000" points="388,-1282.5 388,-1312.5 689,-1312.5 689,-1282.5 388,-1282.5"/>
<text text-anchor="start" x="395" y="-1293.9" font-family="Arial" font-size="14.00" fill="#000000">localProductID </text>
<text text-anchor="start" x="489.9018" y="-1293.9" font-family="Arial" font-size="14.00" fill="#666666">[integer]</text>
<polygon fill="none" stroke="#000000" points="388,-1252.5 388,-1282.5 689,-1282.5 689,-1252.5 388,-1252.5"/>
<text text-anchor="start" x="395" y="-1263.9" font-family="Arial" font-size="14.00" fill="#000000">productItemNumber </text>
<text text-anchor="start" x="522.5722" y="-1263.9" font-family="Arial" font-size="14.00" fill="#666666">[varchar]</text>
<polygon fill="none" stroke="#000000" points="388,-1222.5 388,-1252.5 689,-1252.5 689,-1222.5 388,-1222.5"/>
<text text-anchor="start" x="395" y="-1233.9" font-family="Arial" font-size="14.00" fill="#000000">currency </text>
<text text-anchor="start" x="452.5596" y="-1233.9" font-family="Arial" font-size="14.00" fill="#666666">[varchar(5)]</text>
<polygon fill="none" stroke="#000000" points="388,-1192.5 388,-1222.5 689,-1222.5 689,-1192.5 388,-1192.5"/>
<text text-anchor="start" x="395" y="-1203.9" font-family="Arial" font-size="14.00" fill="#000000">cost </text>
<text text-anchor="start" x="424.5638" y="-1203.9" font-family="Arial" font-size="14.00" fill="#666666">[real]</text>
<polygon fill="none" stroke="#000000" points="388,-1162.5 388,-1192.5 689,-1192.5 689,-1162.5 388,-1162.5"/>
<text text-anchor="start" x="395" y="-1173.9" font-family="Arial" font-size="14.00" fill="#000000">productCategoryID </text>
<text text-anchor="start" x="516.3576" y="-1173.9" font-family="Arial" font-size="14.00" fill="#666666">[integer]</text>
<polygon fill="none" stroke="#000000" points="388,-1132.5 388,-1162.5 689,-1162.5 689,-1132.5 388,-1132.5"/>
<text text-anchor="start" x="395" y="-1143.9" font-family="Arial" font-size="14.00" fill="#000000">productDescription </text>
<text text-anchor="start" x="515.5736" y="-1143.9" font-family="Arial" font-size="14.00" fill="#666666">[varchar(512)]</text>
<polygon fill="none" stroke="#000000" points="388,-1102.5 388,-1132.5 689,-1132.5 689,-1102.5 388,-1102.5"/>
<text text-anchor="start" x="395" y="-1113.9" font-family="Arial" font-size="14.00" fill="#000000">productSupplierArticleNumber </text>
<text text-anchor="start" x="585.5722" y="-1113.9" font-family="Arial" font-size="14.00" fill="#666666">[varchar]</text>
<polygon fill="none" stroke="#000000" points="388,-1072.5 388,-1102.5 689,-1102.5 689,-1072.5 388,-1072.5"/>
<text text-anchor="start" x="395" y="-1083.9" font-family="Arial" font-size="14.00" fill="#000000">productExternalArticleNumber </text>
<text text-anchor="start" x="585.5736" y="-1083.9" font-family="Arial" font-size="14.00" fill="#666666">[varchar]</text>
<polygon fill="none" stroke="#000000" points="388,-1042.5 388,-1072.5 689,-1072.5 689,-1042.5 388,-1042.5"/>
<text text-anchor="start" x="395" y="-1053.9" font-family="Arial" font-size="14.00" fill="#000000">productUpdateRelatedData </text>
<text text-anchor="start" x="568.4964" y="-1053.9" font-family="Arial" font-size="14.00" fill="#666666">[boolean]</text>
<polygon fill="none" stroke="#000000" points="388,-1012.5 388,-1042.5 689,-1042.5 689,-1012.5 388,-1012.5"/>
<text text-anchor="start" x="395" y="-1023.9" font-family="Arial" font-size="14.00" fill="#000000">award </text>
<text text-anchor="start" x="437.0056" y="-1023.9" font-family="Arial" font-size="14.00" fill="#666666">[real]</text>
<polygon fill="none" stroke="#000000" points="388,-982.5 388,-1012.5 689,-1012.5 689,-982.5 388,-982.5"/>
<text text-anchor="start" x="395" y="-993.9" font-family="Arial" font-size="14.00" fill="#000000">productInventoryBalance </text>
<text text-anchor="start" x="553.718" y="-993.9" font-family="Arial" font-size="14.00" fill="#666666">[integer]</text>
<polygon fill="none" stroke="#000000" points="388,-952.5 388,-982.5 689,-982.5 689,-952.5 388,-952.5"/>
<text text-anchor="start" x="395" y="-963.9" font-family="Arial" font-size="14.00" fill="#000000">createdAt </text>
<text text-anchor="start" x="458.7994" y="-963.9" font-family="Arial" font-size="14.00" fill="#666666">[timestamp without time zone]</text>
<polygon fill="none" stroke="#000000" points="388,-922.5 388,-952.5 689,-952.5 689,-922.5 388,-922.5"/>
<text text-anchor="start" x="395" y="-933.9" font-family="Arial" font-size="14.00" fill="#000000">updatedAt </text>
<text text-anchor="start" x="462.704" y="-933.9" font-family="Arial" font-size="14.00" fill="#666666">[timestamp without time zone]</text>
<polygon fill="none" stroke="#000000" stroke-width="3" points="386,-921.5 386,-1379.5 690,-1379.5 690,-921.5 386,-921.5"/>
</g>
<!-- public.stores -->
<g id="node2" class="node">
<title>public.stores</title>
<polygon fill="#efefef" stroke="transparent" points="179,-762.5 179,-797.5 476,-797.5 476,-762.5 179,-762.5"/>
<polygon fill="none" stroke="#000000" points="179,-762.5 179,-797.5 476,-797.5 476,-762.5 179,-762.5"/>
<text text-anchor="start" x="213.208" y="-775.3" font-family="Arial Bold" font-size="18.00" fill="#000000">public.stores</text>
<text text-anchor="start" x="314.224" y="-775.3" font-family="Arial" font-size="14.00" fill="#000000">    </text>
<text text-anchor="start" x="348.4288" y="-775.3" font-family="Arial" font-size="14.00" fill="#666666">[BASE TABLE]</text>
<polygon fill="none" stroke="#000000" points="179,-732.5 179,-762.5 476,-762.5 476,-732.5 179,-732.5"/>
<text text-anchor="start" x="186" y="-743.9" font-family="Arial" font-size="14.00" fill="#000000">storeID    </text>
<text text-anchor="start" x="265.3184" y="-743.9" font-family="Arial" font-size="14.00" fill="#666666">[integer]</text>
<polygon fill="none" stroke="#000000" points="179,-702.5 179,-732.5 476,-732.5 476,-702.5 179,-702.5"/>
<text text-anchor="start" x="186" y="-713.9" font-family="Arial" font-size="14.00" fill="#000000">storeOrgNumber    </text>
<text text-anchor="start" x="324.4306" y="-713.9" font-family="Arial" font-size="14.00" fill="#666666">[varchar(11)]</text>
<polygon fill="none" stroke="#000000" points="179,-672.5 179,-702.5 476,-702.5 476,-672.5 179,-672.5"/>
<text text-anchor="start" x="186" y="-683.9" font-family="Arial" font-size="14.00" fill="#000000">storeName    </text>
<text text-anchor="start" x="288.6536" y="-683.9" font-family="Arial" font-size="14.00" fill="#666666">[varchar(128)]</text>
<polygon fill="none" stroke="#000000" points="179,-642.5 179,-672.5 476,-672.5 476,-642.5 179,-642.5"/>
<text text-anchor="start" x="186" y="-653.9" font-family="Arial" font-size="14.00" fill="#000000">storeWebSite    </text>
<text text-anchor="start" x="304.2174" y="-653.9" font-family="Arial" font-size="14.00" fill="#666666">[varchar]</text>
<polygon fill="none" stroke="#000000" points="179,-612.5 179,-642.5 476,-642.5 476,-612.5 179,-612.5"/>
<text text-anchor="start" x="186" y="-623.9" font-family="Arial" font-size="14.00" fill="#000000">storeVatNumber    </text>
<text text-anchor="start" x="322.1066" y="-623.9" font-family="Arial" font-size="14.00" fill="#666666">[varchar(32)]</text>
<polygon fill="none" stroke="#000000" points="179,-582.5 179,-612.5 476,-612.5 476,-582.5 179,-582.5"/>
<text text-anchor="start" x="186" y="-593.9" font-family="Arial" font-size="14.00" fill="#000000">storeFSkatt    </text>
<text text-anchor="start" x="291.7742" y="-593.9" font-family="Arial" font-size="14.00" fill="#666666">[boolean]</text>
<polygon fill="none" stroke="#000000" points="179,-552.5 179,-582.5 476,-582.5 476,-552.5 179,-552.5"/>
<text text-anchor="start" x="186" y="-563.9" font-family="Arial" font-size="14.00" fill="#000000">storeStatus    </text>
<text text-anchor="start" x="291.0042" y="-563.9" font-family="Arial" font-size="14.00" fill="#666666">[boolean]</text>
<polygon fill="none" stroke="#000000" points="179,-522.5 179,-552.5 476,-552.5 476,-522.5 179,-522.5"/>
<text text-anchor="start" x="186" y="-533.9" font-family="Arial" font-size="14.00" fill="#000000">storeEmail    </text>
<text text-anchor="start" x="286.3142" y="-533.9" font-family="Arial" font-size="14.00" fill="#666666">[varchar]</text>
<polygon fill="none" stroke="#000000" points="179,-492.5 179,-522.5 476,-522.5 476,-492.5 179,-492.5"/>
<text text-anchor="start" x="186" y="-503.9" font-family="Arial" font-size="14.00" fill="#000000">storePhone    </text>
<text text-anchor="start" x="291.7882" y="-503.9" font-family="Arial" font-size="14.00" fill="#666666">[varchar]</text>
<polygon fill="none" stroke="#000000" points="179,-462.5 179,-492.5 476,-492.5 476,-462.5 179,-462.5"/>
<text text-anchor="start" x="186" y="-473.9" font-family="Arial" font-size="14.00" fill="#000000">storeAddress    </text>
<text text-anchor="start" x="302.6662" y="-473.9" font-family="Arial" font-size="14.00" fill="#666666">[varchar]</text>
<polygon fill="none" stroke="#000000" points="179,-432.5 179,-462.5 476,-462.5 476,-432.5 179,-432.5"/>
<text text-anchor="start" x="186" y="-443.9" font-family="Arial" font-size="14.00" fill="#000000">storeZipCode    </text>
<text text-anchor="start" x="304.2174" y="-443.9" font-family="Arial" font-size="14.00" fill="#666666">[varchar(16)]</text>
<polygon fill="none" stroke="#000000" points="179,-402.5 179,-432.5 476,-432.5 476,-402.5 179,-402.5"/>
<text text-anchor="start" x="186" y="-413.9" font-family="Arial" font-size="14.00" fill="#000000">storeCity    </text>
<text text-anchor="start" x="275.425" y="-413.9" font-family="Arial" font-size="14.00" fill="#666666">[varchar]</text>
<polygon fill="none" stroke="#000000" points="179,-372.5 179,-402.5 476,-402.5 476,-372.5 179,-372.5"/>
<text text-anchor="start" x="186" y="-383.9" font-family="Arial" font-size="14.00" fill="#000000">storeCountry    </text>
<text text-anchor="start" x="300.3268" y="-383.9" font-family="Arial" font-size="14.00" fill="#666666">[varchar]</text>
<polygon fill="none" stroke="#000000" points="179,-342.5 179,-372.5 476,-372.5 476,-342.5 179,-342.5"/>
<text text-anchor="start" x="186" y="-353.9" font-family="Arial" font-size="14.00" fill="#000000">storeDescription    </text>
<text text-anchor="start" x="321.3226" y="-353.9" font-family="Arial" font-size="14.00" fill="#666666">[varchar]</text>
<polygon fill="none" stroke="#000000" points="179,-312.5 179,-342.5 476,-342.5 476,-312.5 179,-312.5"/>
<text text-anchor="start" x="186" y="-323.9" font-family="Arial" font-size="14.00" fill="#000000">storeContactPerson    </text>
<text text-anchor="start" x="343.9018" y="-323.9" font-family="Arial" font-size="14.00" fill="#666666">[varchar(64)]</text>
<polygon fill="none" stroke="#000000" points="179,-282.5 179,-312.5 476,-312.5 476,-282.5 179,-282.5"/>
<text text-anchor="start" x="186" y="-293.9" font-family="Arial" font-size="14.00" fill="#000000">storeMaxUsers    </text>
<text text-anchor="start" x="314.3142" y="-293.9" font-family="Arial" font-size="14.00" fill="#666666">[integer]</text>
<polygon fill="none" stroke="#000000" points="179,-252.5 179,-282.5 476,-282.5 476,-252.5 179,-252.5"/>
<text text-anchor="start" x="186" y="-263.9" font-family="Arial" font-size="14.00" fill="#000000">currency    </text>
<text text-anchor="start" x="273.8738" y="-263.9" font-family="Arial" font-size="14.00" fill="#666666">[varchar]</text>
<polygon fill="none" stroke="#000000" points="179,-222.5 179,-252.5 476,-252.5 476,-222.5 179,-222.5"/>
<text text-anchor="start" x="186" y="-233.9" font-family="Arial" font-size="14.00" fill="#000000">storeAllowCarAPI    </text>
<text text-anchor="start" x="329.8738" y="-233.9" font-family="Arial" font-size="14.00" fill="#666666">[boolean]</text>
<polygon fill="none" stroke="#000000" points="179,-192.5 179,-222.5 476,-222.5 476,-192.5 179,-192.5"/>
<text text-anchor="start" x="186" y="-203.9" font-family="Arial" font-size="14.00" fill="#000000">storeAllowSendSMS    </text>
<text text-anchor="start" x="347.7784" y="-203.9" font-family="Arial" font-size="14.00" fill="#666666">[boolean]</text>
<polygon fill="none" stroke="#000000" points="179,-162.5 179,-192.5 476,-192.5 476,-162.5 179,-162.5"/>
<text text-anchor="start" x="186" y="-173.9" font-family="Arial" font-size="14.00" fill="#000000">storeSendSMS    </text>
<text text-anchor="start" x="314.3394" y="-173.9" font-family="Arial" font-size="14.00" fill="#666666">[boolean]</text>
<polygon fill="none" stroke="#000000" points="179,-132.5 179,-162.5 476,-162.5 476,-132.5 179,-132.5"/>
<text text-anchor="start" x="186" y="-143.9" font-family="Arial" font-size="14.00" fill="#000000">storeUsesCheckin    </text>
<text text-anchor="start" x="333.7714" y="-143.9" font-family="Arial" font-size="14.00" fill="#666666">[boolean]</text>
<polygon fill="none" stroke="#000000" points="179,-102.5 179,-132.5 476,-132.5 476,-102.5 179,-102.5"/>
<text text-anchor="start" x="186" y="-113.9" font-family="Arial" font-size="14.00" fill="#000000">storeUsesPIN    </text>
<text text-anchor="start" x="306.5442" y="-113.9" font-family="Arial" font-size="14.00" fill="#666666">[boolean]</text>
<polygon fill="none" stroke="#000000" points="179,-72.5 179,-102.5 476,-102.5 476,-72.5 179,-72.5"/>
<text text-anchor="start" x="186" y="-83.9" font-family="Arial" font-size="14.00" fill="#000000">createdAt    </text>
<text text-anchor="start" x="280.1136" y="-83.9" font-family="Arial" font-size="14.00" fill="#666666">[timestamp without time zone]</text>
<polygon fill="none" stroke="#000000" points="179,-42.5 179,-72.5 476,-72.5 476,-42.5 179,-42.5"/>
<text text-anchor="start" x="185.9208" y="-53.9" font-family="Arial" font-size="14.00" fill="#000000">updatedAt    </text>
<text text-anchor="start" x="283.939" y="-53.9" font-family="Arial" font-size="14.00" fill="#666666">[timestamp without time zone]</text>
</g>
<!-- public.localProducts&#45;&gt;public.stores -->
<g id="edge1" class="edge">
<title>public.localProducts:storeID&#45;&gt;public.stores:storeID</title>
<path fill="none" stroke="#000000" d="M377.9865,-1327.2529C190.8135,-1317.8184 278.3054,-1040.3937 388,-877 411.5538,-841.9158 452.4462,-876.0842 476,-841 499.1626,-806.4985 517.5556,-747.5 476,-747.5"/>
<polygon fill="#000000" stroke="#000000" points="378.003,-1327.2532 387.889,-1331.9986 383.0015,-1327.3766 388,-1327.5 388,-1327.5 388,-1327.5 383.0015,-1327.3766 388.111,-1323.0014 378.003,-1327.2532 378.003,-1327.2532"/>
<text text-anchor="start" x="6.623" y="-1337.5" font-family="Arial" font-size="10.00" fill="#000000">FOREIGN KEY (&quot;storeID&quot;) REFERENCES stores(&quot;storeID&quot;) ON DELETE CASCADE</text>
</g>
<!-- public.productCategories -->
<g id="node3" class="node">
<title>public.productCategories</title>
<polygon fill="#efefef" stroke="transparent" points="580,-477.5 580,-512.5 920,-512.5 920,-477.5 580,-477.5"/>
<polygon fill="none" stroke="#000000" points="580,-477.5 580,-512.5 920,-512.5 920,-477.5 580,-477.5"/>
<text text-anchor="start" x="586.6949" y="-490.3" font-family="Arial Bold" font-size="18.00" fill="#000000">public.productCategories</text>
<text text-anchor="start" x="785.7371" y="-490.3" font-family="Arial" font-size="14.00" fill="#000000">    </text>
<text text-anchor="start" x="819.9419" y="-490.3" font-family="Arial" font-size="14.00" fill="#666666">[BASE TABLE]</text>
<polygon fill="none" stroke="#000000" points="580,-447.5 580,-477.5 920,-477.5 920,-447.5 580,-447.5"/>
<text text-anchor="start" x="587" y="-458.9" font-family="Arial" font-size="14.00" fill="#000000">productCategoryID    </text>
<text text-anchor="start" x="738.6718" y="-458.9" font-family="Arial" font-size="14.00" fill="#666666">[integer]</text>
<polygon fill="none" stroke="#000000" points="580,-417.5 580,-447.5 920,-447.5 920,-417.5 580,-417.5"/>
<text text-anchor="start" x="587" y="-428.9" font-family="Arial" font-size="14.00" fill="#000000">name    </text>
<text text-anchor="start" x="656.2132" y="-428.9" font-family="Arial" font-size="14.00" fill="#666666">[varchar(256)]</text>
<polygon fill="none" stroke="#000000" points="580,-387.5 580,-417.5 920,-417.5 920,-387.5 580,-387.5"/>
<text text-anchor="start" x="587" y="-398.9" font-family="Arial" font-size="14.00" fill="#000000">description    </text>
<text text-anchor="start" x="688.8822" y="-398.9" font-family="Arial" font-size="14.00" fill="#666666">[text]</text>
<polygon fill="none" stroke="#000000" points="580,-357.5 580,-387.5 920,-387.5 920,-357.5 580,-357.5"/>
<text text-anchor="start" x="587" y="-368.9" font-family="Arial" font-size="14.00" fill="#000000">createdAt    </text>
<text text-anchor="start" x="681.1136" y="-368.9" font-family="Arial" font-size="14.00" fill="#666666">[timestamp without time zone]</text>
<polygon fill="none" stroke="#000000" points="580,-327.5 580,-357.5 920,-357.5 920,-327.5 580,-327.5"/>
<text text-anchor="start" x="587" y="-338.9" font-family="Arial" font-size="14.00" fill="#000000">updatedAt    </text>
<text text-anchor="start" x="685.0182" y="-338.9" font-family="Arial" font-size="14.00" fill="#666666">[timestamp without time zone]</text>
</g>
<!-- public.localProducts&#45;&gt;public.productCategories -->
<g id="edge2" class="edge">
<title>public.localProducts:productCategoryID&#45;&gt;public.productCategories:productCategoryID</title>
<path fill="none" stroke="#000000" d="M699.3125,-1176.81C854.6226,-1154.9824 590.9207,-622.1255 580,-556 573.2288,-514.9998 538.4444,-462.5 580,-462.5"/>
<polygon fill="#000000" stroke="#000000" points="698.9777,-1176.8323 688.6995,-1173.01 693.9888,-1177.1662 689,-1177.5 689,-1177.5 689,-1177.5 693.9888,-1177.1662 689.3005,-1181.99 698.9777,-1176.8323 698.9777,-1176.8323"/>
<text text-anchor="start" x="696.4445" y="-1187.5" font-family="Arial" font-size="10.00" fill="#000000">FOREIGN KEY (&quot;productCategoryID&quot;) REFERENCES &quot;productCategories&quot;(&quot;productCategoryID&quot;)</text>
</g>
</g>
</svg>
