<?xml version="1.0" encoding="UTF-8" standalone="no"?>
<!DOCTYPE svg PUBLIC "-//W3C//DTD SVG 1.1//EN"
 "http://www.w3.org/Graphics/SVG/1.1/DTD/svg11.dtd">
<!-- Generated by graphviz version 2.40.1 (20161225.0304)
 -->
<!-- Title: public.serviceVariants Pages: 1 -->
<svg width="1143pt" height="1919pt"
 viewBox="0.00 0.00 1143.00 1919.00" xmlns="http://www.w3.org/2000/svg" xmlns:xlink="http://www.w3.org/1999/xlink">
<g id="graph0" class="graph" transform="scale(1 1) rotate(0) translate(4 1915)">
<title>public.serviceVariants</title>
<polygon fill="#ffffff" stroke="transparent" points="-4,4 -4,-1915 1139,-1915 1139,4 -4,4"/>
<!-- public.serviceVariants -->
<g id="node1" class="node">
<title>public.serviceVariants</title>
<polygon fill="#efefef" stroke="transparent" points="306,-1222.5 306,-1257.5 622,-1257.5 622,-1222.5 306,-1222.5"/>
<polygon fill="none" stroke="#000000" points="306,-1222.5 306,-1257.5 622,-1257.5 622,-1222.5 306,-1222.5"/>
<text text-anchor="start" x="312.7063" y="-1235.3" font-family="Arial Bold" font-size="18.00" fill="#000000">public.serviceVariants</text>
<text text-anchor="start" x="487.7257" y="-1235.3" font-family="Arial" font-size="14.00" fill="#000000">    </text>
<text text-anchor="start" x="521.9305" y="-1235.3" font-family="Arial" font-size="14.00" fill="#666666">[BASE TABLE]</text>
<polygon fill="none" stroke="#000000" points="306,-1192.5 306,-1222.5 622,-1222.5 622,-1192.5 306,-1192.5"/>
<text text-anchor="start" x="313" y="-1203.9" font-family="Arial" font-size="14.00" fill="#000000">serviceVariantID </text>
<text text-anchor="start" x="419.5624" y="-1203.9" font-family="Arial" font-size="14.00" fill="#666666">[integer]</text>
<polygon fill="none" stroke="#000000" points="306,-1162.5 306,-1192.5 622,-1192.5 622,-1162.5 306,-1162.5"/>
<text text-anchor="start" x="313" y="-1173.9" font-family="Arial" font-size="14.00" fill="#000000">name </text>
<text text-anchor="start" x="351.899" y="-1173.9" font-family="Arial" font-size="14.00" fill="#666666">[varchar(256)]</text>
<polygon fill="none" stroke="#000000" points="306,-1132.5 306,-1162.5 622,-1162.5 622,-1132.5 306,-1132.5"/>
<text text-anchor="start" x="313" y="-1143.9" font-family="Arial" font-size="14.00" fill="#000000">cost </text>
<text text-anchor="start" x="342.5638" y="-1143.9" font-family="Arial" font-size="14.00" fill="#666666">[real]</text>
<polygon fill="none" stroke="#000000" points="306,-1102.5 306,-1132.5 622,-1132.5 622,-1102.5 306,-1102.5"/>
<text text-anchor="start" x="313" y="-1113.9" font-family="Arial" font-size="14.00" fill="#000000">currency </text>
<text text-anchor="start" x="370.5596" y="-1113.9" font-family="Arial" font-size="14.00" fill="#666666">[varchar(5)]</text>
<polygon fill="none" stroke="#000000" points="306,-1072.5 306,-1102.5 622,-1102.5 622,-1072.5 306,-1072.5"/>
<text text-anchor="start" x="313" y="-1083.9" font-family="Arial" font-size="14.00" fill="#000000">award </text>
<text text-anchor="start" x="355.0056" y="-1083.9" font-family="Arial" font-size="14.00" fill="#666666">[real]</text>
<polygon fill="none" stroke="#000000" points="306,-1042.5 306,-1072.5 622,-1072.5 622,-1042.5 306,-1042.5"/>
<text text-anchor="start" x="313" y="-1053.9" font-family="Arial" font-size="14.00" fill="#000000">day1 </text>
<text text-anchor="start" x="347.2384" y="-1053.9" font-family="Arial" font-size="14.00" fill="#666666">[time without time zone]</text>
<polygon fill="none" stroke="#000000" points="306,-1012.5 306,-1042.5 622,-1042.5 622,-1012.5 306,-1012.5"/>
<text text-anchor="start" x="313" y="-1023.9" font-family="Arial" font-size="14.00" fill="#000000">day2 </text>
<text text-anchor="start" x="347.2384" y="-1023.9" font-family="Arial" font-size="14.00" fill="#666666">[time without time zone]</text>
<polygon fill="none" stroke="#000000" points="306,-982.5 306,-1012.5 622,-1012.5 622,-982.5 306,-982.5"/>
<text text-anchor="start" x="313" y="-993.9" font-family="Arial" font-size="14.00" fill="#000000">day3 </text>
<text text-anchor="start" x="347.2384" y="-993.9" font-family="Arial" font-size="14.00" fill="#666666">[time without time zone]</text>
<polygon fill="none" stroke="#000000" points="306,-952.5 306,-982.5 622,-982.5 622,-952.5 306,-952.5"/>
<text text-anchor="start" x="313" y="-963.9" font-family="Arial" font-size="14.00" fill="#000000">day4 </text>
<text text-anchor="start" x="347.2384" y="-963.9" font-family="Arial" font-size="14.00" fill="#666666">[time without time zone]</text>
<polygon fill="none" stroke="#000000" points="306,-922.5 306,-952.5 622,-952.5 622,-922.5 306,-922.5"/>
<text text-anchor="start" x="313" y="-933.9" font-family="Arial" font-size="14.00" fill="#000000">day5 </text>
<text text-anchor="start" x="347.2384" y="-933.9" font-family="Arial" font-size="14.00" fill="#666666">[time without time zone]</text>
<polygon fill="none" stroke="#000000" points="306,-892.5 306,-922.5 622,-922.5 622,-892.5 306,-892.5"/>
<text text-anchor="start" x="313" y="-903.9" font-family="Arial" font-size="14.00" fill="#000000">serviceID </text>
<text text-anchor="start" x="375.2202" y="-903.9" font-family="Arial" font-size="14.00" fill="#666666">[integer]</text>
<polygon fill="none" stroke="#000000" points="306,-862.5 306,-892.5 622,-892.5 622,-862.5 306,-862.5"/>
<text text-anchor="start" x="313" y="-873.9" font-family="Arial" font-size="14.00" fill="#000000">createdAt </text>
<text text-anchor="start" x="376.7994" y="-873.9" font-family="Arial" font-size="14.00" fill="#666666">[timestamp without time zone]</text>
<polygon fill="none" stroke="#000000" points="306,-832.5 306,-862.5 622,-862.5 622,-832.5 306,-832.5"/>
<text text-anchor="start" x="313" y="-843.9" font-family="Arial" font-size="14.00" fill="#000000">updatedAt </text>
<text text-anchor="start" x="380.704" y="-843.9" font-family="Arial" font-size="14.00" fill="#666666">[timestamp without time zone]</text>
<polygon fill="none" stroke="#000000" stroke-width="3" points="304.5,-831.5 304.5,-1259.5 623.5,-1259.5 623.5,-831.5 304.5,-831.5"/>
</g>
<!-- public.services -->
<g id="node3" class="node">
<title>public.services</title>
<polygon fill="#efefef" stroke="transparent" points="315,-672.5 315,-707.5 612,-707.5 612,-672.5 315,-672.5"/>
<polygon fill="none" stroke="#000000" points="315,-672.5 315,-707.5 612,-707.5 612,-672.5 315,-672.5"/>
<text text-anchor="start" x="340.712" y="-685.3" font-family="Arial Bold" font-size="18.00" fill="#000000">public.services</text>
<text text-anchor="start" x="458.72" y="-685.3" font-family="Arial" font-size="14.00" fill="#000000">    </text>
<text text-anchor="start" x="492.9248" y="-685.3" font-family="Arial" font-size="14.00" fill="#666666">[BASE TABLE]</text>
<polygon fill="none" stroke="#000000" points="315,-642.5 315,-672.5 612,-672.5 612,-642.5 315,-642.5"/>
<text text-anchor="start" x="322" y="-653.9" font-family="Arial" font-size="14.00" fill="#000000">serviceID    </text>
<text text-anchor="start" x="414.5344" y="-653.9" font-family="Arial" font-size="14.00" fill="#666666">[integer]</text>
<polygon fill="none" stroke="#000000" points="315,-612.5 315,-642.5 612,-642.5 612,-612.5 315,-612.5"/>
<text text-anchor="start" x="322" y="-623.9" font-family="Arial" font-size="14.00" fill="#000000">name    </text>
<text text-anchor="start" x="391.2132" y="-623.9" font-family="Arial" font-size="14.00" fill="#666666">[varchar(256)]</text>
<polygon fill="none" stroke="#000000" points="315,-582.5 315,-612.5 612,-612.5 612,-582.5 315,-582.5"/>
<text text-anchor="start" x="322" y="-593.9" font-family="Arial" font-size="14.00" fill="#000000">serviceCategoryID    </text>
<text text-anchor="start" x="471.3226" y="-593.9" font-family="Arial" font-size="14.00" fill="#666666">[integer]</text>
<polygon fill="none" stroke="#000000" points="315,-552.5 315,-582.5 612,-582.5 612,-552.5 315,-552.5"/>
<text text-anchor="start" x="322" y="-563.9" font-family="Arial" font-size="14.00" fill="#000000">currency    </text>
<text text-anchor="start" x="409.8738" y="-563.9" font-family="Arial" font-size="14.00" fill="#666666">[varchar(5)]</text>
<polygon fill="none" stroke="#000000" points="315,-522.5 315,-552.5 612,-552.5 612,-522.5 315,-522.5"/>
<text text-anchor="start" x="322" y="-533.9" font-family="Arial" font-size="14.00" fill="#000000">cost    </text>
<text text-anchor="start" x="381.878" y="-533.9" font-family="Arial" font-size="14.00" fill="#666666">[real]</text>
<polygon fill="none" stroke="#000000" points="315,-492.5 315,-522.5 612,-522.5 612,-492.5 315,-492.5"/>
<text text-anchor="start" x="322" y="-503.9" font-family="Arial" font-size="14.00" fill="#000000">includeInAutomaticSms    </text>
<text text-anchor="start" x="502.4516" y="-503.9" font-family="Arial" font-size="14.00" fill="#666666">[boolean]</text>
<polygon fill="none" stroke="#000000" points="315,-462.5 315,-492.5 612,-492.5 612,-462.5 315,-462.5"/>
<text text-anchor="start" x="322" y="-473.9" font-family="Arial" font-size="14.00" fill="#000000">hidden    </text>
<text text-anchor="start" x="398.2244" y="-473.9" font-family="Arial" font-size="14.00" fill="#666666">[boolean]</text>
<polygon fill="none" stroke="#000000" points="315,-432.5 315,-462.5 612,-462.5 612,-432.5 315,-432.5"/>
<text text-anchor="start" x="322" y="-443.9" font-family="Arial" font-size="14.00" fill="#000000">callInterval    </text>
<text text-anchor="start" x="423.0968" y="-443.9" font-family="Arial" font-size="14.00" fill="#666666">[integer]</text>
<polygon fill="none" stroke="#000000" points="315,-402.5 315,-432.5 612,-432.5 612,-402.5 315,-402.5"/>
<text text-anchor="start" x="322" y="-413.9" font-family="Arial" font-size="14.00" fill="#000000">colorForService    </text>
<text text-anchor="start" x="454.202" y="-413.9" font-family="Arial" font-size="14.00" fill="#666666">[varchar]</text>
<polygon fill="none" stroke="#000000" points="315,-372.5 315,-402.5 612,-402.5 612,-372.5 315,-372.5"/>
<text text-anchor="start" x="322" y="-383.9" font-family="Arial" font-size="14.00" fill="#000000">warrantyCard    </text>
<text text-anchor="start" x="440.2034" y="-383.9" font-family="Arial" font-size="14.00" fill="#666666">[boolean]</text>
<polygon fill="none" stroke="#000000" points="315,-342.5 315,-372.5 612,-372.5 612,-342.5 315,-342.5"/>
<text text-anchor="start" x="322" y="-353.9" font-family="Arial" font-size="14.00" fill="#000000">itemNumber    </text>
<text text-anchor="start" x="432.4208" y="-353.9" font-family="Arial" font-size="14.00" fill="#666666">[varchar(256)]</text>
<polygon fill="none" stroke="#000000" points="315,-312.5 315,-342.5 612,-342.5 612,-312.5 315,-312.5"/>
<text text-anchor="start" x="322" y="-323.9" font-family="Arial" font-size="14.00" fill="#000000">award    </text>
<text text-anchor="start" x="394.3198" y="-323.9" font-family="Arial" font-size="14.00" fill="#666666">[real]</text>
<polygon fill="none" stroke="#000000" points="315,-282.5 315,-312.5 612,-312.5 612,-282.5 315,-282.5"/>
<text text-anchor="start" x="322" y="-293.9" font-family="Arial" font-size="14.00" fill="#000000">suppliersArticleNumber    </text>
<text text-anchor="start" x="500.8682" y="-293.9" font-family="Arial" font-size="14.00" fill="#666666">[varchar(256)]</text>
<polygon fill="none" stroke="#000000" points="315,-252.5 315,-282.5 612,-282.5 612,-252.5 315,-252.5"/>
<text text-anchor="start" x="322" y="-263.9" font-family="Arial" font-size="14.00" fill="#000000">externalArticleNumber    </text>
<text text-anchor="start" x="494.6522" y="-263.9" font-family="Arial" font-size="14.00" fill="#666666">[varchar(256)]</text>
<polygon fill="none" stroke="#000000" points="315,-222.5 315,-252.5 612,-252.5 612,-222.5 315,-222.5"/>
<text text-anchor="start" x="322" y="-233.9" font-family="Arial" font-size="14.00" fill="#000000">day1    </text>
<text text-anchor="start" x="386.5526" y="-233.9" font-family="Arial" font-size="14.00" fill="#666666">[time without time zone]</text>
<polygon fill="none" stroke="#000000" points="315,-192.5 315,-222.5 612,-222.5 612,-192.5 315,-192.5"/>
<text text-anchor="start" x="322" y="-203.9" font-family="Arial" font-size="14.00" fill="#000000">day2    </text>
<text text-anchor="start" x="386.5526" y="-203.9" font-family="Arial" font-size="14.00" fill="#666666">[time without time zone]</text>
<polygon fill="none" stroke="#000000" points="315,-162.5 315,-192.5 612,-192.5 612,-162.5 315,-162.5"/>
<text text-anchor="start" x="322" y="-173.9" font-family="Arial" font-size="14.00" fill="#000000">day3    </text>
<text text-anchor="start" x="386.5526" y="-173.9" font-family="Arial" font-size="14.00" fill="#666666">[time without time zone]</text>
<polygon fill="none" stroke="#000000" points="315,-132.5 315,-162.5 612,-162.5 612,-132.5 315,-132.5"/>
<text text-anchor="start" x="322" y="-143.9" font-family="Arial" font-size="14.00" fill="#000000">day4    </text>
<text text-anchor="start" x="386.5526" y="-143.9" font-family="Arial" font-size="14.00" fill="#666666">[time without time zone]</text>
<polygon fill="none" stroke="#000000" points="315,-102.5 315,-132.5 612,-132.5 612,-102.5 315,-102.5"/>
<text text-anchor="start" x="322" y="-113.9" font-family="Arial" font-size="14.00" fill="#000000">day5    </text>
<text text-anchor="start" x="386.5526" y="-113.9" font-family="Arial" font-size="14.00" fill="#666666">[time without time zone]</text>
<polygon fill="none" stroke="#000000" points="315,-72.5 315,-102.5 612,-102.5 612,-72.5 315,-72.5"/>
<text text-anchor="start" x="322" y="-83.9" font-family="Arial" font-size="14.00" fill="#000000">createdAt    </text>
<text text-anchor="start" x="416.1136" y="-83.9" font-family="Arial" font-size="14.00" fill="#666666">[timestamp without time zone]</text>
<polygon fill="none" stroke="#000000" points="315,-42.5 315,-72.5 612,-72.5 612,-42.5 315,-42.5"/>
<text text-anchor="start" x="321.9208" y="-53.9" font-family="Arial" font-size="14.00" fill="#000000">updatedAt    </text>
<text text-anchor="start" x="419.939" y="-53.9" font-family="Arial" font-size="14.00" fill="#666666">[timestamp without time zone]</text>
</g>
<!-- public.serviceVariants&#45;&gt;public.services -->
<g id="edge2" class="edge">
<title>public.serviceVariants:serviceID&#45;&gt;public.services:serviceID</title>
<path fill="none" stroke="#000000" d="M296.0024,-906.4104C254.9832,-896.686 272.8444,-824.285 306,-787 396.9972,-684.6696 521.0028,-853.3304 612,-751 639.6143,-719.9466 653.5556,-657.5 612,-657.5"/>
<polygon fill="#000000" stroke="#000000" points="296.0589,-906.4165 305.5124,-911.9735 301.0294,-906.9582 306,-907.5 306,-907.5 306,-907.5 301.0294,-906.9582 306.4876,-903.0265 296.0589,-906.4165 296.0589,-906.4165"/>
<text text-anchor="start" x="6.744" y="-917.5" font-family="Arial" font-size="10.00" fill="#000000">FOREIGN KEY (&quot;serviceID&quot;) REFERENCES services(&quot;serviceID&quot;)</text>
</g>
<!-- public.orderServices -->
<g id="node2" class="node">
<title>public.orderServices</title>
<polygon fill="#efefef" stroke="transparent" points="312,-1832.5 312,-1867.5 616,-1867.5 616,-1832.5 312,-1832.5"/>
<polygon fill="none" stroke="#000000" points="312,-1832.5 312,-1867.5 616,-1867.5 616,-1832.5 312,-1832.5"/>
<text text-anchor="start" x="318.7084" y="-1845.3" font-family="Arial Bold" font-size="18.00" fill="#000000">public.orderServices</text>
<text text-anchor="start" x="481.7236" y="-1845.3" font-family="Arial" font-size="14.00" fill="#000000">    </text>
<text text-anchor="start" x="515.9284" y="-1845.3" font-family="Arial" font-size="14.00" fill="#666666">[BASE TABLE]</text>
<polygon fill="none" stroke="#000000" points="312,-1802.5 312,-1832.5 616,-1832.5 616,-1802.5 312,-1802.5"/>
<text text-anchor="start" x="319" y="-1813.9" font-family="Arial" font-size="14.00" fill="#000000">orderID    </text>
<text text-anchor="start" x="399.871" y="-1813.9" font-family="Arial" font-size="14.00" fill="#666666">[integer]</text>
<polygon fill="none" stroke="#000000" points="312,-1772.5 312,-1802.5 616,-1802.5 616,-1772.5 312,-1772.5"/>
<text text-anchor="start" x="319" y="-1783.9" font-family="Arial" font-size="14.00" fill="#000000">serviceID    </text>
<text text-anchor="start" x="411.5344" y="-1783.9" font-family="Arial" font-size="14.00" fill="#666666">[integer]</text>
<polygon fill="none" stroke="#000000" points="312,-1742.5 312,-1772.5 616,-1772.5 616,-1742.5 312,-1742.5"/>
<text text-anchor="start" x="319" y="-1753.9" font-family="Arial" font-size="14.00" fill="#000000">serviceVariantID    </text>
<text text-anchor="start" x="455.8766" y="-1753.9" font-family="Arial" font-size="14.00" fill="#666666">[integer]</text>
<polygon fill="none" stroke="#000000" points="312,-1712.5 312,-1742.5 616,-1742.5 616,-1712.5 312,-1712.5"/>
<text text-anchor="start" x="319" y="-1723.9" font-family="Arial" font-size="14.00" fill="#000000">day1    </text>
<text text-anchor="start" x="383.5526" y="-1723.9" font-family="Arial" font-size="14.00" fill="#666666">[timestamp without time zone]</text>
<polygon fill="none" stroke="#000000" points="312,-1682.5 312,-1712.5 616,-1712.5 616,-1682.5 312,-1682.5"/>
<text text-anchor="start" x="319" y="-1693.9" font-family="Arial" font-size="14.00" fill="#000000">day1Work    </text>
<text text-anchor="start" x="416.2104" y="-1693.9" font-family="Arial" font-size="14.00" fill="#666666">[interval]</text>
<polygon fill="none" stroke="#000000" points="312,-1652.5 312,-1682.5 616,-1682.5 616,-1652.5 312,-1652.5"/>
<text text-anchor="start" x="319" y="-1663.9" font-family="Arial" font-size="14.00" fill="#000000">employeeID    </text>
<text text-anchor="start" x="427.8822" y="-1663.9" font-family="Arial" font-size="14.00" fill="#666666">[integer]</text>
<polygon fill="none" stroke="#000000" points="312,-1622.5 312,-1652.5 616,-1652.5 616,-1622.5 312,-1622.5"/>
<text text-anchor="start" x="319" y="-1633.9" font-family="Arial" font-size="14.00" fill="#000000">day2    </text>
<text text-anchor="start" x="383.5526" y="-1633.9" font-family="Arial" font-size="14.00" fill="#666666">[timestamp without time zone]</text>
<polygon fill="none" stroke="#000000" points="312,-1592.5 312,-1622.5 616,-1622.5 616,-1592.5 312,-1592.5"/>
<text text-anchor="start" x="319" y="-1603.9" font-family="Arial" font-size="14.00" fill="#000000">day3    </text>
<text text-anchor="start" x="383.5526" y="-1603.9" font-family="Arial" font-size="14.00" fill="#666666">[timestamp without time zone]</text>
<polygon fill="none" stroke="#000000" points="312,-1562.5 312,-1592.5 616,-1592.5 616,-1562.5 312,-1562.5"/>
<text text-anchor="start" x="319" y="-1573.9" font-family="Arial" font-size="14.00" fill="#000000">day4    </text>
<text text-anchor="start" x="383.5526" y="-1573.9" font-family="Arial" font-size="14.00" fill="#666666">[timestamp without time zone]</text>
<polygon fill="none" stroke="#000000" points="312,-1532.5 312,-1562.5 616,-1562.5 616,-1532.5 312,-1532.5"/>
<text text-anchor="start" x="319" y="-1543.9" font-family="Arial" font-size="14.00" fill="#000000">day5    </text>
<text text-anchor="start" x="383.5526" y="-1543.9" font-family="Arial" font-size="14.00" fill="#666666">[timestamp without time zone]</text>
<polygon fill="none" stroke="#000000" points="312,-1502.5 312,-1532.5 616,-1532.5 616,-1502.5 312,-1502.5"/>
<text text-anchor="start" x="319" y="-1513.9" font-family="Arial" font-size="14.00" fill="#000000">cost    </text>
<text text-anchor="start" x="378.878" y="-1513.9" font-family="Arial" font-size="14.00" fill="#666666">[real]</text>
<polygon fill="none" stroke="#000000" points="312,-1472.5 312,-1502.5 616,-1502.5 616,-1472.5 312,-1472.5"/>
<text text-anchor="start" x="319" y="-1483.9" font-family="Arial" font-size="14.00" fill="#000000">discount    </text>
<text text-anchor="start" x="405.3324" y="-1483.9" font-family="Arial" font-size="14.00" fill="#666666">[real]</text>
<polygon fill="none" stroke="#000000" points="312,-1442.5 312,-1472.5 616,-1472.5 616,-1442.5 312,-1442.5"/>
<text text-anchor="start" x="319" y="-1453.9" font-family="Arial" font-size="14.00" fill="#000000">vatFree    </text>
<text text-anchor="start" x="400.6564" y="-1453.9" font-family="Arial" font-size="14.00" fill="#666666">[boolean]</text>
<polygon fill="none" stroke="#000000" points="312,-1412.5 312,-1442.5 616,-1442.5 616,-1412.5 312,-1412.5"/>
<text text-anchor="start" x="319" y="-1423.9" font-family="Arial" font-size="14.00" fill="#000000">orderNotes    </text>
<text text-anchor="start" x="422.4362" y="-1423.9" font-family="Arial" font-size="14.00" fill="#666666">[varchar]</text>
<polygon fill="none" stroke="#000000" points="312,-1382.5 312,-1412.5 616,-1412.5 616,-1382.5 312,-1382.5"/>
<text text-anchor="start" x="319" y="-1393.9" font-family="Arial" font-size="14.00" fill="#000000">amount    </text>
<text text-anchor="start" x="399.8864" y="-1393.9" font-family="Arial" font-size="14.00" fill="#666666">[integer]</text>
</g>
<!-- public.orderServices&#45;&gt;public.serviceVariants -->
<g id="edge1" class="edge">
<title>public.orderServices:serviceVariantID&#45;&gt;public.serviceVariants:serviceVariantID</title>
<path fill="none" stroke="#000000" d="M625.207,-1753.0728C677.5609,-1701.0217 679.8919,-1207.5 622,-1207.5"/>
<polygon fill="#000000" stroke="#000000" points="625.0122,-1753.1664 614.0499,-1753.4445 620.5061,-1755.3332 616,-1757.5 616,-1757.5 616,-1757.5 620.5061,-1755.3332 617.9501,-1761.5555 625.0122,-1753.1664 625.0122,-1753.1664"/>
<text text-anchor="start" x="623.4045" y="-1767.5" font-family="Arial" font-size="10.00" fill="#000000">FOREIGN KEY (&quot;serviceVariantID&quot;) REFERENCES &quot;serviceVariants&quot;(&quot;serviceVariantID&quot;) ON DELETE CASCADE</text>
</g>
</g>
</svg>
